<?xml version="1.0"?>
<!-- Generated by SVGo -->
<svg width="149.064mm" height="87.152mm"
     viewBox="0.000 0.000 149.064 87.152"
     xmlns="http://www.w3.org/2000/svg" 
     xmlns:xlink="http://www.w3.org/1999/xlink">
<polygon points="139.064,5.001 139.456,5.016 139.846,5.062 140.231,5.139 140.609,5.245 140.977,5.381 141.334,5.545 141.676,5.737 142.003,5.955 142.311,6.198 142.600,6.465 142.866,6.753 143.109,7.062 143.327,7.388 143.519,7.731 143.683,8.087 143.819,8.455 143.926,8.833 144.002,9.218 144.049,9.608 144.064,10.001 144.064,77.152 144.049,77.544 144.002,77.934 143.926,78.319 143.819,78.697 143.683,79.065 143.519,79.421 143.327,79.764 143.109,80.090 142.866,80.399 142.600,80.687 142.311,80.954 142.003,81.197 141.676,81.415 141.334,81.607 140.977,81.771 140.609,81.907 140.231,82.013 139.846,82.090 139.456,82.136 139.064,82.152 10.001,82.152 9.608,82.136 9.218,82.090 8.833,82.013 8.455,81.907 8.087,81.771 7.731,81.607 7.388,81.415 7.062,81.197 6.753,80.954 6.465,80.687 6.198,80.399 5.955,80.090 5.737,79.764 5.545,79.421 5.381,79.065 5.245,78.697 5.139,78.319 5.062,77.934 5.016,77.544 5.000,77.151 5.001,10.001 5.016,9.608 5.062,9.218 5.139,8.833 5.245,8.455 5.381,8.087 5.545,7.731 5.737,7.388 5.955,7.062 6.198,6.753 6.465,6.465 6.753,6.198 7.062,5.955 7.388,5.737 7.731,5.545 8.087,5.381 8.455,5.245 8.833,5.139 9.218,5.062 9.608,5.016 10.001,5.000" style="fill:none;stroke-width:0.050000mm;stroke:black"/>
<polygon points="138.523,75.487 138.035,75.736 137.648,76.123 137.400,76.611 137.314,77.152 137.400,77.692 137.648,78.180 138.035,78.567 138.523,78.816 139.064,78.902 139.605,78.816 140.093,78.567 140.480,78.180 140.728,77.692 140.814,77.152 140.728,76.611 140.480,76.123 140.093,75.736 139.605,75.487 139.064,75.402" style="fill:none;stroke-width:0.050000mm;stroke:black"/>
<polygon points="9.460,75.487 8.972,75.736 8.585,76.123 8.336,76.611 8.251,77.152 8.336,77.692 8.585,78.180 8.972,78.567 9.460,78.816 10.001,78.902 10.541,78.816 11.029,78.567 11.416,78.180 11.665,77.692 11.751,77.152 11.665,76.611 11.416,76.123 11.029,75.736 10.541,75.487 10.001,75.402" style="fill:none;stroke-width:0.050000mm;stroke:black"/>
<polygon points="138.523,8.336 138.035,8.585 137.648,8.972 137.400,9.460 137.314,10.001 137.400,10.541 137.648,11.029 138.035,11.416 138.523,11.665 139.064,11.751 139.605,11.665 140.093,11.416 140.480,11.029 140.728,10.541 140.814,10.001 140.728,9.460 140.480,8.972 140.093,8.585 139.605,8.336 139.064,8.251" style="fill:none;stroke-width:0.050000mm;stroke:black"/>
<polygon points="9.460,8.336 8.972,8.585 8.585,8.972 8.336,9.460 8.251,10.001 8.336,10.541 8.585,11.029 8.972,11.416 9.460,11.665 10.001,11.751 10.541,11.665 11.029,11.416 11.416,11.029 11.665,10.541 11.751,10.001 11.665,9.460 11.416,8.972 11.029,8.585 10.541,8.336 10.001,8.251" style="fill:none;stroke-width:0.050000mm;stroke:black"/>
</svg>
