%TF.GenerationSoftware,KiCad,Pcbnew,(6.0.8)*%
%TF.CreationDate,2022-10-27T15:28:22-06:00*%
%TF.ProjectId,plate,706c6174-652e-46b6-9963-61645f706362,rev?*%
%TF.SameCoordinates,Original*%
%TF.FileFunction,Drillmap*%
%TF.FilePolarity,Positive*%
%FSLAX45Y45*%
G04 Gerber Fmt 4.5, Leading zero omitted, Abs format (unit mm)*
G04 Created by KiCad (PCBNEW (6.0.8)) date 2022-10-27 15:28:22*
%MOMM*%
%LPD*%
G01*
G04 APERTURE LIST*
%ADD10C,0.188976*%
%ADD11C,0.200000*%
G04 APERTURE END LIST*
D10*
X17396000Y-9503900D02*
X17396000Y-9503900D01*
X17396000Y-9193900D02*
X17316000Y-9193900D01*
X8048800Y-6397100D02*
X8053400Y-6358100D01*
X15491000Y-12398900D02*
X16891000Y-12398900D01*
X13029800Y-7288900D02*
X13029800Y-7288900D01*
X8048800Y-13190700D02*
X8047200Y-13151400D01*
X8380800Y-6382300D02*
X8380800Y-6382300D01*
X21350700Y-13293000D02*
X21350700Y-13293000D01*
X21595199Y-6333500D02*
X21556500Y-6294800D01*
X10699800Y-8588900D02*
X10699800Y-8588900D01*
X21492799Y-13649900D02*
X21492799Y-13649900D01*
X8469000Y-13645300D02*
X8469000Y-13645300D01*
X11204700Y-10083900D02*
X11124800Y-10083900D01*
X8547300Y-6261400D02*
X8547300Y-6261400D01*
X21747500Y-13556000D02*
X21747500Y-13556000D01*
X8508000Y-13649900D02*
X8469000Y-13645300D01*
X14509799Y-7188900D02*
X14509799Y-7188900D01*
X18876000Y-9193900D02*
X18796000Y-9193900D01*
X15491000Y-8178800D02*
X15491000Y-8178800D01*
X9299800Y-11408900D02*
X9299800Y-11408900D01*
X12684700Y-9193900D02*
X12604700Y-9193900D01*
X14509799Y-7598900D02*
X14589800Y-7598900D01*
X8048800Y-6397100D02*
X8048800Y-6397100D01*
X16891000Y-12398900D02*
X16891000Y-12398900D01*
X13109799Y-8588900D02*
X14509799Y-8588900D01*
X8053400Y-6358100D02*
X8053400Y-6358100D01*
X19221000Y-11408900D02*
X19301000Y-11408900D01*
X8047200Y-13151400D02*
X8047200Y-13151400D01*
X14509799Y-8488900D02*
X14589800Y-8488900D01*
X16971000Y-8178800D02*
X16971000Y-8178800D01*
X16891000Y-7288900D02*
X16891000Y-7288900D01*
X15491000Y-8588900D02*
X15491000Y-8588900D01*
X15491000Y-8488900D02*
X15491000Y-8488900D01*
X10699800Y-10998900D02*
X9299800Y-10998900D01*
X21507699Y-13317900D02*
X21556500Y-13293000D01*
X21556500Y-6294800D02*
X21556500Y-6294800D01*
X8142700Y-6142500D02*
X8167000Y-6111600D01*
X21929100Y-6281800D02*
X21939799Y-6319600D01*
X20780999Y-8178800D02*
X20700999Y-8178800D01*
X10699800Y-12298900D02*
X10779600Y-12298900D01*
X8101700Y-6209400D02*
X8120900Y-6175100D01*
X11204700Y-9503900D02*
X11204700Y-9503900D01*
X11124800Y-10393900D02*
X11204700Y-10393900D01*
X20700999Y-10998900D02*
X20700999Y-10998900D01*
X17396000Y-10493900D02*
X17396000Y-10493900D01*
X10779600Y-11408900D02*
X10779600Y-11098900D01*
X8222500Y-6056100D02*
X8253400Y-6031800D01*
X9299800Y-12398900D02*
X10699800Y-12398900D01*
X21287199Y-13205500D02*
X21287199Y-13205500D01*
X17396000Y-10493900D02*
X18796000Y-10493900D01*
X8142700Y-13445300D02*
X8120900Y-13412700D01*
X8405700Y-13254300D02*
X8444400Y-13293000D01*
X21287199Y-6490400D02*
X21311999Y-6539200D01*
X8405700Y-6333500D02*
X8405700Y-6333500D01*
X8469000Y-5942500D02*
X8508000Y-5937900D01*
X8469000Y-13645300D02*
X8430500Y-13637600D01*
X13109799Y-12298900D02*
X13109799Y-12298900D01*
X9219700Y-11988900D02*
X9219700Y-11988900D01*
X14509799Y-12398900D02*
X14509799Y-12298900D01*
X15491000Y-12298900D02*
X15491000Y-12398900D01*
X21879899Y-6175100D02*
X21879899Y-6175100D01*
X21287199Y-13097400D02*
X21287199Y-13097400D01*
X21915500Y-6245000D02*
X21915500Y-6245000D01*
X14589800Y-8488900D02*
X14589800Y-8488900D01*
X15411000Y-11098900D02*
X15411000Y-11408900D01*
X12604700Y-10083900D02*
X12604700Y-9503900D01*
X19301000Y-7288900D02*
X19221000Y-7288900D01*
X21833799Y-6111600D02*
X21833799Y-6111600D01*
X21595199Y-13254300D02*
X21619999Y-13205500D01*
X10699800Y-11408900D02*
X10779600Y-11408900D01*
X21833799Y-6111600D02*
X21858099Y-6142500D01*
X21287199Y-6382300D02*
X21278599Y-6436400D01*
X8120900Y-13412700D02*
X8120900Y-13412700D01*
X15491000Y-11098900D02*
X15491000Y-11098900D01*
X8405700Y-6333500D02*
X8380800Y-6382300D01*
X10699800Y-8178800D02*
X10699800Y-7598900D01*
X21833799Y-13476200D02*
X21833799Y-13476200D01*
X21507699Y-6269900D02*
X21453599Y-6261400D01*
X8547300Y-6611400D02*
X8601300Y-6602800D01*
X8547300Y-5936300D02*
X21453599Y-5936400D01*
X8085300Y-13342800D02*
X8085300Y-13342800D01*
X16891000Y-8178800D02*
X16891000Y-8178800D01*
X10779600Y-7288900D02*
X10779600Y-7288900D01*
X18876000Y-10393900D02*
X18876000Y-10083900D01*
X8355900Y-5974400D02*
X8355900Y-5974400D01*
X21287199Y-6382300D02*
X21287199Y-6382300D01*
X21899099Y-6209400D02*
X21915500Y-6245000D01*
X21350700Y-13009900D02*
X21350700Y-13009900D01*
X21953599Y-13151500D02*
X21953599Y-13151500D01*
X21595199Y-6539200D02*
X21619999Y-6490400D01*
X12604700Y-10493900D02*
X12604700Y-10393900D01*
X21778300Y-6056100D02*
X21807200Y-6082800D01*
X18876000Y-10083900D02*
X18796000Y-10083900D01*
X10779600Y-12298900D02*
X10779600Y-11988900D01*
X8380800Y-13097400D02*
X8380800Y-13097400D01*
X10699800Y-11988900D02*
X10699800Y-11988900D01*
X18796000Y-9193900D02*
X18796000Y-9193900D01*
X20700999Y-11408900D02*
X20700999Y-11408900D01*
X21350700Y-6294800D02*
X21350700Y-6294800D01*
X21619999Y-6490400D02*
X21628599Y-6436400D01*
X8085300Y-6245000D02*
X8101700Y-6209400D01*
X8508000Y-5937900D02*
X8547300Y-5936300D01*
X8380800Y-6490400D02*
X8380800Y-6490400D01*
X14509799Y-8588900D02*
X14509799Y-8488900D01*
X21628599Y-13151500D02*
X21619999Y-13097400D01*
X21644900Y-5974400D02*
X21644900Y-5974400D01*
X8320300Y-5990800D02*
X8355900Y-5974400D01*
X21531799Y-13645300D02*
X21531799Y-13645300D01*
X9299800Y-7288900D02*
X9299800Y-7288900D01*
X13109799Y-8178800D02*
X13029800Y-8178800D01*
X21858099Y-6142500D02*
X21879899Y-6175100D01*
X19301000Y-7188900D02*
X19301000Y-7288900D01*
X9299800Y-10998900D02*
X9299800Y-11098900D01*
X21399499Y-6602800D02*
X21399499Y-6602800D01*
X8053400Y-6358100D02*
X8061100Y-6319600D01*
X8071700Y-6281800D02*
X8085300Y-6245000D01*
X14509799Y-10998900D02*
X13109799Y-10998900D01*
X8547300Y-12976500D02*
X8493200Y-12985000D01*
X8047300Y-6436400D02*
X8048800Y-6397100D01*
X18876000Y-9503900D02*
X18876000Y-9503900D01*
X21531799Y-5942500D02*
X21531799Y-5942500D01*
X8355900Y-5974400D02*
X8392700Y-5960800D01*
X21929100Y-13306000D02*
X21915500Y-13342800D01*
X21453599Y-6261400D02*
X21399499Y-6269900D01*
X8444400Y-6294800D02*
X8405700Y-6333500D01*
X11124800Y-9193900D02*
X11124800Y-9503900D01*
X21644900Y-5974400D02*
X21680600Y-5990800D01*
X8601300Y-6269900D02*
X8547300Y-6261400D01*
X10699800Y-8588900D02*
X10699800Y-8488900D01*
X21952099Y-13190700D02*
X21952099Y-13190700D01*
X11204700Y-9193900D02*
X11124800Y-9193900D01*
X8372300Y-13151500D02*
X8380800Y-13205500D01*
X8601300Y-6602800D02*
X8650100Y-6577900D01*
X13109799Y-11098900D02*
X13109799Y-11098900D01*
X18876000Y-9503900D02*
X18876000Y-9193900D01*
X8547300Y-13326500D02*
X8547300Y-13326500D01*
X21939799Y-13268200D02*
X21929100Y-13306000D01*
X8380800Y-6490400D02*
X8405700Y-6539200D01*
X18876000Y-9193900D02*
X18876000Y-9193900D01*
X8167000Y-6111600D02*
X8167000Y-6111600D01*
X15491000Y-7288900D02*
X15491000Y-7288900D01*
X19301000Y-12298900D02*
X19301000Y-12398900D01*
X20700999Y-7288900D02*
X20700999Y-7188900D01*
X9219700Y-7598900D02*
X9299800Y-7598900D01*
X20700999Y-7598900D02*
X20700999Y-7598900D01*
X15491000Y-7288900D02*
X15411000Y-7288900D01*
X21350700Y-13009900D02*
X21311999Y-13048600D01*
X8193700Y-13505000D02*
X8193700Y-13505000D01*
X17396000Y-10393900D02*
X17396000Y-10393900D01*
X8713700Y-6382300D02*
X8713700Y-6382300D01*
X8142700Y-6142500D02*
X8142700Y-6142500D01*
X8547300Y-13651500D02*
X8547300Y-13651500D01*
X21278599Y-6436400D02*
X21278599Y-6436400D01*
X11124800Y-9193900D02*
X11124800Y-9193900D01*
X8405700Y-6539200D02*
X8405700Y-6539200D01*
X8601300Y-6269900D02*
X8601300Y-6269900D01*
X21278599Y-6436400D02*
X21287199Y-6490400D01*
X10699800Y-7288900D02*
X10699800Y-7288900D01*
X14589800Y-11408900D02*
X14589800Y-11098900D01*
X19301000Y-12298900D02*
X19301000Y-12298900D01*
X16891000Y-11408900D02*
X16891000Y-11408900D01*
X14509799Y-10998900D02*
X14509799Y-10998900D01*
X16971000Y-7288900D02*
X16891000Y-7288900D01*
X8405700Y-13048600D02*
X8380800Y-13097400D01*
X13109799Y-12398900D02*
X13109799Y-12398900D01*
X16971000Y-11098900D02*
X16971000Y-11098900D01*
X12684700Y-10393900D02*
X12684700Y-10393900D01*
X16971000Y-11988900D02*
X16971000Y-11988900D01*
X11124800Y-9503900D02*
X11204700Y-9503900D01*
X15491000Y-12398900D02*
X15491000Y-12398900D01*
X20780999Y-11408900D02*
X20780999Y-11408900D01*
X21531799Y-13645300D02*
X21492799Y-13649900D01*
X13109799Y-11408900D02*
X13109799Y-11408900D01*
X21507699Y-12985000D02*
X21507699Y-12985000D01*
X21879899Y-6175100D02*
X21899099Y-6209400D01*
X9219700Y-12298900D02*
X9299800Y-12298900D01*
X8430500Y-13637600D02*
X8392700Y-13627000D01*
X9219700Y-7288900D02*
X9219700Y-7598900D01*
X21833799Y-13476200D02*
X21807200Y-13505000D01*
X21350700Y-13293000D02*
X21399499Y-13317900D01*
X21595199Y-6539200D02*
X21595199Y-6539200D01*
X8193700Y-13505000D02*
X8167000Y-13476200D01*
X13029800Y-7288900D02*
X13029800Y-7598900D01*
X13109799Y-8588900D02*
X13109799Y-8588900D01*
X19301000Y-7598900D02*
X19301000Y-8178800D01*
X11124800Y-9503900D02*
X11124800Y-9503900D01*
X15411000Y-7598900D02*
X15411000Y-7598900D01*
X16891000Y-11098900D02*
X16891000Y-10998900D01*
X8601300Y-13317900D02*
X8650100Y-13293000D01*
X9299800Y-7598900D02*
X9299800Y-8178800D01*
X14509799Y-8588900D02*
X14509799Y-8588900D01*
X8380800Y-6382300D02*
X8372300Y-6436400D01*
X14589800Y-12298900D02*
X14589800Y-11988900D01*
X16971000Y-7598900D02*
X16971000Y-7288900D01*
X8444400Y-13009900D02*
X8444400Y-13009900D01*
X19301000Y-8488900D02*
X19301000Y-8488900D01*
X18796000Y-9093900D02*
X18796000Y-9093900D01*
X8101700Y-6209400D02*
X8101700Y-6209400D01*
X10779600Y-12298900D02*
X10779600Y-12298900D01*
X21570300Y-5950200D02*
X21608099Y-5960800D01*
X21899099Y-6209400D02*
X21899099Y-6209400D01*
X16891000Y-7288900D02*
X16891000Y-7188900D01*
X21453599Y-12976500D02*
X21453599Y-12976500D01*
X18796000Y-10393900D02*
X18796000Y-10393900D01*
X20700999Y-12298900D02*
X20700999Y-12298900D01*
X15491000Y-11408900D02*
X15491000Y-11988900D01*
X21952099Y-6397100D02*
X21952099Y-6397100D01*
X9299800Y-11098900D02*
X9219700Y-11098900D01*
X8355900Y-13613400D02*
X8320300Y-13597000D01*
X21899099Y-13378400D02*
X21899099Y-13378400D01*
X10699800Y-7598900D02*
X10699800Y-7598900D01*
X8722300Y-6436400D02*
X8713700Y-6382300D01*
X15491000Y-8588900D02*
X16891000Y-8588900D01*
X8120900Y-13412700D02*
X8101700Y-13378400D01*
X19301000Y-11988900D02*
X19301000Y-11988900D01*
X9299800Y-8588900D02*
X9299800Y-8588900D01*
X21570300Y-5950200D02*
X21570300Y-5950200D01*
X20700999Y-11988900D02*
X20700999Y-11988900D01*
X19301000Y-8178800D02*
X19301000Y-8178800D01*
X13029800Y-12298900D02*
X13029800Y-12298900D01*
X20700999Y-11988900D02*
X20700999Y-11408900D01*
X10779600Y-8488900D02*
X10779600Y-8178800D01*
X21311999Y-6539200D02*
X21311999Y-6539200D01*
X8286000Y-6010000D02*
X8320300Y-5990800D01*
X15491000Y-8178800D02*
X15411000Y-8178800D01*
X9299800Y-11098900D02*
X9299800Y-11098900D01*
X8508000Y-13649900D02*
X8508000Y-13649900D01*
X13109799Y-11098900D02*
X13029800Y-11098900D01*
X18796000Y-9093900D02*
X17396000Y-9093900D01*
X15411000Y-7288900D02*
X15411000Y-7288900D01*
X8688800Y-6333500D02*
X8688800Y-6333500D01*
X17316000Y-10083900D02*
X17316000Y-10393900D01*
X13029800Y-8488900D02*
X13029800Y-8488900D01*
X21595199Y-13048600D02*
X21556500Y-13009900D01*
X10699800Y-11988900D02*
X10699800Y-11408900D01*
X20780999Y-11988900D02*
X20780999Y-11988900D01*
X8071700Y-13306000D02*
X8061100Y-13268200D01*
X15491000Y-11098900D02*
X15411000Y-11098900D01*
X15411000Y-8488900D02*
X15411000Y-8488900D01*
X13029800Y-11988900D02*
X13029800Y-12298900D01*
X8493200Y-13317900D02*
X8493200Y-13317900D01*
X14509799Y-11988900D02*
X14509799Y-11408900D01*
X17396000Y-9093900D02*
X17396000Y-9193900D01*
X8320300Y-13597000D02*
X8286000Y-13577800D01*
X8320300Y-13597000D02*
X8320300Y-13597000D01*
X8101700Y-13378400D02*
X8085300Y-13342800D01*
X17396000Y-9503900D02*
X17396000Y-10083900D01*
X19221000Y-11098900D02*
X19221000Y-11408900D01*
X9299800Y-11988900D02*
X9219700Y-11988900D01*
X21747500Y-6031800D02*
X21747500Y-6031800D01*
X14589800Y-11098900D02*
X14509799Y-11098900D01*
X13029800Y-8178800D02*
X13029800Y-8178800D01*
X21492799Y-5937900D02*
X21492799Y-5937900D01*
X9299800Y-7598900D02*
X9299800Y-7598900D01*
X15411000Y-12298900D02*
X15411000Y-12298900D01*
X20780999Y-7598900D02*
X20780999Y-7598900D01*
X16891000Y-8488900D02*
X16891000Y-8488900D01*
X15491000Y-11988900D02*
X15411000Y-11988900D01*
X21714799Y-6010000D02*
X21747500Y-6031800D01*
X8392700Y-13627000D02*
X8392700Y-13627000D01*
X8722300Y-13151500D02*
X8722300Y-13151500D01*
X8085300Y-6245000D02*
X8085300Y-6245000D01*
X14509799Y-11098900D02*
X14509799Y-10998900D01*
X14589800Y-8178800D02*
X14509799Y-8178800D01*
X9299800Y-8178800D02*
X9299800Y-8178800D01*
X8713700Y-6490400D02*
X8713700Y-6490400D01*
X16891000Y-12398900D02*
X16891000Y-12298900D01*
X21570300Y-13637600D02*
X21570300Y-13637600D01*
X9219700Y-8488900D02*
X9299800Y-8488900D01*
X21311999Y-13254300D02*
X21350700Y-13293000D01*
X12604700Y-9093900D02*
X12604700Y-9093900D01*
X8222500Y-13531700D02*
X8193700Y-13505000D01*
X15411000Y-11098900D02*
X15411000Y-11098900D01*
X13029800Y-12298900D02*
X13109799Y-12298900D01*
X15491000Y-7598900D02*
X15491000Y-7598900D01*
X15411000Y-7288900D02*
X15411000Y-7598900D01*
X12684700Y-9503900D02*
X12684700Y-9503900D01*
X21399499Y-12985000D02*
X21350700Y-13009900D01*
X19301000Y-11988900D02*
X19221000Y-11988900D01*
X14589800Y-11098900D02*
X14589800Y-11098900D01*
X10699800Y-7288900D02*
X10699800Y-7188900D01*
X19301000Y-10998900D02*
X19301000Y-11098900D01*
X19221000Y-12298900D02*
X19221000Y-12298900D01*
X15491000Y-7188900D02*
X15491000Y-7288900D01*
X15411000Y-8178800D02*
X15411000Y-8488900D01*
X20780999Y-12298900D02*
X20780999Y-12298900D01*
X18796000Y-10083900D02*
X18796000Y-10083900D01*
X11124800Y-10393900D02*
X11124800Y-10393900D01*
X9299800Y-11408900D02*
X9299800Y-11988900D01*
X9299800Y-8488900D02*
X9299800Y-8488900D01*
X16971000Y-11098900D02*
X16891000Y-11098900D01*
X16971000Y-11408900D02*
X16971000Y-11098900D01*
X19221000Y-11988900D02*
X19221000Y-12298900D01*
X19301000Y-12398900D02*
X20700999Y-12398900D01*
X10699800Y-11098900D02*
X10699800Y-11098900D01*
X8320300Y-5990800D02*
X8320300Y-5990800D01*
X8688800Y-6333500D02*
X8650100Y-6294800D01*
X14589800Y-7288900D02*
X14589800Y-7288900D01*
X13109799Y-12298900D02*
X13109799Y-12398900D01*
X21947400Y-13229700D02*
X21947400Y-13229700D01*
X20700999Y-12298900D02*
X20780999Y-12298900D01*
X17316000Y-10393900D02*
X17396000Y-10393900D01*
X11204700Y-10493900D02*
X11204700Y-10493900D01*
X21680600Y-13597000D02*
X21680600Y-13597000D01*
X15491000Y-11408900D02*
X15491000Y-11408900D01*
X16891000Y-7188900D02*
X15491000Y-7188900D01*
X11124800Y-10083900D02*
X11124800Y-10083900D01*
X11204700Y-10083900D02*
X11204700Y-10083900D01*
X21939799Y-6319600D02*
X21939799Y-6319600D01*
X8469000Y-5942500D02*
X8469000Y-5942500D01*
X16891000Y-7598900D02*
X16891000Y-7598900D01*
X21453599Y-13651500D02*
X8547300Y-13651500D01*
X15491000Y-7598900D02*
X15491000Y-8178800D01*
X8493200Y-6602800D02*
X8547300Y-6611400D01*
X8650100Y-6294800D02*
X8601300Y-6269900D01*
X8053400Y-13229700D02*
X8053400Y-13229700D01*
X8193700Y-6082800D02*
X8193700Y-6082800D01*
X20700999Y-11098900D02*
X20700999Y-11098900D01*
X13029800Y-11098900D02*
X13029800Y-11408900D01*
X8061100Y-13268200D02*
X8061100Y-13268200D01*
X12684700Y-10083900D02*
X12684700Y-10083900D01*
X21858099Y-13445300D02*
X21833799Y-13476200D01*
X10779600Y-11988900D02*
X10779600Y-11988900D01*
X16891000Y-12298900D02*
X16971000Y-12298900D01*
X11124800Y-10083900D02*
X11124800Y-10393900D01*
X8547300Y-6611400D02*
X8547300Y-6611400D01*
X8048800Y-13190700D02*
X8048800Y-13190700D01*
X8167000Y-13476200D02*
X8142700Y-13445300D01*
X20780999Y-7288900D02*
X20780999Y-7288900D01*
X21807200Y-13505000D02*
X21778300Y-13531700D01*
X21619999Y-6382300D02*
X21619999Y-6382300D01*
X15491000Y-11988900D02*
X15491000Y-11988900D01*
X8601300Y-13317900D02*
X8601300Y-13317900D01*
X8430500Y-5950200D02*
X8430500Y-5950200D01*
X8253400Y-13556000D02*
X8253400Y-13556000D01*
X19301000Y-11098900D02*
X19301000Y-11098900D01*
X16891000Y-7188900D02*
X16891000Y-7188900D01*
X19301000Y-7288900D02*
X19301000Y-7288900D01*
X8444400Y-13293000D02*
X8444400Y-13293000D01*
X17316000Y-9503900D02*
X17316000Y-9503900D01*
X12684700Y-9193900D02*
X12684700Y-9193900D01*
X14509799Y-8178800D02*
X14509799Y-7598900D01*
X16891000Y-11098900D02*
X16891000Y-11098900D01*
X12684700Y-10393900D02*
X12684700Y-10083900D01*
X8071700Y-13306000D02*
X8071700Y-13306000D01*
X8713700Y-6382300D02*
X8688800Y-6333500D01*
X20700999Y-8588900D02*
X20700999Y-8488900D01*
X21556500Y-6577900D02*
X21595199Y-6539200D01*
X21939799Y-13268200D02*
X21939799Y-13268200D01*
X13109799Y-11408900D02*
X13109799Y-11988900D01*
X8222500Y-13531700D02*
X8222500Y-13531700D01*
X19301000Y-11098900D02*
X19221000Y-11098900D01*
X21778300Y-13531700D02*
X21778300Y-13531700D01*
X19221000Y-11408900D02*
X19221000Y-11408900D01*
X9219700Y-7288900D02*
X9219700Y-7288900D01*
X21453599Y-6611400D02*
X21453599Y-6611400D01*
X14509799Y-12298900D02*
X14589800Y-12298900D01*
X14509799Y-11408900D02*
X14589800Y-11408900D01*
X21778300Y-13531700D02*
X21747500Y-13556000D01*
X8547300Y-12976500D02*
X8547300Y-12976500D01*
X14509799Y-7288900D02*
X14509799Y-7188900D01*
X21287199Y-13097400D02*
X21278599Y-13151500D01*
X20700999Y-8488900D02*
X20780999Y-8488900D01*
X14589800Y-7288900D02*
X14509799Y-7288900D01*
X21453599Y-6261400D02*
X21453599Y-6261400D01*
X8286000Y-13577800D02*
X8253400Y-13556000D01*
X8688800Y-13254300D02*
X8713700Y-13205500D01*
X14589800Y-11988900D02*
X14509799Y-11988900D01*
X21915500Y-13342800D02*
X21899099Y-13378400D01*
X16891000Y-11988900D02*
X16891000Y-11408900D01*
X18796000Y-10493900D02*
X18796000Y-10393900D01*
X21915500Y-13342800D02*
X21915500Y-13342800D01*
X21929100Y-6281800D02*
X21929100Y-6281800D01*
X18796000Y-9193900D02*
X18796000Y-9093900D01*
X8372300Y-6436400D02*
X8372300Y-6436400D01*
X20700999Y-7288900D02*
X20700999Y-7288900D01*
X13029800Y-8488900D02*
X13109799Y-8488900D01*
X20780999Y-7288900D02*
X20700999Y-7288900D01*
X19301000Y-11408900D02*
X19301000Y-11988900D01*
X21556500Y-13293000D02*
X21595199Y-13254300D01*
X18876000Y-10393900D02*
X18876000Y-10393900D01*
X21350700Y-6577900D02*
X21350700Y-6577900D01*
X10779600Y-11988900D02*
X10699800Y-11988900D01*
X9219700Y-11408900D02*
X9299800Y-11408900D01*
X15491000Y-8488900D02*
X15491000Y-8588900D01*
X21939799Y-6319600D02*
X21947400Y-6358100D01*
X20780999Y-7598900D02*
X20780999Y-7288900D01*
X8142700Y-13445300D02*
X8142700Y-13445300D01*
X20700999Y-7598900D02*
X20780999Y-7598900D01*
X11204700Y-10393900D02*
X11204700Y-10393900D01*
X14589800Y-8178800D02*
X14589800Y-8178800D01*
X14509799Y-8488900D02*
X14509799Y-8488900D01*
X19221000Y-8178800D02*
X19221000Y-8178800D01*
X11204700Y-10393900D02*
X11204700Y-10493900D01*
X18796000Y-9503900D02*
X18876000Y-9503900D01*
X18796000Y-10083900D02*
X18796000Y-9503900D01*
X8688800Y-13048600D02*
X8650100Y-13009900D01*
X8547300Y-5936300D02*
X8547300Y-5936300D01*
X21953599Y-6436400D02*
X21953599Y-13151500D01*
X8193700Y-6082800D02*
X8222500Y-6056100D01*
X13109799Y-7598900D02*
X13109799Y-8178800D01*
X9299800Y-7188900D02*
X9299800Y-7288900D01*
X19221000Y-7598900D02*
X19221000Y-7598900D01*
X9299800Y-12398900D02*
X9299800Y-12398900D01*
X8650100Y-13293000D02*
X8650100Y-13293000D01*
X20700999Y-10998900D02*
X19301000Y-10998900D01*
X21628599Y-6436400D02*
X21619999Y-6382300D01*
X10779600Y-8178800D02*
X10699800Y-8178800D01*
X9219700Y-7598900D02*
X9219700Y-7598900D01*
X14589800Y-12298900D02*
X14589800Y-12298900D01*
X20780999Y-8488900D02*
X20780999Y-8178800D01*
X9219700Y-11098900D02*
X9219700Y-11098900D01*
X21507699Y-6269900D02*
X21507699Y-6269900D01*
X12684700Y-10083900D02*
X12604700Y-10083900D01*
X21680600Y-5990800D02*
X21680600Y-5990800D01*
X20700999Y-8588900D02*
X20700999Y-8588900D01*
X8601300Y-12985000D02*
X8601300Y-12985000D01*
X21680600Y-5990800D02*
X21714799Y-6010000D01*
X19221000Y-11098900D02*
X19221000Y-11098900D01*
X8688800Y-6539200D02*
X8713700Y-6490400D01*
X8493200Y-6602800D02*
X8493200Y-6602800D01*
X9299800Y-11988900D02*
X9299800Y-11988900D01*
X9219700Y-11408900D02*
X9219700Y-11408900D01*
X21311999Y-13048600D02*
X21311999Y-13048600D01*
X16891000Y-12298900D02*
X16891000Y-12298900D01*
X20780999Y-12298900D02*
X20780999Y-11988900D01*
X13109799Y-7188900D02*
X13109799Y-7288900D01*
X20700999Y-11408900D02*
X20780999Y-11408900D01*
X21453599Y-6611400D02*
X21507699Y-6602800D01*
X21278599Y-13151500D02*
X21278599Y-13151500D01*
X21556500Y-6577900D02*
X21556500Y-6577900D01*
X10699800Y-10998900D02*
X10699800Y-10998900D01*
X21714799Y-13577800D02*
X21714799Y-13577800D01*
X13109799Y-11988900D02*
X13029800Y-11988900D01*
X14589800Y-11988900D02*
X14589800Y-11988900D01*
X15411000Y-8488900D02*
X15491000Y-8488900D01*
X21311999Y-6333500D02*
X21311999Y-6333500D01*
X20780999Y-11408900D02*
X20780999Y-11098900D01*
X15491000Y-12298900D02*
X15491000Y-12298900D01*
X8650100Y-6577900D02*
X8688800Y-6539200D01*
X8650100Y-6577900D02*
X8650100Y-6577900D01*
X18796000Y-10493900D02*
X18796000Y-10493900D01*
X19221000Y-11988900D02*
X19221000Y-11988900D01*
X14509799Y-12398900D02*
X14509799Y-12398900D01*
X16971000Y-8488900D02*
X16971000Y-8488900D01*
X21507699Y-12985000D02*
X21453599Y-12976500D01*
X21714799Y-13577800D02*
X21680600Y-13597000D01*
X8085300Y-13342800D02*
X8071700Y-13306000D01*
X8120900Y-6175100D02*
X8120900Y-6175100D01*
X13029800Y-11098900D02*
X13029800Y-11098900D01*
X20700999Y-12398900D02*
X20700999Y-12298900D01*
X21947400Y-6358100D02*
X21947400Y-6358100D01*
X8444400Y-13009900D02*
X8405700Y-13048600D01*
X10699800Y-12298900D02*
X10699800Y-12298900D01*
X8547300Y-13326500D02*
X8601300Y-13317900D01*
X13029800Y-11988900D02*
X13029800Y-11988900D01*
X15411000Y-11408900D02*
X15411000Y-11408900D01*
X12604700Y-9093900D02*
X11204700Y-9093900D01*
X16891000Y-10998900D02*
X16891000Y-10998900D01*
X19221000Y-7288900D02*
X19221000Y-7598900D01*
X15491000Y-10998900D02*
X15491000Y-11098900D01*
X10779600Y-7598900D02*
X10779600Y-7288900D01*
X8722300Y-13151500D02*
X8713700Y-13097400D01*
X15411000Y-11988900D02*
X15411000Y-12298900D01*
X20780999Y-11988900D02*
X20700999Y-11988900D01*
X21492799Y-5937900D02*
X21531799Y-5942500D01*
X21608099Y-5960800D02*
X21644900Y-5974400D01*
X20700999Y-8178800D02*
X20700999Y-7598900D01*
X9219700Y-11988900D02*
X9219700Y-12298900D01*
X16971000Y-8178800D02*
X16891000Y-8178800D01*
X21492799Y-13649900D02*
X21453599Y-13651500D01*
X17396000Y-10083900D02*
X17316000Y-10083900D01*
X16891000Y-11408900D02*
X16971000Y-11408900D01*
X21628599Y-6436400D02*
X21628599Y-6436400D01*
X16971000Y-11988900D02*
X16891000Y-11988900D01*
X20700999Y-8488900D02*
X20700999Y-8488900D01*
X21947400Y-13229700D02*
X21939799Y-13268200D01*
X8253400Y-13556000D02*
X8222500Y-13531700D01*
X10699800Y-7188900D02*
X10699800Y-7188900D01*
X21350700Y-6577900D02*
X21399499Y-6602800D01*
X21899099Y-13378400D02*
X21879899Y-13412700D01*
X8380800Y-13205500D02*
X8380800Y-13205500D01*
X13109799Y-8488900D02*
X13109799Y-8588900D01*
X12604700Y-10493900D02*
X12604700Y-10493900D01*
X21879899Y-13412700D02*
X21879899Y-13412700D01*
X8650100Y-13293000D02*
X8688800Y-13254300D01*
X13109799Y-11988900D02*
X13109799Y-11988900D01*
X21570300Y-13637600D02*
X21531799Y-13645300D01*
X17396000Y-10393900D02*
X17396000Y-10493900D01*
X10779600Y-11098900D02*
X10779600Y-11098900D01*
X10699800Y-12398900D02*
X10699800Y-12398900D01*
X8688800Y-6539200D02*
X8688800Y-6539200D01*
X12604700Y-10083900D02*
X12604700Y-10083900D01*
X21644900Y-13613400D02*
X21644900Y-13613400D01*
X11204700Y-9503900D02*
X11204700Y-10083900D01*
X8405700Y-13254300D02*
X8405700Y-13254300D01*
X17316000Y-9503900D02*
X17396000Y-9503900D01*
X14509799Y-7288900D02*
X14509799Y-7288900D01*
X14509799Y-7598900D02*
X14509799Y-7598900D01*
X13029800Y-8178800D02*
X13029800Y-8488900D01*
X8650100Y-6294800D02*
X8650100Y-6294800D01*
X8405700Y-13048600D02*
X8405700Y-13048600D01*
X16971000Y-7598900D02*
X16971000Y-7598900D01*
X9299800Y-12298900D02*
X9299800Y-12298900D01*
X8722300Y-6436400D02*
X8722300Y-6436400D01*
X21807200Y-13505000D02*
X21807200Y-13505000D01*
X14589800Y-7598900D02*
X14589800Y-7288900D01*
X14509799Y-11098900D02*
X14509799Y-11098900D01*
X21953599Y-13151500D02*
X21952099Y-13190700D01*
X8047200Y-13151400D02*
X8047300Y-6436400D01*
X17396000Y-10083900D02*
X17396000Y-10083900D01*
X21556500Y-13009900D02*
X21507699Y-12985000D01*
X21619999Y-6490400D02*
X21619999Y-6490400D01*
X10779600Y-11098900D02*
X10699800Y-11098900D01*
X8101700Y-13378400D02*
X8101700Y-13378400D01*
X8053400Y-13229700D02*
X8048800Y-13190700D01*
X17396000Y-9193900D02*
X17396000Y-9193900D01*
X21311999Y-6333500D02*
X21287199Y-6382300D01*
X8547300Y-6261400D02*
X8493200Y-6269900D01*
X8286000Y-13577800D02*
X8286000Y-13577800D01*
X13109799Y-7288900D02*
X13029800Y-7288900D01*
X21952099Y-13190700D02*
X21947400Y-13229700D01*
X8508000Y-5937900D02*
X8508000Y-5937900D01*
X21952099Y-6397100D02*
X21953599Y-6436400D01*
X9219700Y-8178800D02*
X9219700Y-8488900D01*
X14509799Y-7188900D02*
X13109799Y-7188900D01*
X8444400Y-6577900D02*
X8444400Y-6577900D01*
X20700999Y-8178800D02*
X20700999Y-8178800D01*
X19221000Y-7598900D02*
X19301000Y-7598900D01*
X19301000Y-8178800D02*
X19221000Y-8178800D01*
X21807200Y-6082800D02*
X21807200Y-6082800D01*
X19301000Y-8488900D02*
X19301000Y-8588900D01*
X14589800Y-11408900D02*
X14589800Y-11408900D01*
X9219700Y-8488900D02*
X9219700Y-8488900D01*
X20780999Y-11098900D02*
X20780999Y-11098900D01*
X8405700Y-6539200D02*
X8444400Y-6577900D01*
X8061100Y-6319600D02*
X8071700Y-6281800D01*
X9299800Y-8588900D02*
X10699800Y-8588900D01*
X13109799Y-12398900D02*
X14509799Y-12398900D01*
X13029800Y-7598900D02*
X13109799Y-7598900D01*
X21399499Y-6602800D02*
X21453599Y-6611400D01*
X21947400Y-6358100D02*
X21952099Y-6397100D01*
X14509799Y-12298900D02*
X14509799Y-12298900D01*
X8047300Y-6436400D02*
X8047300Y-6436400D01*
X21619999Y-13205500D02*
X21619999Y-13205500D01*
X21399499Y-6269900D02*
X21350700Y-6294800D01*
X16971000Y-8488900D02*
X16971000Y-8178800D01*
X13029800Y-11408900D02*
X13109799Y-11408900D01*
X13109799Y-7598900D02*
X13109799Y-7598900D01*
X21287199Y-6490400D02*
X21287199Y-6490400D01*
X8372300Y-6436400D02*
X8380800Y-6490400D01*
X21453599Y-13326500D02*
X21453599Y-13326500D01*
X8444400Y-13293000D02*
X8493200Y-13317900D01*
X21608099Y-13627000D02*
X21570300Y-13637600D01*
X11204700Y-9093900D02*
X11204700Y-9193900D01*
X21747500Y-6031800D02*
X21778300Y-6056100D01*
X8392700Y-5960800D02*
X8392700Y-5960800D01*
X20780999Y-8178800D02*
X20780999Y-8178800D01*
X16891000Y-10998900D02*
X15491000Y-10998900D01*
X8372300Y-13151500D02*
X8372300Y-13151500D01*
X21531799Y-5942500D02*
X21570300Y-5950200D01*
X21399499Y-13317900D02*
X21399499Y-13317900D01*
X10699800Y-7598900D02*
X10779600Y-7598900D01*
X15411000Y-11408900D02*
X15491000Y-11408900D01*
X9219700Y-11098900D02*
X9219700Y-11408900D01*
X20700999Y-7188900D02*
X19301000Y-7188900D01*
X21556500Y-6294800D02*
X21507699Y-6269900D01*
X13029800Y-11408900D02*
X13029800Y-11408900D01*
X8253400Y-6031800D02*
X8253400Y-6031800D01*
X21399499Y-13317900D02*
X21453599Y-13326500D01*
X20780999Y-11098900D02*
X20700999Y-11098900D01*
X8380800Y-13205500D02*
X8405700Y-13254300D01*
X16971000Y-12298900D02*
X16971000Y-11988900D01*
X8355900Y-13613400D02*
X8355900Y-13613400D01*
X19221000Y-8488900D02*
X19301000Y-8488900D01*
X19301000Y-8588900D02*
X20700999Y-8588900D01*
X21778300Y-6056100D02*
X21778300Y-6056100D01*
X8061100Y-6319600D02*
X8061100Y-6319600D01*
X21311999Y-13048600D02*
X21287199Y-13097400D01*
X13109799Y-8488900D02*
X13109799Y-8488900D01*
X13109799Y-10998900D02*
X13109799Y-11098900D01*
X21747500Y-13556000D02*
X21714799Y-13577800D01*
X11204700Y-9193900D02*
X11204700Y-9193900D01*
X16971000Y-7288900D02*
X16971000Y-7288900D01*
X8713700Y-13205500D02*
X8713700Y-13205500D01*
X9299800Y-7288900D02*
X9219700Y-7288900D01*
X15411000Y-8178800D02*
X15411000Y-8178800D01*
X21953599Y-6436400D02*
X21953599Y-6436400D01*
X19221000Y-8488900D02*
X19221000Y-8488900D01*
X21453599Y-5936400D02*
X21492799Y-5937900D01*
X8430500Y-5950200D02*
X8469000Y-5942500D01*
X13109799Y-7288900D02*
X13109799Y-7288900D01*
X8071700Y-6281800D02*
X8071700Y-6281800D01*
X19221000Y-7288900D02*
X19221000Y-7288900D01*
X8392700Y-13627000D02*
X8355900Y-13613400D01*
X8713700Y-6490400D02*
X8722300Y-6436400D01*
X15411000Y-11988900D02*
X15411000Y-11988900D01*
X20780999Y-8488900D02*
X20780999Y-8488900D01*
X8392700Y-5960800D02*
X8430500Y-5950200D01*
X8222500Y-6056100D02*
X8222500Y-6056100D01*
X8493200Y-13317900D02*
X8547300Y-13326500D01*
X12684700Y-9503900D02*
X12684700Y-9193900D01*
X17316000Y-10393900D02*
X17316000Y-10393900D01*
X19221000Y-12298900D02*
X19301000Y-12298900D01*
X21350700Y-6294800D02*
X21311999Y-6333500D01*
X8688800Y-13254300D02*
X8688800Y-13254300D01*
X8601300Y-12985000D02*
X8547300Y-12976500D01*
X20700999Y-7188900D02*
X20700999Y-7188900D01*
X8601300Y-6602800D02*
X8601300Y-6602800D01*
X15411000Y-7598900D02*
X15491000Y-7598900D01*
X20700999Y-11098900D02*
X20700999Y-10998900D01*
X12604700Y-9503900D02*
X12604700Y-9503900D01*
X16891000Y-11988900D02*
X16891000Y-11988900D01*
X21556500Y-13009900D02*
X21556500Y-13009900D01*
X8167000Y-13476200D02*
X8167000Y-13476200D01*
X10779600Y-7288900D02*
X10699800Y-7288900D01*
X19301000Y-12398900D02*
X19301000Y-12398900D01*
X14509799Y-11408900D02*
X14509799Y-11408900D01*
X9299800Y-8178800D02*
X9219700Y-8178800D01*
X21858099Y-6142500D02*
X21858099Y-6142500D01*
X18876000Y-10083900D02*
X18876000Y-10083900D01*
X21507699Y-13317900D02*
X21507699Y-13317900D01*
X13109799Y-8178800D02*
X13109799Y-8178800D01*
X8120900Y-6175100D02*
X8142700Y-6142500D01*
X8430500Y-13637600D02*
X8430500Y-13637600D01*
X21619999Y-13205500D02*
X21628599Y-13151500D01*
X9299800Y-8488900D02*
X9299800Y-8588900D01*
X8286000Y-6010000D02*
X8286000Y-6010000D01*
X10779600Y-11408900D02*
X10779600Y-11408900D01*
X21714799Y-6010000D02*
X21714799Y-6010000D01*
X17316000Y-9193900D02*
X17316000Y-9503900D01*
X18796000Y-9503900D02*
X18796000Y-9503900D01*
X21453599Y-13651500D02*
X21453599Y-13651500D01*
X19221000Y-8178800D02*
X19221000Y-8488900D01*
X21619999Y-13097400D02*
X21619999Y-13097400D01*
X21628599Y-13151500D02*
X21628599Y-13151500D01*
X14509799Y-8178800D02*
X14509799Y-8178800D01*
X21858099Y-13445300D02*
X21858099Y-13445300D01*
X8380800Y-13097400D02*
X8372300Y-13151500D01*
X10699800Y-8488900D02*
X10779600Y-8488900D01*
X16891000Y-8178800D02*
X16891000Y-7598900D01*
X21311999Y-13254300D02*
X21311999Y-13254300D01*
X19301000Y-7598900D02*
X19301000Y-7598900D01*
X9299800Y-12298900D02*
X9299800Y-12398900D01*
X14589800Y-7598900D02*
X14589800Y-7598900D01*
X10699800Y-7188900D02*
X9299800Y-7188900D01*
X10779600Y-7598900D02*
X10779600Y-7598900D01*
X10779600Y-8488900D02*
X10779600Y-8488900D01*
X17316000Y-9193900D02*
X17316000Y-9193900D01*
X21556500Y-13293000D02*
X21556500Y-13293000D01*
X9219700Y-12298900D02*
X9219700Y-12298900D01*
X8650100Y-13009900D02*
X8601300Y-12985000D01*
X21608099Y-5960800D02*
X21608099Y-5960800D01*
X8167000Y-6111600D02*
X8193700Y-6082800D01*
X10699800Y-11098900D02*
X10699800Y-10998900D01*
X12604700Y-9193900D02*
X12604700Y-9193900D01*
X12604700Y-10393900D02*
X12684700Y-10393900D01*
X12604700Y-9503900D02*
X12684700Y-9503900D01*
X10699800Y-8488900D02*
X10699800Y-8488900D01*
X21680600Y-13597000D02*
X21644900Y-13613400D01*
X21453599Y-13326500D02*
X21507699Y-13317900D01*
X16891000Y-8588900D02*
X16891000Y-8488900D01*
X8713700Y-13097400D02*
X8713700Y-13097400D01*
X15411000Y-12298900D02*
X15491000Y-12298900D01*
X21595199Y-13254300D02*
X21595199Y-13254300D01*
X8547300Y-13651500D02*
X8508000Y-13649900D01*
X10779600Y-8178800D02*
X10779600Y-8178800D01*
X21619999Y-6382300D02*
X21595199Y-6333500D01*
X16891000Y-7598900D02*
X16971000Y-7598900D01*
X21644900Y-13613400D02*
X21608099Y-13627000D01*
X21879899Y-13412700D02*
X21858099Y-13445300D01*
X8444400Y-6294800D02*
X8444400Y-6294800D01*
X21915500Y-6245000D02*
X21929100Y-6281800D01*
X14509799Y-11988900D02*
X14509799Y-11988900D01*
X10699800Y-12398900D02*
X10699800Y-12298900D01*
X16891000Y-8488900D02*
X16971000Y-8488900D01*
X21311999Y-6539200D02*
X21350700Y-6577900D01*
X18796000Y-10393900D02*
X18876000Y-10393900D01*
X21929100Y-13306000D02*
X21929100Y-13306000D01*
X17316000Y-10083900D02*
X17316000Y-10083900D01*
X10699800Y-11408900D02*
X10699800Y-11408900D01*
X21453599Y-12976500D02*
X21399499Y-12985000D01*
X21608099Y-13627000D02*
X21608099Y-13627000D01*
X13029800Y-7598900D02*
X13029800Y-7598900D01*
X20700999Y-12398900D02*
X20700999Y-12398900D01*
X16971000Y-11408900D02*
X16971000Y-11408900D01*
X8061100Y-13268200D02*
X8053400Y-13229700D01*
X8713700Y-13205500D02*
X8722300Y-13151500D01*
X21807200Y-6082800D02*
X21833799Y-6111600D01*
X9219700Y-8178800D02*
X9219700Y-8178800D01*
X21595199Y-6333500D02*
X21595199Y-6333500D01*
X21595199Y-13048600D02*
X21595199Y-13048600D01*
X8713700Y-13097400D02*
X8688800Y-13048600D01*
X8493200Y-6269900D02*
X8444400Y-6294800D01*
X12604700Y-10393900D02*
X12604700Y-10393900D01*
X21507699Y-6602800D02*
X21556500Y-6577900D01*
X12604700Y-9193900D02*
X12604700Y-9093900D01*
X16891000Y-8588900D02*
X16891000Y-8588900D01*
X8253400Y-6031800D02*
X8286000Y-6010000D01*
X16971000Y-12298900D02*
X16971000Y-12298900D01*
X19301000Y-11408900D02*
X19301000Y-11408900D01*
X8493200Y-12985000D02*
X8444400Y-13009900D01*
X11204700Y-10493900D02*
X12604700Y-10493900D01*
X8688800Y-13048600D02*
X8688800Y-13048600D01*
X8650100Y-13009900D02*
X8650100Y-13009900D01*
X21619999Y-13097400D02*
X21595199Y-13048600D01*
X21278599Y-13151500D02*
X21287199Y-13205500D01*
X14589800Y-8488900D02*
X14589800Y-8178800D01*
X21507699Y-6602800D02*
X21507699Y-6602800D01*
X8444400Y-6577900D02*
X8493200Y-6602800D01*
X10699800Y-8178800D02*
X10699800Y-8178800D01*
X19301000Y-8588900D02*
X19301000Y-8588900D01*
X21287199Y-13205500D02*
X21311999Y-13254300D01*
D11*
X8295370Y-13971425D02*
X8295370Y-13771425D01*
X8342989Y-13771425D01*
X8371560Y-13780949D01*
X8390608Y-13799996D01*
X8400132Y-13819044D01*
X8409656Y-13857139D01*
X8409656Y-13885711D01*
X8400132Y-13923806D01*
X8390608Y-13942854D01*
X8371560Y-13961901D01*
X8342989Y-13971425D01*
X8295370Y-13971425D01*
X8495370Y-13971425D02*
X8495370Y-13838092D01*
X8495370Y-13876187D02*
X8504894Y-13857139D01*
X8514417Y-13847615D01*
X8533465Y-13838092D01*
X8552513Y-13838092D01*
X8619179Y-13971425D02*
X8619179Y-13838092D01*
X8619179Y-13771425D02*
X8609656Y-13780949D01*
X8619179Y-13790473D01*
X8628703Y-13780949D01*
X8619179Y-13771425D01*
X8619179Y-13790473D01*
X8742989Y-13971425D02*
X8723941Y-13961901D01*
X8714417Y-13942854D01*
X8714417Y-13771425D01*
X8847751Y-13971425D02*
X8828703Y-13961901D01*
X8819179Y-13942854D01*
X8819179Y-13771425D01*
X9076322Y-13971425D02*
X9076322Y-13771425D01*
X9142989Y-13914282D01*
X9209656Y-13771425D01*
X9209656Y-13971425D01*
X9390608Y-13971425D02*
X9390608Y-13866663D01*
X9381084Y-13847615D01*
X9362037Y-13838092D01*
X9323941Y-13838092D01*
X9304894Y-13847615D01*
X9390608Y-13961901D02*
X9371560Y-13971425D01*
X9323941Y-13971425D01*
X9304894Y-13961901D01*
X9295370Y-13942854D01*
X9295370Y-13923806D01*
X9304894Y-13904758D01*
X9323941Y-13895235D01*
X9371560Y-13895235D01*
X9390608Y-13885711D01*
X9485846Y-13838092D02*
X9485846Y-14038092D01*
X9485846Y-13847615D02*
X9504894Y-13838092D01*
X9542989Y-13838092D01*
X9562037Y-13847615D01*
X9571560Y-13857139D01*
X9581084Y-13876187D01*
X9581084Y-13933330D01*
X9571560Y-13952377D01*
X9562037Y-13961901D01*
X9542989Y-13971425D01*
X9504894Y-13971425D01*
X9485846Y-13961901D01*
X9666798Y-13952377D02*
X9676322Y-13961901D01*
X9666798Y-13971425D01*
X9657275Y-13961901D01*
X9666798Y-13952377D01*
X9666798Y-13971425D01*
X9666798Y-13847615D02*
X9676322Y-13857139D01*
X9666798Y-13866663D01*
X9657275Y-13857139D01*
X9666798Y-13847615D01*
X9666798Y-13866663D01*
M02*
