%TF.GenerationSoftware,KiCad,Pcbnew,(6.0.8)*%
%TF.CreationDate,2022-10-26T23:53:46-06:00*%
%TF.ProjectId,plate,706c6174-652e-46b6-9963-61645f706362,rev?*%
%TF.SameCoordinates,Original*%
%TF.FileFunction,Legend,Top*%
%TF.FilePolarity,Positive*%
%FSLAX46Y46*%
G04 Gerber Fmt 4.6, Leading zero omitted, Abs format (unit mm)*
G04 Created by KiCad (PCBNEW (6.0.8)) date 2022-10-26 23:53:46*
%MOMM*%
%LPD*%
G01*
G04 APERTURE LIST*
%ADD10C,0.300000*%
%ADD11C,0.120000*%
%ADD12R,1.700000X1.700000*%
%ADD13O,1.700000X1.700000*%
%ADD14C,2.000000*%
G04 APERTURE END LIST*
D10*
X202648428Y-93158571D02*
X203505571Y-93158571D01*
X203077000Y-94658571D02*
X203077000Y-93158571D01*
X204005571Y-93872857D02*
X204505571Y-93872857D01*
X204719857Y-94658571D02*
X204005571Y-94658571D01*
X204005571Y-93158571D01*
X204719857Y-93158571D01*
X205291285Y-94587142D02*
X205505571Y-94658571D01*
X205862714Y-94658571D01*
X206005571Y-94587142D01*
X206077000Y-94515714D01*
X206148428Y-94372857D01*
X206148428Y-94230000D01*
X206077000Y-94087142D01*
X206005571Y-94015714D01*
X205862714Y-93944285D01*
X205577000Y-93872857D01*
X205434142Y-93801428D01*
X205362714Y-93730000D01*
X205291285Y-93587142D01*
X205291285Y-93444285D01*
X205362714Y-93301428D01*
X205434142Y-93230000D01*
X205577000Y-93158571D01*
X205934142Y-93158571D01*
X206148428Y-93230000D01*
X206577000Y-93158571D02*
X207434142Y-93158571D01*
X207005571Y-94658571D02*
X207005571Y-93158571D01*
X198719857Y-103223142D02*
X198934142Y-103294571D01*
X199291285Y-103294571D01*
X199434142Y-103223142D01*
X199505571Y-103151714D01*
X199577000Y-103008857D01*
X199577000Y-102866000D01*
X199505571Y-102723142D01*
X199434142Y-102651714D01*
X199291285Y-102580285D01*
X199005571Y-102508857D01*
X198862714Y-102437428D01*
X198791285Y-102366000D01*
X198719857Y-102223142D01*
X198719857Y-102080285D01*
X198791285Y-101937428D01*
X198862714Y-101866000D01*
X199005571Y-101794571D01*
X199362714Y-101794571D01*
X199577000Y-101866000D01*
X200219857Y-102508857D02*
X200719857Y-102508857D01*
X200934142Y-103294571D02*
X200219857Y-103294571D01*
X200219857Y-101794571D01*
X200934142Y-101794571D01*
X202434142Y-103294571D02*
X201934142Y-102580285D01*
X201577000Y-103294571D02*
X201577000Y-101794571D01*
X202148428Y-101794571D01*
X202291285Y-101866000D01*
X202362714Y-101937428D01*
X202434142Y-102080285D01*
X202434142Y-102294571D01*
X202362714Y-102437428D01*
X202291285Y-102508857D01*
X202148428Y-102580285D01*
X201577000Y-102580285D01*
X202862714Y-101794571D02*
X203362714Y-103294571D01*
X203862714Y-101794571D01*
X204362714Y-103294571D02*
X204362714Y-101794571D01*
X205934142Y-103151714D02*
X205862714Y-103223142D01*
X205648428Y-103294571D01*
X205505571Y-103294571D01*
X205291285Y-103223142D01*
X205148428Y-103080285D01*
X205077000Y-102937428D01*
X205005571Y-102651714D01*
X205005571Y-102437428D01*
X205077000Y-102151714D01*
X205148428Y-102008857D01*
X205291285Y-101866000D01*
X205505571Y-101794571D01*
X205648428Y-101794571D01*
X205862714Y-101866000D01*
X205934142Y-101937428D01*
X206577000Y-102508857D02*
X207077000Y-102508857D01*
X207291285Y-103294571D02*
X206577000Y-103294571D01*
X206577000Y-101794571D01*
X207291285Y-101794571D01*
D11*
%TO.C,REF\u002A\u002A*%
X185060000Y-125940000D02*
X185060000Y-123280000D01*
X179920000Y-125940000D02*
X185060000Y-125940000D01*
X178650000Y-125940000D02*
X177320000Y-125940000D01*
X179920000Y-123280000D02*
X185060000Y-123280000D01*
X177320000Y-125940000D02*
X177320000Y-124610000D01*
X179920000Y-125940000D02*
X179920000Y-123280000D01*
%TO.C,G\u002A\u002A\u002A*%
G36*
X130019152Y-101525051D02*
G01*
X130014510Y-101447704D01*
X130010494Y-101357546D01*
X130007065Y-101252818D01*
X130004187Y-101131759D01*
X130001823Y-100992608D01*
X129999936Y-100833604D01*
X129998490Y-100652988D01*
X129997447Y-100448997D01*
X129996771Y-100219872D01*
X129996424Y-99963853D01*
X129996370Y-99679177D01*
X129996572Y-99364086D01*
X129996993Y-99016817D01*
X129997597Y-98635612D01*
X129998345Y-98218708D01*
X129998994Y-97873874D01*
X129999831Y-97441602D01*
X130000642Y-97046400D01*
X130001447Y-96686529D01*
X130002266Y-96360252D01*
X130003119Y-96065829D01*
X130004025Y-95801522D01*
X130005004Y-95565593D01*
X130006077Y-95356303D01*
X130007262Y-95171914D01*
X130008579Y-95010688D01*
X130010049Y-94870886D01*
X130011691Y-94750770D01*
X130013525Y-94648601D01*
X130015571Y-94562641D01*
X130017849Y-94491151D01*
X130020377Y-94432394D01*
X130023177Y-94384630D01*
X130026268Y-94346121D01*
X130029669Y-94315130D01*
X130033400Y-94289916D01*
X130037482Y-94268743D01*
X130040162Y-94257031D01*
X130123542Y-93983524D01*
X130236872Y-93726672D01*
X130377689Y-93490559D01*
X130543529Y-93279272D01*
X130731929Y-93096896D01*
X130747517Y-93083992D01*
X130976952Y-92918009D01*
X131220504Y-92785147D01*
X131483814Y-92682627D01*
X131665128Y-92631697D01*
X131674848Y-92629578D01*
X131686781Y-92627545D01*
X131701731Y-92625597D01*
X131720505Y-92623730D01*
X131743907Y-92621944D01*
X131772743Y-92620235D01*
X131807818Y-92618602D01*
X131849937Y-92617043D01*
X131899907Y-92615556D01*
X131958532Y-92614138D01*
X132026618Y-92612787D01*
X132104970Y-92611501D01*
X132194394Y-92610279D01*
X132295694Y-92609118D01*
X132409677Y-92608015D01*
X132537147Y-92606970D01*
X132678910Y-92605979D01*
X132835772Y-92605040D01*
X133008537Y-92604152D01*
X133198011Y-92603313D01*
X133405000Y-92602520D01*
X133630309Y-92601770D01*
X133874743Y-92601063D01*
X134139107Y-92600396D01*
X134424207Y-92599766D01*
X134730849Y-92599172D01*
X135059837Y-92598612D01*
X135411978Y-92598083D01*
X135788076Y-92597584D01*
X136188936Y-92597111D01*
X136615365Y-92596664D01*
X137068167Y-92596240D01*
X137548149Y-92595837D01*
X138056114Y-92595452D01*
X138592870Y-92595085D01*
X139159220Y-92594731D01*
X139755970Y-92594391D01*
X140383927Y-92594060D01*
X141043895Y-92593738D01*
X141736679Y-92593422D01*
X142463085Y-92593110D01*
X143223918Y-92592799D01*
X144019984Y-92592489D01*
X144852088Y-92592176D01*
X145721035Y-92591859D01*
X146627631Y-92591535D01*
X147038389Y-92591390D01*
X148078721Y-92591049D01*
X149083484Y-92590769D01*
X150052562Y-92590550D01*
X150985834Y-92590393D01*
X151883184Y-92590297D01*
X152744492Y-92590262D01*
X153569641Y-92590288D01*
X154358510Y-92590376D01*
X155110983Y-92590524D01*
X155826941Y-92590733D01*
X156506266Y-92591002D01*
X157148838Y-92591332D01*
X157754540Y-92591722D01*
X158323253Y-92592173D01*
X158854859Y-92592684D01*
X159349239Y-92593255D01*
X159806275Y-92593885D01*
X160225848Y-92594576D01*
X160607841Y-92595327D01*
X160952134Y-92596137D01*
X161258609Y-92597006D01*
X161527149Y-92597936D01*
X161757633Y-92598924D01*
X161949945Y-92599972D01*
X162103965Y-92601079D01*
X162219575Y-92602244D01*
X162296657Y-92603469D01*
X162335093Y-92604753D01*
X162339466Y-92605234D01*
X162402801Y-92633528D01*
X162458610Y-92675778D01*
X162460834Y-92678110D01*
X162478341Y-92704613D01*
X162511667Y-92762634D01*
X162559154Y-92849039D01*
X162619144Y-92960695D01*
X162689979Y-93094468D01*
X162770001Y-93247226D01*
X162857553Y-93415835D01*
X162950977Y-93597162D01*
X163048615Y-93788074D01*
X163061437Y-93813250D01*
X163158292Y-94003071D01*
X163250088Y-94182144D01*
X163335304Y-94347552D01*
X163412417Y-94496378D01*
X163479903Y-94625708D01*
X163536239Y-94732623D01*
X163579903Y-94814209D01*
X163609372Y-94867549D01*
X163623123Y-94889726D01*
X163623827Y-94890179D01*
X163638289Y-94875291D01*
X163676486Y-94833598D01*
X163736413Y-94767341D01*
X163816066Y-94678760D01*
X163913440Y-94570094D01*
X164026531Y-94443585D01*
X164153335Y-94301471D01*
X164291848Y-94145993D01*
X164440065Y-93979391D01*
X164595981Y-93803905D01*
X164617557Y-93779603D01*
X164816397Y-93555993D01*
X164991121Y-93360326D01*
X165143018Y-93191208D01*
X165273379Y-93047248D01*
X165383491Y-92927052D01*
X165474647Y-92829226D01*
X165548134Y-92752378D01*
X165605243Y-92695115D01*
X165647264Y-92656043D01*
X165675486Y-92633769D01*
X165681912Y-92629909D01*
X165764372Y-92586250D01*
X169766699Y-92586250D01*
X169850175Y-92630392D01*
X169917476Y-92678241D01*
X169966539Y-92736148D01*
X169969652Y-92741663D01*
X169996975Y-92821162D01*
X170004234Y-92909897D01*
X169991325Y-92991993D01*
X169971568Y-93035040D01*
X169954989Y-93054601D01*
X169913501Y-93101224D01*
X169848471Y-93173411D01*
X169761269Y-93269666D01*
X169653261Y-93388492D01*
X169525815Y-93528392D01*
X169380300Y-93687868D01*
X169218083Y-93865423D01*
X169040531Y-94059561D01*
X168849014Y-94268784D01*
X168644899Y-94491596D01*
X168429554Y-94726499D01*
X168204346Y-94971997D01*
X167970643Y-95226592D01*
X167729814Y-95488787D01*
X167677158Y-95546093D01*
X167435107Y-95809575D01*
X167199964Y-96065684D01*
X166973088Y-96312931D01*
X166755843Y-96549825D01*
X166549591Y-96774877D01*
X166355692Y-96986596D01*
X166175511Y-97183494D01*
X166010407Y-97364080D01*
X165861744Y-97526863D01*
X165730883Y-97670356D01*
X165619186Y-97793067D01*
X165528015Y-97893506D01*
X165458732Y-97970185D01*
X165412699Y-98021612D01*
X165391279Y-98046299D01*
X165390001Y-98047999D01*
X165387282Y-98055492D01*
X165387382Y-98066974D01*
X165391167Y-98084092D01*
X165399500Y-98108495D01*
X165413246Y-98141832D01*
X165433270Y-98185752D01*
X165460435Y-98241904D01*
X165495607Y-98311936D01*
X165539650Y-98397498D01*
X165593428Y-98500238D01*
X165657806Y-98621805D01*
X165733648Y-98763847D01*
X165821819Y-98928015D01*
X165923184Y-99115955D01*
X166038606Y-99329318D01*
X166168950Y-99569751D01*
X166315081Y-99838905D01*
X166477862Y-100138427D01*
X166658160Y-100469966D01*
X166704630Y-100555396D01*
X166889290Y-100894915D01*
X167056252Y-101202056D01*
X167206402Y-101478513D01*
X167340626Y-101725978D01*
X167459811Y-101946142D01*
X167564844Y-102140698D01*
X167656610Y-102311339D01*
X167735996Y-102459756D01*
X167803889Y-102587641D01*
X167861175Y-102696687D01*
X167908741Y-102788586D01*
X167947472Y-102865030D01*
X167978255Y-102927711D01*
X168001977Y-102978321D01*
X168019524Y-103018553D01*
X168031782Y-103050099D01*
X168039638Y-103074651D01*
X168043978Y-103093901D01*
X168045688Y-103109541D01*
X168045836Y-103115818D01*
X168028819Y-103220492D01*
X167979711Y-103305947D01*
X167901430Y-103367822D01*
X167866876Y-103383406D01*
X167850253Y-103388658D01*
X167828243Y-103393276D01*
X167798503Y-103397291D01*
X167758691Y-103400734D01*
X167706463Y-103403636D01*
X167639477Y-103406027D01*
X167555391Y-103407940D01*
X167451860Y-103409404D01*
X167326543Y-103410452D01*
X167177097Y-103411113D01*
X167001178Y-103411419D01*
X166796445Y-103411402D01*
X166560553Y-103411091D01*
X166291161Y-103410519D01*
X165985926Y-103409716D01*
X165898624Y-103409468D01*
X164013368Y-103404049D01*
X163941869Y-103345837D01*
X163924857Y-103329206D01*
X163904337Y-103303249D01*
X163878987Y-103265521D01*
X163847484Y-103213579D01*
X163808506Y-103144981D01*
X163760731Y-103057281D01*
X163702836Y-102948038D01*
X163633498Y-102814806D01*
X163551396Y-102655144D01*
X163455207Y-102466607D01*
X163343609Y-102246752D01*
X163293566Y-102147928D01*
X163194509Y-101952363D01*
X163100499Y-101767071D01*
X163013016Y-101594949D01*
X162933540Y-101438893D01*
X162863548Y-101301799D01*
X162804521Y-101186561D01*
X162757937Y-101096076D01*
X162725277Y-101033240D01*
X162708018Y-101000947D01*
X162705728Y-100997198D01*
X162691563Y-101009726D01*
X162653855Y-101049367D01*
X162594535Y-101113957D01*
X162515533Y-101201331D01*
X162418780Y-101309324D01*
X162306207Y-101435772D01*
X162179742Y-101578510D01*
X162041318Y-101735374D01*
X161892865Y-101904198D01*
X161736312Y-102082818D01*
X161672053Y-102156299D01*
X161463269Y-102394766D01*
X161278710Y-102604631D01*
X161117487Y-102786873D01*
X160978706Y-102942476D01*
X160861479Y-103072420D01*
X160764914Y-103177687D01*
X160688120Y-103259257D01*
X160630206Y-103318114D01*
X160590281Y-103355237D01*
X160569993Y-103370344D01*
X160490575Y-103414255D01*
X158370770Y-103409152D01*
X158038492Y-103408343D01*
X157742824Y-103407578D01*
X157481567Y-103406810D01*
X157252524Y-103405994D01*
X157053496Y-103405084D01*
X156882285Y-103404035D01*
X156736692Y-103402801D01*
X156614520Y-103401337D01*
X156513570Y-103399596D01*
X156431643Y-103397534D01*
X156366542Y-103395105D01*
X156316069Y-103392262D01*
X156278024Y-103388961D01*
X156250210Y-103385155D01*
X156230429Y-103380799D01*
X156216482Y-103375848D01*
X156206171Y-103370256D01*
X156197384Y-103364042D01*
X156119033Y-103286497D01*
X156070907Y-103197151D01*
X156054983Y-103103058D01*
X156073241Y-103011272D01*
X156089322Y-102978857D01*
X156108003Y-102955173D01*
X156151228Y-102905104D01*
X156217130Y-102830703D01*
X156303844Y-102734022D01*
X156409503Y-102617113D01*
X156532242Y-102482027D01*
X156670194Y-102330817D01*
X156821492Y-102165533D01*
X156984272Y-101988229D01*
X157156667Y-101800956D01*
X157336810Y-101605766D01*
X157416080Y-101520029D01*
X157598001Y-101323275D01*
X157772388Y-101134479D01*
X157937441Y-100955600D01*
X158091360Y-100788597D01*
X158232346Y-100635428D01*
X158358600Y-100498053D01*
X158468321Y-100378431D01*
X158559711Y-100278519D01*
X158630970Y-100200278D01*
X158680298Y-100145666D01*
X158705896Y-100116641D01*
X158709218Y-100112395D01*
X158691222Y-100109920D01*
X158637017Y-100107562D01*
X158549202Y-100105346D01*
X158430376Y-100103296D01*
X158283138Y-100101436D01*
X158110086Y-100099791D01*
X157913820Y-100098386D01*
X157696938Y-100097244D01*
X157462041Y-100096391D01*
X157211726Y-100095850D01*
X156948592Y-100095647D01*
X156928889Y-100095646D01*
X156669228Y-100095701D01*
X156420898Y-100095861D01*
X156186607Y-100096118D01*
X155969061Y-100096465D01*
X155770968Y-100096892D01*
X155595035Y-100097394D01*
X155443970Y-100097960D01*
X155320479Y-100098585D01*
X155227270Y-100099259D01*
X155167049Y-100099976D01*
X155142525Y-100100726D01*
X155142093Y-100100841D01*
X155138249Y-100127575D01*
X155127194Y-100188611D01*
X155109643Y-100280472D01*
X155086312Y-100399679D01*
X155057915Y-100542754D01*
X155025167Y-100706217D01*
X154988785Y-100886591D01*
X154949481Y-101080396D01*
X154907973Y-101284155D01*
X154864975Y-101494389D01*
X154821202Y-101707619D01*
X154777369Y-101920368D01*
X154734191Y-102129155D01*
X154692384Y-102330503D01*
X154652663Y-102520934D01*
X154615742Y-102696968D01*
X154582338Y-102855128D01*
X154553164Y-102991935D01*
X154528936Y-103103909D01*
X154510370Y-103187574D01*
X154498180Y-103239450D01*
X154493504Y-103255716D01*
X154456814Y-103306471D01*
X154406666Y-103354050D01*
X154400178Y-103358860D01*
X154336822Y-103404049D01*
X143150343Y-103406479D01*
X142466488Y-103406598D01*
X141794508Y-103406657D01*
X141135420Y-103406657D01*
X140490246Y-103406599D01*
X139860003Y-103406485D01*
X139245711Y-103406315D01*
X138648389Y-103406092D01*
X138069056Y-103405817D01*
X137508732Y-103405490D01*
X136968435Y-103405113D01*
X136449185Y-103404688D01*
X135952001Y-103404216D01*
X135477902Y-103403697D01*
X135027907Y-103403134D01*
X134603035Y-103402528D01*
X134204306Y-103401880D01*
X133832738Y-103401191D01*
X133489350Y-103400463D01*
X133175163Y-103399697D01*
X132891195Y-103398894D01*
X132638465Y-103398056D01*
X132417992Y-103397183D01*
X132230795Y-103396278D01*
X132077895Y-103395341D01*
X131960309Y-103394374D01*
X131879056Y-103393379D01*
X131835157Y-103392355D01*
X131828036Y-103391909D01*
X131557624Y-103338989D01*
X131299144Y-103250870D01*
X131055580Y-103130115D01*
X130829921Y-102979289D01*
X130625153Y-102800955D01*
X130444263Y-102597678D01*
X130290236Y-102372023D01*
X130166060Y-102126551D01*
X130083198Y-101893939D01*
X130072231Y-101855691D01*
X130062184Y-101818717D01*
X130053020Y-101781257D01*
X130044702Y-101741551D01*
X130037193Y-101697838D01*
X130030456Y-101648357D01*
X130029395Y-101638274D01*
X130256302Y-101638274D01*
X130309794Y-101808804D01*
X130411213Y-102073102D01*
X130541486Y-102311513D01*
X130700481Y-102523882D01*
X130888067Y-102710053D01*
X131104114Y-102869868D01*
X131285557Y-102972747D01*
X131431802Y-103037172D01*
X131592341Y-103092669D01*
X131747761Y-103132787D01*
X131792328Y-103141169D01*
X131817613Y-103142187D01*
X131880507Y-103143197D01*
X131979811Y-103144198D01*
X132114327Y-103145187D01*
X132282856Y-103146161D01*
X132484199Y-103147119D01*
X132717158Y-103148058D01*
X132980532Y-103148976D01*
X133273124Y-103149871D01*
X133593734Y-103150740D01*
X133941164Y-103151580D01*
X134314214Y-103152391D01*
X134711687Y-103153169D01*
X135132383Y-103153913D01*
X135575102Y-103154619D01*
X136038648Y-103155286D01*
X136521819Y-103155911D01*
X137023419Y-103156492D01*
X137542247Y-103157027D01*
X138077105Y-103157513D01*
X138626794Y-103157949D01*
X139190115Y-103158331D01*
X139765870Y-103158658D01*
X140352859Y-103158927D01*
X140949884Y-103159136D01*
X141243888Y-103159215D01*
X150601528Y-103161498D01*
X150601528Y-103107468D01*
X150605281Y-103085771D01*
X150606238Y-103080739D01*
X150911994Y-103080739D01*
X150921847Y-103084954D01*
X150952561Y-103088665D01*
X151005867Y-103091895D01*
X151083497Y-103094669D01*
X151187183Y-103097009D01*
X151318657Y-103098939D01*
X151479649Y-103100484D01*
X151671892Y-103101665D01*
X151897118Y-103102507D01*
X152157057Y-103103034D01*
X152453442Y-103103268D01*
X152570677Y-103103285D01*
X154229360Y-103103285D01*
X154239836Y-103059626D01*
X154244936Y-103035289D01*
X154256862Y-102976713D01*
X154274940Y-102887273D01*
X154298495Y-102770344D01*
X154326850Y-102629304D01*
X154359331Y-102467526D01*
X154395262Y-102288388D01*
X154433970Y-102095264D01*
X154474777Y-101891531D01*
X154517009Y-101680564D01*
X154559992Y-101465740D01*
X154603049Y-101250433D01*
X154645506Y-101038019D01*
X154686687Y-100831875D01*
X154725917Y-100635376D01*
X154762521Y-100451897D01*
X154795825Y-100284815D01*
X154825151Y-100137505D01*
X154849827Y-100013343D01*
X154869175Y-99915705D01*
X154882522Y-99847966D01*
X154889191Y-99813503D01*
X154889839Y-99809769D01*
X154908831Y-99809078D01*
X154964153Y-99808415D01*
X155053330Y-99807784D01*
X155173884Y-99807192D01*
X155323339Y-99806646D01*
X155499218Y-99806150D01*
X155699043Y-99805712D01*
X155920337Y-99805336D01*
X156160624Y-99805030D01*
X156417427Y-99804799D01*
X156688269Y-99804649D01*
X156970673Y-99804586D01*
X157024293Y-99804584D01*
X157308574Y-99804466D01*
X157581755Y-99804120D01*
X157841357Y-99803563D01*
X158084905Y-99802810D01*
X158309921Y-99801877D01*
X158513928Y-99800779D01*
X158694449Y-99799531D01*
X158849008Y-99798149D01*
X158975127Y-99796648D01*
X159070330Y-99795044D01*
X159132139Y-99793353D01*
X159158078Y-99791589D01*
X159158747Y-99791254D01*
X159162519Y-99769853D01*
X159173321Y-99714211D01*
X159190387Y-99628102D01*
X159212946Y-99515303D01*
X159240232Y-99379589D01*
X159271475Y-99224735D01*
X159305906Y-99054516D01*
X159342758Y-98872708D01*
X159381262Y-98683085D01*
X159420649Y-98489424D01*
X159460151Y-98295499D01*
X159499000Y-98105086D01*
X159536426Y-97921960D01*
X159571663Y-97749896D01*
X159603940Y-97592669D01*
X159632490Y-97454056D01*
X159656544Y-97337830D01*
X159675335Y-97247768D01*
X159688092Y-97187644D01*
X159694048Y-97161235D01*
X159694182Y-97160772D01*
X159694349Y-97155461D01*
X159689968Y-97150733D01*
X159678927Y-97146555D01*
X159659111Y-97142892D01*
X159628406Y-97139710D01*
X159584698Y-97136977D01*
X159525873Y-97134658D01*
X159449817Y-97132719D01*
X159354417Y-97131127D01*
X159237557Y-97129848D01*
X159097125Y-97128848D01*
X158931005Y-97128093D01*
X158737085Y-97127549D01*
X158513250Y-97127184D01*
X158257386Y-97126962D01*
X157967378Y-97126851D01*
X157641114Y-97126816D01*
X157568916Y-97126815D01*
X157234802Y-97126791D01*
X156937373Y-97126696D01*
X156674504Y-97126496D01*
X156444071Y-97126158D01*
X156243952Y-97125648D01*
X156072021Y-97124933D01*
X155926155Y-97123977D01*
X155804231Y-97122748D01*
X155704123Y-97121212D01*
X155623709Y-97119334D01*
X155560865Y-97117082D01*
X155513467Y-97114422D01*
X155479390Y-97111319D01*
X155456511Y-97107740D01*
X155442706Y-97103651D01*
X155435852Y-97099018D01*
X155433824Y-97093808D01*
X155433806Y-97092858D01*
X155437741Y-97066797D01*
X155448676Y-97007070D01*
X155465760Y-96918014D01*
X155485710Y-96816349D01*
X155797309Y-96816349D01*
X157779415Y-96816349D01*
X158108524Y-96816420D01*
X158400952Y-96816654D01*
X158658827Y-96817078D01*
X158884277Y-96817721D01*
X159079430Y-96818609D01*
X159246413Y-96819773D01*
X159387353Y-96821239D01*
X159504379Y-96823036D01*
X159599617Y-96825191D01*
X159675196Y-96827734D01*
X159733243Y-96830692D01*
X159775885Y-96834093D01*
X159805251Y-96837966D01*
X159823468Y-96842338D01*
X159826254Y-96843396D01*
X159895129Y-96889140D01*
X159955434Y-96958693D01*
X159995139Y-97037211D01*
X160000950Y-97058900D01*
X159999987Y-97093829D01*
X159990479Y-97166169D01*
X159972501Y-97275495D01*
X159946132Y-97421380D01*
X159911450Y-97603399D01*
X159868532Y-97821124D01*
X159817454Y-98074129D01*
X159809034Y-98115389D01*
X159769960Y-98306973D01*
X159733342Y-98487222D01*
X159699902Y-98652532D01*
X159670363Y-98799298D01*
X159645448Y-98923915D01*
X159625878Y-99022778D01*
X159612376Y-99092283D01*
X159605663Y-99128826D01*
X159605042Y-99133412D01*
X159615402Y-99137949D01*
X159631588Y-99124747D01*
X159649799Y-99105089D01*
X159691625Y-99059844D01*
X159754363Y-98991941D01*
X159835304Y-98904311D01*
X159931745Y-98799882D01*
X160040978Y-98681585D01*
X160160297Y-98552350D01*
X160282228Y-98420273D01*
X160906322Y-97744212D01*
X160751520Y-97450067D01*
X160704708Y-97361331D01*
X160643102Y-97244877D01*
X160570163Y-97107232D01*
X160489355Y-96954923D01*
X160404140Y-96794478D01*
X160317981Y-96632425D01*
X160260964Y-96525287D01*
X159925210Y-95894653D01*
X157955251Y-95889711D01*
X155985292Y-95884768D01*
X155900565Y-96306899D01*
X155875372Y-96432310D01*
X155852308Y-96546915D01*
X155832619Y-96644536D01*
X155817553Y-96718995D01*
X155808357Y-96764112D01*
X155806574Y-96772690D01*
X155797309Y-96816349D01*
X155485710Y-96816349D01*
X155488139Y-96803970D01*
X155514961Y-96669275D01*
X155545373Y-96518268D01*
X155578521Y-96355287D01*
X155585423Y-96321544D01*
X155736389Y-95584187D01*
X157919000Y-95579253D01*
X160101612Y-95574319D01*
X160690322Y-96681494D01*
X161279032Y-97788668D01*
X161230658Y-97840973D01*
X161091988Y-97990945D01*
X160937540Y-98158038D01*
X160768849Y-98340592D01*
X160587448Y-98536943D01*
X160394872Y-98745428D01*
X160192655Y-98964386D01*
X159982331Y-99192153D01*
X159765433Y-99427068D01*
X159543496Y-99667468D01*
X159318053Y-99911690D01*
X159090639Y-100158072D01*
X158862787Y-100404952D01*
X158636032Y-100650666D01*
X158411907Y-100893553D01*
X158191946Y-101131949D01*
X157977684Y-101364193D01*
X157770653Y-101588622D01*
X157572390Y-101803573D01*
X157384426Y-102007385D01*
X157208296Y-102198394D01*
X157045535Y-102374937D01*
X156897676Y-102535354D01*
X156766253Y-102677980D01*
X156652799Y-102801154D01*
X156558850Y-102903212D01*
X156485939Y-102982494D01*
X156435599Y-103037335D01*
X156409366Y-103066074D01*
X156405836Y-103070045D01*
X156403180Y-103075373D01*
X156405680Y-103080102D01*
X156415484Y-103084265D01*
X156434739Y-103087901D01*
X156465593Y-103091043D01*
X156510193Y-103093728D01*
X156570685Y-103095991D01*
X156649219Y-103097869D01*
X156747940Y-103099396D01*
X156868996Y-103100608D01*
X157014536Y-103101542D01*
X157186705Y-103102232D01*
X157387651Y-103102715D01*
X157619522Y-103103026D01*
X157884466Y-103103200D01*
X158184628Y-103103274D01*
X158406948Y-103103285D01*
X160434691Y-103103285D01*
X161593110Y-101778954D01*
X161762995Y-101584851D01*
X161925661Y-101399216D01*
X162079288Y-101224115D01*
X162222055Y-101061613D01*
X162352141Y-100913773D01*
X162467727Y-100782662D01*
X162566991Y-100670344D01*
X162648114Y-100578884D01*
X162709274Y-100510346D01*
X162748651Y-100466797D01*
X162764425Y-100450300D01*
X162764573Y-100450218D01*
X162775185Y-100466396D01*
X162801870Y-100514598D01*
X162843263Y-100592181D01*
X162897995Y-100696501D01*
X162964698Y-100824914D01*
X163042007Y-100974776D01*
X163128552Y-101143444D01*
X163222967Y-101328274D01*
X163323884Y-101526623D01*
X163429936Y-101735846D01*
X163447058Y-101769698D01*
X164116501Y-103093583D01*
X165925935Y-103098534D01*
X166187269Y-103099184D01*
X166437288Y-103099680D01*
X166673302Y-103100022D01*
X166892622Y-103100213D01*
X167092557Y-103100255D01*
X167270417Y-103100150D01*
X167423512Y-103099899D01*
X167549152Y-103099505D01*
X167644646Y-103098969D01*
X167707304Y-103098292D01*
X167734436Y-103097478D01*
X167735370Y-103097281D01*
X167726265Y-103079827D01*
X167699627Y-103030165D01*
X167656478Y-102950172D01*
X167597835Y-102841729D01*
X167524718Y-102706712D01*
X167438147Y-102547001D01*
X167339141Y-102364474D01*
X167228720Y-102161011D01*
X167107901Y-101938489D01*
X166977706Y-101698787D01*
X166839153Y-101443784D01*
X166693261Y-101175358D01*
X166541050Y-100895389D01*
X166383540Y-100605754D01*
X166358703Y-100560092D01*
X164982036Y-98029107D01*
X165046038Y-97961192D01*
X165066558Y-97939042D01*
X165111765Y-97889971D01*
X165180118Y-97815660D01*
X165270073Y-97717789D01*
X165380088Y-97598039D01*
X165508619Y-97458089D01*
X165654124Y-97299621D01*
X165815060Y-97124315D01*
X165989884Y-96933851D01*
X166177053Y-96729909D01*
X166375025Y-96514171D01*
X166582257Y-96288316D01*
X166797205Y-96054025D01*
X166970106Y-95865547D01*
X167197713Y-95617441D01*
X167423657Y-95371183D01*
X167645967Y-95128918D01*
X167862674Y-94892791D01*
X168071808Y-94664947D01*
X168271402Y-94447530D01*
X168459484Y-94242685D01*
X168634086Y-94052557D01*
X168793238Y-93879291D01*
X168934971Y-93725032D01*
X169057316Y-93591924D01*
X169158303Y-93482112D01*
X169235962Y-93397742D01*
X169264047Y-93367266D01*
X169697922Y-92896716D01*
X165815322Y-92896716D01*
X164684552Y-94167616D01*
X164479265Y-94398111D01*
X164298246Y-94600832D01*
X164140186Y-94777193D01*
X164003778Y-94928607D01*
X163887714Y-95056487D01*
X163790685Y-95162249D01*
X163711383Y-95247306D01*
X163648501Y-95313071D01*
X163600730Y-95360959D01*
X163566763Y-95392383D01*
X163545291Y-95408758D01*
X163535006Y-95411497D01*
X163534377Y-95410862D01*
X163522589Y-95389375D01*
X163494707Y-95336084D01*
X163452172Y-95253807D01*
X163396425Y-95145360D01*
X163328909Y-95013561D01*
X163251064Y-94861226D01*
X163164333Y-94691172D01*
X163070155Y-94506217D01*
X162969974Y-94309176D01*
X162884339Y-94140528D01*
X162253705Y-92897847D01*
X157601566Y-92897281D01*
X157179489Y-92897278D01*
X156767714Y-92897371D01*
X156367919Y-92897556D01*
X155981781Y-92897828D01*
X155610978Y-92898184D01*
X155257189Y-92898619D01*
X154922090Y-92899129D01*
X154607359Y-92899711D01*
X154314675Y-92900360D01*
X154045714Y-92901072D01*
X153802156Y-92901843D01*
X153585677Y-92902670D01*
X153397955Y-92903547D01*
X153240668Y-92904471D01*
X153115495Y-92905438D01*
X153024112Y-92906444D01*
X152968197Y-92907485D01*
X152949427Y-92908546D01*
X152945654Y-92928338D01*
X152934544Y-92984612D01*
X152916412Y-93075802D01*
X152891571Y-93200343D01*
X152860335Y-93356671D01*
X152823018Y-93543220D01*
X152779933Y-93758425D01*
X152731394Y-94000721D01*
X152677716Y-94268543D01*
X152619211Y-94560326D01*
X152556194Y-94874505D01*
X152488979Y-95209514D01*
X152417879Y-95563788D01*
X152343209Y-95935763D01*
X152265281Y-96323874D01*
X152184410Y-96726554D01*
X152100910Y-97142240D01*
X152015095Y-97569365D01*
X151930710Y-97989284D01*
X151842945Y-98426069D01*
X151757194Y-98852991D01*
X151673773Y-99268480D01*
X151592994Y-99670966D01*
X151515172Y-100058882D01*
X151440621Y-100430656D01*
X151369656Y-100784720D01*
X151302589Y-101119504D01*
X151239735Y-101433439D01*
X151181409Y-101724955D01*
X151127923Y-101992482D01*
X151079592Y-102234452D01*
X151036731Y-102449295D01*
X150999653Y-102635441D01*
X150968672Y-102791320D01*
X150944102Y-102915364D01*
X150926258Y-103006003D01*
X150915453Y-103061668D01*
X150911994Y-103080739D01*
X150606238Y-103080739D01*
X150616287Y-103027929D01*
X150634166Y-102935847D01*
X150658536Y-102811430D01*
X150689017Y-102656584D01*
X150725228Y-102473212D01*
X150766788Y-102263221D01*
X150813317Y-102028516D01*
X150864435Y-101771001D01*
X150919760Y-101492581D01*
X150978912Y-101195163D01*
X151041509Y-100880649D01*
X151107172Y-100550947D01*
X151175520Y-100207961D01*
X151246172Y-99853595D01*
X151318747Y-99489755D01*
X151392865Y-99118347D01*
X151468145Y-98741275D01*
X151544206Y-98360443D01*
X151620668Y-97977759D01*
X151697150Y-97595125D01*
X151773271Y-97214448D01*
X151848650Y-96837632D01*
X151922907Y-96466583D01*
X151995662Y-96103206D01*
X152066533Y-95749405D01*
X152135140Y-95407086D01*
X152201102Y-95078154D01*
X152264038Y-94764514D01*
X152323569Y-94468071D01*
X152379312Y-94190730D01*
X152430888Y-93934396D01*
X152477915Y-93700974D01*
X152520014Y-93492370D01*
X152556802Y-93310488D01*
X152587901Y-93157233D01*
X152612928Y-93034511D01*
X152631504Y-92944226D01*
X152643248Y-92888284D01*
X152646776Y-92872336D01*
X152646193Y-92869852D01*
X152642603Y-92867493D01*
X152635047Y-92865255D01*
X152622561Y-92863138D01*
X152604186Y-92861137D01*
X152578959Y-92859251D01*
X152545920Y-92857476D01*
X152504107Y-92855810D01*
X152452559Y-92854250D01*
X152390314Y-92852793D01*
X152316412Y-92851438D01*
X152229891Y-92850180D01*
X152129790Y-92849018D01*
X152015148Y-92847949D01*
X151885002Y-92846970D01*
X151738393Y-92846078D01*
X151574359Y-92845271D01*
X151391938Y-92844545D01*
X151190169Y-92843900D01*
X150968091Y-92843330D01*
X150724742Y-92842835D01*
X150459163Y-92842412D01*
X150170390Y-92842056D01*
X149857463Y-92841767D01*
X149519421Y-92841541D01*
X149155302Y-92841376D01*
X148764145Y-92841268D01*
X148344988Y-92841216D01*
X147896871Y-92841216D01*
X147418833Y-92841266D01*
X146909911Y-92841363D01*
X146369145Y-92841505D01*
X145795574Y-92841689D01*
X145188235Y-92841911D01*
X144546168Y-92842171D01*
X143868412Y-92842464D01*
X143154006Y-92842788D01*
X142401987Y-92843140D01*
X142212310Y-92843230D01*
X131769824Y-92848205D01*
X131599294Y-92901697D01*
X131334993Y-93003478D01*
X131095735Y-93134744D01*
X130882416Y-93294600D01*
X130695930Y-93482150D01*
X130537174Y-93696499D01*
X130407042Y-93936751D01*
X130309794Y-94191197D01*
X130256302Y-94361727D01*
X130256302Y-101638274D01*
X130029395Y-101638274D01*
X130024455Y-101591349D01*
X130019152Y-101525051D01*
G37*
G36*
X133404622Y-94920567D02*
G01*
X133680063Y-94922138D01*
X133919852Y-94923639D01*
X134127143Y-94925241D01*
X134305091Y-94927115D01*
X134456850Y-94929435D01*
X134585575Y-94932372D01*
X134694422Y-94936099D01*
X134786544Y-94940787D01*
X134865096Y-94946609D01*
X134933233Y-94953737D01*
X134994110Y-94962342D01*
X135050882Y-94972598D01*
X135106703Y-94984675D01*
X135164728Y-94998747D01*
X135228111Y-95014985D01*
X135252864Y-95021399D01*
X135533519Y-95110414D01*
X135793244Y-95225875D01*
X136029130Y-95365877D01*
X136238268Y-95528514D01*
X136417749Y-95711883D01*
X136527094Y-95855845D01*
X136647947Y-96057219D01*
X136740675Y-96264802D01*
X136806932Y-96484622D01*
X136848374Y-96722713D01*
X136866654Y-96985104D01*
X136867854Y-97097709D01*
X136852647Y-97387111D01*
X136808815Y-97651936D01*
X136735332Y-97894890D01*
X136631172Y-98118677D01*
X136495308Y-98326005D01*
X136329793Y-98516455D01*
X136129635Y-98697145D01*
X135911386Y-98849631D01*
X135672254Y-98975172D01*
X135409444Y-99075026D01*
X135120160Y-99150452D01*
X134807079Y-99202031D01*
X134751657Y-99206386D01*
X134660686Y-99210333D01*
X134537420Y-99213818D01*
X134385118Y-99216788D01*
X134207034Y-99219190D01*
X134006426Y-99220972D01*
X133786549Y-99222079D01*
X133550662Y-99222460D01*
X132458670Y-99222460D01*
X132458670Y-101337510D01*
X132229055Y-101337510D01*
X132138283Y-101336475D01*
X132062159Y-101333660D01*
X132008811Y-101329498D01*
X131986503Y-101324574D01*
X131985091Y-101304078D01*
X131983722Y-101246807D01*
X131982404Y-101154796D01*
X131981145Y-101030079D01*
X131979954Y-100874690D01*
X131978839Y-100690662D01*
X131977808Y-100480030D01*
X131976869Y-100244828D01*
X131976031Y-99987090D01*
X131975301Y-99708850D01*
X131974688Y-99412141D01*
X131974200Y-99098998D01*
X131973871Y-98795570D01*
X132458670Y-98795570D01*
X133525230Y-98795570D01*
X133772325Y-98795366D01*
X133984098Y-98794700D01*
X134164032Y-98793492D01*
X134315611Y-98791659D01*
X134442318Y-98789119D01*
X134547639Y-98785792D01*
X134635055Y-98781595D01*
X134708052Y-98776448D01*
X134770113Y-98770268D01*
X134806756Y-98765587D01*
X135091610Y-98711167D01*
X135350831Y-98631290D01*
X135583217Y-98526649D01*
X135787561Y-98397934D01*
X135962662Y-98245837D01*
X136107313Y-98071050D01*
X136160241Y-97988427D01*
X136253654Y-97802612D01*
X136320213Y-97605124D01*
X136361421Y-97389740D01*
X136378781Y-97150240D01*
X136379575Y-97080842D01*
X136367608Y-96821512D01*
X136330863Y-96589278D01*
X136268000Y-96380307D01*
X136177680Y-96190767D01*
X136058566Y-96016822D01*
X135974044Y-95919751D01*
X135828581Y-95781664D01*
X135673253Y-95667981D01*
X135499156Y-95573215D01*
X135297387Y-95491881D01*
X135257465Y-95478251D01*
X135182846Y-95453740D01*
X135114579Y-95432683D01*
X135049082Y-95414795D01*
X134982771Y-95399791D01*
X134912065Y-95387388D01*
X134833379Y-95377301D01*
X134743131Y-95369245D01*
X134637739Y-95362937D01*
X134513619Y-95358091D01*
X134367189Y-95354424D01*
X134194866Y-95351651D01*
X133993066Y-95349487D01*
X133758208Y-95347648D01*
X133598663Y-95346574D01*
X132458670Y-95339130D01*
X132458670Y-98795570D01*
X131973871Y-98795570D01*
X131973845Y-98771454D01*
X131973632Y-98431545D01*
X131973567Y-98112056D01*
X131973567Y-94912473D01*
X133404622Y-94920567D01*
G37*
G36*
X138609778Y-101337510D02*
G01*
X138144079Y-101337510D01*
X138144079Y-96544691D01*
X138609778Y-96544691D01*
X138609778Y-101337510D01*
G37*
G36*
X145022420Y-98708609D02*
G01*
X145064180Y-98413743D01*
X145138343Y-98128855D01*
X145243911Y-97856996D01*
X145379884Y-97601217D01*
X145545265Y-97364570D01*
X145739053Y-97150107D01*
X145960251Y-96960879D01*
X145976706Y-96948679D01*
X146161538Y-96829777D01*
X146372904Y-96722667D01*
X146599128Y-96632354D01*
X146828535Y-96563843D01*
X146924446Y-96542491D01*
X147020925Y-96529089D01*
X147146024Y-96520086D01*
X147289950Y-96515398D01*
X147442911Y-96514937D01*
X147595115Y-96518620D01*
X147736770Y-96526359D01*
X147858084Y-96538069D01*
X147939205Y-96551365D01*
X148235328Y-96633920D01*
X148509221Y-96748067D01*
X148762159Y-96894522D01*
X148995418Y-97073996D01*
X149163351Y-97236129D01*
X149352761Y-97464927D01*
X149510739Y-97716034D01*
X149636526Y-97987988D01*
X149729363Y-98279324D01*
X149750329Y-98368679D01*
X149772447Y-98502544D01*
X149787796Y-98661569D01*
X149796275Y-98835108D01*
X149797780Y-99012517D01*
X149792209Y-99183151D01*
X149779460Y-99336366D01*
X149760773Y-99455310D01*
X149677605Y-99764112D01*
X149564283Y-100048581D01*
X149420858Y-100308634D01*
X149247383Y-100544187D01*
X149043909Y-100755157D01*
X148863882Y-100902984D01*
X148613346Y-101064805D01*
X148344520Y-101193138D01*
X148061377Y-101286280D01*
X147875248Y-101326505D01*
X147758718Y-101341137D01*
X147615985Y-101350497D01*
X147458528Y-101354598D01*
X147297823Y-101353453D01*
X147145348Y-101347076D01*
X147012580Y-101335479D01*
X146943850Y-101325432D01*
X146651508Y-101253748D01*
X146375968Y-101148300D01*
X146119470Y-101011158D01*
X145884254Y-100844391D01*
X145672559Y-100650070D01*
X145486625Y-100430266D01*
X145328693Y-100187048D01*
X145201001Y-99922487D01*
X145105789Y-99638654D01*
X145101547Y-99622555D01*
X145040105Y-99316066D01*
X145014423Y-99014633D01*
X145498241Y-99014633D01*
X145518860Y-99275866D01*
X145567780Y-99524967D01*
X145589517Y-99600841D01*
X145687815Y-99856494D01*
X145816416Y-100090945D01*
X145973278Y-100301737D01*
X146156362Y-100486415D01*
X146363627Y-100642521D01*
X146536363Y-100740691D01*
X146790804Y-100845813D01*
X147054415Y-100913390D01*
X147325522Y-100943139D01*
X147602451Y-100934778D01*
X147652610Y-100929225D01*
X147921137Y-100877518D01*
X148173394Y-100791360D01*
X148407102Y-100672495D01*
X148619982Y-100522672D01*
X148809755Y-100343636D01*
X148974142Y-100137134D01*
X149110863Y-99904912D01*
X149175282Y-99762349D01*
X149248268Y-99539164D01*
X149296712Y-99295000D01*
X149320358Y-99039144D01*
X149318952Y-98780886D01*
X149292239Y-98529516D01*
X149239964Y-98294321D01*
X149217508Y-98223148D01*
X149110495Y-97965746D01*
X148974227Y-97732296D01*
X148810447Y-97524470D01*
X148620900Y-97343944D01*
X148407333Y-97192389D01*
X148171489Y-97071478D01*
X147927609Y-96986305D01*
X147866353Y-96970869D01*
X147805538Y-96959655D01*
X147737196Y-96951995D01*
X147653356Y-96947220D01*
X147546047Y-96944664D01*
X147419251Y-96943695D01*
X147286079Y-96943764D01*
X147183525Y-96945451D01*
X147103410Y-96949438D01*
X147037556Y-96956405D01*
X146977784Y-96967032D01*
X146915914Y-96982001D01*
X146896636Y-96987189D01*
X146639956Y-97076563D01*
X146404593Y-97198072D01*
X146191880Y-97350583D01*
X146003152Y-97532965D01*
X145839741Y-97744086D01*
X145702981Y-97982813D01*
X145688497Y-98013105D01*
X145601050Y-98240504D01*
X145539849Y-98488715D01*
X145505409Y-98749504D01*
X145498241Y-99014633D01*
X145014423Y-99014633D01*
X145014062Y-99010400D01*
X145022420Y-98708609D01*
G37*
G36*
X138490315Y-94650081D02*
G01*
X138538093Y-94667318D01*
X138578445Y-94689266D01*
X138669908Y-94760235D01*
X138727370Y-94847834D01*
X138753136Y-94956143D01*
X138755097Y-95002063D01*
X138743496Y-95111706D01*
X138705269Y-95201871D01*
X138635323Y-95282919D01*
X138603833Y-95309899D01*
X138556245Y-95343837D01*
X138509540Y-95363018D01*
X138448361Y-95372367D01*
X138400090Y-95375229D01*
X138314722Y-95375219D01*
X138252098Y-95364682D01*
X138198482Y-95341915D01*
X138106753Y-95274943D01*
X138047005Y-95189119D01*
X138016695Y-95080221D01*
X138012435Y-95033311D01*
X138016675Y-94921973D01*
X138045316Y-94833174D01*
X138103109Y-94755984D01*
X138152067Y-94712060D01*
X138198635Y-94679149D01*
X138245968Y-94659996D01*
X138308802Y-94649903D01*
X138358080Y-94646351D01*
X138435558Y-94644114D01*
X138490315Y-94650081D01*
G37*
G36*
X156583050Y-93172413D02*
G01*
X156978393Y-93172612D01*
X157385091Y-93172933D01*
X157630382Y-93173183D01*
X162078489Y-93178075D01*
X162777327Y-94550608D01*
X162886739Y-94765090D01*
X162991250Y-94969177D01*
X163089510Y-95160280D01*
X163180167Y-95335807D01*
X163261870Y-95493166D01*
X163333268Y-95629766D01*
X163393009Y-95743016D01*
X163439743Y-95830325D01*
X163472118Y-95889101D01*
X163488783Y-95916753D01*
X163490654Y-95918599D01*
X163505361Y-95903764D01*
X163544042Y-95861926D01*
X163604892Y-95795094D01*
X163686109Y-95705277D01*
X163785888Y-95594484D01*
X163902428Y-95464722D01*
X164033924Y-95318001D01*
X164178572Y-95156329D01*
X164334571Y-94981715D01*
X164500115Y-94796168D01*
X164673402Y-94601696D01*
X164722932Y-94546066D01*
X165940722Y-93178075D01*
X167488084Y-93173108D01*
X167729356Y-93172532D01*
X167959095Y-93172370D01*
X168174393Y-93172601D01*
X168372338Y-93173204D01*
X168550024Y-93174157D01*
X168704541Y-93175439D01*
X168832979Y-93177028D01*
X168932430Y-93178905D01*
X168999984Y-93181047D01*
X169032733Y-93183434D01*
X169035447Y-93184389D01*
X169022540Y-93200212D01*
X168984730Y-93243109D01*
X168923377Y-93311586D01*
X168839845Y-93404150D01*
X168735495Y-93519305D01*
X168611690Y-93655558D01*
X168469793Y-93811416D01*
X168311164Y-93985383D01*
X168137168Y-94175966D01*
X167949166Y-94381671D01*
X167748520Y-94601004D01*
X167536593Y-94832470D01*
X167314747Y-95074577D01*
X167084345Y-95325828D01*
X166847631Y-95583769D01*
X166609982Y-95842825D01*
X166379549Y-96094387D01*
X166157697Y-96336950D01*
X165945787Y-96569010D01*
X165745183Y-96789061D01*
X165557248Y-96995599D01*
X165383345Y-97187118D01*
X165224837Y-97362115D01*
X165083088Y-97519083D01*
X164959460Y-97656519D01*
X164855317Y-97772917D01*
X164772022Y-97866772D01*
X164710937Y-97936580D01*
X164673426Y-97980835D01*
X164660851Y-97998004D01*
X164670090Y-98018455D01*
X164696857Y-98071012D01*
X164740096Y-98153712D01*
X164798752Y-98264592D01*
X164871770Y-98401688D01*
X164958095Y-98563036D01*
X165056672Y-98746674D01*
X165166446Y-98950637D01*
X165286361Y-99172961D01*
X165415362Y-99411684D01*
X165552396Y-99664842D01*
X165696405Y-99930471D01*
X165846336Y-100206607D01*
X165956076Y-100408468D01*
X166109518Y-100690724D01*
X166257780Y-100963753D01*
X166399808Y-101225601D01*
X166534550Y-101474312D01*
X166660952Y-101707935D01*
X166777961Y-101924513D01*
X166884524Y-102122095D01*
X166979588Y-102298724D01*
X167062100Y-102452449D01*
X167131007Y-102581314D01*
X167185255Y-102683365D01*
X167223791Y-102756649D01*
X167245563Y-102799212D01*
X167250267Y-102809729D01*
X167238955Y-102814115D01*
X167203937Y-102817948D01*
X167143595Y-102821253D01*
X167056307Y-102824054D01*
X166940455Y-102826374D01*
X166794418Y-102828238D01*
X166616577Y-102829669D01*
X166405311Y-102830692D01*
X166159000Y-102831331D01*
X165876024Y-102831610D01*
X165776689Y-102831628D01*
X164303111Y-102831628D01*
X164100538Y-102438694D01*
X164053666Y-102347430D01*
X163991665Y-102226172D01*
X163916900Y-102079570D01*
X163831733Y-101912271D01*
X163738529Y-101728925D01*
X163639652Y-101534181D01*
X163537465Y-101332687D01*
X163434331Y-101129092D01*
X163365150Y-100992381D01*
X162832334Y-99939001D01*
X161565217Y-101385315D01*
X160298099Y-102831628D01*
X158659579Y-102831628D01*
X158381985Y-102831423D01*
X158124325Y-102830825D01*
X157888659Y-102829856D01*
X157677046Y-102828537D01*
X157491547Y-102826891D01*
X157334221Y-102824940D01*
X157207129Y-102822706D01*
X157112330Y-102820212D01*
X157051885Y-102817480D01*
X157027853Y-102814531D01*
X157027527Y-102814034D01*
X157041189Y-102798104D01*
X157079837Y-102755181D01*
X157142097Y-102686757D01*
X157226597Y-102594324D01*
X157331964Y-102479372D01*
X157456825Y-102343394D01*
X157599809Y-102187881D01*
X157759542Y-102014324D01*
X157934651Y-101824215D01*
X158123764Y-101619045D01*
X158325508Y-101400307D01*
X158538510Y-101169490D01*
X158761399Y-100928087D01*
X158992800Y-100677590D01*
X159228582Y-100422475D01*
X159468653Y-100162773D01*
X159702561Y-99909724D01*
X159928854Y-99664898D01*
X160146083Y-99429862D01*
X160352800Y-99206186D01*
X160547553Y-98995440D01*
X160728894Y-98799191D01*
X160895373Y-98619009D01*
X161045540Y-98456463D01*
X161177946Y-98313121D01*
X161291140Y-98190553D01*
X161383674Y-98090328D01*
X161454098Y-98014014D01*
X161500963Y-97963180D01*
X161522043Y-97940246D01*
X161620917Y-97831981D01*
X160945473Y-96562553D01*
X160270028Y-95293125D01*
X157891732Y-95288197D01*
X157538089Y-95287486D01*
X157221231Y-95286912D01*
X156939135Y-95286501D01*
X156689778Y-95286277D01*
X156471137Y-95286265D01*
X156281188Y-95286490D01*
X156117909Y-95286975D01*
X155979277Y-95287747D01*
X155863269Y-95288828D01*
X155767861Y-95290245D01*
X155691030Y-95292022D01*
X155630754Y-95294183D01*
X155585009Y-95296753D01*
X155551772Y-95299757D01*
X155529021Y-95303219D01*
X155514731Y-95307164D01*
X155506881Y-95311617D01*
X155503447Y-95316602D01*
X155503215Y-95317304D01*
X155497908Y-95341004D01*
X155485895Y-95398154D01*
X155468039Y-95484500D01*
X155445199Y-95595788D01*
X155418237Y-95727763D01*
X155388011Y-95876171D01*
X155355384Y-96036758D01*
X155321214Y-96205269D01*
X155286364Y-96377451D01*
X155251693Y-96549049D01*
X155218062Y-96715809D01*
X155186330Y-96873477D01*
X155157360Y-97017798D01*
X155132011Y-97144519D01*
X155111143Y-97249384D01*
X155095618Y-97328140D01*
X155086295Y-97376533D01*
X155083880Y-97390530D01*
X155102872Y-97391588D01*
X155158194Y-97392604D01*
X155247371Y-97393570D01*
X155367926Y-97394477D01*
X155517380Y-97395314D01*
X155693259Y-97396073D01*
X155893084Y-97396745D01*
X156114378Y-97397320D01*
X156354665Y-97397789D01*
X156611468Y-97398144D01*
X156882310Y-97398374D01*
X157164714Y-97398470D01*
X157218334Y-97398473D01*
X157502616Y-97398534D01*
X157775796Y-97398715D01*
X158035399Y-97399005D01*
X158278947Y-97399398D01*
X158503962Y-97399886D01*
X158707970Y-97400459D01*
X158888491Y-97401110D01*
X159043050Y-97401831D01*
X159169169Y-97402615D01*
X159264371Y-97403452D01*
X159326180Y-97404335D01*
X159352119Y-97405255D01*
X159352788Y-97405430D01*
X159349015Y-97425196D01*
X159338164Y-97479519D01*
X159320938Y-97564934D01*
X159298040Y-97677976D01*
X159270175Y-97815183D01*
X159238044Y-97973089D01*
X159202352Y-98148230D01*
X159163801Y-98337143D01*
X159139343Y-98456877D01*
X159099405Y-98652418D01*
X159061899Y-98836260D01*
X159027529Y-99004943D01*
X158996996Y-99155007D01*
X158971004Y-99282992D01*
X158950256Y-99385437D01*
X158935455Y-99458881D01*
X158927304Y-99499866D01*
X158925897Y-99507445D01*
X158906906Y-99508255D01*
X158851586Y-99509033D01*
X158762415Y-99509773D01*
X158641873Y-99510467D01*
X158492438Y-99511108D01*
X158316590Y-99511689D01*
X158116807Y-99512203D01*
X157895567Y-99512643D01*
X157655351Y-99513002D01*
X157398637Y-99513272D01*
X157127904Y-99513448D01*
X156845631Y-99513521D01*
X156794831Y-99513522D01*
X154663765Y-99513522D01*
X154348644Y-101080405D01*
X154299731Y-101323549D01*
X154252667Y-101557362D01*
X154208065Y-101778815D01*
X154166535Y-101984876D01*
X154128691Y-102172515D01*
X154095142Y-102338701D01*
X154066502Y-102480404D01*
X154043381Y-102594593D01*
X154026392Y-102678237D01*
X154016145Y-102728305D01*
X154013815Y-102739458D01*
X153994107Y-102831628D01*
X152627687Y-102831628D01*
X152364557Y-102831604D01*
X152137566Y-102831486D01*
X151944047Y-102831198D01*
X151781330Y-102830668D01*
X151646749Y-102829821D01*
X151537634Y-102828585D01*
X151451317Y-102826886D01*
X151385130Y-102824651D01*
X151336403Y-102821805D01*
X151302470Y-102818276D01*
X151280661Y-102813989D01*
X151268309Y-102808872D01*
X151262744Y-102802850D01*
X151261298Y-102795851D01*
X151261268Y-102793980D01*
X151265043Y-102771852D01*
X151276151Y-102713303D01*
X151294271Y-102619955D01*
X151319076Y-102493432D01*
X151350245Y-102335358D01*
X151387453Y-102147356D01*
X151430377Y-101931049D01*
X151478693Y-101688061D01*
X151532078Y-101420016D01*
X151590207Y-101128536D01*
X151652758Y-100815245D01*
X151719406Y-100481767D01*
X151789828Y-100129725D01*
X151863700Y-99760743D01*
X151940699Y-99376444D01*
X152020501Y-98978451D01*
X152102782Y-98568388D01*
X152187219Y-98147878D01*
X152221772Y-97975882D01*
X152306941Y-97551942D01*
X152390086Y-97137968D01*
X152470886Y-96735572D01*
X152549016Y-96346365D01*
X152624154Y-95971962D01*
X152695977Y-95613974D01*
X152764161Y-95274015D01*
X152828383Y-94953697D01*
X152888320Y-94654633D01*
X152943650Y-94378436D01*
X152994049Y-94126718D01*
X153039193Y-93901093D01*
X153078760Y-93703172D01*
X153112427Y-93534568D01*
X153139870Y-93396895D01*
X153160767Y-93291765D01*
X153174794Y-93220791D01*
X153181628Y-93185585D01*
X153182276Y-93181861D01*
X153201394Y-93180623D01*
X153257605Y-93179458D01*
X153349192Y-93178368D01*
X153474440Y-93177357D01*
X153631632Y-93176429D01*
X153819054Y-93175586D01*
X154034989Y-93174833D01*
X154277722Y-93174171D01*
X154545536Y-93173606D01*
X154836716Y-93173140D01*
X155149546Y-93172776D01*
X155482310Y-93172518D01*
X155833293Y-93172370D01*
X156200778Y-93172333D01*
X156583050Y-93172413D01*
G37*
G36*
X142571838Y-96509770D02*
G01*
X142701387Y-96515524D01*
X142784448Y-96524060D01*
X143081691Y-96582985D01*
X143355846Y-96670980D01*
X143605254Y-96787450D01*
X143734316Y-96865431D01*
X143810765Y-96921345D01*
X143897644Y-96993543D01*
X143987551Y-97074916D01*
X144073082Y-97158355D01*
X144146835Y-97236749D01*
X144201408Y-97302990D01*
X144221540Y-97333366D01*
X144254615Y-97391773D01*
X144089905Y-97511548D01*
X144020672Y-97560865D01*
X143962970Y-97600050D01*
X143923952Y-97624359D01*
X143911298Y-97629978D01*
X143893305Y-97615256D01*
X143858356Y-97577533D01*
X143813393Y-97524385D01*
X143804573Y-97513517D01*
X143652414Y-97355018D01*
X143468736Y-97216812D01*
X143256000Y-97100451D01*
X143016667Y-97007484D01*
X142985408Y-96997709D01*
X142921335Y-96978894D01*
X142865427Y-96965086D01*
X142809757Y-96955492D01*
X142746400Y-96949323D01*
X142667430Y-96945786D01*
X142564920Y-96944091D01*
X142442093Y-96943475D01*
X142307357Y-96943598D01*
X142203428Y-96945234D01*
X142122316Y-96949041D01*
X142056028Y-96955675D01*
X141996572Y-96965794D01*
X141935959Y-96980057D01*
X141908479Y-96987373D01*
X141647392Y-97077230D01*
X141409390Y-97197409D01*
X141195787Y-97346102D01*
X141007901Y-97521504D01*
X140847047Y-97721809D01*
X140714541Y-97945209D01*
X140611697Y-98189899D01*
X140539833Y-98454073D01*
X140500264Y-98735923D01*
X140492477Y-98931398D01*
X140509026Y-99221799D01*
X140558721Y-99497060D01*
X140640325Y-99755110D01*
X140752604Y-99993880D01*
X140894322Y-100211299D01*
X141064244Y-100405298D01*
X141261134Y-100573807D01*
X141483758Y-100714755D01*
X141587791Y-100766698D01*
X141816130Y-100852673D01*
X142063469Y-100910414D01*
X142321264Y-100939024D01*
X142580969Y-100937605D01*
X142834041Y-100905261D01*
X142859282Y-100900160D01*
X143110511Y-100829795D01*
X143339477Y-100728068D01*
X143548408Y-100593723D01*
X143739527Y-100425503D01*
X143784800Y-100377991D01*
X143918935Y-100232421D01*
X144053699Y-100330972D01*
X144120212Y-100379514D01*
X144178466Y-100421857D01*
X144218458Y-100450735D01*
X144225468Y-100455735D01*
X144243552Y-100471429D01*
X144246842Y-100489375D01*
X144232507Y-100518017D01*
X144197717Y-100565799D01*
X144181502Y-100586900D01*
X144009345Y-100778782D01*
X143808523Y-100947009D01*
X143582609Y-101089530D01*
X143335177Y-101204298D01*
X143069800Y-101289261D01*
X142890697Y-101327307D01*
X142777085Y-101341365D01*
X142636662Y-101350423D01*
X142480843Y-101354496D01*
X142321042Y-101353598D01*
X142168675Y-101347745D01*
X142035156Y-101336951D01*
X141956990Y-101326108D01*
X141662404Y-101255351D01*
X141384394Y-101150569D01*
X141125228Y-101013462D01*
X140887172Y-100845732D01*
X140672494Y-100649080D01*
X140483463Y-100425205D01*
X140322346Y-100175810D01*
X140257474Y-100051429D01*
X140155028Y-99798980D01*
X140080619Y-99526125D01*
X140034644Y-99239697D01*
X140017500Y-98946531D01*
X140029585Y-98653462D01*
X140071294Y-98367324D01*
X140143025Y-98094953D01*
X140143698Y-98092917D01*
X140256277Y-97811582D01*
X140399240Y-97553751D01*
X140571190Y-97320657D01*
X140770729Y-97113534D01*
X140996461Y-96933615D01*
X141246989Y-96782132D01*
X141520915Y-96660318D01*
X141816842Y-96569406D01*
X141889075Y-96552736D01*
X141993035Y-96535771D01*
X142124470Y-96522634D01*
X142272201Y-96513683D01*
X142425050Y-96509276D01*
X142571838Y-96509770D01*
G37*
%TO.C,REF\u002A\u002A*%
X209606000Y-101866000D02*
X209606000Y-103366000D01*
X215356000Y-99366000D02*
X210856000Y-99366000D01*
X216606000Y-103366000D02*
X216606000Y-101866000D01*
X210856000Y-105866000D02*
X215356000Y-105866000D01*
X209606000Y-93230000D02*
X209606000Y-94730000D01*
X215356000Y-90730000D02*
X210856000Y-90730000D01*
X210856000Y-97230000D02*
X215356000Y-97230000D01*
X216606000Y-94730000D02*
X216606000Y-93230000D01*
%TD*%
%LPC*%
D12*
%TO.C,REF\u002A\u002A*%
X178650000Y-124610000D03*
D13*
X181190000Y-124610000D03*
X183730000Y-124610000D03*
%TD*%
D14*
%TO.C,REF\u002A\u002A*%
X209856000Y-100366000D03*
X216356000Y-100366000D03*
X216356000Y-104866000D03*
X209856000Y-104866000D03*
%TD*%
%TO.C,REF\u002A\u002A*%
X209856000Y-91730000D03*
X216356000Y-91730000D03*
X216356000Y-96230000D03*
X209856000Y-96230000D03*
%TD*%
M02*
