%TF.GenerationSoftware,KiCad,Pcbnew,(6.0.8)*%
%TF.CreationDate,2022-10-29T21:36:07-06:00*%
%TF.ProjectId,plate,706c6174-652e-46b6-9963-61645f706362,rev?*%
%TF.SameCoordinates,Original*%
%TF.FileFunction,Drillmap*%
%TF.FilePolarity,Positive*%
%FSLAX45Y45*%
G04 Gerber Fmt 4.5, Leading zero omitted, Abs format (unit mm)*
G04 Created by KiCad (PCBNEW (6.0.8)) date 2022-10-29 21:36:07*
%MOMM*%
%LPD*%
G01*
G04 APERTURE LIST*
%ADD10C,0.188976*%
%ADD11C,0.200000*%
%ADD12C,0.040000*%
%ADD13C,0.099000*%
%ADD14C,0.100000*%
%ADD15C,0.130000*%
G04 APERTURE END LIST*
D10*
X17396000Y-9503900D02*
X17396000Y-9503900D01*
X17396000Y-9193900D02*
X17316000Y-9193900D01*
X8048800Y-6397100D02*
X8053400Y-6358100D01*
X15491000Y-12398900D02*
X16891000Y-12398900D01*
X13029800Y-7288900D02*
X13029800Y-7288900D01*
X8048800Y-13190700D02*
X8047200Y-13151400D01*
X8380800Y-6382300D02*
X8380800Y-6382300D01*
X21350700Y-13293000D02*
X21350700Y-13293000D01*
X21595199Y-6333500D02*
X21556500Y-6294800D01*
X10699800Y-8588900D02*
X10699800Y-8588900D01*
X21492799Y-13649900D02*
X21492799Y-13649900D01*
X8469000Y-13645300D02*
X8469000Y-13645300D01*
X11204700Y-10083900D02*
X11124800Y-10083900D01*
X8547300Y-6261400D02*
X8547300Y-6261400D01*
X21747500Y-13556000D02*
X21747500Y-13556000D01*
X8508000Y-13649900D02*
X8469000Y-13645300D01*
X14509799Y-7188900D02*
X14509799Y-7188900D01*
X18876000Y-9193900D02*
X18796000Y-9193900D01*
X15491000Y-8178800D02*
X15491000Y-8178800D01*
X9299800Y-11408900D02*
X9299800Y-11408900D01*
X12684700Y-9193900D02*
X12604700Y-9193900D01*
X14509799Y-7598900D02*
X14589800Y-7598900D01*
X8048800Y-6397100D02*
X8048800Y-6397100D01*
X16891000Y-12398900D02*
X16891000Y-12398900D01*
X13109799Y-8588900D02*
X14509799Y-8588900D01*
X8053400Y-6358100D02*
X8053400Y-6358100D01*
X19221000Y-11408900D02*
X19301000Y-11408900D01*
X8047200Y-13151400D02*
X8047200Y-13151400D01*
X14509799Y-8488900D02*
X14589800Y-8488900D01*
X16971000Y-8178800D02*
X16971000Y-8178800D01*
X16891000Y-7288900D02*
X16891000Y-7288900D01*
X15491000Y-8588900D02*
X15491000Y-8588900D01*
X15491000Y-8488900D02*
X15491000Y-8488900D01*
X10699800Y-10998900D02*
X9299800Y-10998900D01*
X21507699Y-13317900D02*
X21556500Y-13293000D01*
X21556500Y-6294800D02*
X21556500Y-6294800D01*
X8142700Y-6142500D02*
X8167000Y-6111600D01*
X21929100Y-6281800D02*
X21939799Y-6319600D01*
X20780999Y-8178800D02*
X20700999Y-8178800D01*
X10699800Y-12298900D02*
X10779600Y-12298900D01*
X8101700Y-6209400D02*
X8120900Y-6175100D01*
X11204700Y-9503900D02*
X11204700Y-9503900D01*
X11124800Y-10393900D02*
X11204700Y-10393900D01*
X20700999Y-10998900D02*
X20700999Y-10998900D01*
X17396000Y-10493900D02*
X17396000Y-10493900D01*
X10779600Y-11408900D02*
X10779600Y-11098900D01*
X8222500Y-6056100D02*
X8253400Y-6031800D01*
X9299800Y-12398900D02*
X10699800Y-12398900D01*
X21287199Y-13205500D02*
X21287199Y-13205500D01*
X17396000Y-10493900D02*
X18796000Y-10493900D01*
X8142700Y-13445300D02*
X8120900Y-13412700D01*
X8405700Y-13254300D02*
X8444400Y-13293000D01*
X21287199Y-6490400D02*
X21311999Y-6539200D01*
X8405700Y-6333500D02*
X8405700Y-6333500D01*
X8469000Y-5942500D02*
X8508000Y-5937900D01*
X8469000Y-13645300D02*
X8430500Y-13637600D01*
X13109799Y-12298900D02*
X13109799Y-12298900D01*
X9219700Y-11988900D02*
X9219700Y-11988900D01*
X14509799Y-12398900D02*
X14509799Y-12298900D01*
X15491000Y-12298900D02*
X15491000Y-12398900D01*
X21879899Y-6175100D02*
X21879899Y-6175100D01*
X21287199Y-13097400D02*
X21287199Y-13097400D01*
X21915500Y-6245000D02*
X21915500Y-6245000D01*
X14589800Y-8488900D02*
X14589800Y-8488900D01*
X15411000Y-11098900D02*
X15411000Y-11408900D01*
X12604700Y-10083900D02*
X12604700Y-9503900D01*
X19301000Y-7288900D02*
X19221000Y-7288900D01*
X21833799Y-6111600D02*
X21833799Y-6111600D01*
X21595199Y-13254300D02*
X21619999Y-13205500D01*
X10699800Y-11408900D02*
X10779600Y-11408900D01*
X21833799Y-6111600D02*
X21858099Y-6142500D01*
X21287199Y-6382300D02*
X21278599Y-6436400D01*
X8120900Y-13412700D02*
X8120900Y-13412700D01*
X15491000Y-11098900D02*
X15491000Y-11098900D01*
X8405700Y-6333500D02*
X8380800Y-6382300D01*
X10699800Y-8178800D02*
X10699800Y-7598900D01*
X21833799Y-13476200D02*
X21833799Y-13476200D01*
X21507699Y-6269900D02*
X21453599Y-6261400D01*
X8547300Y-6611400D02*
X8601300Y-6602800D01*
X8547300Y-5936300D02*
X21453599Y-5936400D01*
X8085300Y-13342800D02*
X8085300Y-13342800D01*
X16891000Y-8178800D02*
X16891000Y-8178800D01*
X10779600Y-7288900D02*
X10779600Y-7288900D01*
X18876000Y-10393900D02*
X18876000Y-10083900D01*
X8355900Y-5974400D02*
X8355900Y-5974400D01*
X21287199Y-6382300D02*
X21287199Y-6382300D01*
X21899099Y-6209400D02*
X21915500Y-6245000D01*
X21350700Y-13009900D02*
X21350700Y-13009900D01*
X21953599Y-13151500D02*
X21953599Y-13151500D01*
X21595199Y-6539200D02*
X21619999Y-6490400D01*
X12604700Y-10493900D02*
X12604700Y-10393900D01*
X21778300Y-6056100D02*
X21807200Y-6082800D01*
X18876000Y-10083900D02*
X18796000Y-10083900D01*
X10779600Y-12298900D02*
X10779600Y-11988900D01*
X8380800Y-13097400D02*
X8380800Y-13097400D01*
X10699800Y-11988900D02*
X10699800Y-11988900D01*
X18796000Y-9193900D02*
X18796000Y-9193900D01*
X20700999Y-11408900D02*
X20700999Y-11408900D01*
X21350700Y-6294800D02*
X21350700Y-6294800D01*
X21619999Y-6490400D02*
X21628599Y-6436400D01*
X8085300Y-6245000D02*
X8101700Y-6209400D01*
X8508000Y-5937900D02*
X8547300Y-5936300D01*
X8380800Y-6490400D02*
X8380800Y-6490400D01*
X14509799Y-8588900D02*
X14509799Y-8488900D01*
X21628599Y-13151500D02*
X21619999Y-13097400D01*
X21644900Y-5974400D02*
X21644900Y-5974400D01*
X8320300Y-5990800D02*
X8355900Y-5974400D01*
X21531799Y-13645300D02*
X21531799Y-13645300D01*
X9299800Y-7288900D02*
X9299800Y-7288900D01*
X13109799Y-8178800D02*
X13029800Y-8178800D01*
X21858099Y-6142500D02*
X21879899Y-6175100D01*
X19301000Y-7188900D02*
X19301000Y-7288900D01*
X9299800Y-10998900D02*
X9299800Y-11098900D01*
X21399499Y-6602800D02*
X21399499Y-6602800D01*
X8053400Y-6358100D02*
X8061100Y-6319600D01*
X8071700Y-6281800D02*
X8085300Y-6245000D01*
X14509799Y-10998900D02*
X13109799Y-10998900D01*
X8547300Y-12976500D02*
X8493200Y-12985000D01*
X8047300Y-6436400D02*
X8048800Y-6397100D01*
X18876000Y-9503900D02*
X18876000Y-9503900D01*
X21531799Y-5942500D02*
X21531799Y-5942500D01*
X8355900Y-5974400D02*
X8392700Y-5960800D01*
X21929100Y-13306000D02*
X21915500Y-13342800D01*
X21453599Y-6261400D02*
X21399499Y-6269900D01*
X8444400Y-6294800D02*
X8405700Y-6333500D01*
X11124800Y-9193900D02*
X11124800Y-9503900D01*
X21644900Y-5974400D02*
X21680600Y-5990800D01*
X8601300Y-6269900D02*
X8547300Y-6261400D01*
X10699800Y-8588900D02*
X10699800Y-8488900D01*
X21952099Y-13190700D02*
X21952099Y-13190700D01*
X11204700Y-9193900D02*
X11124800Y-9193900D01*
X8372300Y-13151500D02*
X8380800Y-13205500D01*
X8601300Y-6602800D02*
X8650100Y-6577900D01*
X13109799Y-11098900D02*
X13109799Y-11098900D01*
X18876000Y-9503900D02*
X18876000Y-9193900D01*
X8547300Y-13326500D02*
X8547300Y-13326500D01*
X21939799Y-13268200D02*
X21929100Y-13306000D01*
X8380800Y-6490400D02*
X8405700Y-6539200D01*
X18876000Y-9193900D02*
X18876000Y-9193900D01*
X8167000Y-6111600D02*
X8167000Y-6111600D01*
X15491000Y-7288900D02*
X15491000Y-7288900D01*
X19301000Y-12298900D02*
X19301000Y-12398900D01*
X20700999Y-7288900D02*
X20700999Y-7188900D01*
X9219700Y-7598900D02*
X9299800Y-7598900D01*
X20700999Y-7598900D02*
X20700999Y-7598900D01*
X15491000Y-7288900D02*
X15411000Y-7288900D01*
X21350700Y-13009900D02*
X21311999Y-13048600D01*
X8193700Y-13505000D02*
X8193700Y-13505000D01*
X17396000Y-10393900D02*
X17396000Y-10393900D01*
X8713700Y-6382300D02*
X8713700Y-6382300D01*
X8142700Y-6142500D02*
X8142700Y-6142500D01*
X8547300Y-13651500D02*
X8547300Y-13651500D01*
X21278599Y-6436400D02*
X21278599Y-6436400D01*
X11124800Y-9193900D02*
X11124800Y-9193900D01*
X8405700Y-6539200D02*
X8405700Y-6539200D01*
X8601300Y-6269900D02*
X8601300Y-6269900D01*
X21278599Y-6436400D02*
X21287199Y-6490400D01*
X10699800Y-7288900D02*
X10699800Y-7288900D01*
X14589800Y-11408900D02*
X14589800Y-11098900D01*
X19301000Y-12298900D02*
X19301000Y-12298900D01*
X16891000Y-11408900D02*
X16891000Y-11408900D01*
X14509799Y-10998900D02*
X14509799Y-10998900D01*
X16971000Y-7288900D02*
X16891000Y-7288900D01*
X8405700Y-13048600D02*
X8380800Y-13097400D01*
X13109799Y-12398900D02*
X13109799Y-12398900D01*
X16971000Y-11098900D02*
X16971000Y-11098900D01*
X12684700Y-10393900D02*
X12684700Y-10393900D01*
X16971000Y-11988900D02*
X16971000Y-11988900D01*
X11124800Y-9503900D02*
X11204700Y-9503900D01*
X15491000Y-12398900D02*
X15491000Y-12398900D01*
X20780999Y-11408900D02*
X20780999Y-11408900D01*
X21531799Y-13645300D02*
X21492799Y-13649900D01*
X13109799Y-11408900D02*
X13109799Y-11408900D01*
X21507699Y-12985000D02*
X21507699Y-12985000D01*
X21879899Y-6175100D02*
X21899099Y-6209400D01*
X9219700Y-12298900D02*
X9299800Y-12298900D01*
X8430500Y-13637600D02*
X8392700Y-13627000D01*
X9219700Y-7288900D02*
X9219700Y-7598900D01*
X21833799Y-13476200D02*
X21807200Y-13505000D01*
X21350700Y-13293000D02*
X21399499Y-13317900D01*
X21595199Y-6539200D02*
X21595199Y-6539200D01*
X8193700Y-13505000D02*
X8167000Y-13476200D01*
X13029800Y-7288900D02*
X13029800Y-7598900D01*
X13109799Y-8588900D02*
X13109799Y-8588900D01*
X19301000Y-7598900D02*
X19301000Y-8178800D01*
X11124800Y-9503900D02*
X11124800Y-9503900D01*
X15411000Y-7598900D02*
X15411000Y-7598900D01*
X16891000Y-11098900D02*
X16891000Y-10998900D01*
X8601300Y-13317900D02*
X8650100Y-13293000D01*
X9299800Y-7598900D02*
X9299800Y-8178800D01*
X14509799Y-8588900D02*
X14509799Y-8588900D01*
X8380800Y-6382300D02*
X8372300Y-6436400D01*
X14589800Y-12298900D02*
X14589800Y-11988900D01*
X16971000Y-7598900D02*
X16971000Y-7288900D01*
X8444400Y-13009900D02*
X8444400Y-13009900D01*
X19301000Y-8488900D02*
X19301000Y-8488900D01*
X18796000Y-9093900D02*
X18796000Y-9093900D01*
X8101700Y-6209400D02*
X8101700Y-6209400D01*
X10779600Y-12298900D02*
X10779600Y-12298900D01*
X21570300Y-5950200D02*
X21608099Y-5960800D01*
X21899099Y-6209400D02*
X21899099Y-6209400D01*
X16891000Y-7288900D02*
X16891000Y-7188900D01*
X21453599Y-12976500D02*
X21453599Y-12976500D01*
X18796000Y-10393900D02*
X18796000Y-10393900D01*
X20700999Y-12298900D02*
X20700999Y-12298900D01*
X15491000Y-11408900D02*
X15491000Y-11988900D01*
X21952099Y-6397100D02*
X21952099Y-6397100D01*
X9299800Y-11098900D02*
X9219700Y-11098900D01*
X8355900Y-13613400D02*
X8320300Y-13597000D01*
X21899099Y-13378400D02*
X21899099Y-13378400D01*
X10699800Y-7598900D02*
X10699800Y-7598900D01*
X8722300Y-6436400D02*
X8713700Y-6382300D01*
X15491000Y-8588900D02*
X16891000Y-8588900D01*
X8120900Y-13412700D02*
X8101700Y-13378400D01*
X19301000Y-11988900D02*
X19301000Y-11988900D01*
X9299800Y-8588900D02*
X9299800Y-8588900D01*
X21570300Y-5950200D02*
X21570300Y-5950200D01*
X20700999Y-11988900D02*
X20700999Y-11988900D01*
X19301000Y-8178800D02*
X19301000Y-8178800D01*
X13029800Y-12298900D02*
X13029800Y-12298900D01*
X20700999Y-11988900D02*
X20700999Y-11408900D01*
X10779600Y-8488900D02*
X10779600Y-8178800D01*
X21311999Y-6539200D02*
X21311999Y-6539200D01*
X8286000Y-6010000D02*
X8320300Y-5990800D01*
X15491000Y-8178800D02*
X15411000Y-8178800D01*
X9299800Y-11098900D02*
X9299800Y-11098900D01*
X8508000Y-13649900D02*
X8508000Y-13649900D01*
X13109799Y-11098900D02*
X13029800Y-11098900D01*
X18796000Y-9093900D02*
X17396000Y-9093900D01*
X15411000Y-7288900D02*
X15411000Y-7288900D01*
X8688800Y-6333500D02*
X8688800Y-6333500D01*
X17316000Y-10083900D02*
X17316000Y-10393900D01*
X13029800Y-8488900D02*
X13029800Y-8488900D01*
X21595199Y-13048600D02*
X21556500Y-13009900D01*
X10699800Y-11988900D02*
X10699800Y-11408900D01*
X20780999Y-11988900D02*
X20780999Y-11988900D01*
X8071700Y-13306000D02*
X8061100Y-13268200D01*
X15491000Y-11098900D02*
X15411000Y-11098900D01*
X15411000Y-8488900D02*
X15411000Y-8488900D01*
X13029800Y-11988900D02*
X13029800Y-12298900D01*
X8493200Y-13317900D02*
X8493200Y-13317900D01*
X14509799Y-11988900D02*
X14509799Y-11408900D01*
X17396000Y-9093900D02*
X17396000Y-9193900D01*
X8320300Y-13597000D02*
X8286000Y-13577800D01*
X8320300Y-13597000D02*
X8320300Y-13597000D01*
X8101700Y-13378400D02*
X8085300Y-13342800D01*
X17396000Y-9503900D02*
X17396000Y-10083900D01*
X19221000Y-11098900D02*
X19221000Y-11408900D01*
X9299800Y-11988900D02*
X9219700Y-11988900D01*
X21747500Y-6031800D02*
X21747500Y-6031800D01*
X14589800Y-11098900D02*
X14509799Y-11098900D01*
X13029800Y-8178800D02*
X13029800Y-8178800D01*
X21492799Y-5937900D02*
X21492799Y-5937900D01*
X9299800Y-7598900D02*
X9299800Y-7598900D01*
X15411000Y-12298900D02*
X15411000Y-12298900D01*
X20780999Y-7598900D02*
X20780999Y-7598900D01*
X16891000Y-8488900D02*
X16891000Y-8488900D01*
X15491000Y-11988900D02*
X15411000Y-11988900D01*
X21714799Y-6010000D02*
X21747500Y-6031800D01*
X8392700Y-13627000D02*
X8392700Y-13627000D01*
X8722300Y-13151500D02*
X8722300Y-13151500D01*
X8085300Y-6245000D02*
X8085300Y-6245000D01*
X14509799Y-11098900D02*
X14509799Y-10998900D01*
X14589800Y-8178800D02*
X14509799Y-8178800D01*
X9299800Y-8178800D02*
X9299800Y-8178800D01*
X8713700Y-6490400D02*
X8713700Y-6490400D01*
X16891000Y-12398900D02*
X16891000Y-12298900D01*
X21570300Y-13637600D02*
X21570300Y-13637600D01*
X9219700Y-8488900D02*
X9299800Y-8488900D01*
X21311999Y-13254300D02*
X21350700Y-13293000D01*
X12604700Y-9093900D02*
X12604700Y-9093900D01*
X8222500Y-13531700D02*
X8193700Y-13505000D01*
X15411000Y-11098900D02*
X15411000Y-11098900D01*
X13029800Y-12298900D02*
X13109799Y-12298900D01*
X15491000Y-7598900D02*
X15491000Y-7598900D01*
X15411000Y-7288900D02*
X15411000Y-7598900D01*
X12684700Y-9503900D02*
X12684700Y-9503900D01*
X21399499Y-12985000D02*
X21350700Y-13009900D01*
X19301000Y-11988900D02*
X19221000Y-11988900D01*
X14589800Y-11098900D02*
X14589800Y-11098900D01*
X10699800Y-7288900D02*
X10699800Y-7188900D01*
X19301000Y-10998900D02*
X19301000Y-11098900D01*
X19221000Y-12298900D02*
X19221000Y-12298900D01*
X15491000Y-7188900D02*
X15491000Y-7288900D01*
X15411000Y-8178800D02*
X15411000Y-8488900D01*
X20780999Y-12298900D02*
X20780999Y-12298900D01*
X18796000Y-10083900D02*
X18796000Y-10083900D01*
X11124800Y-10393900D02*
X11124800Y-10393900D01*
X9299800Y-11408900D02*
X9299800Y-11988900D01*
X9299800Y-8488900D02*
X9299800Y-8488900D01*
X16971000Y-11098900D02*
X16891000Y-11098900D01*
X16971000Y-11408900D02*
X16971000Y-11098900D01*
X19221000Y-11988900D02*
X19221000Y-12298900D01*
X19301000Y-12398900D02*
X20700999Y-12398900D01*
X10699800Y-11098900D02*
X10699800Y-11098900D01*
X8320300Y-5990800D02*
X8320300Y-5990800D01*
X8688800Y-6333500D02*
X8650100Y-6294800D01*
X14589800Y-7288900D02*
X14589800Y-7288900D01*
X13109799Y-12298900D02*
X13109799Y-12398900D01*
X21947400Y-13229700D02*
X21947400Y-13229700D01*
X20700999Y-12298900D02*
X20780999Y-12298900D01*
X17316000Y-10393900D02*
X17396000Y-10393900D01*
X11204700Y-10493900D02*
X11204700Y-10493900D01*
X21680600Y-13597000D02*
X21680600Y-13597000D01*
X15491000Y-11408900D02*
X15491000Y-11408900D01*
X16891000Y-7188900D02*
X15491000Y-7188900D01*
X11124800Y-10083900D02*
X11124800Y-10083900D01*
X11204700Y-10083900D02*
X11204700Y-10083900D01*
X21939799Y-6319600D02*
X21939799Y-6319600D01*
X8469000Y-5942500D02*
X8469000Y-5942500D01*
X16891000Y-7598900D02*
X16891000Y-7598900D01*
X21453599Y-13651500D02*
X8547300Y-13651500D01*
X15491000Y-7598900D02*
X15491000Y-8178800D01*
X8493200Y-6602800D02*
X8547300Y-6611400D01*
X8650100Y-6294800D02*
X8601300Y-6269900D01*
X8053400Y-13229700D02*
X8053400Y-13229700D01*
X8193700Y-6082800D02*
X8193700Y-6082800D01*
X20700999Y-11098900D02*
X20700999Y-11098900D01*
X13029800Y-11098900D02*
X13029800Y-11408900D01*
X8061100Y-13268200D02*
X8061100Y-13268200D01*
X12684700Y-10083900D02*
X12684700Y-10083900D01*
X21858099Y-13445300D02*
X21833799Y-13476200D01*
X10779600Y-11988900D02*
X10779600Y-11988900D01*
X16891000Y-12298900D02*
X16971000Y-12298900D01*
X11124800Y-10083900D02*
X11124800Y-10393900D01*
X8547300Y-6611400D02*
X8547300Y-6611400D01*
X8048800Y-13190700D02*
X8048800Y-13190700D01*
X8167000Y-13476200D02*
X8142700Y-13445300D01*
X20780999Y-7288900D02*
X20780999Y-7288900D01*
X21807200Y-13505000D02*
X21778300Y-13531700D01*
X21619999Y-6382300D02*
X21619999Y-6382300D01*
X15491000Y-11988900D02*
X15491000Y-11988900D01*
X8601300Y-13317900D02*
X8601300Y-13317900D01*
X8430500Y-5950200D02*
X8430500Y-5950200D01*
X8253400Y-13556000D02*
X8253400Y-13556000D01*
X19301000Y-11098900D02*
X19301000Y-11098900D01*
X16891000Y-7188900D02*
X16891000Y-7188900D01*
X19301000Y-7288900D02*
X19301000Y-7288900D01*
X8444400Y-13293000D02*
X8444400Y-13293000D01*
X17316000Y-9503900D02*
X17316000Y-9503900D01*
X12684700Y-9193900D02*
X12684700Y-9193900D01*
X14509799Y-8178800D02*
X14509799Y-7598900D01*
X16891000Y-11098900D02*
X16891000Y-11098900D01*
X12684700Y-10393900D02*
X12684700Y-10083900D01*
X8071700Y-13306000D02*
X8071700Y-13306000D01*
X8713700Y-6382300D02*
X8688800Y-6333500D01*
X20700999Y-8588900D02*
X20700999Y-8488900D01*
X21556500Y-6577900D02*
X21595199Y-6539200D01*
X21939799Y-13268200D02*
X21939799Y-13268200D01*
X13109799Y-11408900D02*
X13109799Y-11988900D01*
X8222500Y-13531700D02*
X8222500Y-13531700D01*
X19301000Y-11098900D02*
X19221000Y-11098900D01*
X21778300Y-13531700D02*
X21778300Y-13531700D01*
X19221000Y-11408900D02*
X19221000Y-11408900D01*
X9219700Y-7288900D02*
X9219700Y-7288900D01*
X21453599Y-6611400D02*
X21453599Y-6611400D01*
X14509799Y-12298900D02*
X14589800Y-12298900D01*
X14509799Y-11408900D02*
X14589800Y-11408900D01*
X21778300Y-13531700D02*
X21747500Y-13556000D01*
X8547300Y-12976500D02*
X8547300Y-12976500D01*
X14509799Y-7288900D02*
X14509799Y-7188900D01*
X21287199Y-13097400D02*
X21278599Y-13151500D01*
X20700999Y-8488900D02*
X20780999Y-8488900D01*
X14589800Y-7288900D02*
X14509799Y-7288900D01*
X21453599Y-6261400D02*
X21453599Y-6261400D01*
X8286000Y-13577800D02*
X8253400Y-13556000D01*
X8688800Y-13254300D02*
X8713700Y-13205500D01*
X14589800Y-11988900D02*
X14509799Y-11988900D01*
X21915500Y-13342800D02*
X21899099Y-13378400D01*
X16891000Y-11988900D02*
X16891000Y-11408900D01*
X18796000Y-10493900D02*
X18796000Y-10393900D01*
X21915500Y-13342800D02*
X21915500Y-13342800D01*
X21929100Y-6281800D02*
X21929100Y-6281800D01*
X18796000Y-9193900D02*
X18796000Y-9093900D01*
X8372300Y-6436400D02*
X8372300Y-6436400D01*
X20700999Y-7288900D02*
X20700999Y-7288900D01*
X13029800Y-8488900D02*
X13109799Y-8488900D01*
X20780999Y-7288900D02*
X20700999Y-7288900D01*
X19301000Y-11408900D02*
X19301000Y-11988900D01*
X21556500Y-13293000D02*
X21595199Y-13254300D01*
X18876000Y-10393900D02*
X18876000Y-10393900D01*
X21350700Y-6577900D02*
X21350700Y-6577900D01*
X10779600Y-11988900D02*
X10699800Y-11988900D01*
X9219700Y-11408900D02*
X9299800Y-11408900D01*
X15491000Y-8488900D02*
X15491000Y-8588900D01*
X21939799Y-6319600D02*
X21947400Y-6358100D01*
X20780999Y-7598900D02*
X20780999Y-7288900D01*
X8142700Y-13445300D02*
X8142700Y-13445300D01*
X20700999Y-7598900D02*
X20780999Y-7598900D01*
X11204700Y-10393900D02*
X11204700Y-10393900D01*
X14589800Y-8178800D02*
X14589800Y-8178800D01*
X14509799Y-8488900D02*
X14509799Y-8488900D01*
X19221000Y-8178800D02*
X19221000Y-8178800D01*
X11204700Y-10393900D02*
X11204700Y-10493900D01*
X18796000Y-9503900D02*
X18876000Y-9503900D01*
X18796000Y-10083900D02*
X18796000Y-9503900D01*
X8688800Y-13048600D02*
X8650100Y-13009900D01*
X8547300Y-5936300D02*
X8547300Y-5936300D01*
X21953599Y-6436400D02*
X21953599Y-13151500D01*
X8193700Y-6082800D02*
X8222500Y-6056100D01*
X13109799Y-7598900D02*
X13109799Y-8178800D01*
X9299800Y-7188900D02*
X9299800Y-7288900D01*
X19221000Y-7598900D02*
X19221000Y-7598900D01*
X9299800Y-12398900D02*
X9299800Y-12398900D01*
X8650100Y-13293000D02*
X8650100Y-13293000D01*
X20700999Y-10998900D02*
X19301000Y-10998900D01*
X21628599Y-6436400D02*
X21619999Y-6382300D01*
X10779600Y-8178800D02*
X10699800Y-8178800D01*
X9219700Y-7598900D02*
X9219700Y-7598900D01*
X14589800Y-12298900D02*
X14589800Y-12298900D01*
X20780999Y-8488900D02*
X20780999Y-8178800D01*
X9219700Y-11098900D02*
X9219700Y-11098900D01*
X21507699Y-6269900D02*
X21507699Y-6269900D01*
X12684700Y-10083900D02*
X12604700Y-10083900D01*
X21680600Y-5990800D02*
X21680600Y-5990800D01*
X20700999Y-8588900D02*
X20700999Y-8588900D01*
X8601300Y-12985000D02*
X8601300Y-12985000D01*
X21680600Y-5990800D02*
X21714799Y-6010000D01*
X19221000Y-11098900D02*
X19221000Y-11098900D01*
X8688800Y-6539200D02*
X8713700Y-6490400D01*
X8493200Y-6602800D02*
X8493200Y-6602800D01*
X9299800Y-11988900D02*
X9299800Y-11988900D01*
X9219700Y-11408900D02*
X9219700Y-11408900D01*
X21311999Y-13048600D02*
X21311999Y-13048600D01*
X16891000Y-12298900D02*
X16891000Y-12298900D01*
X20780999Y-12298900D02*
X20780999Y-11988900D01*
X13109799Y-7188900D02*
X13109799Y-7288900D01*
X20700999Y-11408900D02*
X20780999Y-11408900D01*
X21453599Y-6611400D02*
X21507699Y-6602800D01*
X21278599Y-13151500D02*
X21278599Y-13151500D01*
X21556500Y-6577900D02*
X21556500Y-6577900D01*
X10699800Y-10998900D02*
X10699800Y-10998900D01*
X21714799Y-13577800D02*
X21714799Y-13577800D01*
X13109799Y-11988900D02*
X13029800Y-11988900D01*
X14589800Y-11988900D02*
X14589800Y-11988900D01*
X15411000Y-8488900D02*
X15491000Y-8488900D01*
X21311999Y-6333500D02*
X21311999Y-6333500D01*
X20780999Y-11408900D02*
X20780999Y-11098900D01*
X15491000Y-12298900D02*
X15491000Y-12298900D01*
X8650100Y-6577900D02*
X8688800Y-6539200D01*
X8650100Y-6577900D02*
X8650100Y-6577900D01*
X18796000Y-10493900D02*
X18796000Y-10493900D01*
X19221000Y-11988900D02*
X19221000Y-11988900D01*
X14509799Y-12398900D02*
X14509799Y-12398900D01*
X16971000Y-8488900D02*
X16971000Y-8488900D01*
X21507699Y-12985000D02*
X21453599Y-12976500D01*
X21714799Y-13577800D02*
X21680600Y-13597000D01*
X8085300Y-13342800D02*
X8071700Y-13306000D01*
X8120900Y-6175100D02*
X8120900Y-6175100D01*
X13029800Y-11098900D02*
X13029800Y-11098900D01*
X20700999Y-12398900D02*
X20700999Y-12298900D01*
X21947400Y-6358100D02*
X21947400Y-6358100D01*
X8444400Y-13009900D02*
X8405700Y-13048600D01*
X10699800Y-12298900D02*
X10699800Y-12298900D01*
X8547300Y-13326500D02*
X8601300Y-13317900D01*
X13029800Y-11988900D02*
X13029800Y-11988900D01*
X15411000Y-11408900D02*
X15411000Y-11408900D01*
X12604700Y-9093900D02*
X11204700Y-9093900D01*
X16891000Y-10998900D02*
X16891000Y-10998900D01*
X19221000Y-7288900D02*
X19221000Y-7598900D01*
X15491000Y-10998900D02*
X15491000Y-11098900D01*
X10779600Y-7598900D02*
X10779600Y-7288900D01*
X8722300Y-13151500D02*
X8713700Y-13097400D01*
X15411000Y-11988900D02*
X15411000Y-12298900D01*
X20780999Y-11988900D02*
X20700999Y-11988900D01*
X21492799Y-5937900D02*
X21531799Y-5942500D01*
X21608099Y-5960800D02*
X21644900Y-5974400D01*
X20700999Y-8178800D02*
X20700999Y-7598900D01*
X9219700Y-11988900D02*
X9219700Y-12298900D01*
X16971000Y-8178800D02*
X16891000Y-8178800D01*
X21492799Y-13649900D02*
X21453599Y-13651500D01*
X17396000Y-10083900D02*
X17316000Y-10083900D01*
X16891000Y-11408900D02*
X16971000Y-11408900D01*
X21628599Y-6436400D02*
X21628599Y-6436400D01*
X16971000Y-11988900D02*
X16891000Y-11988900D01*
X20700999Y-8488900D02*
X20700999Y-8488900D01*
X21947400Y-13229700D02*
X21939799Y-13268200D01*
X8253400Y-13556000D02*
X8222500Y-13531700D01*
X10699800Y-7188900D02*
X10699800Y-7188900D01*
X21350700Y-6577900D02*
X21399499Y-6602800D01*
X21899099Y-13378400D02*
X21879899Y-13412700D01*
X8380800Y-13205500D02*
X8380800Y-13205500D01*
X13109799Y-8488900D02*
X13109799Y-8588900D01*
X12604700Y-10493900D02*
X12604700Y-10493900D01*
X21879899Y-13412700D02*
X21879899Y-13412700D01*
X8650100Y-13293000D02*
X8688800Y-13254300D01*
X13109799Y-11988900D02*
X13109799Y-11988900D01*
X21570300Y-13637600D02*
X21531799Y-13645300D01*
X17396000Y-10393900D02*
X17396000Y-10493900D01*
X10779600Y-11098900D02*
X10779600Y-11098900D01*
X10699800Y-12398900D02*
X10699800Y-12398900D01*
X8688800Y-6539200D02*
X8688800Y-6539200D01*
X12604700Y-10083900D02*
X12604700Y-10083900D01*
X21644900Y-13613400D02*
X21644900Y-13613400D01*
X11204700Y-9503900D02*
X11204700Y-10083900D01*
X8405700Y-13254300D02*
X8405700Y-13254300D01*
X17316000Y-9503900D02*
X17396000Y-9503900D01*
X14509799Y-7288900D02*
X14509799Y-7288900D01*
X14509799Y-7598900D02*
X14509799Y-7598900D01*
X13029800Y-8178800D02*
X13029800Y-8488900D01*
X8650100Y-6294800D02*
X8650100Y-6294800D01*
X8405700Y-13048600D02*
X8405700Y-13048600D01*
X16971000Y-7598900D02*
X16971000Y-7598900D01*
X9299800Y-12298900D02*
X9299800Y-12298900D01*
X8722300Y-6436400D02*
X8722300Y-6436400D01*
X21807200Y-13505000D02*
X21807200Y-13505000D01*
X14589800Y-7598900D02*
X14589800Y-7288900D01*
X14509799Y-11098900D02*
X14509799Y-11098900D01*
X21953599Y-13151500D02*
X21952099Y-13190700D01*
X8047200Y-13151400D02*
X8047300Y-6436400D01*
X17396000Y-10083900D02*
X17396000Y-10083900D01*
X21556500Y-13009900D02*
X21507699Y-12985000D01*
X21619999Y-6490400D02*
X21619999Y-6490400D01*
X10779600Y-11098900D02*
X10699800Y-11098900D01*
X8101700Y-13378400D02*
X8101700Y-13378400D01*
X8053400Y-13229700D02*
X8048800Y-13190700D01*
X17396000Y-9193900D02*
X17396000Y-9193900D01*
X21311999Y-6333500D02*
X21287199Y-6382300D01*
X8547300Y-6261400D02*
X8493200Y-6269900D01*
X8286000Y-13577800D02*
X8286000Y-13577800D01*
X13109799Y-7288900D02*
X13029800Y-7288900D01*
X21952099Y-13190700D02*
X21947400Y-13229700D01*
X8508000Y-5937900D02*
X8508000Y-5937900D01*
X21952099Y-6397100D02*
X21953599Y-6436400D01*
X9219700Y-8178800D02*
X9219700Y-8488900D01*
X14509799Y-7188900D02*
X13109799Y-7188900D01*
X8444400Y-6577900D02*
X8444400Y-6577900D01*
X20700999Y-8178800D02*
X20700999Y-8178800D01*
X19221000Y-7598900D02*
X19301000Y-7598900D01*
X19301000Y-8178800D02*
X19221000Y-8178800D01*
X21807200Y-6082800D02*
X21807200Y-6082800D01*
X19301000Y-8488900D02*
X19301000Y-8588900D01*
X14589800Y-11408900D02*
X14589800Y-11408900D01*
X9219700Y-8488900D02*
X9219700Y-8488900D01*
X20780999Y-11098900D02*
X20780999Y-11098900D01*
X8405700Y-6539200D02*
X8444400Y-6577900D01*
X8061100Y-6319600D02*
X8071700Y-6281800D01*
X9299800Y-8588900D02*
X10699800Y-8588900D01*
X13109799Y-12398900D02*
X14509799Y-12398900D01*
X13029800Y-7598900D02*
X13109799Y-7598900D01*
X21399499Y-6602800D02*
X21453599Y-6611400D01*
X21947400Y-6358100D02*
X21952099Y-6397100D01*
X14509799Y-12298900D02*
X14509799Y-12298900D01*
X8047300Y-6436400D02*
X8047300Y-6436400D01*
X21619999Y-13205500D02*
X21619999Y-13205500D01*
X21399499Y-6269900D02*
X21350700Y-6294800D01*
X16971000Y-8488900D02*
X16971000Y-8178800D01*
X13029800Y-11408900D02*
X13109799Y-11408900D01*
X13109799Y-7598900D02*
X13109799Y-7598900D01*
X21287199Y-6490400D02*
X21287199Y-6490400D01*
X8372300Y-6436400D02*
X8380800Y-6490400D01*
X21453599Y-13326500D02*
X21453599Y-13326500D01*
X8444400Y-13293000D02*
X8493200Y-13317900D01*
X21608099Y-13627000D02*
X21570300Y-13637600D01*
X11204700Y-9093900D02*
X11204700Y-9193900D01*
X21747500Y-6031800D02*
X21778300Y-6056100D01*
X8392700Y-5960800D02*
X8392700Y-5960800D01*
X20780999Y-8178800D02*
X20780999Y-8178800D01*
X16891000Y-10998900D02*
X15491000Y-10998900D01*
X8372300Y-13151500D02*
X8372300Y-13151500D01*
X21531799Y-5942500D02*
X21570300Y-5950200D01*
X21399499Y-13317900D02*
X21399499Y-13317900D01*
X10699800Y-7598900D02*
X10779600Y-7598900D01*
X15411000Y-11408900D02*
X15491000Y-11408900D01*
X9219700Y-11098900D02*
X9219700Y-11408900D01*
X20700999Y-7188900D02*
X19301000Y-7188900D01*
X21556500Y-6294800D02*
X21507699Y-6269900D01*
X13029800Y-11408900D02*
X13029800Y-11408900D01*
X8253400Y-6031800D02*
X8253400Y-6031800D01*
X21399499Y-13317900D02*
X21453599Y-13326500D01*
X20780999Y-11098900D02*
X20700999Y-11098900D01*
X8380800Y-13205500D02*
X8405700Y-13254300D01*
X16971000Y-12298900D02*
X16971000Y-11988900D01*
X8355900Y-13613400D02*
X8355900Y-13613400D01*
X19221000Y-8488900D02*
X19301000Y-8488900D01*
X19301000Y-8588900D02*
X20700999Y-8588900D01*
X21778300Y-6056100D02*
X21778300Y-6056100D01*
X8061100Y-6319600D02*
X8061100Y-6319600D01*
X21311999Y-13048600D02*
X21287199Y-13097400D01*
X13109799Y-8488900D02*
X13109799Y-8488900D01*
X13109799Y-10998900D02*
X13109799Y-11098900D01*
X21747500Y-13556000D02*
X21714799Y-13577800D01*
X11204700Y-9193900D02*
X11204700Y-9193900D01*
X16971000Y-7288900D02*
X16971000Y-7288900D01*
X8713700Y-13205500D02*
X8713700Y-13205500D01*
X9299800Y-7288900D02*
X9219700Y-7288900D01*
X15411000Y-8178800D02*
X15411000Y-8178800D01*
X21953599Y-6436400D02*
X21953599Y-6436400D01*
X19221000Y-8488900D02*
X19221000Y-8488900D01*
X21453599Y-5936400D02*
X21492799Y-5937900D01*
X8430500Y-5950200D02*
X8469000Y-5942500D01*
X13109799Y-7288900D02*
X13109799Y-7288900D01*
X8071700Y-6281800D02*
X8071700Y-6281800D01*
X19221000Y-7288900D02*
X19221000Y-7288900D01*
X8392700Y-13627000D02*
X8355900Y-13613400D01*
X8713700Y-6490400D02*
X8722300Y-6436400D01*
X15411000Y-11988900D02*
X15411000Y-11988900D01*
X20780999Y-8488900D02*
X20780999Y-8488900D01*
X8392700Y-5960800D02*
X8430500Y-5950200D01*
X8222500Y-6056100D02*
X8222500Y-6056100D01*
X8493200Y-13317900D02*
X8547300Y-13326500D01*
X12684700Y-9503900D02*
X12684700Y-9193900D01*
X17316000Y-10393900D02*
X17316000Y-10393900D01*
X19221000Y-12298900D02*
X19301000Y-12298900D01*
X21350700Y-6294800D02*
X21311999Y-6333500D01*
X8688800Y-13254300D02*
X8688800Y-13254300D01*
X8601300Y-12985000D02*
X8547300Y-12976500D01*
X20700999Y-7188900D02*
X20700999Y-7188900D01*
X8601300Y-6602800D02*
X8601300Y-6602800D01*
X15411000Y-7598900D02*
X15491000Y-7598900D01*
X20700999Y-11098900D02*
X20700999Y-10998900D01*
X12604700Y-9503900D02*
X12604700Y-9503900D01*
X16891000Y-11988900D02*
X16891000Y-11988900D01*
X21556500Y-13009900D02*
X21556500Y-13009900D01*
X8167000Y-13476200D02*
X8167000Y-13476200D01*
X10779600Y-7288900D02*
X10699800Y-7288900D01*
X19301000Y-12398900D02*
X19301000Y-12398900D01*
X14509799Y-11408900D02*
X14509799Y-11408900D01*
X9299800Y-8178800D02*
X9219700Y-8178800D01*
X21858099Y-6142500D02*
X21858099Y-6142500D01*
X18876000Y-10083900D02*
X18876000Y-10083900D01*
X21507699Y-13317900D02*
X21507699Y-13317900D01*
X13109799Y-8178800D02*
X13109799Y-8178800D01*
X8120900Y-6175100D02*
X8142700Y-6142500D01*
X8430500Y-13637600D02*
X8430500Y-13637600D01*
X21619999Y-13205500D02*
X21628599Y-13151500D01*
X9299800Y-8488900D02*
X9299800Y-8588900D01*
X8286000Y-6010000D02*
X8286000Y-6010000D01*
X10779600Y-11408900D02*
X10779600Y-11408900D01*
X21714799Y-6010000D02*
X21714799Y-6010000D01*
X17316000Y-9193900D02*
X17316000Y-9503900D01*
X18796000Y-9503900D02*
X18796000Y-9503900D01*
X21453599Y-13651500D02*
X21453599Y-13651500D01*
X19221000Y-8178800D02*
X19221000Y-8488900D01*
X21619999Y-13097400D02*
X21619999Y-13097400D01*
X21628599Y-13151500D02*
X21628599Y-13151500D01*
X14509799Y-8178800D02*
X14509799Y-8178800D01*
X21858099Y-13445300D02*
X21858099Y-13445300D01*
X8380800Y-13097400D02*
X8372300Y-13151500D01*
X10699800Y-8488900D02*
X10779600Y-8488900D01*
X16891000Y-8178800D02*
X16891000Y-7598900D01*
X21311999Y-13254300D02*
X21311999Y-13254300D01*
X19301000Y-7598900D02*
X19301000Y-7598900D01*
X9299800Y-12298900D02*
X9299800Y-12398900D01*
X14589800Y-7598900D02*
X14589800Y-7598900D01*
X10699800Y-7188900D02*
X9299800Y-7188900D01*
X10779600Y-7598900D02*
X10779600Y-7598900D01*
X10779600Y-8488900D02*
X10779600Y-8488900D01*
X17316000Y-9193900D02*
X17316000Y-9193900D01*
X21556500Y-13293000D02*
X21556500Y-13293000D01*
X9219700Y-12298900D02*
X9219700Y-12298900D01*
X8650100Y-13009900D02*
X8601300Y-12985000D01*
X21608099Y-5960800D02*
X21608099Y-5960800D01*
X8167000Y-6111600D02*
X8193700Y-6082800D01*
X10699800Y-11098900D02*
X10699800Y-10998900D01*
X12604700Y-9193900D02*
X12604700Y-9193900D01*
X12604700Y-10393900D02*
X12684700Y-10393900D01*
X12604700Y-9503900D02*
X12684700Y-9503900D01*
X10699800Y-8488900D02*
X10699800Y-8488900D01*
X21680600Y-13597000D02*
X21644900Y-13613400D01*
X21453599Y-13326500D02*
X21507699Y-13317900D01*
X16891000Y-8588900D02*
X16891000Y-8488900D01*
X8713700Y-13097400D02*
X8713700Y-13097400D01*
X15411000Y-12298900D02*
X15491000Y-12298900D01*
X21595199Y-13254300D02*
X21595199Y-13254300D01*
X8547300Y-13651500D02*
X8508000Y-13649900D01*
X10779600Y-8178800D02*
X10779600Y-8178800D01*
X21619999Y-6382300D02*
X21595199Y-6333500D01*
X16891000Y-7598900D02*
X16971000Y-7598900D01*
X21644900Y-13613400D02*
X21608099Y-13627000D01*
X21879899Y-13412700D02*
X21858099Y-13445300D01*
X8444400Y-6294800D02*
X8444400Y-6294800D01*
X21915500Y-6245000D02*
X21929100Y-6281800D01*
X14509799Y-11988900D02*
X14509799Y-11988900D01*
X10699800Y-12398900D02*
X10699800Y-12298900D01*
X16891000Y-8488900D02*
X16971000Y-8488900D01*
X21311999Y-6539200D02*
X21350700Y-6577900D01*
X18796000Y-10393900D02*
X18876000Y-10393900D01*
X21929100Y-13306000D02*
X21929100Y-13306000D01*
X17316000Y-10083900D02*
X17316000Y-10083900D01*
X10699800Y-11408900D02*
X10699800Y-11408900D01*
X21453599Y-12976500D02*
X21399499Y-12985000D01*
X21608099Y-13627000D02*
X21608099Y-13627000D01*
X13029800Y-7598900D02*
X13029800Y-7598900D01*
X20700999Y-12398900D02*
X20700999Y-12398900D01*
X16971000Y-11408900D02*
X16971000Y-11408900D01*
X8061100Y-13268200D02*
X8053400Y-13229700D01*
X8713700Y-13205500D02*
X8722300Y-13151500D01*
X21807200Y-6082800D02*
X21833799Y-6111600D01*
X9219700Y-8178800D02*
X9219700Y-8178800D01*
X21595199Y-6333500D02*
X21595199Y-6333500D01*
X21595199Y-13048600D02*
X21595199Y-13048600D01*
X8713700Y-13097400D02*
X8688800Y-13048600D01*
X8493200Y-6269900D02*
X8444400Y-6294800D01*
X12604700Y-10393900D02*
X12604700Y-10393900D01*
X21507699Y-6602800D02*
X21556500Y-6577900D01*
X12604700Y-9193900D02*
X12604700Y-9093900D01*
X16891000Y-8588900D02*
X16891000Y-8588900D01*
X8253400Y-6031800D02*
X8286000Y-6010000D01*
X16971000Y-12298900D02*
X16971000Y-12298900D01*
X19301000Y-11408900D02*
X19301000Y-11408900D01*
X8493200Y-12985000D02*
X8444400Y-13009900D01*
X11204700Y-10493900D02*
X12604700Y-10493900D01*
X8688800Y-13048600D02*
X8688800Y-13048600D01*
X8650100Y-13009900D02*
X8650100Y-13009900D01*
X21619999Y-13097400D02*
X21595199Y-13048600D01*
X21278599Y-13151500D02*
X21287199Y-13205500D01*
X14589800Y-8488900D02*
X14589800Y-8178800D01*
X21507699Y-6602800D02*
X21507699Y-6602800D01*
X8444400Y-6577900D02*
X8493200Y-6602800D01*
X10699800Y-8178800D02*
X10699800Y-8178800D01*
X19301000Y-8588900D02*
X19301000Y-8588900D01*
X21287199Y-13205500D02*
X21311999Y-13254300D01*
D11*
D12*
X13818000Y-9481000D02*
X13858000Y-9521000D01*
X13858000Y-9481000D02*
X13818000Y-9521000D01*
D13*
X21664900Y-10141800D02*
G75*
G03*
X21664900Y-10141800I-49500J0D01*
G01*
X21664900Y-10591800D02*
G75*
G03*
X21664900Y-10591800I-49500J0D01*
G01*
X21668250Y-9073900D02*
G75*
G03*
X21668250Y-9073900I-49500J0D01*
G01*
X21668250Y-9523900D02*
G75*
G03*
X21668250Y-9523900I-49500J0D01*
G01*
D14*
X17865000Y-12411000D02*
X17865000Y-12511000D01*
X17815000Y-12461000D02*
X17915000Y-12461000D01*
X18119000Y-12411000D02*
X18119000Y-12511000D01*
X18069000Y-12461000D02*
X18169000Y-12461000D01*
X18373000Y-12411000D02*
X18373000Y-12511000D01*
X18323000Y-12461000D02*
X18423000Y-12461000D01*
D15*
X21412362Y-10061762D02*
X21412362Y-9969838D01*
X21320438Y-9969838D01*
X21320438Y-10061762D01*
X21412362Y-10061762D01*
X21412362Y-10762762D02*
X21412362Y-10670838D01*
X21320438Y-10670838D01*
X21320438Y-10762762D01*
X21412362Y-10762762D01*
X21415712Y-8993862D02*
X21415712Y-8901938D01*
X21323788Y-8901938D01*
X21323788Y-8993862D01*
X21415712Y-8993862D01*
X21415712Y-9694862D02*
X21415712Y-9602938D01*
X21323788Y-9602938D01*
X21323788Y-9694862D01*
X21415712Y-9694862D01*
D11*
X8295370Y-13971425D02*
X8295370Y-13771425D01*
X8342989Y-13771425D01*
X8371560Y-13780949D01*
X8390608Y-13799996D01*
X8400132Y-13819044D01*
X8409656Y-13857139D01*
X8409656Y-13885711D01*
X8400132Y-13923806D01*
X8390608Y-13942854D01*
X8371560Y-13961901D01*
X8342989Y-13971425D01*
X8295370Y-13971425D01*
X8495370Y-13971425D02*
X8495370Y-13838092D01*
X8495370Y-13876187D02*
X8504894Y-13857139D01*
X8514417Y-13847615D01*
X8533465Y-13838092D01*
X8552513Y-13838092D01*
X8619179Y-13971425D02*
X8619179Y-13838092D01*
X8619179Y-13771425D02*
X8609656Y-13780949D01*
X8619179Y-13790473D01*
X8628703Y-13780949D01*
X8619179Y-13771425D01*
X8619179Y-13790473D01*
X8742989Y-13971425D02*
X8723941Y-13961901D01*
X8714417Y-13942854D01*
X8714417Y-13771425D01*
X8847751Y-13971425D02*
X8828703Y-13961901D01*
X8819179Y-13942854D01*
X8819179Y-13771425D01*
X9076322Y-13971425D02*
X9076322Y-13771425D01*
X9142989Y-13914282D01*
X9209656Y-13771425D01*
X9209656Y-13971425D01*
X9390608Y-13971425D02*
X9390608Y-13866663D01*
X9381084Y-13847615D01*
X9362037Y-13838092D01*
X9323941Y-13838092D01*
X9304894Y-13847615D01*
X9390608Y-13961901D02*
X9371560Y-13971425D01*
X9323941Y-13971425D01*
X9304894Y-13961901D01*
X9295370Y-13942854D01*
X9295370Y-13923806D01*
X9304894Y-13904758D01*
X9323941Y-13895235D01*
X9371560Y-13895235D01*
X9390608Y-13885711D01*
X9485846Y-13838092D02*
X9485846Y-14038092D01*
X9485846Y-13847615D02*
X9504894Y-13838092D01*
X9542989Y-13838092D01*
X9562037Y-13847615D01*
X9571560Y-13857139D01*
X9581084Y-13876187D01*
X9581084Y-13933330D01*
X9571560Y-13952377D01*
X9562037Y-13961901D01*
X9542989Y-13971425D01*
X9504894Y-13971425D01*
X9485846Y-13961901D01*
X9666798Y-13952377D02*
X9676322Y-13961901D01*
X9666798Y-13971425D01*
X9657275Y-13961901D01*
X9666798Y-13952377D01*
X9666798Y-13971425D01*
X9666798Y-13847615D02*
X9676322Y-13857139D01*
X9666798Y-13866663D01*
X9657275Y-13857139D01*
X9666798Y-13847615D01*
X9666798Y-13866663D01*
D12*
X7997751Y-14280949D02*
X8037751Y-14320949D01*
X8037751Y-14280949D02*
X7997751Y-14320949D01*
D11*
X8333465Y-14191425D02*
X8352513Y-14191425D01*
X8371560Y-14200949D01*
X8381084Y-14210473D01*
X8390608Y-14229520D01*
X8400132Y-14267615D01*
X8400132Y-14315235D01*
X8390608Y-14353330D01*
X8381084Y-14372377D01*
X8371560Y-14381901D01*
X8352513Y-14391425D01*
X8333465Y-14391425D01*
X8314417Y-14381901D01*
X8304894Y-14372377D01*
X8295370Y-14353330D01*
X8285846Y-14315235D01*
X8285846Y-14267615D01*
X8295370Y-14229520D01*
X8304894Y-14210473D01*
X8314417Y-14200949D01*
X8333465Y-14191425D01*
X8485846Y-14372377D02*
X8495370Y-14381901D01*
X8485846Y-14391425D01*
X8476322Y-14381901D01*
X8485846Y-14372377D01*
X8485846Y-14391425D01*
X8666798Y-14258092D02*
X8666798Y-14391425D01*
X8619179Y-14181901D02*
X8571560Y-14324758D01*
X8695370Y-14324758D01*
X8809656Y-14191425D02*
X8828703Y-14191425D01*
X8847751Y-14200949D01*
X8857275Y-14210473D01*
X8866798Y-14229520D01*
X8876322Y-14267615D01*
X8876322Y-14315235D01*
X8866798Y-14353330D01*
X8857275Y-14372377D01*
X8847751Y-14381901D01*
X8828703Y-14391425D01*
X8809656Y-14391425D01*
X8790608Y-14381901D01*
X8781084Y-14372377D01*
X8771560Y-14353330D01*
X8762037Y-14315235D01*
X8762037Y-14267615D01*
X8771560Y-14229520D01*
X8781084Y-14210473D01*
X8790608Y-14200949D01*
X8809656Y-14191425D01*
X9000132Y-14191425D02*
X9019179Y-14191425D01*
X9038227Y-14200949D01*
X9047751Y-14210473D01*
X9057275Y-14229520D01*
X9066798Y-14267615D01*
X9066798Y-14315235D01*
X9057275Y-14353330D01*
X9047751Y-14372377D01*
X9038227Y-14381901D01*
X9019179Y-14391425D01*
X9000132Y-14391425D01*
X8981084Y-14381901D01*
X8971560Y-14372377D01*
X8962037Y-14353330D01*
X8952513Y-14315235D01*
X8952513Y-14267615D01*
X8962037Y-14229520D01*
X8971560Y-14210473D01*
X8981084Y-14200949D01*
X9000132Y-14191425D01*
X9152513Y-14391425D02*
X9152513Y-14258092D01*
X9152513Y-14277139D02*
X9162037Y-14267615D01*
X9181084Y-14258092D01*
X9209656Y-14258092D01*
X9228703Y-14267615D01*
X9238227Y-14286663D01*
X9238227Y-14391425D01*
X9238227Y-14286663D02*
X9247751Y-14267615D01*
X9266798Y-14258092D01*
X9295370Y-14258092D01*
X9314417Y-14267615D01*
X9323941Y-14286663D01*
X9323941Y-14391425D01*
X9419179Y-14391425D02*
X9419179Y-14258092D01*
X9419179Y-14277139D02*
X9428703Y-14267615D01*
X9447751Y-14258092D01*
X9476322Y-14258092D01*
X9495370Y-14267615D01*
X9504894Y-14286663D01*
X9504894Y-14391425D01*
X9504894Y-14286663D02*
X9514417Y-14267615D01*
X9533465Y-14258092D01*
X9562037Y-14258092D01*
X9581084Y-14267615D01*
X9590608Y-14286663D01*
X9590608Y-14391425D01*
X9981084Y-14181901D02*
X9809656Y-14439044D01*
X10238227Y-14191425D02*
X10257275Y-14191425D01*
X10276322Y-14200949D01*
X10285846Y-14210473D01*
X10295370Y-14229520D01*
X10304894Y-14267615D01*
X10304894Y-14315235D01*
X10295370Y-14353330D01*
X10285846Y-14372377D01*
X10276322Y-14381901D01*
X10257275Y-14391425D01*
X10238227Y-14391425D01*
X10219179Y-14381901D01*
X10209656Y-14372377D01*
X10200132Y-14353330D01*
X10190608Y-14315235D01*
X10190608Y-14267615D01*
X10200132Y-14229520D01*
X10209656Y-14210473D01*
X10219179Y-14200949D01*
X10238227Y-14191425D01*
X10390608Y-14372377D02*
X10400132Y-14381901D01*
X10390608Y-14391425D01*
X10381084Y-14381901D01*
X10390608Y-14372377D01*
X10390608Y-14391425D01*
X10523941Y-14191425D02*
X10542989Y-14191425D01*
X10562037Y-14200949D01*
X10571560Y-14210473D01*
X10581084Y-14229520D01*
X10590608Y-14267615D01*
X10590608Y-14315235D01*
X10581084Y-14353330D01*
X10571560Y-14372377D01*
X10562037Y-14381901D01*
X10542989Y-14391425D01*
X10523941Y-14391425D01*
X10504894Y-14381901D01*
X10495370Y-14372377D01*
X10485846Y-14353330D01*
X10476322Y-14315235D01*
X10476322Y-14267615D01*
X10485846Y-14229520D01*
X10495370Y-14210473D01*
X10504894Y-14200949D01*
X10523941Y-14191425D01*
X10781084Y-14391425D02*
X10666798Y-14391425D01*
X10723941Y-14391425D02*
X10723941Y-14191425D01*
X10704894Y-14219996D01*
X10685846Y-14239044D01*
X10666798Y-14248568D01*
X10962037Y-14191425D02*
X10866798Y-14191425D01*
X10857275Y-14286663D01*
X10866798Y-14277139D01*
X10885846Y-14267615D01*
X10933465Y-14267615D01*
X10952513Y-14277139D01*
X10962037Y-14286663D01*
X10971560Y-14305711D01*
X10971560Y-14353330D01*
X10962037Y-14372377D01*
X10952513Y-14381901D01*
X10933465Y-14391425D01*
X10885846Y-14391425D01*
X10866798Y-14381901D01*
X10857275Y-14372377D01*
X11038227Y-14191425D02*
X11171560Y-14191425D01*
X11085846Y-14391425D01*
X11238227Y-14191425D02*
X11238227Y-14229520D01*
X11314417Y-14191425D02*
X11314417Y-14229520D01*
X11609655Y-14467615D02*
X11600132Y-14458092D01*
X11581084Y-14429520D01*
X11571560Y-14410473D01*
X11562036Y-14381901D01*
X11552513Y-14334282D01*
X11552513Y-14296187D01*
X11562036Y-14248568D01*
X11571560Y-14219996D01*
X11581084Y-14200949D01*
X11600132Y-14172377D01*
X11609655Y-14162854D01*
X11790608Y-14391425D02*
X11676322Y-14391425D01*
X11733465Y-14391425D02*
X11733465Y-14191425D01*
X11714417Y-14219996D01*
X11695370Y-14239044D01*
X11676322Y-14248568D01*
X12028703Y-14391425D02*
X12028703Y-14191425D01*
X12114417Y-14391425D02*
X12114417Y-14286663D01*
X12104894Y-14267615D01*
X12085846Y-14258092D01*
X12057275Y-14258092D01*
X12038227Y-14267615D01*
X12028703Y-14277139D01*
X12238227Y-14391425D02*
X12219179Y-14381901D01*
X12209655Y-14372377D01*
X12200132Y-14353330D01*
X12200132Y-14296187D01*
X12209655Y-14277139D01*
X12219179Y-14267615D01*
X12238227Y-14258092D01*
X12266798Y-14258092D01*
X12285846Y-14267615D01*
X12295370Y-14277139D01*
X12304894Y-14296187D01*
X12304894Y-14353330D01*
X12295370Y-14372377D01*
X12285846Y-14381901D01*
X12266798Y-14391425D01*
X12238227Y-14391425D01*
X12419179Y-14391425D02*
X12400132Y-14381901D01*
X12390608Y-14362854D01*
X12390608Y-14191425D01*
X12571560Y-14381901D02*
X12552513Y-14391425D01*
X12514417Y-14391425D01*
X12495370Y-14381901D01*
X12485846Y-14362854D01*
X12485846Y-14286663D01*
X12495370Y-14267615D01*
X12514417Y-14258092D01*
X12552513Y-14258092D01*
X12571560Y-14267615D01*
X12581084Y-14286663D01*
X12581084Y-14305711D01*
X12485846Y-14324758D01*
X12647751Y-14467615D02*
X12657275Y-14458092D01*
X12676322Y-14429520D01*
X12685846Y-14410473D01*
X12695370Y-14381901D01*
X12704894Y-14334282D01*
X12704894Y-14296187D01*
X12695370Y-14248568D01*
X12685846Y-14219996D01*
X12676322Y-14200949D01*
X12657275Y-14172377D01*
X12647751Y-14162854D01*
D13*
X8037751Y-14564949D02*
G75*
G03*
X8037751Y-14564949I-49500J0D01*
G01*
D11*
X8333465Y-14455425D02*
X8352513Y-14455425D01*
X8371560Y-14464949D01*
X8381084Y-14474473D01*
X8390608Y-14493520D01*
X8400132Y-14531615D01*
X8400132Y-14579235D01*
X8390608Y-14617330D01*
X8381084Y-14636377D01*
X8371560Y-14645901D01*
X8352513Y-14655425D01*
X8333465Y-14655425D01*
X8314417Y-14645901D01*
X8304894Y-14636377D01*
X8295370Y-14617330D01*
X8285846Y-14579235D01*
X8285846Y-14531615D01*
X8295370Y-14493520D01*
X8304894Y-14474473D01*
X8314417Y-14464949D01*
X8333465Y-14455425D01*
X8485846Y-14636377D02*
X8495370Y-14645901D01*
X8485846Y-14655425D01*
X8476322Y-14645901D01*
X8485846Y-14636377D01*
X8485846Y-14655425D01*
X8590608Y-14655425D02*
X8628703Y-14655425D01*
X8647751Y-14645901D01*
X8657275Y-14636377D01*
X8676322Y-14607806D01*
X8685846Y-14569711D01*
X8685846Y-14493520D01*
X8676322Y-14474473D01*
X8666798Y-14464949D01*
X8647751Y-14455425D01*
X8609656Y-14455425D01*
X8590608Y-14464949D01*
X8581084Y-14474473D01*
X8571560Y-14493520D01*
X8571560Y-14541139D01*
X8581084Y-14560187D01*
X8590608Y-14569711D01*
X8609656Y-14579235D01*
X8647751Y-14579235D01*
X8666798Y-14569711D01*
X8676322Y-14560187D01*
X8685846Y-14541139D01*
X8781084Y-14655425D02*
X8819179Y-14655425D01*
X8838227Y-14645901D01*
X8847751Y-14636377D01*
X8866798Y-14607806D01*
X8876322Y-14569711D01*
X8876322Y-14493520D01*
X8866798Y-14474473D01*
X8857275Y-14464949D01*
X8838227Y-14455425D01*
X8800132Y-14455425D01*
X8781084Y-14464949D01*
X8771560Y-14474473D01*
X8762037Y-14493520D01*
X8762037Y-14541139D01*
X8771560Y-14560187D01*
X8781084Y-14569711D01*
X8800132Y-14579235D01*
X8838227Y-14579235D01*
X8857275Y-14569711D01*
X8866798Y-14560187D01*
X8876322Y-14541139D01*
X9000132Y-14455425D02*
X9019179Y-14455425D01*
X9038227Y-14464949D01*
X9047751Y-14474473D01*
X9057275Y-14493520D01*
X9066798Y-14531615D01*
X9066798Y-14579235D01*
X9057275Y-14617330D01*
X9047751Y-14636377D01*
X9038227Y-14645901D01*
X9019179Y-14655425D01*
X9000132Y-14655425D01*
X8981084Y-14645901D01*
X8971560Y-14636377D01*
X8962037Y-14617330D01*
X8952513Y-14579235D01*
X8952513Y-14531615D01*
X8962037Y-14493520D01*
X8971560Y-14474473D01*
X8981084Y-14464949D01*
X9000132Y-14455425D01*
X9152513Y-14655425D02*
X9152513Y-14522092D01*
X9152513Y-14541139D02*
X9162037Y-14531615D01*
X9181084Y-14522092D01*
X9209656Y-14522092D01*
X9228703Y-14531615D01*
X9238227Y-14550663D01*
X9238227Y-14655425D01*
X9238227Y-14550663D02*
X9247751Y-14531615D01*
X9266798Y-14522092D01*
X9295370Y-14522092D01*
X9314417Y-14531615D01*
X9323941Y-14550663D01*
X9323941Y-14655425D01*
X9419179Y-14655425D02*
X9419179Y-14522092D01*
X9419179Y-14541139D02*
X9428703Y-14531615D01*
X9447751Y-14522092D01*
X9476322Y-14522092D01*
X9495370Y-14531615D01*
X9504894Y-14550663D01*
X9504894Y-14655425D01*
X9504894Y-14550663D02*
X9514417Y-14531615D01*
X9533465Y-14522092D01*
X9562037Y-14522092D01*
X9581084Y-14531615D01*
X9590608Y-14550663D01*
X9590608Y-14655425D01*
X9981084Y-14445901D02*
X9809656Y-14703044D01*
X10238227Y-14455425D02*
X10257275Y-14455425D01*
X10276322Y-14464949D01*
X10285846Y-14474473D01*
X10295370Y-14493520D01*
X10304894Y-14531615D01*
X10304894Y-14579235D01*
X10295370Y-14617330D01*
X10285846Y-14636377D01*
X10276322Y-14645901D01*
X10257275Y-14655425D01*
X10238227Y-14655425D01*
X10219179Y-14645901D01*
X10209656Y-14636377D01*
X10200132Y-14617330D01*
X10190608Y-14579235D01*
X10190608Y-14531615D01*
X10200132Y-14493520D01*
X10209656Y-14474473D01*
X10219179Y-14464949D01*
X10238227Y-14455425D01*
X10390608Y-14636377D02*
X10400132Y-14645901D01*
X10390608Y-14655425D01*
X10381084Y-14645901D01*
X10390608Y-14636377D01*
X10390608Y-14655425D01*
X10523941Y-14455425D02*
X10542989Y-14455425D01*
X10562037Y-14464949D01*
X10571560Y-14474473D01*
X10581084Y-14493520D01*
X10590608Y-14531615D01*
X10590608Y-14579235D01*
X10581084Y-14617330D01*
X10571560Y-14636377D01*
X10562037Y-14645901D01*
X10542989Y-14655425D01*
X10523941Y-14655425D01*
X10504894Y-14645901D01*
X10495370Y-14636377D01*
X10485846Y-14617330D01*
X10476322Y-14579235D01*
X10476322Y-14531615D01*
X10485846Y-14493520D01*
X10495370Y-14474473D01*
X10504894Y-14464949D01*
X10523941Y-14455425D01*
X10657275Y-14455425D02*
X10781084Y-14455425D01*
X10714417Y-14531615D01*
X10742989Y-14531615D01*
X10762037Y-14541139D01*
X10771560Y-14550663D01*
X10781084Y-14569711D01*
X10781084Y-14617330D01*
X10771560Y-14636377D01*
X10762037Y-14645901D01*
X10742989Y-14655425D01*
X10685846Y-14655425D01*
X10666798Y-14645901D01*
X10657275Y-14636377D01*
X10876322Y-14655425D02*
X10914417Y-14655425D01*
X10933465Y-14645901D01*
X10942989Y-14636377D01*
X10962037Y-14607806D01*
X10971560Y-14569711D01*
X10971560Y-14493520D01*
X10962037Y-14474473D01*
X10952513Y-14464949D01*
X10933465Y-14455425D01*
X10895370Y-14455425D01*
X10876322Y-14464949D01*
X10866798Y-14474473D01*
X10857275Y-14493520D01*
X10857275Y-14541139D01*
X10866798Y-14560187D01*
X10876322Y-14569711D01*
X10895370Y-14579235D01*
X10933465Y-14579235D01*
X10952513Y-14569711D01*
X10962037Y-14560187D01*
X10971560Y-14541139D01*
X11095370Y-14455425D02*
X11114417Y-14455425D01*
X11133465Y-14464949D01*
X11142989Y-14474473D01*
X11152513Y-14493520D01*
X11162037Y-14531615D01*
X11162037Y-14579235D01*
X11152513Y-14617330D01*
X11142989Y-14636377D01*
X11133465Y-14645901D01*
X11114417Y-14655425D01*
X11095370Y-14655425D01*
X11076322Y-14645901D01*
X11066798Y-14636377D01*
X11057275Y-14617330D01*
X11047751Y-14579235D01*
X11047751Y-14531615D01*
X11057275Y-14493520D01*
X11066798Y-14474473D01*
X11076322Y-14464949D01*
X11095370Y-14455425D01*
X11238227Y-14455425D02*
X11238227Y-14493520D01*
X11314417Y-14455425D02*
X11314417Y-14493520D01*
X11609655Y-14731615D02*
X11600132Y-14722092D01*
X11581084Y-14693520D01*
X11571560Y-14674473D01*
X11562036Y-14645901D01*
X11552513Y-14598282D01*
X11552513Y-14560187D01*
X11562036Y-14512568D01*
X11571560Y-14483996D01*
X11581084Y-14464949D01*
X11600132Y-14436377D01*
X11609655Y-14426854D01*
X11771560Y-14522092D02*
X11771560Y-14655425D01*
X11723941Y-14445901D02*
X11676322Y-14588758D01*
X11800132Y-14588758D01*
X12028703Y-14655425D02*
X12028703Y-14455425D01*
X12114417Y-14655425D02*
X12114417Y-14550663D01*
X12104894Y-14531615D01*
X12085846Y-14522092D01*
X12057275Y-14522092D01*
X12038227Y-14531615D01*
X12028703Y-14541139D01*
X12238227Y-14655425D02*
X12219179Y-14645901D01*
X12209655Y-14636377D01*
X12200132Y-14617330D01*
X12200132Y-14560187D01*
X12209655Y-14541139D01*
X12219179Y-14531615D01*
X12238227Y-14522092D01*
X12266798Y-14522092D01*
X12285846Y-14531615D01*
X12295370Y-14541139D01*
X12304894Y-14560187D01*
X12304894Y-14617330D01*
X12295370Y-14636377D01*
X12285846Y-14645901D01*
X12266798Y-14655425D01*
X12238227Y-14655425D01*
X12419179Y-14655425D02*
X12400132Y-14645901D01*
X12390608Y-14626854D01*
X12390608Y-14455425D01*
X12571560Y-14645901D02*
X12552513Y-14655425D01*
X12514417Y-14655425D01*
X12495370Y-14645901D01*
X12485846Y-14626854D01*
X12485846Y-14550663D01*
X12495370Y-14531615D01*
X12514417Y-14522092D01*
X12552513Y-14522092D01*
X12571560Y-14531615D01*
X12581084Y-14550663D01*
X12581084Y-14569711D01*
X12485846Y-14588758D01*
X12657275Y-14645901D02*
X12676322Y-14655425D01*
X12714417Y-14655425D01*
X12733465Y-14645901D01*
X12742989Y-14626854D01*
X12742989Y-14617330D01*
X12733465Y-14598282D01*
X12714417Y-14588758D01*
X12685846Y-14588758D01*
X12666798Y-14579235D01*
X12657275Y-14560187D01*
X12657275Y-14550663D01*
X12666798Y-14531615D01*
X12685846Y-14522092D01*
X12714417Y-14522092D01*
X12733465Y-14531615D01*
X12809655Y-14731615D02*
X12819179Y-14722092D01*
X12838227Y-14693520D01*
X12847751Y-14674473D01*
X12857275Y-14645901D01*
X12866798Y-14598282D01*
X12866798Y-14560187D01*
X12857275Y-14512568D01*
X12847751Y-14483996D01*
X12838227Y-14464949D01*
X12819179Y-14436377D01*
X12809655Y-14426854D01*
D14*
X7987751Y-14778949D02*
X7987751Y-14878949D01*
X7937751Y-14828949D02*
X8037751Y-14828949D01*
D11*
X8400132Y-14919425D02*
X8285846Y-14919425D01*
X8342989Y-14919425D02*
X8342989Y-14719425D01*
X8323941Y-14747996D01*
X8304894Y-14767044D01*
X8285846Y-14776568D01*
X8485846Y-14900377D02*
X8495370Y-14909901D01*
X8485846Y-14919425D01*
X8476322Y-14909901D01*
X8485846Y-14900377D01*
X8485846Y-14919425D01*
X8619179Y-14719425D02*
X8638227Y-14719425D01*
X8657275Y-14728949D01*
X8666798Y-14738473D01*
X8676322Y-14757520D01*
X8685846Y-14795615D01*
X8685846Y-14843235D01*
X8676322Y-14881330D01*
X8666798Y-14900377D01*
X8657275Y-14909901D01*
X8638227Y-14919425D01*
X8619179Y-14919425D01*
X8600132Y-14909901D01*
X8590608Y-14900377D01*
X8581084Y-14881330D01*
X8571560Y-14843235D01*
X8571560Y-14795615D01*
X8581084Y-14757520D01*
X8590608Y-14738473D01*
X8600132Y-14728949D01*
X8619179Y-14719425D01*
X8809656Y-14719425D02*
X8828703Y-14719425D01*
X8847751Y-14728949D01*
X8857275Y-14738473D01*
X8866798Y-14757520D01*
X8876322Y-14795615D01*
X8876322Y-14843235D01*
X8866798Y-14881330D01*
X8857275Y-14900377D01*
X8847751Y-14909901D01*
X8828703Y-14919425D01*
X8809656Y-14919425D01*
X8790608Y-14909901D01*
X8781084Y-14900377D01*
X8771560Y-14881330D01*
X8762037Y-14843235D01*
X8762037Y-14795615D01*
X8771560Y-14757520D01*
X8781084Y-14738473D01*
X8790608Y-14728949D01*
X8809656Y-14719425D01*
X9000132Y-14719425D02*
X9019179Y-14719425D01*
X9038227Y-14728949D01*
X9047751Y-14738473D01*
X9057275Y-14757520D01*
X9066798Y-14795615D01*
X9066798Y-14843235D01*
X9057275Y-14881330D01*
X9047751Y-14900377D01*
X9038227Y-14909901D01*
X9019179Y-14919425D01*
X9000132Y-14919425D01*
X8981084Y-14909901D01*
X8971560Y-14900377D01*
X8962037Y-14881330D01*
X8952513Y-14843235D01*
X8952513Y-14795615D01*
X8962037Y-14757520D01*
X8971560Y-14738473D01*
X8981084Y-14728949D01*
X9000132Y-14719425D01*
X9152513Y-14919425D02*
X9152513Y-14786092D01*
X9152513Y-14805139D02*
X9162037Y-14795615D01*
X9181084Y-14786092D01*
X9209656Y-14786092D01*
X9228703Y-14795615D01*
X9238227Y-14814663D01*
X9238227Y-14919425D01*
X9238227Y-14814663D02*
X9247751Y-14795615D01*
X9266798Y-14786092D01*
X9295370Y-14786092D01*
X9314417Y-14795615D01*
X9323941Y-14814663D01*
X9323941Y-14919425D01*
X9419179Y-14919425D02*
X9419179Y-14786092D01*
X9419179Y-14805139D02*
X9428703Y-14795615D01*
X9447751Y-14786092D01*
X9476322Y-14786092D01*
X9495370Y-14795615D01*
X9504894Y-14814663D01*
X9504894Y-14919425D01*
X9504894Y-14814663D02*
X9514417Y-14795615D01*
X9533465Y-14786092D01*
X9562037Y-14786092D01*
X9581084Y-14795615D01*
X9590608Y-14814663D01*
X9590608Y-14919425D01*
X9981084Y-14709901D02*
X9809656Y-14967044D01*
X10238227Y-14719425D02*
X10257275Y-14719425D01*
X10276322Y-14728949D01*
X10285846Y-14738473D01*
X10295370Y-14757520D01*
X10304894Y-14795615D01*
X10304894Y-14843235D01*
X10295370Y-14881330D01*
X10285846Y-14900377D01*
X10276322Y-14909901D01*
X10257275Y-14919425D01*
X10238227Y-14919425D01*
X10219179Y-14909901D01*
X10209656Y-14900377D01*
X10200132Y-14881330D01*
X10190608Y-14843235D01*
X10190608Y-14795615D01*
X10200132Y-14757520D01*
X10209656Y-14738473D01*
X10219179Y-14728949D01*
X10238227Y-14719425D01*
X10390608Y-14900377D02*
X10400132Y-14909901D01*
X10390608Y-14919425D01*
X10381084Y-14909901D01*
X10390608Y-14900377D01*
X10390608Y-14919425D01*
X10523941Y-14719425D02*
X10542989Y-14719425D01*
X10562037Y-14728949D01*
X10571560Y-14738473D01*
X10581084Y-14757520D01*
X10590608Y-14795615D01*
X10590608Y-14843235D01*
X10581084Y-14881330D01*
X10571560Y-14900377D01*
X10562037Y-14909901D01*
X10542989Y-14919425D01*
X10523941Y-14919425D01*
X10504894Y-14909901D01*
X10495370Y-14900377D01*
X10485846Y-14881330D01*
X10476322Y-14843235D01*
X10476322Y-14795615D01*
X10485846Y-14757520D01*
X10495370Y-14738473D01*
X10504894Y-14728949D01*
X10523941Y-14719425D01*
X10657275Y-14719425D02*
X10781084Y-14719425D01*
X10714417Y-14795615D01*
X10742989Y-14795615D01*
X10762037Y-14805139D01*
X10771560Y-14814663D01*
X10781084Y-14833711D01*
X10781084Y-14881330D01*
X10771560Y-14900377D01*
X10762037Y-14909901D01*
X10742989Y-14919425D01*
X10685846Y-14919425D01*
X10666798Y-14909901D01*
X10657275Y-14900377D01*
X10876322Y-14919425D02*
X10914417Y-14919425D01*
X10933465Y-14909901D01*
X10942989Y-14900377D01*
X10962037Y-14871806D01*
X10971560Y-14833711D01*
X10971560Y-14757520D01*
X10962037Y-14738473D01*
X10952513Y-14728949D01*
X10933465Y-14719425D01*
X10895370Y-14719425D01*
X10876322Y-14728949D01*
X10866798Y-14738473D01*
X10857275Y-14757520D01*
X10857275Y-14805139D01*
X10866798Y-14824187D01*
X10876322Y-14833711D01*
X10895370Y-14843235D01*
X10933465Y-14843235D01*
X10952513Y-14833711D01*
X10962037Y-14824187D01*
X10971560Y-14805139D01*
X11142989Y-14786092D02*
X11142989Y-14919425D01*
X11095370Y-14709901D02*
X11047751Y-14852758D01*
X11171560Y-14852758D01*
X11238227Y-14719425D02*
X11238227Y-14757520D01*
X11314417Y-14719425D02*
X11314417Y-14757520D01*
X11609655Y-14995615D02*
X11600132Y-14986092D01*
X11581084Y-14957520D01*
X11571560Y-14938473D01*
X11562036Y-14909901D01*
X11552513Y-14862282D01*
X11552513Y-14824187D01*
X11562036Y-14776568D01*
X11571560Y-14747996D01*
X11581084Y-14728949D01*
X11600132Y-14700377D01*
X11609655Y-14690854D01*
X11666798Y-14719425D02*
X11790608Y-14719425D01*
X11723941Y-14795615D01*
X11752513Y-14795615D01*
X11771560Y-14805139D01*
X11781084Y-14814663D01*
X11790608Y-14833711D01*
X11790608Y-14881330D01*
X11781084Y-14900377D01*
X11771560Y-14909901D01*
X11752513Y-14919425D01*
X11695370Y-14919425D01*
X11676322Y-14909901D01*
X11666798Y-14900377D01*
X12028703Y-14919425D02*
X12028703Y-14719425D01*
X12114417Y-14919425D02*
X12114417Y-14814663D01*
X12104894Y-14795615D01*
X12085846Y-14786092D01*
X12057275Y-14786092D01*
X12038227Y-14795615D01*
X12028703Y-14805139D01*
X12238227Y-14919425D02*
X12219179Y-14909901D01*
X12209655Y-14900377D01*
X12200132Y-14881330D01*
X12200132Y-14824187D01*
X12209655Y-14805139D01*
X12219179Y-14795615D01*
X12238227Y-14786092D01*
X12266798Y-14786092D01*
X12285846Y-14795615D01*
X12295370Y-14805139D01*
X12304894Y-14824187D01*
X12304894Y-14881330D01*
X12295370Y-14900377D01*
X12285846Y-14909901D01*
X12266798Y-14919425D01*
X12238227Y-14919425D01*
X12419179Y-14919425D02*
X12400132Y-14909901D01*
X12390608Y-14890854D01*
X12390608Y-14719425D01*
X12571560Y-14909901D02*
X12552513Y-14919425D01*
X12514417Y-14919425D01*
X12495370Y-14909901D01*
X12485846Y-14890854D01*
X12485846Y-14814663D01*
X12495370Y-14795615D01*
X12514417Y-14786092D01*
X12552513Y-14786092D01*
X12571560Y-14795615D01*
X12581084Y-14814663D01*
X12581084Y-14833711D01*
X12485846Y-14852758D01*
X12657275Y-14909901D02*
X12676322Y-14919425D01*
X12714417Y-14919425D01*
X12733465Y-14909901D01*
X12742989Y-14890854D01*
X12742989Y-14881330D01*
X12733465Y-14862282D01*
X12714417Y-14852758D01*
X12685846Y-14852758D01*
X12666798Y-14843235D01*
X12657275Y-14824187D01*
X12657275Y-14814663D01*
X12666798Y-14795615D01*
X12685846Y-14786092D01*
X12714417Y-14786092D01*
X12733465Y-14795615D01*
X12809655Y-14995615D02*
X12819179Y-14986092D01*
X12838227Y-14957520D01*
X12847751Y-14938473D01*
X12857275Y-14909901D01*
X12866798Y-14862282D01*
X12866798Y-14824187D01*
X12857275Y-14776568D01*
X12847751Y-14747996D01*
X12838227Y-14728949D01*
X12819179Y-14700377D01*
X12809655Y-14690854D01*
D15*
X8018713Y-15138911D02*
X8018713Y-15046986D01*
X7926788Y-15046986D01*
X7926788Y-15138911D01*
X8018713Y-15138911D01*
D11*
X8400132Y-15183425D02*
X8285846Y-15183425D01*
X8342989Y-15183425D02*
X8342989Y-14983425D01*
X8323941Y-15011996D01*
X8304894Y-15031044D01*
X8285846Y-15040568D01*
X8485846Y-15164377D02*
X8495370Y-15173901D01*
X8485846Y-15183425D01*
X8476322Y-15173901D01*
X8485846Y-15164377D01*
X8485846Y-15183425D01*
X8562037Y-14983425D02*
X8685846Y-14983425D01*
X8619179Y-15059615D01*
X8647751Y-15059615D01*
X8666798Y-15069139D01*
X8676322Y-15078663D01*
X8685846Y-15097711D01*
X8685846Y-15145330D01*
X8676322Y-15164377D01*
X8666798Y-15173901D01*
X8647751Y-15183425D01*
X8590608Y-15183425D01*
X8571560Y-15173901D01*
X8562037Y-15164377D01*
X8809656Y-14983425D02*
X8828703Y-14983425D01*
X8847751Y-14992949D01*
X8857275Y-15002473D01*
X8866798Y-15021520D01*
X8876322Y-15059615D01*
X8876322Y-15107235D01*
X8866798Y-15145330D01*
X8857275Y-15164377D01*
X8847751Y-15173901D01*
X8828703Y-15183425D01*
X8809656Y-15183425D01*
X8790608Y-15173901D01*
X8781084Y-15164377D01*
X8771560Y-15145330D01*
X8762037Y-15107235D01*
X8762037Y-15059615D01*
X8771560Y-15021520D01*
X8781084Y-15002473D01*
X8790608Y-14992949D01*
X8809656Y-14983425D01*
X9000132Y-14983425D02*
X9019179Y-14983425D01*
X9038227Y-14992949D01*
X9047751Y-15002473D01*
X9057275Y-15021520D01*
X9066798Y-15059615D01*
X9066798Y-15107235D01*
X9057275Y-15145330D01*
X9047751Y-15164377D01*
X9038227Y-15173901D01*
X9019179Y-15183425D01*
X9000132Y-15183425D01*
X8981084Y-15173901D01*
X8971560Y-15164377D01*
X8962037Y-15145330D01*
X8952513Y-15107235D01*
X8952513Y-15059615D01*
X8962037Y-15021520D01*
X8971560Y-15002473D01*
X8981084Y-14992949D01*
X9000132Y-14983425D01*
X9152513Y-15183425D02*
X9152513Y-15050092D01*
X9152513Y-15069139D02*
X9162037Y-15059615D01*
X9181084Y-15050092D01*
X9209656Y-15050092D01*
X9228703Y-15059615D01*
X9238227Y-15078663D01*
X9238227Y-15183425D01*
X9238227Y-15078663D02*
X9247751Y-15059615D01*
X9266798Y-15050092D01*
X9295370Y-15050092D01*
X9314417Y-15059615D01*
X9323941Y-15078663D01*
X9323941Y-15183425D01*
X9419179Y-15183425D02*
X9419179Y-15050092D01*
X9419179Y-15069139D02*
X9428703Y-15059615D01*
X9447751Y-15050092D01*
X9476322Y-15050092D01*
X9495370Y-15059615D01*
X9504894Y-15078663D01*
X9504894Y-15183425D01*
X9504894Y-15078663D02*
X9514417Y-15059615D01*
X9533465Y-15050092D01*
X9562037Y-15050092D01*
X9581084Y-15059615D01*
X9590608Y-15078663D01*
X9590608Y-15183425D01*
X9981084Y-14973901D02*
X9809656Y-15231044D01*
X10238227Y-14983425D02*
X10257275Y-14983425D01*
X10276322Y-14992949D01*
X10285846Y-15002473D01*
X10295370Y-15021520D01*
X10304894Y-15059615D01*
X10304894Y-15107235D01*
X10295370Y-15145330D01*
X10285846Y-15164377D01*
X10276322Y-15173901D01*
X10257275Y-15183425D01*
X10238227Y-15183425D01*
X10219179Y-15173901D01*
X10209656Y-15164377D01*
X10200132Y-15145330D01*
X10190608Y-15107235D01*
X10190608Y-15059615D01*
X10200132Y-15021520D01*
X10209656Y-15002473D01*
X10219179Y-14992949D01*
X10238227Y-14983425D01*
X10390608Y-15164377D02*
X10400132Y-15173901D01*
X10390608Y-15183425D01*
X10381084Y-15173901D01*
X10390608Y-15164377D01*
X10390608Y-15183425D01*
X10523941Y-14983425D02*
X10542989Y-14983425D01*
X10562037Y-14992949D01*
X10571560Y-15002473D01*
X10581084Y-15021520D01*
X10590608Y-15059615D01*
X10590608Y-15107235D01*
X10581084Y-15145330D01*
X10571560Y-15164377D01*
X10562037Y-15173901D01*
X10542989Y-15183425D01*
X10523941Y-15183425D01*
X10504894Y-15173901D01*
X10495370Y-15164377D01*
X10485846Y-15145330D01*
X10476322Y-15107235D01*
X10476322Y-15059615D01*
X10485846Y-15021520D01*
X10495370Y-15002473D01*
X10504894Y-14992949D01*
X10523941Y-14983425D01*
X10771560Y-14983425D02*
X10676322Y-14983425D01*
X10666798Y-15078663D01*
X10676322Y-15069139D01*
X10695370Y-15059615D01*
X10742989Y-15059615D01*
X10762037Y-15069139D01*
X10771560Y-15078663D01*
X10781084Y-15097711D01*
X10781084Y-15145330D01*
X10771560Y-15164377D01*
X10762037Y-15173901D01*
X10742989Y-15183425D01*
X10695370Y-15183425D01*
X10676322Y-15173901D01*
X10666798Y-15164377D01*
X10971560Y-15183425D02*
X10857275Y-15183425D01*
X10914417Y-15183425D02*
X10914417Y-14983425D01*
X10895370Y-15011996D01*
X10876322Y-15031044D01*
X10857275Y-15040568D01*
X11047751Y-15002473D02*
X11057275Y-14992949D01*
X11076322Y-14983425D01*
X11123941Y-14983425D01*
X11142989Y-14992949D01*
X11152513Y-15002473D01*
X11162037Y-15021520D01*
X11162037Y-15040568D01*
X11152513Y-15069139D01*
X11038227Y-15183425D01*
X11162037Y-15183425D01*
X11238227Y-14983425D02*
X11238227Y-15021520D01*
X11314417Y-14983425D02*
X11314417Y-15021520D01*
X11609655Y-15259615D02*
X11600132Y-15250092D01*
X11581084Y-15221520D01*
X11571560Y-15202473D01*
X11562036Y-15173901D01*
X11552513Y-15126282D01*
X11552513Y-15088187D01*
X11562036Y-15040568D01*
X11571560Y-15011996D01*
X11581084Y-14992949D01*
X11600132Y-14964377D01*
X11609655Y-14954854D01*
X11771560Y-15050092D02*
X11771560Y-15183425D01*
X11723941Y-14973901D02*
X11676322Y-15116758D01*
X11800132Y-15116758D01*
X12028703Y-15183425D02*
X12028703Y-14983425D01*
X12114417Y-15183425D02*
X12114417Y-15078663D01*
X12104894Y-15059615D01*
X12085846Y-15050092D01*
X12057275Y-15050092D01*
X12038227Y-15059615D01*
X12028703Y-15069139D01*
X12238227Y-15183425D02*
X12219179Y-15173901D01*
X12209655Y-15164377D01*
X12200132Y-15145330D01*
X12200132Y-15088187D01*
X12209655Y-15069139D01*
X12219179Y-15059615D01*
X12238227Y-15050092D01*
X12266798Y-15050092D01*
X12285846Y-15059615D01*
X12295370Y-15069139D01*
X12304894Y-15088187D01*
X12304894Y-15145330D01*
X12295370Y-15164377D01*
X12285846Y-15173901D01*
X12266798Y-15183425D01*
X12238227Y-15183425D01*
X12419179Y-15183425D02*
X12400132Y-15173901D01*
X12390608Y-15154854D01*
X12390608Y-14983425D01*
X12571560Y-15173901D02*
X12552513Y-15183425D01*
X12514417Y-15183425D01*
X12495370Y-15173901D01*
X12485846Y-15154854D01*
X12485846Y-15078663D01*
X12495370Y-15059615D01*
X12514417Y-15050092D01*
X12552513Y-15050092D01*
X12571560Y-15059615D01*
X12581084Y-15078663D01*
X12581084Y-15097711D01*
X12485846Y-15116758D01*
X12657275Y-15173901D02*
X12676322Y-15183425D01*
X12714417Y-15183425D01*
X12733465Y-15173901D01*
X12742989Y-15154854D01*
X12742989Y-15145330D01*
X12733465Y-15126282D01*
X12714417Y-15116758D01*
X12685846Y-15116758D01*
X12666798Y-15107235D01*
X12657275Y-15088187D01*
X12657275Y-15078663D01*
X12666798Y-15059615D01*
X12685846Y-15050092D01*
X12714417Y-15050092D01*
X12733465Y-15059615D01*
X12809655Y-15259615D02*
X12819179Y-15250092D01*
X12838227Y-15221520D01*
X12847751Y-15202473D01*
X12857275Y-15173901D01*
X12866798Y-15126282D01*
X12866798Y-15088187D01*
X12857275Y-15040568D01*
X12847751Y-15011996D01*
X12838227Y-14992949D01*
X12819179Y-14964377D01*
X12809655Y-14954854D01*
M02*
