%TF.GenerationSoftware,KiCad,Pcbnew,(6.0.8)*%
%TF.CreationDate,2022-10-29T21:36:05-06:00*%
%TF.ProjectId,plate,706c6174-652e-46b6-9963-61645f706362,rev?*%
%TF.SameCoordinates,Original*%
%TF.FileFunction,Profile,NP*%
%FSLAX46Y46*%
G04 Gerber Fmt 4.6, Leading zero omitted, Abs format (unit mm)*
G04 Created by KiCad (PCBNEW (6.0.8)) date 2022-10-29 21:36:05*
%MOMM*%
%LPD*%
G01*
G04 APERTURE LIST*
%TA.AperFunction,Profile*%
%ADD10C,0.188976*%
%TD*%
G04 APERTURE END LIST*
D10*
X173959995Y-95039000D02*
X173959995Y-95039000D01*
X173959995Y-91939001D02*
X173160000Y-91939001D01*
X80487996Y-63971001D02*
X80533996Y-63581001D01*
X154910000Y-123989000D02*
X168910000Y-123989000D01*
X130297996Y-72889000D02*
X130297996Y-72889000D01*
X80487996Y-131907000D02*
X80471996Y-131514002D01*
X83807996Y-63823001D02*
X83807996Y-63823001D01*
X213507000Y-132930002D02*
X213507000Y-132930002D01*
X215951992Y-63335001D02*
X215564998Y-62948001D01*
X106997995Y-85889000D02*
X106997995Y-85889000D01*
X214927990Y-136499003D02*
X214927990Y-136499003D01*
X84689996Y-136452997D02*
X84689996Y-136452997D01*
X112046997Y-100839003D02*
X111247997Y-100839003D01*
X85472996Y-62614001D02*
X85472996Y-62614001D01*
X217475002Y-135560000D02*
X217475002Y-135560000D01*
X85079996Y-136499003D02*
X84689996Y-136452997D01*
X145097995Y-71889000D02*
X145097995Y-71889000D01*
X188759998Y-91939001D02*
X187959995Y-91939001D01*
X154910000Y-81788000D02*
X154910000Y-81788000D01*
X92997995Y-114089003D02*
X92997995Y-114089003D01*
X126846996Y-91939001D02*
X126046997Y-91939001D01*
X145097995Y-75989000D02*
X145897999Y-75989000D01*
X80487996Y-63971001D02*
X80487996Y-63971001D01*
X168910000Y-123989000D02*
X168910000Y-123989000D01*
X131097995Y-85889000D02*
X145097995Y-85889000D01*
X80533996Y-63581001D02*
X80533996Y-63581001D01*
X192209995Y-114089003D02*
X193009998Y-114089003D01*
X80471996Y-131514002D02*
X80471996Y-131514002D01*
X145097995Y-84889000D02*
X145897999Y-84889000D01*
X169709995Y-81788000D02*
X169709995Y-81788000D01*
X168910000Y-72889000D02*
X168910000Y-72889000D01*
X154910000Y-85889000D02*
X154910000Y-85889000D01*
X154910000Y-84889000D02*
X154910000Y-84889000D01*
X106997995Y-109989000D02*
X92997995Y-109989000D01*
X215076992Y-133179003D02*
X215564998Y-132930002D01*
X215564998Y-62948001D02*
X215564998Y-62948001D01*
X81426996Y-61425001D02*
X81669996Y-61116001D01*
X219290996Y-62818001D02*
X219397991Y-63196001D01*
X207809993Y-81788000D02*
X207009990Y-81788000D01*
X106997995Y-122989000D02*
X107795997Y-122989000D01*
X81016996Y-62094001D02*
X81208996Y-61751001D01*
X112046997Y-95039000D02*
X112046997Y-95039000D01*
X111247997Y-103939001D02*
X112046997Y-103939001D01*
X207009990Y-109989000D02*
X207009990Y-109989000D01*
X173959995Y-104939001D02*
X173959995Y-104939001D01*
X107795997Y-114089003D02*
X107795997Y-110989000D01*
X82224996Y-60561001D02*
X82533996Y-60318001D01*
X92997995Y-123989000D02*
X106997995Y-123989000D01*
X212871990Y-132055002D02*
X212871990Y-132055002D01*
X173959995Y-104939001D02*
X187959995Y-104939001D01*
X81426996Y-134452997D02*
X81208996Y-134127001D01*
X84056996Y-132543001D02*
X84443996Y-132930002D01*
X212871990Y-64904001D02*
X213119991Y-65392001D01*
X84056996Y-63335001D02*
X84056996Y-63335001D01*
X84689996Y-59425001D02*
X85079996Y-59379001D01*
X84689996Y-136452997D02*
X84304996Y-136376001D01*
X131097995Y-122989000D02*
X131097995Y-122989000D01*
X92196996Y-119889002D02*
X92196996Y-119889002D01*
X145097995Y-123989000D02*
X145097995Y-122989000D01*
X154910000Y-122989000D02*
X154910000Y-123989000D01*
X218798992Y-61751001D02*
X218798992Y-61751001D01*
X212871990Y-130974001D02*
X212871990Y-130974001D01*
X219154995Y-62450001D02*
X219154995Y-62450001D01*
X145897999Y-84889000D02*
X145897999Y-84889000D01*
X154109996Y-110989000D02*
X154109996Y-114089003D01*
X126046997Y-100839003D02*
X126046997Y-95039000D01*
X193009998Y-72889000D02*
X192209995Y-72889000D01*
X218337993Y-61116001D02*
X218337993Y-61116001D01*
X215951992Y-132543001D02*
X216199993Y-132055002D01*
X106997995Y-114089003D02*
X107795997Y-114089003D01*
X218337993Y-61116001D02*
X218580990Y-61425001D01*
X212871990Y-63823001D02*
X212785991Y-64364001D01*
X81208996Y-134127001D02*
X81208996Y-134127001D01*
X154910000Y-110989000D02*
X154910000Y-110989000D01*
X84056996Y-63335001D02*
X83807996Y-63823001D01*
X106997995Y-81788000D02*
X106997995Y-75989000D01*
X218337993Y-134762003D02*
X218337993Y-134762003D01*
X215076992Y-62699001D02*
X214535991Y-62614001D01*
X85472996Y-66114001D02*
X86012996Y-66028001D01*
X85472996Y-59363001D02*
X214535991Y-59364001D01*
X80852996Y-133428003D02*
X80852996Y-133428003D01*
X168910000Y-81788000D02*
X168910000Y-81788000D01*
X107795997Y-72889000D02*
X107795997Y-72889000D01*
X188759998Y-103939001D02*
X188759998Y-100839003D01*
X83558996Y-59744001D02*
X83558996Y-59744001D01*
X212871990Y-63823001D02*
X212871990Y-63823001D01*
X218990993Y-62094001D02*
X219154995Y-62450001D01*
X213507000Y-130099001D02*
X213507000Y-130099001D01*
X219535991Y-131515001D02*
X219535991Y-131515001D01*
X215951992Y-65392001D02*
X216199993Y-64904001D01*
X126046997Y-104939001D02*
X126046997Y-103939001D01*
X217783001Y-60561001D02*
X218072002Y-60828001D01*
X188759998Y-100839003D02*
X187959995Y-100839003D01*
X107795997Y-122989000D02*
X107795997Y-119889002D01*
X83807996Y-130974001D02*
X83807996Y-130974001D01*
X106997995Y-119889002D02*
X106997995Y-119889002D01*
X187959995Y-91939001D02*
X187959995Y-91939001D01*
X207009990Y-114089003D02*
X207009990Y-114089003D01*
X213507000Y-62948001D02*
X213507000Y-62948001D01*
X216199993Y-64904001D02*
X216285991Y-64364001D01*
X80852996Y-62450001D02*
X81016996Y-62094001D01*
X85079996Y-59379001D02*
X85472996Y-59363001D01*
X83807996Y-64904001D02*
X83807996Y-64904001D01*
X145097995Y-85889000D02*
X145097995Y-84889000D01*
X216285991Y-131515001D02*
X216199993Y-130974001D01*
X216449001Y-59744001D02*
X216449001Y-59744001D01*
X83202996Y-59908001D02*
X83558996Y-59744001D01*
X215317989Y-136452997D02*
X215317989Y-136452997D01*
X92997995Y-72889000D02*
X92997995Y-72889000D01*
X131097995Y-81788000D02*
X130297996Y-81788000D01*
X218580990Y-61425001D02*
X218798992Y-61751001D01*
X193009998Y-71889000D02*
X193009998Y-72889000D01*
X92997995Y-109989000D02*
X92997995Y-110989000D01*
X213994991Y-66028001D02*
X213994991Y-66028001D01*
X80533996Y-63581001D02*
X80610996Y-63196001D01*
X80716996Y-62818001D02*
X80852996Y-62450001D01*
X145097995Y-109989000D02*
X131097995Y-109989000D01*
X85472996Y-129765001D02*
X84931996Y-129850001D01*
X80472996Y-64364001D02*
X80487996Y-63971001D01*
X188759998Y-95039000D02*
X188759998Y-95039000D01*
X215317989Y-59425001D02*
X215317989Y-59425001D01*
X83558996Y-59744001D02*
X83926996Y-59608001D01*
X219290996Y-133060000D02*
X219154995Y-133428003D01*
X214535991Y-62614001D02*
X213994991Y-62699001D01*
X84443996Y-62948001D02*
X84056996Y-63335001D01*
X111247997Y-91939001D02*
X111247997Y-95039000D01*
X216449001Y-59744001D02*
X216805996Y-59908001D01*
X86012996Y-62699001D02*
X85472996Y-62614001D01*
X106997995Y-85889000D02*
X106997995Y-84889000D01*
X219520992Y-131907000D02*
X219520992Y-131907000D01*
X112046997Y-91939001D02*
X111247997Y-91939001D01*
X83722996Y-131515001D02*
X83807996Y-132055002D01*
X86012996Y-66028001D02*
X86500996Y-65779001D01*
X131097995Y-110989000D02*
X131097995Y-110989000D01*
X188759998Y-95039000D02*
X188759998Y-91939001D01*
X85472996Y-133265001D02*
X85472996Y-133265001D01*
X219397991Y-132682001D02*
X219290996Y-133060000D01*
X83807996Y-64904001D02*
X84056996Y-65392001D01*
X188759998Y-91939001D02*
X188759998Y-91939001D01*
X81669996Y-61116001D02*
X81669996Y-61116001D01*
X154910000Y-72889000D02*
X154910000Y-72889000D01*
X193009998Y-122989000D02*
X193009998Y-123989000D01*
X207009990Y-72889000D02*
X207009990Y-71889000D01*
X92196996Y-75989000D02*
X92997995Y-75989000D01*
X207009990Y-75989000D02*
X207009990Y-75989000D01*
X154910000Y-72889000D02*
X154109996Y-72889000D01*
X213507000Y-130099001D02*
X213119991Y-130486002D01*
X81936996Y-135049997D02*
X81936996Y-135049997D01*
X173959995Y-103939001D02*
X173959995Y-103939001D01*
X87136996Y-63823001D02*
X87136996Y-63823001D01*
X81426996Y-61425001D02*
X81426996Y-61425001D01*
X85472996Y-136515001D02*
X85472996Y-136515001D01*
X212785991Y-64364001D02*
X212785991Y-64364001D01*
X111247997Y-91939001D02*
X111247997Y-91939001D01*
X84056996Y-65392001D02*
X84056996Y-65392001D01*
X86012996Y-62699001D02*
X86012996Y-62699001D01*
X212785991Y-64364001D02*
X212871990Y-64904001D01*
X106997995Y-72889000D02*
X106997995Y-72889000D01*
X145897999Y-114089003D02*
X145897999Y-110989000D01*
X193009998Y-122989000D02*
X193009998Y-122989000D01*
X168910000Y-114089003D02*
X168910000Y-114089003D01*
X145097995Y-109989000D02*
X145097995Y-109989000D01*
X169709995Y-72889000D02*
X168910000Y-72889000D01*
X84056996Y-130486002D02*
X83807996Y-130974001D01*
X131097995Y-123989000D02*
X131097995Y-123989000D01*
X169709995Y-110989000D02*
X169709995Y-110989000D01*
X126846996Y-103939001D02*
X126846996Y-103939001D01*
X169709995Y-119889002D02*
X169709995Y-119889002D01*
X111247997Y-95039000D02*
X112046997Y-95039000D01*
X154910000Y-123989000D02*
X154910000Y-123989000D01*
X207809993Y-114089003D02*
X207809993Y-114089003D01*
X215317989Y-136452997D02*
X214927990Y-136499003D01*
X131097995Y-114089003D02*
X131097995Y-114089003D01*
X215076992Y-129850001D02*
X215076992Y-129850001D01*
X218798992Y-61751001D02*
X218990993Y-62094001D01*
X92196996Y-122989000D02*
X92997995Y-122989000D01*
X84304996Y-136376001D02*
X83926996Y-136269999D01*
X92196996Y-72889000D02*
X92196996Y-75989000D01*
X218337993Y-134762003D02*
X218072002Y-135049997D01*
X213507000Y-132930002D02*
X213994991Y-133179003D01*
X215951992Y-65392001D02*
X215951992Y-65392001D01*
X81936996Y-135049997D02*
X81669996Y-134762003D01*
X130297996Y-72889000D02*
X130297996Y-75989000D01*
X131097995Y-85889000D02*
X131097995Y-85889000D01*
X193009998Y-75989000D02*
X193009998Y-81788000D01*
X111247997Y-95039000D02*
X111247997Y-95039000D01*
X154109996Y-75989000D02*
X154109996Y-75989000D01*
X168910000Y-110989000D02*
X168910000Y-109989000D01*
X86012996Y-133179003D02*
X86500996Y-132930002D01*
X92997995Y-75989000D02*
X92997995Y-81788000D01*
X145097995Y-85889000D02*
X145097995Y-85889000D01*
X83807996Y-63823001D02*
X83722996Y-64364001D01*
X145897999Y-122989000D02*
X145897999Y-119889002D01*
X169709995Y-75989000D02*
X169709995Y-72889000D01*
X84443996Y-130099001D02*
X84443996Y-130099001D01*
X193009998Y-84889000D02*
X193009998Y-84889000D01*
X187959995Y-90939001D02*
X187959995Y-90939001D01*
X81016996Y-62094001D02*
X81016996Y-62094001D01*
X107795997Y-122989000D02*
X107795997Y-122989000D01*
X215702999Y-59502001D02*
X216080990Y-59608001D01*
X218990993Y-62094001D02*
X218990993Y-62094001D01*
X168910000Y-72889000D02*
X168910000Y-71889000D01*
X214535991Y-129765001D02*
X214535991Y-129765001D01*
X187959995Y-103939001D02*
X187959995Y-103939001D01*
X207009990Y-122989000D02*
X207009990Y-122989000D01*
X154910000Y-114089003D02*
X154910000Y-119889002D01*
X219520992Y-63971001D02*
X219520992Y-63971001D01*
X92997995Y-110989000D02*
X92196996Y-110989000D01*
X83558996Y-136134005D02*
X83202996Y-135970003D01*
X218990993Y-133783999D02*
X218990993Y-133783999D01*
X106997995Y-75989000D02*
X106997995Y-75989000D01*
X87222996Y-64364001D02*
X87136996Y-63823001D01*
X154910000Y-85889000D02*
X168910000Y-85889000D01*
X81208996Y-134127001D02*
X81016996Y-133783999D01*
X193009998Y-119889002D02*
X193009998Y-119889002D01*
X92997995Y-85889000D02*
X92997995Y-85889000D01*
X215702999Y-59502001D02*
X215702999Y-59502001D01*
X207009990Y-119889002D02*
X207009990Y-119889002D01*
X193009998Y-81788000D02*
X193009998Y-81788000D01*
X130297996Y-122989000D02*
X130297996Y-122989000D01*
X207009990Y-119889002D02*
X207009990Y-114089003D01*
X107795997Y-84889000D02*
X107795997Y-81788000D01*
X213119991Y-65392001D02*
X213119991Y-65392001D01*
X82859996Y-60100001D02*
X83202996Y-59908001D01*
X154910000Y-81788000D02*
X154109996Y-81788000D01*
X92997995Y-110989000D02*
X92997995Y-110989000D01*
X85079996Y-136499003D02*
X85079996Y-136499003D01*
X131097995Y-110989000D02*
X130297996Y-110989000D01*
X187959995Y-90939001D02*
X173959995Y-90939001D01*
X154109996Y-72889000D02*
X154109996Y-72889000D01*
X86887996Y-63335001D02*
X86887996Y-63335001D01*
X173160000Y-100839003D02*
X173160000Y-103939001D01*
X130297996Y-84889000D02*
X130297996Y-84889000D01*
X215951992Y-130486002D02*
X215564998Y-130099001D01*
X106997995Y-119889002D02*
X106997995Y-114089003D01*
X207809993Y-119889002D02*
X207809993Y-119889002D01*
X80716996Y-133060000D02*
X80610996Y-132682001D01*
X154910000Y-110989000D02*
X154109996Y-110989000D01*
X154109996Y-84889000D02*
X154109996Y-84889000D01*
X130297996Y-119889002D02*
X130297996Y-122989000D01*
X84931996Y-133179003D02*
X84931996Y-133179003D01*
X145097995Y-119889002D02*
X145097995Y-114089003D01*
X173959995Y-90939001D02*
X173959995Y-91939001D01*
X83202996Y-135970003D02*
X82859996Y-135778002D01*
X83202996Y-135970003D02*
X83202996Y-135970003D01*
X81016996Y-133783999D02*
X80852996Y-133428003D01*
X173959995Y-95039000D02*
X173959995Y-100839003D01*
X192209995Y-110989000D02*
X192209995Y-114089003D01*
X92997995Y-119889002D02*
X92196996Y-119889002D01*
X217475002Y-60318001D02*
X217475002Y-60318001D01*
X145897999Y-110989000D02*
X145097995Y-110989000D01*
X130297996Y-81788000D02*
X130297996Y-81788000D01*
X214927990Y-59379001D02*
X214927990Y-59379001D01*
X92997995Y-75989000D02*
X92997995Y-75989000D01*
X154109996Y-122989000D02*
X154109996Y-122989000D01*
X207809993Y-75989000D02*
X207809993Y-75989000D01*
X168910000Y-84889000D02*
X168910000Y-84889000D01*
X154910000Y-119889002D02*
X154109996Y-119889002D01*
X217147991Y-60100001D02*
X217475002Y-60318001D01*
X83926996Y-136269999D02*
X83926996Y-136269999D01*
X87222996Y-131515001D02*
X87222996Y-131515001D01*
X80852996Y-62450001D02*
X80852996Y-62450001D01*
X145097995Y-110989000D02*
X145097995Y-109989000D01*
X145897999Y-81788000D02*
X145097995Y-81788000D01*
X92997995Y-81788000D02*
X92997995Y-81788000D01*
X87136996Y-64904001D02*
X87136996Y-64904001D01*
X168910000Y-123989000D02*
X168910000Y-122989000D01*
X215702999Y-136376001D02*
X215702999Y-136376001D01*
X92196996Y-84889000D02*
X92997995Y-84889000D01*
X213119991Y-132543001D02*
X213507000Y-132930002D01*
X126046997Y-90939001D02*
X126046997Y-90939001D01*
X82224996Y-135317003D02*
X81936996Y-135049997D01*
X154109996Y-110989000D02*
X154109996Y-110989000D01*
X130297996Y-122989000D02*
X131097995Y-122989000D01*
X154910000Y-75989000D02*
X154910000Y-75989000D01*
X154109996Y-72889000D02*
X154109996Y-75989000D01*
X126846996Y-95039000D02*
X126846996Y-95039000D01*
X213994991Y-129850001D02*
X213507000Y-130099001D01*
X193009998Y-119889002D02*
X192209995Y-119889002D01*
X145897999Y-110989000D02*
X145897999Y-110989000D01*
X106997995Y-72889000D02*
X106997995Y-71889000D01*
X193009998Y-109989000D02*
X193009998Y-110989000D01*
X192209995Y-122989000D02*
X192209995Y-122989000D01*
X154910000Y-71889000D02*
X154910000Y-72889000D01*
X154109996Y-81788000D02*
X154109996Y-84889000D01*
X207809993Y-122989000D02*
X207809993Y-122989000D01*
X187959995Y-100839003D02*
X187959995Y-100839003D01*
X111247997Y-103939001D02*
X111247997Y-103939001D01*
X92997995Y-114089003D02*
X92997995Y-119889002D01*
X92997995Y-84889000D02*
X92997995Y-84889000D01*
X169709995Y-110989000D02*
X168910000Y-110989000D01*
X169709995Y-114089003D02*
X169709995Y-110989000D01*
X192209995Y-119889002D02*
X192209995Y-122989000D01*
X193009998Y-123989000D02*
X207009990Y-123989000D01*
X106997995Y-110989000D02*
X106997995Y-110989000D01*
X83202996Y-59908001D02*
X83202996Y-59908001D01*
X86887996Y-63335001D02*
X86500996Y-62948001D01*
X145897999Y-72889000D02*
X145897999Y-72889000D01*
X131097995Y-122989000D02*
X131097995Y-123989000D01*
X219473995Y-132296999D02*
X219473995Y-132296999D01*
X207009990Y-122989000D02*
X207809993Y-122989000D01*
X173160000Y-103939001D02*
X173959995Y-103939001D01*
X112046997Y-104939001D02*
X112046997Y-104939001D01*
X216805996Y-135970003D02*
X216805996Y-135970003D01*
X154910000Y-114089003D02*
X154910000Y-114089003D01*
X168910000Y-71889000D02*
X154910000Y-71889000D01*
X111247997Y-100839003D02*
X111247997Y-100839003D01*
X112046997Y-100839003D02*
X112046997Y-100839003D01*
X219397991Y-63196001D02*
X219397991Y-63196001D01*
X84689996Y-59425001D02*
X84689996Y-59425001D01*
X168910000Y-75989000D02*
X168910000Y-75989000D01*
X214535991Y-136515001D02*
X85472996Y-136515001D01*
X154910000Y-75989000D02*
X154910000Y-81788000D01*
X84931996Y-66028001D02*
X85472996Y-66114001D01*
X86500996Y-62948001D02*
X86012996Y-62699001D01*
X80533996Y-132296999D02*
X80533996Y-132296999D01*
X81936996Y-60828001D02*
X81936996Y-60828001D01*
X207009990Y-110989000D02*
X207009990Y-110989000D01*
X130297996Y-110989000D02*
X130297996Y-114089003D01*
X80610996Y-132682001D02*
X80610996Y-132682001D01*
X126846996Y-100839003D02*
X126846996Y-100839003D01*
X218580990Y-134452997D02*
X218337993Y-134762003D01*
X107795997Y-119889002D02*
X107795997Y-119889002D01*
X168910000Y-122989000D02*
X169709995Y-122989000D01*
X111247997Y-100839003D02*
X111247997Y-103939001D01*
X85472996Y-66114001D02*
X85472996Y-66114001D01*
X80487996Y-131907000D02*
X80487996Y-131907000D01*
X81669996Y-134762003D02*
X81426996Y-134452997D01*
X207809993Y-72889000D02*
X207809993Y-72889000D01*
X218072002Y-135049997D02*
X217783001Y-135317003D01*
X216199993Y-63823001D02*
X216199993Y-63823001D01*
X154910000Y-119889002D02*
X154910000Y-119889002D01*
X86012996Y-133179003D02*
X86012996Y-133179003D01*
X84304996Y-59502001D02*
X84304996Y-59502001D01*
X82533996Y-135560000D02*
X82533996Y-135560000D01*
X193009998Y-110989000D02*
X193009998Y-110989000D01*
X168910000Y-71889000D02*
X168910000Y-71889000D01*
X193009998Y-72889000D02*
X193009998Y-72889000D01*
X84443996Y-132930002D02*
X84443996Y-132930002D01*
X173160000Y-95039000D02*
X173160000Y-95039000D01*
X126846996Y-91939001D02*
X126846996Y-91939001D01*
X145097995Y-81788000D02*
X145097995Y-75989000D01*
X168910000Y-110989000D02*
X168910000Y-110989000D01*
X126846996Y-103939001D02*
X126846996Y-100839003D01*
X80716996Y-133060000D02*
X80716996Y-133060000D01*
X87136996Y-63823001D02*
X86887996Y-63335001D01*
X207009990Y-85889000D02*
X207009990Y-84889000D01*
X215564998Y-65779001D02*
X215951992Y-65392001D01*
X219397991Y-132682001D02*
X219397991Y-132682001D01*
X131097995Y-114089003D02*
X131097995Y-119889002D01*
X82224996Y-135317003D02*
X82224996Y-135317003D01*
X193009998Y-110989000D02*
X192209995Y-110989000D01*
X217783001Y-135317003D02*
X217783001Y-135317003D01*
X192209995Y-114089003D02*
X192209995Y-114089003D01*
X92196996Y-72889000D02*
X92196996Y-72889000D01*
X214535991Y-66114001D02*
X214535991Y-66114001D01*
X145097995Y-122989000D02*
X145897999Y-122989000D01*
X145097995Y-114089003D02*
X145897999Y-114089003D01*
X217783001Y-135317003D02*
X217475002Y-135560000D01*
X85472996Y-129765001D02*
X85472996Y-129765001D01*
X145097995Y-72889000D02*
X145097995Y-71889000D01*
X212871990Y-130974001D02*
X212785991Y-131515001D01*
X207009990Y-84889000D02*
X207809993Y-84889000D01*
X145897999Y-72889000D02*
X145097995Y-72889000D01*
X214535991Y-62614001D02*
X214535991Y-62614001D01*
X82859996Y-135778002D02*
X82533996Y-135560000D01*
X86887996Y-132543001D02*
X87136996Y-132055002D01*
X145897999Y-119889002D02*
X145097995Y-119889002D01*
X219154995Y-133428003D02*
X218990993Y-133783999D01*
X168910000Y-119889002D02*
X168910000Y-114089003D01*
X187959995Y-104939001D02*
X187959995Y-103939001D01*
X219154995Y-133428003D02*
X219154995Y-133428003D01*
X219290996Y-62818001D02*
X219290996Y-62818001D01*
X187959995Y-91939001D02*
X187959995Y-90939001D01*
X83722996Y-64364001D02*
X83722996Y-64364001D01*
X207009990Y-72889000D02*
X207009990Y-72889000D01*
X130297996Y-84889000D02*
X131097995Y-84889000D01*
X207809993Y-72889000D02*
X207009990Y-72889000D01*
X193009998Y-114089003D02*
X193009998Y-119889002D01*
X215564998Y-132930002D02*
X215951992Y-132543001D01*
X188759998Y-103939001D02*
X188759998Y-103939001D01*
X213507000Y-65779001D02*
X213507000Y-65779001D01*
X107795997Y-119889002D02*
X106997995Y-119889002D01*
X92196996Y-114089003D02*
X92997995Y-114089003D01*
X154910000Y-84889000D02*
X154910000Y-85889000D01*
X219397991Y-63196001D02*
X219473995Y-63581001D01*
X207809993Y-75989000D02*
X207809993Y-72889000D01*
X81426996Y-134452997D02*
X81426996Y-134452997D01*
X207009990Y-75989000D02*
X207809993Y-75989000D01*
X112046997Y-103939001D02*
X112046997Y-103939001D01*
X145897999Y-81788000D02*
X145897999Y-81788000D01*
X145097995Y-84889000D02*
X145097995Y-84889000D01*
X192209995Y-81788000D02*
X192209995Y-81788000D01*
X112046997Y-103939001D02*
X112046997Y-104939001D01*
X187959995Y-95039000D02*
X188759998Y-95039000D01*
X187959995Y-100839003D02*
X187959995Y-95039000D01*
X86887996Y-130486002D02*
X86500996Y-130099001D01*
X85472996Y-59363001D02*
X85472996Y-59363001D01*
X219535991Y-64364001D02*
X219535991Y-131515001D01*
X81936996Y-60828001D02*
X82224996Y-60561001D01*
X131097995Y-75989000D02*
X131097995Y-81788000D01*
X92997995Y-71889000D02*
X92997995Y-72889000D01*
X192209995Y-75989000D02*
X192209995Y-75989000D01*
X92997995Y-123989000D02*
X92997995Y-123989000D01*
X86500996Y-132930002D02*
X86500996Y-132930002D01*
X207009990Y-109989000D02*
X193009998Y-109989000D01*
X216285991Y-64364001D02*
X216199993Y-63823001D01*
X107795997Y-81788000D02*
X106997995Y-81788000D01*
X92196996Y-75989000D02*
X92196996Y-75989000D01*
X145897999Y-122989000D02*
X145897999Y-122989000D01*
X207809993Y-84889000D02*
X207809993Y-81788000D01*
X92196996Y-110989000D02*
X92196996Y-110989000D01*
X215076992Y-62699001D02*
X215076992Y-62699001D01*
X126846996Y-100839003D02*
X126046997Y-100839003D01*
X216805996Y-59908001D02*
X216805996Y-59908001D01*
X207009990Y-85889000D02*
X207009990Y-85889000D01*
X86012996Y-129850001D02*
X86012996Y-129850001D01*
X216805996Y-59908001D02*
X217147991Y-60100001D01*
X192209995Y-110989000D02*
X192209995Y-110989000D01*
X86887996Y-65392001D02*
X87136996Y-64904001D01*
X84931996Y-66028001D02*
X84931996Y-66028001D01*
X92997995Y-119889002D02*
X92997995Y-119889002D01*
X92196996Y-114089003D02*
X92196996Y-114089003D01*
X213119991Y-130486002D02*
X213119991Y-130486002D01*
X168910000Y-122989000D02*
X168910000Y-122989000D01*
X207809993Y-122989000D02*
X207809993Y-119889002D01*
X131097995Y-71889000D02*
X131097995Y-72889000D01*
X207009990Y-114089003D02*
X207809993Y-114089003D01*
X214535991Y-66114001D02*
X215076992Y-66028001D01*
X212785991Y-131515001D02*
X212785991Y-131515001D01*
X215564998Y-65779001D02*
X215564998Y-65779001D01*
X106997995Y-109989000D02*
X106997995Y-109989000D01*
X217147991Y-135778002D02*
X217147991Y-135778002D01*
X131097995Y-119889002D02*
X130297996Y-119889002D01*
X145897999Y-119889002D02*
X145897999Y-119889002D01*
X154109996Y-84889000D02*
X154910000Y-84889000D01*
X213119991Y-63335001D02*
X213119991Y-63335001D01*
X207809993Y-114089003D02*
X207809993Y-110989000D01*
X154910000Y-122989000D02*
X154910000Y-122989000D01*
X86500996Y-65779001D02*
X86887996Y-65392001D01*
X86500996Y-65779001D02*
X86500996Y-65779001D01*
X187959995Y-104939001D02*
X187959995Y-104939001D01*
X192209995Y-119889002D02*
X192209995Y-119889002D01*
X145097995Y-123989000D02*
X145097995Y-123989000D01*
X169709995Y-84889000D02*
X169709995Y-84889000D01*
X215076992Y-129850001D02*
X214535991Y-129765001D01*
X217147991Y-135778002D02*
X216805996Y-135970003D01*
X80852996Y-133428003D02*
X80716996Y-133060000D01*
X81208996Y-61751001D02*
X81208996Y-61751001D01*
X130297996Y-110989000D02*
X130297996Y-110989000D01*
X207009990Y-123989000D02*
X207009990Y-122989000D01*
X219473995Y-63581001D02*
X219473995Y-63581001D01*
X84443996Y-130099001D02*
X84056996Y-130486002D01*
X106997995Y-122989000D02*
X106997995Y-122989000D01*
X85472996Y-133265001D02*
X86012996Y-133179003D01*
X130297996Y-119889002D02*
X130297996Y-119889002D01*
X154109996Y-114089003D02*
X154109996Y-114089003D01*
X126046997Y-90939001D02*
X112046997Y-90939001D01*
X168910000Y-109989000D02*
X168910000Y-109989000D01*
X192209995Y-72889000D02*
X192209995Y-75989000D01*
X154910000Y-109989000D02*
X154910000Y-110989000D01*
X107795997Y-75989000D02*
X107795997Y-72889000D01*
X87222996Y-131515001D02*
X87136996Y-130974001D01*
X154109996Y-119889002D02*
X154109996Y-122989000D01*
X207809993Y-119889002D02*
X207009990Y-119889002D01*
X214927990Y-59379001D02*
X215317989Y-59425001D01*
X216080990Y-59608001D02*
X216449001Y-59744001D01*
X207009990Y-81788000D02*
X207009990Y-75989000D01*
X92196996Y-119889002D02*
X92196996Y-122989000D01*
X169709995Y-81788000D02*
X168910000Y-81788000D01*
X214927990Y-136499003D02*
X214535991Y-136515001D01*
X173959995Y-100839003D02*
X173160000Y-100839003D01*
X168910000Y-114089003D02*
X169709995Y-114089003D01*
X216285991Y-64364001D02*
X216285991Y-64364001D01*
X169709995Y-119889002D02*
X168910000Y-119889002D01*
X207009990Y-84889000D02*
X207009990Y-84889000D01*
X219473995Y-132296999D02*
X219397991Y-132682001D01*
X82533996Y-135560000D02*
X82224996Y-135317003D01*
X106997995Y-71889000D02*
X106997995Y-71889000D01*
X213507000Y-65779001D02*
X213994991Y-66028001D01*
X218990993Y-133783999D02*
X218798992Y-134127001D01*
X83807996Y-132055002D02*
X83807996Y-132055002D01*
X131097995Y-84889000D02*
X131097995Y-85889000D01*
X126046997Y-104939001D02*
X126046997Y-104939001D01*
X218798992Y-134127001D02*
X218798992Y-134127001D01*
X86500996Y-132930002D02*
X86887996Y-132543001D01*
X131097995Y-119889002D02*
X131097995Y-119889002D01*
X215702999Y-136376001D02*
X215317989Y-136452997D01*
X173959995Y-103939001D02*
X173959995Y-104939001D01*
X107795997Y-110989000D02*
X107795997Y-110989000D01*
X106997995Y-123989000D02*
X106997995Y-123989000D01*
X86887996Y-65392001D02*
X86887996Y-65392001D01*
X126046997Y-100839003D02*
X126046997Y-100839003D01*
X216449001Y-136134005D02*
X216449001Y-136134005D01*
X112046997Y-95039000D02*
X112046997Y-100839003D01*
X84056996Y-132543001D02*
X84056996Y-132543001D01*
X173160000Y-95039000D02*
X173959995Y-95039000D01*
X145097995Y-72889000D02*
X145097995Y-72889000D01*
X145097995Y-75989000D02*
X145097995Y-75989000D01*
X130297996Y-81788000D02*
X130297996Y-84889000D01*
X86500996Y-62948001D02*
X86500996Y-62948001D01*
X84056996Y-130486002D02*
X84056996Y-130486002D01*
X169709995Y-75989000D02*
X169709995Y-75989000D01*
X92997995Y-122989000D02*
X92997995Y-122989000D01*
X87222996Y-64364001D02*
X87222996Y-64364001D01*
X218072002Y-135049997D02*
X218072002Y-135049997D01*
X145897999Y-75989000D02*
X145897999Y-72889000D01*
X145097995Y-110989000D02*
X145097995Y-110989000D01*
X219535991Y-131515001D02*
X219520992Y-131907000D01*
X80471996Y-131514002D02*
X80472996Y-64364001D01*
X173959995Y-100839003D02*
X173959995Y-100839003D01*
X215564998Y-130099001D02*
X215076992Y-129850001D01*
X216199993Y-64904001D02*
X216199993Y-64904001D01*
X107795997Y-110989000D02*
X106997995Y-110989000D01*
X81016996Y-133783999D02*
X81016996Y-133783999D01*
X80533996Y-132296999D02*
X80487996Y-131907000D01*
X173959995Y-91939001D02*
X173959995Y-91939001D01*
X213119991Y-63335001D02*
X212871990Y-63823001D01*
X85472996Y-62614001D02*
X84931996Y-62699001D01*
X82859996Y-135778002D02*
X82859996Y-135778002D01*
X131097995Y-72889000D02*
X130297996Y-72889000D01*
X219520992Y-131907000D02*
X219473995Y-132296999D01*
X85079996Y-59379001D02*
X85079996Y-59379001D01*
X219520992Y-63971001D02*
X219535991Y-64364001D01*
X92196996Y-81788000D02*
X92196996Y-84889000D01*
X145097995Y-71889000D02*
X131097995Y-71889000D01*
X84443996Y-65779001D02*
X84443996Y-65779001D01*
X207009990Y-81788000D02*
X207009990Y-81788000D01*
X192209995Y-75989000D02*
X193009998Y-75989000D01*
X193009998Y-81788000D02*
X192209995Y-81788000D01*
X218072002Y-60828001D02*
X218072002Y-60828001D01*
X193009998Y-84889000D02*
X193009998Y-85889000D01*
X145897999Y-114089003D02*
X145897999Y-114089003D01*
X92196996Y-84889000D02*
X92196996Y-84889000D01*
X207809993Y-110989000D02*
X207809993Y-110989000D01*
X84056996Y-65392001D02*
X84443996Y-65779001D01*
X80610996Y-63196001D02*
X80716996Y-62818001D01*
X92997995Y-85889000D02*
X106997995Y-85889000D01*
X131097995Y-123989000D02*
X145097995Y-123989000D01*
X130297996Y-75989000D02*
X131097995Y-75989000D01*
X213994991Y-66028001D02*
X214535991Y-66114001D01*
X219473995Y-63581001D02*
X219520992Y-63971001D01*
X145097995Y-122989000D02*
X145097995Y-122989000D01*
X80472996Y-64364001D02*
X80472996Y-64364001D01*
X216199993Y-132055002D02*
X216199993Y-132055002D01*
X213994991Y-62699001D02*
X213507000Y-62948001D01*
X169709995Y-84889000D02*
X169709995Y-81788000D01*
X130297996Y-114089003D02*
X131097995Y-114089003D01*
X131097995Y-75989000D02*
X131097995Y-75989000D01*
X212871990Y-64904001D02*
X212871990Y-64904001D01*
X83722996Y-64364001D02*
X83807996Y-64904001D01*
X214535991Y-133265001D02*
X214535991Y-133265001D01*
X84443996Y-132930002D02*
X84931996Y-133179003D01*
X216080990Y-136269999D02*
X215702999Y-136376001D01*
X112046997Y-90939001D02*
X112046997Y-91939001D01*
X217475002Y-60318001D02*
X217783001Y-60561001D01*
X83926996Y-59608001D02*
X83926996Y-59608001D01*
X207809993Y-81788000D02*
X207809993Y-81788000D01*
X168910000Y-109989000D02*
X154910000Y-109989000D01*
X83722996Y-131515001D02*
X83722996Y-131515001D01*
X215317989Y-59425001D02*
X215702999Y-59502001D01*
X213994991Y-133179003D02*
X213994991Y-133179003D01*
X106997995Y-75989000D02*
X107795997Y-75989000D01*
X154109996Y-114089003D02*
X154910000Y-114089003D01*
X92196996Y-110989000D02*
X92196996Y-114089003D01*
X207009990Y-71889000D02*
X193009998Y-71889000D01*
X215564998Y-62948001D02*
X215076992Y-62699001D01*
X130297996Y-114089003D02*
X130297996Y-114089003D01*
X82533996Y-60318001D02*
X82533996Y-60318001D01*
X213994991Y-133179003D02*
X214535991Y-133265001D01*
X207809993Y-110989000D02*
X207009990Y-110989000D01*
X83807996Y-132055002D02*
X84056996Y-132543001D01*
X169709995Y-122989000D02*
X169709995Y-119889002D01*
X83558996Y-136134005D02*
X83558996Y-136134005D01*
X192209995Y-84889000D02*
X193009998Y-84889000D01*
X193009998Y-85889000D02*
X207009990Y-85889000D01*
X217783001Y-60561001D02*
X217783001Y-60561001D01*
X80610996Y-63196001D02*
X80610996Y-63196001D01*
X213119991Y-130486002D02*
X212871990Y-130974001D01*
X131097995Y-84889000D02*
X131097995Y-84889000D01*
X131097995Y-109989000D02*
X131097995Y-110989000D01*
X217475002Y-135560000D02*
X217147991Y-135778002D01*
X112046997Y-91939001D02*
X112046997Y-91939001D01*
X169709995Y-72889000D02*
X169709995Y-72889000D01*
X87136996Y-132055002D02*
X87136996Y-132055002D01*
X92997995Y-72889000D02*
X92196996Y-72889000D01*
X154109996Y-81788000D02*
X154109996Y-81788000D01*
X219535991Y-64364001D02*
X219535991Y-64364001D01*
X192209995Y-84889000D02*
X192209995Y-84889000D01*
X214535991Y-59364001D02*
X214927990Y-59379001D01*
X84304996Y-59502001D02*
X84689996Y-59425001D01*
X131097995Y-72889000D02*
X131097995Y-72889000D01*
X80716996Y-62818001D02*
X80716996Y-62818001D01*
X192209995Y-72889000D02*
X192209995Y-72889000D01*
X83926996Y-136269999D02*
X83558996Y-136134005D01*
X87136996Y-64904001D02*
X87222996Y-64364001D01*
X154109996Y-119889002D02*
X154109996Y-119889002D01*
X207809993Y-84889000D02*
X207809993Y-84889000D01*
X83926996Y-59608001D02*
X84304996Y-59502001D01*
X82224996Y-60561001D02*
X82224996Y-60561001D01*
X84931996Y-133179003D02*
X85472996Y-133265001D01*
X126846996Y-95039000D02*
X126846996Y-91939001D01*
X173160000Y-103939001D02*
X173160000Y-103939001D01*
X192209995Y-122989000D02*
X193009998Y-122989000D01*
X213507000Y-62948001D02*
X213119991Y-63335001D01*
X86887996Y-132543001D02*
X86887996Y-132543001D01*
X86012996Y-129850001D02*
X85472996Y-129765001D01*
X207009990Y-71889000D02*
X207009990Y-71889000D01*
X86012996Y-66028001D02*
X86012996Y-66028001D01*
X154109996Y-75989000D02*
X154910000Y-75989000D01*
X207009990Y-110989000D02*
X207009990Y-109989000D01*
X126046997Y-95039000D02*
X126046997Y-95039000D01*
X168910000Y-119889002D02*
X168910000Y-119889002D01*
X215564998Y-130099001D02*
X215564998Y-130099001D01*
X81669996Y-134762003D02*
X81669996Y-134762003D01*
X107795997Y-72889000D02*
X106997995Y-72889000D01*
X193009998Y-123989000D02*
X193009998Y-123989000D01*
X145097995Y-114089003D02*
X145097995Y-114089003D01*
X92997995Y-81788000D02*
X92196996Y-81788000D01*
X218580990Y-61425001D02*
X218580990Y-61425001D01*
X188759998Y-100839003D02*
X188759998Y-100839003D01*
X215076992Y-133179003D02*
X215076992Y-133179003D01*
X131097995Y-81788000D02*
X131097995Y-81788000D01*
X81208996Y-61751001D02*
X81426996Y-61425001D01*
X84304996Y-136376001D02*
X84304996Y-136376001D01*
X216199993Y-132055002D02*
X216285991Y-131515001D01*
X92997995Y-84889000D02*
X92997995Y-85889000D01*
X82859996Y-60100001D02*
X82859996Y-60100001D01*
X107795997Y-114089003D02*
X107795997Y-114089003D01*
X217147991Y-60100001D02*
X217147991Y-60100001D01*
X173160000Y-91939001D02*
X173160000Y-95039000D01*
X187959995Y-95039000D02*
X187959995Y-95039000D01*
X214535991Y-136515001D02*
X214535991Y-136515001D01*
X192209995Y-81788000D02*
X192209995Y-84889000D01*
X216199993Y-130974001D02*
X216199993Y-130974001D01*
X216285991Y-131515001D02*
X216285991Y-131515001D01*
X145097995Y-81788000D02*
X145097995Y-81788000D01*
X218580990Y-134452997D02*
X218580990Y-134452997D01*
X83807996Y-130974001D02*
X83722996Y-131515001D01*
X106997995Y-84889000D02*
X107795997Y-84889000D01*
X168910000Y-81788000D02*
X168910000Y-75989000D01*
X213119991Y-132543001D02*
X213119991Y-132543001D01*
X193009998Y-75989000D02*
X193009998Y-75989000D01*
X92997995Y-122989000D02*
X92997995Y-123989000D01*
X145897999Y-75989000D02*
X145897999Y-75989000D01*
X106997995Y-71889000D02*
X92997995Y-71889000D01*
X107795997Y-75989000D02*
X107795997Y-75989000D01*
X107795997Y-84889000D02*
X107795997Y-84889000D01*
X173160000Y-91939001D02*
X173160000Y-91939001D01*
X215564998Y-132930002D02*
X215564998Y-132930002D01*
X92196996Y-122989000D02*
X92196996Y-122989000D01*
X86500996Y-130099001D02*
X86012996Y-129850001D01*
X216080990Y-59608001D02*
X216080990Y-59608001D01*
X81669996Y-61116001D02*
X81936996Y-60828001D01*
X106997995Y-110989000D02*
X106997995Y-109989000D01*
X126046997Y-91939001D02*
X126046997Y-91939001D01*
X126046997Y-103939001D02*
X126846996Y-103939001D01*
X126046997Y-95039000D02*
X126846996Y-95039000D01*
X106997995Y-84889000D02*
X106997995Y-84889000D01*
X216805996Y-135970003D02*
X216449001Y-136134005D01*
X214535991Y-133265001D02*
X215076992Y-133179003D01*
X168910000Y-85889000D02*
X168910000Y-84889000D01*
X87136996Y-130974001D02*
X87136996Y-130974001D01*
X154109996Y-122989000D02*
X154910000Y-122989000D01*
X215951992Y-132543001D02*
X215951992Y-132543001D01*
X85472996Y-136515001D02*
X85079996Y-136499003D01*
X107795997Y-81788000D02*
X107795997Y-81788000D01*
X216199993Y-63823001D02*
X215951992Y-63335001D01*
X168910000Y-75989000D02*
X169709995Y-75989000D01*
X216449001Y-136134005D02*
X216080990Y-136269999D01*
X218798992Y-134127001D02*
X218580990Y-134452997D01*
X84443996Y-62948001D02*
X84443996Y-62948001D01*
X219154995Y-62450001D02*
X219290996Y-62818001D01*
X145097995Y-119889002D02*
X145097995Y-119889002D01*
X106997995Y-123989000D02*
X106997995Y-122989000D01*
X168910000Y-84889000D02*
X169709995Y-84889000D01*
X213119991Y-65392001D02*
X213507000Y-65779001D01*
X187959995Y-103939001D02*
X188759998Y-103939001D01*
X219290996Y-133060000D02*
X219290996Y-133060000D01*
X173160000Y-100839003D02*
X173160000Y-100839003D01*
X106997995Y-114089003D02*
X106997995Y-114089003D01*
X214535991Y-129765001D02*
X213994991Y-129850001D01*
X216080990Y-136269999D02*
X216080990Y-136269999D01*
X130297996Y-75989000D02*
X130297996Y-75989000D01*
X207009990Y-123989000D02*
X207009990Y-123989000D01*
X169709995Y-114089003D02*
X169709995Y-114089003D01*
X80610996Y-132682001D02*
X80533996Y-132296999D01*
X87136996Y-132055002D02*
X87222996Y-131515001D01*
X218072002Y-60828001D02*
X218337993Y-61116001D01*
X92196996Y-81788000D02*
X92196996Y-81788000D01*
X215951992Y-63335001D02*
X215951992Y-63335001D01*
X215951992Y-130486002D02*
X215951992Y-130486002D01*
X87136996Y-130974001D02*
X86887996Y-130486002D01*
X84931996Y-62699001D02*
X84443996Y-62948001D01*
X126046997Y-103939001D02*
X126046997Y-103939001D01*
X215076992Y-66028001D02*
X215564998Y-65779001D01*
X126046997Y-91939001D02*
X126046997Y-90939001D01*
X168910000Y-85889000D02*
X168910000Y-85889000D01*
X82533996Y-60318001D02*
X82859996Y-60100001D01*
X169709995Y-122989000D02*
X169709995Y-122989000D01*
X193009998Y-114089003D02*
X193009998Y-114089003D01*
X84931996Y-129850001D02*
X84443996Y-130099001D01*
X112046997Y-104939001D02*
X126046997Y-104939001D01*
X86887996Y-130486002D02*
X86887996Y-130486002D01*
X86500996Y-130099001D02*
X86500996Y-130099001D01*
X216199993Y-130974001D02*
X215951992Y-130486002D01*
X212785991Y-131515001D02*
X212871990Y-132055002D01*
X145897999Y-84889000D02*
X145897999Y-81788000D01*
X215076992Y-66028001D02*
X215076992Y-66028001D01*
X84443996Y-65779001D02*
X84931996Y-66028001D01*
X106997995Y-81788000D02*
X106997995Y-81788000D01*
X193009998Y-85889000D02*
X193009998Y-85889000D01*
X212871990Y-132055002D02*
X213119991Y-132543001D01*
M02*
