%TF.GenerationSoftware,KiCad,Pcbnew,(6.0.8)*%
%TF.CreationDate,2022-10-26T23:53:46-06:00*%
%TF.ProjectId,plate,706c6174-652e-46b6-9963-61645f706362,rev?*%
%TF.SameCoordinates,Original*%
%TF.FileFunction,Legend,Bot*%
%TF.FilePolarity,Positive*%
%FSLAX46Y46*%
G04 Gerber Fmt 4.6, Leading zero omitted, Abs format (unit mm)*
G04 Created by KiCad (PCBNEW (6.0.8)) date 2022-10-26 23:53:46*
%MOMM*%
%LPD*%
G01*
G04 APERTURE LIST*
%ADD10C,0.150000*%
%ADD11R,1.700000X1.700000*%
%ADD12O,1.700000X1.700000*%
%ADD13C,2.000000*%
G04 APERTURE END LIST*
%LPC*%
D10*
X-142985119Y17415458D02*
X-142985119Y18082125D01*
X-141985119Y17653553D01*
X-142985119Y18653553D02*
X-142985119Y18748791D01*
X-142937500Y18844029D01*
X-142889880Y18891648D01*
X-142794642Y18939267D01*
X-142604166Y18986886D01*
X-142366071Y18986886D01*
X-142175595Y18939267D01*
X-142080357Y18891648D01*
X-142032738Y18844029D01*
X-141985119Y18748791D01*
X-141985119Y18653553D01*
X-142032738Y18558315D01*
X-142080357Y18510696D01*
X-142175595Y18463077D01*
X-142366071Y18415458D01*
X-142604166Y18415458D01*
X-142794642Y18463077D01*
X-142889880Y18510696D01*
X-142937500Y18558315D01*
X-142985119Y18653553D01*
X-142080357Y19415458D02*
X-142032738Y19463077D01*
X-141985119Y19415458D01*
X-142032738Y19367839D01*
X-142080357Y19415458D01*
X-141985119Y19415458D01*
X-142985119Y20320220D02*
X-142985119Y20129744D01*
X-142937500Y20034505D01*
X-142889880Y19986886D01*
X-142747023Y19891648D01*
X-142556547Y19844029D01*
X-142175595Y19844029D01*
X-142080357Y19891648D01*
X-142032738Y19939267D01*
X-141985119Y20034505D01*
X-141985119Y20224982D01*
X-142032738Y20320220D01*
X-142080357Y20367839D01*
X-142175595Y20415458D01*
X-142413690Y20415458D01*
X-142508928Y20367839D01*
X-142556547Y20320220D01*
X-142604166Y20224982D01*
X-142604166Y20034505D01*
X-142556547Y19939267D01*
X-142508928Y19891648D01*
X-142413690Y19844029D01*
X-142651785Y21272601D02*
X-141985119Y21272601D01*
X-143032738Y21034505D02*
X-142318452Y20796410D01*
X-142318452Y21415458D01*
X-142985119Y21701172D02*
X-142985119Y22320220D01*
X-142604166Y21986886D01*
X-142604166Y22129744D01*
X-142556547Y22224982D01*
X-142508928Y22272601D01*
X-142413690Y22320220D01*
X-142175595Y22320220D01*
X-142080357Y22272601D01*
X-142032738Y22224982D01*
X-141985119Y22129744D01*
X-141985119Y21844029D01*
X-142032738Y21748791D01*
X-142080357Y21701172D01*
X-142985119Y22653553D02*
X-142985119Y23320220D01*
X-141985119Y22891648D01*
X-141985119Y24463077D02*
X-142651785Y24463077D01*
X-142556547Y24463077D02*
X-142604166Y24510696D01*
X-142651785Y24605934D01*
X-142651785Y24748791D01*
X-142604166Y24844029D01*
X-142508928Y24891648D01*
X-141985119Y24891648D01*
X-142508928Y24891648D02*
X-142604166Y24939267D01*
X-142651785Y25034505D01*
X-142651785Y25177363D01*
X-142604166Y25272601D01*
X-142508928Y25320220D01*
X-141985119Y25320220D01*
X-141985119Y25796410D02*
X-142651785Y25796410D01*
X-142556547Y25796410D02*
X-142604166Y25844029D01*
X-142651785Y25939267D01*
X-142651785Y26082125D01*
X-142604166Y26177363D01*
X-142508928Y26224982D01*
X-141985119Y26224982D01*
X-142508928Y26224982D02*
X-142604166Y26272601D01*
X-142651785Y26367839D01*
X-142651785Y26510696D01*
X-142604166Y26605934D01*
X-142508928Y26653553D01*
X-141985119Y26653553D01*
X-140200000Y57404000D02*
X-141873920Y57404000D01*
X-140200000Y-13239750D02*
X-141873920Y-13239750D01*
X-141287500Y57404000D02*
X-141287500Y-13239750D01*
X-141287500Y57404000D02*
X-141287500Y-13239750D01*
X-141287500Y57404000D02*
X-141873921Y56277496D01*
X-141287500Y57404000D02*
X-140701079Y56277496D01*
X-141287500Y-13239750D02*
X-140701079Y-12113246D01*
X-141287500Y-13239750D02*
X-141873921Y-12113246D01*
D11*
%TO.C,REF\u002A\u002A*%
X178650000Y-124610000D03*
D12*
X181190000Y-124610000D03*
X183730000Y-124610000D03*
%TD*%
D13*
%TO.C,REF\u002A\u002A*%
X209856000Y-100366000D03*
X216356000Y-100366000D03*
X216356000Y-104866000D03*
X209856000Y-104866000D03*
%TD*%
%TO.C,REF\u002A\u002A*%
X209856000Y-91730000D03*
X216356000Y-91730000D03*
X216356000Y-96230000D03*
X209856000Y-96230000D03*
%TD*%
M02*
