%TF.GenerationSoftware,KiCad,Pcbnew,(6.0.8)*%
%TF.CreationDate,2022-10-24T13:23:10-06:00*%
%TF.ProjectId,pcb,7063622e-6b69-4636-9164-5f7063625858,rev?*%
%TF.SameCoordinates,Original*%
%TF.FileFunction,Soldermask,Bot*%
%TF.FilePolarity,Negative*%
%FSLAX46Y46*%
G04 Gerber Fmt 4.6, Leading zero omitted, Abs format (unit mm)*
G04 Created by KiCad (PCBNEW (6.0.8)) date 2022-10-24 13:23:10*
%MOMM*%
%LPD*%
G01*
G04 APERTURE LIST*
G04 Aperture macros list*
%AMRoundRect*
0 Rectangle with rounded corners*
0 $1 Rounding radius*
0 $2 $3 $4 $5 $6 $7 $8 $9 X,Y pos of 4 corners*
0 Add a 4 corners polygon primitive as box body*
4,1,4,$2,$3,$4,$5,$6,$7,$8,$9,$2,$3,0*
0 Add four circle primitives for the rounded corners*
1,1,$1+$1,$2,$3*
1,1,$1+$1,$4,$5*
1,1,$1+$1,$6,$7*
1,1,$1+$1,$8,$9*
0 Add four rect primitives between the rounded corners*
20,1,$1+$1,$2,$3,$4,$5,0*
20,1,$1+$1,$4,$5,$6,$7,0*
20,1,$1+$1,$6,$7,$8,$9,0*
20,1,$1+$1,$8,$9,$2,$3,0*%
G04 Aperture macros list end*
%ADD10C,0.150000*%
%ADD11RoundRect,0.250000X-0.350000X-0.450000X0.350000X-0.450000X0.350000X0.450000X-0.350000X0.450000X0*%
%ADD12RoundRect,0.250000X0.350000X0.450000X-0.350000X0.450000X-0.350000X-0.450000X0.350000X-0.450000X0*%
%ADD13C,1.750000*%
%ADD14C,3.987800*%
%ADD15C,2.250000*%
%ADD16C,1.905000*%
%ADD17R,1.905000X1.905000*%
%ADD18C,2.000000*%
%ADD19R,1.700000X1.700000*%
%ADD20O,1.700000X1.700000*%
%ADD21R,3.500000X1.700000*%
%ADD22R,1.700000X3.500000*%
G04 APERTURE END LIST*
D10*
X193728690Y-125013478D02*
X193728690Y-122981478D01*
X193728690Y-123949097D02*
X192567547Y-123949097D01*
X192567547Y-125013478D02*
X192567547Y-122981478D01*
X190729071Y-125013478D02*
X190729071Y-123949097D01*
X190825833Y-123755573D01*
X191019357Y-123658811D01*
X191406404Y-123658811D01*
X191599928Y-123755573D01*
X190729071Y-124916716D02*
X190922595Y-125013478D01*
X191406404Y-125013478D01*
X191599928Y-124916716D01*
X191696690Y-124723192D01*
X191696690Y-124529668D01*
X191599928Y-124336144D01*
X191406404Y-124239382D01*
X190922595Y-124239382D01*
X190729071Y-124142620D01*
X189761452Y-123658811D02*
X189761452Y-125013478D01*
X189761452Y-123852335D02*
X189664690Y-123755573D01*
X189471166Y-123658811D01*
X189180880Y-123658811D01*
X188987357Y-123755573D01*
X188890595Y-123949097D01*
X188890595Y-125013478D01*
X187052119Y-125013478D02*
X187052119Y-122981478D01*
X187052119Y-124916716D02*
X187245642Y-125013478D01*
X187632690Y-125013478D01*
X187826214Y-124916716D01*
X187922976Y-124819954D01*
X188019738Y-124626430D01*
X188019738Y-124045859D01*
X187922976Y-123852335D01*
X187826214Y-123755573D01*
X187632690Y-123658811D01*
X187245642Y-123658811D01*
X187052119Y-123755573D01*
X186084500Y-125013478D02*
X186084500Y-122981478D01*
X185310404Y-122981478D01*
X185116880Y-123078240D01*
X185020119Y-123175001D01*
X184923357Y-123368525D01*
X184923357Y-123658811D01*
X185020119Y-123852335D01*
X185116880Y-123949097D01*
X185310404Y-124045859D01*
X186084500Y-124045859D01*
X183181642Y-123658811D02*
X183181642Y-125013478D01*
X184052500Y-123658811D02*
X184052500Y-124723192D01*
X183955738Y-124916716D01*
X183762214Y-125013478D01*
X183471928Y-125013478D01*
X183278404Y-124916716D01*
X183181642Y-124819954D01*
X182214023Y-125013478D02*
X182214023Y-123658811D01*
X182214023Y-123852335D02*
X182117261Y-123755573D01*
X181923738Y-123658811D01*
X181633452Y-123658811D01*
X181439928Y-123755573D01*
X181343166Y-123949097D01*
X181343166Y-125013478D01*
X181343166Y-123949097D02*
X181246404Y-123755573D01*
X181052880Y-123658811D01*
X180762595Y-123658811D01*
X180569071Y-123755573D01*
X180472309Y-123949097D01*
X180472309Y-125013478D01*
X179504690Y-123658811D02*
X179504690Y-125690811D01*
X179504690Y-123755573D02*
X179311166Y-123658811D01*
X178924119Y-123658811D01*
X178730595Y-123755573D01*
X178633833Y-123852335D01*
X178537071Y-124045859D01*
X178537071Y-124626430D01*
X178633833Y-124819954D01*
X178730595Y-124916716D01*
X178924119Y-125013478D01*
X179311166Y-125013478D01*
X179504690Y-124916716D01*
X176118023Y-125013478D02*
X176118023Y-122981478D01*
X175343928Y-122981478D01*
X175150404Y-123078240D01*
X175053642Y-123175001D01*
X174956880Y-123368525D01*
X174956880Y-123658811D01*
X175053642Y-123852335D01*
X175150404Y-123949097D01*
X175343928Y-124045859D01*
X176118023Y-124045859D01*
X172924880Y-124819954D02*
X173021642Y-124916716D01*
X173311928Y-125013478D01*
X173505452Y-125013478D01*
X173795738Y-124916716D01*
X173989261Y-124723192D01*
X174086023Y-124529668D01*
X174182785Y-124142620D01*
X174182785Y-123852335D01*
X174086023Y-123465287D01*
X173989261Y-123271763D01*
X173795738Y-123078240D01*
X173505452Y-122981478D01*
X173311928Y-122981478D01*
X173021642Y-123078240D01*
X172924880Y-123175001D01*
X171376690Y-123949097D02*
X171086404Y-124045859D01*
X170989642Y-124142620D01*
X170892880Y-124336144D01*
X170892880Y-124626430D01*
X170989642Y-124819954D01*
X171086404Y-124916716D01*
X171279928Y-125013478D01*
X172054023Y-125013478D01*
X172054023Y-122981478D01*
X171376690Y-122981478D01*
X171183166Y-123078240D01*
X171086404Y-123175001D01*
X170989642Y-123368525D01*
X170989642Y-123562049D01*
X171086404Y-123755573D01*
X171183166Y-123852335D01*
X171376690Y-123949097D01*
X172054023Y-123949097D01*
X167312690Y-125013478D02*
X167990023Y-124045859D01*
X168473833Y-125013478D02*
X168473833Y-122981478D01*
X167699738Y-122981478D01*
X167506214Y-123078240D01*
X167409452Y-123175001D01*
X167312690Y-123368525D01*
X167312690Y-123658811D01*
X167409452Y-123852335D01*
X167506214Y-123949097D01*
X167699738Y-124045859D01*
X168473833Y-124045859D01*
X165667738Y-124916716D02*
X165861261Y-125013478D01*
X166248309Y-125013478D01*
X166441833Y-124916716D01*
X166538595Y-124723192D01*
X166538595Y-123949097D01*
X166441833Y-123755573D01*
X166248309Y-123658811D01*
X165861261Y-123658811D01*
X165667738Y-123755573D01*
X165570976Y-123949097D01*
X165570976Y-124142620D01*
X166538595Y-124336144D01*
X164893642Y-123658811D02*
X164409833Y-125013478D01*
X163926023Y-123658811D01*
X163151928Y-124819954D02*
X163055166Y-124916716D01*
X163151928Y-125013478D01*
X163248690Y-124916716D01*
X163151928Y-124819954D01*
X163151928Y-125013478D01*
X160732880Y-123175001D02*
X160636119Y-123078240D01*
X160442595Y-122981478D01*
X159958785Y-122981478D01*
X159765261Y-123078240D01*
X159668500Y-123175001D01*
X159571738Y-123368525D01*
X159571738Y-123562049D01*
X159668500Y-123852335D01*
X160829642Y-125013478D01*
X159571738Y-125013478D01*
X193728690Y-128284998D02*
X193728690Y-126252998D01*
X192857833Y-128284998D02*
X192857833Y-127220617D01*
X192954595Y-127027093D01*
X193148119Y-126930331D01*
X193438404Y-126930331D01*
X193631928Y-127027093D01*
X193728690Y-127123855D01*
X192180500Y-126930331D02*
X191406404Y-126930331D01*
X191890214Y-126252998D02*
X191890214Y-127994712D01*
X191793452Y-128188236D01*
X191599928Y-128284998D01*
X191406404Y-128284998D01*
X191019357Y-126930331D02*
X190245261Y-126930331D01*
X190729071Y-126252998D02*
X190729071Y-127994712D01*
X190632309Y-128188236D01*
X190438785Y-128284998D01*
X190245261Y-128284998D01*
X189567928Y-126930331D02*
X189567928Y-128962331D01*
X189567928Y-127027093D02*
X189374404Y-126930331D01*
X188987357Y-126930331D01*
X188793833Y-127027093D01*
X188697071Y-127123855D01*
X188600309Y-127317379D01*
X188600309Y-127897950D01*
X188697071Y-128091474D01*
X188793833Y-128188236D01*
X188987357Y-128284998D01*
X189374404Y-128284998D01*
X189567928Y-128188236D01*
X187826214Y-128188236D02*
X187632690Y-128284998D01*
X187245642Y-128284998D01*
X187052119Y-128188236D01*
X186955357Y-127994712D01*
X186955357Y-127897950D01*
X187052119Y-127704426D01*
X187245642Y-127607664D01*
X187535928Y-127607664D01*
X187729452Y-127510902D01*
X187826214Y-127317379D01*
X187826214Y-127220617D01*
X187729452Y-127027093D01*
X187535928Y-126930331D01*
X187245642Y-126930331D01*
X187052119Y-127027093D01*
X186084500Y-128091474D02*
X185987738Y-128188236D01*
X186084500Y-128284998D01*
X186181261Y-128188236D01*
X186084500Y-128091474D01*
X186084500Y-128284998D01*
X186084500Y-127027093D02*
X185987738Y-127123855D01*
X186084500Y-127220617D01*
X186181261Y-127123855D01*
X186084500Y-127027093D01*
X186084500Y-127220617D01*
X183665452Y-126156236D02*
X185407166Y-128768807D01*
X181536690Y-126156236D02*
X183278404Y-128768807D01*
X179988500Y-126930331D02*
X179988500Y-128575283D01*
X180085261Y-128768807D01*
X180182023Y-128865569D01*
X180375547Y-128962331D01*
X180665833Y-128962331D01*
X180859357Y-128865569D01*
X179988500Y-128188236D02*
X180182023Y-128284998D01*
X180569071Y-128284998D01*
X180762595Y-128188236D01*
X180859357Y-128091474D01*
X180956119Y-127897950D01*
X180956119Y-127317379D01*
X180859357Y-127123855D01*
X180762595Y-127027093D01*
X180569071Y-126930331D01*
X180182023Y-126930331D01*
X179988500Y-127027093D01*
X179020880Y-128284998D02*
X179020880Y-126930331D01*
X179020880Y-126252998D02*
X179117642Y-126349760D01*
X179020880Y-126446521D01*
X178924119Y-126349760D01*
X179020880Y-126252998D01*
X179020880Y-126446521D01*
X178343547Y-126930331D02*
X177569452Y-126930331D01*
X178053261Y-126252998D02*
X178053261Y-127994712D01*
X177956500Y-128188236D01*
X177762976Y-128284998D01*
X177569452Y-128284998D01*
X176892119Y-128284998D02*
X176892119Y-126252998D01*
X176021261Y-128284998D02*
X176021261Y-127220617D01*
X176118023Y-127027093D01*
X176311547Y-126930331D01*
X176601833Y-126930331D01*
X176795357Y-127027093D01*
X176892119Y-127123855D01*
X174182785Y-126930331D02*
X174182785Y-128284998D01*
X175053642Y-126930331D02*
X175053642Y-127994712D01*
X174956880Y-128188236D01*
X174763357Y-128284998D01*
X174473071Y-128284998D01*
X174279547Y-128188236D01*
X174182785Y-128091474D01*
X173215166Y-128284998D02*
X173215166Y-126252998D01*
X173215166Y-127027093D02*
X173021642Y-126930331D01*
X172634595Y-126930331D01*
X172441071Y-127027093D01*
X172344309Y-127123855D01*
X172247547Y-127317379D01*
X172247547Y-127897950D01*
X172344309Y-128091474D01*
X172441071Y-128188236D01*
X172634595Y-128284998D01*
X173021642Y-128284998D01*
X173215166Y-128188236D01*
X171376690Y-128091474D02*
X171279928Y-128188236D01*
X171376690Y-128284998D01*
X171473452Y-128188236D01*
X171376690Y-128091474D01*
X171376690Y-128284998D01*
X169538214Y-128188236D02*
X169731738Y-128284998D01*
X170118785Y-128284998D01*
X170312309Y-128188236D01*
X170409071Y-128091474D01*
X170505833Y-127897950D01*
X170505833Y-127317379D01*
X170409071Y-127123855D01*
X170312309Y-127027093D01*
X170118785Y-126930331D01*
X169731738Y-126930331D01*
X169538214Y-127027093D01*
X168377071Y-128284998D02*
X168570595Y-128188236D01*
X168667357Y-128091474D01*
X168764119Y-127897950D01*
X168764119Y-127317379D01*
X168667357Y-127123855D01*
X168570595Y-127027093D01*
X168377071Y-126930331D01*
X168086785Y-126930331D01*
X167893261Y-127027093D01*
X167796500Y-127123855D01*
X167699738Y-127317379D01*
X167699738Y-127897950D01*
X167796500Y-128091474D01*
X167893261Y-128188236D01*
X168086785Y-128284998D01*
X168377071Y-128284998D01*
X166828880Y-128284998D02*
X166828880Y-126930331D01*
X166828880Y-127123855D02*
X166732119Y-127027093D01*
X166538595Y-126930331D01*
X166248309Y-126930331D01*
X166054785Y-127027093D01*
X165958023Y-127220617D01*
X165958023Y-128284998D01*
X165958023Y-127220617D02*
X165861261Y-127027093D01*
X165667738Y-126930331D01*
X165377452Y-126930331D01*
X165183928Y-127027093D01*
X165087166Y-127220617D01*
X165087166Y-128284998D01*
X162668119Y-126156236D02*
X164409833Y-128768807D01*
X161119928Y-128284998D02*
X161119928Y-126252998D01*
X161119928Y-128188236D02*
X161313452Y-128284998D01*
X161700500Y-128284998D01*
X161894023Y-128188236D01*
X161990785Y-128091474D01*
X162087547Y-127897950D01*
X162087547Y-127317379D01*
X161990785Y-127123855D01*
X161894023Y-127027093D01*
X161700500Y-126930331D01*
X161313452Y-126930331D01*
X161119928Y-127027093D01*
X160152309Y-126930331D02*
X160152309Y-128672045D01*
X160249071Y-128865569D01*
X160442595Y-128962331D01*
X160539357Y-128962331D01*
X160152309Y-126252998D02*
X160249071Y-126349760D01*
X160152309Y-126446521D01*
X160055547Y-126349760D01*
X160152309Y-126252998D01*
X160152309Y-126446521D01*
X158217071Y-126252998D02*
X159184690Y-126252998D01*
X159281452Y-127220617D01*
X159184690Y-127123855D01*
X158991166Y-127027093D01*
X158507357Y-127027093D01*
X158313833Y-127123855D01*
X158217071Y-127220617D01*
X158120309Y-127414140D01*
X158120309Y-127897950D01*
X158217071Y-128091474D01*
X158313833Y-128188236D01*
X158507357Y-128284998D01*
X158991166Y-128284998D01*
X159184690Y-128188236D01*
X159281452Y-128091474D01*
X156862404Y-126252998D02*
X156668880Y-126252998D01*
X156475357Y-126349760D01*
X156378595Y-126446521D01*
X156281833Y-126640045D01*
X156185071Y-127027093D01*
X156185071Y-127510902D01*
X156281833Y-127897950D01*
X156378595Y-128091474D01*
X156475357Y-128188236D01*
X156668880Y-128284998D01*
X156862404Y-128284998D01*
X157055928Y-128188236D01*
X157152690Y-128091474D01*
X157249452Y-127897950D01*
X157346214Y-127510902D01*
X157346214Y-127027093D01*
X157249452Y-126640045D01*
X157152690Y-126446521D01*
X157055928Y-126349760D01*
X156862404Y-126252998D01*
X154346595Y-126252998D02*
X155314214Y-126252998D01*
X155410976Y-127220617D01*
X155314214Y-127123855D01*
X155120690Y-127027093D01*
X154636880Y-127027093D01*
X154443357Y-127123855D01*
X154346595Y-127220617D01*
X154249833Y-127414140D01*
X154249833Y-127897950D01*
X154346595Y-128091474D01*
X154443357Y-128188236D01*
X154636880Y-128284998D01*
X155120690Y-128284998D01*
X155314214Y-128188236D01*
X155410976Y-128091474D01*
X151927547Y-126156236D02*
X153669261Y-128768807D01*
X151250214Y-128284998D02*
X151250214Y-126252998D01*
X150379357Y-128284998D02*
X150379357Y-127220617D01*
X150476119Y-127027093D01*
X150669642Y-126930331D01*
X150959928Y-126930331D01*
X151153452Y-127027093D01*
X151250214Y-127123855D01*
X148540880Y-128284998D02*
X148540880Y-127220617D01*
X148637642Y-127027093D01*
X148831166Y-126930331D01*
X149218214Y-126930331D01*
X149411738Y-127027093D01*
X148540880Y-128188236D02*
X148734404Y-128284998D01*
X149218214Y-128284998D01*
X149411738Y-128188236D01*
X149508500Y-127994712D01*
X149508500Y-127801188D01*
X149411738Y-127607664D01*
X149218214Y-127510902D01*
X148734404Y-127510902D01*
X148540880Y-127414140D01*
X147573261Y-126930331D02*
X147573261Y-128284998D01*
X147573261Y-127123855D02*
X147476500Y-127027093D01*
X147282976Y-126930331D01*
X146992690Y-126930331D01*
X146799166Y-127027093D01*
X146702404Y-127220617D01*
X146702404Y-128284998D01*
X144863928Y-128284998D02*
X144863928Y-126252998D01*
X144863928Y-128188236D02*
X145057452Y-128284998D01*
X145444500Y-128284998D01*
X145638023Y-128188236D01*
X145734785Y-128091474D01*
X145831547Y-127897950D01*
X145831547Y-127317379D01*
X145734785Y-127123855D01*
X145638023Y-127027093D01*
X145444500Y-126930331D01*
X145057452Y-126930331D01*
X144863928Y-127027093D01*
X143896309Y-126930331D02*
X143896309Y-128962331D01*
X143896309Y-127027093D02*
X143702785Y-126930331D01*
X143315738Y-126930331D01*
X143122214Y-127027093D01*
X143025452Y-127123855D01*
X142928690Y-127317379D01*
X142928690Y-127897950D01*
X143025452Y-128091474D01*
X143122214Y-128188236D01*
X143315738Y-128284998D01*
X143702785Y-128284998D01*
X143896309Y-128188236D01*
X141186976Y-126930331D02*
X141186976Y-128284998D01*
X142057833Y-126930331D02*
X142057833Y-127994712D01*
X141961071Y-128188236D01*
X141767547Y-128284998D01*
X141477261Y-128284998D01*
X141283738Y-128188236D01*
X141186976Y-128091474D01*
X140219357Y-128284998D02*
X140219357Y-126930331D01*
X140219357Y-127123855D02*
X140122595Y-127027093D01*
X139929071Y-126930331D01*
X139638785Y-126930331D01*
X139445261Y-127027093D01*
X139348500Y-127220617D01*
X139348500Y-128284998D01*
X139348500Y-127220617D02*
X139251738Y-127027093D01*
X139058214Y-126930331D01*
X138767928Y-126930331D01*
X138574404Y-127027093D01*
X138477642Y-127220617D01*
X138477642Y-128284998D01*
X137510023Y-126930331D02*
X137510023Y-128962331D01*
X137510023Y-127027093D02*
X137316500Y-126930331D01*
X136929452Y-126930331D01*
X136735928Y-127027093D01*
X136639166Y-127123855D01*
X136542404Y-127317379D01*
X136542404Y-127897950D01*
X136639166Y-128091474D01*
X136735928Y-128188236D01*
X136929452Y-128284998D01*
X137316500Y-128284998D01*
X137510023Y-128188236D01*
X146538190Y-61388761D02*
X146538190Y-61769714D01*
X145776285Y-61388761D02*
X145776285Y-61769714D01*
X145109619Y-61388761D02*
X144633428Y-63388761D01*
X144252476Y-61960190D01*
X143871523Y-63388761D01*
X143395333Y-61388761D01*
X142633428Y-63388761D02*
X142633428Y-61388761D01*
X141776285Y-63388761D02*
X141776285Y-62341142D01*
X141871523Y-62150666D01*
X142062000Y-62055428D01*
X142347714Y-62055428D01*
X142538190Y-62150666D01*
X142633428Y-62245904D01*
X141014380Y-62055428D02*
X140538190Y-63388761D01*
X140062000Y-62055428D02*
X140538190Y-63388761D01*
X140728666Y-63864952D01*
X140823904Y-63960190D01*
X141014380Y-64055428D01*
X137871523Y-63293523D02*
X137681047Y-63388761D01*
X137300095Y-63388761D01*
X137109619Y-63293523D01*
X137014380Y-63103047D01*
X137014380Y-63007809D01*
X137109619Y-62817333D01*
X137300095Y-62722095D01*
X137585809Y-62722095D01*
X137776285Y-62626857D01*
X137871523Y-62436380D01*
X137871523Y-62341142D01*
X137776285Y-62150666D01*
X137585809Y-62055428D01*
X137300095Y-62055428D01*
X137109619Y-62150666D01*
X135395333Y-63293523D02*
X135585809Y-63388761D01*
X135966761Y-63388761D01*
X136157238Y-63293523D01*
X136252476Y-63103047D01*
X136252476Y-62341142D01*
X136157238Y-62150666D01*
X135966761Y-62055428D01*
X135585809Y-62055428D01*
X135395333Y-62150666D01*
X135300095Y-62341142D01*
X135300095Y-62531619D01*
X136252476Y-62722095D01*
X134728666Y-62055428D02*
X133966761Y-62055428D01*
X134442952Y-61388761D02*
X134442952Y-63103047D01*
X134347714Y-63293523D01*
X134157238Y-63388761D01*
X133966761Y-63388761D01*
X133585809Y-62055428D02*
X132823904Y-62055428D01*
X133300095Y-61388761D02*
X133300095Y-63103047D01*
X133204857Y-63293523D01*
X133014380Y-63388761D01*
X132823904Y-63388761D01*
X131871523Y-63388761D02*
X132062000Y-63293523D01*
X132157238Y-63103047D01*
X132157238Y-61388761D01*
X130347714Y-63293523D02*
X130538190Y-63388761D01*
X130919142Y-63388761D01*
X131109619Y-63293523D01*
X131204857Y-63103047D01*
X131204857Y-62341142D01*
X131109619Y-62150666D01*
X130919142Y-62055428D01*
X130538190Y-62055428D01*
X130347714Y-62150666D01*
X130252476Y-62341142D01*
X130252476Y-62531619D01*
X131204857Y-62722095D01*
X128157238Y-62055428D02*
X127395333Y-62055428D01*
X127871523Y-63388761D02*
X127871523Y-61674476D01*
X127776285Y-61484000D01*
X127585809Y-61388761D01*
X127395333Y-61388761D01*
X126442952Y-63388761D02*
X126633428Y-63293523D01*
X126728666Y-63198285D01*
X126823904Y-63007809D01*
X126823904Y-62436380D01*
X126728666Y-62245904D01*
X126633428Y-62150666D01*
X126442952Y-62055428D01*
X126157238Y-62055428D01*
X125966761Y-62150666D01*
X125871523Y-62245904D01*
X125776285Y-62436380D01*
X125776285Y-63007809D01*
X125871523Y-63198285D01*
X125966761Y-63293523D01*
X126157238Y-63388761D01*
X126442952Y-63388761D01*
X124919142Y-63388761D02*
X124919142Y-62055428D01*
X124919142Y-62436380D02*
X124823904Y-62245904D01*
X124728666Y-62150666D01*
X124538190Y-62055428D01*
X124347714Y-62055428D01*
X121300095Y-62055428D02*
X121300095Y-63388761D01*
X121776285Y-61293523D02*
X122252476Y-62722095D01*
X121014380Y-62722095D01*
X118919142Y-62055428D02*
X118538190Y-63388761D01*
X118157238Y-62436380D01*
X117776285Y-63388761D01*
X117395333Y-62055428D01*
X116633428Y-63388761D02*
X116633428Y-61388761D01*
X115776285Y-63388761D02*
X115776285Y-62341142D01*
X115871523Y-62150666D01*
X116062000Y-62055428D01*
X116347714Y-62055428D01*
X116538190Y-62150666D01*
X116633428Y-62245904D01*
X114062000Y-63293523D02*
X114252476Y-63388761D01*
X114633428Y-63388761D01*
X114823904Y-63293523D01*
X114919142Y-63103047D01*
X114919142Y-62341142D01*
X114823904Y-62150666D01*
X114633428Y-62055428D01*
X114252476Y-62055428D01*
X114062000Y-62150666D01*
X113966761Y-62341142D01*
X113966761Y-62531619D01*
X114919142Y-62722095D01*
X113109619Y-62055428D02*
X113109619Y-63388761D01*
X113109619Y-62245904D02*
X113014380Y-62150666D01*
X112823904Y-62055428D01*
X112538190Y-62055428D01*
X112347714Y-62150666D01*
X112252476Y-62341142D01*
X112252476Y-63388761D01*
X109966761Y-62055428D02*
X109490571Y-63388761D01*
X109014380Y-62055428D02*
X109490571Y-63388761D01*
X109681047Y-63864952D01*
X109776285Y-63960190D01*
X109966761Y-64055428D01*
X107966761Y-63388761D02*
X108157238Y-63293523D01*
X108252476Y-63198285D01*
X108347714Y-63007809D01*
X108347714Y-62436380D01*
X108252476Y-62245904D01*
X108157238Y-62150666D01*
X107966761Y-62055428D01*
X107681047Y-62055428D01*
X107490571Y-62150666D01*
X107395333Y-62245904D01*
X107300095Y-62436380D01*
X107300095Y-63007809D01*
X107395333Y-63198285D01*
X107490571Y-63293523D01*
X107681047Y-63388761D01*
X107966761Y-63388761D01*
X105585809Y-62055428D02*
X105585809Y-63388761D01*
X106442952Y-62055428D02*
X106442952Y-63103047D01*
X106347714Y-63293523D01*
X106157238Y-63388761D01*
X105871523Y-63388761D01*
X105681047Y-63293523D01*
X105585809Y-63198285D01*
X102252476Y-63293523D02*
X102442952Y-63388761D01*
X102823904Y-63388761D01*
X103014380Y-63293523D01*
X103109619Y-63198285D01*
X103204857Y-63007809D01*
X103204857Y-62436380D01*
X103109619Y-62245904D01*
X103014380Y-62150666D01*
X102823904Y-62055428D01*
X102442952Y-62055428D01*
X102252476Y-62150666D01*
X100538190Y-63388761D02*
X100538190Y-62341142D01*
X100633428Y-62150666D01*
X100823904Y-62055428D01*
X101204857Y-62055428D01*
X101395333Y-62150666D01*
X100538190Y-63293523D02*
X100728666Y-63388761D01*
X101204857Y-63388761D01*
X101395333Y-63293523D01*
X101490571Y-63103047D01*
X101490571Y-62912571D01*
X101395333Y-62722095D01*
X101204857Y-62626857D01*
X100728666Y-62626857D01*
X100538190Y-62531619D01*
X99585809Y-62055428D02*
X99585809Y-63388761D01*
X99585809Y-62245904D02*
X99490571Y-62150666D01*
X99300095Y-62055428D01*
X99014380Y-62055428D01*
X98823904Y-62150666D01*
X98728666Y-62341142D01*
X98728666Y-63388761D01*
X96252476Y-63388761D02*
X96252476Y-61388761D01*
X95395333Y-63388761D02*
X95395333Y-62341142D01*
X95490571Y-62150666D01*
X95681047Y-62055428D01*
X95966761Y-62055428D01*
X96157238Y-62150666D01*
X96252476Y-62245904D01*
X93585809Y-63388761D02*
X93585809Y-62341142D01*
X93681047Y-62150666D01*
X93871523Y-62055428D01*
X94252476Y-62055428D01*
X94442952Y-62150666D01*
X93585809Y-63293523D02*
X93776285Y-63388761D01*
X94252476Y-63388761D01*
X94442952Y-63293523D01*
X94538190Y-63103047D01*
X94538190Y-62912571D01*
X94442952Y-62722095D01*
X94252476Y-62626857D01*
X93776285Y-62626857D01*
X93585809Y-62531619D01*
X92823904Y-62055428D02*
X92347714Y-63388761D01*
X91871523Y-62055428D01*
X90347714Y-63293523D02*
X90538190Y-63388761D01*
X90919142Y-63388761D01*
X91109619Y-63293523D01*
X91204857Y-63103047D01*
X91204857Y-62341142D01*
X91109619Y-62150666D01*
X90919142Y-62055428D01*
X90538190Y-62055428D01*
X90347714Y-62150666D01*
X90252476Y-62341142D01*
X90252476Y-62531619D01*
X91204857Y-62722095D01*
X86919142Y-61388761D02*
X87871523Y-61388761D01*
X87966761Y-62341142D01*
X87871523Y-62245904D01*
X87681047Y-62150666D01*
X87204857Y-62150666D01*
X87014380Y-62245904D01*
X86919142Y-62341142D01*
X86823904Y-62531619D01*
X86823904Y-63007809D01*
X86919142Y-63198285D01*
X87014380Y-63293523D01*
X87204857Y-63388761D01*
X87681047Y-63388761D01*
X87871523Y-63293523D01*
X87966761Y-63198285D01*
X85681047Y-63198285D02*
X85585809Y-63293523D01*
X85681047Y-63388761D01*
X85776285Y-63293523D01*
X85681047Y-63198285D01*
X85681047Y-63388761D01*
X86062000Y-61484000D02*
X85871523Y-61388761D01*
X85395333Y-61388761D01*
X85204857Y-61484000D01*
X85109619Y-61674476D01*
X85109619Y-61864952D01*
X85204857Y-62055428D01*
X85300095Y-62150666D01*
X85490571Y-62245904D01*
X85585809Y-62341142D01*
X85681047Y-62531619D01*
X85681047Y-62626857D01*
X84347714Y-61388761D02*
X84347714Y-61769714D01*
X83585809Y-61388761D02*
X83585809Y-61769714D01*
X137557440Y-57246130D02*
X136986011Y-57246130D01*
X137271726Y-57246130D02*
X137271726Y-56246130D01*
X137176488Y-56388988D01*
X137081250Y-56484226D01*
X136986011Y-56531845D01*
X137938392Y-56341369D02*
X137986011Y-56293750D01*
X138081250Y-56246130D01*
X138319345Y-56246130D01*
X138414583Y-56293750D01*
X138462202Y-56341369D01*
X138509821Y-56436607D01*
X138509821Y-56531845D01*
X138462202Y-56674702D01*
X137890773Y-57246130D01*
X138509821Y-57246130D01*
X139128869Y-56246130D02*
X139224107Y-56246130D01*
X139319345Y-56293750D01*
X139366964Y-56341369D01*
X139414583Y-56436607D01*
X139462202Y-56627083D01*
X139462202Y-56865178D01*
X139414583Y-57055654D01*
X139366964Y-57150892D01*
X139319345Y-57198511D01*
X139224107Y-57246130D01*
X139128869Y-57246130D01*
X139033630Y-57198511D01*
X138986011Y-57150892D01*
X138938392Y-57055654D01*
X138890773Y-56865178D01*
X138890773Y-56627083D01*
X138938392Y-56436607D01*
X138986011Y-56341369D01*
X139033630Y-56293750D01*
X139128869Y-56246130D01*
X139890773Y-57150892D02*
X139938392Y-57198511D01*
X139890773Y-57246130D01*
X139843154Y-57198511D01*
X139890773Y-57150892D01*
X139890773Y-57246130D01*
X140795535Y-56246130D02*
X140605059Y-56246130D01*
X140509821Y-56293750D01*
X140462202Y-56341369D01*
X140366964Y-56484226D01*
X140319345Y-56674702D01*
X140319345Y-57055654D01*
X140366964Y-57150892D01*
X140414583Y-57198511D01*
X140509821Y-57246130D01*
X140700297Y-57246130D01*
X140795535Y-57198511D01*
X140843154Y-57150892D01*
X140890773Y-57055654D01*
X140890773Y-56817559D01*
X140843154Y-56722321D01*
X140795535Y-56674702D01*
X140700297Y-56627083D01*
X140509821Y-56627083D01*
X140414583Y-56674702D01*
X140366964Y-56722321D01*
X140319345Y-56817559D01*
X141795535Y-56246130D02*
X141319345Y-56246130D01*
X141271726Y-56722321D01*
X141319345Y-56674702D01*
X141414583Y-56627083D01*
X141652678Y-56627083D01*
X141747916Y-56674702D01*
X141795535Y-56722321D01*
X141843154Y-56817559D01*
X141843154Y-57055654D01*
X141795535Y-57150892D01*
X141747916Y-57198511D01*
X141652678Y-57246130D01*
X141414583Y-57246130D01*
X141319345Y-57198511D01*
X141271726Y-57150892D01*
X142462202Y-56246130D02*
X142557440Y-56246130D01*
X142652678Y-56293750D01*
X142700297Y-56341369D01*
X142747916Y-56436607D01*
X142795535Y-56627083D01*
X142795535Y-56865178D01*
X142747916Y-57055654D01*
X142700297Y-57150892D01*
X142652678Y-57198511D01*
X142557440Y-57246130D01*
X142462202Y-57246130D01*
X142366964Y-57198511D01*
X142319345Y-57150892D01*
X142271726Y-57055654D01*
X142224107Y-56865178D01*
X142224107Y-56627083D01*
X142271726Y-56436607D01*
X142319345Y-56341369D01*
X142366964Y-56293750D01*
X142462202Y-56246130D01*
X143414583Y-56246130D02*
X143509821Y-56246130D01*
X143605059Y-56293750D01*
X143652678Y-56341369D01*
X143700297Y-56436607D01*
X143747916Y-56627083D01*
X143747916Y-56865178D01*
X143700297Y-57055654D01*
X143652678Y-57150892D01*
X143605059Y-57198511D01*
X143509821Y-57246130D01*
X143414583Y-57246130D01*
X143319345Y-57198511D01*
X143271726Y-57150892D01*
X143224107Y-57055654D01*
X143176488Y-56865178D01*
X143176488Y-56627083D01*
X143224107Y-56436607D01*
X143271726Y-56341369D01*
X143319345Y-56293750D01*
X143414583Y-56246130D01*
X144938392Y-57246130D02*
X144938392Y-56579464D01*
X144938392Y-56674702D02*
X144986011Y-56627083D01*
X145081250Y-56579464D01*
X145224107Y-56579464D01*
X145319345Y-56627083D01*
X145366964Y-56722321D01*
X145366964Y-57246130D01*
X145366964Y-56722321D02*
X145414583Y-56627083D01*
X145509821Y-56579464D01*
X145652678Y-56579464D01*
X145747916Y-56627083D01*
X145795535Y-56722321D01*
X145795535Y-57246130D01*
X146271726Y-57246130D02*
X146271726Y-56579464D01*
X146271726Y-56674702D02*
X146319345Y-56627083D01*
X146414583Y-56579464D01*
X146557440Y-56579464D01*
X146652678Y-56627083D01*
X146700297Y-56722321D01*
X146700297Y-57246130D01*
X146700297Y-56722321D02*
X146747916Y-56627083D01*
X146843154Y-56579464D01*
X146986011Y-56579464D01*
X147081250Y-56627083D01*
X147128869Y-56722321D01*
X147128869Y-57246130D01*
X202406250Y-59031250D02*
X202406250Y-57357330D01*
X81756250Y-59031250D02*
X81756250Y-57357330D01*
X202406250Y-57943750D02*
X81756250Y-57943750D01*
X202406250Y-57943750D02*
X81756250Y-57943750D01*
X202406250Y-57943750D02*
X201279746Y-57357329D01*
X202406250Y-57943750D02*
X201279746Y-58530171D01*
X81756250Y-57943750D02*
X82882754Y-58530171D01*
X81756250Y-57943750D02*
X82882754Y-57357329D01*
X78471130Y-99519791D02*
X78471130Y-98853125D01*
X79471130Y-99281696D01*
X78471130Y-98281696D02*
X78471130Y-98186458D01*
X78518750Y-98091220D01*
X78566369Y-98043601D01*
X78661607Y-97995982D01*
X78852083Y-97948363D01*
X79090178Y-97948363D01*
X79280654Y-97995982D01*
X79375892Y-98043601D01*
X79423511Y-98091220D01*
X79471130Y-98186458D01*
X79471130Y-98281696D01*
X79423511Y-98376934D01*
X79375892Y-98424553D01*
X79280654Y-98472172D01*
X79090178Y-98519791D01*
X78852083Y-98519791D01*
X78661607Y-98472172D01*
X78566369Y-98424553D01*
X78518750Y-98376934D01*
X78471130Y-98281696D01*
X79375892Y-97519791D02*
X79423511Y-97472172D01*
X79471130Y-97519791D01*
X79423511Y-97567410D01*
X79375892Y-97519791D01*
X79471130Y-97519791D01*
X78471130Y-96615029D02*
X78471130Y-96805505D01*
X78518750Y-96900744D01*
X78566369Y-96948363D01*
X78709226Y-97043601D01*
X78899702Y-97091220D01*
X79280654Y-97091220D01*
X79375892Y-97043601D01*
X79423511Y-96995982D01*
X79471130Y-96900744D01*
X79471130Y-96710267D01*
X79423511Y-96615029D01*
X79375892Y-96567410D01*
X79280654Y-96519791D01*
X79042559Y-96519791D01*
X78947321Y-96567410D01*
X78899702Y-96615029D01*
X78852083Y-96710267D01*
X78852083Y-96900744D01*
X78899702Y-96995982D01*
X78947321Y-97043601D01*
X79042559Y-97091220D01*
X78804464Y-95662648D02*
X79471130Y-95662648D01*
X78423511Y-95900744D02*
X79137797Y-96138839D01*
X79137797Y-95519791D01*
X78471130Y-95234077D02*
X78471130Y-94615029D01*
X78852083Y-94948363D01*
X78852083Y-94805505D01*
X78899702Y-94710267D01*
X78947321Y-94662648D01*
X79042559Y-94615029D01*
X79280654Y-94615029D01*
X79375892Y-94662648D01*
X79423511Y-94710267D01*
X79471130Y-94805505D01*
X79471130Y-95091220D01*
X79423511Y-95186458D01*
X79375892Y-95234077D01*
X78471130Y-94281696D02*
X78471130Y-93615029D01*
X79471130Y-94043601D01*
X79471130Y-92472172D02*
X78804464Y-92472172D01*
X78899702Y-92472172D02*
X78852083Y-92424553D01*
X78804464Y-92329315D01*
X78804464Y-92186458D01*
X78852083Y-92091220D01*
X78947321Y-92043601D01*
X79471130Y-92043601D01*
X78947321Y-92043601D02*
X78852083Y-91995982D01*
X78804464Y-91900744D01*
X78804464Y-91757886D01*
X78852083Y-91662648D01*
X78947321Y-91615029D01*
X79471130Y-91615029D01*
X79471130Y-91138839D02*
X78804464Y-91138839D01*
X78899702Y-91138839D02*
X78852083Y-91091220D01*
X78804464Y-90995982D01*
X78804464Y-90853125D01*
X78852083Y-90757886D01*
X78947321Y-90710267D01*
X79471130Y-90710267D01*
X78947321Y-90710267D02*
X78852083Y-90662648D01*
X78804464Y-90567410D01*
X78804464Y-90424553D01*
X78852083Y-90329315D01*
X78947321Y-90281696D01*
X79471130Y-90281696D01*
X81256250Y-59531250D02*
X79582330Y-59531250D01*
X81256250Y-130175000D02*
X79582330Y-130175000D01*
X80168750Y-59531250D02*
X80168750Y-130175000D01*
X80168750Y-59531250D02*
X80168750Y-130175000D01*
X80168750Y-59531250D02*
X79582329Y-60657754D01*
X80168750Y-59531250D02*
X80755171Y-60657754D01*
X80168750Y-130175000D02*
X80755171Y-129048496D01*
X80168750Y-130175000D02*
X79582329Y-129048496D01*
%TO.C,G\u002A\u002A\u002A*%
G36*
X119525379Y-115075147D02*
G01*
X119378676Y-115542350D01*
X119171616Y-115988731D01*
X118903492Y-116416713D01*
X118793755Y-116564373D01*
X118451582Y-116954886D01*
X118071448Y-117292963D01*
X117653871Y-117578282D01*
X117199371Y-117810518D01*
X116708465Y-117989349D01*
X116181673Y-118114450D01*
X116107370Y-118125916D01*
X115879873Y-118145556D01*
X115615299Y-118151508D01*
X115332402Y-118144486D01*
X115049938Y-118125204D01*
X114786659Y-118094377D01*
X114561320Y-118052720D01*
X114183537Y-117947559D01*
X113661224Y-117746627D01*
X113146725Y-117484149D01*
X112642857Y-117161977D01*
X112152434Y-116781966D01*
X111678272Y-116345967D01*
X111223186Y-115855833D01*
X111167704Y-115792209D01*
X111086223Y-115702167D01*
X111026290Y-115640300D01*
X110998000Y-115617301D01*
X110985233Y-115625971D01*
X110936599Y-115673755D01*
X110862427Y-115753941D01*
X110772813Y-115855833D01*
X110515920Y-116141383D01*
X110058075Y-116592149D01*
X109581016Y-116992407D01*
X109089551Y-117338585D01*
X108588490Y-117627111D01*
X108082639Y-117854413D01*
X108027530Y-117875284D01*
X107521712Y-118031113D01*
X107013889Y-118125385D01*
X106508541Y-118159389D01*
X106010149Y-118134418D01*
X105523192Y-118051760D01*
X105052151Y-117912709D01*
X104601507Y-117718553D01*
X104175740Y-117470585D01*
X103779331Y-117170095D01*
X103416760Y-116818374D01*
X103092507Y-116416713D01*
X103001378Y-116283677D01*
X102752574Y-115850158D01*
X102564612Y-115397477D01*
X102436783Y-114923209D01*
X102368381Y-114424928D01*
X102360649Y-114005959D01*
X104074214Y-114005959D01*
X104091641Y-114368576D01*
X104165167Y-114714529D01*
X104176665Y-114751124D01*
X104328577Y-115121530D01*
X104532113Y-115454395D01*
X104784054Y-115746504D01*
X105081183Y-115994640D01*
X105420280Y-116195588D01*
X105798127Y-116346133D01*
X105915979Y-116377429D01*
X106177761Y-116418756D01*
X106463574Y-116433908D01*
X106749858Y-116422175D01*
X107013051Y-116382844D01*
X107402522Y-116267940D01*
X107804314Y-116090066D01*
X108206935Y-115853773D01*
X108606393Y-115561983D01*
X108998697Y-115217616D01*
X109379856Y-114823594D01*
X109745878Y-114382836D01*
X109989159Y-114067327D01*
X112006841Y-114067327D01*
X112252879Y-114388743D01*
X112305497Y-114455683D01*
X112465527Y-114644869D01*
X112652948Y-114850673D01*
X112856479Y-115061865D01*
X113064844Y-115267218D01*
X113266762Y-115455503D01*
X113450956Y-115615492D01*
X113606145Y-115735956D01*
X113858007Y-115903695D01*
X114263674Y-116127459D01*
X114667454Y-116291370D01*
X115074893Y-116397930D01*
X115110732Y-116404512D01*
X115498811Y-116440913D01*
X115885156Y-116414803D01*
X116260232Y-116326753D01*
X116283657Y-116319017D01*
X116631470Y-116170086D01*
X116946637Y-115971396D01*
X117225143Y-115729322D01*
X117462968Y-115450237D01*
X117656096Y-115140518D01*
X117800510Y-114806538D01*
X117892191Y-114454672D01*
X117927123Y-114091294D01*
X117901289Y-113722780D01*
X117853250Y-113477513D01*
X117758432Y-113176061D01*
X117623310Y-112901726D01*
X117440400Y-112640095D01*
X117202217Y-112376755D01*
X117169082Y-112343738D01*
X117025942Y-112208141D01*
X116901505Y-112106089D01*
X116777398Y-112023652D01*
X116635245Y-111946898D01*
X116599840Y-111929433D01*
X116309283Y-111805680D01*
X116031440Y-111727909D01*
X115743168Y-111691239D01*
X115421324Y-111690785D01*
X115280914Y-111699808D01*
X115106269Y-111717150D01*
X114952130Y-111738751D01*
X114840637Y-111761898D01*
X114662842Y-111818552D01*
X114358464Y-111942713D01*
X114048013Y-112099210D01*
X113753556Y-112277572D01*
X113743182Y-112284516D01*
X113514635Y-112453225D01*
X113264086Y-112663934D01*
X113003665Y-112904524D01*
X112745504Y-113162881D01*
X112501733Y-113426886D01*
X112284481Y-113684424D01*
X112105880Y-113923379D01*
X112006841Y-114067327D01*
X109989159Y-114067327D01*
X109890120Y-113923379D01*
X109882487Y-113912336D01*
X109701719Y-113672194D01*
X109482892Y-113414059D01*
X109238137Y-113150048D01*
X108979585Y-112892278D01*
X108719365Y-112652864D01*
X108469607Y-112443923D01*
X108242443Y-112277572D01*
X108060973Y-112163803D01*
X107753912Y-111997918D01*
X107444686Y-111860461D01*
X107155363Y-111761898D01*
X107069678Y-111743233D01*
X106922126Y-111721117D01*
X106749745Y-111702731D01*
X106574676Y-111690785D01*
X106535073Y-111689145D01*
X106218285Y-111693529D01*
X105932398Y-111734695D01*
X105654269Y-111817523D01*
X105360755Y-111946898D01*
X105329416Y-111962762D01*
X105192433Y-112039544D01*
X105069750Y-112124849D01*
X104942991Y-112232609D01*
X104793782Y-112376755D01*
X104680220Y-112495827D01*
X104561129Y-112631321D01*
X104461261Y-112755819D01*
X104394614Y-112852634D01*
X104342697Y-112946633D01*
X104201326Y-113282137D01*
X104111304Y-113639529D01*
X104074214Y-114005959D01*
X102360649Y-114005959D01*
X102358698Y-113900209D01*
X102368506Y-113700319D01*
X102394548Y-113424961D01*
X102437568Y-113174530D01*
X102502042Y-112925136D01*
X102592448Y-112652888D01*
X102782682Y-112211331D01*
X103034724Y-111781676D01*
X103338028Y-111385824D01*
X103688308Y-111028131D01*
X104081279Y-110712954D01*
X104512656Y-110444648D01*
X104978154Y-110227571D01*
X105205760Y-110143516D01*
X105423930Y-110078087D01*
X105640604Y-110031885D01*
X105872226Y-110002149D01*
X106135239Y-109986118D01*
X106446087Y-109981029D01*
X106550689Y-109981189D01*
X106823353Y-109986278D01*
X107054353Y-110000226D01*
X107260804Y-110025542D01*
X107459819Y-110064734D01*
X107668511Y-110120313D01*
X107903995Y-110194786D01*
X108294486Y-110347375D01*
X108728699Y-110564964D01*
X109165304Y-110830172D01*
X109594459Y-111135949D01*
X110006323Y-111475242D01*
X110391056Y-111841001D01*
X110738816Y-112226172D01*
X110832331Y-112337303D01*
X110914076Y-112431554D01*
X110972201Y-112495312D01*
X110998000Y-112518749D01*
X111022465Y-112496699D01*
X111079716Y-112434047D01*
X111160857Y-112340596D01*
X111257184Y-112226172D01*
X111577030Y-111869745D01*
X111959293Y-111502260D01*
X112369437Y-111160703D01*
X112797621Y-110852125D01*
X113234004Y-110583578D01*
X113668746Y-110362115D01*
X114092005Y-110194786D01*
X114175661Y-110167343D01*
X114400174Y-110099537D01*
X114603680Y-110049778D01*
X114803294Y-110015557D01*
X115016128Y-109994365D01*
X115259296Y-109983692D01*
X115549913Y-109981029D01*
X115851068Y-109985781D01*
X116115438Y-110001395D01*
X116347857Y-110030619D01*
X116564770Y-110076215D01*
X116782618Y-110140946D01*
X117017846Y-110227571D01*
X117466622Y-110435634D01*
X117899344Y-110702113D01*
X118293820Y-111015626D01*
X118645764Y-111371816D01*
X118950891Y-111766327D01*
X119204915Y-112194803D01*
X119403552Y-112652888D01*
X119464515Y-112830642D01*
X119537843Y-113085538D01*
X119588099Y-113332838D01*
X119619759Y-113596431D01*
X119637301Y-113900209D01*
X119640544Y-114068569D01*
X119639306Y-114091294D01*
X119612433Y-114584695D01*
X119525379Y-115075147D01*
G37*
G36*
X117751707Y-114181363D02*
G01*
X117748627Y-114349840D01*
X117741247Y-114476897D01*
X117727963Y-114577455D01*
X117707171Y-114666434D01*
X117677267Y-114758755D01*
X117558219Y-115036616D01*
X117363324Y-115354886D01*
X117123247Y-115635354D01*
X116844145Y-115872944D01*
X116532176Y-116062583D01*
X116193498Y-116199194D01*
X115834267Y-116277704D01*
X115786393Y-116283416D01*
X115400240Y-116292969D01*
X115008743Y-116238804D01*
X114613321Y-116121547D01*
X114215392Y-115941825D01*
X113816373Y-115700265D01*
X113417684Y-115397494D01*
X113020740Y-115034138D01*
X112923943Y-114936248D01*
X112759764Y-114762946D01*
X112606464Y-114592496D01*
X112469866Y-114432057D01*
X112355794Y-114288790D01*
X112270072Y-114169855D01*
X112218524Y-114082413D01*
X112217040Y-114076144D01*
X112449938Y-114076144D01*
X112462608Y-114106716D01*
X112542520Y-114209251D01*
X112880108Y-114606629D01*
X113230714Y-114965195D01*
X113589199Y-115281034D01*
X113950423Y-115550231D01*
X114309249Y-115768873D01*
X114660537Y-115933044D01*
X114999148Y-116038832D01*
X115145996Y-116066149D01*
X115313547Y-116087814D01*
X115480365Y-116101940D01*
X115625525Y-116106759D01*
X115728102Y-116100498D01*
X116007581Y-116043794D01*
X116289469Y-115956507D01*
X116535539Y-115840059D01*
X116760348Y-115687358D01*
X116978455Y-115491310D01*
X117139277Y-115314788D01*
X117334342Y-115034272D01*
X117469935Y-114735157D01*
X117549076Y-114410153D01*
X117574786Y-114051969D01*
X117570133Y-113885952D01*
X117535575Y-113616806D01*
X117461740Y-113363552D01*
X117342041Y-113099223D01*
X117272429Y-112976652D01*
X117063425Y-112698768D01*
X116805706Y-112459480D01*
X116504532Y-112263190D01*
X116165163Y-112114301D01*
X116070023Y-112082795D01*
X115956834Y-112052678D01*
X115844231Y-112035035D01*
X115710447Y-112026780D01*
X115533714Y-112024830D01*
X115412088Y-112026503D01*
X115153524Y-112044171D01*
X114950551Y-112081464D01*
X114846038Y-112113722D01*
X114635460Y-112196022D01*
X114402709Y-112303990D01*
X114165929Y-112428409D01*
X113943265Y-112560063D01*
X113752865Y-112689739D01*
X113741733Y-112698093D01*
X113529073Y-112871066D01*
X113296888Y-113081478D01*
X113060912Y-113313867D01*
X112836879Y-113552774D01*
X112640524Y-113782737D01*
X112565385Y-113877445D01*
X112495775Y-113971618D01*
X112459143Y-114034481D01*
X112449938Y-114076144D01*
X112217040Y-114076144D01*
X112206973Y-114033624D01*
X112207403Y-114032527D01*
X112246245Y-113967010D01*
X112322323Y-113864561D01*
X112427724Y-113734296D01*
X112554533Y-113585333D01*
X112694834Y-113426787D01*
X112840713Y-113267774D01*
X112984254Y-113117413D01*
X113117544Y-112984818D01*
X113294292Y-112821336D01*
X113689295Y-112501208D01*
X114087163Y-112239962D01*
X114484854Y-112039467D01*
X114879325Y-111901595D01*
X115114043Y-111854660D01*
X115385972Y-111829820D01*
X115663786Y-111829621D01*
X115925536Y-111854037D01*
X116149275Y-111903043D01*
X116351073Y-111973049D01*
X116625729Y-112101591D01*
X116870338Y-112264641D01*
X117105015Y-112474221D01*
X117274209Y-112655510D01*
X117433739Y-112864511D01*
X117559744Y-113085147D01*
X117665973Y-113338603D01*
X117699820Y-113436402D01*
X117723661Y-113523555D01*
X117738998Y-113614451D01*
X117747647Y-113724350D01*
X117751426Y-113868512D01*
X117752115Y-114051969D01*
X117752153Y-114062199D01*
X117751707Y-114181363D01*
G37*
G36*
X119985328Y-114383173D02*
G01*
X119964999Y-114660481D01*
X119930599Y-114894251D01*
X119842881Y-115254062D01*
X119667039Y-115755802D01*
X119437668Y-116226828D01*
X119158389Y-116663739D01*
X118832824Y-117063134D01*
X118464595Y-117421612D01*
X118057326Y-117735772D01*
X117614637Y-118002214D01*
X117140151Y-118217536D01*
X116637491Y-118378338D01*
X116110277Y-118481218D01*
X116089592Y-118483878D01*
X115877116Y-118500382D01*
X115623669Y-118505121D01*
X115349522Y-118498889D01*
X115074945Y-118482478D01*
X114820209Y-118456684D01*
X114605585Y-118422299D01*
X114123081Y-118297446D01*
X113591020Y-118099644D01*
X113063495Y-117840813D01*
X112544419Y-117522895D01*
X112037706Y-117147832D01*
X111984822Y-117103804D01*
X111857140Y-116991423D01*
X111706537Y-116853126D01*
X111547590Y-116702406D01*
X111394875Y-116552758D01*
X110998000Y-116156225D01*
X110601125Y-116553224D01*
X110508950Y-116644244D01*
X110011567Y-117094766D01*
X109508155Y-117482097D01*
X108996525Y-117807515D01*
X108474484Y-118072297D01*
X107939844Y-118277719D01*
X107390415Y-118425058D01*
X107273930Y-118446379D01*
X107018438Y-118477005D01*
X106730722Y-118495287D01*
X106429911Y-118501046D01*
X106135136Y-118494104D01*
X105865529Y-118474281D01*
X105640220Y-118441399D01*
X105577622Y-118428417D01*
X105051551Y-118284146D01*
X104555752Y-118084882D01*
X104093443Y-117833817D01*
X103667844Y-117534146D01*
X103282173Y-117189063D01*
X102939650Y-116801762D01*
X102643492Y-116375436D01*
X102396918Y-115913279D01*
X102203148Y-115418486D01*
X102065401Y-114894251D01*
X102049471Y-114804217D01*
X102020909Y-114550077D01*
X102006332Y-114260524D01*
X102006132Y-114183937D01*
X102200854Y-114183937D01*
X102210723Y-114449497D01*
X102230938Y-114687938D01*
X102261495Y-114880836D01*
X102318956Y-115115232D01*
X102487727Y-115617322D01*
X102710468Y-116089201D01*
X102984165Y-116526913D01*
X103305806Y-116926501D01*
X103672377Y-117284011D01*
X104080865Y-117595484D01*
X104528257Y-117856966D01*
X104938787Y-118037874D01*
X105431691Y-118191270D01*
X105937489Y-118283765D01*
X106451975Y-118315622D01*
X106970943Y-118287109D01*
X107490188Y-118198489D01*
X108005504Y-118050028D01*
X108512685Y-117841991D01*
X109007526Y-117574643D01*
X109105175Y-117514293D01*
X109385880Y-117329281D01*
X109649163Y-117135640D01*
X109908728Y-116922299D01*
X110178282Y-116678188D01*
X110471533Y-116392236D01*
X110998000Y-115864250D01*
X111524467Y-116392236D01*
X111566336Y-116433986D01*
X111741912Y-116604598D01*
X111921047Y-116772428D01*
X112091632Y-116926487D01*
X112241557Y-117055786D01*
X112358714Y-117149334D01*
X112400592Y-117180311D01*
X112898945Y-117517851D01*
X113392801Y-117793668D01*
X113887026Y-118009915D01*
X114386482Y-118168745D01*
X114896037Y-118272311D01*
X115170045Y-118304121D01*
X115684681Y-118316407D01*
X116190282Y-118268081D01*
X116682061Y-118161601D01*
X117155234Y-117999422D01*
X117605011Y-117784002D01*
X118026608Y-117517796D01*
X118415236Y-117203260D01*
X118766110Y-116842852D01*
X119074443Y-116439026D01*
X119335449Y-115994240D01*
X119337928Y-115989348D01*
X119550399Y-115500869D01*
X119700155Y-115000769D01*
X119786827Y-114492466D01*
X119810044Y-113979379D01*
X119769438Y-113464928D01*
X119664636Y-112952530D01*
X119630144Y-112830959D01*
X119454530Y-112351121D01*
X119223475Y-111902406D01*
X118935017Y-111481413D01*
X118587195Y-111084745D01*
X118340802Y-110851037D01*
X117935653Y-110535351D01*
X117498876Y-110274409D01*
X117026494Y-110065953D01*
X116514528Y-109907725D01*
X116432071Y-109887462D01*
X116313449Y-109861329D01*
X116202894Y-109842874D01*
X116085833Y-109830761D01*
X115947697Y-109823648D01*
X115773914Y-109820197D01*
X115549913Y-109819068D01*
X115539198Y-109819052D01*
X115308966Y-109819855D01*
X115127973Y-109823738D01*
X114981302Y-109831866D01*
X114854035Y-109845404D01*
X114731255Y-109865516D01*
X114598045Y-109893365D01*
X114306332Y-109967585D01*
X113762037Y-110155574D01*
X113230294Y-110405469D01*
X112710384Y-110717722D01*
X112201591Y-111092788D01*
X111703198Y-111531120D01*
X111214489Y-112033171D01*
X110998000Y-112272000D01*
X110781159Y-112033171D01*
X110513526Y-111749469D01*
X110020645Y-111283545D01*
X109518443Y-110881030D01*
X109005997Y-110541338D01*
X108482382Y-110263886D01*
X107946676Y-110048090D01*
X107397955Y-109893365D01*
X107392092Y-109892055D01*
X107259603Y-109864546D01*
X107136933Y-109844727D01*
X107009164Y-109831434D01*
X106861378Y-109823503D01*
X106678658Y-109819769D01*
X106446087Y-109819068D01*
X106312899Y-109819503D01*
X106118435Y-109821813D01*
X105966118Y-109827213D01*
X105841451Y-109837021D01*
X105729938Y-109852554D01*
X105617084Y-109875127D01*
X105488391Y-109906057D01*
X105097063Y-110020626D01*
X104625276Y-110210161D01*
X104190673Y-110448715D01*
X103786481Y-110740132D01*
X103405931Y-111088254D01*
X103164080Y-111355179D01*
X102854815Y-111775776D01*
X102601303Y-112229329D01*
X102403444Y-112716025D01*
X102261139Y-113236051D01*
X102233361Y-113408777D01*
X102212169Y-113645153D01*
X102201334Y-113909681D01*
X102200854Y-114183937D01*
X102006132Y-114183937D01*
X102005534Y-113955223D01*
X102018309Y-113653839D01*
X102044452Y-113376039D01*
X102083756Y-113141488D01*
X102217927Y-112651673D01*
X102407156Y-112174021D01*
X102648714Y-111730240D01*
X102945990Y-111314155D01*
X103302371Y-110919590D01*
X103562653Y-110675317D01*
X103869254Y-110430407D01*
X104192835Y-110220428D01*
X104553686Y-110030971D01*
X104979342Y-109854212D01*
X105457499Y-109716147D01*
X105955937Y-109634603D01*
X106483365Y-109607670D01*
X106499273Y-109607690D01*
X107042439Y-109641568D01*
X107582455Y-109739421D01*
X108117705Y-109900471D01*
X108646574Y-110123937D01*
X109167446Y-110409040D01*
X109678705Y-110755000D01*
X110178735Y-111161037D01*
X110665921Y-111626371D01*
X110998000Y-111968476D01*
X111330079Y-111626371D01*
X111344123Y-111611935D01*
X111831707Y-111148323D01*
X112332088Y-110744031D01*
X112843651Y-110399839D01*
X113364779Y-110116527D01*
X113893858Y-109894874D01*
X114429270Y-109735660D01*
X114969401Y-109639666D01*
X115512635Y-109607670D01*
X115854016Y-109619218D01*
X116389707Y-109686532D01*
X116900933Y-109813820D01*
X117387316Y-110000926D01*
X117848478Y-110247693D01*
X118284041Y-110553966D01*
X118693628Y-110919590D01*
X119033038Y-111293252D01*
X119333291Y-111708071D01*
X119577651Y-112150266D01*
X119769506Y-112626013D01*
X119912244Y-113141488D01*
X119930063Y-113231879D01*
X119963955Y-113486680D01*
X119984600Y-113776607D01*
X119989377Y-113979379D01*
X119991794Y-114081993D01*
X119985328Y-114383173D01*
G37*
G36*
X109680579Y-114234662D02*
G01*
X109577888Y-114368426D01*
X109450187Y-114522415D01*
X109303299Y-114689471D01*
X109143049Y-114862432D01*
X108975260Y-115034138D01*
X108740813Y-115256589D01*
X108341892Y-115586177D01*
X107943509Y-115854076D01*
X107546932Y-116059571D01*
X107153432Y-116201946D01*
X106764279Y-116280485D01*
X106543262Y-116296649D01*
X106167270Y-116276285D01*
X105806241Y-116197294D01*
X105466315Y-116062959D01*
X105153629Y-115876564D01*
X104874325Y-115641390D01*
X104634539Y-115360721D01*
X104440412Y-115037839D01*
X104397134Y-114946159D01*
X104311800Y-114723158D01*
X104258783Y-114498583D01*
X104234258Y-114252508D01*
X104234310Y-114145430D01*
X104424129Y-114145430D01*
X104438852Y-114365799D01*
X104470298Y-114549461D01*
X104487448Y-114612291D01*
X104611725Y-114931256D01*
X104788494Y-115227632D01*
X105009893Y-115491746D01*
X105268063Y-115713924D01*
X105555143Y-115884494D01*
X105606005Y-115908027D01*
X105748693Y-115969142D01*
X105879845Y-116019076D01*
X105976316Y-116048800D01*
X106100565Y-116073914D01*
X106471037Y-116104955D01*
X106846643Y-116071916D01*
X107226584Y-115975107D01*
X107610064Y-115814841D01*
X107996282Y-115591430D01*
X108384441Y-115305184D01*
X108773742Y-114956417D01*
X108801709Y-114928993D01*
X109062190Y-114659973D01*
X109313493Y-114377593D01*
X109533391Y-114106716D01*
X109544587Y-114084986D01*
X109541775Y-114047279D01*
X109513020Y-113991074D01*
X109452771Y-113906263D01*
X109355476Y-113782737D01*
X109345372Y-113770226D01*
X109147030Y-113539344D01*
X108921901Y-113300394D01*
X108685720Y-113068835D01*
X108454219Y-112860130D01*
X108243135Y-112689739D01*
X108138042Y-112615543D01*
X107926776Y-112483600D01*
X107693739Y-112355005D01*
X107457075Y-112238973D01*
X107234930Y-112144721D01*
X107045449Y-112081464D01*
X106969616Y-112063960D01*
X106744662Y-112034672D01*
X106462286Y-112024830D01*
X106328552Y-112025753D01*
X106185219Y-112031984D01*
X106069001Y-112046762D01*
X105958129Y-112073173D01*
X105830836Y-112114301D01*
X105797217Y-112126185D01*
X105496679Y-112257495D01*
X105234587Y-112424637D01*
X104990414Y-112640460D01*
X104899371Y-112740299D01*
X104718469Y-112990893D01*
X104571681Y-113268247D01*
X104472609Y-113548508D01*
X104444615Y-113698079D01*
X104426070Y-113914231D01*
X104424129Y-114145430D01*
X104234310Y-114145430D01*
X104234397Y-113965005D01*
X104237122Y-113903289D01*
X104274734Y-113568014D01*
X104353323Y-113270190D01*
X104478493Y-112997098D01*
X104655846Y-112736015D01*
X104890985Y-112474221D01*
X105041759Y-112333519D01*
X105280513Y-112155233D01*
X105542129Y-112015748D01*
X105846724Y-111903043D01*
X106060175Y-111855597D01*
X106320774Y-111830150D01*
X106598355Y-111829318D01*
X106870971Y-111853124D01*
X107116675Y-111901595D01*
X107294344Y-111956025D01*
X107690647Y-112122428D01*
X108088795Y-112350609D01*
X108485745Y-112638695D01*
X108878456Y-112984818D01*
X108881632Y-112987874D01*
X109015278Y-113121030D01*
X109158976Y-113271723D01*
X109304811Y-113430835D01*
X109444869Y-113589251D01*
X109571234Y-113737855D01*
X109675992Y-113867529D01*
X109751228Y-113969158D01*
X109789026Y-114033624D01*
X109787634Y-114056457D01*
X109773654Y-114084986D01*
X109752436Y-114128286D01*
X109680579Y-114234662D01*
G37*
G36*
X104554589Y-120339662D02*
G01*
X104576830Y-120406921D01*
X104606666Y-120495842D01*
X104624600Y-120547564D01*
X104624000Y-120559253D01*
X104597051Y-120572529D01*
X104531023Y-120579851D01*
X104417763Y-120581908D01*
X104249117Y-120579394D01*
X103858562Y-120570426D01*
X103820572Y-120459023D01*
X103819448Y-120455715D01*
X103786859Y-120352703D01*
X103761113Y-120260088D01*
X103739644Y-120172557D01*
X104499651Y-120172557D01*
X104554589Y-120339662D01*
G37*
G36*
X119924354Y-122847468D02*
G01*
X119953944Y-122942236D01*
X119965977Y-122981516D01*
X119971153Y-123012136D01*
X119961562Y-123037218D01*
X119959677Y-123036750D01*
X119918752Y-123016477D01*
X119832975Y-122969752D01*
X119710980Y-122901405D01*
X119561402Y-122816264D01*
X119392875Y-122719158D01*
X118843990Y-122401098D01*
X118731258Y-122042780D01*
X118618526Y-121684461D01*
X118042680Y-121666295D01*
X117627828Y-120347619D01*
X117419827Y-120338288D01*
X117211827Y-120328957D01*
X117415189Y-120972099D01*
X117435501Y-121036468D01*
X117493862Y-121222993D01*
X117544174Y-121386107D01*
X117583611Y-121516501D01*
X117609345Y-121604866D01*
X117618551Y-121641894D01*
X117589467Y-121650175D01*
X117506492Y-121657534D01*
X117379554Y-121663350D01*
X117218591Y-121667172D01*
X117033543Y-121668546D01*
X116448535Y-121668546D01*
X116343876Y-121334336D01*
X116239217Y-121000125D01*
X115751190Y-121000125D01*
X115656285Y-121000582D01*
X115500660Y-121003535D01*
X115376076Y-121008777D01*
X115293405Y-121015775D01*
X115263518Y-121023998D01*
X115267360Y-121042569D01*
X115286639Y-121112541D01*
X115318455Y-121219850D01*
X115358652Y-121350251D01*
X115385598Y-121436531D01*
X115408130Y-121509399D01*
X115409164Y-121512744D01*
X115420646Y-121549876D01*
X115444738Y-121629254D01*
X115453785Y-121661291D01*
X115453777Y-121661342D01*
X115422663Y-121663602D01*
X115337935Y-121664727D01*
X115209451Y-121664717D01*
X115047070Y-121663571D01*
X114860650Y-121661291D01*
X114267160Y-121652632D01*
X113850270Y-120331704D01*
X113647429Y-120331704D01*
X113618598Y-120331734D01*
X113521460Y-120333896D01*
X113472230Y-120343150D01*
X113457979Y-120364593D01*
X113465784Y-120403321D01*
X113466278Y-120404985D01*
X113485739Y-120468405D01*
X113519377Y-120576032D01*
X113563492Y-120716208D01*
X113614384Y-120877273D01*
X113668354Y-121047570D01*
X113721701Y-121215440D01*
X113770727Y-121369224D01*
X113811731Y-121497263D01*
X113841015Y-121587900D01*
X113854878Y-121629475D01*
X113851985Y-121641016D01*
X113821763Y-121652170D01*
X113755334Y-121659403D01*
X113645847Y-121663088D01*
X113486451Y-121663598D01*
X113270293Y-121661305D01*
X112670564Y-121652632D01*
X112463440Y-120992168D01*
X112256315Y-120331704D01*
X111770047Y-120331704D01*
X111972871Y-120968872D01*
X111991551Y-121027689D01*
X112050209Y-121214205D01*
X112100815Y-121377857D01*
X112140506Y-121509212D01*
X112166420Y-121598835D01*
X112175694Y-121637293D01*
X112170594Y-121643560D01*
X112118113Y-121656627D01*
X112017906Y-121665329D01*
X111881271Y-121668468D01*
X111586847Y-121668390D01*
X111380811Y-121012238D01*
X111356888Y-120936715D01*
X111295916Y-120750201D01*
X111240372Y-120588472D01*
X111193519Y-120460562D01*
X111158618Y-120375504D01*
X111138931Y-120342332D01*
X111096588Y-120336934D01*
X111008052Y-120335170D01*
X110895553Y-120338098D01*
X110688019Y-120347619D01*
X110890034Y-120984211D01*
X110908809Y-121043469D01*
X110967238Y-121229143D01*
X111017705Y-121391407D01*
X111046511Y-121485526D01*
X111057354Y-121520954D01*
X111083327Y-121608479D01*
X111092769Y-121644674D01*
X111082963Y-121646565D01*
X111018158Y-121649839D01*
X110896375Y-121652956D01*
X110721895Y-121655882D01*
X110499000Y-121658585D01*
X110231972Y-121661033D01*
X109925093Y-121663194D01*
X109582645Y-121665034D01*
X109208909Y-121666522D01*
X108808168Y-121667625D01*
X108384702Y-121668311D01*
X107942794Y-121668546D01*
X104792100Y-121668546D01*
X104689806Y-121334336D01*
X104587511Y-121000125D01*
X104386991Y-121000125D01*
X104291113Y-121003342D01*
X104215459Y-121012825D01*
X104186471Y-121026380D01*
X104186583Y-121028154D01*
X104198027Y-121074551D01*
X104224581Y-121161960D01*
X104261010Y-121273059D01*
X104261165Y-121273517D01*
X104301607Y-121396387D01*
X104336069Y-121506840D01*
X104357105Y-121581015D01*
X104378662Y-121668546D01*
X102183978Y-121668546D01*
X102103019Y-121412267D01*
X102089844Y-121370157D01*
X102063268Y-121281842D01*
X102244867Y-121281842D01*
X102244913Y-121283361D01*
X102255733Y-121332590D01*
X102279811Y-121409160D01*
X102314754Y-121509399D01*
X103577535Y-121509399D01*
X103517654Y-121326379D01*
X103516756Y-121323630D01*
X103487486Y-121233177D01*
X103443337Y-121095637D01*
X103388472Y-120924024D01*
X103327050Y-120731353D01*
X103263234Y-120530639D01*
X103076060Y-119941119D01*
X103422191Y-119941119D01*
X103428704Y-119967592D01*
X103452154Y-120047978D01*
X103490230Y-120173555D01*
X103540358Y-120335933D01*
X103599965Y-120526722D01*
X103666476Y-120737531D01*
X103911130Y-121509399D01*
X104032886Y-121509399D01*
X104056388Y-121509211D01*
X104126448Y-121505800D01*
X104154642Y-121499455D01*
X104151727Y-121488396D01*
X104132940Y-121428959D01*
X104100580Y-121330567D01*
X104059153Y-121207018D01*
X104037198Y-121140944D01*
X103999454Y-121021175D01*
X103973389Y-120929832D01*
X103963664Y-120882751D01*
X103965627Y-120875027D01*
X103992943Y-120858749D01*
X104058947Y-120848262D01*
X104171940Y-120842645D01*
X104340220Y-120840978D01*
X104716776Y-120840978D01*
X104818613Y-121175188D01*
X104920451Y-121509399D01*
X105168031Y-121509399D01*
X105091713Y-121262719D01*
X105070127Y-121193376D01*
X105024354Y-121047579D01*
X104967756Y-120868295D01*
X104905519Y-120671943D01*
X104842830Y-120474937D01*
X104677476Y-119956441D01*
X105020809Y-119956441D01*
X105021834Y-119973622D01*
X105029274Y-119998672D01*
X105054368Y-120080214D01*
X105093853Y-120207129D01*
X105144893Y-120370342D01*
X105204655Y-120560778D01*
X105270306Y-120769361D01*
X105503560Y-121509399D01*
X105624840Y-121509399D01*
X105647943Y-121509253D01*
X105717877Y-121506527D01*
X105745943Y-121501441D01*
X105736918Y-121471041D01*
X105712093Y-121390693D01*
X105674856Y-121271186D01*
X105628592Y-121123307D01*
X105576690Y-120957839D01*
X105522535Y-120785570D01*
X105469515Y-120617283D01*
X105421016Y-120463765D01*
X105380426Y-120335800D01*
X105351131Y-120244173D01*
X105345866Y-120226912D01*
X105343926Y-120196228D01*
X105368142Y-120180087D01*
X105431014Y-120173910D01*
X105545041Y-120173116D01*
X105762035Y-120173676D01*
X106177671Y-121493484D01*
X106296106Y-121503363D01*
X106317358Y-121504744D01*
X106386609Y-121502321D01*
X106414541Y-121489162D01*
X106409322Y-121466749D01*
X106387607Y-121391442D01*
X106351960Y-121273892D01*
X106305578Y-121124608D01*
X106251661Y-120954095D01*
X106215271Y-120839764D01*
X106159453Y-120663760D01*
X106110070Y-120507307D01*
X106071441Y-120384100D01*
X106047884Y-120307832D01*
X106006987Y-120172557D01*
X106434259Y-120172557D01*
X106643773Y-120833020D01*
X106853287Y-121493484D01*
X106968125Y-121503363D01*
X106971691Y-121503658D01*
X107053982Y-121500522D01*
X107082962Y-121475232D01*
X107077227Y-121446913D01*
X107053417Y-121361169D01*
X107010888Y-121218923D01*
X106949396Y-121019385D01*
X106868697Y-120761765D01*
X106768546Y-120445270D01*
X106648700Y-120069110D01*
X106611522Y-119952727D01*
X106955644Y-119952727D01*
X106956957Y-119961182D01*
X106972778Y-120021797D01*
X107004274Y-120130096D01*
X107048614Y-120276663D01*
X107102965Y-120452084D01*
X107164494Y-120646941D01*
X107184325Y-120709198D01*
X107246931Y-120905854D01*
X107303760Y-121084524D01*
X107351421Y-121234541D01*
X107386526Y-121345240D01*
X107405684Y-121405953D01*
X107434167Y-121474055D01*
X107435921Y-121475232D01*
X107477679Y-121503259D01*
X107560296Y-121509399D01*
X107682568Y-121509399D01*
X107606249Y-121262719D01*
X107584676Y-121193402D01*
X107538926Y-121047605D01*
X107482364Y-120868315D01*
X107420175Y-120671953D01*
X107357541Y-120474937D01*
X107188495Y-119944327D01*
X107528577Y-119944327D01*
X107528620Y-119945844D01*
X107539429Y-119995514D01*
X107563520Y-120072318D01*
X107598463Y-120172557D01*
X108605666Y-120172557D01*
X108660605Y-120339662D01*
X108682863Y-120406987D01*
X108712529Y-120495451D01*
X108730227Y-120546554D01*
X108730911Y-120549255D01*
X108717558Y-120564099D01*
X108668372Y-120574669D01*
X108576404Y-120581527D01*
X108434707Y-120585231D01*
X108236332Y-120586341D01*
X107727753Y-120586341D01*
X107872980Y-121047870D01*
X108018208Y-121509399D01*
X108652111Y-121509399D01*
X108845421Y-121509065D01*
X109012657Y-121507495D01*
X109130761Y-121504047D01*
X109207467Y-121498081D01*
X109250512Y-121488960D01*
X109267630Y-121476045D01*
X109266558Y-121458697D01*
X109251075Y-121413051D01*
X109227872Y-121331379D01*
X109208643Y-121254762D01*
X108178371Y-121254762D01*
X108136404Y-121103572D01*
X108123002Y-121055393D01*
X108096227Y-120959747D01*
X108078346Y-120896679D01*
X108076631Y-120889702D01*
X108079067Y-120870543D01*
X108100909Y-120857166D01*
X108151005Y-120848546D01*
X108238206Y-120843658D01*
X108371363Y-120841477D01*
X108559325Y-120840978D01*
X108662247Y-120840459D01*
X108818434Y-120837451D01*
X108943258Y-120832211D01*
X109025955Y-120825257D01*
X109055760Y-120817105D01*
X109054519Y-120810357D01*
X109039157Y-120754541D01*
X109009037Y-120653742D01*
X108967664Y-120519544D01*
X108918542Y-120363534D01*
X108789955Y-119958989D01*
X109129327Y-119958989D01*
X109133609Y-119980898D01*
X109145089Y-120021335D01*
X109169697Y-120108118D01*
X109173793Y-120120147D01*
X109188846Y-120140515D01*
X109220348Y-120155007D01*
X109277740Y-120164899D01*
X109370463Y-120171467D01*
X109507960Y-120175987D01*
X109699673Y-120179735D01*
X110211837Y-120188471D01*
X110249845Y-120299875D01*
X110250972Y-120303188D01*
X110283572Y-120406198D01*
X110309323Y-120498810D01*
X110330792Y-120586341D01*
X109337804Y-120586341D01*
X109359991Y-120689787D01*
X109361053Y-120694694D01*
X109380353Y-120771835D01*
X109396228Y-120817105D01*
X109411117Y-120822239D01*
X109479997Y-120829675D01*
X109594582Y-120835615D01*
X109743788Y-120839552D01*
X109916534Y-120840978D01*
X110422790Y-120840978D01*
X110481408Y-121039912D01*
X110540027Y-121238847D01*
X110040513Y-121247576D01*
X109541000Y-121256305D01*
X109596776Y-121476045D01*
X109605242Y-121509399D01*
X110237962Y-121509399D01*
X110274493Y-121509359D01*
X110463512Y-121507820D01*
X110626911Y-121504307D01*
X110755181Y-121499180D01*
X110838814Y-121492800D01*
X110868299Y-121485526D01*
X110861504Y-121460673D01*
X110837533Y-121381884D01*
X110798817Y-121257781D01*
X110748003Y-121096780D01*
X110687735Y-120907296D01*
X110620659Y-120697744D01*
X110375730Y-119934857D01*
X110711534Y-119934857D01*
X110712054Y-119938656D01*
X110727298Y-119985375D01*
X110757078Y-120060797D01*
X110802622Y-120169800D01*
X111050952Y-120179135D01*
X111299282Y-120188471D01*
X111506724Y-120848297D01*
X111714165Y-121508123D01*
X111833526Y-121508761D01*
X111855114Y-121508482D01*
X111924531Y-121500718D01*
X111952153Y-121485526D01*
X111951196Y-121480517D01*
X111936323Y-121427775D01*
X111905675Y-121326563D01*
X111862128Y-121186177D01*
X111808559Y-121015911D01*
X111747842Y-120825063D01*
X111544266Y-120188471D01*
X111780803Y-120172557D01*
X111801061Y-120171105D01*
X111911111Y-120159770D01*
X111989138Y-120145926D01*
X112019356Y-120132240D01*
X112014778Y-120087906D01*
X112000515Y-120012879D01*
X111981407Y-119925877D01*
X112303797Y-119925877D01*
X112311297Y-119950708D01*
X112335794Y-120028848D01*
X112368472Y-120132240D01*
X112374820Y-120152326D01*
X112425804Y-120313029D01*
X112486176Y-120502845D01*
X112553366Y-120713659D01*
X112802150Y-121493484D01*
X112918621Y-121503363D01*
X112938146Y-121504653D01*
X113007351Y-121501786D01*
X113035561Y-121487448D01*
X113029098Y-121460750D01*
X113005716Y-121380085D01*
X112967716Y-121254247D01*
X112917669Y-121091645D01*
X112858147Y-120900689D01*
X112791719Y-120689787D01*
X112547407Y-119917920D01*
X112883536Y-119917920D01*
X113131281Y-120699953D01*
X113191115Y-120887829D01*
X113253658Y-121081924D01*
X113308021Y-121248199D01*
X113351486Y-121378424D01*
X113381333Y-121464369D01*
X113390659Y-121487448D01*
X113394844Y-121497805D01*
X113396754Y-121499215D01*
X113441762Y-121506177D01*
X113519195Y-121503553D01*
X113627729Y-121493484D01*
X113427079Y-120856892D01*
X113408520Y-120797911D01*
X113350500Y-120612160D01*
X113300431Y-120449822D01*
X113261144Y-120320212D01*
X113235473Y-120232642D01*
X113226250Y-120196429D01*
X113255708Y-120187185D01*
X113336486Y-120179582D01*
X113456202Y-120174444D01*
X113602474Y-120172557D01*
X113978878Y-120172557D01*
X114188160Y-120833020D01*
X114397442Y-121493484D01*
X114651966Y-121512744D01*
X114515480Y-121089330D01*
X114458617Y-120912127D01*
X114388496Y-120692054D01*
X114320056Y-120475876D01*
X114262292Y-120291917D01*
X114156451Y-119952727D01*
X114499253Y-119952727D01*
X114500567Y-119961182D01*
X114516387Y-120021797D01*
X114547883Y-120130096D01*
X114592223Y-120276663D01*
X114646574Y-120452084D01*
X114708103Y-120646941D01*
X114727934Y-120709198D01*
X114790540Y-120905854D01*
X114847369Y-121084524D01*
X114895030Y-121234541D01*
X114930135Y-121345240D01*
X114949293Y-121405953D01*
X114949691Y-121407223D01*
X114978178Y-121474660D01*
X115021850Y-121503382D01*
X115104768Y-121509399D01*
X115227902Y-121509399D01*
X115181690Y-121358208D01*
X115178718Y-121348528D01*
X115151881Y-121262336D01*
X115110161Y-121129532D01*
X115057314Y-120962014D01*
X114997089Y-120771680D01*
X114933240Y-120570426D01*
X114734336Y-119944327D01*
X115072186Y-119944327D01*
X115072218Y-119945632D01*
X115082877Y-119994994D01*
X115106859Y-120071543D01*
X115141532Y-120171007D01*
X116161632Y-120188471D01*
X116221202Y-120379449D01*
X116249424Y-120470700D01*
X116272292Y-120546345D01*
X116281241Y-120578384D01*
X116268758Y-120580143D01*
X116203699Y-120582604D01*
X116092465Y-120584568D01*
X115945714Y-120585870D01*
X115774102Y-120586341D01*
X115266495Y-120586341D01*
X115307785Y-120705702D01*
X115349076Y-120825063D01*
X116365160Y-120842497D01*
X116580704Y-121509399D01*
X116701758Y-121509399D01*
X116724719Y-121509254D01*
X116794438Y-121506529D01*
X116822207Y-121501441D01*
X116814775Y-121476636D01*
X116790382Y-121398510D01*
X116751482Y-121275034D01*
X116700640Y-121114323D01*
X116640419Y-120924493D01*
X116573381Y-120713659D01*
X116332540Y-119957022D01*
X116670098Y-119957022D01*
X116678388Y-119982758D01*
X116703982Y-120063614D01*
X116743735Y-120189830D01*
X116794897Y-120352658D01*
X116854717Y-120543351D01*
X116920445Y-120753161D01*
X117154710Y-121501441D01*
X117157023Y-121508829D01*
X117276384Y-121509114D01*
X117297833Y-121508836D01*
X117367603Y-121502133D01*
X117395744Y-121489226D01*
X117391723Y-121473252D01*
X117371632Y-121405738D01*
X117337777Y-121295862D01*
X117293652Y-121154639D01*
X117242754Y-120993082D01*
X117188578Y-120822206D01*
X117134619Y-120653025D01*
X117084374Y-120496554D01*
X117041338Y-120363806D01*
X117009007Y-120265796D01*
X116990876Y-120213539D01*
X116992306Y-120197821D01*
X117020851Y-120185232D01*
X117086811Y-120178509D01*
X117198902Y-120176864D01*
X117365839Y-120179504D01*
X117757304Y-120188471D01*
X118172988Y-121509399D01*
X118293639Y-121509399D01*
X118316549Y-121508962D01*
X118385409Y-121500785D01*
X118411969Y-121485526D01*
X118405206Y-121460696D01*
X118381299Y-121381920D01*
X118342669Y-121257819D01*
X118291958Y-121096810D01*
X118231806Y-120907313D01*
X118164854Y-120697744D01*
X117920062Y-119933835D01*
X117288195Y-119925192D01*
X117081475Y-119923027D01*
X116911081Y-119923193D01*
X116791451Y-119926330D01*
X116715880Y-119932784D01*
X116677663Y-119942900D01*
X116670098Y-119957022D01*
X116332540Y-119957022D01*
X116325159Y-119933835D01*
X115698673Y-119925204D01*
X115667677Y-119924811D01*
X115478904Y-119923950D01*
X115315366Y-119925763D01*
X115186667Y-119929960D01*
X115102406Y-119936245D01*
X115072186Y-119944327D01*
X114734336Y-119944327D01*
X114731003Y-119933835D01*
X114615128Y-119923956D01*
X114612554Y-119923742D01*
X114528363Y-119926718D01*
X114499253Y-119952727D01*
X114156451Y-119952727D01*
X114145590Y-119917920D01*
X112883536Y-119917920D01*
X112547407Y-119917920D01*
X112425210Y-119917920D01*
X112401220Y-119918075D01*
X112331462Y-119920810D01*
X112303797Y-119925877D01*
X111981407Y-119925877D01*
X111979659Y-119917920D01*
X111345596Y-119917920D01*
X111308354Y-119917949D01*
X111118959Y-119919045D01*
X110955032Y-119921538D01*
X110826120Y-119925175D01*
X110741772Y-119929700D01*
X110711534Y-119934857D01*
X110375730Y-119934857D01*
X110375402Y-119933835D01*
X109745368Y-119925197D01*
X109615066Y-119923456D01*
X109433176Y-119921605D01*
X109302340Y-119921891D01*
X109214546Y-119925043D01*
X109161786Y-119931791D01*
X109136050Y-119942863D01*
X109129327Y-119958989D01*
X108789955Y-119958989D01*
X108781960Y-119933835D01*
X108155268Y-119925204D01*
X108124101Y-119924809D01*
X107935311Y-119923950D01*
X107771764Y-119925765D01*
X107643060Y-119929961D01*
X107558797Y-119936246D01*
X107528577Y-119944327D01*
X107188495Y-119944327D01*
X107185152Y-119933835D01*
X107070398Y-119923956D01*
X107068505Y-119923796D01*
X106984699Y-119926699D01*
X106955644Y-119952727D01*
X106611522Y-119952727D01*
X106600403Y-119917920D01*
X105803509Y-119917920D01*
X105783974Y-119917921D01*
X105542521Y-119918221D01*
X105357090Y-119919409D01*
X105220554Y-119921993D01*
X105125786Y-119926480D01*
X105065657Y-119933378D01*
X105033041Y-119943196D01*
X105020809Y-119956441D01*
X104677476Y-119956441D01*
X104670267Y-119933835D01*
X104046414Y-119925204D01*
X104017708Y-119924833D01*
X103829096Y-119923743D01*
X103665608Y-119925072D01*
X103536875Y-119928575D01*
X103452526Y-119934006D01*
X103422191Y-119941119D01*
X103076060Y-119941119D01*
X103068694Y-119917920D01*
X102825728Y-119917920D01*
X103028656Y-120559688D01*
X103048594Y-120622870D01*
X103106925Y-120809291D01*
X103157219Y-120972346D01*
X103196647Y-121102713D01*
X103222378Y-121191074D01*
X103231584Y-121228109D01*
X103221420Y-121233488D01*
X103159719Y-121241918D01*
X103051405Y-121248664D01*
X102907299Y-121253140D01*
X102738226Y-121254762D01*
X102638661Y-121255320D01*
X102482610Y-121258707D01*
X102357746Y-121264652D01*
X102274891Y-121272562D01*
X102244867Y-121281842D01*
X102063268Y-121281842D01*
X102055239Y-121255161D01*
X102031118Y-121168307D01*
X102022060Y-121125801D01*
X102026604Y-121121298D01*
X102079074Y-121110830D01*
X102183616Y-121102718D01*
X102331856Y-121097476D01*
X102515419Y-121095614D01*
X102614972Y-121095210D01*
X102771027Y-121092756D01*
X102895895Y-121088448D01*
X102978753Y-121082716D01*
X103008777Y-121075991D01*
X103007667Y-121070504D01*
X102992345Y-121017205D01*
X102961251Y-120915599D01*
X102917240Y-120774838D01*
X102863167Y-120604077D01*
X102801885Y-120412468D01*
X102780511Y-120345837D01*
X102721340Y-120160146D01*
X102670346Y-119998325D01*
X102630387Y-119869547D01*
X102604317Y-119782988D01*
X102594993Y-119747821D01*
X102595143Y-119747690D01*
X102630791Y-119745782D01*
X102727170Y-119743856D01*
X102881538Y-119741923D01*
X103091157Y-119739993D01*
X103353286Y-119738077D01*
X103665185Y-119736184D01*
X104024112Y-119734325D01*
X104427329Y-119732511D01*
X104872095Y-119730751D01*
X105355669Y-119729055D01*
X105875312Y-119727435D01*
X106428283Y-119725900D01*
X107011842Y-119724460D01*
X107623248Y-119723126D01*
X108259762Y-119721907D01*
X108918643Y-119720815D01*
X109597151Y-119719859D01*
X110292546Y-119719050D01*
X117990100Y-119711028D01*
X117761781Y-118994862D01*
X117720262Y-118863888D01*
X117661097Y-118674393D01*
X117651801Y-118643962D01*
X117841358Y-118643962D01*
X117847891Y-118668794D01*
X117871732Y-118748652D01*
X117911108Y-118877064D01*
X117963986Y-119047602D01*
X118028333Y-119253835D01*
X118102113Y-119489335D01*
X118183293Y-119747672D01*
X118269840Y-120022417D01*
X118359719Y-120307140D01*
X118450897Y-120595412D01*
X118541339Y-120880804D01*
X118629012Y-121156885D01*
X118711882Y-121417228D01*
X118733685Y-121485526D01*
X118787916Y-121655402D01*
X118855078Y-121864977D01*
X118911335Y-122039526D01*
X118954654Y-122172617D01*
X118983001Y-122257823D01*
X118994341Y-122288712D01*
X119020444Y-122304349D01*
X119091226Y-122345813D01*
X119195307Y-122406428D01*
X119321434Y-122479624D01*
X119439188Y-122547836D01*
X119550007Y-122611986D01*
X119629988Y-122658232D01*
X119667012Y-122679564D01*
X119679680Y-122676786D01*
X119675776Y-122635377D01*
X119633053Y-122497939D01*
X119533132Y-122178330D01*
X119428950Y-121847357D01*
X119322304Y-121510567D01*
X119214991Y-121173504D01*
X119108807Y-120841713D01*
X119005549Y-120520741D01*
X118907014Y-120216132D01*
X118814999Y-119933432D01*
X118731300Y-119678187D01*
X118657714Y-119455942D01*
X118596038Y-119272242D01*
X118548069Y-119132634D01*
X118515604Y-119042661D01*
X118500438Y-119007870D01*
X118450340Y-118971182D01*
X118365219Y-118917622D01*
X118258238Y-118854608D01*
X118142137Y-118789176D01*
X118029658Y-118728361D01*
X117933541Y-118679197D01*
X117866528Y-118648719D01*
X117841358Y-118643962D01*
X117651801Y-118643962D01*
X117611285Y-118511330D01*
X117573381Y-118383235D01*
X117549941Y-118298642D01*
X117543523Y-118266089D01*
X117545975Y-118265794D01*
X117586983Y-118283036D01*
X117669925Y-118325824D01*
X117784591Y-118388290D01*
X117920767Y-118464563D01*
X118068241Y-118548774D01*
X118216801Y-118635053D01*
X118356234Y-118717531D01*
X118476329Y-118790337D01*
X118566873Y-118847603D01*
X118617654Y-118883459D01*
X118633006Y-118901714D01*
X118656379Y-118943620D01*
X118686262Y-119010923D01*
X118724006Y-119107563D01*
X118770963Y-119237481D01*
X118828484Y-119404617D01*
X118897921Y-119612910D01*
X118980625Y-119866302D01*
X119077947Y-120168731D01*
X119191240Y-120524139D01*
X119321855Y-120936466D01*
X119363369Y-121067834D01*
X119469941Y-121405215D01*
X119570436Y-121723559D01*
X119663215Y-122017659D01*
X119746635Y-122282307D01*
X119819059Y-122512296D01*
X119870784Y-122676786D01*
X119878845Y-122702419D01*
X119924354Y-122847468D01*
G37*
%TD*%
D11*
%TO.C,R10*%
X185944000Y-119380000D03*
X187944000Y-119380000D03*
%TD*%
%TO.C,R9*%
X191278000Y-85090000D03*
X193278000Y-85090000D03*
%TD*%
D12*
%TO.C,R8*%
X173974000Y-114808000D03*
X171974000Y-114808000D03*
%TD*%
%TO.C,R7*%
X154924000Y-85090000D03*
X152924000Y-85090000D03*
%TD*%
%TO.C,R6*%
X155178000Y-123190000D03*
X153178000Y-123190000D03*
%TD*%
%TO.C,R5*%
X131302000Y-123190000D03*
X129302000Y-123190000D03*
%TD*%
D11*
%TO.C,R4*%
X129048000Y-85090000D03*
X131048000Y-85090000D03*
%TD*%
%TO.C,R3*%
X111998000Y-103886000D03*
X109998000Y-103886000D03*
%TD*%
D12*
%TO.C,R1*%
X92964000Y-123190000D03*
X90964000Y-123190000D03*
%TD*%
%TO.C,R2*%
X92948000Y-85090000D03*
X90948000Y-85090000D03*
%TD*%
D13*
%TO.C,MX10*%
X197167500Y-114300000D03*
D14*
X192087500Y-114300000D03*
D13*
X187007500Y-114300000D03*
D15*
X188277500Y-111760000D03*
X194627500Y-109220000D03*
D16*
X190817500Y-119380000D03*
D17*
X193357500Y-119380000D03*
%TD*%
D13*
%TO.C,MX1*%
X97085250Y-114300000D03*
D14*
X92005250Y-114300000D03*
D13*
X86925250Y-114300000D03*
D15*
X88195250Y-111760000D03*
X94545250Y-109220000D03*
D16*
X90735250Y-119380000D03*
D17*
X93275250Y-119380000D03*
%TD*%
D13*
%TO.C,MX3*%
X105975250Y-95250000D03*
X116135250Y-95250000D03*
D14*
X111055250Y-95250000D03*
D15*
X107245250Y-92710000D03*
X113595250Y-90170000D03*
D16*
X109785250Y-100330000D03*
D17*
X112325250Y-100330000D03*
%TD*%
D18*
%TO.C,SW1*%
X192024000Y-88732000D03*
X198524000Y-88732000D03*
X192024000Y-93232000D03*
X198524000Y-93232000D03*
%TD*%
D13*
%TO.C,MX7*%
X159067500Y-76200000D03*
D14*
X153987500Y-76200000D03*
D13*
X148907500Y-76200000D03*
D15*
X150177500Y-73660000D03*
X156527500Y-71120000D03*
D16*
X152717500Y-81280000D03*
D17*
X155257500Y-81280000D03*
%TD*%
D18*
%TO.C,SW2*%
X198524000Y-97282000D03*
X192024000Y-97282000D03*
X198524000Y-101782000D03*
X192024000Y-101782000D03*
%TD*%
D19*
%TO.C,REF\u002A\u002A*%
X94456250Y-95250000D03*
D20*
X91916250Y-95250000D03*
X89376250Y-95250000D03*
%TD*%
D13*
%TO.C,MX8*%
X167957500Y-95250000D03*
D14*
X173037500Y-95250000D03*
D13*
X178117500Y-95250000D03*
D15*
X169227500Y-92710000D03*
X175577500Y-90170000D03*
D16*
X171767500Y-100330000D03*
D17*
X174307500Y-100330000D03*
%TD*%
D13*
%TO.C,MX5*%
X135255000Y-114300000D03*
D14*
X130175000Y-114300000D03*
D13*
X125095000Y-114300000D03*
D15*
X126365000Y-111760000D03*
X132715000Y-109220000D03*
D16*
X128905000Y-119380000D03*
D17*
X131445000Y-119380000D03*
%TD*%
D14*
%TO.C,MX2*%
X92005250Y-76200000D03*
D13*
X97085250Y-76200000D03*
X86925250Y-76200000D03*
D15*
X88195250Y-73660000D03*
X94545250Y-71120000D03*
D16*
X90735250Y-81280000D03*
D17*
X93275250Y-81280000D03*
%TD*%
%TO.C,MX6*%
X155257500Y-119380000D03*
D16*
X152717500Y-119380000D03*
D15*
X156527500Y-109220000D03*
X150177500Y-111760000D03*
D13*
X148907500Y-114300000D03*
D14*
X153987500Y-114300000D03*
D13*
X159067500Y-114300000D03*
%TD*%
D14*
%TO.C,MX4*%
X130105250Y-76200000D03*
D13*
X125025250Y-76200000D03*
X135185250Y-76200000D03*
D15*
X126295250Y-73660000D03*
X132645250Y-71120000D03*
D16*
X128835250Y-81280000D03*
D17*
X131375250Y-81280000D03*
%TD*%
D14*
%TO.C,MX9*%
X192087500Y-76200000D03*
D13*
X197167500Y-76200000D03*
X187007500Y-76200000D03*
D15*
X188277500Y-73660000D03*
X194627500Y-71120000D03*
D16*
X190817500Y-81280000D03*
D17*
X193357500Y-81280000D03*
%TD*%
D21*
%TO.C,U1*%
X182757750Y-61402998D03*
D20*
X181857750Y-61402998D03*
X181857750Y-63942998D03*
D21*
X182757750Y-63942998D03*
X182757750Y-66482998D03*
D19*
X181857750Y-66482998D03*
D20*
X181857750Y-69022998D03*
D21*
X182757750Y-69022998D03*
X182757750Y-71562998D03*
D20*
X181857750Y-71562998D03*
X181857750Y-74102998D03*
D21*
X182757750Y-74102998D03*
X182757750Y-76642998D03*
D20*
X181857750Y-76642998D03*
D19*
X181857750Y-79182998D03*
D21*
X182757750Y-79182998D03*
X182757750Y-81722998D03*
D20*
X181857750Y-81722998D03*
X181857750Y-84262998D03*
D21*
X182757750Y-84262998D03*
D20*
X181857750Y-86802998D03*
D21*
X182757750Y-86802998D03*
X182757750Y-89342998D03*
D20*
X181857750Y-89342998D03*
D19*
X181857750Y-91882998D03*
D21*
X182757750Y-91882998D03*
D20*
X181857750Y-94422998D03*
D21*
X182757750Y-94422998D03*
X182757750Y-96962998D03*
D20*
X181857750Y-96962998D03*
X181857750Y-99502998D03*
D21*
X182757750Y-99502998D03*
D20*
X181857750Y-102042998D03*
D21*
X182757750Y-102042998D03*
X182757750Y-104582998D03*
D19*
X181857750Y-104582998D03*
D20*
X181857750Y-107122998D03*
D21*
X182757750Y-107122998D03*
D20*
X181857750Y-109662998D03*
D21*
X182757750Y-109662998D03*
D20*
X164077750Y-109662998D03*
D21*
X163177750Y-109662998D03*
X163177750Y-107122998D03*
D20*
X164077750Y-107122998D03*
D21*
X163177750Y-104582998D03*
D19*
X164077750Y-104582998D03*
D21*
X163177750Y-102042998D03*
D20*
X164077750Y-102042998D03*
D21*
X163177750Y-99502998D03*
D20*
X164077750Y-99502998D03*
D21*
X163177750Y-96962998D03*
D20*
X164077750Y-96962998D03*
X164077750Y-94422998D03*
D21*
X163177750Y-94422998D03*
D19*
X164077750Y-91882998D03*
D21*
X163177750Y-91882998D03*
X163177750Y-89342998D03*
D20*
X164077750Y-89342998D03*
D21*
X163177750Y-86802998D03*
D20*
X164077750Y-86802998D03*
D21*
X163177750Y-84262998D03*
D20*
X164077750Y-84262998D03*
X164077750Y-81722998D03*
D21*
X163177750Y-81722998D03*
D19*
X164077750Y-79182998D03*
D21*
X163177750Y-79182998D03*
D20*
X164077750Y-76642998D03*
D21*
X163177750Y-76642998D03*
D20*
X164077750Y-74102998D03*
D21*
X163177750Y-74102998D03*
X163177750Y-71562998D03*
D20*
X164077750Y-71562998D03*
D21*
X163177750Y-69022998D03*
D20*
X164077750Y-69022998D03*
D21*
X163177750Y-66482998D03*
D19*
X164077750Y-66482998D03*
D20*
X164077750Y-63942998D03*
D21*
X163177750Y-63942998D03*
X163177750Y-61402998D03*
D20*
X164077750Y-61402998D03*
D22*
X175507750Y-110332998D03*
D20*
X175507750Y-109432998D03*
D22*
X172967750Y-110332998D03*
D19*
X172967750Y-109432998D03*
D20*
X170427750Y-109432998D03*
D22*
X170427750Y-110332998D03*
%TD*%
M02*
