%TF.GenerationSoftware,KiCad,Pcbnew,(6.0.8)*%
%TF.CreationDate,2022-10-24T13:17:52-06:00*%
%TF.ProjectId,pcb,7063622e-6b69-4636-9164-5f7063625858,rev?*%
%TF.SameCoordinates,Original*%
%TF.FileFunction,Legend,Top*%
%TF.FilePolarity,Positive*%
%FSLAX46Y46*%
G04 Gerber Fmt 4.6, Leading zero omitted, Abs format (unit mm)*
G04 Created by KiCad (PCBNEW (6.0.8)) date 2022-10-24 13:17:52*
%MOMM*%
%LPD*%
G01*
G04 APERTURE LIST*
%ADD10C,0.300000*%
%ADD11C,0.150000*%
%ADD12C,0.120000*%
%ADD13C,1.750000*%
%ADD14C,3.987800*%
%ADD15C,2.000000*%
%ADD16R,1.700000X1.700000*%
%ADD17O,1.700000X1.700000*%
G04 APERTURE END LIST*
D10*
X84558857Y-62777714D02*
X83558857Y-62777714D01*
X83558857Y-64349142D02*
X83558857Y-61349142D01*
X84987428Y-61349142D01*
X87844571Y-64349142D02*
X86844571Y-62920571D01*
X86130285Y-64349142D02*
X86130285Y-61349142D01*
X87273142Y-61349142D01*
X87558857Y-61492000D01*
X87701714Y-61634857D01*
X87844571Y-61920571D01*
X87844571Y-62349142D01*
X87701714Y-62634857D01*
X87558857Y-62777714D01*
X87273142Y-62920571D01*
X86130285Y-62920571D01*
X89701714Y-61349142D02*
X90273142Y-61349142D01*
X90558857Y-61492000D01*
X90844571Y-61777714D01*
X90987428Y-62349142D01*
X90987428Y-63349142D01*
X90844571Y-63920571D01*
X90558857Y-64206285D01*
X90273142Y-64349142D01*
X89701714Y-64349142D01*
X89416000Y-64206285D01*
X89130285Y-63920571D01*
X88987428Y-63349142D01*
X88987428Y-62349142D01*
X89130285Y-61777714D01*
X89416000Y-61492000D01*
X89701714Y-61349142D01*
X92273142Y-64349142D02*
X92273142Y-61349142D01*
X93987428Y-64349142D01*
X93987428Y-61349142D01*
X94987428Y-61349142D02*
X96701714Y-61349142D01*
X95844571Y-64349142D02*
X95844571Y-61349142D01*
D11*
X193730761Y-94702380D02*
X194302190Y-94702380D01*
X194016476Y-95702380D02*
X194016476Y-94702380D01*
X194635523Y-95178571D02*
X194968857Y-95178571D01*
X195111714Y-95702380D02*
X194635523Y-95702380D01*
X194635523Y-94702380D01*
X195111714Y-94702380D01*
X195492666Y-95654761D02*
X195635523Y-95702380D01*
X195873619Y-95702380D01*
X195968857Y-95654761D01*
X196016476Y-95607142D01*
X196064095Y-95511904D01*
X196064095Y-95416666D01*
X196016476Y-95321428D01*
X195968857Y-95273809D01*
X195873619Y-95226190D01*
X195683142Y-95178571D01*
X195587904Y-95130952D01*
X195540285Y-95083333D01*
X195492666Y-94988095D01*
X195492666Y-94892857D01*
X195540285Y-94797619D01*
X195587904Y-94750000D01*
X195683142Y-94702380D01*
X195921238Y-94702380D01*
X196064095Y-94750000D01*
X196349809Y-94702380D02*
X196921238Y-94702380D01*
X196635523Y-95702380D02*
X196635523Y-94702380D01*
X192468857Y-87018761D02*
X192611714Y-87066380D01*
X192849809Y-87066380D01*
X192945047Y-87018761D01*
X192992666Y-86971142D01*
X193040285Y-86875904D01*
X193040285Y-86780666D01*
X192992666Y-86685428D01*
X192945047Y-86637809D01*
X192849809Y-86590190D01*
X192659333Y-86542571D01*
X192564095Y-86494952D01*
X192516476Y-86447333D01*
X192468857Y-86352095D01*
X192468857Y-86256857D01*
X192516476Y-86161619D01*
X192564095Y-86114000D01*
X192659333Y-86066380D01*
X192897428Y-86066380D01*
X193040285Y-86114000D01*
X193468857Y-86542571D02*
X193802190Y-86542571D01*
X193945047Y-87066380D02*
X193468857Y-87066380D01*
X193468857Y-86066380D01*
X193945047Y-86066380D01*
X194945047Y-87066380D02*
X194611714Y-86590190D01*
X194373619Y-87066380D02*
X194373619Y-86066380D01*
X194754571Y-86066380D01*
X194849809Y-86114000D01*
X194897428Y-86161619D01*
X194945047Y-86256857D01*
X194945047Y-86399714D01*
X194897428Y-86494952D01*
X194849809Y-86542571D01*
X194754571Y-86590190D01*
X194373619Y-86590190D01*
X195230761Y-86066380D02*
X195564095Y-87066380D01*
X195897428Y-86066380D01*
X196230761Y-87066380D02*
X196230761Y-86066380D01*
X197278380Y-86971142D02*
X197230761Y-87018761D01*
X197087904Y-87066380D01*
X196992666Y-87066380D01*
X196849809Y-87018761D01*
X196754571Y-86923523D01*
X196706952Y-86828285D01*
X196659333Y-86637809D01*
X196659333Y-86494952D01*
X196706952Y-86304476D01*
X196754571Y-86209238D01*
X196849809Y-86114000D01*
X196992666Y-86066380D01*
X197087904Y-86066380D01*
X197230761Y-86114000D01*
X197278380Y-86161619D01*
X197706952Y-86542571D02*
X198040285Y-86542571D01*
X198183142Y-87066380D02*
X197706952Y-87066380D01*
X197706952Y-86066380D01*
X198183142Y-86066380D01*
%TO.C,G\u002A\u002A\u002A*%
G36*
X158637347Y-119820735D02*
G01*
X160252179Y-121435125D01*
X160252179Y-122331683D01*
X160251649Y-122636094D01*
X160249234Y-122866931D01*
X160243699Y-123037902D01*
X160233807Y-123162714D01*
X160218322Y-123255077D01*
X160196007Y-123328698D01*
X160165626Y-123397286D01*
X160153983Y-123420440D01*
X160019161Y-123605338D01*
X159881217Y-123702454D01*
X159858299Y-123713865D01*
X159833289Y-123724266D01*
X159802231Y-123733704D01*
X159761170Y-123742225D01*
X159706147Y-123749878D01*
X159633209Y-123756707D01*
X159538397Y-123762760D01*
X159417756Y-123768084D01*
X159267329Y-123772726D01*
X159083160Y-123776733D01*
X158861294Y-123780150D01*
X158597773Y-123783026D01*
X158288641Y-123785406D01*
X157929943Y-123787338D01*
X157517721Y-123788868D01*
X157048020Y-123790044D01*
X156516883Y-123790912D01*
X155920355Y-123791518D01*
X155254478Y-123791910D01*
X154515296Y-123792134D01*
X153698854Y-123792237D01*
X152801194Y-123792267D01*
X152287402Y-123792268D01*
X151344738Y-123792258D01*
X150485415Y-123792196D01*
X149705489Y-123792037D01*
X149001015Y-123791734D01*
X148368050Y-123791241D01*
X147802648Y-123790511D01*
X147300866Y-123789498D01*
X146858759Y-123788157D01*
X146472383Y-123786440D01*
X146137794Y-123784301D01*
X145851047Y-123781695D01*
X145608199Y-123778574D01*
X145405305Y-123774893D01*
X145238420Y-123770606D01*
X145103601Y-123765665D01*
X144996903Y-123760025D01*
X144914382Y-123753640D01*
X144852093Y-123746462D01*
X144806093Y-123738447D01*
X144772437Y-123729547D01*
X144747181Y-123719716D01*
X144726380Y-123708909D01*
X144716953Y-123703439D01*
X144590327Y-123602484D01*
X144484307Y-123475469D01*
X144476919Y-123463404D01*
X144465633Y-123443337D01*
X144455346Y-123420682D01*
X144446011Y-123391493D01*
X144437582Y-123351828D01*
X144430014Y-123297742D01*
X144423260Y-123225290D01*
X144417272Y-123130528D01*
X144412006Y-123009512D01*
X144407415Y-122858297D01*
X144403453Y-122672941D01*
X144400073Y-122449497D01*
X144397229Y-122184022D01*
X144394875Y-121872571D01*
X144392964Y-121511201D01*
X144391451Y-121095967D01*
X144390288Y-120622925D01*
X144389430Y-120088130D01*
X144388831Y-119487638D01*
X144388443Y-118817506D01*
X144388222Y-118073788D01*
X144388120Y-117252540D01*
X144388091Y-116349819D01*
X144388089Y-115892955D01*
X144388098Y-114950322D01*
X144388156Y-114091018D01*
X144388310Y-113311087D01*
X144388607Y-112606572D01*
X144389093Y-111973517D01*
X144389633Y-111550516D01*
X146547270Y-111550516D01*
X146558745Y-116369834D01*
X146560555Y-117121428D01*
X146562267Y-117790654D01*
X146563983Y-118382428D01*
X146565805Y-118901666D01*
X146567832Y-119353284D01*
X146570166Y-119742199D01*
X146572908Y-120073327D01*
X146576158Y-120351584D01*
X146580019Y-120581887D01*
X146584590Y-120769153D01*
X146589973Y-120918296D01*
X146596269Y-121034235D01*
X146603579Y-121121884D01*
X146612003Y-121186161D01*
X146621643Y-121231982D01*
X146632599Y-121264263D01*
X146644973Y-121287921D01*
X146658866Y-121307871D01*
X146660202Y-121309663D01*
X146764152Y-121426183D01*
X146870695Y-121520156D01*
X146890552Y-121534191D01*
X146913672Y-121546698D01*
X146944970Y-121557779D01*
X146989363Y-121567534D01*
X147051767Y-121576064D01*
X147137099Y-121583470D01*
X147250275Y-121589854D01*
X147396211Y-121595315D01*
X147579824Y-121599956D01*
X147806029Y-121603877D01*
X148079744Y-121607178D01*
X148405884Y-121609962D01*
X148789367Y-121612329D01*
X149235108Y-121614380D01*
X149748023Y-121616215D01*
X150333029Y-121617937D01*
X150995043Y-121619646D01*
X151738981Y-121621442D01*
X151810524Y-121621612D01*
X156629842Y-121633087D01*
X156629842Y-120909929D01*
X156269114Y-120551075D01*
X155908386Y-120192220D01*
X151959406Y-120181076D01*
X148010426Y-120169931D01*
X148004330Y-118009622D01*
X150170736Y-118009622D01*
X154491354Y-118009622D01*
X154491354Y-116941639D01*
X155025321Y-116406386D01*
X155559288Y-115871134D01*
X153986627Y-115871134D01*
X153540520Y-115870306D01*
X153175755Y-115867693D01*
X152886404Y-115863106D01*
X152666538Y-115856352D01*
X152510228Y-115847241D01*
X152411545Y-115835582D01*
X152364562Y-115821184D01*
X152361595Y-115818763D01*
X152346766Y-115779061D01*
X152334706Y-115688553D01*
X152325224Y-115541312D01*
X152318127Y-115331408D01*
X152313225Y-115052913D01*
X152310327Y-114699898D01*
X152309242Y-114266436D01*
X152309224Y-114193731D01*
X152309224Y-113645361D01*
X154534997Y-113645361D01*
X157743397Y-113645361D01*
X159880549Y-111506873D01*
X156673485Y-111506873D01*
X156673485Y-108301137D01*
X155610954Y-109347561D01*
X154548423Y-110393986D01*
X154541710Y-112019674D01*
X154534997Y-113645361D01*
X152309224Y-113645361D01*
X152309224Y-112621069D01*
X151773971Y-113155036D01*
X151238719Y-113689004D01*
X150170736Y-113689004D01*
X150170736Y-118009622D01*
X148004330Y-118009622D01*
X147999282Y-116220952D01*
X147988137Y-112271972D01*
X147270429Y-111550516D01*
X146547270Y-111550516D01*
X144389633Y-111550516D01*
X144389815Y-111407965D01*
X144390821Y-110905962D01*
X144392156Y-110463550D01*
X144393867Y-110076773D01*
X144396003Y-109741674D01*
X144398608Y-109454298D01*
X144401730Y-109210689D01*
X144405417Y-109006889D01*
X144409713Y-108838943D01*
X144414668Y-108702894D01*
X144420326Y-108594787D01*
X144426735Y-108510664D01*
X144433942Y-108446570D01*
X144441994Y-108398549D01*
X144450937Y-108362643D01*
X144460818Y-108334897D01*
X144471684Y-108311355D01*
X144477904Y-108299141D01*
X144611419Y-108125990D01*
X144759917Y-108026375D01*
X144829792Y-107993148D01*
X144900309Y-107968383D01*
X144985174Y-107950844D01*
X145098097Y-107939294D01*
X145252786Y-107932498D01*
X145462949Y-107929218D01*
X145742295Y-107928219D01*
X145848675Y-107928179D01*
X146745233Y-107928179D01*
X149974013Y-111157843D01*
X153182020Y-107950056D01*
X156390027Y-104742268D01*
X157419156Y-104742268D01*
X157710462Y-104743453D01*
X157972243Y-104746777D01*
X158192009Y-104751898D01*
X158357270Y-104758471D01*
X158455537Y-104766155D01*
X158477379Y-104771363D01*
X158485580Y-104821458D01*
X158492886Y-104946348D01*
X158498954Y-105133548D01*
X158503441Y-105370569D01*
X158506003Y-105644924D01*
X158506474Y-105829948D01*
X158506474Y-106859438D01*
X159913949Y-108266035D01*
X161321423Y-109672631D01*
X162368846Y-109684168D01*
X163416268Y-109695705D01*
X163427992Y-110742204D01*
X163436558Y-111506873D01*
X163439715Y-111788703D01*
X160231115Y-114997524D01*
X159357565Y-115871134D01*
X157022514Y-118206345D01*
X158637347Y-119820735D01*
G37*
D12*
%TO.C,SW1*%
X193024000Y-94232000D02*
X197524000Y-94232000D01*
X191774000Y-90232000D02*
X191774000Y-91732000D01*
X198774000Y-91732000D02*
X198774000Y-90232000D01*
X197524000Y-87732000D02*
X193024000Y-87732000D01*
%TO.C,G\u002A\u002A\u002A*%
G36*
X173983540Y-91873615D02*
G01*
X173838378Y-91736704D01*
X173759884Y-91641803D01*
X173629707Y-91439864D01*
X173533755Y-91226285D01*
X173471234Y-91005101D01*
X173441353Y-90780348D01*
X173442256Y-90677360D01*
X174135569Y-90677360D01*
X174155336Y-90858464D01*
X174214819Y-91037074D01*
X174247627Y-91103348D01*
X174341132Y-91241908D01*
X174452612Y-91349679D01*
X174577602Y-91425008D01*
X174711636Y-91466242D01*
X174850251Y-91471727D01*
X174988982Y-91439813D01*
X175063997Y-91405566D01*
X175187425Y-91316997D01*
X175283824Y-91203997D01*
X175285361Y-91201087D01*
X177234418Y-91201087D01*
X177248842Y-91305837D01*
X177287540Y-91403365D01*
X177351433Y-91487438D01*
X177441441Y-91551823D01*
X177487521Y-91571589D01*
X177547566Y-91591656D01*
X177589495Y-91598403D01*
X177633190Y-91592654D01*
X177682575Y-91579667D01*
X177773688Y-91536957D01*
X177859496Y-91466322D01*
X177926701Y-91379586D01*
X177943218Y-91347940D01*
X177976044Y-91233476D01*
X177975285Y-91118610D01*
X177944805Y-91009966D01*
X177888469Y-90914166D01*
X177810141Y-90837831D01*
X177713684Y-90787583D01*
X177606004Y-90770032D01*
X177494140Y-90787201D01*
X177401021Y-90834551D01*
X177327568Y-90905848D01*
X177274702Y-90994859D01*
X177243345Y-91095350D01*
X177234418Y-91201087D01*
X175285361Y-91201087D01*
X175353494Y-91072079D01*
X175396740Y-90926756D01*
X175413862Y-90773541D01*
X175405165Y-90617948D01*
X175387750Y-90540348D01*
X175969440Y-90540348D01*
X175983222Y-90697375D01*
X176024947Y-90836108D01*
X176092088Y-90951660D01*
X176182122Y-91039147D01*
X176246389Y-91076275D01*
X176349481Y-91108776D01*
X176446372Y-91105771D01*
X176531622Y-91076332D01*
X176608839Y-91031643D01*
X176670009Y-90972395D01*
X176723845Y-90888770D01*
X176755821Y-90823754D01*
X176782758Y-90760201D01*
X176798062Y-90706091D01*
X176804014Y-90646637D01*
X176802897Y-90567047D01*
X176801166Y-90529879D01*
X176779106Y-90368892D01*
X176730042Y-90237092D01*
X176652854Y-90132459D01*
X176546419Y-90052972D01*
X176532043Y-90045243D01*
X176431486Y-90013390D01*
X176330416Y-90017717D01*
X176233422Y-90054185D01*
X176145096Y-90118753D01*
X176070027Y-90207381D01*
X176012808Y-90316031D01*
X175978028Y-90440662D01*
X175969440Y-90540348D01*
X175387750Y-90540348D01*
X175370950Y-90465488D01*
X175311519Y-90321676D01*
X175227175Y-90192024D01*
X175118221Y-90082045D01*
X174986777Y-89998136D01*
X174857808Y-89956228D01*
X174719594Y-89947636D01*
X174584485Y-89972087D01*
X174498024Y-90008907D01*
X174374746Y-90095266D01*
X174278843Y-90205480D01*
X174215653Y-90319230D01*
X174155635Y-90496652D01*
X174135569Y-90677360D01*
X173442256Y-90677360D01*
X173443319Y-90556061D01*
X173476339Y-90336276D01*
X173539622Y-90125028D01*
X173632373Y-89926352D01*
X173753802Y-89744285D01*
X173903115Y-89582860D01*
X174079519Y-89446115D01*
X174205277Y-89373913D01*
X174388373Y-89300613D01*
X174584987Y-89260050D01*
X174758688Y-89249981D01*
X174982172Y-89268809D01*
X175194376Y-89326323D01*
X175396316Y-89422871D01*
X175537702Y-89518099D01*
X175658707Y-89610117D01*
X175740416Y-89540078D01*
X175887857Y-89439157D01*
X176057980Y-89366241D01*
X176242345Y-89323350D01*
X176432513Y-89312502D01*
X176606642Y-89332828D01*
X176772345Y-89386258D01*
X176935170Y-89474188D01*
X177087850Y-89590811D01*
X177223120Y-89730324D01*
X177333712Y-89886920D01*
X177360201Y-89934837D01*
X177436956Y-90082802D01*
X177524121Y-90069731D01*
X177641744Y-90065736D01*
X177778087Y-90083016D01*
X177919189Y-90118852D01*
X178051089Y-90170529D01*
X178057128Y-90173449D01*
X178233699Y-90281715D01*
X178385472Y-90420374D01*
X178509619Y-90585746D01*
X178603314Y-90774152D01*
X178658296Y-90955927D01*
X178679538Y-90999101D01*
X178726374Y-91021765D01*
X178736112Y-91024007D01*
X178841879Y-91059675D01*
X178958870Y-91120984D01*
X179074972Y-91200427D01*
X179178070Y-91290494D01*
X179195962Y-91309014D01*
X179322457Y-91471997D01*
X179412335Y-91650062D01*
X179464484Y-91840081D01*
X179477790Y-92038928D01*
X179474683Y-92092489D01*
X179462564Y-92237050D01*
X179544111Y-92325518D01*
X179634591Y-92448078D01*
X179708063Y-92596765D01*
X179758471Y-92758668D01*
X179766857Y-92800238D01*
X179780093Y-92983393D01*
X179755791Y-93161850D01*
X179696382Y-93329990D01*
X179604297Y-93482197D01*
X179481971Y-93612853D01*
X179383263Y-93686200D01*
X179297130Y-93731931D01*
X179197425Y-93771444D01*
X179099697Y-93799461D01*
X179019499Y-93810707D01*
X179016251Y-93810735D01*
X178964184Y-93810735D01*
X178963839Y-94170551D01*
X178963030Y-94308993D01*
X178960379Y-94415925D01*
X178955094Y-94500365D01*
X178946388Y-94571334D01*
X178933468Y-94637850D01*
X178917234Y-94702674D01*
X178881007Y-94833954D01*
X178843673Y-94960900D01*
X178803436Y-95088499D01*
X178758495Y-95221735D01*
X178707053Y-95365595D01*
X178647311Y-95525066D01*
X178577472Y-95705134D01*
X178495736Y-95910785D01*
X178400305Y-96147004D01*
X178365238Y-96233161D01*
X178302080Y-96388636D01*
X178248613Y-96522195D01*
X178202730Y-96640206D01*
X178162321Y-96749036D01*
X178125278Y-96855054D01*
X178089493Y-96964626D01*
X178052857Y-97084120D01*
X178013261Y-97219903D01*
X177968597Y-97378343D01*
X177916757Y-97565808D01*
X177881925Y-97692698D01*
X177790144Y-98013849D01*
X177694667Y-98322187D01*
X177597907Y-98610455D01*
X177502277Y-98871396D01*
X177430811Y-99049415D01*
X177302753Y-99337496D01*
X177173845Y-99591830D01*
X177039619Y-99819052D01*
X176895604Y-100025794D01*
X176737331Y-100218692D01*
X176560331Y-100404378D01*
X176443398Y-100514982D01*
X176231593Y-100701190D01*
X176036035Y-100856068D01*
X175850940Y-100982320D01*
X175670522Y-101082650D01*
X175488997Y-101159763D01*
X175300580Y-101216361D01*
X175099487Y-101255150D01*
X174879931Y-101278834D01*
X174798106Y-101284030D01*
X174492380Y-101282914D01*
X174199114Y-101246664D01*
X173921407Y-101176080D01*
X173662361Y-101071963D01*
X173425073Y-100935111D01*
X173412048Y-100926190D01*
X173310218Y-100848745D01*
X173205740Y-100757271D01*
X173109518Y-100662158D01*
X173032452Y-100573793D01*
X173009195Y-100542320D01*
X172975317Y-100493138D01*
X172930930Y-100552455D01*
X172855089Y-100641177D01*
X172755383Y-100739917D01*
X172643154Y-100838593D01*
X172529747Y-100927122D01*
X172445245Y-100984200D01*
X172263063Y-101081391D01*
X172057386Y-101165622D01*
X171844747Y-101230359D01*
X171788823Y-101243531D01*
X171721262Y-101254255D01*
X171625333Y-101264078D01*
X171510665Y-101272572D01*
X171386889Y-101279309D01*
X171263633Y-101283858D01*
X171150529Y-101285793D01*
X171057206Y-101284685D01*
X170993293Y-101280105D01*
X170987408Y-101279191D01*
X170942313Y-101271912D01*
X170872005Y-101261085D01*
X170791389Y-101249003D01*
X170788277Y-101248543D01*
X170547139Y-101193217D01*
X170303414Y-101098454D01*
X170058998Y-100965110D01*
X169863834Y-100830927D01*
X169761799Y-100749508D01*
X169645500Y-100648934D01*
X169521914Y-100535970D01*
X169398020Y-100417383D01*
X169280798Y-100299938D01*
X169177225Y-100190403D01*
X169094279Y-100095544D01*
X169058487Y-100050071D01*
X168925214Y-99858078D01*
X168798499Y-99649635D01*
X168677176Y-99421869D01*
X168560078Y-99171908D01*
X168446037Y-98896879D01*
X168333886Y-98593911D01*
X168222457Y-98260130D01*
X168110585Y-97892665D01*
X167997101Y-97488644D01*
X167957451Y-97340585D01*
X167925098Y-97221001D01*
X167893383Y-97110371D01*
X167860212Y-97002749D01*
X167823488Y-96892190D01*
X167781115Y-96772751D01*
X167730996Y-96638485D01*
X167671036Y-96483448D01*
X167599139Y-96301696D01*
X167532171Y-96134440D01*
X167421050Y-95856148D01*
X167325063Y-95611289D01*
X167243150Y-95396125D01*
X167174253Y-95206918D01*
X167117314Y-95039931D01*
X167071275Y-94891427D01*
X167035077Y-94757669D01*
X167007662Y-94634919D01*
X166987972Y-94519441D01*
X166974948Y-94407496D01*
X166967532Y-94295347D01*
X166965717Y-94221866D01*
X167665699Y-94221866D01*
X167667305Y-94305707D01*
X167675286Y-94381367D01*
X167691319Y-94463885D01*
X167717084Y-94568299D01*
X167721131Y-94583864D01*
X167755445Y-94708274D01*
X167795618Y-94839640D01*
X167843337Y-94982615D01*
X167900288Y-95141856D01*
X167968158Y-95322016D01*
X168048631Y-95527752D01*
X168143396Y-95763717D01*
X168190093Y-95878412D01*
X168267470Y-96068025D01*
X168331518Y-96225984D01*
X168384293Y-96358142D01*
X168427855Y-96470354D01*
X168464261Y-96568473D01*
X168495568Y-96658355D01*
X168523836Y-96745853D01*
X168551121Y-96836823D01*
X168579482Y-96937117D01*
X168610977Y-97052590D01*
X168637430Y-97150954D01*
X168719102Y-97450308D01*
X168794550Y-97715711D01*
X168865623Y-97952943D01*
X168934170Y-98167783D01*
X169002040Y-98366010D01*
X169071081Y-98553405D01*
X169143143Y-98735746D01*
X169149012Y-98750089D01*
X169247855Y-98981013D01*
X169342743Y-99179542D01*
X169438273Y-99352911D01*
X169539047Y-99508355D01*
X169649663Y-99653108D01*
X169774721Y-99794406D01*
X169883091Y-99904755D01*
X170034776Y-100049957D01*
X170167513Y-100168295D01*
X170287572Y-100264649D01*
X170401227Y-100343899D01*
X170514750Y-100410923D01*
X170571846Y-100440591D01*
X170682257Y-100491707D01*
X170785029Y-100528981D01*
X170889723Y-100554139D01*
X171005901Y-100568908D01*
X171143123Y-100575013D01*
X171310950Y-100574179D01*
X171311750Y-100574163D01*
X171437701Y-100570944D01*
X171532919Y-100566249D01*
X171607210Y-100558804D01*
X171670384Y-100547336D01*
X171732249Y-100530570D01*
X171787932Y-100512299D01*
X171973833Y-100435362D01*
X172131342Y-100339881D01*
X172270749Y-100219461D01*
X172288547Y-100201151D01*
X172410320Y-100047562D01*
X172499847Y-99874820D01*
X172558075Y-99680256D01*
X172585951Y-99461200D01*
X172587995Y-99386139D01*
X173347493Y-99386139D01*
X173362788Y-99589808D01*
X173392099Y-99740104D01*
X173461331Y-99930362D01*
X173564824Y-100101674D01*
X173699710Y-100251377D01*
X173863120Y-100376806D01*
X174052186Y-100475296D01*
X174255613Y-100542141D01*
X174368292Y-100561907D01*
X174507844Y-100574490D01*
X174661217Y-100579753D01*
X174815357Y-100577560D01*
X174957212Y-100567771D01*
X175071503Y-100550726D01*
X175219819Y-100509050D01*
X175368328Y-100445644D01*
X175521045Y-100357896D01*
X175681987Y-100243197D01*
X175855170Y-100098936D01*
X176044609Y-99922502D01*
X176057823Y-99909622D01*
X176187733Y-99777340D01*
X176296934Y-99652630D01*
X176392543Y-99525524D01*
X176481675Y-99386052D01*
X176571449Y-99224246D01*
X176632082Y-99105263D01*
X176720713Y-98918485D01*
X176805992Y-98720645D01*
X176889376Y-98507504D01*
X176972321Y-98274823D01*
X177056286Y-98018362D01*
X177142727Y-97733883D01*
X177233102Y-97417147D01*
X177311855Y-97127807D01*
X177347638Y-96996395D01*
X177381838Y-96877251D01*
X177416757Y-96763795D01*
X177454699Y-96649447D01*
X177497968Y-96527627D01*
X177548867Y-96391754D01*
X177609700Y-96235248D01*
X177682770Y-96051529D01*
X177728093Y-95938773D01*
X177841459Y-95655458D01*
X177939346Y-95405990D01*
X178022708Y-95187152D01*
X178092502Y-94995730D01*
X178149680Y-94828506D01*
X178195199Y-94682266D01*
X178230013Y-94553793D01*
X178255077Y-94439872D01*
X178271346Y-94337286D01*
X178279775Y-94242820D01*
X178281319Y-94153258D01*
X178278402Y-94085407D01*
X178260536Y-93923374D01*
X178227751Y-93774999D01*
X178177016Y-93634867D01*
X178105300Y-93497563D01*
X178009571Y-93357674D01*
X177886797Y-93209783D01*
X177733947Y-93048477D01*
X177653237Y-92968800D01*
X177589572Y-92909253D01*
X178715886Y-92909253D01*
X178751456Y-92993159D01*
X178757011Y-93001655D01*
X178822355Y-93075833D01*
X178891504Y-93112963D01*
X178960878Y-93112043D01*
X179022754Y-93075898D01*
X179070280Y-93009197D01*
X179081625Y-92932186D01*
X179057183Y-92852046D01*
X179006754Y-92785004D01*
X178932650Y-92730648D01*
X178859946Y-92715773D01*
X178790935Y-92740558D01*
X178760549Y-92765839D01*
X178718930Y-92832586D01*
X178715886Y-92909253D01*
X177589572Y-92909253D01*
X177437451Y-92766973D01*
X177237182Y-92596756D01*
X177047268Y-92454888D01*
X176862544Y-92338110D01*
X176677847Y-92243159D01*
X176488015Y-92166775D01*
X176287882Y-92105696D01*
X176285633Y-92105105D01*
X176128233Y-92074850D01*
X175951754Y-92059235D01*
X175770972Y-92058428D01*
X175600664Y-92072598D01*
X175477512Y-92095938D01*
X175262614Y-92166077D01*
X175082121Y-92257607D01*
X174935773Y-92370895D01*
X174823312Y-92506306D01*
X174744476Y-92664207D01*
X174699005Y-92844965D01*
X174686641Y-93048947D01*
X174696554Y-93197058D01*
X174714623Y-93334901D01*
X174738014Y-93462034D01*
X174768951Y-93583384D01*
X174809661Y-93703879D01*
X174862369Y-93828445D01*
X174929301Y-93962010D01*
X175012683Y-94109500D01*
X175114739Y-94275842D01*
X175237696Y-94465965D01*
X175337534Y-94616047D01*
X175497091Y-94862532D01*
X175629105Y-95086872D01*
X175735603Y-95294661D01*
X175818613Y-95491492D01*
X175880160Y-95682960D01*
X175922272Y-95874658D01*
X175946975Y-96072178D01*
X175956296Y-96281116D01*
X175956493Y-96324382D01*
X175943530Y-96563941D01*
X175903789Y-96778496D01*
X175834935Y-96975387D01*
X175734635Y-97161954D01*
X175652967Y-97279191D01*
X175500524Y-97448625D01*
X175312863Y-97602035D01*
X175092605Y-97737953D01*
X174842373Y-97854913D01*
X174564785Y-97951449D01*
X174352452Y-98006805D01*
X174176308Y-98065954D01*
X174002772Y-98159882D01*
X173838166Y-98282998D01*
X173688811Y-98429708D01*
X173561029Y-98594422D01*
X173461141Y-98771545D01*
X173444001Y-98810509D01*
X173388771Y-98984468D01*
X173356378Y-99180352D01*
X173347493Y-99386139D01*
X172587995Y-99386139D01*
X172588845Y-99354949D01*
X172571920Y-99114368D01*
X172520526Y-98894157D01*
X172433732Y-98691907D01*
X172310608Y-98505209D01*
X172220520Y-98401347D01*
X172139927Y-98323239D01*
X172048601Y-98245078D01*
X171961963Y-98179761D01*
X171932130Y-98160153D01*
X171872567Y-98124327D01*
X171818229Y-98095112D01*
X171761366Y-98069579D01*
X171694228Y-98044794D01*
X171609063Y-98017827D01*
X171498121Y-97985746D01*
X171395376Y-97957129D01*
X171104093Y-97860517D01*
X170845067Y-97740897D01*
X170618795Y-97598887D01*
X170425769Y-97435108D01*
X170266486Y-97250179D01*
X170141438Y-97044720D01*
X170051122Y-96819349D01*
X169996031Y-96574687D01*
X169976659Y-96311353D01*
X169979886Y-96184008D01*
X169993878Y-96010921D01*
X170017507Y-95848312D01*
X170052840Y-95691086D01*
X170101944Y-95534151D01*
X170166887Y-95372412D01*
X170249736Y-95200775D01*
X170352557Y-95014148D01*
X170477419Y-94807436D01*
X170626389Y-94575546D01*
X170642782Y-94550639D01*
X170777312Y-94343332D01*
X170889233Y-94162715D01*
X170980967Y-94003580D01*
X171054936Y-93860725D01*
X171113560Y-93728944D01*
X171159262Y-93603032D01*
X171194463Y-93477784D01*
X171221585Y-93347997D01*
X171232272Y-93283680D01*
X171246508Y-93136312D01*
X171246673Y-92981790D01*
X171233629Y-92833265D01*
X171208235Y-92703886D01*
X171190801Y-92649499D01*
X171116662Y-92509949D01*
X171008883Y-92385167D01*
X170872315Y-92277182D01*
X170711807Y-92188025D01*
X170532210Y-92119725D01*
X170338374Y-92074312D01*
X170135149Y-92053816D01*
X169927385Y-92060268D01*
X169818345Y-92075088D01*
X169536802Y-92143847D01*
X169259987Y-92250344D01*
X168994073Y-92391802D01*
X168767696Y-92547853D01*
X168650899Y-92642107D01*
X168523072Y-92751807D01*
X168392434Y-92869350D01*
X168267208Y-92987128D01*
X168155615Y-93097536D01*
X168065876Y-93192969D01*
X168046916Y-93214650D01*
X167919161Y-93373993D01*
X167822183Y-93520956D01*
X167752245Y-93664433D01*
X167705610Y-93813320D01*
X167678543Y-93976511D01*
X167668789Y-94114805D01*
X167665699Y-94221866D01*
X166965717Y-94221866D01*
X166964665Y-94179258D01*
X166964558Y-94130008D01*
X166965571Y-93810735D01*
X166910618Y-93810735D01*
X166833396Y-93800440D01*
X166737328Y-93773120D01*
X166637380Y-93734123D01*
X166548516Y-93688798D01*
X166521915Y-93671820D01*
X166393521Y-93559864D01*
X166285583Y-93416530D01*
X166230222Y-93312670D01*
X166185626Y-93176490D01*
X166164259Y-93020431D01*
X166164657Y-92994787D01*
X166861472Y-92994787D01*
X166887335Y-93058023D01*
X166937730Y-93102829D01*
X166999671Y-93120224D01*
X167027323Y-93113883D01*
X167074918Y-93096619D01*
X167084478Y-93092699D01*
X167149689Y-93047908D01*
X167194354Y-92982987D01*
X167215966Y-92908547D01*
X167212020Y-92835197D01*
X167180008Y-92773544D01*
X167163525Y-92758096D01*
X167097225Y-92722449D01*
X167032043Y-92724208D01*
X166961984Y-92763930D01*
X166944608Y-92778444D01*
X166888756Y-92846604D01*
X166861496Y-92921516D01*
X166861472Y-92994787D01*
X166164657Y-92994787D01*
X166166778Y-92858293D01*
X166193842Y-92703876D01*
X166200165Y-92681883D01*
X166255814Y-92539300D01*
X166331047Y-92403542D01*
X166416675Y-92291068D01*
X166420898Y-92286528D01*
X166444513Y-92258726D01*
X166459268Y-92229806D01*
X166466992Y-92190053D01*
X166469510Y-92129750D01*
X166468650Y-92039179D01*
X166468541Y-92033136D01*
X166469908Y-92006585D01*
X167156123Y-92006585D01*
X167165206Y-92055775D01*
X167188178Y-92120006D01*
X167201734Y-92149257D01*
X167263076Y-92232742D01*
X167344937Y-92290892D01*
X167438204Y-92321083D01*
X167533765Y-92320689D01*
X167622508Y-92287086D01*
X167639628Y-92275412D01*
X167719285Y-92194374D01*
X167765182Y-92101001D01*
X167778954Y-92002458D01*
X167762238Y-91905909D01*
X167716671Y-91818520D01*
X167643889Y-91747454D01*
X167545529Y-91699876D01*
X167505961Y-91690211D01*
X167422056Y-91693219D01*
X167335638Y-91727599D01*
X167258319Y-91786721D01*
X167201734Y-91863913D01*
X167174502Y-91928314D01*
X167158193Y-91986960D01*
X167156123Y-92006585D01*
X166469908Y-92006585D01*
X166478694Y-91835964D01*
X166518758Y-91661012D01*
X166591622Y-91500275D01*
X166700175Y-91345749D01*
X166728723Y-91312259D01*
X166813906Y-91232055D01*
X166892123Y-91175459D01*
X167966977Y-91175459D01*
X167983463Y-91299940D01*
X168029258Y-91406923D01*
X168098865Y-91492533D01*
X168186789Y-91552896D01*
X168287536Y-91584133D01*
X168395608Y-91582371D01*
X168496091Y-91548620D01*
X168575171Y-91489746D01*
X168642876Y-91403894D01*
X168689127Y-91304607D01*
X168695955Y-91280114D01*
X168706294Y-91163282D01*
X168684291Y-91051708D01*
X168634984Y-90951264D01*
X168563407Y-90867824D01*
X168474597Y-90807259D01*
X168373590Y-90775445D01*
X168265594Y-90778218D01*
X168157806Y-90819217D01*
X168069917Y-90891705D01*
X168006459Y-90989652D01*
X167971966Y-91107028D01*
X167966977Y-91175459D01*
X166892123Y-91175459D01*
X166922968Y-91153140D01*
X167040223Y-91085662D01*
X167149765Y-91039839D01*
X167211336Y-91017382D01*
X167254457Y-90995903D01*
X167267768Y-90983510D01*
X167341180Y-90760893D01*
X167433524Y-90572520D01*
X167446021Y-90555215D01*
X169133023Y-90555215D01*
X169148406Y-90716916D01*
X169193968Y-90855106D01*
X169268495Y-90967557D01*
X169370777Y-91052041D01*
X169416379Y-91076214D01*
X169496964Y-91106329D01*
X169566684Y-91111684D01*
X169645710Y-91093606D01*
X169651542Y-91091687D01*
X169736314Y-91046000D01*
X169818601Y-90970908D01*
X169888169Y-90876799D01*
X169916328Y-90822888D01*
X169936358Y-90768354D01*
X170523608Y-90768354D01*
X170539225Y-90919649D01*
X170582852Y-91065470D01*
X170656298Y-91200898D01*
X170706754Y-91265442D01*
X170823364Y-91371063D01*
X170952368Y-91439271D01*
X171090172Y-91469305D01*
X171233184Y-91460407D01*
X171377810Y-91411817D01*
X171384340Y-91408665D01*
X171514729Y-91323056D01*
X171623997Y-91207160D01*
X171709003Y-91067025D01*
X171766607Y-90908700D01*
X171793670Y-90738233D01*
X171793203Y-90620947D01*
X171765406Y-90450153D01*
X171709228Y-90298581D01*
X171627928Y-90169851D01*
X171524766Y-90067581D01*
X171403001Y-89995388D01*
X171265895Y-89956891D01*
X171189940Y-89951391D01*
X171046606Y-89969342D01*
X170916809Y-90021181D01*
X170802357Y-90101989D01*
X170705061Y-90206846D01*
X170626728Y-90330831D01*
X170569169Y-90469025D01*
X170534193Y-90616505D01*
X170523608Y-90768354D01*
X169936358Y-90768354D01*
X169943520Y-90748855D01*
X169958149Y-90669610D01*
X169963112Y-90568635D01*
X169963191Y-90555750D01*
X169961381Y-90465548D01*
X169952910Y-90399206D01*
X169934236Y-90340162D01*
X169902891Y-90273943D01*
X169857105Y-90199347D01*
X169802328Y-90130060D01*
X169764178Y-90092934D01*
X169717233Y-90058621D01*
X169674067Y-90039680D01*
X169619401Y-90031667D01*
X169548142Y-90030128D01*
X169470201Y-90032122D01*
X169417446Y-90041067D01*
X169374599Y-90061403D01*
X169332107Y-90092934D01*
X169279687Y-90146442D01*
X169225872Y-90218857D01*
X169193667Y-90273408D01*
X169161719Y-90341312D01*
X169143338Y-90400884D01*
X169134960Y-90468683D01*
X169133023Y-90555215D01*
X167446021Y-90555215D01*
X167546650Y-90415865D01*
X167682407Y-90288406D01*
X167842643Y-90187617D01*
X167855485Y-90181169D01*
X167983798Y-90129190D01*
X168125177Y-90090782D01*
X168264499Y-90069131D01*
X168386642Y-90067421D01*
X168392841Y-90067997D01*
X168504499Y-90079160D01*
X168584860Y-89922880D01*
X168673879Y-89780798D01*
X168787958Y-89645681D01*
X168916581Y-89528421D01*
X169049231Y-89439912D01*
X169053146Y-89437823D01*
X169246915Y-89356430D01*
X169443140Y-89315080D01*
X169639411Y-89313569D01*
X169833319Y-89351689D01*
X170022455Y-89429235D01*
X170189897Y-89535014D01*
X170247456Y-89576402D01*
X170282627Y-89595444D01*
X170304567Y-89595259D01*
X170321661Y-89579914D01*
X170364367Y-89540851D01*
X170433700Y-89491113D01*
X170519411Y-89436879D01*
X170611253Y-89384328D01*
X170698980Y-89339640D01*
X170768974Y-89310169D01*
X170886702Y-89279819D01*
X171029148Y-89260198D01*
X171181771Y-89251918D01*
X171330027Y-89255589D01*
X171459377Y-89271822D01*
X171494192Y-89279715D01*
X171694227Y-89352082D01*
X171881654Y-89459884D01*
X172051961Y-89598831D01*
X172200640Y-89764633D01*
X172323178Y-89952999D01*
X172412967Y-90153685D01*
X172476076Y-90388705D01*
X172501961Y-90628558D01*
X172491634Y-90868151D01*
X172446108Y-91102391D01*
X172366396Y-91326185D01*
X172253511Y-91534438D01*
X172108465Y-91722057D01*
X172099086Y-91732199D01*
X172025734Y-91804860D01*
X171941336Y-91879282D01*
X171854721Y-91948563D01*
X171774721Y-92005801D01*
X171710163Y-92044094D01*
X171688151Y-92053424D01*
X171686073Y-92071926D01*
X171704844Y-92110092D01*
X171714225Y-92124067D01*
X171767136Y-92212389D01*
X171820724Y-92325693D01*
X171868618Y-92449036D01*
X171904450Y-92567475D01*
X171906098Y-92574182D01*
X171943427Y-92799434D01*
X171953437Y-93045275D01*
X171937055Y-93303208D01*
X171895206Y-93564735D01*
X171828817Y-93821361D01*
X171745371Y-94049328D01*
X171695898Y-94160376D01*
X171641884Y-94270180D01*
X171579819Y-94384820D01*
X171506194Y-94510371D01*
X171417500Y-94652911D01*
X171310228Y-94818517D01*
X171239361Y-94925659D01*
X171104970Y-95131364D01*
X170993887Y-95310618D01*
X170903953Y-95468516D01*
X170833007Y-95610149D01*
X170778889Y-95740613D01*
X170739437Y-95864999D01*
X170712493Y-95988403D01*
X170695895Y-96115916D01*
X170688626Y-96224043D01*
X170686986Y-96385727D01*
X170699670Y-96518866D01*
X170728905Y-96633613D01*
X170776923Y-96740122D01*
X170816255Y-96805179D01*
X170898264Y-96910741D01*
X170999651Y-97004203D01*
X171124473Y-97087828D01*
X171276785Y-97163881D01*
X171460643Y-97234624D01*
X171680103Y-97302322D01*
X171733083Y-97316902D01*
X171967668Y-97393204D01*
X172183411Y-97492051D01*
X172389903Y-97618669D01*
X172596737Y-97778282D01*
X172626012Y-97803338D01*
X172705658Y-97878431D01*
X172788494Y-97966338D01*
X172857560Y-98048984D01*
X172861981Y-98054825D01*
X172909403Y-98116374D01*
X172947654Y-98162831D01*
X172970417Y-98186636D01*
X172973474Y-98188230D01*
X172989727Y-98172699D01*
X173024043Y-98132164D01*
X173070208Y-98074087D01*
X173091429Y-98046532D01*
X173266627Y-97849358D01*
X173472533Y-97674425D01*
X173704000Y-97525050D01*
X173955879Y-97404555D01*
X174223022Y-97316257D01*
X174224699Y-97315821D01*
X174476384Y-97240832D01*
X174690071Y-97155579D01*
X174867361Y-97058494D01*
X175009856Y-96948010D01*
X175119157Y-96822559D01*
X175196866Y-96680576D01*
X175244583Y-96520491D01*
X175263909Y-96340738D01*
X175264510Y-96298045D01*
X175259909Y-96163062D01*
X175245158Y-96034302D01*
X175218327Y-95907083D01*
X175177485Y-95776726D01*
X175120701Y-95638548D01*
X175046043Y-95487871D01*
X174951581Y-95320012D01*
X174835384Y-95130291D01*
X174695520Y-94914029D01*
X174690220Y-94905992D01*
X174529472Y-94656085D01*
X174394244Y-94430767D01*
X174282518Y-94224875D01*
X174192276Y-94033243D01*
X174121501Y-93850704D01*
X174068175Y-93672093D01*
X174030282Y-93492245D01*
X174005803Y-93305995D01*
X173993266Y-93121509D01*
X173994457Y-92864153D01*
X174021764Y-92634287D01*
X174076084Y-92427654D01*
X174158313Y-92240001D01*
X174191016Y-92182688D01*
X174265636Y-92059280D01*
X174213560Y-92027922D01*
X178157313Y-92027922D01*
X178178473Y-92122605D01*
X178228402Y-92207766D01*
X178307414Y-92275487D01*
X178331200Y-92288494D01*
X178415987Y-92322066D01*
X178488360Y-92327972D01*
X178564604Y-92307183D01*
X178574612Y-92303016D01*
X178631515Y-92269391D01*
X178689683Y-92221556D01*
X178700656Y-92210464D01*
X178733142Y-92172194D01*
X178751437Y-92135301D01*
X178759544Y-92086183D01*
X178761464Y-92011242D01*
X178761470Y-92003799D01*
X178760448Y-91928515D01*
X178753863Y-91879923D01*
X178736437Y-91844170D01*
X178702895Y-91807407D01*
X178677532Y-91783479D01*
X178587243Y-91716896D01*
X178496876Y-91688775D01*
X178399574Y-91697609D01*
X178354069Y-91712327D01*
X178263299Y-91765919D01*
X178200040Y-91841661D01*
X178164606Y-91931635D01*
X178157313Y-92027922D01*
X174213560Y-92027922D01*
X174157569Y-91994206D01*
X173983540Y-91873615D01*
G37*
G36*
X165428029Y-87724223D02*
G01*
X167409592Y-85742738D01*
X178518292Y-85742738D01*
X180499777Y-87724301D01*
X182481263Y-89705864D01*
X182481263Y-100794292D01*
X180499700Y-102775777D01*
X178518137Y-104757263D01*
X167409438Y-104757263D01*
X165427952Y-102775700D01*
X163446467Y-100794137D01*
X163446467Y-99557563D01*
X165574958Y-99557563D01*
X167120599Y-101103303D01*
X168666239Y-102649043D01*
X177281563Y-102649043D01*
X180373043Y-99557761D01*
X180373043Y-90942438D01*
X177281761Y-87850958D01*
X168666438Y-87850958D01*
X167120698Y-89396599D01*
X165574958Y-90942239D01*
X165574958Y-99557563D01*
X163446467Y-99557563D01*
X163446467Y-89705709D01*
X165428029Y-87724223D01*
G37*
G36*
X197544735Y-109586653D02*
G01*
X199159125Y-107971821D01*
X200055683Y-107971821D01*
X200360094Y-107972351D01*
X200590931Y-107974766D01*
X200761902Y-107980301D01*
X200886714Y-107990193D01*
X200979077Y-108005678D01*
X201052698Y-108027993D01*
X201121286Y-108058374D01*
X201144440Y-108070017D01*
X201329338Y-108204839D01*
X201426454Y-108342783D01*
X201437865Y-108365701D01*
X201448266Y-108390711D01*
X201457704Y-108421769D01*
X201466225Y-108462830D01*
X201473878Y-108517853D01*
X201480707Y-108590791D01*
X201486760Y-108685603D01*
X201492084Y-108806244D01*
X201496726Y-108956671D01*
X201500733Y-109140840D01*
X201504150Y-109362706D01*
X201507026Y-109626227D01*
X201509406Y-109935359D01*
X201511338Y-110294057D01*
X201512868Y-110706279D01*
X201514044Y-111175980D01*
X201514912Y-111707117D01*
X201515518Y-112303645D01*
X201515910Y-112969522D01*
X201516134Y-113708704D01*
X201516237Y-114525146D01*
X201516267Y-115422806D01*
X201516268Y-115936598D01*
X201516258Y-116879262D01*
X201516196Y-117738585D01*
X201516037Y-118518511D01*
X201515734Y-119222985D01*
X201515241Y-119855950D01*
X201514511Y-120421352D01*
X201513498Y-120923134D01*
X201512157Y-121365241D01*
X201510440Y-121751617D01*
X201508301Y-122086206D01*
X201505695Y-122372953D01*
X201502574Y-122615801D01*
X201498893Y-122818695D01*
X201494606Y-122985580D01*
X201489665Y-123120399D01*
X201484025Y-123227097D01*
X201477640Y-123309618D01*
X201470462Y-123371907D01*
X201462447Y-123417907D01*
X201453547Y-123451563D01*
X201443716Y-123476819D01*
X201432909Y-123497620D01*
X201427439Y-123507047D01*
X201326484Y-123633673D01*
X201199469Y-123739693D01*
X201187404Y-123747081D01*
X201167337Y-123758367D01*
X201144682Y-123768654D01*
X201115493Y-123777989D01*
X201075828Y-123786418D01*
X201021742Y-123793986D01*
X200949290Y-123800740D01*
X200854528Y-123806728D01*
X200733512Y-123811994D01*
X200582297Y-123816585D01*
X200396941Y-123820547D01*
X200173497Y-123823927D01*
X199908022Y-123826771D01*
X199596571Y-123829125D01*
X199235201Y-123831036D01*
X198819967Y-123832549D01*
X198346925Y-123833712D01*
X197812130Y-123834570D01*
X197211638Y-123835169D01*
X196541506Y-123835557D01*
X195797788Y-123835778D01*
X194976540Y-123835880D01*
X194073819Y-123835909D01*
X193616955Y-123835911D01*
X192674322Y-123835902D01*
X191815018Y-123835844D01*
X191035087Y-123835690D01*
X190330572Y-123835393D01*
X189697517Y-123834907D01*
X189131965Y-123834185D01*
X188629962Y-123833179D01*
X188187550Y-123831844D01*
X187800773Y-123830133D01*
X187465674Y-123827997D01*
X187178298Y-123825392D01*
X186934689Y-123822270D01*
X186730889Y-123818583D01*
X186562943Y-123814287D01*
X186426894Y-123809332D01*
X186318787Y-123803674D01*
X186234664Y-123797265D01*
X186170570Y-123790058D01*
X186122549Y-123782006D01*
X186086643Y-123773063D01*
X186058897Y-123763182D01*
X186035355Y-123752316D01*
X186023141Y-123746096D01*
X185849990Y-123612581D01*
X185750375Y-123464083D01*
X185717148Y-123394208D01*
X185692383Y-123323691D01*
X185674844Y-123238826D01*
X185663294Y-123125903D01*
X185656498Y-122971214D01*
X185653218Y-122761051D01*
X185652219Y-122481705D01*
X185652179Y-122375325D01*
X185652179Y-121676730D01*
X189274516Y-121676730D01*
X194093834Y-121665255D01*
X194845428Y-121663445D01*
X195514654Y-121661733D01*
X196106428Y-121660017D01*
X196625666Y-121658195D01*
X197077284Y-121656168D01*
X197466199Y-121653834D01*
X197797327Y-121651092D01*
X198075584Y-121647842D01*
X198305887Y-121643981D01*
X198493153Y-121639410D01*
X198642296Y-121634027D01*
X198758235Y-121627731D01*
X198845884Y-121620421D01*
X198910161Y-121611997D01*
X198955982Y-121602357D01*
X198988263Y-121591401D01*
X199011921Y-121579027D01*
X199031871Y-121565134D01*
X199033663Y-121563798D01*
X199150183Y-121459848D01*
X199244156Y-121353305D01*
X199258191Y-121333448D01*
X199270698Y-121310328D01*
X199281779Y-121279030D01*
X199291534Y-121234637D01*
X199300064Y-121172233D01*
X199307470Y-121086901D01*
X199313854Y-120973725D01*
X199319315Y-120827789D01*
X199323956Y-120644176D01*
X199327877Y-120417971D01*
X199331178Y-120144256D01*
X199333962Y-119818116D01*
X199336329Y-119434633D01*
X199338380Y-118988892D01*
X199340215Y-118475977D01*
X199341937Y-117890971D01*
X199343646Y-117228957D01*
X199345442Y-116485019D01*
X199345612Y-116413476D01*
X199357087Y-111594158D01*
X198633929Y-111594158D01*
X198275075Y-111954886D01*
X197916220Y-112315614D01*
X197905076Y-116264594D01*
X197893931Y-120213574D01*
X193944952Y-120224718D01*
X189995972Y-120235863D01*
X189274516Y-120953571D01*
X189274516Y-121676730D01*
X185652179Y-121676730D01*
X185652179Y-121478767D01*
X188881843Y-118249987D01*
X186546792Y-115914776D01*
X190345069Y-115914776D01*
X190879036Y-116450029D01*
X191413004Y-116985281D01*
X191413004Y-118053264D01*
X195733622Y-118053264D01*
X195733622Y-113732646D01*
X194665639Y-113732646D01*
X194130386Y-113198679D01*
X193595134Y-112664712D01*
X193595134Y-114237373D01*
X193594306Y-114683480D01*
X193591693Y-115048245D01*
X193587106Y-115337596D01*
X193580352Y-115557462D01*
X193571241Y-115713772D01*
X193559582Y-115812455D01*
X193545184Y-115859438D01*
X193542763Y-115862405D01*
X193503061Y-115877234D01*
X193412553Y-115889294D01*
X193265312Y-115898776D01*
X193055408Y-115905873D01*
X192776913Y-115910775D01*
X192423898Y-115913673D01*
X191990436Y-115914758D01*
X191917731Y-115914776D01*
X190345069Y-115914776D01*
X186546792Y-115914776D01*
X185674056Y-115041980D01*
X182466268Y-111833973D01*
X182466268Y-111550515D01*
X186025137Y-111550515D01*
X187071561Y-112613046D01*
X188117986Y-113675577D01*
X189743674Y-113682290D01*
X191369361Y-113689003D01*
X191369361Y-110480603D01*
X189230873Y-108343451D01*
X189230873Y-111550515D01*
X186025137Y-111550515D01*
X182466268Y-111550515D01*
X182466268Y-110804844D01*
X182467453Y-110513538D01*
X182470777Y-110251757D01*
X182475898Y-110031991D01*
X182482471Y-109866730D01*
X182490155Y-109768463D01*
X182495363Y-109746621D01*
X182545458Y-109738420D01*
X182670348Y-109731114D01*
X182857548Y-109725046D01*
X183094569Y-109720559D01*
X183368924Y-109717997D01*
X183553948Y-109717526D01*
X184583438Y-109717526D01*
X185990035Y-108310051D01*
X187396631Y-106902577D01*
X187408168Y-105855154D01*
X187419705Y-104807732D01*
X188466204Y-104796008D01*
X189230873Y-104787442D01*
X189512703Y-104784285D01*
X192721524Y-107992885D01*
X193595134Y-108866435D01*
X195930345Y-111201486D01*
X197544735Y-109586653D01*
G37*
%TO.C,SW2*%
X197524000Y-96282000D02*
X193024000Y-96282000D01*
X198774000Y-100282000D02*
X198774000Y-98782000D01*
X193024000Y-102782000D02*
X197524000Y-102782000D01*
X191774000Y-98782000D02*
X191774000Y-100282000D01*
%TO.C,REF\u002A\u002A*%
X94456250Y-93920000D02*
X95786250Y-93920000D01*
X93186250Y-93920000D02*
X93186250Y-96580000D01*
X95786250Y-93920000D02*
X95786250Y-95250000D01*
X88046250Y-93920000D02*
X88046250Y-96580000D01*
X93186250Y-93920000D02*
X88046250Y-93920000D01*
X93186250Y-96580000D02*
X88046250Y-96580000D01*
%TO.C,G\u002A\u002A\u002A*%
G36*
X123720351Y-67863906D02*
G01*
X123722766Y-67633069D01*
X123728301Y-67462098D01*
X123738193Y-67337286D01*
X123753678Y-67244923D01*
X123775993Y-67171302D01*
X123806374Y-67102714D01*
X123818017Y-67079560D01*
X123952839Y-66894662D01*
X124090783Y-66797546D01*
X124113701Y-66786135D01*
X124138711Y-66775734D01*
X124169769Y-66766296D01*
X124210830Y-66757775D01*
X124265853Y-66750122D01*
X124338791Y-66743293D01*
X124433603Y-66737240D01*
X124554244Y-66731916D01*
X124704671Y-66727274D01*
X124888840Y-66723267D01*
X125110706Y-66719850D01*
X125374227Y-66716974D01*
X125683359Y-66714594D01*
X126042057Y-66712662D01*
X126454279Y-66711132D01*
X126923980Y-66709956D01*
X127455117Y-66709088D01*
X128051645Y-66708482D01*
X128717522Y-66708090D01*
X129456704Y-66707866D01*
X130273146Y-66707763D01*
X131170806Y-66707733D01*
X131684598Y-66707732D01*
X132627262Y-66707742D01*
X133486585Y-66707804D01*
X134266511Y-66707963D01*
X134970985Y-66708266D01*
X135603950Y-66708759D01*
X136169352Y-66709489D01*
X136671134Y-66710502D01*
X137113241Y-66711843D01*
X137499617Y-66713560D01*
X137834206Y-66715699D01*
X138120953Y-66718305D01*
X138363801Y-66721426D01*
X138566695Y-66725107D01*
X138733580Y-66729394D01*
X138868399Y-66734335D01*
X138975097Y-66739975D01*
X139057618Y-66746360D01*
X139119907Y-66753538D01*
X139165907Y-66761553D01*
X139199563Y-66770453D01*
X139224819Y-66780284D01*
X139245620Y-66791091D01*
X139255047Y-66796561D01*
X139381673Y-66897516D01*
X139487693Y-67024531D01*
X139495081Y-67036596D01*
X139506367Y-67056663D01*
X139516654Y-67079318D01*
X139525989Y-67108507D01*
X139534418Y-67148172D01*
X139541986Y-67202258D01*
X139548740Y-67274710D01*
X139554728Y-67369472D01*
X139559994Y-67490488D01*
X139564585Y-67641703D01*
X139568547Y-67827059D01*
X139571927Y-68050503D01*
X139574771Y-68315978D01*
X139577125Y-68627429D01*
X139579036Y-68988799D01*
X139580549Y-69404033D01*
X139581712Y-69877075D01*
X139582570Y-70411870D01*
X139583169Y-71012362D01*
X139583557Y-71682494D01*
X139583778Y-72426212D01*
X139583880Y-73247460D01*
X139583909Y-74150181D01*
X139583911Y-74607045D01*
X139583902Y-75549678D01*
X139583844Y-76408982D01*
X139583690Y-77188913D01*
X139583393Y-77893428D01*
X139582907Y-78526483D01*
X139582185Y-79092035D01*
X139581179Y-79594038D01*
X139579844Y-80036450D01*
X139578133Y-80423227D01*
X139575997Y-80758326D01*
X139573392Y-81045702D01*
X139570270Y-81289311D01*
X139566583Y-81493111D01*
X139562287Y-81661057D01*
X139557332Y-81797106D01*
X139551674Y-81905213D01*
X139545265Y-81989336D01*
X139538058Y-82053430D01*
X139530006Y-82101451D01*
X139521063Y-82137357D01*
X139511182Y-82165103D01*
X139500316Y-82188645D01*
X139494096Y-82200859D01*
X139360581Y-82374010D01*
X139212083Y-82473625D01*
X139142208Y-82506852D01*
X139071691Y-82531617D01*
X138986826Y-82549156D01*
X138873903Y-82560706D01*
X138719214Y-82567502D01*
X138509051Y-82570782D01*
X138229705Y-82571781D01*
X138123325Y-82571821D01*
X137226767Y-82571821D01*
X133997987Y-79342157D01*
X130789980Y-82549944D01*
X127581973Y-85757732D01*
X126552844Y-85757732D01*
X126261538Y-85756547D01*
X125999757Y-85753223D01*
X125779991Y-85748102D01*
X125614730Y-85741529D01*
X125516463Y-85733845D01*
X125494621Y-85728637D01*
X125486420Y-85678542D01*
X125479114Y-85553652D01*
X125473046Y-85366452D01*
X125468559Y-85129431D01*
X125465997Y-84855076D01*
X125465526Y-84670052D01*
X125465526Y-83640562D01*
X124058051Y-82233965D01*
X122650577Y-80827369D01*
X121603154Y-80815832D01*
X120555732Y-80804295D01*
X120544008Y-79757796D01*
X120535442Y-78993127D01*
X124091451Y-78993127D01*
X127298515Y-78993127D01*
X127298515Y-82198863D01*
X128361046Y-81152439D01*
X129423577Y-80106014D01*
X129430290Y-78480326D01*
X129437003Y-76854639D01*
X126228603Y-76854639D01*
X124091451Y-78993127D01*
X120535442Y-78993127D01*
X120532285Y-78711297D01*
X123740885Y-75502476D01*
X124614435Y-74628866D01*
X128412712Y-74628866D01*
X129985373Y-74628866D01*
X130431480Y-74629694D01*
X130796245Y-74632307D01*
X131085596Y-74636894D01*
X131305462Y-74643648D01*
X131461772Y-74652759D01*
X131560455Y-74664418D01*
X131607438Y-74678816D01*
X131610405Y-74681237D01*
X131625234Y-74720939D01*
X131637294Y-74811447D01*
X131646776Y-74958688D01*
X131653873Y-75168592D01*
X131658775Y-75447087D01*
X131661673Y-75800102D01*
X131662758Y-76233564D01*
X131662776Y-76306269D01*
X131662776Y-77878931D01*
X132198029Y-77344964D01*
X132733281Y-76810996D01*
X133801264Y-76810996D01*
X133801264Y-72490378D01*
X129480646Y-72490378D01*
X129480646Y-73558361D01*
X128946679Y-74093614D01*
X128412712Y-74628866D01*
X124614435Y-74628866D01*
X126949486Y-72293655D01*
X125334653Y-70679265D01*
X124245161Y-69590071D01*
X127342158Y-69590071D01*
X127702886Y-69948925D01*
X128063614Y-70307780D01*
X132012594Y-70318924D01*
X135961574Y-70330069D01*
X135972718Y-74279048D01*
X135983863Y-78228028D01*
X136701571Y-78949484D01*
X137424730Y-78949484D01*
X137413255Y-74130166D01*
X137411445Y-73378572D01*
X137409733Y-72709346D01*
X137408017Y-72117572D01*
X137406195Y-71598334D01*
X137404168Y-71146716D01*
X137401834Y-70757801D01*
X137399092Y-70426673D01*
X137395842Y-70148416D01*
X137391981Y-69918113D01*
X137387410Y-69730847D01*
X137382027Y-69581704D01*
X137375731Y-69465765D01*
X137368421Y-69378116D01*
X137359997Y-69313839D01*
X137350357Y-69268018D01*
X137339401Y-69235737D01*
X137327027Y-69212079D01*
X137313134Y-69192129D01*
X137311798Y-69190337D01*
X137207848Y-69073817D01*
X137101305Y-68979844D01*
X137081448Y-68965809D01*
X137058328Y-68953302D01*
X137027030Y-68942221D01*
X136982637Y-68932466D01*
X136920233Y-68923936D01*
X136834901Y-68916530D01*
X136721725Y-68910146D01*
X136575789Y-68904685D01*
X136392176Y-68900044D01*
X136165971Y-68896123D01*
X135892256Y-68892822D01*
X135566116Y-68890038D01*
X135182633Y-68887671D01*
X134736892Y-68885620D01*
X134223977Y-68883785D01*
X133638971Y-68882063D01*
X132976957Y-68880354D01*
X132233019Y-68878558D01*
X132161476Y-68878388D01*
X127342158Y-68866913D01*
X127342158Y-69590071D01*
X124245161Y-69590071D01*
X123719821Y-69064875D01*
X123719821Y-68168317D01*
X123720351Y-67863906D01*
G37*
G36*
X96661347Y-119820735D02*
G01*
X98276179Y-121435125D01*
X98276179Y-122331683D01*
X98275649Y-122636094D01*
X98273234Y-122866931D01*
X98267699Y-123037902D01*
X98257807Y-123162714D01*
X98242322Y-123255077D01*
X98220007Y-123328698D01*
X98189626Y-123397286D01*
X98177983Y-123420440D01*
X98043161Y-123605338D01*
X97905217Y-123702454D01*
X97882299Y-123713865D01*
X97857289Y-123724266D01*
X97826231Y-123733704D01*
X97785170Y-123742225D01*
X97730147Y-123749878D01*
X97657209Y-123756707D01*
X97562397Y-123762760D01*
X97441756Y-123768084D01*
X97291329Y-123772726D01*
X97107160Y-123776733D01*
X96885294Y-123780150D01*
X96621773Y-123783026D01*
X96312641Y-123785406D01*
X95953943Y-123787338D01*
X95541721Y-123788868D01*
X95072020Y-123790044D01*
X94540883Y-123790912D01*
X93944355Y-123791518D01*
X93278478Y-123791910D01*
X92539296Y-123792134D01*
X91722854Y-123792237D01*
X90825194Y-123792267D01*
X90311402Y-123792268D01*
X89368738Y-123792258D01*
X88509415Y-123792196D01*
X87729489Y-123792037D01*
X87025015Y-123791734D01*
X86392050Y-123791241D01*
X85826648Y-123790511D01*
X85324866Y-123789498D01*
X84882759Y-123788157D01*
X84496383Y-123786440D01*
X84161794Y-123784301D01*
X83875047Y-123781695D01*
X83632199Y-123778574D01*
X83429305Y-123774893D01*
X83262420Y-123770606D01*
X83127601Y-123765665D01*
X83020903Y-123760025D01*
X82938382Y-123753640D01*
X82876093Y-123746462D01*
X82830093Y-123738447D01*
X82796437Y-123729547D01*
X82771181Y-123719716D01*
X82750380Y-123708909D01*
X82740953Y-123703439D01*
X82614327Y-123602484D01*
X82508307Y-123475469D01*
X82500919Y-123463404D01*
X82489633Y-123443337D01*
X82479346Y-123420682D01*
X82470011Y-123391493D01*
X82461582Y-123351828D01*
X82454014Y-123297742D01*
X82447260Y-123225290D01*
X82441272Y-123130528D01*
X82436006Y-123009512D01*
X82431415Y-122858297D01*
X82427453Y-122672941D01*
X82424073Y-122449497D01*
X82421229Y-122184022D01*
X82418875Y-121872571D01*
X82416964Y-121511201D01*
X82415451Y-121095967D01*
X82414288Y-120622925D01*
X82413430Y-120088130D01*
X82412831Y-119487638D01*
X82412443Y-118817506D01*
X82412222Y-118073788D01*
X82412120Y-117252540D01*
X82412091Y-116349819D01*
X82412089Y-115892955D01*
X82412098Y-114950322D01*
X82412156Y-114091018D01*
X82412310Y-113311087D01*
X82412607Y-112606572D01*
X82413093Y-111973517D01*
X82413633Y-111550516D01*
X84571270Y-111550516D01*
X84582745Y-116369834D01*
X84584555Y-117121428D01*
X84586267Y-117790654D01*
X84587983Y-118382428D01*
X84589805Y-118901666D01*
X84591832Y-119353284D01*
X84594166Y-119742199D01*
X84596908Y-120073327D01*
X84600158Y-120351584D01*
X84604019Y-120581887D01*
X84608590Y-120769153D01*
X84613973Y-120918296D01*
X84620269Y-121034235D01*
X84627579Y-121121884D01*
X84636003Y-121186161D01*
X84645643Y-121231982D01*
X84656599Y-121264263D01*
X84668973Y-121287921D01*
X84682866Y-121307871D01*
X84684202Y-121309663D01*
X84788152Y-121426183D01*
X84894695Y-121520156D01*
X84914552Y-121534191D01*
X84937672Y-121546698D01*
X84968970Y-121557779D01*
X85013363Y-121567534D01*
X85075767Y-121576064D01*
X85161099Y-121583470D01*
X85274275Y-121589854D01*
X85420211Y-121595315D01*
X85603824Y-121599956D01*
X85830029Y-121603877D01*
X86103744Y-121607178D01*
X86429884Y-121609962D01*
X86813367Y-121612329D01*
X87259108Y-121614380D01*
X87772023Y-121616215D01*
X88357029Y-121617937D01*
X89019043Y-121619646D01*
X89762981Y-121621442D01*
X89834524Y-121621612D01*
X94653842Y-121633087D01*
X94653842Y-120909929D01*
X94293114Y-120551075D01*
X93932386Y-120192220D01*
X89983406Y-120181076D01*
X86034426Y-120169931D01*
X86028330Y-118009622D01*
X88194736Y-118009622D01*
X92515354Y-118009622D01*
X92515354Y-116941639D01*
X93049321Y-116406386D01*
X93583288Y-115871134D01*
X92010627Y-115871134D01*
X91564520Y-115870306D01*
X91199755Y-115867693D01*
X90910404Y-115863106D01*
X90690538Y-115856352D01*
X90534228Y-115847241D01*
X90435545Y-115835582D01*
X90388562Y-115821184D01*
X90385595Y-115818763D01*
X90370766Y-115779061D01*
X90358706Y-115688553D01*
X90349224Y-115541312D01*
X90342127Y-115331408D01*
X90337225Y-115052913D01*
X90334327Y-114699898D01*
X90333242Y-114266436D01*
X90333224Y-114193731D01*
X90333224Y-113645361D01*
X92558997Y-113645361D01*
X95767397Y-113645361D01*
X97904549Y-111506873D01*
X94697485Y-111506873D01*
X94697485Y-108301137D01*
X93634954Y-109347561D01*
X92572423Y-110393986D01*
X92565710Y-112019674D01*
X92558997Y-113645361D01*
X90333224Y-113645361D01*
X90333224Y-112621069D01*
X89797971Y-113155036D01*
X89262719Y-113689004D01*
X88194736Y-113689004D01*
X88194736Y-118009622D01*
X86028330Y-118009622D01*
X86023282Y-116220952D01*
X86012137Y-112271972D01*
X85294429Y-111550516D01*
X84571270Y-111550516D01*
X82413633Y-111550516D01*
X82413815Y-111407965D01*
X82414821Y-110905962D01*
X82416156Y-110463550D01*
X82417867Y-110076773D01*
X82420003Y-109741674D01*
X82422608Y-109454298D01*
X82425730Y-109210689D01*
X82429417Y-109006889D01*
X82433713Y-108838943D01*
X82438668Y-108702894D01*
X82444326Y-108594787D01*
X82450735Y-108510664D01*
X82457942Y-108446570D01*
X82465994Y-108398549D01*
X82474937Y-108362643D01*
X82484818Y-108334897D01*
X82495684Y-108311355D01*
X82501904Y-108299141D01*
X82635419Y-108125990D01*
X82783917Y-108026375D01*
X82853792Y-107993148D01*
X82924309Y-107968383D01*
X83009174Y-107950844D01*
X83122097Y-107939294D01*
X83276786Y-107932498D01*
X83486949Y-107929218D01*
X83766295Y-107928219D01*
X83872675Y-107928179D01*
X84769233Y-107928179D01*
X87998013Y-111157843D01*
X91206020Y-107950056D01*
X94414027Y-104742268D01*
X95443156Y-104742268D01*
X95734462Y-104743453D01*
X95996243Y-104746777D01*
X96216009Y-104751898D01*
X96381270Y-104758471D01*
X96479537Y-104766155D01*
X96501379Y-104771363D01*
X96509580Y-104821458D01*
X96516886Y-104946348D01*
X96522954Y-105133548D01*
X96527441Y-105370569D01*
X96530003Y-105644924D01*
X96530474Y-105829948D01*
X96530474Y-106859438D01*
X97937949Y-108266035D01*
X99345423Y-109672631D01*
X100392846Y-109684168D01*
X101440268Y-109695705D01*
X101451992Y-110742204D01*
X101460558Y-111506873D01*
X101463715Y-111788703D01*
X98255115Y-114997524D01*
X97381565Y-115871134D01*
X95046514Y-118206345D01*
X96661347Y-119820735D01*
G37*
G36*
X148403265Y-80913347D02*
G01*
X146788875Y-82528179D01*
X145892317Y-82528179D01*
X145587906Y-82527649D01*
X145357069Y-82525234D01*
X145186098Y-82519699D01*
X145061286Y-82509807D01*
X144968923Y-82494322D01*
X144895302Y-82472007D01*
X144826714Y-82441626D01*
X144803560Y-82429983D01*
X144618662Y-82295161D01*
X144521546Y-82157217D01*
X144510135Y-82134299D01*
X144499734Y-82109289D01*
X144490296Y-82078231D01*
X144481775Y-82037170D01*
X144474122Y-81982147D01*
X144467293Y-81909209D01*
X144461240Y-81814397D01*
X144455916Y-81693756D01*
X144451274Y-81543329D01*
X144447267Y-81359160D01*
X144443850Y-81137294D01*
X144440974Y-80873773D01*
X144438594Y-80564641D01*
X144436662Y-80205943D01*
X144435132Y-79793721D01*
X144433956Y-79324020D01*
X144433273Y-78905842D01*
X146590913Y-78905842D01*
X147314071Y-78905842D01*
X147672925Y-78545114D01*
X148031780Y-78184386D01*
X148035779Y-76767354D01*
X150214378Y-76767354D01*
X151282361Y-76767354D01*
X151817614Y-77301321D01*
X152352866Y-77835288D01*
X152352866Y-76262627D01*
X152353694Y-75816520D01*
X152356307Y-75451755D01*
X152360894Y-75162404D01*
X152367648Y-74942538D01*
X152376759Y-74786228D01*
X152388418Y-74687545D01*
X152402816Y-74640562D01*
X152405237Y-74637595D01*
X152444939Y-74622766D01*
X152535447Y-74610706D01*
X152682688Y-74601224D01*
X152892592Y-74594127D01*
X153171087Y-74589225D01*
X153524102Y-74586327D01*
X153957564Y-74585242D01*
X154030269Y-74585224D01*
X155602931Y-74585224D01*
X155068964Y-74049971D01*
X154534996Y-73514719D01*
X154534996Y-72446736D01*
X150214378Y-72446736D01*
X150214378Y-76767354D01*
X148035779Y-76767354D01*
X148042924Y-74235406D01*
X148054069Y-70286426D01*
X152003048Y-70275282D01*
X155952028Y-70264137D01*
X156673484Y-69546429D01*
X156673484Y-68823270D01*
X151854166Y-68834745D01*
X151102572Y-68836555D01*
X150433346Y-68838267D01*
X149841572Y-68839983D01*
X149322334Y-68841805D01*
X148870716Y-68843832D01*
X148481801Y-68846166D01*
X148150673Y-68848908D01*
X147872416Y-68852158D01*
X147642113Y-68856019D01*
X147454847Y-68860590D01*
X147305704Y-68865973D01*
X147189765Y-68872269D01*
X147102116Y-68879579D01*
X147037839Y-68888003D01*
X146992018Y-68897643D01*
X146959737Y-68908599D01*
X146936079Y-68920973D01*
X146916129Y-68934866D01*
X146914337Y-68936202D01*
X146797817Y-69040152D01*
X146703844Y-69146695D01*
X146689809Y-69166552D01*
X146677302Y-69189672D01*
X146666221Y-69220970D01*
X146656466Y-69265363D01*
X146647936Y-69327767D01*
X146640530Y-69413099D01*
X146634146Y-69526275D01*
X146628685Y-69672211D01*
X146624044Y-69855824D01*
X146620123Y-70082029D01*
X146616822Y-70355744D01*
X146614038Y-70681884D01*
X146611671Y-71065367D01*
X146609620Y-71511108D01*
X146607785Y-72024023D01*
X146606063Y-72609029D01*
X146604354Y-73271043D01*
X146602558Y-74014981D01*
X146602388Y-74086524D01*
X146590913Y-78905842D01*
X144433273Y-78905842D01*
X144433088Y-78792883D01*
X144432482Y-78196355D01*
X144432090Y-77530478D01*
X144431866Y-76791296D01*
X144431763Y-75974854D01*
X144431733Y-75077194D01*
X144431732Y-74563402D01*
X144431742Y-73620738D01*
X144431804Y-72761415D01*
X144431963Y-71981489D01*
X144432266Y-71277015D01*
X144432759Y-70644050D01*
X144433489Y-70078648D01*
X144434502Y-69576866D01*
X144435843Y-69134759D01*
X144437560Y-68748383D01*
X144439699Y-68413794D01*
X144442305Y-68127047D01*
X144445426Y-67884199D01*
X144449107Y-67681305D01*
X144453394Y-67514420D01*
X144458335Y-67379601D01*
X144463975Y-67272903D01*
X144470360Y-67190382D01*
X144477538Y-67128093D01*
X144485553Y-67082093D01*
X144494453Y-67048437D01*
X144504284Y-67023181D01*
X144515091Y-67002380D01*
X144520561Y-66992953D01*
X144621516Y-66866327D01*
X144748531Y-66760307D01*
X144760596Y-66752919D01*
X144780663Y-66741633D01*
X144803318Y-66731346D01*
X144832507Y-66722011D01*
X144872172Y-66713582D01*
X144926258Y-66706014D01*
X144998710Y-66699260D01*
X145093472Y-66693272D01*
X145214488Y-66688006D01*
X145365703Y-66683415D01*
X145551059Y-66679453D01*
X145774503Y-66676073D01*
X146039978Y-66673229D01*
X146351429Y-66670875D01*
X146712799Y-66668964D01*
X147128033Y-66667451D01*
X147601075Y-66666288D01*
X148135870Y-66665430D01*
X148736362Y-66664831D01*
X149406494Y-66664443D01*
X150150212Y-66664222D01*
X150971460Y-66664120D01*
X151874181Y-66664091D01*
X152331045Y-66664089D01*
X153273678Y-66664098D01*
X154132982Y-66664156D01*
X154912913Y-66664310D01*
X155617428Y-66664607D01*
X156250483Y-66665093D01*
X156816035Y-66665815D01*
X157318038Y-66666821D01*
X157760450Y-66668156D01*
X158147227Y-66669867D01*
X158482326Y-66672003D01*
X158769702Y-66674608D01*
X159013311Y-66677730D01*
X159217111Y-66681417D01*
X159385057Y-66685713D01*
X159521106Y-66690668D01*
X159629213Y-66696326D01*
X159713336Y-66702735D01*
X159777430Y-66709942D01*
X159825451Y-66717994D01*
X159861357Y-66726937D01*
X159889103Y-66736818D01*
X159912645Y-66747684D01*
X159924859Y-66753904D01*
X160098010Y-66887419D01*
X160197625Y-67035917D01*
X160230852Y-67105792D01*
X160255617Y-67176309D01*
X160273156Y-67261174D01*
X160284706Y-67374097D01*
X160291502Y-67528786D01*
X160294782Y-67738949D01*
X160295781Y-68018295D01*
X160295821Y-68124675D01*
X160295821Y-69021233D01*
X157066157Y-72250013D01*
X160273944Y-75458020D01*
X163481732Y-78666027D01*
X163481732Y-79695156D01*
X163480547Y-79986462D01*
X163477223Y-80248243D01*
X163472102Y-80468009D01*
X163465529Y-80633270D01*
X163457845Y-80731537D01*
X163452637Y-80753379D01*
X163402542Y-80761580D01*
X163277652Y-80768886D01*
X163090452Y-80774954D01*
X162853431Y-80779441D01*
X162579076Y-80782003D01*
X162394052Y-80782474D01*
X161364562Y-80782474D01*
X159957965Y-82189949D01*
X158551369Y-83597423D01*
X158539832Y-84644846D01*
X158528295Y-85692268D01*
X157481796Y-85703992D01*
X156717127Y-85712558D01*
X156435297Y-85715715D01*
X153226476Y-82507115D01*
X152352866Y-81633565D01*
X150738587Y-80019397D01*
X154578639Y-80019397D01*
X156717127Y-82156549D01*
X156717127Y-78949485D01*
X159922863Y-78949485D01*
X158876439Y-77886954D01*
X157830014Y-76824423D01*
X156204326Y-76817710D01*
X154578639Y-76810997D01*
X154578639Y-80019397D01*
X150738587Y-80019397D01*
X150017655Y-79298514D01*
X148403265Y-80913347D01*
G37*
G36*
X86427265Y-80913347D02*
G01*
X84812875Y-82528179D01*
X83916317Y-82528179D01*
X83611906Y-82527649D01*
X83381069Y-82525234D01*
X83210098Y-82519699D01*
X83085286Y-82509807D01*
X82992923Y-82494322D01*
X82919302Y-82472007D01*
X82850714Y-82441626D01*
X82827560Y-82429983D01*
X82642662Y-82295161D01*
X82545546Y-82157217D01*
X82534135Y-82134299D01*
X82523734Y-82109289D01*
X82514296Y-82078231D01*
X82505775Y-82037170D01*
X82498122Y-81982147D01*
X82491293Y-81909209D01*
X82485240Y-81814397D01*
X82479916Y-81693756D01*
X82475274Y-81543329D01*
X82471267Y-81359160D01*
X82467850Y-81137294D01*
X82464974Y-80873773D01*
X82462594Y-80564641D01*
X82460662Y-80205943D01*
X82459132Y-79793721D01*
X82457956Y-79324020D01*
X82457273Y-78905842D01*
X84614913Y-78905842D01*
X85338071Y-78905842D01*
X85696925Y-78545114D01*
X86055780Y-78184386D01*
X86059779Y-76767354D01*
X88238378Y-76767354D01*
X89306361Y-76767354D01*
X89841614Y-77301321D01*
X90376866Y-77835288D01*
X90376866Y-76262627D01*
X90377694Y-75816520D01*
X90380307Y-75451755D01*
X90384894Y-75162404D01*
X90391648Y-74942538D01*
X90400759Y-74786228D01*
X90412418Y-74687545D01*
X90426816Y-74640562D01*
X90429237Y-74637595D01*
X90468939Y-74622766D01*
X90559447Y-74610706D01*
X90706688Y-74601224D01*
X90916592Y-74594127D01*
X91195087Y-74589225D01*
X91548102Y-74586327D01*
X91981564Y-74585242D01*
X92054269Y-74585224D01*
X93626931Y-74585224D01*
X93092964Y-74049971D01*
X92558996Y-73514719D01*
X92558996Y-72446736D01*
X88238378Y-72446736D01*
X88238378Y-76767354D01*
X86059779Y-76767354D01*
X86066924Y-74235406D01*
X86078069Y-70286426D01*
X90027048Y-70275282D01*
X93976028Y-70264137D01*
X94697484Y-69546429D01*
X94697484Y-68823270D01*
X89878166Y-68834745D01*
X89126572Y-68836555D01*
X88457346Y-68838267D01*
X87865572Y-68839983D01*
X87346334Y-68841805D01*
X86894716Y-68843832D01*
X86505801Y-68846166D01*
X86174673Y-68848908D01*
X85896416Y-68852158D01*
X85666113Y-68856019D01*
X85478847Y-68860590D01*
X85329704Y-68865973D01*
X85213765Y-68872269D01*
X85126116Y-68879579D01*
X85061839Y-68888003D01*
X85016018Y-68897643D01*
X84983737Y-68908599D01*
X84960079Y-68920973D01*
X84940129Y-68934866D01*
X84938337Y-68936202D01*
X84821817Y-69040152D01*
X84727844Y-69146695D01*
X84713809Y-69166552D01*
X84701302Y-69189672D01*
X84690221Y-69220970D01*
X84680466Y-69265363D01*
X84671936Y-69327767D01*
X84664530Y-69413099D01*
X84658146Y-69526275D01*
X84652685Y-69672211D01*
X84648044Y-69855824D01*
X84644123Y-70082029D01*
X84640822Y-70355744D01*
X84638038Y-70681884D01*
X84635671Y-71065367D01*
X84633620Y-71511108D01*
X84631785Y-72024023D01*
X84630063Y-72609029D01*
X84628354Y-73271043D01*
X84626558Y-74014981D01*
X84626388Y-74086524D01*
X84614913Y-78905842D01*
X82457273Y-78905842D01*
X82457088Y-78792883D01*
X82456482Y-78196355D01*
X82456090Y-77530478D01*
X82455866Y-76791296D01*
X82455763Y-75974854D01*
X82455733Y-75077194D01*
X82455732Y-74563402D01*
X82455742Y-73620738D01*
X82455804Y-72761415D01*
X82455963Y-71981489D01*
X82456266Y-71277015D01*
X82456759Y-70644050D01*
X82457489Y-70078648D01*
X82458502Y-69576866D01*
X82459843Y-69134759D01*
X82461560Y-68748383D01*
X82463699Y-68413794D01*
X82466305Y-68127047D01*
X82469426Y-67884199D01*
X82473107Y-67681305D01*
X82477394Y-67514420D01*
X82482335Y-67379601D01*
X82487975Y-67272903D01*
X82494360Y-67190382D01*
X82501538Y-67128093D01*
X82509553Y-67082093D01*
X82518453Y-67048437D01*
X82528284Y-67023181D01*
X82539091Y-67002380D01*
X82544561Y-66992953D01*
X82645516Y-66866327D01*
X82772531Y-66760307D01*
X82784596Y-66752919D01*
X82804663Y-66741633D01*
X82827318Y-66731346D01*
X82856507Y-66722011D01*
X82896172Y-66713582D01*
X82950258Y-66706014D01*
X83022710Y-66699260D01*
X83117472Y-66693272D01*
X83238488Y-66688006D01*
X83389703Y-66683415D01*
X83575059Y-66679453D01*
X83798503Y-66676073D01*
X84063978Y-66673229D01*
X84375429Y-66670875D01*
X84736799Y-66668964D01*
X85152033Y-66667451D01*
X85625075Y-66666288D01*
X86159870Y-66665430D01*
X86760362Y-66664831D01*
X87430494Y-66664443D01*
X88174212Y-66664222D01*
X88995460Y-66664120D01*
X89898181Y-66664091D01*
X90355045Y-66664089D01*
X91297678Y-66664098D01*
X92156982Y-66664156D01*
X92936913Y-66664310D01*
X93641428Y-66664607D01*
X94274483Y-66665093D01*
X94840035Y-66665815D01*
X95342038Y-66666821D01*
X95784450Y-66668156D01*
X96171227Y-66669867D01*
X96506326Y-66672003D01*
X96793702Y-66674608D01*
X97037311Y-66677730D01*
X97241111Y-66681417D01*
X97409057Y-66685713D01*
X97545106Y-66690668D01*
X97653213Y-66696326D01*
X97737336Y-66702735D01*
X97801430Y-66709942D01*
X97849451Y-66717994D01*
X97885357Y-66726937D01*
X97913103Y-66736818D01*
X97936645Y-66747684D01*
X97948859Y-66753904D01*
X98122010Y-66887419D01*
X98221625Y-67035917D01*
X98254852Y-67105792D01*
X98279617Y-67176309D01*
X98297156Y-67261174D01*
X98308706Y-67374097D01*
X98315502Y-67528786D01*
X98318782Y-67738949D01*
X98319781Y-68018295D01*
X98319821Y-68124675D01*
X98319821Y-69021233D01*
X95090157Y-72250013D01*
X98297944Y-75458020D01*
X101505732Y-78666027D01*
X101505732Y-79695156D01*
X101504547Y-79986462D01*
X101501223Y-80248243D01*
X101496102Y-80468009D01*
X101489529Y-80633270D01*
X101481845Y-80731537D01*
X101476637Y-80753379D01*
X101426542Y-80761580D01*
X101301652Y-80768886D01*
X101114452Y-80774954D01*
X100877431Y-80779441D01*
X100603076Y-80782003D01*
X100418052Y-80782474D01*
X99388562Y-80782474D01*
X97981965Y-82189949D01*
X96575369Y-83597423D01*
X96563832Y-84644846D01*
X96552295Y-85692268D01*
X95505796Y-85703992D01*
X94741127Y-85712558D01*
X94459297Y-85715715D01*
X91250476Y-82507115D01*
X90376866Y-81633565D01*
X88762587Y-80019397D01*
X92602639Y-80019397D01*
X94741127Y-82156549D01*
X94741127Y-78949485D01*
X97946863Y-78949485D01*
X96900439Y-77886954D01*
X95854014Y-76824423D01*
X94228326Y-76817710D01*
X92602639Y-76810997D01*
X92602639Y-80019397D01*
X88762587Y-80019397D01*
X88041655Y-79298514D01*
X86427265Y-80913347D01*
G37*
G36*
X103452029Y-87724223D02*
G01*
X105433592Y-85742738D01*
X116542292Y-85742738D01*
X118523777Y-87724301D01*
X120505263Y-89705864D01*
X120505263Y-100794292D01*
X118523700Y-102775777D01*
X116542137Y-104757263D01*
X105433438Y-104757263D01*
X103451952Y-102775700D01*
X101470467Y-100794137D01*
X101470467Y-99557563D01*
X103598958Y-99557563D01*
X105144599Y-101103303D01*
X106690239Y-102649043D01*
X115305563Y-102649043D01*
X118397043Y-99557761D01*
X118397043Y-90942438D01*
X115305761Y-87850958D01*
X106690438Y-87850958D01*
X105144698Y-89396599D01*
X103598958Y-90942239D01*
X103598958Y-99557563D01*
X101470467Y-99557563D01*
X101470467Y-89705709D01*
X103452029Y-87724223D01*
G37*
G36*
X112007540Y-91873615D02*
G01*
X111862378Y-91736704D01*
X111783884Y-91641803D01*
X111653707Y-91439864D01*
X111557755Y-91226285D01*
X111495234Y-91005101D01*
X111465353Y-90780348D01*
X111466256Y-90677360D01*
X112159569Y-90677360D01*
X112179336Y-90858464D01*
X112238819Y-91037074D01*
X112271627Y-91103348D01*
X112365132Y-91241908D01*
X112476612Y-91349679D01*
X112601602Y-91425008D01*
X112735636Y-91466242D01*
X112874251Y-91471727D01*
X113012982Y-91439813D01*
X113087997Y-91405566D01*
X113211425Y-91316997D01*
X113307824Y-91203997D01*
X113309361Y-91201087D01*
X115258418Y-91201087D01*
X115272842Y-91305837D01*
X115311540Y-91403365D01*
X115375433Y-91487438D01*
X115465441Y-91551823D01*
X115511521Y-91571589D01*
X115571566Y-91591656D01*
X115613495Y-91598403D01*
X115657190Y-91592654D01*
X115706575Y-91579667D01*
X115797688Y-91536957D01*
X115883496Y-91466322D01*
X115950701Y-91379586D01*
X115967218Y-91347940D01*
X116000044Y-91233476D01*
X115999285Y-91118610D01*
X115968805Y-91009966D01*
X115912469Y-90914166D01*
X115834141Y-90837831D01*
X115737684Y-90787583D01*
X115630004Y-90770032D01*
X115518140Y-90787201D01*
X115425021Y-90834551D01*
X115351568Y-90905848D01*
X115298702Y-90994859D01*
X115267345Y-91095350D01*
X115258418Y-91201087D01*
X113309361Y-91201087D01*
X113377494Y-91072079D01*
X113420740Y-90926756D01*
X113437862Y-90773541D01*
X113429165Y-90617948D01*
X113411750Y-90540348D01*
X113993440Y-90540348D01*
X114007222Y-90697375D01*
X114048947Y-90836108D01*
X114116088Y-90951660D01*
X114206122Y-91039147D01*
X114270389Y-91076275D01*
X114373481Y-91108776D01*
X114470372Y-91105771D01*
X114555622Y-91076332D01*
X114632839Y-91031643D01*
X114694009Y-90972395D01*
X114747845Y-90888770D01*
X114779821Y-90823754D01*
X114806758Y-90760201D01*
X114822062Y-90706091D01*
X114828014Y-90646637D01*
X114826897Y-90567047D01*
X114825166Y-90529879D01*
X114803106Y-90368892D01*
X114754042Y-90237092D01*
X114676854Y-90132459D01*
X114570419Y-90052972D01*
X114556043Y-90045243D01*
X114455486Y-90013390D01*
X114354416Y-90017717D01*
X114257422Y-90054185D01*
X114169096Y-90118753D01*
X114094027Y-90207381D01*
X114036808Y-90316031D01*
X114002028Y-90440662D01*
X113993440Y-90540348D01*
X113411750Y-90540348D01*
X113394950Y-90465488D01*
X113335519Y-90321676D01*
X113251175Y-90192024D01*
X113142221Y-90082045D01*
X113010777Y-89998136D01*
X112881808Y-89956228D01*
X112743594Y-89947636D01*
X112608485Y-89972087D01*
X112522024Y-90008907D01*
X112398746Y-90095266D01*
X112302843Y-90205480D01*
X112239653Y-90319230D01*
X112179635Y-90496652D01*
X112159569Y-90677360D01*
X111466256Y-90677360D01*
X111467319Y-90556061D01*
X111500339Y-90336276D01*
X111563622Y-90125028D01*
X111656373Y-89926352D01*
X111777802Y-89744285D01*
X111927115Y-89582860D01*
X112103519Y-89446115D01*
X112229277Y-89373913D01*
X112412373Y-89300613D01*
X112608987Y-89260050D01*
X112782688Y-89249981D01*
X113006172Y-89268809D01*
X113218376Y-89326323D01*
X113420316Y-89422871D01*
X113561702Y-89518099D01*
X113682707Y-89610117D01*
X113764416Y-89540078D01*
X113911857Y-89439157D01*
X114081980Y-89366241D01*
X114266345Y-89323350D01*
X114456513Y-89312502D01*
X114630642Y-89332828D01*
X114796345Y-89386258D01*
X114959170Y-89474188D01*
X115111850Y-89590811D01*
X115247120Y-89730324D01*
X115357712Y-89886920D01*
X115384201Y-89934837D01*
X115460956Y-90082802D01*
X115548121Y-90069731D01*
X115665744Y-90065736D01*
X115802087Y-90083016D01*
X115943189Y-90118852D01*
X116075089Y-90170529D01*
X116081128Y-90173449D01*
X116257699Y-90281715D01*
X116409472Y-90420374D01*
X116533619Y-90585746D01*
X116627314Y-90774152D01*
X116682296Y-90955927D01*
X116703538Y-90999101D01*
X116750374Y-91021765D01*
X116760112Y-91024007D01*
X116865879Y-91059675D01*
X116982870Y-91120984D01*
X117098972Y-91200427D01*
X117202070Y-91290494D01*
X117219962Y-91309014D01*
X117346457Y-91471997D01*
X117436335Y-91650062D01*
X117488484Y-91840081D01*
X117501790Y-92038928D01*
X117498683Y-92092489D01*
X117486564Y-92237050D01*
X117568111Y-92325518D01*
X117658591Y-92448078D01*
X117732063Y-92596765D01*
X117782471Y-92758668D01*
X117790857Y-92800238D01*
X117804093Y-92983393D01*
X117779791Y-93161850D01*
X117720382Y-93329990D01*
X117628297Y-93482197D01*
X117505971Y-93612853D01*
X117407263Y-93686200D01*
X117321130Y-93731931D01*
X117221425Y-93771444D01*
X117123697Y-93799461D01*
X117043499Y-93810707D01*
X117040251Y-93810735D01*
X116988184Y-93810735D01*
X116987839Y-94170551D01*
X116987030Y-94308993D01*
X116984379Y-94415925D01*
X116979094Y-94500365D01*
X116970388Y-94571334D01*
X116957468Y-94637850D01*
X116941234Y-94702674D01*
X116905007Y-94833954D01*
X116867673Y-94960900D01*
X116827436Y-95088499D01*
X116782495Y-95221735D01*
X116731053Y-95365595D01*
X116671311Y-95525066D01*
X116601472Y-95705134D01*
X116519736Y-95910785D01*
X116424305Y-96147004D01*
X116389238Y-96233161D01*
X116326080Y-96388636D01*
X116272613Y-96522195D01*
X116226730Y-96640206D01*
X116186321Y-96749036D01*
X116149278Y-96855054D01*
X116113493Y-96964626D01*
X116076857Y-97084120D01*
X116037261Y-97219903D01*
X115992597Y-97378343D01*
X115940757Y-97565808D01*
X115905925Y-97692698D01*
X115814144Y-98013849D01*
X115718667Y-98322187D01*
X115621907Y-98610455D01*
X115526277Y-98871396D01*
X115454811Y-99049415D01*
X115326753Y-99337496D01*
X115197845Y-99591830D01*
X115063619Y-99819052D01*
X114919604Y-100025794D01*
X114761331Y-100218692D01*
X114584331Y-100404378D01*
X114467398Y-100514982D01*
X114255593Y-100701190D01*
X114060035Y-100856068D01*
X113874940Y-100982320D01*
X113694522Y-101082650D01*
X113512997Y-101159763D01*
X113324580Y-101216361D01*
X113123487Y-101255150D01*
X112903931Y-101278834D01*
X112822106Y-101284030D01*
X112516380Y-101282914D01*
X112223114Y-101246664D01*
X111945407Y-101176080D01*
X111686361Y-101071963D01*
X111449073Y-100935111D01*
X111436048Y-100926190D01*
X111334218Y-100848745D01*
X111229740Y-100757271D01*
X111133518Y-100662158D01*
X111056452Y-100573793D01*
X111033195Y-100542320D01*
X110999317Y-100493138D01*
X110954930Y-100552455D01*
X110879089Y-100641177D01*
X110779383Y-100739917D01*
X110667154Y-100838593D01*
X110553747Y-100927122D01*
X110469245Y-100984200D01*
X110287063Y-101081391D01*
X110081386Y-101165622D01*
X109868747Y-101230359D01*
X109812823Y-101243531D01*
X109745262Y-101254255D01*
X109649333Y-101264078D01*
X109534665Y-101272572D01*
X109410889Y-101279309D01*
X109287633Y-101283858D01*
X109174529Y-101285793D01*
X109081206Y-101284685D01*
X109017293Y-101280105D01*
X109011408Y-101279191D01*
X108966313Y-101271912D01*
X108896005Y-101261085D01*
X108815389Y-101249003D01*
X108812277Y-101248543D01*
X108571139Y-101193217D01*
X108327414Y-101098454D01*
X108082998Y-100965110D01*
X107887834Y-100830927D01*
X107785799Y-100749508D01*
X107669500Y-100648934D01*
X107545914Y-100535970D01*
X107422020Y-100417383D01*
X107304798Y-100299938D01*
X107201225Y-100190403D01*
X107118279Y-100095544D01*
X107082487Y-100050071D01*
X106949214Y-99858078D01*
X106822499Y-99649635D01*
X106701176Y-99421869D01*
X106584078Y-99171908D01*
X106470037Y-98896879D01*
X106357886Y-98593911D01*
X106246457Y-98260130D01*
X106134585Y-97892665D01*
X106021101Y-97488644D01*
X105981451Y-97340585D01*
X105949098Y-97221001D01*
X105917383Y-97110371D01*
X105884212Y-97002749D01*
X105847488Y-96892190D01*
X105805115Y-96772751D01*
X105754996Y-96638485D01*
X105695036Y-96483448D01*
X105623139Y-96301696D01*
X105556171Y-96134440D01*
X105445050Y-95856148D01*
X105349063Y-95611289D01*
X105267150Y-95396125D01*
X105198253Y-95206918D01*
X105141314Y-95039931D01*
X105095275Y-94891427D01*
X105059077Y-94757669D01*
X105031662Y-94634919D01*
X105011972Y-94519441D01*
X104998948Y-94407496D01*
X104991532Y-94295347D01*
X104989717Y-94221866D01*
X105689699Y-94221866D01*
X105691305Y-94305707D01*
X105699286Y-94381367D01*
X105715319Y-94463885D01*
X105741084Y-94568299D01*
X105745131Y-94583864D01*
X105779445Y-94708274D01*
X105819618Y-94839640D01*
X105867337Y-94982615D01*
X105924288Y-95141856D01*
X105992158Y-95322016D01*
X106072631Y-95527752D01*
X106167396Y-95763717D01*
X106214093Y-95878412D01*
X106291470Y-96068025D01*
X106355518Y-96225984D01*
X106408293Y-96358142D01*
X106451855Y-96470354D01*
X106488261Y-96568473D01*
X106519568Y-96658355D01*
X106547836Y-96745853D01*
X106575121Y-96836823D01*
X106603482Y-96937117D01*
X106634977Y-97052590D01*
X106661430Y-97150954D01*
X106743102Y-97450308D01*
X106818550Y-97715711D01*
X106889623Y-97952943D01*
X106958170Y-98167783D01*
X107026040Y-98366010D01*
X107095081Y-98553405D01*
X107167143Y-98735746D01*
X107173012Y-98750089D01*
X107271855Y-98981013D01*
X107366743Y-99179542D01*
X107462273Y-99352911D01*
X107563047Y-99508355D01*
X107673663Y-99653108D01*
X107798721Y-99794406D01*
X107907091Y-99904755D01*
X108058776Y-100049957D01*
X108191513Y-100168295D01*
X108311572Y-100264649D01*
X108425227Y-100343899D01*
X108538750Y-100410923D01*
X108595846Y-100440591D01*
X108706257Y-100491707D01*
X108809029Y-100528981D01*
X108913723Y-100554139D01*
X109029901Y-100568908D01*
X109167123Y-100575013D01*
X109334950Y-100574179D01*
X109335750Y-100574163D01*
X109461701Y-100570944D01*
X109556919Y-100566249D01*
X109631210Y-100558804D01*
X109694384Y-100547336D01*
X109756249Y-100530570D01*
X109811932Y-100512299D01*
X109997833Y-100435362D01*
X110155342Y-100339881D01*
X110294749Y-100219461D01*
X110312547Y-100201151D01*
X110434320Y-100047562D01*
X110523847Y-99874820D01*
X110582075Y-99680256D01*
X110609951Y-99461200D01*
X110611995Y-99386139D01*
X111371493Y-99386139D01*
X111386788Y-99589808D01*
X111416099Y-99740104D01*
X111485331Y-99930362D01*
X111588824Y-100101674D01*
X111723710Y-100251377D01*
X111887120Y-100376806D01*
X112076186Y-100475296D01*
X112279613Y-100542141D01*
X112392292Y-100561907D01*
X112531844Y-100574490D01*
X112685217Y-100579753D01*
X112839357Y-100577560D01*
X112981212Y-100567771D01*
X113095503Y-100550726D01*
X113243819Y-100509050D01*
X113392328Y-100445644D01*
X113545045Y-100357896D01*
X113705987Y-100243197D01*
X113879170Y-100098936D01*
X114068609Y-99922502D01*
X114081823Y-99909622D01*
X114211733Y-99777340D01*
X114320934Y-99652630D01*
X114416543Y-99525524D01*
X114505675Y-99386052D01*
X114595449Y-99224246D01*
X114656082Y-99105263D01*
X114744713Y-98918485D01*
X114829992Y-98720645D01*
X114913376Y-98507504D01*
X114996321Y-98274823D01*
X115080286Y-98018362D01*
X115166727Y-97733883D01*
X115257102Y-97417147D01*
X115335855Y-97127807D01*
X115371638Y-96996395D01*
X115405838Y-96877251D01*
X115440757Y-96763795D01*
X115478699Y-96649447D01*
X115521968Y-96527627D01*
X115572867Y-96391754D01*
X115633700Y-96235248D01*
X115706770Y-96051529D01*
X115752093Y-95938773D01*
X115865459Y-95655458D01*
X115963346Y-95405990D01*
X116046708Y-95187152D01*
X116116502Y-94995730D01*
X116173680Y-94828506D01*
X116219199Y-94682266D01*
X116254013Y-94553793D01*
X116279077Y-94439872D01*
X116295346Y-94337286D01*
X116303775Y-94242820D01*
X116305319Y-94153258D01*
X116302402Y-94085407D01*
X116284536Y-93923374D01*
X116251751Y-93774999D01*
X116201016Y-93634867D01*
X116129300Y-93497563D01*
X116033571Y-93357674D01*
X115910797Y-93209783D01*
X115757947Y-93048477D01*
X115677237Y-92968800D01*
X115613572Y-92909253D01*
X116739886Y-92909253D01*
X116775456Y-92993159D01*
X116781011Y-93001655D01*
X116846355Y-93075833D01*
X116915504Y-93112963D01*
X116984878Y-93112043D01*
X117046754Y-93075898D01*
X117094280Y-93009197D01*
X117105625Y-92932186D01*
X117081183Y-92852046D01*
X117030754Y-92785004D01*
X116956650Y-92730648D01*
X116883946Y-92715773D01*
X116814935Y-92740558D01*
X116784549Y-92765839D01*
X116742930Y-92832586D01*
X116739886Y-92909253D01*
X115613572Y-92909253D01*
X115461451Y-92766973D01*
X115261182Y-92596756D01*
X115071268Y-92454888D01*
X114886544Y-92338110D01*
X114701847Y-92243159D01*
X114512015Y-92166775D01*
X114311882Y-92105696D01*
X114309633Y-92105105D01*
X114152233Y-92074850D01*
X113975754Y-92059235D01*
X113794972Y-92058428D01*
X113624664Y-92072598D01*
X113501512Y-92095938D01*
X113286614Y-92166077D01*
X113106121Y-92257607D01*
X112959773Y-92370895D01*
X112847312Y-92506306D01*
X112768476Y-92664207D01*
X112723005Y-92844965D01*
X112710641Y-93048947D01*
X112720554Y-93197058D01*
X112738623Y-93334901D01*
X112762014Y-93462034D01*
X112792951Y-93583384D01*
X112833661Y-93703879D01*
X112886369Y-93828445D01*
X112953301Y-93962010D01*
X113036683Y-94109500D01*
X113138739Y-94275842D01*
X113261696Y-94465965D01*
X113361534Y-94616047D01*
X113521091Y-94862532D01*
X113653105Y-95086872D01*
X113759603Y-95294661D01*
X113842613Y-95491492D01*
X113904160Y-95682960D01*
X113946272Y-95874658D01*
X113970975Y-96072178D01*
X113980296Y-96281116D01*
X113980493Y-96324382D01*
X113967530Y-96563941D01*
X113927789Y-96778496D01*
X113858935Y-96975387D01*
X113758635Y-97161954D01*
X113676967Y-97279191D01*
X113524524Y-97448625D01*
X113336863Y-97602035D01*
X113116605Y-97737953D01*
X112866373Y-97854913D01*
X112588785Y-97951449D01*
X112376452Y-98006805D01*
X112200308Y-98065954D01*
X112026772Y-98159882D01*
X111862166Y-98282998D01*
X111712811Y-98429708D01*
X111585029Y-98594422D01*
X111485141Y-98771545D01*
X111468001Y-98810509D01*
X111412771Y-98984468D01*
X111380378Y-99180352D01*
X111371493Y-99386139D01*
X110611995Y-99386139D01*
X110612845Y-99354949D01*
X110595920Y-99114368D01*
X110544526Y-98894157D01*
X110457732Y-98691907D01*
X110334608Y-98505209D01*
X110244520Y-98401347D01*
X110163927Y-98323239D01*
X110072601Y-98245078D01*
X109985963Y-98179761D01*
X109956130Y-98160153D01*
X109896567Y-98124327D01*
X109842229Y-98095112D01*
X109785366Y-98069579D01*
X109718228Y-98044794D01*
X109633063Y-98017827D01*
X109522121Y-97985746D01*
X109419376Y-97957129D01*
X109128093Y-97860517D01*
X108869067Y-97740897D01*
X108642795Y-97598887D01*
X108449769Y-97435108D01*
X108290486Y-97250179D01*
X108165438Y-97044720D01*
X108075122Y-96819349D01*
X108020031Y-96574687D01*
X108000659Y-96311353D01*
X108003886Y-96184008D01*
X108017878Y-96010921D01*
X108041507Y-95848312D01*
X108076840Y-95691086D01*
X108125944Y-95534151D01*
X108190887Y-95372412D01*
X108273736Y-95200775D01*
X108376557Y-95014148D01*
X108501419Y-94807436D01*
X108650389Y-94575546D01*
X108666782Y-94550639D01*
X108801312Y-94343332D01*
X108913233Y-94162715D01*
X109004967Y-94003580D01*
X109078936Y-93860725D01*
X109137560Y-93728944D01*
X109183262Y-93603032D01*
X109218463Y-93477784D01*
X109245585Y-93347997D01*
X109256272Y-93283680D01*
X109270508Y-93136312D01*
X109270673Y-92981790D01*
X109257629Y-92833265D01*
X109232235Y-92703886D01*
X109214801Y-92649499D01*
X109140662Y-92509949D01*
X109032883Y-92385167D01*
X108896315Y-92277182D01*
X108735807Y-92188025D01*
X108556210Y-92119725D01*
X108362374Y-92074312D01*
X108159149Y-92053816D01*
X107951385Y-92060268D01*
X107842345Y-92075088D01*
X107560802Y-92143847D01*
X107283987Y-92250344D01*
X107018073Y-92391802D01*
X106791696Y-92547853D01*
X106674899Y-92642107D01*
X106547072Y-92751807D01*
X106416434Y-92869350D01*
X106291208Y-92987128D01*
X106179615Y-93097536D01*
X106089876Y-93192969D01*
X106070916Y-93214650D01*
X105943161Y-93373993D01*
X105846183Y-93520956D01*
X105776245Y-93664433D01*
X105729610Y-93813320D01*
X105702543Y-93976511D01*
X105692789Y-94114805D01*
X105689699Y-94221866D01*
X104989717Y-94221866D01*
X104988665Y-94179258D01*
X104988558Y-94130008D01*
X104989571Y-93810735D01*
X104934618Y-93810735D01*
X104857396Y-93800440D01*
X104761328Y-93773120D01*
X104661380Y-93734123D01*
X104572516Y-93688798D01*
X104545915Y-93671820D01*
X104417521Y-93559864D01*
X104309583Y-93416530D01*
X104254222Y-93312670D01*
X104209626Y-93176490D01*
X104188259Y-93020431D01*
X104188657Y-92994787D01*
X104885472Y-92994787D01*
X104911335Y-93058023D01*
X104961730Y-93102829D01*
X105023671Y-93120224D01*
X105051323Y-93113883D01*
X105098918Y-93096619D01*
X105108478Y-93092699D01*
X105173689Y-93047908D01*
X105218354Y-92982987D01*
X105239966Y-92908547D01*
X105236020Y-92835197D01*
X105204008Y-92773544D01*
X105187525Y-92758096D01*
X105121225Y-92722449D01*
X105056043Y-92724208D01*
X104985984Y-92763930D01*
X104968608Y-92778444D01*
X104912756Y-92846604D01*
X104885496Y-92921516D01*
X104885472Y-92994787D01*
X104188657Y-92994787D01*
X104190778Y-92858293D01*
X104217842Y-92703876D01*
X104224165Y-92681883D01*
X104279814Y-92539300D01*
X104355047Y-92403542D01*
X104440675Y-92291068D01*
X104444898Y-92286528D01*
X104468513Y-92258726D01*
X104483268Y-92229806D01*
X104490992Y-92190053D01*
X104493510Y-92129750D01*
X104492650Y-92039179D01*
X104492541Y-92033136D01*
X104493908Y-92006585D01*
X105180123Y-92006585D01*
X105189206Y-92055775D01*
X105212178Y-92120006D01*
X105225734Y-92149257D01*
X105287076Y-92232742D01*
X105368937Y-92290892D01*
X105462204Y-92321083D01*
X105557765Y-92320689D01*
X105646508Y-92287086D01*
X105663628Y-92275412D01*
X105743285Y-92194374D01*
X105789182Y-92101001D01*
X105802954Y-92002458D01*
X105786238Y-91905909D01*
X105740671Y-91818520D01*
X105667889Y-91747454D01*
X105569529Y-91699876D01*
X105529961Y-91690211D01*
X105446056Y-91693219D01*
X105359638Y-91727599D01*
X105282319Y-91786721D01*
X105225734Y-91863913D01*
X105198502Y-91928314D01*
X105182193Y-91986960D01*
X105180123Y-92006585D01*
X104493908Y-92006585D01*
X104502694Y-91835964D01*
X104542758Y-91661012D01*
X104615622Y-91500275D01*
X104724175Y-91345749D01*
X104752723Y-91312259D01*
X104837906Y-91232055D01*
X104916123Y-91175459D01*
X105990977Y-91175459D01*
X106007463Y-91299940D01*
X106053258Y-91406923D01*
X106122865Y-91492533D01*
X106210789Y-91552896D01*
X106311536Y-91584133D01*
X106419608Y-91582371D01*
X106520091Y-91548620D01*
X106599171Y-91489746D01*
X106666876Y-91403894D01*
X106713127Y-91304607D01*
X106719955Y-91280114D01*
X106730294Y-91163282D01*
X106708291Y-91051708D01*
X106658984Y-90951264D01*
X106587407Y-90867824D01*
X106498597Y-90807259D01*
X106397590Y-90775445D01*
X106289594Y-90778218D01*
X106181806Y-90819217D01*
X106093917Y-90891705D01*
X106030459Y-90989652D01*
X105995966Y-91107028D01*
X105990977Y-91175459D01*
X104916123Y-91175459D01*
X104946968Y-91153140D01*
X105064223Y-91085662D01*
X105173765Y-91039839D01*
X105235336Y-91017382D01*
X105278457Y-90995903D01*
X105291768Y-90983510D01*
X105365180Y-90760893D01*
X105457524Y-90572520D01*
X105470021Y-90555215D01*
X107157023Y-90555215D01*
X107172406Y-90716916D01*
X107217968Y-90855106D01*
X107292495Y-90967557D01*
X107394777Y-91052041D01*
X107440379Y-91076214D01*
X107520964Y-91106329D01*
X107590684Y-91111684D01*
X107669710Y-91093606D01*
X107675542Y-91091687D01*
X107760314Y-91046000D01*
X107842601Y-90970908D01*
X107912169Y-90876799D01*
X107940328Y-90822888D01*
X107960358Y-90768354D01*
X108547608Y-90768354D01*
X108563225Y-90919649D01*
X108606852Y-91065470D01*
X108680298Y-91200898D01*
X108730754Y-91265442D01*
X108847364Y-91371063D01*
X108976368Y-91439271D01*
X109114172Y-91469305D01*
X109257184Y-91460407D01*
X109401810Y-91411817D01*
X109408340Y-91408665D01*
X109538729Y-91323056D01*
X109647997Y-91207160D01*
X109733003Y-91067025D01*
X109790607Y-90908700D01*
X109817670Y-90738233D01*
X109817203Y-90620947D01*
X109789406Y-90450153D01*
X109733228Y-90298581D01*
X109651928Y-90169851D01*
X109548766Y-90067581D01*
X109427001Y-89995388D01*
X109289895Y-89956891D01*
X109213940Y-89951391D01*
X109070606Y-89969342D01*
X108940809Y-90021181D01*
X108826357Y-90101989D01*
X108729061Y-90206846D01*
X108650728Y-90330831D01*
X108593169Y-90469025D01*
X108558193Y-90616505D01*
X108547608Y-90768354D01*
X107960358Y-90768354D01*
X107967520Y-90748855D01*
X107982149Y-90669610D01*
X107987112Y-90568635D01*
X107987191Y-90555750D01*
X107985381Y-90465548D01*
X107976910Y-90399206D01*
X107958236Y-90340162D01*
X107926891Y-90273943D01*
X107881105Y-90199347D01*
X107826328Y-90130060D01*
X107788178Y-90092934D01*
X107741233Y-90058621D01*
X107698067Y-90039680D01*
X107643401Y-90031667D01*
X107572142Y-90030128D01*
X107494201Y-90032122D01*
X107441446Y-90041067D01*
X107398599Y-90061403D01*
X107356107Y-90092934D01*
X107303687Y-90146442D01*
X107249872Y-90218857D01*
X107217667Y-90273408D01*
X107185719Y-90341312D01*
X107167338Y-90400884D01*
X107158960Y-90468683D01*
X107157023Y-90555215D01*
X105470021Y-90555215D01*
X105570650Y-90415865D01*
X105706407Y-90288406D01*
X105866643Y-90187617D01*
X105879485Y-90181169D01*
X106007798Y-90129190D01*
X106149177Y-90090782D01*
X106288499Y-90069131D01*
X106410642Y-90067421D01*
X106416841Y-90067997D01*
X106528499Y-90079160D01*
X106608860Y-89922880D01*
X106697879Y-89780798D01*
X106811958Y-89645681D01*
X106940581Y-89528421D01*
X107073231Y-89439912D01*
X107077146Y-89437823D01*
X107270915Y-89356430D01*
X107467140Y-89315080D01*
X107663411Y-89313569D01*
X107857319Y-89351689D01*
X108046455Y-89429235D01*
X108213897Y-89535014D01*
X108271456Y-89576402D01*
X108306627Y-89595444D01*
X108328567Y-89595259D01*
X108345661Y-89579914D01*
X108388367Y-89540851D01*
X108457700Y-89491113D01*
X108543411Y-89436879D01*
X108635253Y-89384328D01*
X108722980Y-89339640D01*
X108792974Y-89310169D01*
X108910702Y-89279819D01*
X109053148Y-89260198D01*
X109205771Y-89251918D01*
X109354027Y-89255589D01*
X109483377Y-89271822D01*
X109518192Y-89279715D01*
X109718227Y-89352082D01*
X109905654Y-89459884D01*
X110075961Y-89598831D01*
X110224640Y-89764633D01*
X110347178Y-89952999D01*
X110436967Y-90153685D01*
X110500076Y-90388705D01*
X110525961Y-90628558D01*
X110515634Y-90868151D01*
X110470108Y-91102391D01*
X110390396Y-91326185D01*
X110277511Y-91534438D01*
X110132465Y-91722057D01*
X110123086Y-91732199D01*
X110049734Y-91804860D01*
X109965336Y-91879282D01*
X109878721Y-91948563D01*
X109798721Y-92005801D01*
X109734163Y-92044094D01*
X109712151Y-92053424D01*
X109710073Y-92071926D01*
X109728844Y-92110092D01*
X109738225Y-92124067D01*
X109791136Y-92212389D01*
X109844724Y-92325693D01*
X109892618Y-92449036D01*
X109928450Y-92567475D01*
X109930098Y-92574182D01*
X109967427Y-92799434D01*
X109977437Y-93045275D01*
X109961055Y-93303208D01*
X109919206Y-93564735D01*
X109852817Y-93821361D01*
X109769371Y-94049328D01*
X109719898Y-94160376D01*
X109665884Y-94270180D01*
X109603819Y-94384820D01*
X109530194Y-94510371D01*
X109441500Y-94652911D01*
X109334228Y-94818517D01*
X109263361Y-94925659D01*
X109128970Y-95131364D01*
X109017887Y-95310618D01*
X108927953Y-95468516D01*
X108857007Y-95610149D01*
X108802889Y-95740613D01*
X108763437Y-95864999D01*
X108736493Y-95988403D01*
X108719895Y-96115916D01*
X108712626Y-96224043D01*
X108710986Y-96385727D01*
X108723670Y-96518866D01*
X108752905Y-96633613D01*
X108800923Y-96740122D01*
X108840255Y-96805179D01*
X108922264Y-96910741D01*
X109023651Y-97004203D01*
X109148473Y-97087828D01*
X109300785Y-97163881D01*
X109484643Y-97234624D01*
X109704103Y-97302322D01*
X109757083Y-97316902D01*
X109991668Y-97393204D01*
X110207411Y-97492051D01*
X110413903Y-97618669D01*
X110620737Y-97778282D01*
X110650012Y-97803338D01*
X110729658Y-97878431D01*
X110812494Y-97966338D01*
X110881560Y-98048984D01*
X110885981Y-98054825D01*
X110933403Y-98116374D01*
X110971654Y-98162831D01*
X110994417Y-98186636D01*
X110997474Y-98188230D01*
X111013727Y-98172699D01*
X111048043Y-98132164D01*
X111094208Y-98074087D01*
X111115429Y-98046532D01*
X111290627Y-97849358D01*
X111496533Y-97674425D01*
X111728000Y-97525050D01*
X111979879Y-97404555D01*
X112247022Y-97316257D01*
X112248699Y-97315821D01*
X112500384Y-97240832D01*
X112714071Y-97155579D01*
X112891361Y-97058494D01*
X113033856Y-96948010D01*
X113143157Y-96822559D01*
X113220866Y-96680576D01*
X113268583Y-96520491D01*
X113287909Y-96340738D01*
X113288510Y-96298045D01*
X113283909Y-96163062D01*
X113269158Y-96034302D01*
X113242327Y-95907083D01*
X113201485Y-95776726D01*
X113144701Y-95638548D01*
X113070043Y-95487871D01*
X112975581Y-95320012D01*
X112859384Y-95130291D01*
X112719520Y-94914029D01*
X112714220Y-94905992D01*
X112553472Y-94656085D01*
X112418244Y-94430767D01*
X112306518Y-94224875D01*
X112216276Y-94033243D01*
X112145501Y-93850704D01*
X112092175Y-93672093D01*
X112054282Y-93492245D01*
X112029803Y-93305995D01*
X112017266Y-93121509D01*
X112018457Y-92864153D01*
X112045764Y-92634287D01*
X112100084Y-92427654D01*
X112182313Y-92240001D01*
X112215016Y-92182688D01*
X112289636Y-92059280D01*
X112237560Y-92027922D01*
X116181313Y-92027922D01*
X116202473Y-92122605D01*
X116252402Y-92207766D01*
X116331414Y-92275487D01*
X116355200Y-92288494D01*
X116439987Y-92322066D01*
X116512360Y-92327972D01*
X116588604Y-92307183D01*
X116598612Y-92303016D01*
X116655515Y-92269391D01*
X116713683Y-92221556D01*
X116724656Y-92210464D01*
X116757142Y-92172194D01*
X116775437Y-92135301D01*
X116783544Y-92086183D01*
X116785464Y-92011242D01*
X116785470Y-92003799D01*
X116784448Y-91928515D01*
X116777863Y-91879923D01*
X116760437Y-91844170D01*
X116726895Y-91807407D01*
X116701532Y-91783479D01*
X116611243Y-91716896D01*
X116520876Y-91688775D01*
X116423574Y-91697609D01*
X116378069Y-91712327D01*
X116287299Y-91765919D01*
X116224040Y-91841661D01*
X116188606Y-91931635D01*
X116181313Y-92027922D01*
X112237560Y-92027922D01*
X112181569Y-91994206D01*
X112007540Y-91873615D01*
G37*
G36*
X135822735Y-109586653D02*
G01*
X137437125Y-107971821D01*
X138333683Y-107971821D01*
X138638094Y-107972351D01*
X138868931Y-107974766D01*
X139039902Y-107980301D01*
X139164714Y-107990193D01*
X139257077Y-108005678D01*
X139330698Y-108027993D01*
X139399286Y-108058374D01*
X139422440Y-108070017D01*
X139607338Y-108204839D01*
X139704454Y-108342783D01*
X139715865Y-108365701D01*
X139726266Y-108390711D01*
X139735704Y-108421769D01*
X139744225Y-108462830D01*
X139751878Y-108517853D01*
X139758707Y-108590791D01*
X139764760Y-108685603D01*
X139770084Y-108806244D01*
X139774726Y-108956671D01*
X139778733Y-109140840D01*
X139782150Y-109362706D01*
X139785026Y-109626227D01*
X139787406Y-109935359D01*
X139789338Y-110294057D01*
X139790868Y-110706279D01*
X139792044Y-111175980D01*
X139792912Y-111707117D01*
X139793518Y-112303645D01*
X139793910Y-112969522D01*
X139794134Y-113708704D01*
X139794237Y-114525146D01*
X139794267Y-115422806D01*
X139794268Y-115936598D01*
X139794258Y-116879262D01*
X139794196Y-117738585D01*
X139794037Y-118518511D01*
X139793734Y-119222985D01*
X139793241Y-119855950D01*
X139792511Y-120421352D01*
X139791498Y-120923134D01*
X139790157Y-121365241D01*
X139788440Y-121751617D01*
X139786301Y-122086206D01*
X139783695Y-122372953D01*
X139780574Y-122615801D01*
X139776893Y-122818695D01*
X139772606Y-122985580D01*
X139767665Y-123120399D01*
X139762025Y-123227097D01*
X139755640Y-123309618D01*
X139748462Y-123371907D01*
X139740447Y-123417907D01*
X139731547Y-123451563D01*
X139721716Y-123476819D01*
X139710909Y-123497620D01*
X139705439Y-123507047D01*
X139604484Y-123633673D01*
X139477469Y-123739693D01*
X139465404Y-123747081D01*
X139445337Y-123758367D01*
X139422682Y-123768654D01*
X139393493Y-123777989D01*
X139353828Y-123786418D01*
X139299742Y-123793986D01*
X139227290Y-123800740D01*
X139132528Y-123806728D01*
X139011512Y-123811994D01*
X138860297Y-123816585D01*
X138674941Y-123820547D01*
X138451497Y-123823927D01*
X138186022Y-123826771D01*
X137874571Y-123829125D01*
X137513201Y-123831036D01*
X137097967Y-123832549D01*
X136624925Y-123833712D01*
X136090130Y-123834570D01*
X135489638Y-123835169D01*
X134819506Y-123835557D01*
X134075788Y-123835778D01*
X133254540Y-123835880D01*
X132351819Y-123835909D01*
X131894955Y-123835911D01*
X130952322Y-123835902D01*
X130093018Y-123835844D01*
X129313087Y-123835690D01*
X128608572Y-123835393D01*
X127975517Y-123834907D01*
X127409965Y-123834185D01*
X126907962Y-123833179D01*
X126465550Y-123831844D01*
X126078773Y-123830133D01*
X125743674Y-123827997D01*
X125456298Y-123825392D01*
X125212689Y-123822270D01*
X125008889Y-123818583D01*
X124840943Y-123814287D01*
X124704894Y-123809332D01*
X124596787Y-123803674D01*
X124512664Y-123797265D01*
X124448570Y-123790058D01*
X124400549Y-123782006D01*
X124364643Y-123773063D01*
X124336897Y-123763182D01*
X124313355Y-123752316D01*
X124301141Y-123746096D01*
X124127990Y-123612581D01*
X124028375Y-123464083D01*
X123995148Y-123394208D01*
X123970383Y-123323691D01*
X123952844Y-123238826D01*
X123941294Y-123125903D01*
X123934498Y-122971214D01*
X123931218Y-122761051D01*
X123930219Y-122481705D01*
X123930179Y-122375325D01*
X123930179Y-121676730D01*
X127552516Y-121676730D01*
X132371834Y-121665255D01*
X133123428Y-121663445D01*
X133792654Y-121661733D01*
X134384428Y-121660017D01*
X134903666Y-121658195D01*
X135355284Y-121656168D01*
X135744199Y-121653834D01*
X136075327Y-121651092D01*
X136353584Y-121647842D01*
X136583887Y-121643981D01*
X136771153Y-121639410D01*
X136920296Y-121634027D01*
X137036235Y-121627731D01*
X137123884Y-121620421D01*
X137188161Y-121611997D01*
X137233982Y-121602357D01*
X137266263Y-121591401D01*
X137289921Y-121579027D01*
X137309871Y-121565134D01*
X137311663Y-121563798D01*
X137428183Y-121459848D01*
X137522156Y-121353305D01*
X137536191Y-121333448D01*
X137548698Y-121310328D01*
X137559779Y-121279030D01*
X137569534Y-121234637D01*
X137578064Y-121172233D01*
X137585470Y-121086901D01*
X137591854Y-120973725D01*
X137597315Y-120827789D01*
X137601956Y-120644176D01*
X137605877Y-120417971D01*
X137609178Y-120144256D01*
X137611962Y-119818116D01*
X137614329Y-119434633D01*
X137616380Y-118988892D01*
X137618215Y-118475977D01*
X137619937Y-117890971D01*
X137621646Y-117228957D01*
X137623442Y-116485019D01*
X137623612Y-116413476D01*
X137635087Y-111594158D01*
X136911929Y-111594158D01*
X136553075Y-111954886D01*
X136194220Y-112315614D01*
X136183076Y-116264594D01*
X136171931Y-120213574D01*
X132222952Y-120224718D01*
X128273972Y-120235863D01*
X127552516Y-120953571D01*
X127552516Y-121676730D01*
X123930179Y-121676730D01*
X123930179Y-121478767D01*
X127159843Y-118249987D01*
X124824792Y-115914776D01*
X128623069Y-115914776D01*
X129157036Y-116450029D01*
X129691004Y-116985281D01*
X129691004Y-118053264D01*
X134011622Y-118053264D01*
X134011622Y-113732646D01*
X132943639Y-113732646D01*
X132408386Y-113198679D01*
X131873134Y-112664712D01*
X131873134Y-114237373D01*
X131872306Y-114683480D01*
X131869693Y-115048245D01*
X131865106Y-115337596D01*
X131858352Y-115557462D01*
X131849241Y-115713772D01*
X131837582Y-115812455D01*
X131823184Y-115859438D01*
X131820763Y-115862405D01*
X131781061Y-115877234D01*
X131690553Y-115889294D01*
X131543312Y-115898776D01*
X131333408Y-115905873D01*
X131054913Y-115910775D01*
X130701898Y-115913673D01*
X130268436Y-115914758D01*
X130195731Y-115914776D01*
X128623069Y-115914776D01*
X124824792Y-115914776D01*
X123952056Y-115041980D01*
X120744268Y-111833973D01*
X120744268Y-111550515D01*
X124303137Y-111550515D01*
X125349561Y-112613046D01*
X126395986Y-113675577D01*
X128021674Y-113682290D01*
X129647361Y-113689003D01*
X129647361Y-110480603D01*
X127508873Y-108343451D01*
X127508873Y-111550515D01*
X124303137Y-111550515D01*
X120744268Y-111550515D01*
X120744268Y-110804844D01*
X120745453Y-110513538D01*
X120748777Y-110251757D01*
X120753898Y-110031991D01*
X120760471Y-109866730D01*
X120768155Y-109768463D01*
X120773363Y-109746621D01*
X120823458Y-109738420D01*
X120948348Y-109731114D01*
X121135548Y-109725046D01*
X121372569Y-109720559D01*
X121646924Y-109717997D01*
X121831948Y-109717526D01*
X122861438Y-109717526D01*
X124268035Y-108310051D01*
X125674631Y-106902577D01*
X125686168Y-105855154D01*
X125697705Y-104807732D01*
X126744204Y-104796008D01*
X127508873Y-104787442D01*
X127790703Y-104784285D01*
X130999524Y-107992885D01*
X131873134Y-108866435D01*
X134208345Y-111201486D01*
X135822735Y-109586653D01*
G37*
G36*
X185696351Y-67863906D02*
G01*
X185698766Y-67633069D01*
X185704301Y-67462098D01*
X185714193Y-67337286D01*
X185729678Y-67244923D01*
X185751993Y-67171302D01*
X185782374Y-67102714D01*
X185794017Y-67079560D01*
X185928839Y-66894662D01*
X186066783Y-66797546D01*
X186089701Y-66786135D01*
X186114711Y-66775734D01*
X186145769Y-66766296D01*
X186186830Y-66757775D01*
X186241853Y-66750122D01*
X186314791Y-66743293D01*
X186409603Y-66737240D01*
X186530244Y-66731916D01*
X186680671Y-66727274D01*
X186864840Y-66723267D01*
X187086706Y-66719850D01*
X187350227Y-66716974D01*
X187659359Y-66714594D01*
X188018057Y-66712662D01*
X188430279Y-66711132D01*
X188899980Y-66709956D01*
X189431117Y-66709088D01*
X190027645Y-66708482D01*
X190693522Y-66708090D01*
X191432704Y-66707866D01*
X192249146Y-66707763D01*
X193146806Y-66707733D01*
X193660598Y-66707732D01*
X194603262Y-66707742D01*
X195462585Y-66707804D01*
X196242511Y-66707963D01*
X196946985Y-66708266D01*
X197579950Y-66708759D01*
X198145352Y-66709489D01*
X198647134Y-66710502D01*
X199089241Y-66711843D01*
X199475617Y-66713560D01*
X199810206Y-66715699D01*
X200096953Y-66718305D01*
X200339801Y-66721426D01*
X200542695Y-66725107D01*
X200709580Y-66729394D01*
X200844399Y-66734335D01*
X200951097Y-66739975D01*
X201033618Y-66746360D01*
X201095907Y-66753538D01*
X201141907Y-66761553D01*
X201175563Y-66770453D01*
X201200819Y-66780284D01*
X201221620Y-66791091D01*
X201231047Y-66796561D01*
X201357673Y-66897516D01*
X201463693Y-67024531D01*
X201471081Y-67036596D01*
X201482367Y-67056663D01*
X201492654Y-67079318D01*
X201501989Y-67108507D01*
X201510418Y-67148172D01*
X201517986Y-67202258D01*
X201524740Y-67274710D01*
X201530728Y-67369472D01*
X201535994Y-67490488D01*
X201540585Y-67641703D01*
X201544547Y-67827059D01*
X201547927Y-68050503D01*
X201550771Y-68315978D01*
X201553125Y-68627429D01*
X201555036Y-68988799D01*
X201556549Y-69404033D01*
X201557712Y-69877075D01*
X201558570Y-70411870D01*
X201559169Y-71012362D01*
X201559557Y-71682494D01*
X201559778Y-72426212D01*
X201559880Y-73247460D01*
X201559909Y-74150181D01*
X201559911Y-74607045D01*
X201559902Y-75549678D01*
X201559844Y-76408982D01*
X201559690Y-77188913D01*
X201559393Y-77893428D01*
X201558907Y-78526483D01*
X201558185Y-79092035D01*
X201557179Y-79594038D01*
X201555844Y-80036450D01*
X201554133Y-80423227D01*
X201551997Y-80758326D01*
X201549392Y-81045702D01*
X201546270Y-81289311D01*
X201542583Y-81493111D01*
X201538287Y-81661057D01*
X201533332Y-81797106D01*
X201527674Y-81905213D01*
X201521265Y-81989336D01*
X201514058Y-82053430D01*
X201506006Y-82101451D01*
X201497063Y-82137357D01*
X201487182Y-82165103D01*
X201476316Y-82188645D01*
X201470096Y-82200859D01*
X201336581Y-82374010D01*
X201188083Y-82473625D01*
X201118208Y-82506852D01*
X201047691Y-82531617D01*
X200962826Y-82549156D01*
X200849903Y-82560706D01*
X200695214Y-82567502D01*
X200485051Y-82570782D01*
X200205705Y-82571781D01*
X200099325Y-82571821D01*
X199202767Y-82571821D01*
X195973987Y-79342157D01*
X192765980Y-82549944D01*
X189557973Y-85757732D01*
X188528844Y-85757732D01*
X188237538Y-85756547D01*
X187975757Y-85753223D01*
X187755991Y-85748102D01*
X187590730Y-85741529D01*
X187492463Y-85733845D01*
X187470621Y-85728637D01*
X187462420Y-85678542D01*
X187455114Y-85553652D01*
X187449046Y-85366452D01*
X187444559Y-85129431D01*
X187441997Y-84855076D01*
X187441526Y-84670052D01*
X187441526Y-83640562D01*
X186034051Y-82233965D01*
X184626577Y-80827369D01*
X183579154Y-80815832D01*
X182531732Y-80804295D01*
X182520008Y-79757796D01*
X182511442Y-78993127D01*
X186067451Y-78993127D01*
X189274515Y-78993127D01*
X189274515Y-82198863D01*
X190337046Y-81152439D01*
X191399577Y-80106014D01*
X191406290Y-78480326D01*
X191413003Y-76854639D01*
X188204603Y-76854639D01*
X186067451Y-78993127D01*
X182511442Y-78993127D01*
X182508285Y-78711297D01*
X185716885Y-75502476D01*
X186590435Y-74628866D01*
X190388712Y-74628866D01*
X191961373Y-74628866D01*
X192407480Y-74629694D01*
X192772245Y-74632307D01*
X193061596Y-74636894D01*
X193281462Y-74643648D01*
X193437772Y-74652759D01*
X193536455Y-74664418D01*
X193583438Y-74678816D01*
X193586405Y-74681237D01*
X193601234Y-74720939D01*
X193613294Y-74811447D01*
X193622776Y-74958688D01*
X193629873Y-75168592D01*
X193634775Y-75447087D01*
X193637673Y-75800102D01*
X193638758Y-76233564D01*
X193638776Y-76306269D01*
X193638776Y-77878931D01*
X194174029Y-77344964D01*
X194709281Y-76810996D01*
X195777264Y-76810996D01*
X195777264Y-72490378D01*
X191456646Y-72490378D01*
X191456646Y-73558361D01*
X190922679Y-74093614D01*
X190388712Y-74628866D01*
X186590435Y-74628866D01*
X188925486Y-72293655D01*
X187310653Y-70679265D01*
X186221161Y-69590071D01*
X189318158Y-69590071D01*
X189678886Y-69948925D01*
X190039614Y-70307780D01*
X193988594Y-70318924D01*
X197937574Y-70330069D01*
X197948718Y-74279048D01*
X197959863Y-78228028D01*
X198677571Y-78949484D01*
X199400730Y-78949484D01*
X199389255Y-74130166D01*
X199387445Y-73378572D01*
X199385733Y-72709346D01*
X199384017Y-72117572D01*
X199382195Y-71598334D01*
X199380168Y-71146716D01*
X199377834Y-70757801D01*
X199375092Y-70426673D01*
X199371842Y-70148416D01*
X199367981Y-69918113D01*
X199363410Y-69730847D01*
X199358027Y-69581704D01*
X199351731Y-69465765D01*
X199344421Y-69378116D01*
X199335997Y-69313839D01*
X199326357Y-69268018D01*
X199315401Y-69235737D01*
X199303027Y-69212079D01*
X199289134Y-69192129D01*
X199287798Y-69190337D01*
X199183848Y-69073817D01*
X199077305Y-68979844D01*
X199057448Y-68965809D01*
X199034328Y-68953302D01*
X199003030Y-68942221D01*
X198958637Y-68932466D01*
X198896233Y-68923936D01*
X198810901Y-68916530D01*
X198697725Y-68910146D01*
X198551789Y-68904685D01*
X198368176Y-68900044D01*
X198141971Y-68896123D01*
X197868256Y-68892822D01*
X197542116Y-68890038D01*
X197158633Y-68887671D01*
X196712892Y-68885620D01*
X196199977Y-68883785D01*
X195614971Y-68882063D01*
X194952957Y-68880354D01*
X194209019Y-68878558D01*
X194137476Y-68878388D01*
X189318158Y-68866913D01*
X189318158Y-69590071D01*
X186221161Y-69590071D01*
X185695821Y-69064875D01*
X185695821Y-68168317D01*
X185696351Y-67863906D01*
G37*
%TD*%
%LPC*%
D13*
%TO.C,MX10*%
X197167500Y-114300000D03*
D14*
X192087500Y-114300000D03*
D13*
X187007500Y-114300000D03*
%TD*%
%TO.C,MX1*%
X97085250Y-114300000D03*
D14*
X92005250Y-114300000D03*
D13*
X86925250Y-114300000D03*
%TD*%
%TO.C,MX3*%
X105975250Y-95250000D03*
X116135250Y-95250000D03*
D14*
X111055250Y-95250000D03*
%TD*%
D15*
%TO.C,SW1*%
X192024000Y-88732000D03*
X198524000Y-88732000D03*
X192024000Y-93232000D03*
X198524000Y-93232000D03*
%TD*%
D13*
%TO.C,MX7*%
X159067500Y-76200000D03*
D14*
X153987500Y-76200000D03*
D13*
X148907500Y-76200000D03*
%TD*%
D15*
%TO.C,SW2*%
X198524000Y-97282000D03*
X192024000Y-97282000D03*
X198524000Y-101782000D03*
X192024000Y-101782000D03*
%TD*%
D16*
%TO.C,REF\u002A\u002A*%
X94456250Y-95250000D03*
D17*
X91916250Y-95250000D03*
X89376250Y-95250000D03*
%TD*%
D13*
%TO.C,MX8*%
X167957500Y-95250000D03*
D14*
X173037500Y-95250000D03*
D13*
X178117500Y-95250000D03*
%TD*%
%TO.C,MX5*%
X135255000Y-114300000D03*
D14*
X130175000Y-114300000D03*
D13*
X125095000Y-114300000D03*
%TD*%
D14*
%TO.C,MX2*%
X92005250Y-76200000D03*
D13*
X97085250Y-76200000D03*
X86925250Y-76200000D03*
%TD*%
%TO.C,MX6*%
X148907500Y-114300000D03*
D14*
X153987500Y-114300000D03*
D13*
X159067500Y-114300000D03*
%TD*%
D14*
%TO.C,MX4*%
X130105250Y-76200000D03*
D13*
X125025250Y-76200000D03*
X135185250Y-76200000D03*
%TD*%
D14*
%TO.C,MX9*%
X192087500Y-76200000D03*
D13*
X197167500Y-76200000D03*
X187007500Y-76200000D03*
%TD*%
D17*
%TO.C,U1*%
X181857750Y-61402998D03*
X181857750Y-63942998D03*
D16*
X181857750Y-66482998D03*
D17*
X181857750Y-69022998D03*
X181857750Y-71562998D03*
X181857750Y-74102998D03*
X181857750Y-76642998D03*
D16*
X181857750Y-79182998D03*
D17*
X181857750Y-81722998D03*
X181857750Y-84262998D03*
X181857750Y-86802998D03*
X181857750Y-89342998D03*
D16*
X181857750Y-91882998D03*
D17*
X181857750Y-94422998D03*
X181857750Y-96962998D03*
X181857750Y-99502998D03*
X181857750Y-102042998D03*
D16*
X181857750Y-104582998D03*
D17*
X181857750Y-107122998D03*
X181857750Y-109662998D03*
X164077750Y-109662998D03*
X164077750Y-107122998D03*
D16*
X164077750Y-104582998D03*
D17*
X164077750Y-102042998D03*
X164077750Y-99502998D03*
X164077750Y-96962998D03*
X164077750Y-94422998D03*
D16*
X164077750Y-91882998D03*
D17*
X164077750Y-89342998D03*
X164077750Y-86802998D03*
X164077750Y-84262998D03*
X164077750Y-81722998D03*
D16*
X164077750Y-79182998D03*
D17*
X164077750Y-76642998D03*
X164077750Y-74102998D03*
X164077750Y-71562998D03*
X164077750Y-69022998D03*
D16*
X164077750Y-66482998D03*
D17*
X164077750Y-63942998D03*
X164077750Y-61402998D03*
X175507750Y-109432998D03*
D16*
X172967750Y-109432998D03*
D17*
X170427750Y-109432998D03*
%TD*%
M02*
