%TF.GenerationSoftware,KiCad,Pcbnew,(6.0.8)*%
%TF.CreationDate,2022-10-13T20:46:09-06:00*%
%TF.ProjectId,pcb,7063622e-6b69-4636-9164-5f7063625858,rev?*%
%TF.SameCoordinates,Original*%
%TF.FileFunction,Legend,Top*%
%TF.FilePolarity,Positive*%
%FSLAX46Y46*%
G04 Gerber Fmt 4.6, Leading zero omitted, Abs format (unit mm)*
G04 Created by KiCad (PCBNEW (6.0.8)) date 2022-10-13 20:46:09*
%MOMM*%
%LPD*%
G01*
G04 APERTURE LIST*
%ADD10C,0.150000*%
%ADD11C,0.120000*%
%ADD12R,1.700000X1.700000*%
%ADD13O,1.700000X1.700000*%
%ADD14C,1.750000*%
%ADD15C,3.987800*%
%ADD16O,1.800000X1.800000*%
%ADD17O,1.500000X1.500000*%
G04 APERTURE END LIST*
D10*
%TO.C,REF\u002A\u002A*%
X97238630Y-96583333D02*
X96762440Y-96916666D01*
X97238630Y-97154761D02*
X96238630Y-97154761D01*
X96238630Y-96773809D01*
X96286250Y-96678571D01*
X96333869Y-96630952D01*
X96429107Y-96583333D01*
X96571964Y-96583333D01*
X96667202Y-96630952D01*
X96714821Y-96678571D01*
X96762440Y-96773809D01*
X96762440Y-97154761D01*
X96714821Y-96154761D02*
X96714821Y-95821428D01*
X97238630Y-95678571D02*
X97238630Y-96154761D01*
X96238630Y-96154761D01*
X96238630Y-95678571D01*
X96714821Y-94916666D02*
X96714821Y-95250000D01*
X97238630Y-95250000D02*
X96238630Y-95250000D01*
X96238630Y-94773809D01*
X96238630Y-94250000D02*
X96476726Y-94250000D01*
X96381488Y-94488095D02*
X96476726Y-94250000D01*
X96381488Y-94011904D01*
X96667202Y-94392857D02*
X96476726Y-94250000D01*
X96667202Y-94107142D01*
X96238630Y-93488095D02*
X96476726Y-93488095D01*
X96381488Y-93726190D02*
X96476726Y-93488095D01*
X96381488Y-93250000D01*
X96667202Y-93630952D02*
X96476726Y-93488095D01*
X96667202Y-93345238D01*
D11*
X88046250Y-93920000D02*
X88046250Y-96580000D01*
X93186250Y-93920000D02*
X88046250Y-93920000D01*
X94456250Y-93920000D02*
X95786250Y-93920000D01*
X93186250Y-96580000D02*
X88046250Y-96580000D01*
X95786250Y-93920000D02*
X95786250Y-95250000D01*
X93186250Y-93920000D02*
X93186250Y-96580000D01*
%TD*%
%LPC*%
D12*
%TO.C,REF\u002A\u002A*%
X94456250Y-95250000D03*
D13*
X91916250Y-95250000D03*
X89376250Y-95250000D03*
%TD*%
D14*
%TO.C,MX7*%
X159067500Y-114300000D03*
X148907500Y-114300000D03*
D15*
X153987500Y-114300000D03*
%TD*%
D16*
%TO.C,U1*%
X170242750Y-61532998D03*
X175692750Y-61532998D03*
D17*
X175392750Y-64562998D03*
X170542750Y-64562998D03*
D13*
X181857750Y-61402998D03*
X181857750Y-63942998D03*
D12*
X181857750Y-66482998D03*
D13*
X181857750Y-69022998D03*
X181857750Y-71562998D03*
X181857750Y-74102998D03*
X181857750Y-76642998D03*
D12*
X181857750Y-79182998D03*
D13*
X181857750Y-81722998D03*
X181857750Y-84262998D03*
X181857750Y-86802998D03*
X181857750Y-89342998D03*
D12*
X181857750Y-91882998D03*
D13*
X181857750Y-94422998D03*
X181857750Y-96962998D03*
X181857750Y-99502998D03*
X181857750Y-102042998D03*
D12*
X181857750Y-104582998D03*
D13*
X181857750Y-107122998D03*
X181857750Y-109662998D03*
X164077750Y-109662998D03*
X164077750Y-107122998D03*
D12*
X164077750Y-104582998D03*
D13*
X164077750Y-102042998D03*
X164077750Y-99502998D03*
X164077750Y-96962998D03*
X164077750Y-94422998D03*
D12*
X164077750Y-91882998D03*
D13*
X164077750Y-89342998D03*
X164077750Y-86802998D03*
X164077750Y-84262998D03*
X164077750Y-81722998D03*
D12*
X164077750Y-79182998D03*
D13*
X164077750Y-76642998D03*
X164077750Y-74102998D03*
X164077750Y-71562998D03*
X164077750Y-69022998D03*
D12*
X164077750Y-66482998D03*
D13*
X164077750Y-63942998D03*
X164077750Y-61402998D03*
X175507750Y-109432998D03*
D12*
X172967750Y-109432998D03*
D13*
X170427750Y-109432998D03*
%TD*%
D15*
%TO.C,MX10*%
X192087500Y-114300000D03*
D14*
X187007500Y-114300000D03*
X197167500Y-114300000D03*
%TD*%
D15*
%TO.C,MX9*%
X192087500Y-76200000D03*
D14*
X187007500Y-76200000D03*
X197167500Y-76200000D03*
%TD*%
%TO.C,MX8*%
X178117500Y-95250000D03*
X167957500Y-95250000D03*
D15*
X173037500Y-95250000D03*
%TD*%
D14*
%TO.C,MX6*%
X159067500Y-76200000D03*
X148907500Y-76200000D03*
D15*
X153987500Y-76200000D03*
%TD*%
D14*
%TO.C,MX5*%
X135255000Y-114300000D03*
X125095000Y-114300000D03*
D15*
X130175000Y-114300000D03*
%TD*%
%TO.C,MX4*%
X130105250Y-76200000D03*
D14*
X125025250Y-76200000D03*
X135185250Y-76200000D03*
%TD*%
D15*
%TO.C,MX3*%
X111055250Y-95250000D03*
D14*
X105975250Y-95250000D03*
X116135250Y-95250000D03*
%TD*%
D15*
%TO.C,MX2*%
X92005250Y-76200000D03*
D14*
X86925250Y-76200000D03*
X97085250Y-76200000D03*
%TD*%
D15*
%TO.C,MX1*%
X92005250Y-114300000D03*
D14*
X86925250Y-114300000D03*
X97085250Y-114300000D03*
%TD*%
M02*
