%TF.GenerationSoftware,KiCad,Pcbnew,(6.0.8)*%
%TF.CreationDate,2022-10-16T15:49:15-06:00*%
%TF.ProjectId,pcb,7063622e-6b69-4636-9164-5f7063625858,rev?*%
%TF.SameCoordinates,Original*%
%TF.FileFunction,Legend,Bot*%
%TF.FilePolarity,Positive*%
%FSLAX46Y46*%
G04 Gerber Fmt 4.6, Leading zero omitted, Abs format (unit mm)*
G04 Created by KiCad (PCBNEW (6.0.8)) date 2022-10-16 15:49:15*
%MOMM*%
%LPD*%
G01*
G04 APERTURE LIST*
%ADD10C,0.150000*%
%ADD11C,0.120000*%
%ADD12C,1.750000*%
%ADD13C,3.987800*%
%ADD14C,2.250000*%
%ADD15C,1.905000*%
%ADD16R,1.905000X1.905000*%
%ADD17R,1.700000X1.700000*%
%ADD18O,1.700000X1.700000*%
%ADD19R,1.700000X3.500000*%
%ADD20R,3.500000X1.700000*%
%ADD21O,1.500000X1.500000*%
%ADD22O,1.800000X1.800000*%
G04 APERTURE END LIST*
D10*
X155368452Y-117546428D02*
X154606547Y-117546428D01*
X153368452Y-117546428D02*
X152606547Y-117546428D01*
X152987500Y-117927380D02*
X152987500Y-117165476D01*
X158082738Y-85042261D02*
X158082738Y-83042261D01*
X157320833Y-83042261D01*
X157130357Y-83137500D01*
X157035119Y-83232738D01*
X156939880Y-83423214D01*
X156939880Y-83708928D01*
X157035119Y-83899404D01*
X157130357Y-83994642D01*
X157320833Y-84089880D01*
X158082738Y-84089880D01*
X156177976Y-83232738D02*
X156082738Y-83137500D01*
X155892261Y-83042261D01*
X155416071Y-83042261D01*
X155225595Y-83137500D01*
X155130357Y-83232738D01*
X155035119Y-83423214D01*
X155035119Y-83613690D01*
X155130357Y-83899404D01*
X156273214Y-85042261D01*
X155035119Y-85042261D01*
X152654166Y-83042261D02*
X152654166Y-84661309D01*
X152558928Y-84851785D01*
X152463690Y-84947023D01*
X152273214Y-85042261D01*
X151892261Y-85042261D01*
X151701785Y-84947023D01*
X151606547Y-84851785D01*
X151511309Y-84661309D01*
X151511309Y-83042261D01*
X149606547Y-85042261D02*
X150558928Y-85042261D01*
X150558928Y-83042261D01*
X134413095Y-104092261D02*
X134413095Y-102092261D01*
X133651190Y-102092261D01*
X133460714Y-102187500D01*
X133365476Y-102282738D01*
X133270238Y-102473214D01*
X133270238Y-102758928D01*
X133365476Y-102949404D01*
X133460714Y-103044642D01*
X133651190Y-103139880D01*
X134413095Y-103139880D01*
X131365476Y-104092261D02*
X132508333Y-104092261D01*
X131936904Y-104092261D02*
X131936904Y-102092261D01*
X132127380Y-102377976D01*
X132317857Y-102568452D01*
X132508333Y-102663690D01*
X128984523Y-104092261D02*
X128984523Y-102092261D01*
X128508333Y-102092261D01*
X128222619Y-102187500D01*
X128032142Y-102377976D01*
X127936904Y-102568452D01*
X127841666Y-102949404D01*
X127841666Y-103235119D01*
X127936904Y-103616071D01*
X128032142Y-103806547D01*
X128222619Y-103997023D01*
X128508333Y-104092261D01*
X128984523Y-104092261D01*
X125841666Y-104092261D02*
X126508333Y-103139880D01*
X126984523Y-104092261D02*
X126984523Y-102092261D01*
X126222619Y-102092261D01*
X126032142Y-102187500D01*
X125936904Y-102282738D01*
X125841666Y-102473214D01*
X125841666Y-102758928D01*
X125936904Y-102949404D01*
X126032142Y-103044642D01*
X126222619Y-103139880D01*
X126984523Y-103139880D01*
X131555952Y-117546428D02*
X130794047Y-117546428D01*
X129555952Y-117546428D02*
X128794047Y-117546428D01*
X129175000Y-117927380D02*
X129175000Y-117165476D01*
X131555952Y-79446428D02*
X130794047Y-79446428D01*
X129555952Y-79446428D02*
X128794047Y-79446428D01*
X129175000Y-79827380D02*
X129175000Y-79065476D01*
X112505952Y-98496428D02*
X111744047Y-98496428D01*
X110505952Y-98496428D02*
X109744047Y-98496428D01*
X110125000Y-98877380D02*
X110125000Y-98115476D01*
X193468452Y-117546428D02*
X192706547Y-117546428D01*
X191468452Y-117546428D02*
X190706547Y-117546428D01*
X191087500Y-117927380D02*
X191087500Y-117165476D01*
X95384523Y-88309380D02*
X95146428Y-89309380D01*
X94955952Y-88595095D01*
X94765476Y-89309380D01*
X94527380Y-88309380D01*
X94194047Y-89261761D02*
X94051190Y-89309380D01*
X93813095Y-89309380D01*
X93717857Y-89261761D01*
X93670238Y-89214142D01*
X93622619Y-89118904D01*
X93622619Y-89023666D01*
X93670238Y-88928428D01*
X93717857Y-88880809D01*
X93813095Y-88833190D01*
X94003571Y-88785571D01*
X94098809Y-88737952D01*
X94146428Y-88690333D01*
X94194047Y-88595095D01*
X94194047Y-88499857D01*
X94146428Y-88404619D01*
X94098809Y-88357000D01*
X94003571Y-88309380D01*
X93765476Y-88309380D01*
X93622619Y-88357000D01*
X93241666Y-88404619D02*
X93194047Y-88357000D01*
X93098809Y-88309380D01*
X92860714Y-88309380D01*
X92765476Y-88357000D01*
X92717857Y-88404619D01*
X92670238Y-88499857D01*
X92670238Y-88595095D01*
X92717857Y-88737952D01*
X93289285Y-89309380D01*
X92670238Y-89309380D01*
X92098809Y-88737952D02*
X92194047Y-88690333D01*
X92241666Y-88642714D01*
X92289285Y-88547476D01*
X92289285Y-88499857D01*
X92241666Y-88404619D01*
X92194047Y-88357000D01*
X92098809Y-88309380D01*
X91908333Y-88309380D01*
X91813095Y-88357000D01*
X91765476Y-88404619D01*
X91717857Y-88499857D01*
X91717857Y-88547476D01*
X91765476Y-88642714D01*
X91813095Y-88690333D01*
X91908333Y-88737952D01*
X92098809Y-88737952D01*
X92194047Y-88785571D01*
X92241666Y-88833190D01*
X92289285Y-88928428D01*
X92289285Y-89118904D01*
X92241666Y-89214142D01*
X92194047Y-89261761D01*
X92098809Y-89309380D01*
X91908333Y-89309380D01*
X91813095Y-89261761D01*
X91765476Y-89214142D01*
X91717857Y-89118904D01*
X91717857Y-88928428D01*
X91765476Y-88833190D01*
X91813095Y-88785571D01*
X91908333Y-88737952D01*
X90765476Y-89309380D02*
X91336904Y-89309380D01*
X91051190Y-89309380D02*
X91051190Y-88309380D01*
X91146428Y-88452238D01*
X91241666Y-88547476D01*
X91336904Y-88595095D01*
X90384523Y-88404619D02*
X90336904Y-88357000D01*
X90241666Y-88309380D01*
X90003571Y-88309380D01*
X89908333Y-88357000D01*
X89860714Y-88404619D01*
X89813095Y-88499857D01*
X89813095Y-88595095D01*
X89860714Y-88737952D01*
X90432142Y-89309380D01*
X89813095Y-89309380D01*
X89051190Y-88785571D02*
X88908333Y-88833190D01*
X88860714Y-88880809D01*
X88813095Y-88976047D01*
X88813095Y-89118904D01*
X88860714Y-89214142D01*
X88908333Y-89261761D01*
X89003571Y-89309380D01*
X89384523Y-89309380D01*
X89384523Y-88309380D01*
X89051190Y-88309380D01*
X88955952Y-88357000D01*
X88908333Y-88404619D01*
X88860714Y-88499857D01*
X88860714Y-88595095D01*
X88908333Y-88690333D01*
X88955952Y-88737952D01*
X89051190Y-88785571D01*
X89384523Y-88785571D01*
X95313095Y-91300333D02*
X95360714Y-91252714D01*
X95455952Y-91109857D01*
X95503571Y-91014619D01*
X95551190Y-90871761D01*
X95598809Y-90633666D01*
X95598809Y-90443190D01*
X95551190Y-90205095D01*
X95503571Y-90062238D01*
X95455952Y-89967000D01*
X95360714Y-89824142D01*
X95313095Y-89776523D01*
X94408333Y-90919380D02*
X94979761Y-90919380D01*
X94694047Y-90919380D02*
X94694047Y-89919380D01*
X94789285Y-90062238D01*
X94884523Y-90157476D01*
X94979761Y-90205095D01*
X93789285Y-89919380D02*
X93694047Y-89919380D01*
X93598809Y-89967000D01*
X93551190Y-90014619D01*
X93503571Y-90109857D01*
X93455952Y-90300333D01*
X93455952Y-90538428D01*
X93503571Y-90728904D01*
X93551190Y-90824142D01*
X93598809Y-90871761D01*
X93694047Y-90919380D01*
X93789285Y-90919380D01*
X93884523Y-90871761D01*
X93932142Y-90824142D01*
X93979761Y-90728904D01*
X94027380Y-90538428D01*
X94027380Y-90300333D01*
X93979761Y-90109857D01*
X93932142Y-90014619D01*
X93884523Y-89967000D01*
X93789285Y-89919380D01*
X91789285Y-90919380D02*
X92265476Y-90919380D01*
X92265476Y-89919380D01*
X91455952Y-90395571D02*
X91122619Y-90395571D01*
X90979761Y-90919380D02*
X91455952Y-90919380D01*
X91455952Y-89919380D01*
X90979761Y-89919380D01*
X90551190Y-90919380D02*
X90551190Y-89919380D01*
X90313095Y-89919380D01*
X90170238Y-89967000D01*
X90075000Y-90062238D01*
X90027380Y-90157476D01*
X89979761Y-90347952D01*
X89979761Y-90490809D01*
X90027380Y-90681285D01*
X90075000Y-90776523D01*
X90170238Y-90871761D01*
X90313095Y-90919380D01*
X90551190Y-90919380D01*
X89598809Y-90871761D02*
X89503571Y-90919380D01*
X89313095Y-90919380D01*
X89217857Y-90871761D01*
X89170238Y-90776523D01*
X89170238Y-90728904D01*
X89217857Y-90633666D01*
X89313095Y-90586047D01*
X89455952Y-90586047D01*
X89551190Y-90538428D01*
X89598809Y-90443190D01*
X89598809Y-90395571D01*
X89551190Y-90300333D01*
X89455952Y-90252714D01*
X89313095Y-90252714D01*
X89217857Y-90300333D01*
X88836904Y-91300333D02*
X88789285Y-91252714D01*
X88694047Y-91109857D01*
X88646428Y-91014619D01*
X88598809Y-90871761D01*
X88551190Y-90633666D01*
X88551190Y-90443190D01*
X88598809Y-90205095D01*
X88646428Y-90062238D01*
X88694047Y-89967000D01*
X88789285Y-89824142D01*
X88836904Y-89776523D01*
X177323214Y-104092261D02*
X177323214Y-102092261D01*
X176561309Y-102092261D01*
X176370833Y-102187500D01*
X176275595Y-102282738D01*
X176180357Y-102473214D01*
X176180357Y-102758928D01*
X176275595Y-102949404D01*
X176370833Y-103044642D01*
X176561309Y-103139880D01*
X177323214Y-103139880D01*
X175418452Y-102282738D02*
X175323214Y-102187500D01*
X175132738Y-102092261D01*
X174656547Y-102092261D01*
X174466071Y-102187500D01*
X174370833Y-102282738D01*
X174275595Y-102473214D01*
X174275595Y-102663690D01*
X174370833Y-102949404D01*
X175513690Y-104092261D01*
X174275595Y-104092261D01*
X170751785Y-103901785D02*
X170847023Y-103997023D01*
X171132738Y-104092261D01*
X171323214Y-104092261D01*
X171608928Y-103997023D01*
X171799404Y-103806547D01*
X171894642Y-103616071D01*
X171989880Y-103235119D01*
X171989880Y-102949404D01*
X171894642Y-102568452D01*
X171799404Y-102377976D01*
X171608928Y-102187500D01*
X171323214Y-102092261D01*
X171132738Y-102092261D01*
X170847023Y-102187500D01*
X170751785Y-102282738D01*
X169894642Y-104092261D02*
X169894642Y-102092261D01*
X168751785Y-104092261D01*
X168751785Y-102092261D01*
X196373214Y-85042261D02*
X196373214Y-83042261D01*
X195611309Y-83042261D01*
X195420833Y-83137500D01*
X195325595Y-83232738D01*
X195230357Y-83423214D01*
X195230357Y-83708928D01*
X195325595Y-83899404D01*
X195420833Y-83994642D01*
X195611309Y-84089880D01*
X196373214Y-84089880D01*
X194468452Y-83232738D02*
X194373214Y-83137500D01*
X194182738Y-83042261D01*
X193706547Y-83042261D01*
X193516071Y-83137500D01*
X193420833Y-83232738D01*
X193325595Y-83423214D01*
X193325595Y-83613690D01*
X193420833Y-83899404D01*
X194563690Y-85042261D01*
X193325595Y-85042261D01*
X190944642Y-83042261D02*
X190944642Y-84661309D01*
X190849404Y-84851785D01*
X190754166Y-84947023D01*
X190563690Y-85042261D01*
X190182738Y-85042261D01*
X189992261Y-84947023D01*
X189897023Y-84851785D01*
X189801785Y-84661309D01*
X189801785Y-83042261D01*
X187706547Y-85042261D02*
X188373214Y-84089880D01*
X188849404Y-85042261D02*
X188849404Y-83042261D01*
X188087499Y-83042261D01*
X187897023Y-83137500D01*
X187801785Y-83232738D01*
X187706547Y-83423214D01*
X187706547Y-83708928D01*
X187801785Y-83899404D01*
X187897023Y-83994642D01*
X188087499Y-84089880D01*
X188849404Y-84089880D01*
X96170238Y-85042261D02*
X96170238Y-83042261D01*
X95408333Y-83042261D01*
X95217857Y-83137500D01*
X95122619Y-83232738D01*
X95027380Y-83423214D01*
X95027380Y-83708928D01*
X95122619Y-83899404D01*
X95217857Y-83994642D01*
X95408333Y-84089880D01*
X96170238Y-84089880D01*
X93122619Y-85042261D02*
X94265476Y-85042261D01*
X93694047Y-85042261D02*
X93694047Y-83042261D01*
X93884523Y-83327976D01*
X94075000Y-83518452D01*
X94265476Y-83613690D01*
X90741666Y-83042261D02*
X90741666Y-84661309D01*
X90646428Y-84851785D01*
X90551190Y-84947023D01*
X90360714Y-85042261D01*
X89979761Y-85042261D01*
X89789285Y-84947023D01*
X89694047Y-84851785D01*
X89598809Y-84661309D01*
X89598809Y-83042261D01*
X87694047Y-85042261D02*
X88646428Y-85042261D01*
X88646428Y-83042261D01*
X92844809Y-97988380D02*
X92844809Y-96988380D01*
X92606714Y-96988380D01*
X92463857Y-97036000D01*
X92368619Y-97131238D01*
X92321000Y-97226476D01*
X92273380Y-97416952D01*
X92273380Y-97559809D01*
X92321000Y-97750285D01*
X92368619Y-97845523D01*
X92463857Y-97940761D01*
X92606714Y-97988380D01*
X92844809Y-97988380D01*
X91844809Y-97988380D02*
X91844809Y-96988380D01*
X91368619Y-97988380D02*
X91368619Y-96988380D01*
X90797190Y-97988380D01*
X90797190Y-96988380D01*
X134460714Y-85042261D02*
X134460714Y-83042261D01*
X133698809Y-83042261D01*
X133508333Y-83137500D01*
X133413095Y-83232738D01*
X133317857Y-83423214D01*
X133317857Y-83708928D01*
X133413095Y-83899404D01*
X133508333Y-83994642D01*
X133698809Y-84089880D01*
X134460714Y-84089880D01*
X131413095Y-85042261D02*
X132555952Y-85042261D01*
X131984523Y-85042261D02*
X131984523Y-83042261D01*
X132175000Y-83327976D01*
X132365476Y-83518452D01*
X132555952Y-83613690D01*
X129032142Y-83042261D02*
X129032142Y-84661309D01*
X128936904Y-84851785D01*
X128841666Y-84947023D01*
X128651190Y-85042261D01*
X128270238Y-85042261D01*
X128079761Y-84947023D01*
X127984523Y-84851785D01*
X127889285Y-84661309D01*
X127889285Y-83042261D01*
X125794047Y-85042261D02*
X126460714Y-84089880D01*
X126936904Y-85042261D02*
X126936904Y-83042261D01*
X126175000Y-83042261D01*
X125984523Y-83137500D01*
X125889285Y-83232738D01*
X125794047Y-83423214D01*
X125794047Y-83708928D01*
X125889285Y-83899404D01*
X125984523Y-83994642D01*
X126175000Y-84089880D01*
X126936904Y-84089880D01*
X93455952Y-79446428D02*
X92694047Y-79446428D01*
X91455952Y-79446428D02*
X90694047Y-79446428D01*
X91075000Y-79827380D02*
X91075000Y-79065476D01*
X93455952Y-117546428D02*
X92694047Y-117546428D01*
X91455952Y-117546428D02*
X90694047Y-117546428D01*
X91075000Y-117927380D02*
X91075000Y-117165476D01*
X174418452Y-98496428D02*
X173656547Y-98496428D01*
X172418452Y-98496428D02*
X171656547Y-98496428D01*
X172037500Y-98877380D02*
X172037500Y-98115476D01*
X115410714Y-104092261D02*
X115410714Y-102092261D01*
X114648809Y-102092261D01*
X114458333Y-102187500D01*
X114363095Y-102282738D01*
X114267857Y-102473214D01*
X114267857Y-102758928D01*
X114363095Y-102949404D01*
X114458333Y-103044642D01*
X114648809Y-103139880D01*
X115410714Y-103139880D01*
X112363095Y-104092261D02*
X113505952Y-104092261D01*
X112934523Y-104092261D02*
X112934523Y-102092261D01*
X113125000Y-102377976D01*
X113315476Y-102568452D01*
X113505952Y-102663690D01*
X108839285Y-103901785D02*
X108934523Y-103997023D01*
X109220238Y-104092261D01*
X109410714Y-104092261D01*
X109696428Y-103997023D01*
X109886904Y-103806547D01*
X109982142Y-103616071D01*
X110077380Y-103235119D01*
X110077380Y-102949404D01*
X109982142Y-102568452D01*
X109886904Y-102377976D01*
X109696428Y-102187500D01*
X109410714Y-102092261D01*
X109220238Y-102092261D01*
X108934523Y-102187500D01*
X108839285Y-102282738D01*
X107982142Y-104092261D02*
X107982142Y-102092261D01*
X106839285Y-104092261D01*
X106839285Y-102092261D01*
X89598476Y-92416380D02*
X90074666Y-92416380D01*
X90122285Y-92892571D01*
X90074666Y-92844952D01*
X89979428Y-92797333D01*
X89741333Y-92797333D01*
X89646095Y-92844952D01*
X89598476Y-92892571D01*
X89550857Y-92987809D01*
X89550857Y-93225904D01*
X89598476Y-93321142D01*
X89646095Y-93368761D01*
X89741333Y-93416380D01*
X89979428Y-93416380D01*
X90074666Y-93368761D01*
X90122285Y-93321142D01*
X89265142Y-92416380D02*
X88931809Y-93416380D01*
X88598476Y-92416380D01*
X155368452Y-79446428D02*
X154606547Y-79446428D01*
X153368452Y-79446428D02*
X152606547Y-79446428D01*
X152987500Y-79827380D02*
X152987500Y-79065476D01*
X158035119Y-104092261D02*
X158035119Y-102092261D01*
X157273214Y-102092261D01*
X157082738Y-102187500D01*
X156987500Y-102282738D01*
X156892261Y-102473214D01*
X156892261Y-102758928D01*
X156987500Y-102949404D01*
X157082738Y-103044642D01*
X157273214Y-103139880D01*
X158035119Y-103139880D01*
X156130357Y-102282738D02*
X156035119Y-102187500D01*
X155844642Y-102092261D01*
X155368452Y-102092261D01*
X155177976Y-102187500D01*
X155082738Y-102282738D01*
X154987500Y-102473214D01*
X154987500Y-102663690D01*
X155082738Y-102949404D01*
X156225595Y-104092261D01*
X154987500Y-104092261D01*
X152606547Y-104092261D02*
X152606547Y-102092261D01*
X152130357Y-102092261D01*
X151844642Y-102187500D01*
X151654166Y-102377976D01*
X151558928Y-102568452D01*
X151463690Y-102949404D01*
X151463690Y-103235119D01*
X151558928Y-103616071D01*
X151654166Y-103806547D01*
X151844642Y-103997023D01*
X152130357Y-104092261D01*
X152606547Y-104092261D01*
X149654166Y-104092261D02*
X150606547Y-104092261D01*
X150606547Y-102092261D01*
X196135119Y-104092261D02*
X196135119Y-102092261D01*
X195373214Y-102092261D01*
X195182738Y-102187500D01*
X195087500Y-102282738D01*
X194992261Y-102473214D01*
X194992261Y-102758928D01*
X195087500Y-102949404D01*
X195182738Y-103044642D01*
X195373214Y-103139880D01*
X196135119Y-103139880D01*
X193087500Y-104092261D02*
X194230357Y-104092261D01*
X193658928Y-104092261D02*
X193658928Y-102092261D01*
X193849404Y-102377976D01*
X194039880Y-102568452D01*
X194230357Y-102663690D01*
X190706547Y-104092261D02*
X190706547Y-102092261D01*
X190230357Y-102092261D01*
X189944642Y-102187500D01*
X189754166Y-102377976D01*
X189658928Y-102568452D01*
X189563690Y-102949404D01*
X189563690Y-103235119D01*
X189658928Y-103616071D01*
X189754166Y-103806547D01*
X189944642Y-103997023D01*
X190230357Y-104092261D01*
X190706547Y-104092261D01*
X187754166Y-104092261D02*
X188706547Y-104092261D01*
X188706547Y-102092261D01*
X193468452Y-79446428D02*
X192706547Y-79446428D01*
X191468452Y-79446428D02*
X190706547Y-79446428D01*
X191087500Y-79827380D02*
X191087500Y-79065476D01*
X96122619Y-104092261D02*
X96122619Y-102092261D01*
X95360714Y-102092261D01*
X95170238Y-102187500D01*
X95075000Y-102282738D01*
X94979761Y-102473214D01*
X94979761Y-102758928D01*
X95075000Y-102949404D01*
X95170238Y-103044642D01*
X95360714Y-103139880D01*
X96122619Y-103139880D01*
X93075000Y-104092261D02*
X94217857Y-104092261D01*
X93646428Y-104092261D02*
X93646428Y-102092261D01*
X93836904Y-102377976D01*
X94027380Y-102568452D01*
X94217857Y-102663690D01*
X90694047Y-104092261D02*
X90694047Y-102092261D01*
X90217857Y-102092261D01*
X89932142Y-102187500D01*
X89741666Y-102377976D01*
X89646428Y-102568452D01*
X89551190Y-102949404D01*
X89551190Y-103235119D01*
X89646428Y-103616071D01*
X89741666Y-103806547D01*
X89932142Y-103997023D01*
X90217857Y-104092261D01*
X90694047Y-104092261D01*
X87741666Y-104092261D02*
X88694047Y-104092261D01*
X88694047Y-102092261D01*
X173894642Y-76288511D02*
X174561309Y-75336130D01*
X175037500Y-76288511D02*
X175037500Y-74288511D01*
X174275595Y-74288511D01*
X174085119Y-74383750D01*
X173989880Y-74478988D01*
X173894642Y-74669464D01*
X173894642Y-74955178D01*
X173989880Y-75145654D01*
X174085119Y-75240892D01*
X174275595Y-75336130D01*
X175037500Y-75336130D01*
X173037500Y-76288511D02*
X173037500Y-74288511D01*
X172275595Y-74288511D01*
X172085119Y-74383750D01*
X171989880Y-74478988D01*
X171894642Y-74669464D01*
X171894642Y-74955178D01*
X171989880Y-75145654D01*
X172085119Y-75240892D01*
X172275595Y-75336130D01*
X173037500Y-75336130D01*
X171037500Y-76288511D02*
X171037500Y-74955178D01*
X171037500Y-74288511D02*
X171132738Y-74383750D01*
X171037500Y-74478988D01*
X170942261Y-74383750D01*
X171037500Y-74288511D01*
X171037500Y-74478988D01*
X175799404Y-79508511D02*
X175799404Y-77508511D01*
X175037500Y-77508511D01*
X174847023Y-77603750D01*
X174751785Y-77698988D01*
X174656547Y-77889464D01*
X174656547Y-78175178D01*
X174751785Y-78365654D01*
X174847023Y-78460892D01*
X175037500Y-78556130D01*
X175799404Y-78556130D01*
X173799404Y-79508511D02*
X173799404Y-78175178D01*
X173799404Y-77508511D02*
X173894642Y-77603750D01*
X173799404Y-77698988D01*
X173704166Y-77603750D01*
X173799404Y-77508511D01*
X173799404Y-77698988D01*
X171989880Y-79413273D02*
X172180357Y-79508511D01*
X172561309Y-79508511D01*
X172751785Y-79413273D01*
X172847023Y-79318035D01*
X172942261Y-79127559D01*
X172942261Y-78556130D01*
X172847023Y-78365654D01*
X172751785Y-78270416D01*
X172561309Y-78175178D01*
X172180357Y-78175178D01*
X171989880Y-78270416D01*
X170847023Y-79508511D02*
X171037500Y-79413273D01*
X171132738Y-79318035D01*
X171227976Y-79127559D01*
X171227976Y-78556130D01*
X171132738Y-78365654D01*
X171037500Y-78270416D01*
X170847023Y-78175178D01*
X170561309Y-78175178D01*
X170370833Y-78270416D01*
X170275595Y-78365654D01*
X170180357Y-78556130D01*
X170180357Y-79127559D01*
X170275595Y-79318035D01*
X170370833Y-79413273D01*
X170561309Y-79508511D01*
X170847023Y-79508511D01*
X95249904Y-92464000D02*
X95345142Y-92416380D01*
X95488000Y-92416380D01*
X95630857Y-92464000D01*
X95726095Y-92559238D01*
X95773714Y-92654476D01*
X95821333Y-92844952D01*
X95821333Y-92987809D01*
X95773714Y-93178285D01*
X95726095Y-93273523D01*
X95630857Y-93368761D01*
X95488000Y-93416380D01*
X95392761Y-93416380D01*
X95249904Y-93368761D01*
X95202285Y-93321142D01*
X95202285Y-92987809D01*
X95392761Y-92987809D01*
X94773714Y-93416380D02*
X94773714Y-92416380D01*
X94202285Y-93416380D01*
X94202285Y-92416380D01*
X93726095Y-93416380D02*
X93726095Y-92416380D01*
X93488000Y-92416380D01*
X93345142Y-92464000D01*
X93249904Y-92559238D01*
X93202285Y-92654476D01*
X93154666Y-92844952D01*
X93154666Y-92987809D01*
X93202285Y-93178285D01*
X93249904Y-93273523D01*
X93345142Y-93368761D01*
X93488000Y-93416380D01*
X93726095Y-93416380D01*
%TO.C,U1*%
X173729654Y-84985378D02*
X173729654Y-85794902D01*
X173682035Y-85890140D01*
X173634416Y-85937759D01*
X173539178Y-85985378D01*
X173348702Y-85985378D01*
X173253464Y-85937759D01*
X173205845Y-85890140D01*
X173158226Y-85794902D01*
X173158226Y-84985378D01*
X172158226Y-85985378D02*
X172729654Y-85985378D01*
X172443940Y-85985378D02*
X172443940Y-84985378D01*
X172539178Y-85128236D01*
X172634416Y-85223474D01*
X172729654Y-85271093D01*
X158957472Y-81342405D02*
X158876660Y-81315468D01*
X158795847Y-81234656D01*
X158741973Y-81126906D01*
X158741973Y-81019156D01*
X158768910Y-80938344D01*
X158849722Y-80803657D01*
X158930534Y-80722845D01*
X159065221Y-80642033D01*
X159146034Y-80615095D01*
X159253783Y-80615095D01*
X159361533Y-80668970D01*
X159415408Y-80722845D01*
X159469282Y-80830595D01*
X159469282Y-80884469D01*
X159280721Y-81073031D01*
X159172971Y-80965282D01*
X159765594Y-81073031D02*
X159199908Y-81638717D01*
X159415408Y-81854216D01*
X159496220Y-81881153D01*
X159550095Y-81881153D01*
X159630907Y-81854216D01*
X159711719Y-81773404D01*
X159738656Y-81692591D01*
X159738656Y-81638717D01*
X159711719Y-81557904D01*
X159496220Y-81342405D01*
X159792531Y-82123590D02*
X159792531Y-82177465D01*
X159819469Y-82258277D01*
X159954156Y-82392964D01*
X160034968Y-82419901D01*
X160088843Y-82419901D01*
X160169655Y-82392964D01*
X160223530Y-82339089D01*
X160277404Y-82231339D01*
X160277404Y-81584842D01*
X160627591Y-81935028D01*
X160250467Y-82689275D02*
X160627591Y-83066399D01*
X160950839Y-82258277D01*
X159806125Y-86129562D02*
X159348189Y-86210375D01*
X159482876Y-85806314D02*
X158917191Y-86371999D01*
X159132690Y-86587498D01*
X159213502Y-86614436D01*
X159267377Y-86614436D01*
X159348189Y-86587498D01*
X159429001Y-86506686D01*
X159455939Y-86425874D01*
X159455939Y-86371999D01*
X159429001Y-86291187D01*
X159213502Y-86075688D01*
X159482876Y-86937685D02*
X159940812Y-86479749D01*
X160021624Y-86452811D01*
X160075499Y-86452811D01*
X160156311Y-86479749D01*
X160264061Y-86587498D01*
X160290998Y-86668310D01*
X160290998Y-86722185D01*
X160264061Y-86802997D01*
X159806125Y-87260933D01*
X160641185Y-86964622D02*
X160075499Y-87530307D01*
X160964433Y-87287871D01*
X160398748Y-87853556D01*
X185065472Y-94032405D02*
X184984660Y-94005468D01*
X184903847Y-93924656D01*
X184849973Y-93816906D01*
X184849973Y-93709156D01*
X184876910Y-93628344D01*
X184957722Y-93493657D01*
X185038534Y-93412845D01*
X185173221Y-93332033D01*
X185254034Y-93305095D01*
X185361783Y-93305095D01*
X185469533Y-93358970D01*
X185523408Y-93412845D01*
X185577282Y-93520595D01*
X185577282Y-93574469D01*
X185388721Y-93763031D01*
X185280971Y-93655282D01*
X185873594Y-93763031D02*
X185307908Y-94328717D01*
X185523408Y-94544216D01*
X185604220Y-94571153D01*
X185658095Y-94571153D01*
X185738907Y-94544216D01*
X185819719Y-94463404D01*
X185846656Y-94382591D01*
X185846656Y-94328717D01*
X185819719Y-94247904D01*
X185604220Y-94032405D01*
X186735591Y-94625028D02*
X186412342Y-94301779D01*
X186573966Y-94463404D02*
X186008281Y-95029089D01*
X186035218Y-94894402D01*
X186035218Y-94786652D01*
X186008281Y-94705840D01*
X186520091Y-95540900D02*
X186573966Y-95594774D01*
X186654778Y-95621712D01*
X186708653Y-95621712D01*
X186789465Y-95594774D01*
X186924152Y-95513962D01*
X187058839Y-95379275D01*
X187139652Y-95244588D01*
X187166589Y-95163776D01*
X187166589Y-95109901D01*
X187139652Y-95029089D01*
X187085777Y-94975214D01*
X187004965Y-94948277D01*
X186951090Y-94948277D01*
X186870278Y-94975214D01*
X186735591Y-95056026D01*
X186600904Y-95190713D01*
X186520091Y-95325400D01*
X186493154Y-95406213D01*
X186493154Y-95460087D01*
X186520091Y-95540900D01*
X185180846Y-63811779D02*
X185100034Y-63784842D01*
X185019221Y-63704030D01*
X184965347Y-63596280D01*
X184965347Y-63488530D01*
X184992284Y-63407718D01*
X185073096Y-63273031D01*
X185153908Y-63192219D01*
X185288595Y-63111407D01*
X185369408Y-63084469D01*
X185477157Y-63084469D01*
X185584907Y-63138344D01*
X185638782Y-63192219D01*
X185692656Y-63299969D01*
X185692656Y-63353843D01*
X185504095Y-63542405D01*
X185396345Y-63434656D01*
X185988968Y-63542405D02*
X185423282Y-64108091D01*
X185638782Y-64323590D01*
X185719594Y-64350527D01*
X185773469Y-64350527D01*
X185854281Y-64323590D01*
X185935093Y-64242778D01*
X185962030Y-64161965D01*
X185962030Y-64108091D01*
X185935093Y-64027278D01*
X185719594Y-63811779D01*
X186850965Y-64404402D02*
X186527716Y-64081153D01*
X186689340Y-64242778D02*
X186123655Y-64808463D01*
X186150592Y-64673776D01*
X186150592Y-64566026D01*
X186123655Y-64485214D01*
X185211472Y-99112405D02*
X185130660Y-99085468D01*
X185049847Y-99004656D01*
X184995973Y-98896906D01*
X184995973Y-98789156D01*
X185022910Y-98708344D01*
X185103722Y-98573657D01*
X185184534Y-98492845D01*
X185319221Y-98412033D01*
X185400034Y-98385095D01*
X185507783Y-98385095D01*
X185615533Y-98438970D01*
X185669408Y-98492845D01*
X185723282Y-98600595D01*
X185723282Y-98654469D01*
X185534721Y-98843031D01*
X185426971Y-98735282D01*
X186019594Y-98843031D02*
X185453908Y-99408717D01*
X185669408Y-99624216D01*
X185750220Y-99651153D01*
X185804095Y-99651153D01*
X185884907Y-99624216D01*
X185965719Y-99543404D01*
X185992656Y-99462591D01*
X185992656Y-99408717D01*
X185965719Y-99327904D01*
X185750220Y-99112405D01*
X186881591Y-99705028D02*
X186558342Y-99381779D01*
X186719966Y-99543404D02*
X186154281Y-100109089D01*
X186181218Y-99974402D01*
X186181218Y-99866652D01*
X186154281Y-99785840D01*
X186585279Y-100432338D02*
X186585279Y-100486213D01*
X186612217Y-100567025D01*
X186746904Y-100701712D01*
X186827716Y-100728649D01*
X186881591Y-100728649D01*
X186962403Y-100701712D01*
X187016278Y-100647837D01*
X187070152Y-100540087D01*
X187070152Y-99893590D01*
X187420339Y-100243776D01*
X158488223Y-63283031D02*
X159242470Y-62905908D01*
X158865347Y-63660155D01*
X159565719Y-63283031D02*
X159673469Y-63336906D01*
X159808156Y-63471593D01*
X159835093Y-63552405D01*
X159835093Y-63606280D01*
X159808156Y-63687092D01*
X159754281Y-63740967D01*
X159673469Y-63767904D01*
X159619594Y-63767904D01*
X159538782Y-63740967D01*
X159404095Y-63660155D01*
X159323282Y-63633217D01*
X159269408Y-63633217D01*
X159188595Y-63660155D01*
X159134721Y-63714030D01*
X159107783Y-63794842D01*
X159107783Y-63848717D01*
X159134721Y-63929529D01*
X159269408Y-64064216D01*
X159377157Y-64118091D01*
X159996717Y-64198903D02*
X160266091Y-63929529D01*
X159511844Y-64306652D02*
X159996717Y-64198903D01*
X159888968Y-64683776D01*
X160589340Y-64306652D02*
X160697090Y-64360527D01*
X160831777Y-64495214D01*
X160858714Y-64576026D01*
X160858714Y-64629901D01*
X160831777Y-64710713D01*
X160777902Y-64764588D01*
X160697090Y-64791526D01*
X160643215Y-64791526D01*
X160562403Y-64764588D01*
X160427716Y-64683776D01*
X160346904Y-64656839D01*
X160293029Y-64656839D01*
X160212217Y-64683776D01*
X160158342Y-64737651D01*
X160131404Y-64818463D01*
X160131404Y-64872338D01*
X160158342Y-64953150D01*
X160293029Y-65087837D01*
X160400778Y-65141712D01*
X185111472Y-106732405D02*
X185030660Y-106705468D01*
X184949847Y-106624656D01*
X184895973Y-106516906D01*
X184895973Y-106409156D01*
X184922910Y-106328344D01*
X185003722Y-106193657D01*
X185084534Y-106112845D01*
X185219221Y-106032033D01*
X185300034Y-106005095D01*
X185407783Y-106005095D01*
X185515533Y-106058970D01*
X185569408Y-106112845D01*
X185623282Y-106220595D01*
X185623282Y-106274469D01*
X185434721Y-106463031D01*
X185326971Y-106355282D01*
X185919594Y-106463031D02*
X185353908Y-107028717D01*
X185569408Y-107244216D01*
X185650220Y-107271153D01*
X185704095Y-107271153D01*
X185784907Y-107244216D01*
X185865719Y-107163404D01*
X185892656Y-107082591D01*
X185892656Y-107028717D01*
X185865719Y-106947904D01*
X185650220Y-106732405D01*
X186781591Y-107325028D02*
X186458342Y-107001779D01*
X186619966Y-107163404D02*
X186054281Y-107729089D01*
X186081218Y-107594402D01*
X186081218Y-107486652D01*
X186054281Y-107405840D01*
X186889340Y-108187025D02*
X187266464Y-107809901D01*
X186539154Y-108267837D02*
X186808528Y-107729089D01*
X187158714Y-108079275D01*
X185053908Y-91734842D02*
X184973096Y-91707904D01*
X184892284Y-91627092D01*
X184838409Y-91519343D01*
X184838409Y-91411593D01*
X184865347Y-91330781D01*
X184946159Y-91196094D01*
X185026971Y-91115282D01*
X185161658Y-91034469D01*
X185242470Y-91007532D01*
X185350220Y-91007532D01*
X185457969Y-91061407D01*
X185511844Y-91115282D01*
X185565719Y-91223031D01*
X185565719Y-91276906D01*
X185377157Y-91465468D01*
X185269408Y-91357718D01*
X185862030Y-91465468D02*
X185296345Y-92031153D01*
X186185279Y-91788717D01*
X185619594Y-92354402D01*
X186454653Y-92058091D02*
X185888968Y-92623776D01*
X186023655Y-92758463D01*
X186131404Y-92812338D01*
X186239154Y-92812338D01*
X186319966Y-92785400D01*
X186454653Y-92704588D01*
X186535465Y-92623776D01*
X186616278Y-92489089D01*
X186643215Y-92408277D01*
X186643215Y-92300527D01*
X186589340Y-92192778D01*
X186454653Y-92058091D01*
X158957472Y-88952405D02*
X158876660Y-88925468D01*
X158795847Y-88844656D01*
X158741973Y-88736906D01*
X158741973Y-88629156D01*
X158768910Y-88548344D01*
X158849722Y-88413657D01*
X158930534Y-88332845D01*
X159065221Y-88252033D01*
X159146034Y-88225095D01*
X159253783Y-88225095D01*
X159361533Y-88278970D01*
X159415408Y-88332845D01*
X159469282Y-88440595D01*
X159469282Y-88494469D01*
X159280721Y-88683031D01*
X159172971Y-88575282D01*
X159765594Y-88683031D02*
X159199908Y-89248717D01*
X159415408Y-89464216D01*
X159496220Y-89491153D01*
X159550095Y-89491153D01*
X159630907Y-89464216D01*
X159711719Y-89383404D01*
X159738656Y-89302591D01*
X159738656Y-89248717D01*
X159711719Y-89167904D01*
X159496220Y-88952405D01*
X159792531Y-89733590D02*
X159792531Y-89787465D01*
X159819469Y-89868277D01*
X159954156Y-90002964D01*
X160034968Y-90029901D01*
X160088843Y-90029901D01*
X160169655Y-90002964D01*
X160223530Y-89949089D01*
X160277404Y-89841339D01*
X160277404Y-89194842D01*
X160627591Y-89545028D01*
X160331279Y-90272338D02*
X160331279Y-90326213D01*
X160358217Y-90407025D01*
X160492904Y-90541712D01*
X160573716Y-90568649D01*
X160627591Y-90568649D01*
X160708403Y-90541712D01*
X160762278Y-90487837D01*
X160816152Y-90380087D01*
X160816152Y-89733590D01*
X161166339Y-90083776D01*
X158957472Y-94042405D02*
X158876660Y-94015468D01*
X158795847Y-93934656D01*
X158741973Y-93826906D01*
X158741973Y-93719156D01*
X158768910Y-93638344D01*
X158849722Y-93503657D01*
X158930534Y-93422845D01*
X159065221Y-93342033D01*
X159146034Y-93315095D01*
X159253783Y-93315095D01*
X159361533Y-93368970D01*
X159415408Y-93422845D01*
X159469282Y-93530595D01*
X159469282Y-93584469D01*
X159280721Y-93773031D01*
X159172971Y-93665282D01*
X159765594Y-93773031D02*
X159199908Y-94338717D01*
X159415408Y-94554216D01*
X159496220Y-94581153D01*
X159550095Y-94581153D01*
X159630907Y-94554216D01*
X159711719Y-94473404D01*
X159738656Y-94392591D01*
X159738656Y-94338717D01*
X159711719Y-94257904D01*
X159496220Y-94042405D01*
X159792531Y-94823590D02*
X159792531Y-94877465D01*
X159819469Y-94958277D01*
X159954156Y-95092964D01*
X160034968Y-95119901D01*
X160088843Y-95119901D01*
X160169655Y-95092964D01*
X160223530Y-95039089D01*
X160277404Y-94931339D01*
X160277404Y-94284842D01*
X160627591Y-94635028D01*
X161166339Y-95173776D02*
X160843090Y-94850527D01*
X161004714Y-95012152D02*
X160439029Y-95577837D01*
X160465966Y-95443150D01*
X160465966Y-95335400D01*
X160439029Y-95254588D01*
X185080846Y-81601779D02*
X185000034Y-81574842D01*
X184919221Y-81494030D01*
X184865347Y-81386280D01*
X184865347Y-81278530D01*
X184892284Y-81197718D01*
X184973096Y-81063031D01*
X185053908Y-80982219D01*
X185188595Y-80901407D01*
X185269408Y-80874469D01*
X185377157Y-80874469D01*
X185484907Y-80928344D01*
X185538782Y-80982219D01*
X185592656Y-81089969D01*
X185592656Y-81143843D01*
X185404095Y-81332405D01*
X185296345Y-81224656D01*
X185888968Y-81332405D02*
X185323282Y-81898091D01*
X185538782Y-82113590D01*
X185619594Y-82140527D01*
X185673469Y-82140527D01*
X185754281Y-82113590D01*
X185835093Y-82032778D01*
X185862030Y-81951965D01*
X185862030Y-81898091D01*
X185835093Y-81817278D01*
X185619594Y-81601779D01*
X186131404Y-82706213D02*
X186023655Y-82598463D01*
X185996717Y-82517651D01*
X185996717Y-82463776D01*
X186023655Y-82329089D01*
X186104467Y-82194402D01*
X186319966Y-81978903D01*
X186400778Y-81951965D01*
X186454653Y-81951965D01*
X186535465Y-81978903D01*
X186643215Y-82086652D01*
X186670152Y-82167465D01*
X186670152Y-82221339D01*
X186643215Y-82302152D01*
X186508528Y-82436839D01*
X186427716Y-82463776D01*
X186373841Y-82463776D01*
X186293029Y-82436839D01*
X186185279Y-82329089D01*
X186158342Y-82248277D01*
X186158342Y-82194402D01*
X186185279Y-82113590D01*
X158957472Y-101652405D02*
X158876660Y-101625468D01*
X158795847Y-101544656D01*
X158741973Y-101436906D01*
X158741973Y-101329156D01*
X158768910Y-101248344D01*
X158849722Y-101113657D01*
X158930534Y-101032845D01*
X159065221Y-100952033D01*
X159146034Y-100925095D01*
X159253783Y-100925095D01*
X159361533Y-100978970D01*
X159415408Y-101032845D01*
X159469282Y-101140595D01*
X159469282Y-101194469D01*
X159280721Y-101383031D01*
X159172971Y-101275282D01*
X159765594Y-101383031D02*
X159199908Y-101948717D01*
X159415408Y-102164216D01*
X159496220Y-102191153D01*
X159550095Y-102191153D01*
X159630907Y-102164216D01*
X159711719Y-102083404D01*
X159738656Y-102002591D01*
X159738656Y-101948717D01*
X159711719Y-101867904D01*
X159496220Y-101652405D01*
X160627591Y-102245028D02*
X160304342Y-101921779D01*
X160465966Y-102083404D02*
X159900281Y-102649089D01*
X159927218Y-102514402D01*
X159927218Y-102406652D01*
X159900281Y-102325840D01*
X160627591Y-102891526D02*
X160546778Y-102864588D01*
X160492904Y-102864588D01*
X160412091Y-102891526D01*
X160385154Y-102918463D01*
X160358217Y-102999275D01*
X160358217Y-103053150D01*
X160385154Y-103133962D01*
X160492904Y-103241712D01*
X160573716Y-103268649D01*
X160627591Y-103268649D01*
X160708403Y-103241712D01*
X160735340Y-103214774D01*
X160762278Y-103133962D01*
X160762278Y-103080087D01*
X160735340Y-102999275D01*
X160627591Y-102891526D01*
X160600653Y-102810713D01*
X160600653Y-102756839D01*
X160627591Y-102676026D01*
X160735340Y-102568277D01*
X160816152Y-102541339D01*
X160870027Y-102541339D01*
X160950839Y-102568277D01*
X161058589Y-102676026D01*
X161085526Y-102756839D01*
X161085526Y-102810713D01*
X161058589Y-102891526D01*
X160950839Y-102999275D01*
X160870027Y-103026213D01*
X160816152Y-103026213D01*
X160735340Y-102999275D01*
X185180846Y-68901779D02*
X185100034Y-68874842D01*
X185019221Y-68794030D01*
X184965347Y-68686280D01*
X184965347Y-68578530D01*
X184992284Y-68497718D01*
X185073096Y-68363031D01*
X185153908Y-68282219D01*
X185288595Y-68201407D01*
X185369408Y-68174469D01*
X185477157Y-68174469D01*
X185584907Y-68228344D01*
X185638782Y-68282219D01*
X185692656Y-68389969D01*
X185692656Y-68443843D01*
X185504095Y-68632405D01*
X185396345Y-68524656D01*
X185988968Y-68632405D02*
X185423282Y-69198091D01*
X185638782Y-69413590D01*
X185719594Y-69440527D01*
X185773469Y-69440527D01*
X185854281Y-69413590D01*
X185935093Y-69332778D01*
X185962030Y-69251965D01*
X185962030Y-69198091D01*
X185935093Y-69117278D01*
X185719594Y-68901779D01*
X186015905Y-69682964D02*
X186015905Y-69736839D01*
X186042843Y-69817651D01*
X186177530Y-69952338D01*
X186258342Y-69979275D01*
X186312217Y-69979275D01*
X186393029Y-69952338D01*
X186446904Y-69898463D01*
X186500778Y-69790713D01*
X186500778Y-69144216D01*
X186850965Y-69494402D01*
X158957472Y-99112405D02*
X158876660Y-99085468D01*
X158795847Y-99004656D01*
X158741973Y-98896906D01*
X158741973Y-98789156D01*
X158768910Y-98708344D01*
X158849722Y-98573657D01*
X158930534Y-98492845D01*
X159065221Y-98412033D01*
X159146034Y-98385095D01*
X159253783Y-98385095D01*
X159361533Y-98438970D01*
X159415408Y-98492845D01*
X159469282Y-98600595D01*
X159469282Y-98654469D01*
X159280721Y-98843031D01*
X159172971Y-98735282D01*
X159765594Y-98843031D02*
X159199908Y-99408717D01*
X159415408Y-99624216D01*
X159496220Y-99651153D01*
X159550095Y-99651153D01*
X159630907Y-99624216D01*
X159711719Y-99543404D01*
X159738656Y-99462591D01*
X159738656Y-99408717D01*
X159711719Y-99327904D01*
X159496220Y-99112405D01*
X160627591Y-99705028D02*
X160304342Y-99381779D01*
X160465966Y-99543404D02*
X159900281Y-100109089D01*
X159927218Y-99974402D01*
X159927218Y-99866652D01*
X159900281Y-99785840D01*
X160896965Y-99974402D02*
X161004714Y-100082152D01*
X161031652Y-100162964D01*
X161031652Y-100216839D01*
X161004714Y-100351526D01*
X160923902Y-100486213D01*
X160708403Y-100701712D01*
X160627591Y-100728649D01*
X160573716Y-100728649D01*
X160492904Y-100701712D01*
X160385154Y-100593962D01*
X160358217Y-100513150D01*
X160358217Y-100459275D01*
X160385154Y-100378463D01*
X160519841Y-100243776D01*
X160600653Y-100216839D01*
X160654528Y-100216839D01*
X160735340Y-100243776D01*
X160843090Y-100351526D01*
X160870027Y-100432338D01*
X160870027Y-100486213D01*
X160843090Y-100567025D01*
X158957472Y-96572405D02*
X158876660Y-96545468D01*
X158795847Y-96464656D01*
X158741973Y-96356906D01*
X158741973Y-96249156D01*
X158768910Y-96168344D01*
X158849722Y-96033657D01*
X158930534Y-95952845D01*
X159065221Y-95872033D01*
X159146034Y-95845095D01*
X159253783Y-95845095D01*
X159361533Y-95898970D01*
X159415408Y-95952845D01*
X159469282Y-96060595D01*
X159469282Y-96114469D01*
X159280721Y-96303031D01*
X159172971Y-96195282D01*
X159765594Y-96303031D02*
X159199908Y-96868717D01*
X159415408Y-97084216D01*
X159496220Y-97111153D01*
X159550095Y-97111153D01*
X159630907Y-97084216D01*
X159711719Y-97003404D01*
X159738656Y-96922591D01*
X159738656Y-96868717D01*
X159711719Y-96787904D01*
X159496220Y-96572405D01*
X159792531Y-97353590D02*
X159792531Y-97407465D01*
X159819469Y-97488277D01*
X159954156Y-97622964D01*
X160034968Y-97649901D01*
X160088843Y-97649901D01*
X160169655Y-97622964D01*
X160223530Y-97569089D01*
X160277404Y-97461339D01*
X160277404Y-96814842D01*
X160627591Y-97165028D01*
X160412091Y-98080900D02*
X160465966Y-98134774D01*
X160546778Y-98161712D01*
X160600653Y-98161712D01*
X160681465Y-98134774D01*
X160816152Y-98053962D01*
X160950839Y-97919275D01*
X161031652Y-97784588D01*
X161058589Y-97703776D01*
X161058589Y-97649901D01*
X161031652Y-97569089D01*
X160977777Y-97515214D01*
X160896965Y-97488277D01*
X160843090Y-97488277D01*
X160762278Y-97515214D01*
X160627591Y-97596026D01*
X160492904Y-97730713D01*
X160412091Y-97865400D01*
X160385154Y-97946213D01*
X160385154Y-98000087D01*
X160412091Y-98080900D01*
X185053908Y-66334842D02*
X184973096Y-66307904D01*
X184892284Y-66227092D01*
X184838409Y-66119343D01*
X184838409Y-66011593D01*
X184865347Y-65930781D01*
X184946159Y-65796094D01*
X185026971Y-65715282D01*
X185161658Y-65634469D01*
X185242470Y-65607532D01*
X185350220Y-65607532D01*
X185457969Y-65661407D01*
X185511844Y-65715282D01*
X185565719Y-65823031D01*
X185565719Y-65876906D01*
X185377157Y-66065468D01*
X185269408Y-65957718D01*
X185862030Y-66065468D02*
X185296345Y-66631153D01*
X186185279Y-66388717D01*
X185619594Y-66954402D01*
X186454653Y-66658091D02*
X185888968Y-67223776D01*
X186023655Y-67358463D01*
X186131404Y-67412338D01*
X186239154Y-67412338D01*
X186319966Y-67385400D01*
X186454653Y-67304588D01*
X186535465Y-67223776D01*
X186616278Y-67089089D01*
X186643215Y-67008277D01*
X186643215Y-66900527D01*
X186589340Y-66792778D01*
X186454653Y-66658091D01*
X185053908Y-104434842D02*
X184973096Y-104407904D01*
X184892284Y-104327092D01*
X184838409Y-104219343D01*
X184838409Y-104111593D01*
X184865347Y-104030781D01*
X184946159Y-103896094D01*
X185026971Y-103815282D01*
X185161658Y-103734469D01*
X185242470Y-103707532D01*
X185350220Y-103707532D01*
X185457969Y-103761407D01*
X185511844Y-103815282D01*
X185565719Y-103923031D01*
X185565719Y-103976906D01*
X185377157Y-104165468D01*
X185269408Y-104057718D01*
X185862030Y-104165468D02*
X185296345Y-104731153D01*
X186185279Y-104488717D01*
X185619594Y-105054402D01*
X186454653Y-104758091D02*
X185888968Y-105323776D01*
X186023655Y-105458463D01*
X186131404Y-105512338D01*
X186239154Y-105512338D01*
X186319966Y-105485400D01*
X186454653Y-105404588D01*
X186535465Y-105323776D01*
X186616278Y-105189089D01*
X186643215Y-105108277D01*
X186643215Y-105000527D01*
X186589340Y-104892778D01*
X186454653Y-104758091D01*
X185080846Y-71441779D02*
X185000034Y-71414842D01*
X184919221Y-71334030D01*
X184865347Y-71226280D01*
X184865347Y-71118530D01*
X184892284Y-71037718D01*
X184973096Y-70903031D01*
X185053908Y-70822219D01*
X185188595Y-70741407D01*
X185269408Y-70714469D01*
X185377157Y-70714469D01*
X185484907Y-70768344D01*
X185538782Y-70822219D01*
X185592656Y-70929969D01*
X185592656Y-70983843D01*
X185404095Y-71172405D01*
X185296345Y-71064656D01*
X185888968Y-71172405D02*
X185323282Y-71738091D01*
X185538782Y-71953590D01*
X185619594Y-71980527D01*
X185673469Y-71980527D01*
X185754281Y-71953590D01*
X185835093Y-71872778D01*
X185862030Y-71791965D01*
X185862030Y-71738091D01*
X185835093Y-71657278D01*
X185619594Y-71441779D01*
X185835093Y-72249901D02*
X186185279Y-72600087D01*
X186212217Y-72196026D01*
X186293029Y-72276839D01*
X186373841Y-72303776D01*
X186427716Y-72303776D01*
X186508528Y-72276839D01*
X186643215Y-72142152D01*
X186670152Y-72061339D01*
X186670152Y-72007465D01*
X186643215Y-71926652D01*
X186481591Y-71765028D01*
X186400778Y-71738091D01*
X186346904Y-71738091D01*
X185080846Y-61281779D02*
X185000034Y-61254842D01*
X184919221Y-61174030D01*
X184865347Y-61066280D01*
X184865347Y-60958530D01*
X184892284Y-60877718D01*
X184973096Y-60743031D01*
X185053908Y-60662219D01*
X185188595Y-60581407D01*
X185269408Y-60554469D01*
X185377157Y-60554469D01*
X185484907Y-60608344D01*
X185538782Y-60662219D01*
X185592656Y-60769969D01*
X185592656Y-60823843D01*
X185404095Y-61012405D01*
X185296345Y-60904656D01*
X185888968Y-61012405D02*
X185323282Y-61578091D01*
X185538782Y-61793590D01*
X185619594Y-61820527D01*
X185673469Y-61820527D01*
X185754281Y-61793590D01*
X185835093Y-61712778D01*
X185862030Y-61631965D01*
X185862030Y-61578091D01*
X185835093Y-61497278D01*
X185619594Y-61281779D01*
X185996717Y-62251526D02*
X186050592Y-62305400D01*
X186131404Y-62332338D01*
X186185279Y-62332338D01*
X186266091Y-62305400D01*
X186400778Y-62224588D01*
X186535465Y-62089901D01*
X186616278Y-61955214D01*
X186643215Y-61874402D01*
X186643215Y-61820527D01*
X186616278Y-61739715D01*
X186562403Y-61685840D01*
X186481591Y-61658903D01*
X186427716Y-61658903D01*
X186346904Y-61685840D01*
X186212217Y-61766652D01*
X186077530Y-61901339D01*
X185996717Y-62036026D01*
X185969780Y-62116839D01*
X185969780Y-62170713D01*
X185996717Y-62251526D01*
X178700596Y-76078781D02*
X178619784Y-76051844D01*
X178538971Y-75971032D01*
X178485097Y-75863282D01*
X178485097Y-75755532D01*
X178512034Y-75674720D01*
X178592846Y-75540033D01*
X178673658Y-75459221D01*
X178808345Y-75378409D01*
X178889158Y-75351471D01*
X178996907Y-75351471D01*
X179104657Y-75405346D01*
X179158532Y-75459221D01*
X179212406Y-75566971D01*
X179212406Y-75620845D01*
X179023845Y-75809407D01*
X178916095Y-75701658D01*
X179508718Y-75809407D02*
X178943032Y-76375093D01*
X179158532Y-76590592D01*
X179239344Y-76617529D01*
X179293219Y-76617529D01*
X179374031Y-76590592D01*
X179454843Y-76509780D01*
X179481780Y-76428967D01*
X179481780Y-76375093D01*
X179454843Y-76294280D01*
X179239344Y-76078781D01*
X179778092Y-77210152D02*
X179508718Y-76940778D01*
X179751154Y-76644467D01*
X179751154Y-76698341D01*
X179778092Y-76779154D01*
X179912779Y-76913841D01*
X179993591Y-76940778D01*
X180047466Y-76940778D01*
X180128278Y-76913841D01*
X180262965Y-76779154D01*
X180289902Y-76698341D01*
X180289902Y-76644467D01*
X180262965Y-76563654D01*
X180128278Y-76428967D01*
X180047466Y-76402030D01*
X179993591Y-76402030D01*
X169062988Y-112056807D02*
X168948702Y-112094902D01*
X168758226Y-112094902D01*
X168682035Y-112056807D01*
X168643940Y-112018712D01*
X168605845Y-111942521D01*
X168605845Y-111866331D01*
X168643940Y-111790140D01*
X168682035Y-111752045D01*
X168758226Y-111713950D01*
X168910607Y-111675855D01*
X168986797Y-111637759D01*
X169024892Y-111599664D01*
X169062988Y-111523474D01*
X169062988Y-111447283D01*
X169024892Y-111371093D01*
X168986797Y-111332998D01*
X168910607Y-111294902D01*
X168720130Y-111294902D01*
X168605845Y-111332998D01*
X168339178Y-111294902D02*
X168148702Y-112094902D01*
X167996321Y-111523474D01*
X167843940Y-112094902D01*
X167653464Y-111294902D01*
X167348702Y-112094902D02*
X167348702Y-111294902D01*
X167158226Y-111294902D01*
X167043940Y-111332998D01*
X166967750Y-111409188D01*
X166929654Y-111485378D01*
X166891559Y-111637759D01*
X166891559Y-111752045D01*
X166929654Y-111904426D01*
X166967750Y-111980617D01*
X167043940Y-112056807D01*
X167158226Y-112094902D01*
X167348702Y-112094902D01*
X166548702Y-112094902D02*
X166548702Y-111294902D01*
X166015369Y-111294902D02*
X165862988Y-111294902D01*
X165786797Y-111332998D01*
X165710607Y-111409188D01*
X165672511Y-111561569D01*
X165672511Y-111828236D01*
X165710607Y-111980617D01*
X165786797Y-112056807D01*
X165862988Y-112094902D01*
X166015369Y-112094902D01*
X166091559Y-112056807D01*
X166167750Y-111980617D01*
X166205845Y-111828236D01*
X166205845Y-111561569D01*
X166167750Y-111409188D01*
X166091559Y-111332998D01*
X166015369Y-111294902D01*
X185080846Y-89221779D02*
X185000034Y-89194842D01*
X184919221Y-89114030D01*
X184865347Y-89006280D01*
X184865347Y-88898530D01*
X184892284Y-88817718D01*
X184973096Y-88683031D01*
X185053908Y-88602219D01*
X185188595Y-88521407D01*
X185269408Y-88494469D01*
X185377157Y-88494469D01*
X185484907Y-88548344D01*
X185538782Y-88602219D01*
X185592656Y-88709969D01*
X185592656Y-88763843D01*
X185404095Y-88952405D01*
X185296345Y-88844656D01*
X185888968Y-88952405D02*
X185323282Y-89518091D01*
X185538782Y-89733590D01*
X185619594Y-89760527D01*
X185673469Y-89760527D01*
X185754281Y-89733590D01*
X185835093Y-89652778D01*
X185862030Y-89571965D01*
X185862030Y-89518091D01*
X185835093Y-89437278D01*
X185619594Y-89221779D01*
X186481591Y-89545028D02*
X186589340Y-89652778D01*
X186616278Y-89733590D01*
X186616278Y-89787465D01*
X186589340Y-89922152D01*
X186508528Y-90056839D01*
X186293029Y-90272338D01*
X186212217Y-90299275D01*
X186158342Y-90299275D01*
X186077530Y-90272338D01*
X185969780Y-90164588D01*
X185942843Y-90083776D01*
X185942843Y-90029901D01*
X185969780Y-89949089D01*
X186104467Y-89814402D01*
X186185279Y-89787465D01*
X186239154Y-89787465D01*
X186319966Y-89814402D01*
X186427716Y-89922152D01*
X186454653Y-90002964D01*
X186454653Y-90056839D01*
X186427716Y-90137651D01*
X165731222Y-77396907D02*
X165650410Y-77369970D01*
X165569597Y-77289158D01*
X165515723Y-77181408D01*
X165515723Y-77073658D01*
X165542660Y-76992846D01*
X165623472Y-76858159D01*
X165704284Y-76777347D01*
X165838971Y-76696535D01*
X165919784Y-76669597D01*
X166027533Y-76669597D01*
X166135283Y-76723472D01*
X166189158Y-76777347D01*
X166243032Y-76885097D01*
X166243032Y-76938971D01*
X166054471Y-77127533D01*
X165946721Y-77019784D01*
X166539344Y-77127533D02*
X165973658Y-77693219D01*
X166189158Y-77908718D01*
X166269970Y-77935655D01*
X166323845Y-77935655D01*
X166404657Y-77908718D01*
X166485469Y-77827906D01*
X166512406Y-77747093D01*
X166512406Y-77693219D01*
X166485469Y-77612406D01*
X166269970Y-77396907D01*
X166566281Y-78178092D02*
X166566281Y-78231967D01*
X166593219Y-78312779D01*
X166727906Y-78447466D01*
X166808718Y-78474403D01*
X166862593Y-78474403D01*
X166943405Y-78447466D01*
X166997280Y-78393591D01*
X167051154Y-78285841D01*
X167051154Y-77639344D01*
X167401341Y-77989530D01*
X167401341Y-78636028D02*
X167320528Y-78609090D01*
X167266654Y-78609090D01*
X167185841Y-78636028D01*
X167158904Y-78662965D01*
X167131967Y-78743777D01*
X167131967Y-78797652D01*
X167158904Y-78878464D01*
X167266654Y-78986214D01*
X167347466Y-79013151D01*
X167401341Y-79013151D01*
X167482153Y-78986214D01*
X167509090Y-78959276D01*
X167536028Y-78878464D01*
X167536028Y-78824589D01*
X167509090Y-78743777D01*
X167401341Y-78636028D01*
X167374403Y-78555215D01*
X167374403Y-78501341D01*
X167401341Y-78420528D01*
X167509090Y-78312779D01*
X167589902Y-78285841D01*
X167643777Y-78285841D01*
X167724589Y-78312779D01*
X167832339Y-78420528D01*
X167859276Y-78501341D01*
X167859276Y-78555215D01*
X167832339Y-78636028D01*
X167724589Y-78743777D01*
X167643777Y-78770715D01*
X167589902Y-78770715D01*
X167509090Y-78743777D01*
X185053908Y-79034842D02*
X184973096Y-79007904D01*
X184892284Y-78927092D01*
X184838409Y-78819343D01*
X184838409Y-78711593D01*
X184865347Y-78630781D01*
X184946159Y-78496094D01*
X185026971Y-78415282D01*
X185161658Y-78334469D01*
X185242470Y-78307532D01*
X185350220Y-78307532D01*
X185457969Y-78361407D01*
X185511844Y-78415282D01*
X185565719Y-78523031D01*
X185565719Y-78576906D01*
X185377157Y-78765468D01*
X185269408Y-78657718D01*
X185862030Y-78765468D02*
X185296345Y-79331153D01*
X186185279Y-79088717D01*
X185619594Y-79654402D01*
X186454653Y-79358091D02*
X185888968Y-79923776D01*
X186023655Y-80058463D01*
X186131404Y-80112338D01*
X186239154Y-80112338D01*
X186319966Y-80085400D01*
X186454653Y-80004588D01*
X186535465Y-79923776D01*
X186616278Y-79789089D01*
X186643215Y-79708277D01*
X186643215Y-79600527D01*
X186589340Y-79492778D01*
X186454653Y-79358091D01*
X159453908Y-91734842D02*
X159373096Y-91707904D01*
X159292284Y-91627092D01*
X159238409Y-91519343D01*
X159238409Y-91411593D01*
X159265347Y-91330781D01*
X159346159Y-91196094D01*
X159426971Y-91115282D01*
X159561658Y-91034469D01*
X159642470Y-91007532D01*
X159750220Y-91007532D01*
X159857969Y-91061407D01*
X159911844Y-91115282D01*
X159965719Y-91223031D01*
X159965719Y-91276906D01*
X159777157Y-91465468D01*
X159669408Y-91357718D01*
X160262030Y-91465468D02*
X159696345Y-92031153D01*
X160585279Y-91788717D01*
X160019594Y-92354402D01*
X160854653Y-92058091D02*
X160288968Y-92623776D01*
X160423655Y-92758463D01*
X160531404Y-92812338D01*
X160639154Y-92812338D01*
X160719966Y-92785400D01*
X160854653Y-92704588D01*
X160935465Y-92623776D01*
X161016278Y-92489089D01*
X161043215Y-92408277D01*
X161043215Y-92300527D01*
X160989340Y-92192778D01*
X160854653Y-92058091D01*
X158957472Y-109272405D02*
X158876660Y-109245468D01*
X158795847Y-109164656D01*
X158741973Y-109056906D01*
X158741973Y-108949156D01*
X158768910Y-108868344D01*
X158849722Y-108733657D01*
X158930534Y-108652845D01*
X159065221Y-108572033D01*
X159146034Y-108545095D01*
X159253783Y-108545095D01*
X159361533Y-108598970D01*
X159415408Y-108652845D01*
X159469282Y-108760595D01*
X159469282Y-108814469D01*
X159280721Y-109003031D01*
X159172971Y-108895282D01*
X159765594Y-109003031D02*
X159199908Y-109568717D01*
X159415408Y-109784216D01*
X159496220Y-109811153D01*
X159550095Y-109811153D01*
X159630907Y-109784216D01*
X159711719Y-109703404D01*
X159738656Y-109622591D01*
X159738656Y-109568717D01*
X159711719Y-109487904D01*
X159496220Y-109272405D01*
X160627591Y-109865028D02*
X160304342Y-109541779D01*
X160465966Y-109703404D02*
X159900281Y-110269089D01*
X159927218Y-110134402D01*
X159927218Y-110026652D01*
X159900281Y-109945840D01*
X160546778Y-110915587D02*
X160439029Y-110807837D01*
X160412091Y-110727025D01*
X160412091Y-110673150D01*
X160439029Y-110538463D01*
X160519841Y-110403776D01*
X160735340Y-110188277D01*
X160816152Y-110161339D01*
X160870027Y-110161339D01*
X160950839Y-110188277D01*
X161058589Y-110296026D01*
X161085526Y-110376839D01*
X161085526Y-110430713D01*
X161058589Y-110511526D01*
X160923902Y-110646213D01*
X160843090Y-110673150D01*
X160789215Y-110673150D01*
X160708403Y-110646213D01*
X160600653Y-110538463D01*
X160573716Y-110457651D01*
X160573716Y-110403776D01*
X160600653Y-110322964D01*
X185080846Y-86681779D02*
X185000034Y-86654842D01*
X184919221Y-86574030D01*
X184865347Y-86466280D01*
X184865347Y-86358530D01*
X184892284Y-86277718D01*
X184973096Y-86143031D01*
X185053908Y-86062219D01*
X185188595Y-85981407D01*
X185269408Y-85954469D01*
X185377157Y-85954469D01*
X185484907Y-86008344D01*
X185538782Y-86062219D01*
X185592656Y-86169969D01*
X185592656Y-86223843D01*
X185404095Y-86412405D01*
X185296345Y-86304656D01*
X185888968Y-86412405D02*
X185323282Y-86978091D01*
X185538782Y-87193590D01*
X185619594Y-87220527D01*
X185673469Y-87220527D01*
X185754281Y-87193590D01*
X185835093Y-87112778D01*
X185862030Y-87031965D01*
X185862030Y-86978091D01*
X185835093Y-86897278D01*
X185619594Y-86681779D01*
X186212217Y-87382152D02*
X186131404Y-87355214D01*
X186077530Y-87355214D01*
X185996717Y-87382152D01*
X185969780Y-87409089D01*
X185942843Y-87489901D01*
X185942843Y-87543776D01*
X185969780Y-87624588D01*
X186077530Y-87732338D01*
X186158342Y-87759275D01*
X186212217Y-87759275D01*
X186293029Y-87732338D01*
X186319966Y-87705400D01*
X186346904Y-87624588D01*
X186346904Y-87570713D01*
X186319966Y-87489901D01*
X186212217Y-87382152D01*
X186185279Y-87301339D01*
X186185279Y-87247465D01*
X186212217Y-87166652D01*
X186319966Y-87058903D01*
X186400778Y-87031965D01*
X186454653Y-87031965D01*
X186535465Y-87058903D01*
X186643215Y-87166652D01*
X186670152Y-87247465D01*
X186670152Y-87301339D01*
X186643215Y-87382152D01*
X186535465Y-87489901D01*
X186454653Y-87516839D01*
X186400778Y-87516839D01*
X186319966Y-87489901D01*
X159057597Y-71242405D02*
X159407783Y-71592591D01*
X159434721Y-71188530D01*
X159515533Y-71269343D01*
X159596345Y-71296280D01*
X159650220Y-71296280D01*
X159731032Y-71269343D01*
X159865719Y-71134656D01*
X159892656Y-71053843D01*
X159892656Y-70999969D01*
X159865719Y-70919156D01*
X159704095Y-70757532D01*
X159623282Y-70730595D01*
X159569408Y-70730595D01*
X159569408Y-71754216D02*
X160323655Y-71377092D01*
X159946531Y-72131339D01*
X160081218Y-72266026D02*
X160431404Y-72616213D01*
X160458342Y-72212152D01*
X160539154Y-72292964D01*
X160619966Y-72319901D01*
X160673841Y-72319901D01*
X160754653Y-72292964D01*
X160889340Y-72158277D01*
X160916278Y-72077465D01*
X160916278Y-72023590D01*
X160889340Y-71942778D01*
X160727716Y-71781153D01*
X160646904Y-71754216D01*
X160593029Y-71754216D01*
X157489881Y-67174689D02*
X157840067Y-67524875D01*
X157867005Y-67120814D01*
X157947817Y-67201627D01*
X158028629Y-67228564D01*
X158082504Y-67228564D01*
X158163316Y-67201627D01*
X158298003Y-67066940D01*
X158324940Y-66986127D01*
X158324940Y-66932253D01*
X158298003Y-66851440D01*
X158136379Y-66689816D01*
X158055566Y-66662879D01*
X158001692Y-66662879D01*
X158001692Y-67686500D02*
X158755939Y-67309376D01*
X158378815Y-68063623D01*
X158513502Y-68198310D02*
X158863688Y-68548497D01*
X158890626Y-68144436D01*
X158971438Y-68225248D01*
X159052250Y-68252185D01*
X159106125Y-68252185D01*
X159186937Y-68225248D01*
X159321624Y-68090561D01*
X159348562Y-68009749D01*
X159348562Y-67955874D01*
X159321624Y-67875062D01*
X159160000Y-67713437D01*
X159079188Y-67686500D01*
X159025313Y-67686500D01*
X159590998Y-68036686D02*
X160021997Y-68467685D01*
X159806498Y-68952558D02*
X159995059Y-69141120D01*
X160372183Y-68925620D02*
X160102809Y-68656246D01*
X159537124Y-69221932D01*
X159806498Y-69491306D01*
X160614620Y-69168057D02*
X160048934Y-69733742D01*
X160937868Y-69491306D01*
X160372183Y-70056991D01*
X180477273Y-112056807D02*
X180362988Y-112094902D01*
X180172511Y-112094902D01*
X180096321Y-112056807D01*
X180058226Y-112018712D01*
X180020130Y-111942521D01*
X180020130Y-111866331D01*
X180058226Y-111790140D01*
X180096321Y-111752045D01*
X180172511Y-111713950D01*
X180324892Y-111675855D01*
X180401083Y-111637759D01*
X180439178Y-111599664D01*
X180477273Y-111523474D01*
X180477273Y-111447283D01*
X180439178Y-111371093D01*
X180401083Y-111332998D01*
X180324892Y-111294902D01*
X180134416Y-111294902D01*
X180020130Y-111332998D01*
X179753464Y-111294902D02*
X179562988Y-112094902D01*
X179410607Y-111523474D01*
X179258226Y-112094902D01*
X179067750Y-111294902D01*
X178305845Y-112018712D02*
X178343940Y-112056807D01*
X178458226Y-112094902D01*
X178534416Y-112094902D01*
X178648702Y-112056807D01*
X178724892Y-111980617D01*
X178762988Y-111904426D01*
X178801083Y-111752045D01*
X178801083Y-111637759D01*
X178762988Y-111485378D01*
X178724892Y-111409188D01*
X178648702Y-111332998D01*
X178534416Y-111294902D01*
X178458226Y-111294902D01*
X178343940Y-111332998D01*
X178305845Y-111371093D01*
X177582035Y-112094902D02*
X177962988Y-112094902D01*
X177962988Y-111294902D01*
X177315369Y-112094902D02*
X177315369Y-111294902D01*
X176858226Y-112094902D02*
X177201083Y-111637759D01*
X176858226Y-111294902D02*
X177315369Y-111752045D01*
X158957472Y-83872405D02*
X158876660Y-83845468D01*
X158795847Y-83764656D01*
X158741973Y-83656906D01*
X158741973Y-83549156D01*
X158768910Y-83468344D01*
X158849722Y-83333657D01*
X158930534Y-83252845D01*
X159065221Y-83172033D01*
X159146034Y-83145095D01*
X159253783Y-83145095D01*
X159361533Y-83198970D01*
X159415408Y-83252845D01*
X159469282Y-83360595D01*
X159469282Y-83414469D01*
X159280721Y-83603031D01*
X159172971Y-83495282D01*
X159765594Y-83603031D02*
X159199908Y-84168717D01*
X159415408Y-84384216D01*
X159496220Y-84411153D01*
X159550095Y-84411153D01*
X159630907Y-84384216D01*
X159711719Y-84303404D01*
X159738656Y-84222591D01*
X159738656Y-84168717D01*
X159711719Y-84087904D01*
X159496220Y-83872405D01*
X159792531Y-84653590D02*
X159792531Y-84707465D01*
X159819469Y-84788277D01*
X159954156Y-84922964D01*
X160034968Y-84949901D01*
X160088843Y-84949901D01*
X160169655Y-84922964D01*
X160223530Y-84869089D01*
X160277404Y-84761339D01*
X160277404Y-84114842D01*
X160627591Y-84465028D01*
X160546778Y-85515587D02*
X160439029Y-85407837D01*
X160412091Y-85327025D01*
X160412091Y-85273150D01*
X160439029Y-85138463D01*
X160519841Y-85003776D01*
X160735340Y-84788277D01*
X160816152Y-84761339D01*
X160870027Y-84761339D01*
X160950839Y-84788277D01*
X161058589Y-84896026D01*
X161085526Y-84976839D01*
X161085526Y-85030713D01*
X161058589Y-85111526D01*
X160923902Y-85246213D01*
X160843090Y-85273150D01*
X160789215Y-85273150D01*
X160708403Y-85246213D01*
X160600653Y-85138463D01*
X160573716Y-85057651D01*
X160573716Y-85003776D01*
X160600653Y-84922964D01*
X158957472Y-106732405D02*
X158876660Y-106705468D01*
X158795847Y-106624656D01*
X158741973Y-106516906D01*
X158741973Y-106409156D01*
X158768910Y-106328344D01*
X158849722Y-106193657D01*
X158930534Y-106112845D01*
X159065221Y-106032033D01*
X159146034Y-106005095D01*
X159253783Y-106005095D01*
X159361533Y-106058970D01*
X159415408Y-106112845D01*
X159469282Y-106220595D01*
X159469282Y-106274469D01*
X159280721Y-106463031D01*
X159172971Y-106355282D01*
X159765594Y-106463031D02*
X159199908Y-107028717D01*
X159415408Y-107244216D01*
X159496220Y-107271153D01*
X159550095Y-107271153D01*
X159630907Y-107244216D01*
X159711719Y-107163404D01*
X159738656Y-107082591D01*
X159738656Y-107028717D01*
X159711719Y-106947904D01*
X159496220Y-106732405D01*
X160627591Y-107325028D02*
X160304342Y-107001779D01*
X160465966Y-107163404D02*
X159900281Y-107729089D01*
X159927218Y-107594402D01*
X159927218Y-107486652D01*
X159900281Y-107405840D01*
X160250467Y-108079275D02*
X160627591Y-108456399D01*
X160950839Y-107648277D01*
X185065472Y-109272405D02*
X184984660Y-109245468D01*
X184903847Y-109164656D01*
X184849973Y-109056906D01*
X184849973Y-108949156D01*
X184876910Y-108868344D01*
X184957722Y-108733657D01*
X185038534Y-108652845D01*
X185173221Y-108572033D01*
X185254034Y-108545095D01*
X185361783Y-108545095D01*
X185469533Y-108598970D01*
X185523408Y-108652845D01*
X185577282Y-108760595D01*
X185577282Y-108814469D01*
X185388721Y-109003031D01*
X185280971Y-108895282D01*
X185873594Y-109003031D02*
X185307908Y-109568717D01*
X185523408Y-109784216D01*
X185604220Y-109811153D01*
X185658095Y-109811153D01*
X185738907Y-109784216D01*
X185819719Y-109703404D01*
X185846656Y-109622591D01*
X185846656Y-109568717D01*
X185819719Y-109487904D01*
X185604220Y-109272405D01*
X186735591Y-109865028D02*
X186412342Y-109541779D01*
X186573966Y-109703404D02*
X186008281Y-110269089D01*
X186035218Y-110134402D01*
X186035218Y-110026652D01*
X186008281Y-109945840D01*
X186681716Y-110942524D02*
X186412342Y-110673150D01*
X186654778Y-110376839D01*
X186654778Y-110430713D01*
X186681716Y-110511526D01*
X186816403Y-110646213D01*
X186897215Y-110673150D01*
X186951090Y-110673150D01*
X187031902Y-110646213D01*
X187166589Y-110511526D01*
X187193526Y-110430713D01*
X187193526Y-110376839D01*
X187166589Y-110296026D01*
X187031902Y-110161339D01*
X186951090Y-110134402D01*
X186897215Y-110134402D01*
X184980846Y-84111779D02*
X184900034Y-84084842D01*
X184819221Y-84004030D01*
X184765347Y-83896280D01*
X184765347Y-83788530D01*
X184792284Y-83707718D01*
X184873096Y-83573031D01*
X184953908Y-83492219D01*
X185088595Y-83411407D01*
X185169408Y-83384469D01*
X185277157Y-83384469D01*
X185384907Y-83438344D01*
X185438782Y-83492219D01*
X185492656Y-83599969D01*
X185492656Y-83653843D01*
X185304095Y-83842405D01*
X185196345Y-83734656D01*
X185788968Y-83842405D02*
X185223282Y-84408091D01*
X185438782Y-84623590D01*
X185519594Y-84650527D01*
X185573469Y-84650527D01*
X185654281Y-84623590D01*
X185735093Y-84542778D01*
X185762030Y-84461965D01*
X185762030Y-84408091D01*
X185735093Y-84327278D01*
X185519594Y-84111779D01*
X185735093Y-84919901D02*
X186112217Y-85297025D01*
X186435465Y-84488903D01*
X185080846Y-73981779D02*
X185000034Y-73954842D01*
X184919221Y-73874030D01*
X184865347Y-73766280D01*
X184865347Y-73658530D01*
X184892284Y-73577718D01*
X184973096Y-73443031D01*
X185053908Y-73362219D01*
X185188595Y-73281407D01*
X185269408Y-73254469D01*
X185377157Y-73254469D01*
X185484907Y-73308344D01*
X185538782Y-73362219D01*
X185592656Y-73469969D01*
X185592656Y-73523843D01*
X185404095Y-73712405D01*
X185296345Y-73604656D01*
X185888968Y-73712405D02*
X185323282Y-74278091D01*
X185538782Y-74493590D01*
X185619594Y-74520527D01*
X185673469Y-74520527D01*
X185754281Y-74493590D01*
X185835093Y-74412778D01*
X185862030Y-74331965D01*
X185862030Y-74278091D01*
X185835093Y-74197278D01*
X185619594Y-73981779D01*
X186319966Y-74897651D02*
X186697090Y-74520527D01*
X185969780Y-74978463D02*
X186239154Y-74439715D01*
X186589340Y-74789901D01*
X165636038Y-73372476D02*
X165905412Y-73641850D01*
X165743787Y-73156977D02*
X165366664Y-73911224D01*
X166120911Y-73534100D01*
X166309473Y-73722662D02*
X165743787Y-74288347D01*
X165878474Y-74423034D01*
X165986224Y-74476909D01*
X166093973Y-74476909D01*
X166174786Y-74449972D01*
X166309473Y-74369160D01*
X166390285Y-74288347D01*
X166471097Y-74153660D01*
X166498034Y-74072848D01*
X166498034Y-73965099D01*
X166444160Y-73857349D01*
X166309473Y-73722662D01*
X167144532Y-74665471D02*
X167144532Y-74611596D01*
X167090657Y-74503847D01*
X167036782Y-74449972D01*
X166929033Y-74396097D01*
X166821283Y-74396097D01*
X166740471Y-74423034D01*
X166605784Y-74503847D01*
X166524972Y-74584659D01*
X166444160Y-74719346D01*
X166417222Y-74800158D01*
X166417222Y-74907908D01*
X166471097Y-75015657D01*
X166524972Y-75069532D01*
X166632721Y-75123407D01*
X166686596Y-75123407D01*
X167360031Y-74665471D02*
X167791030Y-75096469D01*
X167225344Y-75769904D02*
X167979591Y-75392781D01*
X167602468Y-76147028D01*
X168679964Y-76093153D02*
X168222028Y-76173965D01*
X168356715Y-75769904D02*
X167791030Y-76335590D01*
X168006529Y-76551089D01*
X168087341Y-76578026D01*
X168141216Y-76578026D01*
X168222028Y-76551089D01*
X168302840Y-76470277D01*
X168329778Y-76389465D01*
X168329778Y-76335590D01*
X168302840Y-76254778D01*
X168087341Y-76039278D01*
X168626089Y-76631901D02*
X168814651Y-76820463D01*
X169191774Y-76604964D02*
X168922400Y-76335590D01*
X168356715Y-76901275D01*
X168626089Y-77170649D01*
X169326461Y-77332274D02*
X169137900Y-77143712D01*
X169434211Y-76847400D02*
X168868526Y-77413086D01*
X169137900Y-77682460D01*
X185065472Y-101652405D02*
X184984660Y-101625468D01*
X184903847Y-101544656D01*
X184849973Y-101436906D01*
X184849973Y-101329156D01*
X184876910Y-101248344D01*
X184957722Y-101113657D01*
X185038534Y-101032845D01*
X185173221Y-100952033D01*
X185254034Y-100925095D01*
X185361783Y-100925095D01*
X185469533Y-100978970D01*
X185523408Y-101032845D01*
X185577282Y-101140595D01*
X185577282Y-101194469D01*
X185388721Y-101383031D01*
X185280971Y-101275282D01*
X185873594Y-101383031D02*
X185307908Y-101948717D01*
X185523408Y-102164216D01*
X185604220Y-102191153D01*
X185658095Y-102191153D01*
X185738907Y-102164216D01*
X185819719Y-102083404D01*
X185846656Y-102002591D01*
X185846656Y-101948717D01*
X185819719Y-101867904D01*
X185604220Y-101652405D01*
X186735591Y-102245028D02*
X186412342Y-101921779D01*
X186573966Y-102083404D02*
X186008281Y-102649089D01*
X186035218Y-102514402D01*
X186035218Y-102406652D01*
X186008281Y-102325840D01*
X186358467Y-102999275D02*
X186708653Y-103349461D01*
X186735591Y-102945400D01*
X186816403Y-103026213D01*
X186897215Y-103053150D01*
X186951090Y-103053150D01*
X187031902Y-103026213D01*
X187166589Y-102891526D01*
X187193526Y-102810713D01*
X187193526Y-102756839D01*
X187166589Y-102676026D01*
X187004965Y-102514402D01*
X186924152Y-102487465D01*
X186870278Y-102487465D01*
X159453908Y-66334842D02*
X159373096Y-66307904D01*
X159292284Y-66227092D01*
X159238409Y-66119343D01*
X159238409Y-66011593D01*
X159265347Y-65930781D01*
X159346159Y-65796094D01*
X159426971Y-65715282D01*
X159561658Y-65634469D01*
X159642470Y-65607532D01*
X159750220Y-65607532D01*
X159857969Y-65661407D01*
X159911844Y-65715282D01*
X159965719Y-65823031D01*
X159965719Y-65876906D01*
X159777157Y-66065468D01*
X159669408Y-65957718D01*
X160262030Y-66065468D02*
X159696345Y-66631153D01*
X160585279Y-66388717D01*
X160019594Y-66954402D01*
X160854653Y-66658091D02*
X160288968Y-67223776D01*
X160423655Y-67358463D01*
X160531404Y-67412338D01*
X160639154Y-67412338D01*
X160719966Y-67385400D01*
X160854653Y-67304588D01*
X160935465Y-67223776D01*
X161016278Y-67089089D01*
X161043215Y-67008277D01*
X161043215Y-66900527D01*
X160989340Y-66792778D01*
X160854653Y-66658091D01*
X158320879Y-60605688D02*
X159075127Y-60228564D01*
X158698003Y-60982811D01*
X159344501Y-61090561D02*
X159452250Y-61144436D01*
X159506125Y-61144436D01*
X159586937Y-61117498D01*
X159667750Y-61036686D01*
X159694687Y-60955874D01*
X159694687Y-60901999D01*
X159667750Y-60821187D01*
X159452250Y-60605688D01*
X158886565Y-61171373D01*
X159075127Y-61359935D01*
X159155939Y-61386872D01*
X159209814Y-61386872D01*
X159290626Y-61359935D01*
X159344501Y-61306060D01*
X159371438Y-61225248D01*
X159371438Y-61171373D01*
X159344501Y-61090561D01*
X159155939Y-60901999D01*
X159452250Y-61737059D02*
X159910186Y-61279123D01*
X159990998Y-61252185D01*
X160044873Y-61252185D01*
X160125685Y-61279123D01*
X160233435Y-61386872D01*
X160260372Y-61467685D01*
X160260372Y-61521559D01*
X160233435Y-61602372D01*
X159775499Y-62060307D01*
X160556684Y-61763996D02*
X160664433Y-61817871D01*
X160799120Y-61952558D01*
X160826058Y-62033370D01*
X160826058Y-62087245D01*
X160799120Y-62168057D01*
X160745246Y-62221932D01*
X160664433Y-62248869D01*
X160610559Y-62248869D01*
X160529746Y-62221932D01*
X160395059Y-62141120D01*
X160314247Y-62114182D01*
X160260372Y-62114182D01*
X160179560Y-62141120D01*
X160125685Y-62194994D01*
X160098748Y-62275807D01*
X160098748Y-62329681D01*
X160125685Y-62410494D01*
X160260372Y-62545181D01*
X160368122Y-62599055D01*
X159453908Y-104434842D02*
X159373096Y-104407904D01*
X159292284Y-104327092D01*
X159238409Y-104219343D01*
X159238409Y-104111593D01*
X159265347Y-104030781D01*
X159346159Y-103896094D01*
X159426971Y-103815282D01*
X159561658Y-103734469D01*
X159642470Y-103707532D01*
X159750220Y-103707532D01*
X159857969Y-103761407D01*
X159911844Y-103815282D01*
X159965719Y-103923031D01*
X159965719Y-103976906D01*
X159777157Y-104165468D01*
X159669408Y-104057718D01*
X160262030Y-104165468D02*
X159696345Y-104731153D01*
X160585279Y-104488717D01*
X160019594Y-105054402D01*
X160854653Y-104758091D02*
X160288968Y-105323776D01*
X160423655Y-105458463D01*
X160531404Y-105512338D01*
X160639154Y-105512338D01*
X160719966Y-105485400D01*
X160854653Y-105404588D01*
X160935465Y-105323776D01*
X161016278Y-105189089D01*
X161043215Y-105108277D01*
X161043215Y-105000527D01*
X160989340Y-104892778D01*
X160854653Y-104758091D01*
X159011347Y-78092033D02*
X159280721Y-78361407D01*
X159119096Y-77876534D02*
X158741973Y-78630781D01*
X159496220Y-78253657D01*
X159442345Y-79277278D02*
X159361533Y-79250341D01*
X159280721Y-79169529D01*
X159226846Y-79061779D01*
X159226846Y-78954030D01*
X159253783Y-78873217D01*
X159334595Y-78738530D01*
X159415408Y-78657718D01*
X159550095Y-78576906D01*
X159630907Y-78549969D01*
X159738656Y-78549969D01*
X159846406Y-78603843D01*
X159900281Y-78657718D01*
X159954156Y-78765468D01*
X159954156Y-78819343D01*
X159765594Y-79007904D01*
X159657844Y-78900155D01*
X160250467Y-79007904D02*
X159684782Y-79573590D01*
X160573716Y-79331153D01*
X160008030Y-79896839D01*
X160843090Y-79600527D02*
X160277404Y-80166213D01*
X160412091Y-80300900D01*
X160519841Y-80354774D01*
X160627591Y-80354774D01*
X160708403Y-80327837D01*
X160843090Y-80247025D01*
X160923902Y-80166213D01*
X161004714Y-80031526D01*
X161031652Y-79950713D01*
X161031652Y-79842964D01*
X160977777Y-79735214D01*
X160843090Y-79600527D01*
X185211472Y-96572405D02*
X185130660Y-96545468D01*
X185049847Y-96464656D01*
X184995973Y-96356906D01*
X184995973Y-96249156D01*
X185022910Y-96168344D01*
X185103722Y-96033657D01*
X185184534Y-95952845D01*
X185319221Y-95872033D01*
X185400034Y-95845095D01*
X185507783Y-95845095D01*
X185615533Y-95898970D01*
X185669408Y-95952845D01*
X185723282Y-96060595D01*
X185723282Y-96114469D01*
X185534721Y-96303031D01*
X185426971Y-96195282D01*
X186019594Y-96303031D02*
X185453908Y-96868717D01*
X185669408Y-97084216D01*
X185750220Y-97111153D01*
X185804095Y-97111153D01*
X185884907Y-97084216D01*
X185965719Y-97003404D01*
X185992656Y-96922591D01*
X185992656Y-96868717D01*
X185965719Y-96787904D01*
X185750220Y-96572405D01*
X186881591Y-97165028D02*
X186558342Y-96841779D01*
X186719966Y-97003404D02*
X186154281Y-97569089D01*
X186181218Y-97434402D01*
X186181218Y-97326652D01*
X186154281Y-97245840D01*
X187420339Y-97703776D02*
X187097090Y-97380527D01*
X187258714Y-97542152D02*
X186693029Y-98107837D01*
X186719966Y-97973150D01*
X186719966Y-97865400D01*
X186693029Y-97784588D01*
%TO.C,G\u002A\u002A\u002A*%
G36*
X201288275Y-126566141D02*
G01*
X201287224Y-126659977D01*
X201284373Y-126914575D01*
X201280469Y-127263009D01*
X200931728Y-127266850D01*
X200582986Y-127270692D01*
X199645744Y-128207350D01*
X199645744Y-128550120D01*
X199645587Y-128611725D01*
X199644734Y-128703072D01*
X199643240Y-128781988D01*
X199641219Y-128844317D01*
X199638787Y-128885899D01*
X199636056Y-128902578D01*
X199628784Y-128904312D01*
X199596066Y-128906871D01*
X199541042Y-128909059D01*
X199467870Y-128910764D01*
X199380710Y-128911871D01*
X199283719Y-128912266D01*
X198941069Y-128912266D01*
X197872956Y-127844226D01*
X196804844Y-126776187D01*
X196267330Y-127313849D01*
X195729815Y-127851510D01*
X195431305Y-127851510D01*
X195395885Y-127851497D01*
X195302877Y-127851164D01*
X195232902Y-127850072D01*
X195181398Y-127847810D01*
X195143800Y-127843964D01*
X195115544Y-127838124D01*
X195092066Y-127829879D01*
X195068801Y-127818816D01*
X195019358Y-127785649D01*
X194974904Y-127727998D01*
X194972833Y-127723931D01*
X194969215Y-127716093D01*
X194965925Y-127706855D01*
X194962948Y-127694900D01*
X194960267Y-127678911D01*
X194957867Y-127657571D01*
X194955733Y-127629562D01*
X194953849Y-127593567D01*
X194952200Y-127548270D01*
X194950769Y-127492352D01*
X194949542Y-127424496D01*
X194948502Y-127343386D01*
X194947635Y-127247704D01*
X194946924Y-127136132D01*
X194946354Y-127007354D01*
X194945909Y-126860052D01*
X194945575Y-126692909D01*
X194945514Y-126645446D01*
X195663903Y-126645446D01*
X195904680Y-126645446D01*
X196024162Y-126525341D01*
X196143643Y-126405236D01*
X196144974Y-125933433D01*
X196870343Y-125933433D01*
X197225930Y-125933433D01*
X197404144Y-126111218D01*
X197582357Y-126289003D01*
X197582357Y-125947963D01*
X198323432Y-125947963D01*
X198325668Y-126489239D01*
X198327903Y-127030515D01*
X198681674Y-127378924D01*
X199035446Y-127727333D01*
X199035446Y-126659977D01*
X200103244Y-126659977D01*
X199747460Y-126303970D01*
X199391675Y-125947963D01*
X198323432Y-125947963D01*
X197582357Y-125947963D01*
X197582357Y-125765383D01*
X197582363Y-125741175D01*
X197582724Y-125596853D01*
X197583689Y-125479316D01*
X197585321Y-125386591D01*
X197587684Y-125316703D01*
X197590842Y-125267679D01*
X197594857Y-125237544D01*
X197599794Y-125224325D01*
X197600782Y-125223519D01*
X197616425Y-125218725D01*
X197649282Y-125214843D01*
X197701325Y-125211810D01*
X197774530Y-125209561D01*
X197870870Y-125208034D01*
X197992320Y-125207164D01*
X198140852Y-125206888D01*
X198664472Y-125206888D01*
X198486687Y-125028675D01*
X198308902Y-124850461D01*
X198308902Y-124494874D01*
X196870343Y-124494874D01*
X196870343Y-125933433D01*
X196144974Y-125933433D01*
X196147353Y-125090416D01*
X196151064Y-123775595D01*
X197465885Y-123771884D01*
X198780705Y-123768174D01*
X198900810Y-123648693D01*
X199020915Y-123529211D01*
X199020915Y-123288434D01*
X197416314Y-123292255D01*
X197392493Y-123292312D01*
X197144798Y-123292910D01*
X196924379Y-123293479D01*
X196729600Y-123294052D01*
X196558824Y-123294663D01*
X196410414Y-123295346D01*
X196282733Y-123296134D01*
X196174143Y-123297061D01*
X196083010Y-123298160D01*
X196007694Y-123299466D01*
X195946560Y-123301011D01*
X195897970Y-123302829D01*
X195860288Y-123304955D01*
X195831877Y-123307420D01*
X195811099Y-123310261D01*
X195796318Y-123313508D01*
X195785898Y-123317198D01*
X195778200Y-123321362D01*
X195771588Y-123326035D01*
X195736115Y-123357324D01*
X195701504Y-123396119D01*
X195701059Y-123396716D01*
X195696434Y-123403358D01*
X195692314Y-123411235D01*
X195688666Y-123421983D01*
X195685456Y-123437239D01*
X195682651Y-123458640D01*
X195680218Y-123487824D01*
X195678121Y-123526425D01*
X195676329Y-123576083D01*
X195674807Y-123638433D01*
X195673522Y-123715113D01*
X195672439Y-123807760D01*
X195671526Y-123918009D01*
X195670749Y-124047499D01*
X195670074Y-124197866D01*
X195669468Y-124370748D01*
X195668897Y-124567780D01*
X195668326Y-124790600D01*
X195667724Y-125040845D01*
X195663903Y-126645446D01*
X194945514Y-126645446D01*
X194945334Y-126504607D01*
X194945172Y-126293830D01*
X194945073Y-126059261D01*
X194945022Y-125799581D01*
X194945003Y-125513474D01*
X194945000Y-125199622D01*
X194945000Y-125047509D01*
X194945010Y-124746946D01*
X194945044Y-124473510D01*
X194945118Y-124225888D01*
X194945247Y-124002766D01*
X194945446Y-123802831D01*
X194945732Y-123624770D01*
X194946119Y-123467270D01*
X194946623Y-123329017D01*
X194947259Y-123208698D01*
X194948043Y-123105000D01*
X194948990Y-123016609D01*
X194950115Y-122942213D01*
X194951435Y-122880498D01*
X194952963Y-122830151D01*
X194954716Y-122789859D01*
X194956710Y-122758308D01*
X194958959Y-122734185D01*
X194961479Y-122716176D01*
X194964285Y-122702970D01*
X194967393Y-122693251D01*
X194970818Y-122685708D01*
X194974576Y-122679027D01*
X194977036Y-122675010D01*
X195012335Y-122632720D01*
X195054496Y-122599107D01*
X195057634Y-122597286D01*
X195064560Y-122593687D01*
X195072969Y-122590414D01*
X195084175Y-122587451D01*
X195099491Y-122584782D01*
X195120230Y-122582392D01*
X195147706Y-122580266D01*
X195183231Y-122578389D01*
X195228119Y-122576743D01*
X195283684Y-122575316D01*
X195351238Y-122574090D01*
X195432095Y-122573051D01*
X195527567Y-122572184D01*
X195638969Y-122571472D01*
X195767614Y-122570900D01*
X195914814Y-122570453D01*
X196081884Y-122570116D01*
X196270135Y-122569873D01*
X196480883Y-122569709D01*
X196715439Y-122569608D01*
X196975116Y-122569555D01*
X197261230Y-122569534D01*
X197575091Y-122569531D01*
X197746160Y-122569531D01*
X198045037Y-122569541D01*
X198316873Y-122569576D01*
X198562985Y-122569650D01*
X198784690Y-122569781D01*
X198983305Y-122569983D01*
X199160148Y-122570271D01*
X199316536Y-122570663D01*
X199453786Y-122571172D01*
X199573216Y-122571816D01*
X199676142Y-122572608D01*
X199763881Y-122573566D01*
X199837752Y-122574704D01*
X199899072Y-122576037D01*
X199949156Y-122577583D01*
X199989324Y-122579356D01*
X200020892Y-122581371D01*
X200045177Y-122583645D01*
X200063497Y-122586193D01*
X200077168Y-122589030D01*
X200087509Y-122592172D01*
X200095836Y-122595635D01*
X200103467Y-122599435D01*
X200149396Y-122631770D01*
X200194285Y-122693332D01*
X200198161Y-122701041D01*
X200208277Y-122723877D01*
X200215707Y-122748390D01*
X200220863Y-122779142D01*
X200224156Y-122820699D01*
X200225999Y-122877624D01*
X200226803Y-122954481D01*
X200226979Y-123055836D01*
X200226979Y-123354346D01*
X199689318Y-123891861D01*
X199151656Y-124429375D01*
X199929116Y-125206888D01*
X200219966Y-125497758D01*
X201288275Y-126566141D01*
G37*
D11*
%TO.C,U1*%
X162467750Y-100632998D02*
X162467750Y-101032998D01*
X183467750Y-67532998D02*
X183467750Y-67932998D01*
X162467750Y-60032998D02*
X162467750Y-60332998D01*
X183467750Y-87832998D02*
X183467750Y-88232998D01*
X162467750Y-67532998D02*
X162467750Y-67932998D01*
X162467750Y-98032998D02*
X162467750Y-98432998D01*
X162467750Y-105632998D02*
X162467750Y-106032998D01*
X183467750Y-60032998D02*
X183467750Y-60332998D01*
X162467750Y-77732998D02*
X162467750Y-78132998D01*
X162467750Y-103132998D02*
X162467750Y-103532998D01*
X162467750Y-75132998D02*
X162467750Y-75532998D01*
X162467750Y-92932998D02*
X162467750Y-93332998D01*
X183467750Y-98032998D02*
X183467750Y-98432998D01*
X183467750Y-103132998D02*
X183467750Y-103532998D01*
X183467750Y-85332998D02*
X183467750Y-85732998D01*
X183467750Y-75132998D02*
X183467750Y-75532998D01*
X162467750Y-87832998D02*
X162467750Y-88232998D01*
X183467750Y-95532998D02*
X183467750Y-95932998D01*
X162467750Y-72632998D02*
X162467750Y-73032998D01*
X171867750Y-111032998D02*
X171467750Y-111032998D01*
X183467750Y-100632998D02*
X183467750Y-101032998D01*
X162467750Y-65032998D02*
X162467750Y-65432998D01*
X183467750Y-72632998D02*
X183467750Y-73032998D01*
X174467750Y-111032998D02*
X174067750Y-111032998D01*
X183467750Y-90432998D02*
X183467750Y-90832998D01*
X183467750Y-77732998D02*
X183467750Y-78132998D01*
X183467750Y-62699998D02*
X180460750Y-62699998D01*
X183467750Y-92932998D02*
X183467750Y-93332998D01*
X162467750Y-70132998D02*
X162467750Y-70532998D01*
X162467750Y-111032998D02*
X169267750Y-111032998D01*
X162467750Y-82832998D02*
X162467750Y-83232998D01*
X183467750Y-80232998D02*
X183467750Y-80632998D01*
X183467750Y-70132998D02*
X183467750Y-70532998D01*
X183467750Y-108232998D02*
X183467750Y-108632998D01*
X183467750Y-82832998D02*
X183467750Y-83232998D01*
X183467750Y-105632998D02*
X183467750Y-106032998D01*
X183467750Y-60032998D02*
X162467750Y-60032998D01*
X162467750Y-80232998D02*
X162467750Y-80632998D01*
X180460750Y-62699998D02*
X180460750Y-60032998D01*
X162467750Y-62432998D02*
X162467750Y-62832998D01*
X162467750Y-108232998D02*
X162467750Y-108632998D01*
X162467750Y-85332998D02*
X162467750Y-85732998D01*
X176667750Y-111032998D02*
X183467750Y-111032998D01*
X162467750Y-95532998D02*
X162467750Y-95932998D01*
X183467750Y-65032998D02*
X183467750Y-65432998D01*
X183467750Y-62432998D02*
X183467750Y-62832998D01*
X162467750Y-90432998D02*
X162467750Y-90832998D01*
%TD*%
%LPC*%
D10*
X193728690Y-125013478D02*
X193728690Y-122981478D01*
X193728690Y-123949097D02*
X192567547Y-123949097D01*
X192567547Y-125013478D02*
X192567547Y-122981478D01*
X190729071Y-125013478D02*
X190729071Y-123949097D01*
X190825833Y-123755573D01*
X191019357Y-123658811D01*
X191406404Y-123658811D01*
X191599928Y-123755573D01*
X190729071Y-124916716D02*
X190922595Y-125013478D01*
X191406404Y-125013478D01*
X191599928Y-124916716D01*
X191696690Y-124723192D01*
X191696690Y-124529668D01*
X191599928Y-124336144D01*
X191406404Y-124239382D01*
X190922595Y-124239382D01*
X190729071Y-124142620D01*
X189761452Y-123658811D02*
X189761452Y-125013478D01*
X189761452Y-123852335D02*
X189664690Y-123755573D01*
X189471166Y-123658811D01*
X189180880Y-123658811D01*
X188987357Y-123755573D01*
X188890595Y-123949097D01*
X188890595Y-125013478D01*
X187052119Y-125013478D02*
X187052119Y-122981478D01*
X187052119Y-124916716D02*
X187245642Y-125013478D01*
X187632690Y-125013478D01*
X187826214Y-124916716D01*
X187922976Y-124819954D01*
X188019738Y-124626430D01*
X188019738Y-124045859D01*
X187922976Y-123852335D01*
X187826214Y-123755573D01*
X187632690Y-123658811D01*
X187245642Y-123658811D01*
X187052119Y-123755573D01*
X186084500Y-125013478D02*
X186084500Y-122981478D01*
X185310404Y-122981478D01*
X185116880Y-123078240D01*
X185020119Y-123175001D01*
X184923357Y-123368525D01*
X184923357Y-123658811D01*
X185020119Y-123852335D01*
X185116880Y-123949097D01*
X185310404Y-124045859D01*
X186084500Y-124045859D01*
X183181642Y-123658811D02*
X183181642Y-125013478D01*
X184052500Y-123658811D02*
X184052500Y-124723192D01*
X183955738Y-124916716D01*
X183762214Y-125013478D01*
X183471928Y-125013478D01*
X183278404Y-124916716D01*
X183181642Y-124819954D01*
X182214023Y-125013478D02*
X182214023Y-123658811D01*
X182214023Y-123852335D02*
X182117261Y-123755573D01*
X181923738Y-123658811D01*
X181633452Y-123658811D01*
X181439928Y-123755573D01*
X181343166Y-123949097D01*
X181343166Y-125013478D01*
X181343166Y-123949097D02*
X181246404Y-123755573D01*
X181052880Y-123658811D01*
X180762595Y-123658811D01*
X180569071Y-123755573D01*
X180472309Y-123949097D01*
X180472309Y-125013478D01*
X179504690Y-123658811D02*
X179504690Y-125690811D01*
X179504690Y-123755573D02*
X179311166Y-123658811D01*
X178924119Y-123658811D01*
X178730595Y-123755573D01*
X178633833Y-123852335D01*
X178537071Y-124045859D01*
X178537071Y-124626430D01*
X178633833Y-124819954D01*
X178730595Y-124916716D01*
X178924119Y-125013478D01*
X179311166Y-125013478D01*
X179504690Y-124916716D01*
X176118023Y-125013478D02*
X176118023Y-122981478D01*
X175343928Y-122981478D01*
X175150404Y-123078240D01*
X175053642Y-123175001D01*
X174956880Y-123368525D01*
X174956880Y-123658811D01*
X175053642Y-123852335D01*
X175150404Y-123949097D01*
X175343928Y-124045859D01*
X176118023Y-124045859D01*
X172924880Y-124819954D02*
X173021642Y-124916716D01*
X173311928Y-125013478D01*
X173505452Y-125013478D01*
X173795738Y-124916716D01*
X173989261Y-124723192D01*
X174086023Y-124529668D01*
X174182785Y-124142620D01*
X174182785Y-123852335D01*
X174086023Y-123465287D01*
X173989261Y-123271763D01*
X173795738Y-123078240D01*
X173505452Y-122981478D01*
X173311928Y-122981478D01*
X173021642Y-123078240D01*
X172924880Y-123175001D01*
X171376690Y-123949097D02*
X171086404Y-124045859D01*
X170989642Y-124142620D01*
X170892880Y-124336144D01*
X170892880Y-124626430D01*
X170989642Y-124819954D01*
X171086404Y-124916716D01*
X171279928Y-125013478D01*
X172054023Y-125013478D01*
X172054023Y-122981478D01*
X171376690Y-122981478D01*
X171183166Y-123078240D01*
X171086404Y-123175001D01*
X170989642Y-123368525D01*
X170989642Y-123562049D01*
X171086404Y-123755573D01*
X171183166Y-123852335D01*
X171376690Y-123949097D01*
X172054023Y-123949097D01*
X167312690Y-125013478D02*
X167990023Y-124045859D01*
X168473833Y-125013478D02*
X168473833Y-122981478D01*
X167699738Y-122981478D01*
X167506214Y-123078240D01*
X167409452Y-123175001D01*
X167312690Y-123368525D01*
X167312690Y-123658811D01*
X167409452Y-123852335D01*
X167506214Y-123949097D01*
X167699738Y-124045859D01*
X168473833Y-124045859D01*
X165667738Y-124916716D02*
X165861261Y-125013478D01*
X166248309Y-125013478D01*
X166441833Y-124916716D01*
X166538595Y-124723192D01*
X166538595Y-123949097D01*
X166441833Y-123755573D01*
X166248309Y-123658811D01*
X165861261Y-123658811D01*
X165667738Y-123755573D01*
X165570976Y-123949097D01*
X165570976Y-124142620D01*
X166538595Y-124336144D01*
X164893642Y-123658811D02*
X164409833Y-125013478D01*
X163926023Y-123658811D01*
X163151928Y-124819954D02*
X163055166Y-124916716D01*
X163151928Y-125013478D01*
X163248690Y-124916716D01*
X163151928Y-124819954D01*
X163151928Y-125013478D01*
X160732880Y-123175001D02*
X160636119Y-123078240D01*
X160442595Y-122981478D01*
X159958785Y-122981478D01*
X159765261Y-123078240D01*
X159668500Y-123175001D01*
X159571738Y-123368525D01*
X159571738Y-123562049D01*
X159668500Y-123852335D01*
X160829642Y-125013478D01*
X159571738Y-125013478D01*
X193728690Y-128284998D02*
X193728690Y-126252998D01*
X192857833Y-128284998D02*
X192857833Y-127220617D01*
X192954595Y-127027093D01*
X193148119Y-126930331D01*
X193438404Y-126930331D01*
X193631928Y-127027093D01*
X193728690Y-127123855D01*
X192180500Y-126930331D02*
X191406404Y-126930331D01*
X191890214Y-126252998D02*
X191890214Y-127994712D01*
X191793452Y-128188236D01*
X191599928Y-128284998D01*
X191406404Y-128284998D01*
X191019357Y-126930331D02*
X190245261Y-126930331D01*
X190729071Y-126252998D02*
X190729071Y-127994712D01*
X190632309Y-128188236D01*
X190438785Y-128284998D01*
X190245261Y-128284998D01*
X189567928Y-126930331D02*
X189567928Y-128962331D01*
X189567928Y-127027093D02*
X189374404Y-126930331D01*
X188987357Y-126930331D01*
X188793833Y-127027093D01*
X188697071Y-127123855D01*
X188600309Y-127317379D01*
X188600309Y-127897950D01*
X188697071Y-128091474D01*
X188793833Y-128188236D01*
X188987357Y-128284998D01*
X189374404Y-128284998D01*
X189567928Y-128188236D01*
X187826214Y-128188236D02*
X187632690Y-128284998D01*
X187245642Y-128284998D01*
X187052119Y-128188236D01*
X186955357Y-127994712D01*
X186955357Y-127897950D01*
X187052119Y-127704426D01*
X187245642Y-127607664D01*
X187535928Y-127607664D01*
X187729452Y-127510902D01*
X187826214Y-127317379D01*
X187826214Y-127220617D01*
X187729452Y-127027093D01*
X187535928Y-126930331D01*
X187245642Y-126930331D01*
X187052119Y-127027093D01*
X186084500Y-128091474D02*
X185987738Y-128188236D01*
X186084500Y-128284998D01*
X186181261Y-128188236D01*
X186084500Y-128091474D01*
X186084500Y-128284998D01*
X186084500Y-127027093D02*
X185987738Y-127123855D01*
X186084500Y-127220617D01*
X186181261Y-127123855D01*
X186084500Y-127027093D01*
X186084500Y-127220617D01*
X183665452Y-126156236D02*
X185407166Y-128768807D01*
X181536690Y-126156236D02*
X183278404Y-128768807D01*
X179988500Y-126930331D02*
X179988500Y-128575283D01*
X180085261Y-128768807D01*
X180182023Y-128865569D01*
X180375547Y-128962331D01*
X180665833Y-128962331D01*
X180859357Y-128865569D01*
X179988500Y-128188236D02*
X180182023Y-128284998D01*
X180569071Y-128284998D01*
X180762595Y-128188236D01*
X180859357Y-128091474D01*
X180956119Y-127897950D01*
X180956119Y-127317379D01*
X180859357Y-127123855D01*
X180762595Y-127027093D01*
X180569071Y-126930331D01*
X180182023Y-126930331D01*
X179988500Y-127027093D01*
X179020880Y-128284998D02*
X179020880Y-126930331D01*
X179020880Y-126252998D02*
X179117642Y-126349760D01*
X179020880Y-126446521D01*
X178924119Y-126349760D01*
X179020880Y-126252998D01*
X179020880Y-126446521D01*
X178343547Y-126930331D02*
X177569452Y-126930331D01*
X178053261Y-126252998D02*
X178053261Y-127994712D01*
X177956500Y-128188236D01*
X177762976Y-128284998D01*
X177569452Y-128284998D01*
X176892119Y-128284998D02*
X176892119Y-126252998D01*
X176021261Y-128284998D02*
X176021261Y-127220617D01*
X176118023Y-127027093D01*
X176311547Y-126930331D01*
X176601833Y-126930331D01*
X176795357Y-127027093D01*
X176892119Y-127123855D01*
X174182785Y-126930331D02*
X174182785Y-128284998D01*
X175053642Y-126930331D02*
X175053642Y-127994712D01*
X174956880Y-128188236D01*
X174763357Y-128284998D01*
X174473071Y-128284998D01*
X174279547Y-128188236D01*
X174182785Y-128091474D01*
X173215166Y-128284998D02*
X173215166Y-126252998D01*
X173215166Y-127027093D02*
X173021642Y-126930331D01*
X172634595Y-126930331D01*
X172441071Y-127027093D01*
X172344309Y-127123855D01*
X172247547Y-127317379D01*
X172247547Y-127897950D01*
X172344309Y-128091474D01*
X172441071Y-128188236D01*
X172634595Y-128284998D01*
X173021642Y-128284998D01*
X173215166Y-128188236D01*
X171376690Y-128091474D02*
X171279928Y-128188236D01*
X171376690Y-128284998D01*
X171473452Y-128188236D01*
X171376690Y-128091474D01*
X171376690Y-128284998D01*
X169538214Y-128188236D02*
X169731738Y-128284998D01*
X170118785Y-128284998D01*
X170312309Y-128188236D01*
X170409071Y-128091474D01*
X170505833Y-127897950D01*
X170505833Y-127317379D01*
X170409071Y-127123855D01*
X170312309Y-127027093D01*
X170118785Y-126930331D01*
X169731738Y-126930331D01*
X169538214Y-127027093D01*
X168377071Y-128284998D02*
X168570595Y-128188236D01*
X168667357Y-128091474D01*
X168764119Y-127897950D01*
X168764119Y-127317379D01*
X168667357Y-127123855D01*
X168570595Y-127027093D01*
X168377071Y-126930331D01*
X168086785Y-126930331D01*
X167893261Y-127027093D01*
X167796500Y-127123855D01*
X167699738Y-127317379D01*
X167699738Y-127897950D01*
X167796500Y-128091474D01*
X167893261Y-128188236D01*
X168086785Y-128284998D01*
X168377071Y-128284998D01*
X166828880Y-128284998D02*
X166828880Y-126930331D01*
X166828880Y-127123855D02*
X166732119Y-127027093D01*
X166538595Y-126930331D01*
X166248309Y-126930331D01*
X166054785Y-127027093D01*
X165958023Y-127220617D01*
X165958023Y-128284998D01*
X165958023Y-127220617D02*
X165861261Y-127027093D01*
X165667738Y-126930331D01*
X165377452Y-126930331D01*
X165183928Y-127027093D01*
X165087166Y-127220617D01*
X165087166Y-128284998D01*
X162668119Y-126156236D02*
X164409833Y-128768807D01*
X161119928Y-128284998D02*
X161119928Y-126252998D01*
X161119928Y-128188236D02*
X161313452Y-128284998D01*
X161700500Y-128284998D01*
X161894023Y-128188236D01*
X161990785Y-128091474D01*
X162087547Y-127897950D01*
X162087547Y-127317379D01*
X161990785Y-127123855D01*
X161894023Y-127027093D01*
X161700500Y-126930331D01*
X161313452Y-126930331D01*
X161119928Y-127027093D01*
X160152309Y-126930331D02*
X160152309Y-128672045D01*
X160249071Y-128865569D01*
X160442595Y-128962331D01*
X160539357Y-128962331D01*
X160152309Y-126252998D02*
X160249071Y-126349760D01*
X160152309Y-126446521D01*
X160055547Y-126349760D01*
X160152309Y-126252998D01*
X160152309Y-126446521D01*
X158217071Y-126252998D02*
X159184690Y-126252998D01*
X159281452Y-127220617D01*
X159184690Y-127123855D01*
X158991166Y-127027093D01*
X158507357Y-127027093D01*
X158313833Y-127123855D01*
X158217071Y-127220617D01*
X158120309Y-127414140D01*
X158120309Y-127897950D01*
X158217071Y-128091474D01*
X158313833Y-128188236D01*
X158507357Y-128284998D01*
X158991166Y-128284998D01*
X159184690Y-128188236D01*
X159281452Y-128091474D01*
X156862404Y-126252998D02*
X156668880Y-126252998D01*
X156475357Y-126349760D01*
X156378595Y-126446521D01*
X156281833Y-126640045D01*
X156185071Y-127027093D01*
X156185071Y-127510902D01*
X156281833Y-127897950D01*
X156378595Y-128091474D01*
X156475357Y-128188236D01*
X156668880Y-128284998D01*
X156862404Y-128284998D01*
X157055928Y-128188236D01*
X157152690Y-128091474D01*
X157249452Y-127897950D01*
X157346214Y-127510902D01*
X157346214Y-127027093D01*
X157249452Y-126640045D01*
X157152690Y-126446521D01*
X157055928Y-126349760D01*
X156862404Y-126252998D01*
X154346595Y-126252998D02*
X155314214Y-126252998D01*
X155410976Y-127220617D01*
X155314214Y-127123855D01*
X155120690Y-127027093D01*
X154636880Y-127027093D01*
X154443357Y-127123855D01*
X154346595Y-127220617D01*
X154249833Y-127414140D01*
X154249833Y-127897950D01*
X154346595Y-128091474D01*
X154443357Y-128188236D01*
X154636880Y-128284998D01*
X155120690Y-128284998D01*
X155314214Y-128188236D01*
X155410976Y-128091474D01*
X151927547Y-126156236D02*
X153669261Y-128768807D01*
X151250214Y-128284998D02*
X151250214Y-126252998D01*
X150379357Y-128284998D02*
X150379357Y-127220617D01*
X150476119Y-127027093D01*
X150669642Y-126930331D01*
X150959928Y-126930331D01*
X151153452Y-127027093D01*
X151250214Y-127123855D01*
X148540880Y-128284998D02*
X148540880Y-127220617D01*
X148637642Y-127027093D01*
X148831166Y-126930331D01*
X149218214Y-126930331D01*
X149411738Y-127027093D01*
X148540880Y-128188236D02*
X148734404Y-128284998D01*
X149218214Y-128284998D01*
X149411738Y-128188236D01*
X149508500Y-127994712D01*
X149508500Y-127801188D01*
X149411738Y-127607664D01*
X149218214Y-127510902D01*
X148734404Y-127510902D01*
X148540880Y-127414140D01*
X147573261Y-126930331D02*
X147573261Y-128284998D01*
X147573261Y-127123855D02*
X147476500Y-127027093D01*
X147282976Y-126930331D01*
X146992690Y-126930331D01*
X146799166Y-127027093D01*
X146702404Y-127220617D01*
X146702404Y-128284998D01*
X144863928Y-128284998D02*
X144863928Y-126252998D01*
X144863928Y-128188236D02*
X145057452Y-128284998D01*
X145444500Y-128284998D01*
X145638023Y-128188236D01*
X145734785Y-128091474D01*
X145831547Y-127897950D01*
X145831547Y-127317379D01*
X145734785Y-127123855D01*
X145638023Y-127027093D01*
X145444500Y-126930331D01*
X145057452Y-126930331D01*
X144863928Y-127027093D01*
X143896309Y-126930331D02*
X143896309Y-128962331D01*
X143896309Y-127027093D02*
X143702785Y-126930331D01*
X143315738Y-126930331D01*
X143122214Y-127027093D01*
X143025452Y-127123855D01*
X142928690Y-127317379D01*
X142928690Y-127897950D01*
X143025452Y-128091474D01*
X143122214Y-128188236D01*
X143315738Y-128284998D01*
X143702785Y-128284998D01*
X143896309Y-128188236D01*
X141186976Y-126930331D02*
X141186976Y-128284998D01*
X142057833Y-126930331D02*
X142057833Y-127994712D01*
X141961071Y-128188236D01*
X141767547Y-128284998D01*
X141477261Y-128284998D01*
X141283738Y-128188236D01*
X141186976Y-128091474D01*
X140219357Y-128284998D02*
X140219357Y-126930331D01*
X140219357Y-127123855D02*
X140122595Y-127027093D01*
X139929071Y-126930331D01*
X139638785Y-126930331D01*
X139445261Y-127027093D01*
X139348500Y-127220617D01*
X139348500Y-128284998D01*
X139348500Y-127220617D02*
X139251738Y-127027093D01*
X139058214Y-126930331D01*
X138767928Y-126930331D01*
X138574404Y-127027093D01*
X138477642Y-127220617D01*
X138477642Y-128284998D01*
X137510023Y-126930331D02*
X137510023Y-128962331D01*
X137510023Y-127027093D02*
X137316500Y-126930331D01*
X136929452Y-126930331D01*
X136735928Y-127027093D01*
X136639166Y-127123855D01*
X136542404Y-127317379D01*
X136542404Y-127897950D01*
X136639166Y-128091474D01*
X136735928Y-128188236D01*
X136929452Y-128284998D01*
X137316500Y-128284998D01*
X137510023Y-128188236D01*
X147363690Y-62404761D02*
X147363690Y-62785714D01*
X146601785Y-62404761D02*
X146601785Y-62785714D01*
X145935119Y-62404761D02*
X145458928Y-64404761D01*
X145077976Y-62976190D01*
X144697023Y-64404761D01*
X144220833Y-62404761D01*
X143458928Y-64404761D02*
X143458928Y-62404761D01*
X142601785Y-64404761D02*
X142601785Y-63357142D01*
X142697023Y-63166666D01*
X142887500Y-63071428D01*
X143173214Y-63071428D01*
X143363690Y-63166666D01*
X143458928Y-63261904D01*
X141839880Y-63071428D02*
X141363690Y-64404761D01*
X140887500Y-63071428D02*
X141363690Y-64404761D01*
X141554166Y-64880952D01*
X141649404Y-64976190D01*
X141839880Y-65071428D01*
X138697023Y-64309523D02*
X138506547Y-64404761D01*
X138125595Y-64404761D01*
X137935119Y-64309523D01*
X137839880Y-64119047D01*
X137839880Y-64023809D01*
X137935119Y-63833333D01*
X138125595Y-63738095D01*
X138411309Y-63738095D01*
X138601785Y-63642857D01*
X138697023Y-63452380D01*
X138697023Y-63357142D01*
X138601785Y-63166666D01*
X138411309Y-63071428D01*
X138125595Y-63071428D01*
X137935119Y-63166666D01*
X136220833Y-64309523D02*
X136411309Y-64404761D01*
X136792261Y-64404761D01*
X136982738Y-64309523D01*
X137077976Y-64119047D01*
X137077976Y-63357142D01*
X136982738Y-63166666D01*
X136792261Y-63071428D01*
X136411309Y-63071428D01*
X136220833Y-63166666D01*
X136125595Y-63357142D01*
X136125595Y-63547619D01*
X137077976Y-63738095D01*
X135554166Y-63071428D02*
X134792261Y-63071428D01*
X135268452Y-62404761D02*
X135268452Y-64119047D01*
X135173214Y-64309523D01*
X134982738Y-64404761D01*
X134792261Y-64404761D01*
X134411309Y-63071428D02*
X133649404Y-63071428D01*
X134125595Y-62404761D02*
X134125595Y-64119047D01*
X134030357Y-64309523D01*
X133839880Y-64404761D01*
X133649404Y-64404761D01*
X132697023Y-64404761D02*
X132887500Y-64309523D01*
X132982738Y-64119047D01*
X132982738Y-62404761D01*
X131173214Y-64309523D02*
X131363690Y-64404761D01*
X131744642Y-64404761D01*
X131935119Y-64309523D01*
X132030357Y-64119047D01*
X132030357Y-63357142D01*
X131935119Y-63166666D01*
X131744642Y-63071428D01*
X131363690Y-63071428D01*
X131173214Y-63166666D01*
X131077976Y-63357142D01*
X131077976Y-63547619D01*
X132030357Y-63738095D01*
X128982738Y-63071428D02*
X128220833Y-63071428D01*
X128697023Y-64404761D02*
X128697023Y-62690476D01*
X128601785Y-62500000D01*
X128411309Y-62404761D01*
X128220833Y-62404761D01*
X127268452Y-64404761D02*
X127458928Y-64309523D01*
X127554166Y-64214285D01*
X127649404Y-64023809D01*
X127649404Y-63452380D01*
X127554166Y-63261904D01*
X127458928Y-63166666D01*
X127268452Y-63071428D01*
X126982738Y-63071428D01*
X126792261Y-63166666D01*
X126697023Y-63261904D01*
X126601785Y-63452380D01*
X126601785Y-64023809D01*
X126697023Y-64214285D01*
X126792261Y-64309523D01*
X126982738Y-64404761D01*
X127268452Y-64404761D01*
X125744642Y-64404761D02*
X125744642Y-63071428D01*
X125744642Y-63452380D02*
X125649404Y-63261904D01*
X125554166Y-63166666D01*
X125363690Y-63071428D01*
X125173214Y-63071428D01*
X122125595Y-63071428D02*
X122125595Y-64404761D01*
X122601785Y-62309523D02*
X123077976Y-63738095D01*
X121839880Y-63738095D01*
X119744642Y-63071428D02*
X119363690Y-64404761D01*
X118982738Y-63452380D01*
X118601785Y-64404761D01*
X118220833Y-63071428D01*
X117458928Y-64404761D02*
X117458928Y-62404761D01*
X116601785Y-64404761D02*
X116601785Y-63357142D01*
X116697023Y-63166666D01*
X116887500Y-63071428D01*
X117173214Y-63071428D01*
X117363690Y-63166666D01*
X117458928Y-63261904D01*
X114887500Y-64309523D02*
X115077976Y-64404761D01*
X115458928Y-64404761D01*
X115649404Y-64309523D01*
X115744642Y-64119047D01*
X115744642Y-63357142D01*
X115649404Y-63166666D01*
X115458928Y-63071428D01*
X115077976Y-63071428D01*
X114887500Y-63166666D01*
X114792261Y-63357142D01*
X114792261Y-63547619D01*
X115744642Y-63738095D01*
X113935119Y-63071428D02*
X113935119Y-64404761D01*
X113935119Y-63261904D02*
X113839880Y-63166666D01*
X113649404Y-63071428D01*
X113363690Y-63071428D01*
X113173214Y-63166666D01*
X113077976Y-63357142D01*
X113077976Y-64404761D01*
X110792261Y-63071428D02*
X110316071Y-64404761D01*
X109839880Y-63071428D02*
X110316071Y-64404761D01*
X110506547Y-64880952D01*
X110601785Y-64976190D01*
X110792261Y-65071428D01*
X108792261Y-64404761D02*
X108982738Y-64309523D01*
X109077976Y-64214285D01*
X109173214Y-64023809D01*
X109173214Y-63452380D01*
X109077976Y-63261904D01*
X108982738Y-63166666D01*
X108792261Y-63071428D01*
X108506547Y-63071428D01*
X108316071Y-63166666D01*
X108220833Y-63261904D01*
X108125595Y-63452380D01*
X108125595Y-64023809D01*
X108220833Y-64214285D01*
X108316071Y-64309523D01*
X108506547Y-64404761D01*
X108792261Y-64404761D01*
X106411309Y-63071428D02*
X106411309Y-64404761D01*
X107268452Y-63071428D02*
X107268452Y-64119047D01*
X107173214Y-64309523D01*
X106982738Y-64404761D01*
X106697023Y-64404761D01*
X106506547Y-64309523D01*
X106411309Y-64214285D01*
X103077976Y-64309523D02*
X103268452Y-64404761D01*
X103649404Y-64404761D01*
X103839880Y-64309523D01*
X103935119Y-64214285D01*
X104030357Y-64023809D01*
X104030357Y-63452380D01*
X103935119Y-63261904D01*
X103839880Y-63166666D01*
X103649404Y-63071428D01*
X103268452Y-63071428D01*
X103077976Y-63166666D01*
X101363690Y-64404761D02*
X101363690Y-63357142D01*
X101458928Y-63166666D01*
X101649404Y-63071428D01*
X102030357Y-63071428D01*
X102220833Y-63166666D01*
X101363690Y-64309523D02*
X101554166Y-64404761D01*
X102030357Y-64404761D01*
X102220833Y-64309523D01*
X102316071Y-64119047D01*
X102316071Y-63928571D01*
X102220833Y-63738095D01*
X102030357Y-63642857D01*
X101554166Y-63642857D01*
X101363690Y-63547619D01*
X100411309Y-63071428D02*
X100411309Y-64404761D01*
X100411309Y-63261904D02*
X100316071Y-63166666D01*
X100125595Y-63071428D01*
X99839880Y-63071428D01*
X99649404Y-63166666D01*
X99554166Y-63357142D01*
X99554166Y-64404761D01*
X97077976Y-64404761D02*
X97077976Y-62404761D01*
X96220833Y-64404761D02*
X96220833Y-63357142D01*
X96316071Y-63166666D01*
X96506547Y-63071428D01*
X96792261Y-63071428D01*
X96982738Y-63166666D01*
X97077976Y-63261904D01*
X94411309Y-64404761D02*
X94411309Y-63357142D01*
X94506547Y-63166666D01*
X94697023Y-63071428D01*
X95077976Y-63071428D01*
X95268452Y-63166666D01*
X94411309Y-64309523D02*
X94601785Y-64404761D01*
X95077976Y-64404761D01*
X95268452Y-64309523D01*
X95363690Y-64119047D01*
X95363690Y-63928571D01*
X95268452Y-63738095D01*
X95077976Y-63642857D01*
X94601785Y-63642857D01*
X94411309Y-63547619D01*
X93649404Y-63071428D02*
X93173214Y-64404761D01*
X92697023Y-63071428D01*
X91173214Y-64309523D02*
X91363690Y-64404761D01*
X91744642Y-64404761D01*
X91935119Y-64309523D01*
X92030357Y-64119047D01*
X92030357Y-63357142D01*
X91935119Y-63166666D01*
X91744642Y-63071428D01*
X91363690Y-63071428D01*
X91173214Y-63166666D01*
X91077976Y-63357142D01*
X91077976Y-63547619D01*
X92030357Y-63738095D01*
X87744642Y-62404761D02*
X88697023Y-62404761D01*
X88792261Y-63357142D01*
X88697023Y-63261904D01*
X88506547Y-63166666D01*
X88030357Y-63166666D01*
X87839880Y-63261904D01*
X87744642Y-63357142D01*
X87649404Y-63547619D01*
X87649404Y-64023809D01*
X87744642Y-64214285D01*
X87839880Y-64309523D01*
X88030357Y-64404761D01*
X88506547Y-64404761D01*
X88697023Y-64309523D01*
X88792261Y-64214285D01*
X86506547Y-64214285D02*
X86411309Y-64309523D01*
X86506547Y-64404761D01*
X86601785Y-64309523D01*
X86506547Y-64214285D01*
X86506547Y-64404761D01*
X86887500Y-62500000D02*
X86697023Y-62404761D01*
X86220833Y-62404761D01*
X86030357Y-62500000D01*
X85935119Y-62690476D01*
X85935119Y-62880952D01*
X86030357Y-63071428D01*
X86125595Y-63166666D01*
X86316071Y-63261904D01*
X86411309Y-63357142D01*
X86506547Y-63547619D01*
X86506547Y-63642857D01*
X85173214Y-62404761D02*
X85173214Y-62785714D01*
X84411309Y-62404761D02*
X84411309Y-62785714D01*
X137557440Y-57246130D02*
X136986011Y-57246130D01*
X137271726Y-57246130D02*
X137271726Y-56246130D01*
X137176488Y-56388988D01*
X137081250Y-56484226D01*
X136986011Y-56531845D01*
X137938392Y-56341369D02*
X137986011Y-56293750D01*
X138081250Y-56246130D01*
X138319345Y-56246130D01*
X138414583Y-56293750D01*
X138462202Y-56341369D01*
X138509821Y-56436607D01*
X138509821Y-56531845D01*
X138462202Y-56674702D01*
X137890773Y-57246130D01*
X138509821Y-57246130D01*
X139128869Y-56246130D02*
X139224107Y-56246130D01*
X139319345Y-56293750D01*
X139366964Y-56341369D01*
X139414583Y-56436607D01*
X139462202Y-56627083D01*
X139462202Y-56865178D01*
X139414583Y-57055654D01*
X139366964Y-57150892D01*
X139319345Y-57198511D01*
X139224107Y-57246130D01*
X139128869Y-57246130D01*
X139033630Y-57198511D01*
X138986011Y-57150892D01*
X138938392Y-57055654D01*
X138890773Y-56865178D01*
X138890773Y-56627083D01*
X138938392Y-56436607D01*
X138986011Y-56341369D01*
X139033630Y-56293750D01*
X139128869Y-56246130D01*
X139890773Y-57150892D02*
X139938392Y-57198511D01*
X139890773Y-57246130D01*
X139843154Y-57198511D01*
X139890773Y-57150892D01*
X139890773Y-57246130D01*
X140795535Y-56246130D02*
X140605059Y-56246130D01*
X140509821Y-56293750D01*
X140462202Y-56341369D01*
X140366964Y-56484226D01*
X140319345Y-56674702D01*
X140319345Y-57055654D01*
X140366964Y-57150892D01*
X140414583Y-57198511D01*
X140509821Y-57246130D01*
X140700297Y-57246130D01*
X140795535Y-57198511D01*
X140843154Y-57150892D01*
X140890773Y-57055654D01*
X140890773Y-56817559D01*
X140843154Y-56722321D01*
X140795535Y-56674702D01*
X140700297Y-56627083D01*
X140509821Y-56627083D01*
X140414583Y-56674702D01*
X140366964Y-56722321D01*
X140319345Y-56817559D01*
X141795535Y-56246130D02*
X141319345Y-56246130D01*
X141271726Y-56722321D01*
X141319345Y-56674702D01*
X141414583Y-56627083D01*
X141652678Y-56627083D01*
X141747916Y-56674702D01*
X141795535Y-56722321D01*
X141843154Y-56817559D01*
X141843154Y-57055654D01*
X141795535Y-57150892D01*
X141747916Y-57198511D01*
X141652678Y-57246130D01*
X141414583Y-57246130D01*
X141319345Y-57198511D01*
X141271726Y-57150892D01*
X142462202Y-56246130D02*
X142557440Y-56246130D01*
X142652678Y-56293750D01*
X142700297Y-56341369D01*
X142747916Y-56436607D01*
X142795535Y-56627083D01*
X142795535Y-56865178D01*
X142747916Y-57055654D01*
X142700297Y-57150892D01*
X142652678Y-57198511D01*
X142557440Y-57246130D01*
X142462202Y-57246130D01*
X142366964Y-57198511D01*
X142319345Y-57150892D01*
X142271726Y-57055654D01*
X142224107Y-56865178D01*
X142224107Y-56627083D01*
X142271726Y-56436607D01*
X142319345Y-56341369D01*
X142366964Y-56293750D01*
X142462202Y-56246130D01*
X143414583Y-56246130D02*
X143509821Y-56246130D01*
X143605059Y-56293750D01*
X143652678Y-56341369D01*
X143700297Y-56436607D01*
X143747916Y-56627083D01*
X143747916Y-56865178D01*
X143700297Y-57055654D01*
X143652678Y-57150892D01*
X143605059Y-57198511D01*
X143509821Y-57246130D01*
X143414583Y-57246130D01*
X143319345Y-57198511D01*
X143271726Y-57150892D01*
X143224107Y-57055654D01*
X143176488Y-56865178D01*
X143176488Y-56627083D01*
X143224107Y-56436607D01*
X143271726Y-56341369D01*
X143319345Y-56293750D01*
X143414583Y-56246130D01*
X144938392Y-57246130D02*
X144938392Y-56579464D01*
X144938392Y-56674702D02*
X144986011Y-56627083D01*
X145081250Y-56579464D01*
X145224107Y-56579464D01*
X145319345Y-56627083D01*
X145366964Y-56722321D01*
X145366964Y-57246130D01*
X145366964Y-56722321D02*
X145414583Y-56627083D01*
X145509821Y-56579464D01*
X145652678Y-56579464D01*
X145747916Y-56627083D01*
X145795535Y-56722321D01*
X145795535Y-57246130D01*
X146271726Y-57246130D02*
X146271726Y-56579464D01*
X146271726Y-56674702D02*
X146319345Y-56627083D01*
X146414583Y-56579464D01*
X146557440Y-56579464D01*
X146652678Y-56627083D01*
X146700297Y-56722321D01*
X146700297Y-57246130D01*
X146700297Y-56722321D02*
X146747916Y-56627083D01*
X146843154Y-56579464D01*
X146986011Y-56579464D01*
X147081250Y-56627083D01*
X147128869Y-56722321D01*
X147128869Y-57246130D01*
X202406250Y-59031250D02*
X202406250Y-57357330D01*
X81756250Y-59031250D02*
X81756250Y-57357330D01*
X202406250Y-57943750D02*
X81756250Y-57943750D01*
X202406250Y-57943750D02*
X81756250Y-57943750D01*
X202406250Y-57943750D02*
X201279746Y-57357329D01*
X202406250Y-57943750D02*
X201279746Y-58530171D01*
X81756250Y-57943750D02*
X82882754Y-58530171D01*
X81756250Y-57943750D02*
X82882754Y-57357329D01*
X78471130Y-99519791D02*
X78471130Y-98853125D01*
X79471130Y-99281696D01*
X78471130Y-98281696D02*
X78471130Y-98186458D01*
X78518750Y-98091220D01*
X78566369Y-98043601D01*
X78661607Y-97995982D01*
X78852083Y-97948363D01*
X79090178Y-97948363D01*
X79280654Y-97995982D01*
X79375892Y-98043601D01*
X79423511Y-98091220D01*
X79471130Y-98186458D01*
X79471130Y-98281696D01*
X79423511Y-98376934D01*
X79375892Y-98424553D01*
X79280654Y-98472172D01*
X79090178Y-98519791D01*
X78852083Y-98519791D01*
X78661607Y-98472172D01*
X78566369Y-98424553D01*
X78518750Y-98376934D01*
X78471130Y-98281696D01*
X79375892Y-97519791D02*
X79423511Y-97472172D01*
X79471130Y-97519791D01*
X79423511Y-97567410D01*
X79375892Y-97519791D01*
X79471130Y-97519791D01*
X78471130Y-96615029D02*
X78471130Y-96805505D01*
X78518750Y-96900744D01*
X78566369Y-96948363D01*
X78709226Y-97043601D01*
X78899702Y-97091220D01*
X79280654Y-97091220D01*
X79375892Y-97043601D01*
X79423511Y-96995982D01*
X79471130Y-96900744D01*
X79471130Y-96710267D01*
X79423511Y-96615029D01*
X79375892Y-96567410D01*
X79280654Y-96519791D01*
X79042559Y-96519791D01*
X78947321Y-96567410D01*
X78899702Y-96615029D01*
X78852083Y-96710267D01*
X78852083Y-96900744D01*
X78899702Y-96995982D01*
X78947321Y-97043601D01*
X79042559Y-97091220D01*
X78804464Y-95662648D02*
X79471130Y-95662648D01*
X78423511Y-95900744D02*
X79137797Y-96138839D01*
X79137797Y-95519791D01*
X78471130Y-95234077D02*
X78471130Y-94615029D01*
X78852083Y-94948363D01*
X78852083Y-94805505D01*
X78899702Y-94710267D01*
X78947321Y-94662648D01*
X79042559Y-94615029D01*
X79280654Y-94615029D01*
X79375892Y-94662648D01*
X79423511Y-94710267D01*
X79471130Y-94805505D01*
X79471130Y-95091220D01*
X79423511Y-95186458D01*
X79375892Y-95234077D01*
X78471130Y-94281696D02*
X78471130Y-93615029D01*
X79471130Y-94043601D01*
X79471130Y-92472172D02*
X78804464Y-92472172D01*
X78899702Y-92472172D02*
X78852083Y-92424553D01*
X78804464Y-92329315D01*
X78804464Y-92186458D01*
X78852083Y-92091220D01*
X78947321Y-92043601D01*
X79471130Y-92043601D01*
X78947321Y-92043601D02*
X78852083Y-91995982D01*
X78804464Y-91900744D01*
X78804464Y-91757886D01*
X78852083Y-91662648D01*
X78947321Y-91615029D01*
X79471130Y-91615029D01*
X79471130Y-91138839D02*
X78804464Y-91138839D01*
X78899702Y-91138839D02*
X78852083Y-91091220D01*
X78804464Y-90995982D01*
X78804464Y-90853125D01*
X78852083Y-90757886D01*
X78947321Y-90710267D01*
X79471130Y-90710267D01*
X78947321Y-90710267D02*
X78852083Y-90662648D01*
X78804464Y-90567410D01*
X78804464Y-90424553D01*
X78852083Y-90329315D01*
X78947321Y-90281696D01*
X79471130Y-90281696D01*
X81256250Y-59531250D02*
X79582330Y-59531250D01*
X81256250Y-130175000D02*
X79582330Y-130175000D01*
X80168750Y-59531250D02*
X80168750Y-130175000D01*
X80168750Y-59531250D02*
X80168750Y-130175000D01*
X80168750Y-59531250D02*
X79582329Y-60657754D01*
X80168750Y-59531250D02*
X80755171Y-60657754D01*
X80168750Y-130175000D02*
X80755171Y-129048496D01*
X80168750Y-130175000D02*
X79582329Y-129048496D01*
D12*
%TO.C,MX10*%
X187007500Y-114300000D03*
D13*
X192087500Y-114300000D03*
D12*
X197167500Y-114300000D03*
D14*
X188277500Y-111760000D03*
X194627500Y-109220000D03*
D15*
X190817500Y-119380000D03*
D16*
X193357500Y-119380000D03*
%TD*%
D12*
%TO.C,MX1*%
X86925250Y-114300000D03*
D13*
X92005250Y-114300000D03*
D12*
X97085250Y-114300000D03*
D14*
X88195250Y-111760000D03*
X94545250Y-109220000D03*
D15*
X90735250Y-119380000D03*
D16*
X93275250Y-119380000D03*
%TD*%
D12*
%TO.C,MX3*%
X105975250Y-95250000D03*
D13*
X111055250Y-95250000D03*
D12*
X116135250Y-95250000D03*
D14*
X107245250Y-92710000D03*
X113595250Y-90170000D03*
D15*
X109785250Y-100330000D03*
D16*
X112325250Y-100330000D03*
%TD*%
D12*
%TO.C,MX6*%
X148907500Y-76200000D03*
D13*
X153987500Y-76200000D03*
D12*
X159067500Y-76200000D03*
D14*
X150177500Y-73660000D03*
X156527500Y-71120000D03*
D15*
X152717500Y-81280000D03*
D16*
X155257500Y-81280000D03*
%TD*%
D17*
%TO.C,REF\u002A\u002A*%
X94456250Y-95250000D03*
D18*
X91916250Y-95250000D03*
X89376250Y-95250000D03*
%TD*%
D12*
%TO.C,MX8*%
X167957500Y-95250000D03*
D13*
X173037500Y-95250000D03*
D12*
X178117500Y-95250000D03*
D14*
X169227500Y-92710000D03*
X175577500Y-90170000D03*
D15*
X171767500Y-100330000D03*
D16*
X174307500Y-100330000D03*
%TD*%
D12*
%TO.C,MX5*%
X125095000Y-114300000D03*
D13*
X130175000Y-114300000D03*
D12*
X135255000Y-114300000D03*
D14*
X126365000Y-111760000D03*
X132715000Y-109220000D03*
D15*
X128905000Y-119380000D03*
D16*
X131445000Y-119380000D03*
%TD*%
D12*
%TO.C,MX2*%
X86925250Y-76200000D03*
D13*
X92005250Y-76200000D03*
D12*
X97085250Y-76200000D03*
D14*
X88195250Y-73660000D03*
X94545250Y-71120000D03*
D15*
X90735250Y-81280000D03*
D16*
X93275250Y-81280000D03*
%TD*%
D12*
%TO.C,MX7*%
X148907500Y-114300000D03*
D13*
X153987500Y-114300000D03*
D12*
X159067500Y-114300000D03*
D14*
X150177500Y-111760000D03*
X156527500Y-109220000D03*
D15*
X152717500Y-119380000D03*
D16*
X155257500Y-119380000D03*
%TD*%
D12*
%TO.C,MX4*%
X125025250Y-76200000D03*
D13*
X130105250Y-76200000D03*
D12*
X135185250Y-76200000D03*
D14*
X126295250Y-73660000D03*
X132645250Y-71120000D03*
D15*
X128835250Y-81280000D03*
D16*
X131375250Y-81280000D03*
%TD*%
D12*
%TO.C,MX9*%
X187007500Y-76200000D03*
D13*
X192087500Y-76200000D03*
D12*
X197167500Y-76200000D03*
D14*
X188277500Y-73660000D03*
X194627500Y-71120000D03*
D15*
X190817500Y-81280000D03*
D16*
X193357500Y-81280000D03*
%TD*%
D19*
%TO.C,U1*%
X170427750Y-110332998D03*
D18*
X170427750Y-109432998D03*
D19*
X172967750Y-110332998D03*
D17*
X172967750Y-109432998D03*
D18*
X175507750Y-109432998D03*
D19*
X175507750Y-110332998D03*
D20*
X163177750Y-61402998D03*
D18*
X164077750Y-61402998D03*
X164077750Y-63942998D03*
D20*
X163177750Y-63942998D03*
D17*
X164077750Y-66482998D03*
D20*
X163177750Y-66482998D03*
D18*
X164077750Y-69022998D03*
D20*
X163177750Y-69022998D03*
X163177750Y-71562998D03*
D18*
X164077750Y-71562998D03*
X164077750Y-74102998D03*
D20*
X163177750Y-74102998D03*
D18*
X164077750Y-76642998D03*
D20*
X163177750Y-76642998D03*
D17*
X164077750Y-79182998D03*
D20*
X163177750Y-79182998D03*
X163177750Y-81722998D03*
D18*
X164077750Y-81722998D03*
D20*
X163177750Y-84262998D03*
D18*
X164077750Y-84262998D03*
X164077750Y-86802998D03*
D20*
X163177750Y-86802998D03*
X163177750Y-89342998D03*
D18*
X164077750Y-89342998D03*
D20*
X163177750Y-91882998D03*
D17*
X164077750Y-91882998D03*
D20*
X163177750Y-94422998D03*
D18*
X164077750Y-94422998D03*
X164077750Y-96962998D03*
D20*
X163177750Y-96962998D03*
D18*
X164077750Y-99502998D03*
D20*
X163177750Y-99502998D03*
X163177750Y-102042998D03*
D18*
X164077750Y-102042998D03*
D17*
X164077750Y-104582998D03*
D20*
X163177750Y-104582998D03*
D18*
X164077750Y-107122998D03*
D20*
X163177750Y-107122998D03*
D18*
X164077750Y-109662998D03*
D20*
X163177750Y-109662998D03*
D18*
X181857750Y-109662998D03*
D20*
X182757750Y-109662998D03*
X182757750Y-107122998D03*
D18*
X181857750Y-107122998D03*
D17*
X181857750Y-104582998D03*
D20*
X182757750Y-104582998D03*
D18*
X181857750Y-102042998D03*
D20*
X182757750Y-102042998D03*
D18*
X181857750Y-99502998D03*
D20*
X182757750Y-99502998D03*
X182757750Y-96962998D03*
D18*
X181857750Y-96962998D03*
X181857750Y-94422998D03*
D20*
X182757750Y-94422998D03*
X182757750Y-91882998D03*
D17*
X181857750Y-91882998D03*
D20*
X182757750Y-89342998D03*
D18*
X181857750Y-89342998D03*
X181857750Y-86802998D03*
D20*
X182757750Y-86802998D03*
X182757750Y-84262998D03*
D18*
X181857750Y-84262998D03*
X181857750Y-81722998D03*
D20*
X182757750Y-81722998D03*
X182757750Y-79182998D03*
D17*
X181857750Y-79182998D03*
D18*
X181857750Y-76642998D03*
D20*
X182757750Y-76642998D03*
X182757750Y-74102998D03*
D18*
X181857750Y-74102998D03*
D20*
X182757750Y-71562998D03*
D18*
X181857750Y-71562998D03*
D20*
X182757750Y-69022998D03*
D18*
X181857750Y-69022998D03*
D17*
X181857750Y-66482998D03*
D20*
X182757750Y-66482998D03*
X182757750Y-63942998D03*
D18*
X181857750Y-63942998D03*
D20*
X182757750Y-61402998D03*
D18*
X181857750Y-61402998D03*
D21*
X170542750Y-64562998D03*
X175392750Y-64562998D03*
D22*
X175692750Y-61532998D03*
X170242750Y-61532998D03*
%TD*%
M02*
