%TF.GenerationSoftware,KiCad,Pcbnew,(6.0.8)*%
%TF.CreationDate,2023-02-07T02:18:26-07:00*%
%TF.ProjectId,pcb,7063622e-6b69-4636-9164-5f7063625858,rev?*%
%TF.SameCoordinates,Original*%
%TF.FileFunction,Drillmap*%
%TF.FilePolarity,Positive*%
%FSLAX45Y45*%
G04 Gerber Fmt 4.5, Leading zero omitted, Abs format (unit mm)*
G04 Created by KiCad (PCBNEW (6.0.8)) date 2023-02-07 02:18:26*
%MOMM*%
%LPD*%
G01*
G04 APERTURE LIST*
%ADD10C,0.100000*%
%ADD11C,0.200000*%
%ADD12C,0.080000*%
%ADD13C,0.170000*%
%ADD14C,0.175000*%
%ADD15C,0.398780*%
G04 APERTURE END LIST*
D10*
X8413750Y-5953125D02*
X20002500Y-5953125D01*
X8175625Y-12779375D02*
X8175625Y-6191250D01*
X8413750Y-5953125D02*
G75*
G03*
X8175625Y-6191250I0J-238125D01*
G01*
X20240625Y-6191250D02*
G75*
G03*
X20002500Y-5953125I-238125J0D01*
G01*
X20002500Y-13017500D02*
X8413750Y-13017500D01*
X8175620Y-12779375D02*
G75*
G03*
X8413750Y-13017500I238130J5D01*
G01*
X20240625Y-6191250D02*
X20240625Y-12779375D01*
X20002500Y-13017495D02*
G75*
G03*
X20240625Y-12779375I0J238125D01*
G01*
D11*
D12*
X8638525Y-8000000D02*
X8718525Y-8080000D01*
X8718525Y-8000000D02*
X8638525Y-8080000D01*
X8638525Y-11810000D02*
X8718525Y-11890000D01*
X8718525Y-11810000D02*
X8638525Y-11890000D01*
X10543525Y-9905000D02*
X10623525Y-9985000D01*
X10623525Y-9905000D02*
X10543525Y-9985000D01*
X12448525Y-8000000D02*
X12528525Y-8080000D01*
X12528525Y-8000000D02*
X12448525Y-8080000D01*
X12455500Y-11810000D02*
X12535500Y-11890000D01*
X12535500Y-11810000D02*
X12455500Y-11890000D01*
X14836750Y-8000000D02*
X14916750Y-8080000D01*
X14916750Y-8000000D02*
X14836750Y-8080000D01*
X14836750Y-11810000D02*
X14916750Y-11890000D01*
X14916750Y-11810000D02*
X14836750Y-11890000D01*
X16741750Y-9905000D02*
X16821750Y-9985000D01*
X16821750Y-9905000D02*
X16741750Y-9985000D01*
X18646750Y-8000000D02*
X18726750Y-8080000D01*
X18726750Y-8000000D02*
X18646750Y-8080000D01*
X18646750Y-11810000D02*
X18726750Y-11890000D01*
X18726750Y-11810000D02*
X18646750Y-11890000D01*
D13*
X8735525Y-7620000D02*
G75*
G03*
X8735525Y-7620000I-85000J0D01*
G01*
X8735525Y-11430000D02*
G75*
G03*
X8735525Y-11430000I-85000J0D01*
G01*
X9835525Y-7620000D02*
G75*
G03*
X9835525Y-7620000I-85000J0D01*
G01*
X9835525Y-11430000D02*
G75*
G03*
X9835525Y-11430000I-85000J0D01*
G01*
X10640525Y-9525000D02*
G75*
G03*
X10640525Y-9525000I-85000J0D01*
G01*
X11740525Y-9525000D02*
G75*
G03*
X11740525Y-9525000I-85000J0D01*
G01*
X12545525Y-7620000D02*
G75*
G03*
X12545525Y-7620000I-85000J0D01*
G01*
X12552500Y-11430000D02*
G75*
G03*
X12552500Y-11430000I-85000J0D01*
G01*
X13645525Y-7620000D02*
G75*
G03*
X13645525Y-7620000I-85000J0D01*
G01*
X13652500Y-11430000D02*
G75*
G03*
X13652500Y-11430000I-85000J0D01*
G01*
X14933750Y-7620000D02*
G75*
G03*
X14933750Y-7620000I-85000J0D01*
G01*
X14933750Y-11430000D02*
G75*
G03*
X14933750Y-11430000I-85000J0D01*
G01*
X16033750Y-7620000D02*
G75*
G03*
X16033750Y-7620000I-85000J0D01*
G01*
X16033750Y-11430000D02*
G75*
G03*
X16033750Y-11430000I-85000J0D01*
G01*
X16838750Y-9525000D02*
G75*
G03*
X16838750Y-9525000I-85000J0D01*
G01*
X17938750Y-9525000D02*
G75*
G03*
X17938750Y-9525000I-85000J0D01*
G01*
X18743750Y-7620000D02*
G75*
G03*
X18743750Y-7620000I-85000J0D01*
G01*
X18743750Y-11430000D02*
G75*
G03*
X18743750Y-11430000I-85000J0D01*
G01*
X19843750Y-7620000D02*
G75*
G03*
X19843750Y-7620000I-85000J0D01*
G01*
X19843750Y-11430000D02*
G75*
G03*
X19843750Y-11430000I-85000J0D01*
G01*
D14*
X8692525Y-7532500D02*
X8692525Y-7707500D01*
X8605025Y-7620000D02*
X8780025Y-7620000D01*
X8692525Y-11342500D02*
X8692525Y-11517500D01*
X8605025Y-11430000D02*
X8780025Y-11430000D01*
X9708525Y-7532500D02*
X9708525Y-7707500D01*
X9621025Y-7620000D02*
X9796025Y-7620000D01*
X9708525Y-11342500D02*
X9708525Y-11517500D01*
X9621025Y-11430000D02*
X9796025Y-11430000D01*
X10597525Y-9437500D02*
X10597525Y-9612500D01*
X10510025Y-9525000D02*
X10685025Y-9525000D01*
X11613525Y-9437500D02*
X11613525Y-9612500D01*
X11526025Y-9525000D02*
X11701025Y-9525000D01*
X12502525Y-7532500D02*
X12502525Y-7707500D01*
X12415025Y-7620000D02*
X12590025Y-7620000D01*
X12509500Y-11342500D02*
X12509500Y-11517500D01*
X12422000Y-11430000D02*
X12597000Y-11430000D01*
X13518525Y-7532500D02*
X13518525Y-7707500D01*
X13431025Y-7620000D02*
X13606025Y-7620000D01*
X13525500Y-11342500D02*
X13525500Y-11517500D01*
X13438000Y-11430000D02*
X13613000Y-11430000D01*
X14890750Y-7532500D02*
X14890750Y-7707500D01*
X14803250Y-7620000D02*
X14978250Y-7620000D01*
X14890750Y-11342500D02*
X14890750Y-11517500D01*
X14803250Y-11430000D02*
X14978250Y-11430000D01*
X15906750Y-7532500D02*
X15906750Y-7707500D01*
X15819250Y-7620000D02*
X15994250Y-7620000D01*
X15906750Y-11342500D02*
X15906750Y-11517500D01*
X15819250Y-11430000D02*
X15994250Y-11430000D01*
X16795750Y-9437500D02*
X16795750Y-9612500D01*
X16708250Y-9525000D02*
X16883250Y-9525000D01*
X17811750Y-9437500D02*
X17811750Y-9612500D01*
X17724250Y-9525000D02*
X17899250Y-9525000D01*
X18700750Y-7532500D02*
X18700750Y-7707500D01*
X18613250Y-7620000D02*
X18788250Y-7620000D01*
X18700750Y-11342500D02*
X18700750Y-11517500D01*
X18613250Y-11430000D02*
X18788250Y-11430000D01*
X19716750Y-7532500D02*
X19716750Y-7707500D01*
X19629250Y-7620000D02*
X19804250Y-7620000D01*
X19716750Y-11342500D02*
X19716750Y-11517500D01*
X19629250Y-11430000D02*
X19804250Y-11430000D01*
D15*
X9341516Y-7760991D02*
X9341516Y-7479009D01*
X9059534Y-7479009D01*
X9059534Y-7760991D01*
X9341516Y-7760991D01*
X9341516Y-11570991D02*
X9341516Y-11289009D01*
X9059534Y-11289009D01*
X9059534Y-11570991D01*
X9341516Y-11570991D01*
X11246516Y-9665991D02*
X11246516Y-9384009D01*
X10964534Y-9384009D01*
X10964534Y-9665991D01*
X11246516Y-9665991D01*
X13151516Y-7760991D02*
X13151516Y-7479009D01*
X12869534Y-7479009D01*
X12869534Y-7760991D01*
X13151516Y-7760991D01*
X13158491Y-11570991D02*
X13158491Y-11289009D01*
X12876509Y-11289009D01*
X12876509Y-11570991D01*
X13158491Y-11570991D01*
X15539741Y-7760991D02*
X15539741Y-7479009D01*
X15257759Y-7479009D01*
X15257759Y-7760991D01*
X15539741Y-7760991D01*
X15539741Y-11570991D02*
X15539741Y-11289009D01*
X15257759Y-11289009D01*
X15257759Y-11570991D01*
X15539741Y-11570991D01*
X17444741Y-9665991D02*
X17444741Y-9384009D01*
X17162759Y-9384009D01*
X17162759Y-9665991D01*
X17444741Y-9665991D01*
X19349741Y-7760991D02*
X19349741Y-7479009D01*
X19067759Y-7479009D01*
X19067759Y-7760991D01*
X19349741Y-7760991D01*
X19349741Y-11570991D02*
X19349741Y-11289009D01*
X19067759Y-11289009D01*
X19067759Y-11570991D01*
X19349741Y-11570991D01*
D11*
X8428244Y-13332976D02*
X8428244Y-13132976D01*
X8475863Y-13132976D01*
X8504435Y-13142500D01*
X8523482Y-13161548D01*
X8533006Y-13180595D01*
X8542530Y-13218690D01*
X8542530Y-13247262D01*
X8533006Y-13285357D01*
X8523482Y-13304405D01*
X8504435Y-13323452D01*
X8475863Y-13332976D01*
X8428244Y-13332976D01*
X8628244Y-13332976D02*
X8628244Y-13199643D01*
X8628244Y-13237738D02*
X8637768Y-13218690D01*
X8647292Y-13209167D01*
X8666339Y-13199643D01*
X8685387Y-13199643D01*
X8752054Y-13332976D02*
X8752054Y-13199643D01*
X8752054Y-13132976D02*
X8742530Y-13142500D01*
X8752054Y-13152024D01*
X8761577Y-13142500D01*
X8752054Y-13132976D01*
X8752054Y-13152024D01*
X8875863Y-13332976D02*
X8856815Y-13323452D01*
X8847292Y-13304405D01*
X8847292Y-13132976D01*
X8980625Y-13332976D02*
X8961577Y-13323452D01*
X8952054Y-13304405D01*
X8952054Y-13132976D01*
X9209196Y-13332976D02*
X9209196Y-13132976D01*
X9275863Y-13275833D01*
X9342530Y-13132976D01*
X9342530Y-13332976D01*
X9523482Y-13332976D02*
X9523482Y-13228214D01*
X9513958Y-13209167D01*
X9494911Y-13199643D01*
X9456815Y-13199643D01*
X9437768Y-13209167D01*
X9523482Y-13323452D02*
X9504435Y-13332976D01*
X9456815Y-13332976D01*
X9437768Y-13323452D01*
X9428244Y-13304405D01*
X9428244Y-13285357D01*
X9437768Y-13266309D01*
X9456815Y-13256786D01*
X9504435Y-13256786D01*
X9523482Y-13247262D01*
X9618720Y-13199643D02*
X9618720Y-13399643D01*
X9618720Y-13209167D02*
X9637768Y-13199643D01*
X9675863Y-13199643D01*
X9694911Y-13209167D01*
X9704435Y-13218690D01*
X9713958Y-13237738D01*
X9713958Y-13294881D01*
X9704435Y-13313928D01*
X9694911Y-13323452D01*
X9675863Y-13332976D01*
X9637768Y-13332976D01*
X9618720Y-13323452D01*
X9799673Y-13313928D02*
X9809196Y-13323452D01*
X9799673Y-13332976D01*
X9790149Y-13323452D01*
X9799673Y-13313928D01*
X9799673Y-13332976D01*
X9799673Y-13209167D02*
X9809196Y-13218690D01*
X9799673Y-13228214D01*
X9790149Y-13218690D01*
X9799673Y-13209167D01*
X9799673Y-13228214D01*
D12*
X8090625Y-13622500D02*
X8170625Y-13702500D01*
X8170625Y-13622500D02*
X8090625Y-13702500D01*
D11*
X8466339Y-13552976D02*
X8485387Y-13552976D01*
X8504435Y-13562500D01*
X8513958Y-13572024D01*
X8523482Y-13591071D01*
X8533006Y-13629167D01*
X8533006Y-13676786D01*
X8523482Y-13714881D01*
X8513958Y-13733928D01*
X8504435Y-13743452D01*
X8485387Y-13752976D01*
X8466339Y-13752976D01*
X8447292Y-13743452D01*
X8437768Y-13733928D01*
X8428244Y-13714881D01*
X8418720Y-13676786D01*
X8418720Y-13629167D01*
X8428244Y-13591071D01*
X8437768Y-13572024D01*
X8447292Y-13562500D01*
X8466339Y-13552976D01*
X8618720Y-13733928D02*
X8628244Y-13743452D01*
X8618720Y-13752976D01*
X8609196Y-13743452D01*
X8618720Y-13733928D01*
X8618720Y-13752976D01*
X8742530Y-13638690D02*
X8723482Y-13629167D01*
X8713958Y-13619643D01*
X8704435Y-13600595D01*
X8704435Y-13591071D01*
X8713958Y-13572024D01*
X8723482Y-13562500D01*
X8742530Y-13552976D01*
X8780625Y-13552976D01*
X8799673Y-13562500D01*
X8809196Y-13572024D01*
X8818720Y-13591071D01*
X8818720Y-13600595D01*
X8809196Y-13619643D01*
X8799673Y-13629167D01*
X8780625Y-13638690D01*
X8742530Y-13638690D01*
X8723482Y-13648214D01*
X8713958Y-13657738D01*
X8704435Y-13676786D01*
X8704435Y-13714881D01*
X8713958Y-13733928D01*
X8723482Y-13743452D01*
X8742530Y-13752976D01*
X8780625Y-13752976D01*
X8799673Y-13743452D01*
X8809196Y-13733928D01*
X8818720Y-13714881D01*
X8818720Y-13676786D01*
X8809196Y-13657738D01*
X8799673Y-13648214D01*
X8780625Y-13638690D01*
X8942530Y-13552976D02*
X8961577Y-13552976D01*
X8980625Y-13562500D01*
X8990149Y-13572024D01*
X8999673Y-13591071D01*
X9009196Y-13629167D01*
X9009196Y-13676786D01*
X8999673Y-13714881D01*
X8990149Y-13733928D01*
X8980625Y-13743452D01*
X8961577Y-13752976D01*
X8942530Y-13752976D01*
X8923482Y-13743452D01*
X8913958Y-13733928D01*
X8904435Y-13714881D01*
X8894911Y-13676786D01*
X8894911Y-13629167D01*
X8904435Y-13591071D01*
X8913958Y-13572024D01*
X8923482Y-13562500D01*
X8942530Y-13552976D01*
X9133006Y-13552976D02*
X9152054Y-13552976D01*
X9171101Y-13562500D01*
X9180625Y-13572024D01*
X9190149Y-13591071D01*
X9199673Y-13629167D01*
X9199673Y-13676786D01*
X9190149Y-13714881D01*
X9180625Y-13733928D01*
X9171101Y-13743452D01*
X9152054Y-13752976D01*
X9133006Y-13752976D01*
X9113958Y-13743452D01*
X9104435Y-13733928D01*
X9094911Y-13714881D01*
X9085387Y-13676786D01*
X9085387Y-13629167D01*
X9094911Y-13591071D01*
X9104435Y-13572024D01*
X9113958Y-13562500D01*
X9133006Y-13552976D01*
X9285387Y-13752976D02*
X9285387Y-13619643D01*
X9285387Y-13638690D02*
X9294911Y-13629167D01*
X9313958Y-13619643D01*
X9342530Y-13619643D01*
X9361577Y-13629167D01*
X9371101Y-13648214D01*
X9371101Y-13752976D01*
X9371101Y-13648214D02*
X9380625Y-13629167D01*
X9399673Y-13619643D01*
X9428244Y-13619643D01*
X9447292Y-13629167D01*
X9456815Y-13648214D01*
X9456815Y-13752976D01*
X9552054Y-13752976D02*
X9552054Y-13619643D01*
X9552054Y-13638690D02*
X9561577Y-13629167D01*
X9580625Y-13619643D01*
X9609196Y-13619643D01*
X9628244Y-13629167D01*
X9637768Y-13648214D01*
X9637768Y-13752976D01*
X9637768Y-13648214D02*
X9647292Y-13629167D01*
X9666339Y-13619643D01*
X9694911Y-13619643D01*
X9713958Y-13629167D01*
X9723482Y-13648214D01*
X9723482Y-13752976D01*
X10113958Y-13543452D02*
X9942530Y-13800595D01*
X10371101Y-13552976D02*
X10390149Y-13552976D01*
X10409196Y-13562500D01*
X10418720Y-13572024D01*
X10428244Y-13591071D01*
X10437768Y-13629167D01*
X10437768Y-13676786D01*
X10428244Y-13714881D01*
X10418720Y-13733928D01*
X10409196Y-13743452D01*
X10390149Y-13752976D01*
X10371101Y-13752976D01*
X10352054Y-13743452D01*
X10342530Y-13733928D01*
X10333006Y-13714881D01*
X10323482Y-13676786D01*
X10323482Y-13629167D01*
X10333006Y-13591071D01*
X10342530Y-13572024D01*
X10352054Y-13562500D01*
X10371101Y-13552976D01*
X10523482Y-13733928D02*
X10533006Y-13743452D01*
X10523482Y-13752976D01*
X10513958Y-13743452D01*
X10523482Y-13733928D01*
X10523482Y-13752976D01*
X10656815Y-13552976D02*
X10675863Y-13552976D01*
X10694911Y-13562500D01*
X10704435Y-13572024D01*
X10713958Y-13591071D01*
X10723482Y-13629167D01*
X10723482Y-13676786D01*
X10713958Y-13714881D01*
X10704435Y-13733928D01*
X10694911Y-13743452D01*
X10675863Y-13752976D01*
X10656815Y-13752976D01*
X10637768Y-13743452D01*
X10628244Y-13733928D01*
X10618720Y-13714881D01*
X10609196Y-13676786D01*
X10609196Y-13629167D01*
X10618720Y-13591071D01*
X10628244Y-13572024D01*
X10637768Y-13562500D01*
X10656815Y-13552976D01*
X10790149Y-13552976D02*
X10913958Y-13552976D01*
X10847292Y-13629167D01*
X10875863Y-13629167D01*
X10894911Y-13638690D01*
X10904435Y-13648214D01*
X10913958Y-13667262D01*
X10913958Y-13714881D01*
X10904435Y-13733928D01*
X10894911Y-13743452D01*
X10875863Y-13752976D01*
X10818720Y-13752976D01*
X10799673Y-13743452D01*
X10790149Y-13733928D01*
X11104435Y-13752976D02*
X10990149Y-13752976D01*
X11047292Y-13752976D02*
X11047292Y-13552976D01*
X11028244Y-13581548D01*
X11009196Y-13600595D01*
X10990149Y-13610119D01*
X11285387Y-13552976D02*
X11190149Y-13552976D01*
X11180625Y-13648214D01*
X11190149Y-13638690D01*
X11209196Y-13629167D01*
X11256815Y-13629167D01*
X11275863Y-13638690D01*
X11285387Y-13648214D01*
X11294911Y-13667262D01*
X11294911Y-13714881D01*
X11285387Y-13733928D01*
X11275863Y-13743452D01*
X11256815Y-13752976D01*
X11209196Y-13752976D01*
X11190149Y-13743452D01*
X11180625Y-13733928D01*
X11371101Y-13552976D02*
X11371101Y-13591071D01*
X11447292Y-13552976D02*
X11447292Y-13591071D01*
X11742530Y-13829167D02*
X11733006Y-13819643D01*
X11713958Y-13791071D01*
X11704434Y-13772024D01*
X11694911Y-13743452D01*
X11685387Y-13695833D01*
X11685387Y-13657738D01*
X11694911Y-13610119D01*
X11704434Y-13581548D01*
X11713958Y-13562500D01*
X11733006Y-13533928D01*
X11742530Y-13524405D01*
X11923482Y-13752976D02*
X11809196Y-13752976D01*
X11866339Y-13752976D02*
X11866339Y-13552976D01*
X11847292Y-13581548D01*
X11828244Y-13600595D01*
X11809196Y-13610119D01*
X12047292Y-13552976D02*
X12066339Y-13552976D01*
X12085387Y-13562500D01*
X12094911Y-13572024D01*
X12104434Y-13591071D01*
X12113958Y-13629167D01*
X12113958Y-13676786D01*
X12104434Y-13714881D01*
X12094911Y-13733928D01*
X12085387Y-13743452D01*
X12066339Y-13752976D01*
X12047292Y-13752976D01*
X12028244Y-13743452D01*
X12018720Y-13733928D01*
X12009196Y-13714881D01*
X11999673Y-13676786D01*
X11999673Y-13629167D01*
X12009196Y-13591071D01*
X12018720Y-13572024D01*
X12028244Y-13562500D01*
X12047292Y-13552976D01*
X12352053Y-13752976D02*
X12352053Y-13552976D01*
X12437768Y-13752976D02*
X12437768Y-13648214D01*
X12428244Y-13629167D01*
X12409196Y-13619643D01*
X12380625Y-13619643D01*
X12361577Y-13629167D01*
X12352053Y-13638690D01*
X12561577Y-13752976D02*
X12542530Y-13743452D01*
X12533006Y-13733928D01*
X12523482Y-13714881D01*
X12523482Y-13657738D01*
X12533006Y-13638690D01*
X12542530Y-13629167D01*
X12561577Y-13619643D01*
X12590149Y-13619643D01*
X12609196Y-13629167D01*
X12618720Y-13638690D01*
X12628244Y-13657738D01*
X12628244Y-13714881D01*
X12618720Y-13733928D01*
X12609196Y-13743452D01*
X12590149Y-13752976D01*
X12561577Y-13752976D01*
X12742530Y-13752976D02*
X12723482Y-13743452D01*
X12713958Y-13724405D01*
X12713958Y-13552976D01*
X12894911Y-13743452D02*
X12875863Y-13752976D01*
X12837768Y-13752976D01*
X12818720Y-13743452D01*
X12809196Y-13724405D01*
X12809196Y-13648214D01*
X12818720Y-13629167D01*
X12837768Y-13619643D01*
X12875863Y-13619643D01*
X12894911Y-13629167D01*
X12904434Y-13648214D01*
X12904434Y-13667262D01*
X12809196Y-13686309D01*
X12980625Y-13743452D02*
X12999673Y-13752976D01*
X13037768Y-13752976D01*
X13056815Y-13743452D01*
X13066339Y-13724405D01*
X13066339Y-13714881D01*
X13056815Y-13695833D01*
X13037768Y-13686309D01*
X13009196Y-13686309D01*
X12990149Y-13676786D01*
X12980625Y-13657738D01*
X12980625Y-13648214D01*
X12990149Y-13629167D01*
X13009196Y-13619643D01*
X13037768Y-13619643D01*
X13056815Y-13629167D01*
X13133006Y-13829167D02*
X13142530Y-13819643D01*
X13161577Y-13791071D01*
X13171101Y-13772024D01*
X13180625Y-13743452D01*
X13190149Y-13695833D01*
X13190149Y-13657738D01*
X13180625Y-13610119D01*
X13171101Y-13581548D01*
X13161577Y-13562500D01*
X13142530Y-13533928D01*
X13133006Y-13524405D01*
X13494911Y-13829167D02*
X13485387Y-13819643D01*
X13466339Y-13791071D01*
X13456815Y-13772024D01*
X13447292Y-13743452D01*
X13437768Y-13695833D01*
X13437768Y-13657738D01*
X13447292Y-13610119D01*
X13456815Y-13581548D01*
X13466339Y-13562500D01*
X13485387Y-13533928D01*
X13494911Y-13524405D01*
X13571101Y-13619643D02*
X13571101Y-13752976D01*
X13571101Y-13638690D02*
X13580625Y-13629167D01*
X13599673Y-13619643D01*
X13628244Y-13619643D01*
X13647292Y-13629167D01*
X13656815Y-13648214D01*
X13656815Y-13752976D01*
X13780625Y-13752976D02*
X13761577Y-13743452D01*
X13752053Y-13733928D01*
X13742530Y-13714881D01*
X13742530Y-13657738D01*
X13752053Y-13638690D01*
X13761577Y-13629167D01*
X13780625Y-13619643D01*
X13809196Y-13619643D01*
X13828244Y-13629167D01*
X13837768Y-13638690D01*
X13847292Y-13657738D01*
X13847292Y-13714881D01*
X13837768Y-13733928D01*
X13828244Y-13743452D01*
X13809196Y-13752976D01*
X13780625Y-13752976D01*
X13904434Y-13619643D02*
X13980625Y-13619643D01*
X13933006Y-13552976D02*
X13933006Y-13724405D01*
X13942530Y-13743452D01*
X13961577Y-13752976D01*
X13980625Y-13752976D01*
X14199673Y-13619643D02*
X14199673Y-13819643D01*
X14199673Y-13629167D02*
X14218720Y-13619643D01*
X14256815Y-13619643D01*
X14275863Y-13629167D01*
X14285387Y-13638690D01*
X14294911Y-13657738D01*
X14294911Y-13714881D01*
X14285387Y-13733928D01*
X14275863Y-13743452D01*
X14256815Y-13752976D01*
X14218720Y-13752976D01*
X14199673Y-13743452D01*
X14409196Y-13752976D02*
X14390149Y-13743452D01*
X14380625Y-13724405D01*
X14380625Y-13552976D01*
X14571101Y-13752976D02*
X14571101Y-13648214D01*
X14561577Y-13629167D01*
X14542530Y-13619643D01*
X14504434Y-13619643D01*
X14485387Y-13629167D01*
X14571101Y-13743452D02*
X14552053Y-13752976D01*
X14504434Y-13752976D01*
X14485387Y-13743452D01*
X14475863Y-13724405D01*
X14475863Y-13705357D01*
X14485387Y-13686309D01*
X14504434Y-13676786D01*
X14552053Y-13676786D01*
X14571101Y-13667262D01*
X14637768Y-13619643D02*
X14713958Y-13619643D01*
X14666339Y-13552976D02*
X14666339Y-13724405D01*
X14675863Y-13743452D01*
X14694911Y-13752976D01*
X14713958Y-13752976D01*
X14856815Y-13743452D02*
X14837768Y-13752976D01*
X14799673Y-13752976D01*
X14780625Y-13743452D01*
X14771101Y-13724405D01*
X14771101Y-13648214D01*
X14780625Y-13629167D01*
X14799673Y-13619643D01*
X14837768Y-13619643D01*
X14856815Y-13629167D01*
X14866339Y-13648214D01*
X14866339Y-13667262D01*
X14771101Y-13686309D01*
X15037768Y-13752976D02*
X15037768Y-13552976D01*
X15037768Y-13743452D02*
X15018720Y-13752976D01*
X14980625Y-13752976D01*
X14961577Y-13743452D01*
X14952053Y-13733928D01*
X14942530Y-13714881D01*
X14942530Y-13657738D01*
X14952053Y-13638690D01*
X14961577Y-13629167D01*
X14980625Y-13619643D01*
X15018720Y-13619643D01*
X15037768Y-13629167D01*
X15113958Y-13829167D02*
X15123482Y-13819643D01*
X15142530Y-13791071D01*
X15152053Y-13772024D01*
X15161577Y-13743452D01*
X15171101Y-13695833D01*
X15171101Y-13657738D01*
X15161577Y-13610119D01*
X15152053Y-13581548D01*
X15142530Y-13562500D01*
X15123482Y-13533928D01*
X15113958Y-13524405D01*
D13*
X8170625Y-13926500D02*
G75*
G03*
X8170625Y-13926500I-85000J0D01*
G01*
D11*
X8533006Y-14016976D02*
X8418720Y-14016976D01*
X8475863Y-14016976D02*
X8475863Y-13816976D01*
X8456815Y-13845548D01*
X8437768Y-13864595D01*
X8418720Y-13874119D01*
X8618720Y-13997928D02*
X8628244Y-14007452D01*
X8618720Y-14016976D01*
X8609196Y-14007452D01*
X8618720Y-13997928D01*
X8618720Y-14016976D01*
X8694911Y-13816976D02*
X8828244Y-13816976D01*
X8742530Y-14016976D01*
X8942530Y-13816976D02*
X8961577Y-13816976D01*
X8980625Y-13826500D01*
X8990149Y-13836024D01*
X8999673Y-13855071D01*
X9009196Y-13893167D01*
X9009196Y-13940786D01*
X8999673Y-13978881D01*
X8990149Y-13997928D01*
X8980625Y-14007452D01*
X8961577Y-14016976D01*
X8942530Y-14016976D01*
X8923482Y-14007452D01*
X8913958Y-13997928D01*
X8904435Y-13978881D01*
X8894911Y-13940786D01*
X8894911Y-13893167D01*
X8904435Y-13855071D01*
X8913958Y-13836024D01*
X8923482Y-13826500D01*
X8942530Y-13816976D01*
X9133006Y-13816976D02*
X9152054Y-13816976D01*
X9171101Y-13826500D01*
X9180625Y-13836024D01*
X9190149Y-13855071D01*
X9199673Y-13893167D01*
X9199673Y-13940786D01*
X9190149Y-13978881D01*
X9180625Y-13997928D01*
X9171101Y-14007452D01*
X9152054Y-14016976D01*
X9133006Y-14016976D01*
X9113958Y-14007452D01*
X9104435Y-13997928D01*
X9094911Y-13978881D01*
X9085387Y-13940786D01*
X9085387Y-13893167D01*
X9094911Y-13855071D01*
X9104435Y-13836024D01*
X9113958Y-13826500D01*
X9133006Y-13816976D01*
X9285387Y-14016976D02*
X9285387Y-13883643D01*
X9285387Y-13902690D02*
X9294911Y-13893167D01*
X9313958Y-13883643D01*
X9342530Y-13883643D01*
X9361577Y-13893167D01*
X9371101Y-13912214D01*
X9371101Y-14016976D01*
X9371101Y-13912214D02*
X9380625Y-13893167D01*
X9399673Y-13883643D01*
X9428244Y-13883643D01*
X9447292Y-13893167D01*
X9456815Y-13912214D01*
X9456815Y-14016976D01*
X9552054Y-14016976D02*
X9552054Y-13883643D01*
X9552054Y-13902690D02*
X9561577Y-13893167D01*
X9580625Y-13883643D01*
X9609196Y-13883643D01*
X9628244Y-13893167D01*
X9637768Y-13912214D01*
X9637768Y-14016976D01*
X9637768Y-13912214D02*
X9647292Y-13893167D01*
X9666339Y-13883643D01*
X9694911Y-13883643D01*
X9713958Y-13893167D01*
X9723482Y-13912214D01*
X9723482Y-14016976D01*
X10113958Y-13807452D02*
X9942530Y-14064595D01*
X10371101Y-13816976D02*
X10390149Y-13816976D01*
X10409196Y-13826500D01*
X10418720Y-13836024D01*
X10428244Y-13855071D01*
X10437768Y-13893167D01*
X10437768Y-13940786D01*
X10428244Y-13978881D01*
X10418720Y-13997928D01*
X10409196Y-14007452D01*
X10390149Y-14016976D01*
X10371101Y-14016976D01*
X10352054Y-14007452D01*
X10342530Y-13997928D01*
X10333006Y-13978881D01*
X10323482Y-13940786D01*
X10323482Y-13893167D01*
X10333006Y-13855071D01*
X10342530Y-13836024D01*
X10352054Y-13826500D01*
X10371101Y-13816976D01*
X10523482Y-13997928D02*
X10533006Y-14007452D01*
X10523482Y-14016976D01*
X10513958Y-14007452D01*
X10523482Y-13997928D01*
X10523482Y-14016976D01*
X10656815Y-13816976D02*
X10675863Y-13816976D01*
X10694911Y-13826500D01*
X10704435Y-13836024D01*
X10713958Y-13855071D01*
X10723482Y-13893167D01*
X10723482Y-13940786D01*
X10713958Y-13978881D01*
X10704435Y-13997928D01*
X10694911Y-14007452D01*
X10675863Y-14016976D01*
X10656815Y-14016976D01*
X10637768Y-14007452D01*
X10628244Y-13997928D01*
X10618720Y-13978881D01*
X10609196Y-13940786D01*
X10609196Y-13893167D01*
X10618720Y-13855071D01*
X10628244Y-13836024D01*
X10637768Y-13826500D01*
X10656815Y-13816976D01*
X10894911Y-13816976D02*
X10856815Y-13816976D01*
X10837768Y-13826500D01*
X10828244Y-13836024D01*
X10809196Y-13864595D01*
X10799673Y-13902690D01*
X10799673Y-13978881D01*
X10809196Y-13997928D01*
X10818720Y-14007452D01*
X10837768Y-14016976D01*
X10875863Y-14016976D01*
X10894911Y-14007452D01*
X10904435Y-13997928D01*
X10913958Y-13978881D01*
X10913958Y-13931262D01*
X10904435Y-13912214D01*
X10894911Y-13902690D01*
X10875863Y-13893167D01*
X10837768Y-13893167D01*
X10818720Y-13902690D01*
X10809196Y-13912214D01*
X10799673Y-13931262D01*
X11085387Y-13816976D02*
X11047292Y-13816976D01*
X11028244Y-13826500D01*
X11018720Y-13836024D01*
X10999673Y-13864595D01*
X10990149Y-13902690D01*
X10990149Y-13978881D01*
X10999673Y-13997928D01*
X11009196Y-14007452D01*
X11028244Y-14016976D01*
X11066339Y-14016976D01*
X11085387Y-14007452D01*
X11094911Y-13997928D01*
X11104435Y-13978881D01*
X11104435Y-13931262D01*
X11094911Y-13912214D01*
X11085387Y-13902690D01*
X11066339Y-13893167D01*
X11028244Y-13893167D01*
X11009196Y-13902690D01*
X10999673Y-13912214D01*
X10990149Y-13931262D01*
X11199673Y-14016976D02*
X11237768Y-14016976D01*
X11256815Y-14007452D01*
X11266339Y-13997928D01*
X11285387Y-13969357D01*
X11294911Y-13931262D01*
X11294911Y-13855071D01*
X11285387Y-13836024D01*
X11275863Y-13826500D01*
X11256815Y-13816976D01*
X11218720Y-13816976D01*
X11199673Y-13826500D01*
X11190149Y-13836024D01*
X11180625Y-13855071D01*
X11180625Y-13902690D01*
X11190149Y-13921738D01*
X11199673Y-13931262D01*
X11218720Y-13940786D01*
X11256815Y-13940786D01*
X11275863Y-13931262D01*
X11285387Y-13921738D01*
X11294911Y-13902690D01*
X11371101Y-13816976D02*
X11371101Y-13855071D01*
X11447292Y-13816976D02*
X11447292Y-13855071D01*
X11742530Y-14093167D02*
X11733006Y-14083643D01*
X11713958Y-14055071D01*
X11704434Y-14036024D01*
X11694911Y-14007452D01*
X11685387Y-13959833D01*
X11685387Y-13921738D01*
X11694911Y-13874119D01*
X11704434Y-13845548D01*
X11713958Y-13826500D01*
X11733006Y-13797928D01*
X11742530Y-13788405D01*
X11809196Y-13836024D02*
X11818720Y-13826500D01*
X11837768Y-13816976D01*
X11885387Y-13816976D01*
X11904434Y-13826500D01*
X11913958Y-13836024D01*
X11923482Y-13855071D01*
X11923482Y-13874119D01*
X11913958Y-13902690D01*
X11799673Y-14016976D01*
X11923482Y-14016976D01*
X12047292Y-13816976D02*
X12066339Y-13816976D01*
X12085387Y-13826500D01*
X12094911Y-13836024D01*
X12104434Y-13855071D01*
X12113958Y-13893167D01*
X12113958Y-13940786D01*
X12104434Y-13978881D01*
X12094911Y-13997928D01*
X12085387Y-14007452D01*
X12066339Y-14016976D01*
X12047292Y-14016976D01*
X12028244Y-14007452D01*
X12018720Y-13997928D01*
X12009196Y-13978881D01*
X11999673Y-13940786D01*
X11999673Y-13893167D01*
X12009196Y-13855071D01*
X12018720Y-13836024D01*
X12028244Y-13826500D01*
X12047292Y-13816976D01*
X12352053Y-14016976D02*
X12352053Y-13816976D01*
X12437768Y-14016976D02*
X12437768Y-13912214D01*
X12428244Y-13893167D01*
X12409196Y-13883643D01*
X12380625Y-13883643D01*
X12361577Y-13893167D01*
X12352053Y-13902690D01*
X12561577Y-14016976D02*
X12542530Y-14007452D01*
X12533006Y-13997928D01*
X12523482Y-13978881D01*
X12523482Y-13921738D01*
X12533006Y-13902690D01*
X12542530Y-13893167D01*
X12561577Y-13883643D01*
X12590149Y-13883643D01*
X12609196Y-13893167D01*
X12618720Y-13902690D01*
X12628244Y-13921738D01*
X12628244Y-13978881D01*
X12618720Y-13997928D01*
X12609196Y-14007452D01*
X12590149Y-14016976D01*
X12561577Y-14016976D01*
X12742530Y-14016976D02*
X12723482Y-14007452D01*
X12713958Y-13988405D01*
X12713958Y-13816976D01*
X12894911Y-14007452D02*
X12875863Y-14016976D01*
X12837768Y-14016976D01*
X12818720Y-14007452D01*
X12809196Y-13988405D01*
X12809196Y-13912214D01*
X12818720Y-13893167D01*
X12837768Y-13883643D01*
X12875863Y-13883643D01*
X12894911Y-13893167D01*
X12904434Y-13912214D01*
X12904434Y-13931262D01*
X12809196Y-13950309D01*
X12980625Y-14007452D02*
X12999673Y-14016976D01*
X13037768Y-14016976D01*
X13056815Y-14007452D01*
X13066339Y-13988405D01*
X13066339Y-13978881D01*
X13056815Y-13959833D01*
X13037768Y-13950309D01*
X13009196Y-13950309D01*
X12990149Y-13940786D01*
X12980625Y-13921738D01*
X12980625Y-13912214D01*
X12990149Y-13893167D01*
X13009196Y-13883643D01*
X13037768Y-13883643D01*
X13056815Y-13893167D01*
X13133006Y-14093167D02*
X13142530Y-14083643D01*
X13161577Y-14055071D01*
X13171101Y-14036024D01*
X13180625Y-14007452D01*
X13190149Y-13959833D01*
X13190149Y-13921738D01*
X13180625Y-13874119D01*
X13171101Y-13845548D01*
X13161577Y-13826500D01*
X13142530Y-13797928D01*
X13133006Y-13788405D01*
X13494911Y-14093167D02*
X13485387Y-14083643D01*
X13466339Y-14055071D01*
X13456815Y-14036024D01*
X13447292Y-14007452D01*
X13437768Y-13959833D01*
X13437768Y-13921738D01*
X13447292Y-13874119D01*
X13456815Y-13845548D01*
X13466339Y-13826500D01*
X13485387Y-13797928D01*
X13494911Y-13788405D01*
X13571101Y-13883643D02*
X13571101Y-14016976D01*
X13571101Y-13902690D02*
X13580625Y-13893167D01*
X13599673Y-13883643D01*
X13628244Y-13883643D01*
X13647292Y-13893167D01*
X13656815Y-13912214D01*
X13656815Y-14016976D01*
X13780625Y-14016976D02*
X13761577Y-14007452D01*
X13752053Y-13997928D01*
X13742530Y-13978881D01*
X13742530Y-13921738D01*
X13752053Y-13902690D01*
X13761577Y-13893167D01*
X13780625Y-13883643D01*
X13809196Y-13883643D01*
X13828244Y-13893167D01*
X13837768Y-13902690D01*
X13847292Y-13921738D01*
X13847292Y-13978881D01*
X13837768Y-13997928D01*
X13828244Y-14007452D01*
X13809196Y-14016976D01*
X13780625Y-14016976D01*
X13904434Y-13883643D02*
X13980625Y-13883643D01*
X13933006Y-13816976D02*
X13933006Y-13988405D01*
X13942530Y-14007452D01*
X13961577Y-14016976D01*
X13980625Y-14016976D01*
X14199673Y-13883643D02*
X14199673Y-14083643D01*
X14199673Y-13893167D02*
X14218720Y-13883643D01*
X14256815Y-13883643D01*
X14275863Y-13893167D01*
X14285387Y-13902690D01*
X14294911Y-13921738D01*
X14294911Y-13978881D01*
X14285387Y-13997928D01*
X14275863Y-14007452D01*
X14256815Y-14016976D01*
X14218720Y-14016976D01*
X14199673Y-14007452D01*
X14409196Y-14016976D02*
X14390149Y-14007452D01*
X14380625Y-13988405D01*
X14380625Y-13816976D01*
X14571101Y-14016976D02*
X14571101Y-13912214D01*
X14561577Y-13893167D01*
X14542530Y-13883643D01*
X14504434Y-13883643D01*
X14485387Y-13893167D01*
X14571101Y-14007452D02*
X14552053Y-14016976D01*
X14504434Y-14016976D01*
X14485387Y-14007452D01*
X14475863Y-13988405D01*
X14475863Y-13969357D01*
X14485387Y-13950309D01*
X14504434Y-13940786D01*
X14552053Y-13940786D01*
X14571101Y-13931262D01*
X14637768Y-13883643D02*
X14713958Y-13883643D01*
X14666339Y-13816976D02*
X14666339Y-13988405D01*
X14675863Y-14007452D01*
X14694911Y-14016976D01*
X14713958Y-14016976D01*
X14856815Y-14007452D02*
X14837768Y-14016976D01*
X14799673Y-14016976D01*
X14780625Y-14007452D01*
X14771101Y-13988405D01*
X14771101Y-13912214D01*
X14780625Y-13893167D01*
X14799673Y-13883643D01*
X14837768Y-13883643D01*
X14856815Y-13893167D01*
X14866339Y-13912214D01*
X14866339Y-13931262D01*
X14771101Y-13950309D01*
X15037768Y-14016976D02*
X15037768Y-13816976D01*
X15037768Y-14007452D02*
X15018720Y-14016976D01*
X14980625Y-14016976D01*
X14961577Y-14007452D01*
X14952053Y-13997928D01*
X14942530Y-13978881D01*
X14942530Y-13921738D01*
X14952053Y-13902690D01*
X14961577Y-13893167D01*
X14980625Y-13883643D01*
X15018720Y-13883643D01*
X15037768Y-13893167D01*
X15113958Y-14093167D02*
X15123482Y-14083643D01*
X15142530Y-14055071D01*
X15152053Y-14036024D01*
X15161577Y-14007452D01*
X15171101Y-13959833D01*
X15171101Y-13921738D01*
X15161577Y-13874119D01*
X15152053Y-13845548D01*
X15142530Y-13826500D01*
X15123482Y-13797928D01*
X15113958Y-13788405D01*
D14*
X8083125Y-14129000D02*
X8083125Y-14304000D01*
X7995625Y-14216500D02*
X8170625Y-14216500D01*
D11*
X8533006Y-14306976D02*
X8418720Y-14306976D01*
X8475863Y-14306976D02*
X8475863Y-14106976D01*
X8456815Y-14135548D01*
X8437768Y-14154595D01*
X8418720Y-14164119D01*
X8618720Y-14287928D02*
X8628244Y-14297452D01*
X8618720Y-14306976D01*
X8609196Y-14297452D01*
X8618720Y-14287928D01*
X8618720Y-14306976D01*
X8694911Y-14106976D02*
X8828244Y-14106976D01*
X8742530Y-14306976D01*
X8999673Y-14106976D02*
X8904435Y-14106976D01*
X8894911Y-14202214D01*
X8904435Y-14192690D01*
X8923482Y-14183167D01*
X8971101Y-14183167D01*
X8990149Y-14192690D01*
X8999673Y-14202214D01*
X9009196Y-14221262D01*
X9009196Y-14268881D01*
X8999673Y-14287928D01*
X8990149Y-14297452D01*
X8971101Y-14306976D01*
X8923482Y-14306976D01*
X8904435Y-14297452D01*
X8894911Y-14287928D01*
X9133006Y-14106976D02*
X9152054Y-14106976D01*
X9171101Y-14116500D01*
X9180625Y-14126024D01*
X9190149Y-14145071D01*
X9199673Y-14183167D01*
X9199673Y-14230786D01*
X9190149Y-14268881D01*
X9180625Y-14287928D01*
X9171101Y-14297452D01*
X9152054Y-14306976D01*
X9133006Y-14306976D01*
X9113958Y-14297452D01*
X9104435Y-14287928D01*
X9094911Y-14268881D01*
X9085387Y-14230786D01*
X9085387Y-14183167D01*
X9094911Y-14145071D01*
X9104435Y-14126024D01*
X9113958Y-14116500D01*
X9133006Y-14106976D01*
X9285387Y-14306976D02*
X9285387Y-14173643D01*
X9285387Y-14192690D02*
X9294911Y-14183167D01*
X9313958Y-14173643D01*
X9342530Y-14173643D01*
X9361577Y-14183167D01*
X9371101Y-14202214D01*
X9371101Y-14306976D01*
X9371101Y-14202214D02*
X9380625Y-14183167D01*
X9399673Y-14173643D01*
X9428244Y-14173643D01*
X9447292Y-14183167D01*
X9456815Y-14202214D01*
X9456815Y-14306976D01*
X9552054Y-14306976D02*
X9552054Y-14173643D01*
X9552054Y-14192690D02*
X9561577Y-14183167D01*
X9580625Y-14173643D01*
X9609196Y-14173643D01*
X9628244Y-14183167D01*
X9637768Y-14202214D01*
X9637768Y-14306976D01*
X9637768Y-14202214D02*
X9647292Y-14183167D01*
X9666339Y-14173643D01*
X9694911Y-14173643D01*
X9713958Y-14183167D01*
X9723482Y-14202214D01*
X9723482Y-14306976D01*
X10113958Y-14097452D02*
X9942530Y-14354595D01*
X10371101Y-14106976D02*
X10390149Y-14106976D01*
X10409196Y-14116500D01*
X10418720Y-14126024D01*
X10428244Y-14145071D01*
X10437768Y-14183167D01*
X10437768Y-14230786D01*
X10428244Y-14268881D01*
X10418720Y-14287928D01*
X10409196Y-14297452D01*
X10390149Y-14306976D01*
X10371101Y-14306976D01*
X10352054Y-14297452D01*
X10342530Y-14287928D01*
X10333006Y-14268881D01*
X10323482Y-14230786D01*
X10323482Y-14183167D01*
X10333006Y-14145071D01*
X10342530Y-14126024D01*
X10352054Y-14116500D01*
X10371101Y-14106976D01*
X10523482Y-14287928D02*
X10533006Y-14297452D01*
X10523482Y-14306976D01*
X10513958Y-14297452D01*
X10523482Y-14287928D01*
X10523482Y-14306976D01*
X10656815Y-14106976D02*
X10675863Y-14106976D01*
X10694911Y-14116500D01*
X10704435Y-14126024D01*
X10713958Y-14145071D01*
X10723482Y-14183167D01*
X10723482Y-14230786D01*
X10713958Y-14268881D01*
X10704435Y-14287928D01*
X10694911Y-14297452D01*
X10675863Y-14306976D01*
X10656815Y-14306976D01*
X10637768Y-14297452D01*
X10628244Y-14287928D01*
X10618720Y-14268881D01*
X10609196Y-14230786D01*
X10609196Y-14183167D01*
X10618720Y-14145071D01*
X10628244Y-14126024D01*
X10637768Y-14116500D01*
X10656815Y-14106976D01*
X10894911Y-14106976D02*
X10856815Y-14106976D01*
X10837768Y-14116500D01*
X10828244Y-14126024D01*
X10809196Y-14154595D01*
X10799673Y-14192690D01*
X10799673Y-14268881D01*
X10809196Y-14287928D01*
X10818720Y-14297452D01*
X10837768Y-14306976D01*
X10875863Y-14306976D01*
X10894911Y-14297452D01*
X10904435Y-14287928D01*
X10913958Y-14268881D01*
X10913958Y-14221262D01*
X10904435Y-14202214D01*
X10894911Y-14192690D01*
X10875863Y-14183167D01*
X10837768Y-14183167D01*
X10818720Y-14192690D01*
X10809196Y-14202214D01*
X10799673Y-14221262D01*
X11028244Y-14192690D02*
X11009196Y-14183167D01*
X10999673Y-14173643D01*
X10990149Y-14154595D01*
X10990149Y-14145071D01*
X10999673Y-14126024D01*
X11009196Y-14116500D01*
X11028244Y-14106976D01*
X11066339Y-14106976D01*
X11085387Y-14116500D01*
X11094911Y-14126024D01*
X11104435Y-14145071D01*
X11104435Y-14154595D01*
X11094911Y-14173643D01*
X11085387Y-14183167D01*
X11066339Y-14192690D01*
X11028244Y-14192690D01*
X11009196Y-14202214D01*
X10999673Y-14211738D01*
X10990149Y-14230786D01*
X10990149Y-14268881D01*
X10999673Y-14287928D01*
X11009196Y-14297452D01*
X11028244Y-14306976D01*
X11066339Y-14306976D01*
X11085387Y-14297452D01*
X11094911Y-14287928D01*
X11104435Y-14268881D01*
X11104435Y-14230786D01*
X11094911Y-14211738D01*
X11085387Y-14202214D01*
X11066339Y-14192690D01*
X11199673Y-14306976D02*
X11237768Y-14306976D01*
X11256815Y-14297452D01*
X11266339Y-14287928D01*
X11285387Y-14259357D01*
X11294911Y-14221262D01*
X11294911Y-14145071D01*
X11285387Y-14126024D01*
X11275863Y-14116500D01*
X11256815Y-14106976D01*
X11218720Y-14106976D01*
X11199673Y-14116500D01*
X11190149Y-14126024D01*
X11180625Y-14145071D01*
X11180625Y-14192690D01*
X11190149Y-14211738D01*
X11199673Y-14221262D01*
X11218720Y-14230786D01*
X11256815Y-14230786D01*
X11275863Y-14221262D01*
X11285387Y-14211738D01*
X11294911Y-14192690D01*
X11371101Y-14106976D02*
X11371101Y-14145071D01*
X11447292Y-14106976D02*
X11447292Y-14145071D01*
X11742530Y-14383167D02*
X11733006Y-14373643D01*
X11713958Y-14345071D01*
X11704434Y-14326024D01*
X11694911Y-14297452D01*
X11685387Y-14249833D01*
X11685387Y-14211738D01*
X11694911Y-14164119D01*
X11704434Y-14135548D01*
X11713958Y-14116500D01*
X11733006Y-14087928D01*
X11742530Y-14078405D01*
X11809196Y-14126024D02*
X11818720Y-14116500D01*
X11837768Y-14106976D01*
X11885387Y-14106976D01*
X11904434Y-14116500D01*
X11913958Y-14126024D01*
X11923482Y-14145071D01*
X11923482Y-14164119D01*
X11913958Y-14192690D01*
X11799673Y-14306976D01*
X11923482Y-14306976D01*
X12047292Y-14106976D02*
X12066339Y-14106976D01*
X12085387Y-14116500D01*
X12094911Y-14126024D01*
X12104434Y-14145071D01*
X12113958Y-14183167D01*
X12113958Y-14230786D01*
X12104434Y-14268881D01*
X12094911Y-14287928D01*
X12085387Y-14297452D01*
X12066339Y-14306976D01*
X12047292Y-14306976D01*
X12028244Y-14297452D01*
X12018720Y-14287928D01*
X12009196Y-14268881D01*
X11999673Y-14230786D01*
X11999673Y-14183167D01*
X12009196Y-14145071D01*
X12018720Y-14126024D01*
X12028244Y-14116500D01*
X12047292Y-14106976D01*
X12352053Y-14306976D02*
X12352053Y-14106976D01*
X12437768Y-14306976D02*
X12437768Y-14202214D01*
X12428244Y-14183167D01*
X12409196Y-14173643D01*
X12380625Y-14173643D01*
X12361577Y-14183167D01*
X12352053Y-14192690D01*
X12561577Y-14306976D02*
X12542530Y-14297452D01*
X12533006Y-14287928D01*
X12523482Y-14268881D01*
X12523482Y-14211738D01*
X12533006Y-14192690D01*
X12542530Y-14183167D01*
X12561577Y-14173643D01*
X12590149Y-14173643D01*
X12609196Y-14183167D01*
X12618720Y-14192690D01*
X12628244Y-14211738D01*
X12628244Y-14268881D01*
X12618720Y-14287928D01*
X12609196Y-14297452D01*
X12590149Y-14306976D01*
X12561577Y-14306976D01*
X12742530Y-14306976D02*
X12723482Y-14297452D01*
X12713958Y-14278405D01*
X12713958Y-14106976D01*
X12894911Y-14297452D02*
X12875863Y-14306976D01*
X12837768Y-14306976D01*
X12818720Y-14297452D01*
X12809196Y-14278405D01*
X12809196Y-14202214D01*
X12818720Y-14183167D01*
X12837768Y-14173643D01*
X12875863Y-14173643D01*
X12894911Y-14183167D01*
X12904434Y-14202214D01*
X12904434Y-14221262D01*
X12809196Y-14240309D01*
X12980625Y-14297452D02*
X12999673Y-14306976D01*
X13037768Y-14306976D01*
X13056815Y-14297452D01*
X13066339Y-14278405D01*
X13066339Y-14268881D01*
X13056815Y-14249833D01*
X13037768Y-14240309D01*
X13009196Y-14240309D01*
X12990149Y-14230786D01*
X12980625Y-14211738D01*
X12980625Y-14202214D01*
X12990149Y-14183167D01*
X13009196Y-14173643D01*
X13037768Y-14173643D01*
X13056815Y-14183167D01*
X13133006Y-14383167D02*
X13142530Y-14373643D01*
X13161577Y-14345071D01*
X13171101Y-14326024D01*
X13180625Y-14297452D01*
X13190149Y-14249833D01*
X13190149Y-14211738D01*
X13180625Y-14164119D01*
X13171101Y-14135548D01*
X13161577Y-14116500D01*
X13142530Y-14087928D01*
X13133006Y-14078405D01*
X13494911Y-14383167D02*
X13485387Y-14373643D01*
X13466339Y-14345071D01*
X13456815Y-14326024D01*
X13447292Y-14297452D01*
X13437768Y-14249833D01*
X13437768Y-14211738D01*
X13447292Y-14164119D01*
X13456815Y-14135548D01*
X13466339Y-14116500D01*
X13485387Y-14087928D01*
X13494911Y-14078405D01*
X13571101Y-14173643D02*
X13571101Y-14306976D01*
X13571101Y-14192690D02*
X13580625Y-14183167D01*
X13599673Y-14173643D01*
X13628244Y-14173643D01*
X13647292Y-14183167D01*
X13656815Y-14202214D01*
X13656815Y-14306976D01*
X13780625Y-14306976D02*
X13761577Y-14297452D01*
X13752053Y-14287928D01*
X13742530Y-14268881D01*
X13742530Y-14211738D01*
X13752053Y-14192690D01*
X13761577Y-14183167D01*
X13780625Y-14173643D01*
X13809196Y-14173643D01*
X13828244Y-14183167D01*
X13837768Y-14192690D01*
X13847292Y-14211738D01*
X13847292Y-14268881D01*
X13837768Y-14287928D01*
X13828244Y-14297452D01*
X13809196Y-14306976D01*
X13780625Y-14306976D01*
X13904434Y-14173643D02*
X13980625Y-14173643D01*
X13933006Y-14106976D02*
X13933006Y-14278405D01*
X13942530Y-14297452D01*
X13961577Y-14306976D01*
X13980625Y-14306976D01*
X14199673Y-14173643D02*
X14199673Y-14373643D01*
X14199673Y-14183167D02*
X14218720Y-14173643D01*
X14256815Y-14173643D01*
X14275863Y-14183167D01*
X14285387Y-14192690D01*
X14294911Y-14211738D01*
X14294911Y-14268881D01*
X14285387Y-14287928D01*
X14275863Y-14297452D01*
X14256815Y-14306976D01*
X14218720Y-14306976D01*
X14199673Y-14297452D01*
X14409196Y-14306976D02*
X14390149Y-14297452D01*
X14380625Y-14278405D01*
X14380625Y-14106976D01*
X14571101Y-14306976D02*
X14571101Y-14202214D01*
X14561577Y-14183167D01*
X14542530Y-14173643D01*
X14504434Y-14173643D01*
X14485387Y-14183167D01*
X14571101Y-14297452D02*
X14552053Y-14306976D01*
X14504434Y-14306976D01*
X14485387Y-14297452D01*
X14475863Y-14278405D01*
X14475863Y-14259357D01*
X14485387Y-14240309D01*
X14504434Y-14230786D01*
X14552053Y-14230786D01*
X14571101Y-14221262D01*
X14637768Y-14173643D02*
X14713958Y-14173643D01*
X14666339Y-14106976D02*
X14666339Y-14278405D01*
X14675863Y-14297452D01*
X14694911Y-14306976D01*
X14713958Y-14306976D01*
X14856815Y-14297452D02*
X14837768Y-14306976D01*
X14799673Y-14306976D01*
X14780625Y-14297452D01*
X14771101Y-14278405D01*
X14771101Y-14202214D01*
X14780625Y-14183167D01*
X14799673Y-14173643D01*
X14837768Y-14173643D01*
X14856815Y-14183167D01*
X14866339Y-14202214D01*
X14866339Y-14221262D01*
X14771101Y-14240309D01*
X15037768Y-14306976D02*
X15037768Y-14106976D01*
X15037768Y-14297452D02*
X15018720Y-14306976D01*
X14980625Y-14306976D01*
X14961577Y-14297452D01*
X14952053Y-14287928D01*
X14942530Y-14268881D01*
X14942530Y-14211738D01*
X14952053Y-14192690D01*
X14961577Y-14183167D01*
X14980625Y-14173643D01*
X15018720Y-14173643D01*
X15037768Y-14183167D01*
X15113958Y-14383167D02*
X15123482Y-14373643D01*
X15142530Y-14345071D01*
X15152053Y-14326024D01*
X15161577Y-14297452D01*
X15171101Y-14249833D01*
X15171101Y-14211738D01*
X15161577Y-14164119D01*
X15152053Y-14135548D01*
X15142530Y-14116500D01*
X15123482Y-14087928D01*
X15113958Y-14078405D01*
X8141336Y-14582211D02*
X8141336Y-14440789D01*
X7999914Y-14440789D01*
X7999914Y-14582211D01*
X8141336Y-14582211D01*
X8409196Y-14401976D02*
X8533006Y-14401976D01*
X8466339Y-14478167D01*
X8494911Y-14478167D01*
X8513958Y-14487690D01*
X8523482Y-14497214D01*
X8533006Y-14516262D01*
X8533006Y-14563881D01*
X8523482Y-14582928D01*
X8513958Y-14592452D01*
X8494911Y-14601976D01*
X8437768Y-14601976D01*
X8418720Y-14592452D01*
X8409196Y-14582928D01*
X8618720Y-14582928D02*
X8628244Y-14592452D01*
X8618720Y-14601976D01*
X8609196Y-14592452D01*
X8618720Y-14582928D01*
X8618720Y-14601976D01*
X8723482Y-14601976D02*
X8761577Y-14601976D01*
X8780625Y-14592452D01*
X8790149Y-14582928D01*
X8809196Y-14554357D01*
X8818720Y-14516262D01*
X8818720Y-14440071D01*
X8809196Y-14421024D01*
X8799673Y-14411500D01*
X8780625Y-14401976D01*
X8742530Y-14401976D01*
X8723482Y-14411500D01*
X8713958Y-14421024D01*
X8704435Y-14440071D01*
X8704435Y-14487690D01*
X8713958Y-14506738D01*
X8723482Y-14516262D01*
X8742530Y-14525786D01*
X8780625Y-14525786D01*
X8799673Y-14516262D01*
X8809196Y-14506738D01*
X8818720Y-14487690D01*
X8933006Y-14487690D02*
X8913958Y-14478167D01*
X8904435Y-14468643D01*
X8894911Y-14449595D01*
X8894911Y-14440071D01*
X8904435Y-14421024D01*
X8913958Y-14411500D01*
X8933006Y-14401976D01*
X8971101Y-14401976D01*
X8990149Y-14411500D01*
X8999673Y-14421024D01*
X9009196Y-14440071D01*
X9009196Y-14449595D01*
X8999673Y-14468643D01*
X8990149Y-14478167D01*
X8971101Y-14487690D01*
X8933006Y-14487690D01*
X8913958Y-14497214D01*
X8904435Y-14506738D01*
X8894911Y-14525786D01*
X8894911Y-14563881D01*
X8904435Y-14582928D01*
X8913958Y-14592452D01*
X8933006Y-14601976D01*
X8971101Y-14601976D01*
X8990149Y-14592452D01*
X8999673Y-14582928D01*
X9009196Y-14563881D01*
X9009196Y-14525786D01*
X8999673Y-14506738D01*
X8990149Y-14497214D01*
X8971101Y-14487690D01*
X9123482Y-14487690D02*
X9104435Y-14478167D01*
X9094911Y-14468643D01*
X9085387Y-14449595D01*
X9085387Y-14440071D01*
X9094911Y-14421024D01*
X9104435Y-14411500D01*
X9123482Y-14401976D01*
X9161577Y-14401976D01*
X9180625Y-14411500D01*
X9190149Y-14421024D01*
X9199673Y-14440071D01*
X9199673Y-14449595D01*
X9190149Y-14468643D01*
X9180625Y-14478167D01*
X9161577Y-14487690D01*
X9123482Y-14487690D01*
X9104435Y-14497214D01*
X9094911Y-14506738D01*
X9085387Y-14525786D01*
X9085387Y-14563881D01*
X9094911Y-14582928D01*
X9104435Y-14592452D01*
X9123482Y-14601976D01*
X9161577Y-14601976D01*
X9180625Y-14592452D01*
X9190149Y-14582928D01*
X9199673Y-14563881D01*
X9199673Y-14525786D01*
X9190149Y-14506738D01*
X9180625Y-14497214D01*
X9161577Y-14487690D01*
X9285387Y-14601976D02*
X9285387Y-14468643D01*
X9285387Y-14487690D02*
X9294911Y-14478167D01*
X9313958Y-14468643D01*
X9342530Y-14468643D01*
X9361577Y-14478167D01*
X9371101Y-14497214D01*
X9371101Y-14601976D01*
X9371101Y-14497214D02*
X9380625Y-14478167D01*
X9399673Y-14468643D01*
X9428244Y-14468643D01*
X9447292Y-14478167D01*
X9456815Y-14497214D01*
X9456815Y-14601976D01*
X9552054Y-14601976D02*
X9552054Y-14468643D01*
X9552054Y-14487690D02*
X9561577Y-14478167D01*
X9580625Y-14468643D01*
X9609196Y-14468643D01*
X9628244Y-14478167D01*
X9637768Y-14497214D01*
X9637768Y-14601976D01*
X9637768Y-14497214D02*
X9647292Y-14478167D01*
X9666339Y-14468643D01*
X9694911Y-14468643D01*
X9713958Y-14478167D01*
X9723482Y-14497214D01*
X9723482Y-14601976D01*
X10113958Y-14392452D02*
X9942530Y-14649595D01*
X10371101Y-14401976D02*
X10390149Y-14401976D01*
X10409196Y-14411500D01*
X10418720Y-14421024D01*
X10428244Y-14440071D01*
X10437768Y-14478167D01*
X10437768Y-14525786D01*
X10428244Y-14563881D01*
X10418720Y-14582928D01*
X10409196Y-14592452D01*
X10390149Y-14601976D01*
X10371101Y-14601976D01*
X10352054Y-14592452D01*
X10342530Y-14582928D01*
X10333006Y-14563881D01*
X10323482Y-14525786D01*
X10323482Y-14478167D01*
X10333006Y-14440071D01*
X10342530Y-14421024D01*
X10352054Y-14411500D01*
X10371101Y-14401976D01*
X10523482Y-14582928D02*
X10533006Y-14592452D01*
X10523482Y-14601976D01*
X10513958Y-14592452D01*
X10523482Y-14582928D01*
X10523482Y-14601976D01*
X10723482Y-14601976D02*
X10609196Y-14601976D01*
X10666339Y-14601976D02*
X10666339Y-14401976D01*
X10647292Y-14430548D01*
X10628244Y-14449595D01*
X10609196Y-14459119D01*
X10904435Y-14401976D02*
X10809196Y-14401976D01*
X10799673Y-14497214D01*
X10809196Y-14487690D01*
X10828244Y-14478167D01*
X10875863Y-14478167D01*
X10894911Y-14487690D01*
X10904435Y-14497214D01*
X10913958Y-14516262D01*
X10913958Y-14563881D01*
X10904435Y-14582928D01*
X10894911Y-14592452D01*
X10875863Y-14601976D01*
X10828244Y-14601976D01*
X10809196Y-14592452D01*
X10799673Y-14582928D01*
X10980625Y-14401976D02*
X11113958Y-14401976D01*
X11028244Y-14601976D01*
X11228244Y-14401976D02*
X11247292Y-14401976D01*
X11266339Y-14411500D01*
X11275863Y-14421024D01*
X11285387Y-14440071D01*
X11294911Y-14478167D01*
X11294911Y-14525786D01*
X11285387Y-14563881D01*
X11275863Y-14582928D01*
X11266339Y-14592452D01*
X11247292Y-14601976D01*
X11228244Y-14601976D01*
X11209196Y-14592452D01*
X11199673Y-14582928D01*
X11190149Y-14563881D01*
X11180625Y-14525786D01*
X11180625Y-14478167D01*
X11190149Y-14440071D01*
X11199673Y-14421024D01*
X11209196Y-14411500D01*
X11228244Y-14401976D01*
X11371101Y-14401976D02*
X11371101Y-14440071D01*
X11447292Y-14401976D02*
X11447292Y-14440071D01*
X11742530Y-14678167D02*
X11733006Y-14668643D01*
X11713958Y-14640071D01*
X11704434Y-14621024D01*
X11694911Y-14592452D01*
X11685387Y-14544833D01*
X11685387Y-14506738D01*
X11694911Y-14459119D01*
X11704434Y-14430548D01*
X11713958Y-14411500D01*
X11733006Y-14382928D01*
X11742530Y-14373405D01*
X11923482Y-14601976D02*
X11809196Y-14601976D01*
X11866339Y-14601976D02*
X11866339Y-14401976D01*
X11847292Y-14430548D01*
X11828244Y-14449595D01*
X11809196Y-14459119D01*
X12047292Y-14401976D02*
X12066339Y-14401976D01*
X12085387Y-14411500D01*
X12094911Y-14421024D01*
X12104434Y-14440071D01*
X12113958Y-14478167D01*
X12113958Y-14525786D01*
X12104434Y-14563881D01*
X12094911Y-14582928D01*
X12085387Y-14592452D01*
X12066339Y-14601976D01*
X12047292Y-14601976D01*
X12028244Y-14592452D01*
X12018720Y-14582928D01*
X12009196Y-14563881D01*
X11999673Y-14525786D01*
X11999673Y-14478167D01*
X12009196Y-14440071D01*
X12018720Y-14421024D01*
X12028244Y-14411500D01*
X12047292Y-14401976D01*
X12352053Y-14601976D02*
X12352053Y-14401976D01*
X12437768Y-14601976D02*
X12437768Y-14497214D01*
X12428244Y-14478167D01*
X12409196Y-14468643D01*
X12380625Y-14468643D01*
X12361577Y-14478167D01*
X12352053Y-14487690D01*
X12561577Y-14601976D02*
X12542530Y-14592452D01*
X12533006Y-14582928D01*
X12523482Y-14563881D01*
X12523482Y-14506738D01*
X12533006Y-14487690D01*
X12542530Y-14478167D01*
X12561577Y-14468643D01*
X12590149Y-14468643D01*
X12609196Y-14478167D01*
X12618720Y-14487690D01*
X12628244Y-14506738D01*
X12628244Y-14563881D01*
X12618720Y-14582928D01*
X12609196Y-14592452D01*
X12590149Y-14601976D01*
X12561577Y-14601976D01*
X12742530Y-14601976D02*
X12723482Y-14592452D01*
X12713958Y-14573405D01*
X12713958Y-14401976D01*
X12894911Y-14592452D02*
X12875863Y-14601976D01*
X12837768Y-14601976D01*
X12818720Y-14592452D01*
X12809196Y-14573405D01*
X12809196Y-14497214D01*
X12818720Y-14478167D01*
X12837768Y-14468643D01*
X12875863Y-14468643D01*
X12894911Y-14478167D01*
X12904434Y-14497214D01*
X12904434Y-14516262D01*
X12809196Y-14535309D01*
X12980625Y-14592452D02*
X12999673Y-14601976D01*
X13037768Y-14601976D01*
X13056815Y-14592452D01*
X13066339Y-14573405D01*
X13066339Y-14563881D01*
X13056815Y-14544833D01*
X13037768Y-14535309D01*
X13009196Y-14535309D01*
X12990149Y-14525786D01*
X12980625Y-14506738D01*
X12980625Y-14497214D01*
X12990149Y-14478167D01*
X13009196Y-14468643D01*
X13037768Y-14468643D01*
X13056815Y-14478167D01*
X13133006Y-14678167D02*
X13142530Y-14668643D01*
X13161577Y-14640071D01*
X13171101Y-14621024D01*
X13180625Y-14592452D01*
X13190149Y-14544833D01*
X13190149Y-14506738D01*
X13180625Y-14459119D01*
X13171101Y-14430548D01*
X13161577Y-14411500D01*
X13142530Y-14382928D01*
X13133006Y-14373405D01*
X13494911Y-14678167D02*
X13485387Y-14668643D01*
X13466339Y-14640071D01*
X13456815Y-14621024D01*
X13447292Y-14592452D01*
X13437768Y-14544833D01*
X13437768Y-14506738D01*
X13447292Y-14459119D01*
X13456815Y-14430548D01*
X13466339Y-14411500D01*
X13485387Y-14382928D01*
X13494911Y-14373405D01*
X13571101Y-14468643D02*
X13571101Y-14601976D01*
X13571101Y-14487690D02*
X13580625Y-14478167D01*
X13599673Y-14468643D01*
X13628244Y-14468643D01*
X13647292Y-14478167D01*
X13656815Y-14497214D01*
X13656815Y-14601976D01*
X13780625Y-14601976D02*
X13761577Y-14592452D01*
X13752053Y-14582928D01*
X13742530Y-14563881D01*
X13742530Y-14506738D01*
X13752053Y-14487690D01*
X13761577Y-14478167D01*
X13780625Y-14468643D01*
X13809196Y-14468643D01*
X13828244Y-14478167D01*
X13837768Y-14487690D01*
X13847292Y-14506738D01*
X13847292Y-14563881D01*
X13837768Y-14582928D01*
X13828244Y-14592452D01*
X13809196Y-14601976D01*
X13780625Y-14601976D01*
X13904434Y-14468643D02*
X13980625Y-14468643D01*
X13933006Y-14401976D02*
X13933006Y-14573405D01*
X13942530Y-14592452D01*
X13961577Y-14601976D01*
X13980625Y-14601976D01*
X14199673Y-14468643D02*
X14199673Y-14668643D01*
X14199673Y-14478167D02*
X14218720Y-14468643D01*
X14256815Y-14468643D01*
X14275863Y-14478167D01*
X14285387Y-14487690D01*
X14294911Y-14506738D01*
X14294911Y-14563881D01*
X14285387Y-14582928D01*
X14275863Y-14592452D01*
X14256815Y-14601976D01*
X14218720Y-14601976D01*
X14199673Y-14592452D01*
X14409196Y-14601976D02*
X14390149Y-14592452D01*
X14380625Y-14573405D01*
X14380625Y-14401976D01*
X14571101Y-14601976D02*
X14571101Y-14497214D01*
X14561577Y-14478167D01*
X14542530Y-14468643D01*
X14504434Y-14468643D01*
X14485387Y-14478167D01*
X14571101Y-14592452D02*
X14552053Y-14601976D01*
X14504434Y-14601976D01*
X14485387Y-14592452D01*
X14475863Y-14573405D01*
X14475863Y-14554357D01*
X14485387Y-14535309D01*
X14504434Y-14525786D01*
X14552053Y-14525786D01*
X14571101Y-14516262D01*
X14637768Y-14468643D02*
X14713958Y-14468643D01*
X14666339Y-14401976D02*
X14666339Y-14573405D01*
X14675863Y-14592452D01*
X14694911Y-14601976D01*
X14713958Y-14601976D01*
X14856815Y-14592452D02*
X14837768Y-14601976D01*
X14799673Y-14601976D01*
X14780625Y-14592452D01*
X14771101Y-14573405D01*
X14771101Y-14497214D01*
X14780625Y-14478167D01*
X14799673Y-14468643D01*
X14837768Y-14468643D01*
X14856815Y-14478167D01*
X14866339Y-14497214D01*
X14866339Y-14516262D01*
X14771101Y-14535309D01*
X15037768Y-14601976D02*
X15037768Y-14401976D01*
X15037768Y-14592452D02*
X15018720Y-14601976D01*
X14980625Y-14601976D01*
X14961577Y-14592452D01*
X14952053Y-14582928D01*
X14942530Y-14563881D01*
X14942530Y-14506738D01*
X14952053Y-14487690D01*
X14961577Y-14478167D01*
X14980625Y-14468643D01*
X15018720Y-14468643D01*
X15037768Y-14478167D01*
X15113958Y-14678167D02*
X15123482Y-14668643D01*
X15142530Y-14640071D01*
X15152053Y-14621024D01*
X15161577Y-14592452D01*
X15171101Y-14544833D01*
X15171101Y-14506738D01*
X15161577Y-14459119D01*
X15152053Y-14430548D01*
X15142530Y-14411500D01*
X15123482Y-14382928D01*
X15113958Y-14373405D01*
M02*
