%TF.GenerationSoftware,KiCad,Pcbnew,(6.0.8)*%
%TF.CreationDate,2023-02-07T03:37:02-07:00*%
%TF.ProjectId,pcb,7063622e-6b69-4636-9164-5f7063625858,rev?*%
%TF.SameCoordinates,Original*%
%TF.FileFunction,Drillmap*%
%TF.FilePolarity,Positive*%
%FSLAX45Y45*%
G04 Gerber Fmt 4.5, Leading zero omitted, Abs format (unit mm)*
G04 Created by KiCad (PCBNEW (6.0.8)) date 2023-02-07 03:37:02*
%MOMM*%
%LPD*%
G01*
G04 APERTURE LIST*
%ADD10C,0.100000*%
%ADD11C,0.200000*%
%ADD12C,0.040000*%
%ADD13C,0.099000*%
%ADD14C,0.099060*%
%ADD15C,0.102000*%
%ADD16C,0.120000*%
%ADD17C,0.130000*%
%ADD18C,0.147000*%
G04 APERTURE END LIST*
D10*
X8413750Y-5953125D02*
X20002500Y-5953125D01*
X8175625Y-12779375D02*
X8175625Y-6191250D01*
X8413750Y-5953125D02*
G75*
G03*
X8175625Y-6191250I0J-238125D01*
G01*
X20240625Y-6191250D02*
G75*
G03*
X20002500Y-5953125I-238125J0D01*
G01*
X20002500Y-13017500D02*
X8413750Y-13017500D01*
X8175620Y-12779375D02*
G75*
G03*
X8413750Y-13017500I238130J5D01*
G01*
X20240625Y-6191250D02*
X20240625Y-12779375D01*
X20002500Y-13017495D02*
G75*
G03*
X20240625Y-12779375I0J238125D01*
G01*
D11*
D12*
X8438200Y-12121200D02*
X8478200Y-12161200D01*
X8478200Y-12121200D02*
X8438200Y-12161200D01*
X8616000Y-9479600D02*
X8656000Y-9519600D01*
X8656000Y-9479600D02*
X8616000Y-9519600D01*
X9098600Y-12502200D02*
X9138600Y-12542200D01*
X9138600Y-12502200D02*
X9098600Y-12542200D01*
X9251000Y-6253800D02*
X9291000Y-6293800D01*
X9291000Y-6253800D02*
X9251000Y-6293800D01*
X9454200Y-8489000D02*
X9494200Y-8529000D01*
X9494200Y-8489000D02*
X9454200Y-8529000D01*
X9987600Y-11918000D02*
X10027600Y-11958000D01*
X10027600Y-11918000D02*
X9987600Y-11958000D01*
X10749600Y-9809800D02*
X10789600Y-9849800D01*
X10789600Y-9809800D02*
X10749600Y-9849800D01*
X10876600Y-8793800D02*
X10916600Y-8833800D01*
X10916600Y-8793800D02*
X10876600Y-8833800D01*
X11156000Y-8514400D02*
X11196000Y-8554400D01*
X11196000Y-8514400D02*
X11156000Y-8554400D01*
X11886250Y-9981250D02*
X11926250Y-10021250D01*
X11926250Y-9981250D02*
X11886250Y-10021250D01*
X12045000Y-10140000D02*
X12085000Y-10180000D01*
X12085000Y-10140000D02*
X12045000Y-10180000D01*
X12362500Y-9505000D02*
X12402500Y-9545000D01*
X12402500Y-9505000D02*
X12362500Y-9545000D01*
X12508700Y-9676300D02*
X12548700Y-9716300D01*
X12548700Y-9676300D02*
X12508700Y-9716300D01*
X12654600Y-7879400D02*
X12694600Y-7919400D01*
X12694600Y-7879400D02*
X12654600Y-7919400D01*
X13340400Y-12019600D02*
X13380400Y-12059600D01*
X13380400Y-12019600D02*
X13340400Y-12059600D01*
X14229400Y-9505000D02*
X14269400Y-9545000D01*
X14269400Y-9505000D02*
X14229400Y-9545000D01*
X14229400Y-9676300D02*
X14269400Y-9716300D01*
X14269400Y-9676300D02*
X14229400Y-9716300D01*
X14229400Y-9901875D02*
X14269400Y-9941875D01*
X14269400Y-9901875D02*
X14229400Y-9941875D01*
X14229400Y-10060625D02*
X14269400Y-10100625D01*
X14269400Y-10060625D02*
X14229400Y-10100625D01*
X14280200Y-8920800D02*
X14320200Y-8960800D01*
X14320200Y-8920800D02*
X14280200Y-8960800D01*
X14483400Y-12527600D02*
X14523400Y-12567600D01*
X14523400Y-12527600D02*
X14483400Y-12567600D01*
X14635800Y-6126800D02*
X14675800Y-6166800D01*
X14675800Y-6126800D02*
X14635800Y-6166800D01*
X14915200Y-8920800D02*
X14955200Y-8960800D01*
X14955200Y-8920800D02*
X14915200Y-8960800D01*
X17283750Y-8155625D02*
X17323750Y-8195625D01*
X17323750Y-8155625D02*
X17283750Y-8195625D01*
X17283750Y-8314375D02*
X17323750Y-8354375D01*
X17323750Y-8314375D02*
X17283750Y-8354375D01*
X17988600Y-8692200D02*
X18028600Y-8732200D01*
X18028600Y-8692200D02*
X17988600Y-8732200D01*
X18471200Y-11689400D02*
X18511200Y-11729400D01*
X18511200Y-11689400D02*
X18471200Y-11729400D01*
X18496600Y-7391720D02*
X18536600Y-7431720D01*
X18536600Y-7391720D02*
X18496600Y-7431720D01*
X20046000Y-12248200D02*
X20086000Y-12288200D01*
X20086000Y-12248200D02*
X20046000Y-12288200D01*
X20071400Y-6939600D02*
X20111400Y-6979600D01*
X20111400Y-6939600D02*
X20071400Y-6979600D01*
D13*
X19937700Y-8744800D02*
G75*
G03*
X19937700Y-8744800I-49500J0D01*
G01*
X19937700Y-9194800D02*
G75*
G03*
X19937700Y-9194800I-49500J0D01*
G01*
X19941050Y-9861300D02*
G75*
G03*
X19941050Y-9861300I-49500J0D01*
G01*
X19941050Y-10311300D02*
G75*
G03*
X19941050Y-10311300I-49500J0D01*
G01*
D14*
X9073525Y-8078470D02*
X9073525Y-8177530D01*
X9023995Y-8128000D02*
X9123055Y-8128000D01*
X9073525Y-11888470D02*
X9073525Y-11987530D01*
X9023995Y-11938000D02*
X9123055Y-11938000D01*
X9327525Y-8078470D02*
X9327525Y-8177530D01*
X9277995Y-8128000D02*
X9377055Y-8128000D01*
X9327525Y-11888470D02*
X9327525Y-11987530D01*
X9277995Y-11938000D02*
X9377055Y-11938000D01*
X10978525Y-9983470D02*
X10978525Y-10082530D01*
X10928995Y-10033000D02*
X11028055Y-10033000D01*
X11232525Y-9983470D02*
X11232525Y-10082530D01*
X11182995Y-10033000D02*
X11282055Y-10033000D01*
X12883525Y-8078470D02*
X12883525Y-8177530D01*
X12833995Y-8128000D02*
X12933055Y-8128000D01*
X12890500Y-11888470D02*
X12890500Y-11987530D01*
X12840970Y-11938000D02*
X12940030Y-11938000D01*
X13137525Y-8078470D02*
X13137525Y-8177530D01*
X13087995Y-8128000D02*
X13187055Y-8128000D01*
X13144500Y-11888470D02*
X13144500Y-11987530D01*
X13094970Y-11938000D02*
X13194030Y-11938000D01*
X15271750Y-8078470D02*
X15271750Y-8177530D01*
X15222220Y-8128000D02*
X15321280Y-8128000D01*
X15271750Y-11888470D02*
X15271750Y-11987530D01*
X15222220Y-11938000D02*
X15321280Y-11938000D01*
X15525750Y-8078470D02*
X15525750Y-8177530D01*
X15476220Y-8128000D02*
X15575280Y-8128000D01*
X15525750Y-11888470D02*
X15525750Y-11987530D01*
X15476220Y-11938000D02*
X15575280Y-11938000D01*
X17176750Y-9983470D02*
X17176750Y-10082530D01*
X17127220Y-10033000D02*
X17226280Y-10033000D01*
X17430750Y-9983470D02*
X17430750Y-10082530D01*
X17381220Y-10033000D02*
X17480280Y-10033000D01*
X19081750Y-8078470D02*
X19081750Y-8177530D01*
X19032220Y-8128000D02*
X19131280Y-8128000D01*
X19081750Y-11888470D02*
X19081750Y-11987530D01*
X19032220Y-11938000D02*
X19131280Y-11938000D01*
X19335750Y-8078470D02*
X19335750Y-8177530D01*
X19286220Y-8128000D02*
X19385280Y-8128000D01*
X19335750Y-11888470D02*
X19335750Y-11987530D01*
X19286220Y-11938000D02*
X19385280Y-11938000D01*
D10*
X8972981Y-9560356D02*
X8972981Y-9489644D01*
X8902269Y-9489644D01*
X8902269Y-9560356D01*
X8972981Y-9560356D01*
X9226981Y-9560356D02*
X9226981Y-9489644D01*
X9156269Y-9489644D01*
X9156269Y-9560356D01*
X9226981Y-9560356D01*
X9480981Y-9560356D02*
X9480981Y-9489644D01*
X9410269Y-9489644D01*
X9410269Y-9560356D01*
X9480981Y-9560356D01*
X17105656Y-12227356D02*
X17105656Y-12156644D01*
X17034944Y-12156644D01*
X17034944Y-12227356D01*
X17105656Y-12227356D01*
X17359656Y-12227356D02*
X17359656Y-12156644D01*
X17288944Y-12156644D01*
X17288944Y-12227356D01*
X17359656Y-12227356D01*
X17613656Y-12227356D02*
X17613656Y-12156644D01*
X17542944Y-12156644D01*
X17542944Y-12227356D01*
X17613656Y-12227356D01*
D15*
X16407775Y-6191300D02*
X16458775Y-6140300D01*
X16407775Y-6089300D01*
X16356775Y-6140300D01*
X16407775Y-6191300D01*
X16407775Y-6445300D02*
X16458775Y-6394300D01*
X16407775Y-6343300D01*
X16356775Y-6394300D01*
X16407775Y-6445300D01*
X16407775Y-6699300D02*
X16458775Y-6648300D01*
X16407775Y-6597300D01*
X16356775Y-6648300D01*
X16407775Y-6699300D01*
X16407775Y-6953300D02*
X16458775Y-6902300D01*
X16407775Y-6851300D01*
X16356775Y-6902300D01*
X16407775Y-6953300D01*
X16407775Y-7207300D02*
X16458775Y-7156300D01*
X16407775Y-7105300D01*
X16356775Y-7156300D01*
X16407775Y-7207300D01*
X16407775Y-7461300D02*
X16458775Y-7410300D01*
X16407775Y-7359300D01*
X16356775Y-7410300D01*
X16407775Y-7461300D01*
X16407775Y-7715300D02*
X16458775Y-7664300D01*
X16407775Y-7613300D01*
X16356775Y-7664300D01*
X16407775Y-7715300D01*
X16407775Y-7969300D02*
X16458775Y-7918300D01*
X16407775Y-7867300D01*
X16356775Y-7918300D01*
X16407775Y-7969300D01*
X16407775Y-8223300D02*
X16458775Y-8172300D01*
X16407775Y-8121300D01*
X16356775Y-8172300D01*
X16407775Y-8223300D01*
X16407775Y-8477300D02*
X16458775Y-8426300D01*
X16407775Y-8375300D01*
X16356775Y-8426300D01*
X16407775Y-8477300D01*
X16407775Y-8731300D02*
X16458775Y-8680300D01*
X16407775Y-8629300D01*
X16356775Y-8680300D01*
X16407775Y-8731300D01*
X16407775Y-8985300D02*
X16458775Y-8934300D01*
X16407775Y-8883300D01*
X16356775Y-8934300D01*
X16407775Y-8985300D01*
X16407775Y-9239300D02*
X16458775Y-9188300D01*
X16407775Y-9137300D01*
X16356775Y-9188300D01*
X16407775Y-9239300D01*
X16407775Y-9493300D02*
X16458775Y-9442300D01*
X16407775Y-9391300D01*
X16356775Y-9442300D01*
X16407775Y-9493300D01*
X16407775Y-9747300D02*
X16458775Y-9696300D01*
X16407775Y-9645300D01*
X16356775Y-9696300D01*
X16407775Y-9747300D01*
X16407775Y-10001300D02*
X16458775Y-9950300D01*
X16407775Y-9899300D01*
X16356775Y-9950300D01*
X16407775Y-10001300D01*
X16407775Y-10255300D02*
X16458775Y-10204300D01*
X16407775Y-10153300D01*
X16356775Y-10204300D01*
X16407775Y-10255300D01*
X16407775Y-10509300D02*
X16458775Y-10458300D01*
X16407775Y-10407300D01*
X16356775Y-10458300D01*
X16407775Y-10509300D01*
X16407775Y-10763300D02*
X16458775Y-10712300D01*
X16407775Y-10661300D01*
X16356775Y-10712300D01*
X16407775Y-10763300D01*
X16407775Y-11017300D02*
X16458775Y-10966300D01*
X16407775Y-10915300D01*
X16356775Y-10966300D01*
X16407775Y-11017300D01*
X18185775Y-6191300D02*
X18236775Y-6140300D01*
X18185775Y-6089300D01*
X18134775Y-6140300D01*
X18185775Y-6191300D01*
X18185775Y-6445300D02*
X18236775Y-6394300D01*
X18185775Y-6343300D01*
X18134775Y-6394300D01*
X18185775Y-6445300D01*
X18185775Y-6699300D02*
X18236775Y-6648300D01*
X18185775Y-6597300D01*
X18134775Y-6648300D01*
X18185775Y-6699300D01*
X18185775Y-6953300D02*
X18236775Y-6902300D01*
X18185775Y-6851300D01*
X18134775Y-6902300D01*
X18185775Y-6953300D01*
X18185775Y-7207300D02*
X18236775Y-7156300D01*
X18185775Y-7105300D01*
X18134775Y-7156300D01*
X18185775Y-7207300D01*
X18185775Y-7461300D02*
X18236775Y-7410300D01*
X18185775Y-7359300D01*
X18134775Y-7410300D01*
X18185775Y-7461300D01*
X18185775Y-7715300D02*
X18236775Y-7664300D01*
X18185775Y-7613300D01*
X18134775Y-7664300D01*
X18185775Y-7715300D01*
X18185775Y-7969300D02*
X18236775Y-7918300D01*
X18185775Y-7867300D01*
X18134775Y-7918300D01*
X18185775Y-7969300D01*
X18185775Y-8223300D02*
X18236775Y-8172300D01*
X18185775Y-8121300D01*
X18134775Y-8172300D01*
X18185775Y-8223300D01*
X18185775Y-8477300D02*
X18236775Y-8426300D01*
X18185775Y-8375300D01*
X18134775Y-8426300D01*
X18185775Y-8477300D01*
X18185775Y-8731300D02*
X18236775Y-8680300D01*
X18185775Y-8629300D01*
X18134775Y-8680300D01*
X18185775Y-8731300D01*
X18185775Y-8985300D02*
X18236775Y-8934300D01*
X18185775Y-8883300D01*
X18134775Y-8934300D01*
X18185775Y-8985300D01*
X18185775Y-9239300D02*
X18236775Y-9188300D01*
X18185775Y-9137300D01*
X18134775Y-9188300D01*
X18185775Y-9239300D01*
X18185775Y-9493300D02*
X18236775Y-9442300D01*
X18185775Y-9391300D01*
X18134775Y-9442300D01*
X18185775Y-9493300D01*
X18185775Y-9747300D02*
X18236775Y-9696300D01*
X18185775Y-9645300D01*
X18134775Y-9696300D01*
X18185775Y-9747300D01*
X18185775Y-10001300D02*
X18236775Y-9950300D01*
X18185775Y-9899300D01*
X18134775Y-9950300D01*
X18185775Y-10001300D01*
X18185775Y-10255300D02*
X18236775Y-10204300D01*
X18185775Y-10153300D01*
X18134775Y-10204300D01*
X18185775Y-10255300D01*
X18185775Y-10509300D02*
X18236775Y-10458300D01*
X18185775Y-10407300D01*
X18134775Y-10458300D01*
X18185775Y-10509300D01*
X18185775Y-10763300D02*
X18236775Y-10712300D01*
X18185775Y-10661300D01*
X18134775Y-10712300D01*
X18185775Y-10763300D01*
X18185775Y-11017300D02*
X18236775Y-10966300D01*
X18185775Y-10915300D01*
X18134775Y-10966300D01*
X18185775Y-11017300D01*
D16*
X9140525Y-6970000D02*
X9260525Y-7090000D01*
X9260525Y-6970000D02*
X9140525Y-7090000D01*
X9260525Y-7030000D02*
G75*
G03*
X9260525Y-7030000I-60000J0D01*
G01*
X9140525Y-10780000D02*
X9260525Y-10900000D01*
X9260525Y-10780000D02*
X9140525Y-10900000D01*
X9260525Y-10840000D02*
G75*
G03*
X9260525Y-10840000I-60000J0D01*
G01*
X9640525Y-7180000D02*
X9760525Y-7300000D01*
X9760525Y-7180000D02*
X9640525Y-7300000D01*
X9760525Y-7240000D02*
G75*
G03*
X9760525Y-7240000I-60000J0D01*
G01*
X9640525Y-10990000D02*
X9760525Y-11110000D01*
X9760525Y-10990000D02*
X9640525Y-11110000D01*
X9760525Y-11050000D02*
G75*
G03*
X9760525Y-11050000I-60000J0D01*
G01*
X11045525Y-8875000D02*
X11165525Y-8995000D01*
X11165525Y-8875000D02*
X11045525Y-8995000D01*
X11165525Y-8935000D02*
G75*
G03*
X11165525Y-8935000I-60000J0D01*
G01*
X11545525Y-9085000D02*
X11665525Y-9205000D01*
X11665525Y-9085000D02*
X11545525Y-9205000D01*
X11665525Y-9145000D02*
G75*
G03*
X11665525Y-9145000I-60000J0D01*
G01*
X12950525Y-6970000D02*
X13070525Y-7090000D01*
X13070525Y-6970000D02*
X12950525Y-7090000D01*
X13070525Y-7030000D02*
G75*
G03*
X13070525Y-7030000I-60000J0D01*
G01*
X12957500Y-10780000D02*
X13077500Y-10900000D01*
X13077500Y-10780000D02*
X12957500Y-10900000D01*
X13077500Y-10840000D02*
G75*
G03*
X13077500Y-10840000I-60000J0D01*
G01*
X13450525Y-7180000D02*
X13570525Y-7300000D01*
X13570525Y-7180000D02*
X13450525Y-7300000D01*
X13570525Y-7240000D02*
G75*
G03*
X13570525Y-7240000I-60000J0D01*
G01*
X13457500Y-10990000D02*
X13577500Y-11110000D01*
X13577500Y-10990000D02*
X13457500Y-11110000D01*
X13577500Y-11050000D02*
G75*
G03*
X13577500Y-11050000I-60000J0D01*
G01*
X15338750Y-6970000D02*
X15458750Y-7090000D01*
X15458750Y-6970000D02*
X15338750Y-7090000D01*
X15458750Y-7030000D02*
G75*
G03*
X15458750Y-7030000I-60000J0D01*
G01*
X15338750Y-10780000D02*
X15458750Y-10900000D01*
X15458750Y-10780000D02*
X15338750Y-10900000D01*
X15458750Y-10840000D02*
G75*
G03*
X15458750Y-10840000I-60000J0D01*
G01*
X15838750Y-7180000D02*
X15958750Y-7300000D01*
X15958750Y-7180000D02*
X15838750Y-7300000D01*
X15958750Y-7240000D02*
G75*
G03*
X15958750Y-7240000I-60000J0D01*
G01*
X15838750Y-10990000D02*
X15958750Y-11110000D01*
X15958750Y-10990000D02*
X15838750Y-11110000D01*
X15958750Y-11050000D02*
G75*
G03*
X15958750Y-11050000I-60000J0D01*
G01*
X17243750Y-8875000D02*
X17363750Y-8995000D01*
X17363750Y-8875000D02*
X17243750Y-8995000D01*
X17363750Y-8935000D02*
G75*
G03*
X17363750Y-8935000I-60000J0D01*
G01*
X17743750Y-9085000D02*
X17863750Y-9205000D01*
X17863750Y-9085000D02*
X17743750Y-9205000D01*
X17863750Y-9145000D02*
G75*
G03*
X17863750Y-9145000I-60000J0D01*
G01*
X19148750Y-6970000D02*
X19268750Y-7090000D01*
X19268750Y-6970000D02*
X19148750Y-7090000D01*
X19268750Y-7030000D02*
G75*
G03*
X19268750Y-7030000I-60000J0D01*
G01*
X19148750Y-10780000D02*
X19268750Y-10900000D01*
X19268750Y-10780000D02*
X19148750Y-10900000D01*
X19268750Y-10840000D02*
G75*
G03*
X19268750Y-10840000I-60000J0D01*
G01*
X19648750Y-7180000D02*
X19768750Y-7300000D01*
X19768750Y-7180000D02*
X19648750Y-7300000D01*
X19768750Y-7240000D02*
G75*
G03*
X19768750Y-7240000I-60000J0D01*
G01*
X19648750Y-10990000D02*
X19768750Y-11110000D01*
X19768750Y-10990000D02*
X19648750Y-11110000D01*
X19768750Y-11050000D02*
G75*
G03*
X19768750Y-11050000I-60000J0D01*
G01*
D17*
X19574200Y-8553800D02*
X19704200Y-8683800D01*
X19704200Y-8553800D02*
X19574200Y-8683800D01*
X19639200Y-8553800D02*
X19639200Y-8683800D01*
X19574200Y-8618800D02*
X19704200Y-8618800D01*
X19574200Y-9254800D02*
X19704200Y-9384800D01*
X19704200Y-9254800D02*
X19574200Y-9384800D01*
X19639200Y-9254800D02*
X19639200Y-9384800D01*
X19574200Y-9319800D02*
X19704200Y-9319800D01*
X19577550Y-9670300D02*
X19707550Y-9800300D01*
X19707550Y-9670300D02*
X19577550Y-9800300D01*
X19642550Y-9670300D02*
X19642550Y-9800300D01*
X19577550Y-9735300D02*
X19707550Y-9735300D01*
X19577550Y-10371300D02*
X19707550Y-10501300D01*
X19707550Y-10371300D02*
X19577550Y-10501300D01*
X19642550Y-10371300D02*
X19642550Y-10501300D01*
X19577550Y-10436300D02*
X19707550Y-10436300D01*
D18*
X8746025Y-7292500D02*
X8893025Y-7439500D01*
X8893025Y-7292500D02*
X8746025Y-7439500D01*
X8871498Y-7417973D02*
X8871498Y-7314027D01*
X8767552Y-7314027D01*
X8767552Y-7417973D01*
X8871498Y-7417973D01*
X8746025Y-11102500D02*
X8893025Y-11249500D01*
X8893025Y-11102500D02*
X8746025Y-11249500D01*
X8871498Y-11227973D02*
X8871498Y-11124027D01*
X8767552Y-11124027D01*
X8767552Y-11227973D01*
X8871498Y-11227973D01*
X8877025Y-7146500D02*
X9024025Y-7293500D01*
X9024025Y-7146500D02*
X8877025Y-7293500D01*
X9002498Y-7271973D02*
X9002498Y-7168027D01*
X8898552Y-7168027D01*
X8898552Y-7271973D01*
X9002498Y-7271973D01*
X8877025Y-10956500D02*
X9024025Y-11103500D01*
X9024025Y-10956500D02*
X8877025Y-11103500D01*
X9002498Y-11081973D02*
X9002498Y-10978027D01*
X8898552Y-10978027D01*
X8898552Y-11081973D01*
X9002498Y-11081973D01*
X9377025Y-7096500D02*
X9524025Y-7243500D01*
X9524025Y-7096500D02*
X9377025Y-7243500D01*
X9502498Y-7221973D02*
X9502498Y-7118027D01*
X9398552Y-7118027D01*
X9398552Y-7221973D01*
X9502498Y-7221973D01*
X9377025Y-10906500D02*
X9524025Y-11053500D01*
X9524025Y-10906500D02*
X9377025Y-11053500D01*
X9502498Y-11031973D02*
X9502498Y-10928027D01*
X9398552Y-10928027D01*
X9398552Y-11031973D01*
X9502498Y-11031973D01*
X9381025Y-7038500D02*
X9528025Y-7185500D01*
X9528025Y-7038500D02*
X9381025Y-7185500D01*
X9506498Y-7163973D02*
X9506498Y-7060027D01*
X9402552Y-7060027D01*
X9402552Y-7163973D01*
X9506498Y-7163973D01*
X9381025Y-10848500D02*
X9528025Y-10995500D01*
X9528025Y-10848500D02*
X9381025Y-10995500D01*
X9506498Y-10973973D02*
X9506498Y-10870027D01*
X9402552Y-10870027D01*
X9402552Y-10973973D01*
X9506498Y-10973973D01*
X10651025Y-9197500D02*
X10798025Y-9344500D01*
X10798025Y-9197500D02*
X10651025Y-9344500D01*
X10776498Y-9322973D02*
X10776498Y-9219027D01*
X10672552Y-9219027D01*
X10672552Y-9322973D01*
X10776498Y-9322973D01*
X10782025Y-9051500D02*
X10929025Y-9198500D01*
X10929025Y-9051500D02*
X10782025Y-9198500D01*
X10907498Y-9176973D02*
X10907498Y-9073027D01*
X10803552Y-9073027D01*
X10803552Y-9176973D01*
X10907498Y-9176973D01*
X11282025Y-9001500D02*
X11429025Y-9148500D01*
X11429025Y-9001500D02*
X11282025Y-9148500D01*
X11407498Y-9126973D02*
X11407498Y-9023027D01*
X11303552Y-9023027D01*
X11303552Y-9126973D01*
X11407498Y-9126973D01*
X11286025Y-8943500D02*
X11433025Y-9090500D01*
X11433025Y-8943500D02*
X11286025Y-9090500D01*
X11411498Y-9068973D02*
X11411498Y-8965027D01*
X11307552Y-8965027D01*
X11307552Y-9068973D01*
X11411498Y-9068973D01*
X12556025Y-7292500D02*
X12703025Y-7439500D01*
X12703025Y-7292500D02*
X12556025Y-7439500D01*
X12681498Y-7417973D02*
X12681498Y-7314027D01*
X12577552Y-7314027D01*
X12577552Y-7417973D01*
X12681498Y-7417973D01*
X12563000Y-11102500D02*
X12710000Y-11249500D01*
X12710000Y-11102500D02*
X12563000Y-11249500D01*
X12688473Y-11227973D02*
X12688473Y-11124027D01*
X12584527Y-11124027D01*
X12584527Y-11227973D01*
X12688473Y-11227973D01*
X12687025Y-7146500D02*
X12834025Y-7293500D01*
X12834025Y-7146500D02*
X12687025Y-7293500D01*
X12812498Y-7271973D02*
X12812498Y-7168027D01*
X12708552Y-7168027D01*
X12708552Y-7271973D01*
X12812498Y-7271973D01*
X12694000Y-10956500D02*
X12841000Y-11103500D01*
X12841000Y-10956500D02*
X12694000Y-11103500D01*
X12819473Y-11081973D02*
X12819473Y-10978027D01*
X12715527Y-10978027D01*
X12715527Y-11081973D01*
X12819473Y-11081973D01*
X13187025Y-7096500D02*
X13334025Y-7243500D01*
X13334025Y-7096500D02*
X13187025Y-7243500D01*
X13312498Y-7221973D02*
X13312498Y-7118027D01*
X13208552Y-7118027D01*
X13208552Y-7221973D01*
X13312498Y-7221973D01*
X13191025Y-7038500D02*
X13338025Y-7185500D01*
X13338025Y-7038500D02*
X13191025Y-7185500D01*
X13316498Y-7163973D02*
X13316498Y-7060027D01*
X13212552Y-7060027D01*
X13212552Y-7163973D01*
X13316498Y-7163973D01*
X13194000Y-10906500D02*
X13341000Y-11053500D01*
X13341000Y-10906500D02*
X13194000Y-11053500D01*
X13319473Y-11031973D02*
X13319473Y-10928027D01*
X13215527Y-10928027D01*
X13215527Y-11031973D01*
X13319473Y-11031973D01*
X13198000Y-10848500D02*
X13345000Y-10995500D01*
X13345000Y-10848500D02*
X13198000Y-10995500D01*
X13323473Y-10973973D02*
X13323473Y-10870027D01*
X13219527Y-10870027D01*
X13219527Y-10973973D01*
X13323473Y-10973973D01*
X14944250Y-7292500D02*
X15091250Y-7439500D01*
X15091250Y-7292500D02*
X14944250Y-7439500D01*
X15069723Y-7417973D02*
X15069723Y-7314027D01*
X14965777Y-7314027D01*
X14965777Y-7417973D01*
X15069723Y-7417973D01*
X14944250Y-11102500D02*
X15091250Y-11249500D01*
X15091250Y-11102500D02*
X14944250Y-11249500D01*
X15069723Y-11227973D02*
X15069723Y-11124027D01*
X14965777Y-11124027D01*
X14965777Y-11227973D01*
X15069723Y-11227973D01*
X15075250Y-7146500D02*
X15222250Y-7293500D01*
X15222250Y-7146500D02*
X15075250Y-7293500D01*
X15200723Y-7271973D02*
X15200723Y-7168027D01*
X15096777Y-7168027D01*
X15096777Y-7271973D01*
X15200723Y-7271973D01*
X15075250Y-10956500D02*
X15222250Y-11103500D01*
X15222250Y-10956500D02*
X15075250Y-11103500D01*
X15200723Y-11081973D02*
X15200723Y-10978027D01*
X15096777Y-10978027D01*
X15096777Y-11081973D01*
X15200723Y-11081973D01*
X15575250Y-7096500D02*
X15722250Y-7243500D01*
X15722250Y-7096500D02*
X15575250Y-7243500D01*
X15700723Y-7221973D02*
X15700723Y-7118027D01*
X15596777Y-7118027D01*
X15596777Y-7221973D01*
X15700723Y-7221973D01*
X15575250Y-10906500D02*
X15722250Y-11053500D01*
X15722250Y-10906500D02*
X15575250Y-11053500D01*
X15700723Y-11031973D02*
X15700723Y-10928027D01*
X15596777Y-10928027D01*
X15596777Y-11031973D01*
X15700723Y-11031973D01*
X15579250Y-7038500D02*
X15726250Y-7185500D01*
X15726250Y-7038500D02*
X15579250Y-7185500D01*
X15704723Y-7163973D02*
X15704723Y-7060027D01*
X15600777Y-7060027D01*
X15600777Y-7163973D01*
X15704723Y-7163973D01*
X15579250Y-10848500D02*
X15726250Y-10995500D01*
X15726250Y-10848500D02*
X15579250Y-10995500D01*
X15704723Y-10973973D02*
X15704723Y-10870027D01*
X15600777Y-10870027D01*
X15600777Y-10973973D01*
X15704723Y-10973973D01*
X16849250Y-9197500D02*
X16996250Y-9344500D01*
X16996250Y-9197500D02*
X16849250Y-9344500D01*
X16974723Y-9322973D02*
X16974723Y-9219027D01*
X16870777Y-9219027D01*
X16870777Y-9322973D01*
X16974723Y-9322973D01*
X16980250Y-9051500D02*
X17127250Y-9198500D01*
X17127250Y-9051500D02*
X16980250Y-9198500D01*
X17105723Y-9176973D02*
X17105723Y-9073027D01*
X17001777Y-9073027D01*
X17001777Y-9176973D01*
X17105723Y-9176973D01*
X17480250Y-9001500D02*
X17627250Y-9148500D01*
X17627250Y-9001500D02*
X17480250Y-9148500D01*
X17605723Y-9126973D02*
X17605723Y-9023027D01*
X17501777Y-9023027D01*
X17501777Y-9126973D01*
X17605723Y-9126973D01*
X17484250Y-8943500D02*
X17631250Y-9090500D01*
X17631250Y-8943500D02*
X17484250Y-9090500D01*
X17609723Y-9068973D02*
X17609723Y-8965027D01*
X17505777Y-8965027D01*
X17505777Y-9068973D01*
X17609723Y-9068973D01*
X18754250Y-7292500D02*
X18901250Y-7439500D01*
X18901250Y-7292500D02*
X18754250Y-7439500D01*
X18879723Y-7417973D02*
X18879723Y-7314027D01*
X18775777Y-7314027D01*
X18775777Y-7417973D01*
X18879723Y-7417973D01*
X18754250Y-11102500D02*
X18901250Y-11249500D01*
X18901250Y-11102500D02*
X18754250Y-11249500D01*
X18879723Y-11227973D02*
X18879723Y-11124027D01*
X18775777Y-11124027D01*
X18775777Y-11227973D01*
X18879723Y-11227973D01*
X18885250Y-7146500D02*
X19032250Y-7293500D01*
X19032250Y-7146500D02*
X18885250Y-7293500D01*
X19010723Y-7271973D02*
X19010723Y-7168027D01*
X18906777Y-7168027D01*
X18906777Y-7271973D01*
X19010723Y-7271973D01*
X18885250Y-10956500D02*
X19032250Y-11103500D01*
X19032250Y-10956500D02*
X18885250Y-11103500D01*
X19010723Y-11081973D02*
X19010723Y-10978027D01*
X18906777Y-10978027D01*
X18906777Y-11081973D01*
X19010723Y-11081973D01*
X19385250Y-7096500D02*
X19532250Y-7243500D01*
X19532250Y-7096500D02*
X19385250Y-7243500D01*
X19510723Y-7221973D02*
X19510723Y-7118027D01*
X19406777Y-7118027D01*
X19406777Y-7221973D01*
X19510723Y-7221973D01*
X19385250Y-10906500D02*
X19532250Y-11053500D01*
X19532250Y-10906500D02*
X19385250Y-11053500D01*
X19510723Y-11031973D02*
X19510723Y-10928027D01*
X19406777Y-10928027D01*
X19406777Y-11031973D01*
X19510723Y-11031973D01*
X19389250Y-7038500D02*
X19536250Y-7185500D01*
X19536250Y-7038500D02*
X19389250Y-7185500D01*
X19514723Y-7163973D02*
X19514723Y-7060027D01*
X19410777Y-7060027D01*
X19410777Y-7163973D01*
X19514723Y-7163973D01*
X19389250Y-10848500D02*
X19536250Y-10995500D01*
X19536250Y-10848500D02*
X19389250Y-10995500D01*
X19514723Y-10973973D02*
X19514723Y-10870027D01*
X19410777Y-10870027D01*
X19410777Y-10973973D01*
X19514723Y-10973973D01*
D11*
X8428244Y-13332976D02*
X8428244Y-13132976D01*
X8475863Y-13132976D01*
X8504435Y-13142500D01*
X8523482Y-13161548D01*
X8533006Y-13180595D01*
X8542530Y-13218690D01*
X8542530Y-13247262D01*
X8533006Y-13285357D01*
X8523482Y-13304405D01*
X8504435Y-13323452D01*
X8475863Y-13332976D01*
X8428244Y-13332976D01*
X8628244Y-13332976D02*
X8628244Y-13199643D01*
X8628244Y-13237738D02*
X8637768Y-13218690D01*
X8647292Y-13209167D01*
X8666339Y-13199643D01*
X8685387Y-13199643D01*
X8752054Y-13332976D02*
X8752054Y-13199643D01*
X8752054Y-13132976D02*
X8742530Y-13142500D01*
X8752054Y-13152024D01*
X8761577Y-13142500D01*
X8752054Y-13132976D01*
X8752054Y-13152024D01*
X8875863Y-13332976D02*
X8856815Y-13323452D01*
X8847292Y-13304405D01*
X8847292Y-13132976D01*
X8980625Y-13332976D02*
X8961577Y-13323452D01*
X8952054Y-13304405D01*
X8952054Y-13132976D01*
X9209196Y-13332976D02*
X9209196Y-13132976D01*
X9275863Y-13275833D01*
X9342530Y-13132976D01*
X9342530Y-13332976D01*
X9523482Y-13332976D02*
X9523482Y-13228214D01*
X9513958Y-13209167D01*
X9494911Y-13199643D01*
X9456815Y-13199643D01*
X9437768Y-13209167D01*
X9523482Y-13323452D02*
X9504435Y-13332976D01*
X9456815Y-13332976D01*
X9437768Y-13323452D01*
X9428244Y-13304405D01*
X9428244Y-13285357D01*
X9437768Y-13266309D01*
X9456815Y-13256786D01*
X9504435Y-13256786D01*
X9523482Y-13247262D01*
X9618720Y-13199643D02*
X9618720Y-13399643D01*
X9618720Y-13209167D02*
X9637768Y-13199643D01*
X9675863Y-13199643D01*
X9694911Y-13209167D01*
X9704435Y-13218690D01*
X9713958Y-13237738D01*
X9713958Y-13294881D01*
X9704435Y-13313928D01*
X9694911Y-13323452D01*
X9675863Y-13332976D01*
X9637768Y-13332976D01*
X9618720Y-13323452D01*
X9799673Y-13313928D02*
X9809196Y-13323452D01*
X9799673Y-13332976D01*
X9790149Y-13323452D01*
X9799673Y-13313928D01*
X9799673Y-13332976D01*
X9799673Y-13209167D02*
X9809196Y-13218690D01*
X9799673Y-13228214D01*
X9790149Y-13218690D01*
X9799673Y-13209167D01*
X9799673Y-13228214D01*
D12*
X8130625Y-13642500D02*
X8170625Y-13682500D01*
X8170625Y-13642500D02*
X8130625Y-13682500D01*
D11*
X8466339Y-13552976D02*
X8485387Y-13552976D01*
X8504435Y-13562500D01*
X8513958Y-13572024D01*
X8523482Y-13591071D01*
X8533006Y-13629167D01*
X8533006Y-13676786D01*
X8523482Y-13714881D01*
X8513958Y-13733928D01*
X8504435Y-13743452D01*
X8485387Y-13752976D01*
X8466339Y-13752976D01*
X8447292Y-13743452D01*
X8437768Y-13733928D01*
X8428244Y-13714881D01*
X8418720Y-13676786D01*
X8418720Y-13629167D01*
X8428244Y-13591071D01*
X8437768Y-13572024D01*
X8447292Y-13562500D01*
X8466339Y-13552976D01*
X8618720Y-13733928D02*
X8628244Y-13743452D01*
X8618720Y-13752976D01*
X8609196Y-13743452D01*
X8618720Y-13733928D01*
X8618720Y-13752976D01*
X8799673Y-13619643D02*
X8799673Y-13752976D01*
X8752054Y-13543452D02*
X8704435Y-13686309D01*
X8828244Y-13686309D01*
X8942530Y-13552976D02*
X8961577Y-13552976D01*
X8980625Y-13562500D01*
X8990149Y-13572024D01*
X8999673Y-13591071D01*
X9009196Y-13629167D01*
X9009196Y-13676786D01*
X8999673Y-13714881D01*
X8990149Y-13733928D01*
X8980625Y-13743452D01*
X8961577Y-13752976D01*
X8942530Y-13752976D01*
X8923482Y-13743452D01*
X8913958Y-13733928D01*
X8904435Y-13714881D01*
X8894911Y-13676786D01*
X8894911Y-13629167D01*
X8904435Y-13591071D01*
X8913958Y-13572024D01*
X8923482Y-13562500D01*
X8942530Y-13552976D01*
X9133006Y-13552976D02*
X9152054Y-13552976D01*
X9171101Y-13562500D01*
X9180625Y-13572024D01*
X9190149Y-13591071D01*
X9199673Y-13629167D01*
X9199673Y-13676786D01*
X9190149Y-13714881D01*
X9180625Y-13733928D01*
X9171101Y-13743452D01*
X9152054Y-13752976D01*
X9133006Y-13752976D01*
X9113958Y-13743452D01*
X9104435Y-13733928D01*
X9094911Y-13714881D01*
X9085387Y-13676786D01*
X9085387Y-13629167D01*
X9094911Y-13591071D01*
X9104435Y-13572024D01*
X9113958Y-13562500D01*
X9133006Y-13552976D01*
X9285387Y-13752976D02*
X9285387Y-13619643D01*
X9285387Y-13638690D02*
X9294911Y-13629167D01*
X9313958Y-13619643D01*
X9342530Y-13619643D01*
X9361577Y-13629167D01*
X9371101Y-13648214D01*
X9371101Y-13752976D01*
X9371101Y-13648214D02*
X9380625Y-13629167D01*
X9399673Y-13619643D01*
X9428244Y-13619643D01*
X9447292Y-13629167D01*
X9456815Y-13648214D01*
X9456815Y-13752976D01*
X9552054Y-13752976D02*
X9552054Y-13619643D01*
X9552054Y-13638690D02*
X9561577Y-13629167D01*
X9580625Y-13619643D01*
X9609196Y-13619643D01*
X9628244Y-13629167D01*
X9637768Y-13648214D01*
X9637768Y-13752976D01*
X9637768Y-13648214D02*
X9647292Y-13629167D01*
X9666339Y-13619643D01*
X9694911Y-13619643D01*
X9713958Y-13629167D01*
X9723482Y-13648214D01*
X9723482Y-13752976D01*
X10113958Y-13543452D02*
X9942530Y-13800595D01*
X10371101Y-13552976D02*
X10390149Y-13552976D01*
X10409196Y-13562500D01*
X10418720Y-13572024D01*
X10428244Y-13591071D01*
X10437768Y-13629167D01*
X10437768Y-13676786D01*
X10428244Y-13714881D01*
X10418720Y-13733928D01*
X10409196Y-13743452D01*
X10390149Y-13752976D01*
X10371101Y-13752976D01*
X10352054Y-13743452D01*
X10342530Y-13733928D01*
X10333006Y-13714881D01*
X10323482Y-13676786D01*
X10323482Y-13629167D01*
X10333006Y-13591071D01*
X10342530Y-13572024D01*
X10352054Y-13562500D01*
X10371101Y-13552976D01*
X10523482Y-13733928D02*
X10533006Y-13743452D01*
X10523482Y-13752976D01*
X10513958Y-13743452D01*
X10523482Y-13733928D01*
X10523482Y-13752976D01*
X10656815Y-13552976D02*
X10675863Y-13552976D01*
X10694911Y-13562500D01*
X10704435Y-13572024D01*
X10713958Y-13591071D01*
X10723482Y-13629167D01*
X10723482Y-13676786D01*
X10713958Y-13714881D01*
X10704435Y-13733928D01*
X10694911Y-13743452D01*
X10675863Y-13752976D01*
X10656815Y-13752976D01*
X10637768Y-13743452D01*
X10628244Y-13733928D01*
X10618720Y-13714881D01*
X10609196Y-13676786D01*
X10609196Y-13629167D01*
X10618720Y-13591071D01*
X10628244Y-13572024D01*
X10637768Y-13562500D01*
X10656815Y-13552976D01*
X10913958Y-13752976D02*
X10799673Y-13752976D01*
X10856815Y-13752976D02*
X10856815Y-13552976D01*
X10837768Y-13581548D01*
X10818720Y-13600595D01*
X10799673Y-13610119D01*
X11094911Y-13552976D02*
X10999673Y-13552976D01*
X10990149Y-13648214D01*
X10999673Y-13638690D01*
X11018720Y-13629167D01*
X11066339Y-13629167D01*
X11085387Y-13638690D01*
X11094911Y-13648214D01*
X11104435Y-13667262D01*
X11104435Y-13714881D01*
X11094911Y-13733928D01*
X11085387Y-13743452D01*
X11066339Y-13752976D01*
X11018720Y-13752976D01*
X10999673Y-13743452D01*
X10990149Y-13733928D01*
X11171101Y-13552976D02*
X11304434Y-13552976D01*
X11218720Y-13752976D01*
X11371101Y-13552976D02*
X11371101Y-13591071D01*
X11447292Y-13552976D02*
X11447292Y-13591071D01*
X11742530Y-13829167D02*
X11733006Y-13819643D01*
X11713958Y-13791071D01*
X11704434Y-13772024D01*
X11694911Y-13743452D01*
X11685387Y-13695833D01*
X11685387Y-13657738D01*
X11694911Y-13610119D01*
X11704434Y-13581548D01*
X11713958Y-13562500D01*
X11733006Y-13533928D01*
X11742530Y-13524405D01*
X11799673Y-13552976D02*
X11923482Y-13552976D01*
X11856815Y-13629167D01*
X11885387Y-13629167D01*
X11904434Y-13638690D01*
X11913958Y-13648214D01*
X11923482Y-13667262D01*
X11923482Y-13714881D01*
X11913958Y-13733928D01*
X11904434Y-13743452D01*
X11885387Y-13752976D01*
X11828244Y-13752976D01*
X11809196Y-13743452D01*
X11799673Y-13733928D01*
X12047292Y-13552976D02*
X12066339Y-13552976D01*
X12085387Y-13562500D01*
X12094911Y-13572024D01*
X12104434Y-13591071D01*
X12113958Y-13629167D01*
X12113958Y-13676786D01*
X12104434Y-13714881D01*
X12094911Y-13733928D01*
X12085387Y-13743452D01*
X12066339Y-13752976D01*
X12047292Y-13752976D01*
X12028244Y-13743452D01*
X12018720Y-13733928D01*
X12009196Y-13714881D01*
X11999673Y-13676786D01*
X11999673Y-13629167D01*
X12009196Y-13591071D01*
X12018720Y-13572024D01*
X12028244Y-13562500D01*
X12047292Y-13552976D01*
X12352053Y-13752976D02*
X12352053Y-13552976D01*
X12437768Y-13752976D02*
X12437768Y-13648214D01*
X12428244Y-13629167D01*
X12409196Y-13619643D01*
X12380625Y-13619643D01*
X12361577Y-13629167D01*
X12352053Y-13638690D01*
X12561577Y-13752976D02*
X12542530Y-13743452D01*
X12533006Y-13733928D01*
X12523482Y-13714881D01*
X12523482Y-13657738D01*
X12533006Y-13638690D01*
X12542530Y-13629167D01*
X12561577Y-13619643D01*
X12590149Y-13619643D01*
X12609196Y-13629167D01*
X12618720Y-13638690D01*
X12628244Y-13657738D01*
X12628244Y-13714881D01*
X12618720Y-13733928D01*
X12609196Y-13743452D01*
X12590149Y-13752976D01*
X12561577Y-13752976D01*
X12742530Y-13752976D02*
X12723482Y-13743452D01*
X12713958Y-13724405D01*
X12713958Y-13552976D01*
X12894911Y-13743452D02*
X12875863Y-13752976D01*
X12837768Y-13752976D01*
X12818720Y-13743452D01*
X12809196Y-13724405D01*
X12809196Y-13648214D01*
X12818720Y-13629167D01*
X12837768Y-13619643D01*
X12875863Y-13619643D01*
X12894911Y-13629167D01*
X12904434Y-13648214D01*
X12904434Y-13667262D01*
X12809196Y-13686309D01*
X12980625Y-13743452D02*
X12999673Y-13752976D01*
X13037768Y-13752976D01*
X13056815Y-13743452D01*
X13066339Y-13724405D01*
X13066339Y-13714881D01*
X13056815Y-13695833D01*
X13037768Y-13686309D01*
X13009196Y-13686309D01*
X12990149Y-13676786D01*
X12980625Y-13657738D01*
X12980625Y-13648214D01*
X12990149Y-13629167D01*
X13009196Y-13619643D01*
X13037768Y-13619643D01*
X13056815Y-13629167D01*
X13133006Y-13829167D02*
X13142530Y-13819643D01*
X13161577Y-13791071D01*
X13171101Y-13772024D01*
X13180625Y-13743452D01*
X13190149Y-13695833D01*
X13190149Y-13657738D01*
X13180625Y-13610119D01*
X13171101Y-13581548D01*
X13161577Y-13562500D01*
X13142530Y-13533928D01*
X13133006Y-13524405D01*
D13*
X8170625Y-13926500D02*
G75*
G03*
X8170625Y-13926500I-49500J0D01*
G01*
D11*
X8466339Y-13816976D02*
X8485387Y-13816976D01*
X8504435Y-13826500D01*
X8513958Y-13836024D01*
X8523482Y-13855071D01*
X8533006Y-13893167D01*
X8533006Y-13940786D01*
X8523482Y-13978881D01*
X8513958Y-13997928D01*
X8504435Y-14007452D01*
X8485387Y-14016976D01*
X8466339Y-14016976D01*
X8447292Y-14007452D01*
X8437768Y-13997928D01*
X8428244Y-13978881D01*
X8418720Y-13940786D01*
X8418720Y-13893167D01*
X8428244Y-13855071D01*
X8437768Y-13836024D01*
X8447292Y-13826500D01*
X8466339Y-13816976D01*
X8618720Y-13997928D02*
X8628244Y-14007452D01*
X8618720Y-14016976D01*
X8609196Y-14007452D01*
X8618720Y-13997928D01*
X8618720Y-14016976D01*
X8723482Y-14016976D02*
X8761577Y-14016976D01*
X8780625Y-14007452D01*
X8790149Y-13997928D01*
X8809196Y-13969357D01*
X8818720Y-13931262D01*
X8818720Y-13855071D01*
X8809196Y-13836024D01*
X8799673Y-13826500D01*
X8780625Y-13816976D01*
X8742530Y-13816976D01*
X8723482Y-13826500D01*
X8713958Y-13836024D01*
X8704435Y-13855071D01*
X8704435Y-13902690D01*
X8713958Y-13921738D01*
X8723482Y-13931262D01*
X8742530Y-13940786D01*
X8780625Y-13940786D01*
X8799673Y-13931262D01*
X8809196Y-13921738D01*
X8818720Y-13902690D01*
X8913958Y-14016976D02*
X8952054Y-14016976D01*
X8971101Y-14007452D01*
X8980625Y-13997928D01*
X8999673Y-13969357D01*
X9009196Y-13931262D01*
X9009196Y-13855071D01*
X8999673Y-13836024D01*
X8990149Y-13826500D01*
X8971101Y-13816976D01*
X8933006Y-13816976D01*
X8913958Y-13826500D01*
X8904435Y-13836024D01*
X8894911Y-13855071D01*
X8894911Y-13902690D01*
X8904435Y-13921738D01*
X8913958Y-13931262D01*
X8933006Y-13940786D01*
X8971101Y-13940786D01*
X8990149Y-13931262D01*
X8999673Y-13921738D01*
X9009196Y-13902690D01*
X9133006Y-13816976D02*
X9152054Y-13816976D01*
X9171101Y-13826500D01*
X9180625Y-13836024D01*
X9190149Y-13855071D01*
X9199673Y-13893167D01*
X9199673Y-13940786D01*
X9190149Y-13978881D01*
X9180625Y-13997928D01*
X9171101Y-14007452D01*
X9152054Y-14016976D01*
X9133006Y-14016976D01*
X9113958Y-14007452D01*
X9104435Y-13997928D01*
X9094911Y-13978881D01*
X9085387Y-13940786D01*
X9085387Y-13893167D01*
X9094911Y-13855071D01*
X9104435Y-13836024D01*
X9113958Y-13826500D01*
X9133006Y-13816976D01*
X9285387Y-14016976D02*
X9285387Y-13883643D01*
X9285387Y-13902690D02*
X9294911Y-13893167D01*
X9313958Y-13883643D01*
X9342530Y-13883643D01*
X9361577Y-13893167D01*
X9371101Y-13912214D01*
X9371101Y-14016976D01*
X9371101Y-13912214D02*
X9380625Y-13893167D01*
X9399673Y-13883643D01*
X9428244Y-13883643D01*
X9447292Y-13893167D01*
X9456815Y-13912214D01*
X9456815Y-14016976D01*
X9552054Y-14016976D02*
X9552054Y-13883643D01*
X9552054Y-13902690D02*
X9561577Y-13893167D01*
X9580625Y-13883643D01*
X9609196Y-13883643D01*
X9628244Y-13893167D01*
X9637768Y-13912214D01*
X9637768Y-14016976D01*
X9637768Y-13912214D02*
X9647292Y-13893167D01*
X9666339Y-13883643D01*
X9694911Y-13883643D01*
X9713958Y-13893167D01*
X9723482Y-13912214D01*
X9723482Y-14016976D01*
X10113958Y-13807452D02*
X9942530Y-14064595D01*
X10371101Y-13816976D02*
X10390149Y-13816976D01*
X10409196Y-13826500D01*
X10418720Y-13836024D01*
X10428244Y-13855071D01*
X10437768Y-13893167D01*
X10437768Y-13940786D01*
X10428244Y-13978881D01*
X10418720Y-13997928D01*
X10409196Y-14007452D01*
X10390149Y-14016976D01*
X10371101Y-14016976D01*
X10352054Y-14007452D01*
X10342530Y-13997928D01*
X10333006Y-13978881D01*
X10323482Y-13940786D01*
X10323482Y-13893167D01*
X10333006Y-13855071D01*
X10342530Y-13836024D01*
X10352054Y-13826500D01*
X10371101Y-13816976D01*
X10523482Y-13997928D02*
X10533006Y-14007452D01*
X10523482Y-14016976D01*
X10513958Y-14007452D01*
X10523482Y-13997928D01*
X10523482Y-14016976D01*
X10656815Y-13816976D02*
X10675863Y-13816976D01*
X10694911Y-13826500D01*
X10704435Y-13836024D01*
X10713958Y-13855071D01*
X10723482Y-13893167D01*
X10723482Y-13940786D01*
X10713958Y-13978881D01*
X10704435Y-13997928D01*
X10694911Y-14007452D01*
X10675863Y-14016976D01*
X10656815Y-14016976D01*
X10637768Y-14007452D01*
X10628244Y-13997928D01*
X10618720Y-13978881D01*
X10609196Y-13940786D01*
X10609196Y-13893167D01*
X10618720Y-13855071D01*
X10628244Y-13836024D01*
X10637768Y-13826500D01*
X10656815Y-13816976D01*
X10790149Y-13816976D02*
X10913958Y-13816976D01*
X10847292Y-13893167D01*
X10875863Y-13893167D01*
X10894911Y-13902690D01*
X10904435Y-13912214D01*
X10913958Y-13931262D01*
X10913958Y-13978881D01*
X10904435Y-13997928D01*
X10894911Y-14007452D01*
X10875863Y-14016976D01*
X10818720Y-14016976D01*
X10799673Y-14007452D01*
X10790149Y-13997928D01*
X11009196Y-14016976D02*
X11047292Y-14016976D01*
X11066339Y-14007452D01*
X11075863Y-13997928D01*
X11094911Y-13969357D01*
X11104435Y-13931262D01*
X11104435Y-13855071D01*
X11094911Y-13836024D01*
X11085387Y-13826500D01*
X11066339Y-13816976D01*
X11028244Y-13816976D01*
X11009196Y-13826500D01*
X10999673Y-13836024D01*
X10990149Y-13855071D01*
X10990149Y-13902690D01*
X10999673Y-13921738D01*
X11009196Y-13931262D01*
X11028244Y-13940786D01*
X11066339Y-13940786D01*
X11085387Y-13931262D01*
X11094911Y-13921738D01*
X11104435Y-13902690D01*
X11228244Y-13816976D02*
X11247292Y-13816976D01*
X11266339Y-13826500D01*
X11275863Y-13836024D01*
X11285387Y-13855071D01*
X11294911Y-13893167D01*
X11294911Y-13940786D01*
X11285387Y-13978881D01*
X11275863Y-13997928D01*
X11266339Y-14007452D01*
X11247292Y-14016976D01*
X11228244Y-14016976D01*
X11209196Y-14007452D01*
X11199673Y-13997928D01*
X11190149Y-13978881D01*
X11180625Y-13940786D01*
X11180625Y-13893167D01*
X11190149Y-13855071D01*
X11199673Y-13836024D01*
X11209196Y-13826500D01*
X11228244Y-13816976D01*
X11371101Y-13816976D02*
X11371101Y-13855071D01*
X11447292Y-13816976D02*
X11447292Y-13855071D01*
X11742530Y-14093167D02*
X11733006Y-14083643D01*
X11713958Y-14055071D01*
X11704434Y-14036024D01*
X11694911Y-14007452D01*
X11685387Y-13959833D01*
X11685387Y-13921738D01*
X11694911Y-13874119D01*
X11704434Y-13845548D01*
X11713958Y-13826500D01*
X11733006Y-13797928D01*
X11742530Y-13788405D01*
X11904434Y-13883643D02*
X11904434Y-14016976D01*
X11856815Y-13807452D02*
X11809196Y-13950309D01*
X11933006Y-13950309D01*
X12161577Y-14016976D02*
X12161577Y-13816976D01*
X12247292Y-14016976D02*
X12247292Y-13912214D01*
X12237768Y-13893167D01*
X12218720Y-13883643D01*
X12190149Y-13883643D01*
X12171101Y-13893167D01*
X12161577Y-13902690D01*
X12371101Y-14016976D02*
X12352053Y-14007452D01*
X12342530Y-13997928D01*
X12333006Y-13978881D01*
X12333006Y-13921738D01*
X12342530Y-13902690D01*
X12352053Y-13893167D01*
X12371101Y-13883643D01*
X12399673Y-13883643D01*
X12418720Y-13893167D01*
X12428244Y-13902690D01*
X12437768Y-13921738D01*
X12437768Y-13978881D01*
X12428244Y-13997928D01*
X12418720Y-14007452D01*
X12399673Y-14016976D01*
X12371101Y-14016976D01*
X12552053Y-14016976D02*
X12533006Y-14007452D01*
X12523482Y-13988405D01*
X12523482Y-13816976D01*
X12704434Y-14007452D02*
X12685387Y-14016976D01*
X12647292Y-14016976D01*
X12628244Y-14007452D01*
X12618720Y-13988405D01*
X12618720Y-13912214D01*
X12628244Y-13893167D01*
X12647292Y-13883643D01*
X12685387Y-13883643D01*
X12704434Y-13893167D01*
X12713958Y-13912214D01*
X12713958Y-13931262D01*
X12618720Y-13950309D01*
X12790149Y-14007452D02*
X12809196Y-14016976D01*
X12847292Y-14016976D01*
X12866339Y-14007452D01*
X12875863Y-13988405D01*
X12875863Y-13978881D01*
X12866339Y-13959833D01*
X12847292Y-13950309D01*
X12818720Y-13950309D01*
X12799673Y-13940786D01*
X12790149Y-13921738D01*
X12790149Y-13912214D01*
X12799673Y-13893167D01*
X12818720Y-13883643D01*
X12847292Y-13883643D01*
X12866339Y-13893167D01*
X12942530Y-14093167D02*
X12952053Y-14083643D01*
X12971101Y-14055071D01*
X12980625Y-14036024D01*
X12990149Y-14007452D01*
X12999673Y-13959833D01*
X12999673Y-13921738D01*
X12990149Y-13874119D01*
X12980625Y-13845548D01*
X12971101Y-13826500D01*
X12952053Y-13797928D01*
X12942530Y-13788405D01*
D14*
X8121095Y-14140970D02*
X8121095Y-14240030D01*
X8071565Y-14190500D02*
X8170625Y-14190500D01*
D11*
X8466339Y-14080976D02*
X8485387Y-14080976D01*
X8504435Y-14090500D01*
X8513958Y-14100024D01*
X8523482Y-14119071D01*
X8533006Y-14157167D01*
X8533006Y-14204786D01*
X8523482Y-14242881D01*
X8513958Y-14261928D01*
X8504435Y-14271452D01*
X8485387Y-14280976D01*
X8466339Y-14280976D01*
X8447292Y-14271452D01*
X8437768Y-14261928D01*
X8428244Y-14242881D01*
X8418720Y-14204786D01*
X8418720Y-14157167D01*
X8428244Y-14119071D01*
X8437768Y-14100024D01*
X8447292Y-14090500D01*
X8466339Y-14080976D01*
X8618720Y-14261928D02*
X8628244Y-14271452D01*
X8618720Y-14280976D01*
X8609196Y-14271452D01*
X8618720Y-14261928D01*
X8618720Y-14280976D01*
X8723482Y-14280976D02*
X8761577Y-14280976D01*
X8780625Y-14271452D01*
X8790149Y-14261928D01*
X8809196Y-14233357D01*
X8818720Y-14195262D01*
X8818720Y-14119071D01*
X8809196Y-14100024D01*
X8799673Y-14090500D01*
X8780625Y-14080976D01*
X8742530Y-14080976D01*
X8723482Y-14090500D01*
X8713958Y-14100024D01*
X8704435Y-14119071D01*
X8704435Y-14166690D01*
X8713958Y-14185738D01*
X8723482Y-14195262D01*
X8742530Y-14204786D01*
X8780625Y-14204786D01*
X8799673Y-14195262D01*
X8809196Y-14185738D01*
X8818720Y-14166690D01*
X8913958Y-14280976D02*
X8952054Y-14280976D01*
X8971101Y-14271452D01*
X8980625Y-14261928D01*
X8999673Y-14233357D01*
X9009196Y-14195262D01*
X9009196Y-14119071D01*
X8999673Y-14100024D01*
X8990149Y-14090500D01*
X8971101Y-14080976D01*
X8933006Y-14080976D01*
X8913958Y-14090500D01*
X8904435Y-14100024D01*
X8894911Y-14119071D01*
X8894911Y-14166690D01*
X8904435Y-14185738D01*
X8913958Y-14195262D01*
X8933006Y-14204786D01*
X8971101Y-14204786D01*
X8990149Y-14195262D01*
X8999673Y-14185738D01*
X9009196Y-14166690D01*
X9199673Y-14280976D02*
X9085387Y-14280976D01*
X9142530Y-14280976D02*
X9142530Y-14080976D01*
X9123482Y-14109548D01*
X9104435Y-14128595D01*
X9085387Y-14138119D01*
X9285387Y-14280976D02*
X9285387Y-14147643D01*
X9285387Y-14166690D02*
X9294911Y-14157167D01*
X9313958Y-14147643D01*
X9342530Y-14147643D01*
X9361577Y-14157167D01*
X9371101Y-14176214D01*
X9371101Y-14280976D01*
X9371101Y-14176214D02*
X9380625Y-14157167D01*
X9399673Y-14147643D01*
X9428244Y-14147643D01*
X9447292Y-14157167D01*
X9456815Y-14176214D01*
X9456815Y-14280976D01*
X9552054Y-14280976D02*
X9552054Y-14147643D01*
X9552054Y-14166690D02*
X9561577Y-14157167D01*
X9580625Y-14147643D01*
X9609196Y-14147643D01*
X9628244Y-14157167D01*
X9637768Y-14176214D01*
X9637768Y-14280976D01*
X9637768Y-14176214D02*
X9647292Y-14157167D01*
X9666339Y-14147643D01*
X9694911Y-14147643D01*
X9713958Y-14157167D01*
X9723482Y-14176214D01*
X9723482Y-14280976D01*
X10113958Y-14071452D02*
X9942530Y-14328595D01*
X10371101Y-14080976D02*
X10390149Y-14080976D01*
X10409196Y-14090500D01*
X10418720Y-14100024D01*
X10428244Y-14119071D01*
X10437768Y-14157167D01*
X10437768Y-14204786D01*
X10428244Y-14242881D01*
X10418720Y-14261928D01*
X10409196Y-14271452D01*
X10390149Y-14280976D01*
X10371101Y-14280976D01*
X10352054Y-14271452D01*
X10342530Y-14261928D01*
X10333006Y-14242881D01*
X10323482Y-14204786D01*
X10323482Y-14157167D01*
X10333006Y-14119071D01*
X10342530Y-14100024D01*
X10352054Y-14090500D01*
X10371101Y-14080976D01*
X10523482Y-14261928D02*
X10533006Y-14271452D01*
X10523482Y-14280976D01*
X10513958Y-14271452D01*
X10523482Y-14261928D01*
X10523482Y-14280976D01*
X10656815Y-14080976D02*
X10675863Y-14080976D01*
X10694911Y-14090500D01*
X10704435Y-14100024D01*
X10713958Y-14119071D01*
X10723482Y-14157167D01*
X10723482Y-14204786D01*
X10713958Y-14242881D01*
X10704435Y-14261928D01*
X10694911Y-14271452D01*
X10675863Y-14280976D01*
X10656815Y-14280976D01*
X10637768Y-14271452D01*
X10628244Y-14261928D01*
X10618720Y-14242881D01*
X10609196Y-14204786D01*
X10609196Y-14157167D01*
X10618720Y-14119071D01*
X10628244Y-14100024D01*
X10637768Y-14090500D01*
X10656815Y-14080976D01*
X10790149Y-14080976D02*
X10913958Y-14080976D01*
X10847292Y-14157167D01*
X10875863Y-14157167D01*
X10894911Y-14166690D01*
X10904435Y-14176214D01*
X10913958Y-14195262D01*
X10913958Y-14242881D01*
X10904435Y-14261928D01*
X10894911Y-14271452D01*
X10875863Y-14280976D01*
X10818720Y-14280976D01*
X10799673Y-14271452D01*
X10790149Y-14261928D01*
X11009196Y-14280976D02*
X11047292Y-14280976D01*
X11066339Y-14271452D01*
X11075863Y-14261928D01*
X11094911Y-14233357D01*
X11104435Y-14195262D01*
X11104435Y-14119071D01*
X11094911Y-14100024D01*
X11085387Y-14090500D01*
X11066339Y-14080976D01*
X11028244Y-14080976D01*
X11009196Y-14090500D01*
X10999673Y-14100024D01*
X10990149Y-14119071D01*
X10990149Y-14166690D01*
X10999673Y-14185738D01*
X11009196Y-14195262D01*
X11028244Y-14204786D01*
X11066339Y-14204786D01*
X11085387Y-14195262D01*
X11094911Y-14185738D01*
X11104435Y-14166690D01*
X11228244Y-14080976D02*
X11247292Y-14080976D01*
X11266339Y-14090500D01*
X11275863Y-14100024D01*
X11285387Y-14119071D01*
X11294911Y-14157167D01*
X11294911Y-14204786D01*
X11285387Y-14242881D01*
X11275863Y-14261928D01*
X11266339Y-14271452D01*
X11247292Y-14280976D01*
X11228244Y-14280976D01*
X11209196Y-14271452D01*
X11199673Y-14261928D01*
X11190149Y-14242881D01*
X11180625Y-14204786D01*
X11180625Y-14157167D01*
X11190149Y-14119071D01*
X11199673Y-14100024D01*
X11209196Y-14090500D01*
X11228244Y-14080976D01*
X11371101Y-14080976D02*
X11371101Y-14119071D01*
X11447292Y-14080976D02*
X11447292Y-14119071D01*
X11742530Y-14357167D02*
X11733006Y-14347643D01*
X11713958Y-14319071D01*
X11704434Y-14300024D01*
X11694911Y-14271452D01*
X11685387Y-14223833D01*
X11685387Y-14185738D01*
X11694911Y-14138119D01*
X11704434Y-14109548D01*
X11713958Y-14090500D01*
X11733006Y-14061928D01*
X11742530Y-14052405D01*
X11809196Y-14100024D02*
X11818720Y-14090500D01*
X11837768Y-14080976D01*
X11885387Y-14080976D01*
X11904434Y-14090500D01*
X11913958Y-14100024D01*
X11923482Y-14119071D01*
X11923482Y-14138119D01*
X11913958Y-14166690D01*
X11799673Y-14280976D01*
X11923482Y-14280976D01*
X12047292Y-14080976D02*
X12066339Y-14080976D01*
X12085387Y-14090500D01*
X12094911Y-14100024D01*
X12104434Y-14119071D01*
X12113958Y-14157167D01*
X12113958Y-14204786D01*
X12104434Y-14242881D01*
X12094911Y-14261928D01*
X12085387Y-14271452D01*
X12066339Y-14280976D01*
X12047292Y-14280976D01*
X12028244Y-14271452D01*
X12018720Y-14261928D01*
X12009196Y-14242881D01*
X11999673Y-14204786D01*
X11999673Y-14157167D01*
X12009196Y-14119071D01*
X12018720Y-14100024D01*
X12028244Y-14090500D01*
X12047292Y-14080976D01*
X12352053Y-14280976D02*
X12352053Y-14080976D01*
X12437768Y-14280976D02*
X12437768Y-14176214D01*
X12428244Y-14157167D01*
X12409196Y-14147643D01*
X12380625Y-14147643D01*
X12361577Y-14157167D01*
X12352053Y-14166690D01*
X12561577Y-14280976D02*
X12542530Y-14271452D01*
X12533006Y-14261928D01*
X12523482Y-14242881D01*
X12523482Y-14185738D01*
X12533006Y-14166690D01*
X12542530Y-14157167D01*
X12561577Y-14147643D01*
X12590149Y-14147643D01*
X12609196Y-14157167D01*
X12618720Y-14166690D01*
X12628244Y-14185738D01*
X12628244Y-14242881D01*
X12618720Y-14261928D01*
X12609196Y-14271452D01*
X12590149Y-14280976D01*
X12561577Y-14280976D01*
X12742530Y-14280976D02*
X12723482Y-14271452D01*
X12713958Y-14252405D01*
X12713958Y-14080976D01*
X12894911Y-14271452D02*
X12875863Y-14280976D01*
X12837768Y-14280976D01*
X12818720Y-14271452D01*
X12809196Y-14252405D01*
X12809196Y-14176214D01*
X12818720Y-14157167D01*
X12837768Y-14147643D01*
X12875863Y-14147643D01*
X12894911Y-14157167D01*
X12904434Y-14176214D01*
X12904434Y-14195262D01*
X12809196Y-14214309D01*
X12980625Y-14271452D02*
X12999673Y-14280976D01*
X13037768Y-14280976D01*
X13056815Y-14271452D01*
X13066339Y-14252405D01*
X13066339Y-14242881D01*
X13056815Y-14223833D01*
X13037768Y-14214309D01*
X13009196Y-14214309D01*
X12990149Y-14204786D01*
X12980625Y-14185738D01*
X12980625Y-14176214D01*
X12990149Y-14157167D01*
X13009196Y-14147643D01*
X13037768Y-14147643D01*
X13056815Y-14157167D01*
X13133006Y-14357167D02*
X13142530Y-14347643D01*
X13161577Y-14319071D01*
X13171101Y-14300024D01*
X13180625Y-14271452D01*
X13190149Y-14223833D01*
X13190149Y-14185738D01*
X13180625Y-14138119D01*
X13171101Y-14109548D01*
X13161577Y-14090500D01*
X13142530Y-14061928D01*
X13133006Y-14052405D01*
D10*
X8155981Y-14489856D02*
X8155981Y-14419144D01*
X8085269Y-14419144D01*
X8085269Y-14489856D01*
X8155981Y-14489856D01*
D11*
X8533006Y-14544976D02*
X8418720Y-14544976D01*
X8475863Y-14544976D02*
X8475863Y-14344976D01*
X8456815Y-14373548D01*
X8437768Y-14392595D01*
X8418720Y-14402119D01*
X8618720Y-14525928D02*
X8628244Y-14535452D01*
X8618720Y-14544976D01*
X8609196Y-14535452D01*
X8618720Y-14525928D01*
X8618720Y-14544976D01*
X8752054Y-14344976D02*
X8771101Y-14344976D01*
X8790149Y-14354500D01*
X8799673Y-14364024D01*
X8809196Y-14383071D01*
X8818720Y-14421167D01*
X8818720Y-14468786D01*
X8809196Y-14506881D01*
X8799673Y-14525928D01*
X8790149Y-14535452D01*
X8771101Y-14544976D01*
X8752054Y-14544976D01*
X8733006Y-14535452D01*
X8723482Y-14525928D01*
X8713958Y-14506881D01*
X8704435Y-14468786D01*
X8704435Y-14421167D01*
X8713958Y-14383071D01*
X8723482Y-14364024D01*
X8733006Y-14354500D01*
X8752054Y-14344976D01*
X8942530Y-14344976D02*
X8961577Y-14344976D01*
X8980625Y-14354500D01*
X8990149Y-14364024D01*
X8999673Y-14383071D01*
X9009196Y-14421167D01*
X9009196Y-14468786D01*
X8999673Y-14506881D01*
X8990149Y-14525928D01*
X8980625Y-14535452D01*
X8961577Y-14544976D01*
X8942530Y-14544976D01*
X8923482Y-14535452D01*
X8913958Y-14525928D01*
X8904435Y-14506881D01*
X8894911Y-14468786D01*
X8894911Y-14421167D01*
X8904435Y-14383071D01*
X8913958Y-14364024D01*
X8923482Y-14354500D01*
X8942530Y-14344976D01*
X9133006Y-14344976D02*
X9152054Y-14344976D01*
X9171101Y-14354500D01*
X9180625Y-14364024D01*
X9190149Y-14383071D01*
X9199673Y-14421167D01*
X9199673Y-14468786D01*
X9190149Y-14506881D01*
X9180625Y-14525928D01*
X9171101Y-14535452D01*
X9152054Y-14544976D01*
X9133006Y-14544976D01*
X9113958Y-14535452D01*
X9104435Y-14525928D01*
X9094911Y-14506881D01*
X9085387Y-14468786D01*
X9085387Y-14421167D01*
X9094911Y-14383071D01*
X9104435Y-14364024D01*
X9113958Y-14354500D01*
X9133006Y-14344976D01*
X9285387Y-14544976D02*
X9285387Y-14411643D01*
X9285387Y-14430690D02*
X9294911Y-14421167D01*
X9313958Y-14411643D01*
X9342530Y-14411643D01*
X9361577Y-14421167D01*
X9371101Y-14440214D01*
X9371101Y-14544976D01*
X9371101Y-14440214D02*
X9380625Y-14421167D01*
X9399673Y-14411643D01*
X9428244Y-14411643D01*
X9447292Y-14421167D01*
X9456815Y-14440214D01*
X9456815Y-14544976D01*
X9552054Y-14544976D02*
X9552054Y-14411643D01*
X9552054Y-14430690D02*
X9561577Y-14421167D01*
X9580625Y-14411643D01*
X9609196Y-14411643D01*
X9628244Y-14421167D01*
X9637768Y-14440214D01*
X9637768Y-14544976D01*
X9637768Y-14440214D02*
X9647292Y-14421167D01*
X9666339Y-14411643D01*
X9694911Y-14411643D01*
X9713958Y-14421167D01*
X9723482Y-14440214D01*
X9723482Y-14544976D01*
X10113958Y-14335452D02*
X9942530Y-14592595D01*
X10371101Y-14344976D02*
X10390149Y-14344976D01*
X10409196Y-14354500D01*
X10418720Y-14364024D01*
X10428244Y-14383071D01*
X10437768Y-14421167D01*
X10437768Y-14468786D01*
X10428244Y-14506881D01*
X10418720Y-14525928D01*
X10409196Y-14535452D01*
X10390149Y-14544976D01*
X10371101Y-14544976D01*
X10352054Y-14535452D01*
X10342530Y-14525928D01*
X10333006Y-14506881D01*
X10323482Y-14468786D01*
X10323482Y-14421167D01*
X10333006Y-14383071D01*
X10342530Y-14364024D01*
X10352054Y-14354500D01*
X10371101Y-14344976D01*
X10523482Y-14525928D02*
X10533006Y-14535452D01*
X10523482Y-14544976D01*
X10513958Y-14535452D01*
X10523482Y-14525928D01*
X10523482Y-14544976D01*
X10656815Y-14344976D02*
X10675863Y-14344976D01*
X10694911Y-14354500D01*
X10704435Y-14364024D01*
X10713958Y-14383071D01*
X10723482Y-14421167D01*
X10723482Y-14468786D01*
X10713958Y-14506881D01*
X10704435Y-14525928D01*
X10694911Y-14535452D01*
X10675863Y-14544976D01*
X10656815Y-14544976D01*
X10637768Y-14535452D01*
X10628244Y-14525928D01*
X10618720Y-14506881D01*
X10609196Y-14468786D01*
X10609196Y-14421167D01*
X10618720Y-14383071D01*
X10628244Y-14364024D01*
X10637768Y-14354500D01*
X10656815Y-14344976D01*
X10790149Y-14344976D02*
X10913958Y-14344976D01*
X10847292Y-14421167D01*
X10875863Y-14421167D01*
X10894911Y-14430690D01*
X10904435Y-14440214D01*
X10913958Y-14459262D01*
X10913958Y-14506881D01*
X10904435Y-14525928D01*
X10894911Y-14535452D01*
X10875863Y-14544976D01*
X10818720Y-14544976D01*
X10799673Y-14535452D01*
X10790149Y-14525928D01*
X11009196Y-14544976D02*
X11047292Y-14544976D01*
X11066339Y-14535452D01*
X11075863Y-14525928D01*
X11094911Y-14497357D01*
X11104435Y-14459262D01*
X11104435Y-14383071D01*
X11094911Y-14364024D01*
X11085387Y-14354500D01*
X11066339Y-14344976D01*
X11028244Y-14344976D01*
X11009196Y-14354500D01*
X10999673Y-14364024D01*
X10990149Y-14383071D01*
X10990149Y-14430690D01*
X10999673Y-14449738D01*
X11009196Y-14459262D01*
X11028244Y-14468786D01*
X11066339Y-14468786D01*
X11085387Y-14459262D01*
X11094911Y-14449738D01*
X11104435Y-14430690D01*
X11275863Y-14411643D02*
X11275863Y-14544976D01*
X11228244Y-14335452D02*
X11180625Y-14478309D01*
X11304434Y-14478309D01*
X11371101Y-14344976D02*
X11371101Y-14383071D01*
X11447292Y-14344976D02*
X11447292Y-14383071D01*
X11742530Y-14621167D02*
X11733006Y-14611643D01*
X11713958Y-14583071D01*
X11704434Y-14564024D01*
X11694911Y-14535452D01*
X11685387Y-14487833D01*
X11685387Y-14449738D01*
X11694911Y-14402119D01*
X11704434Y-14373548D01*
X11713958Y-14354500D01*
X11733006Y-14325928D01*
X11742530Y-14316405D01*
X11904434Y-14344976D02*
X11866339Y-14344976D01*
X11847292Y-14354500D01*
X11837768Y-14364024D01*
X11818720Y-14392595D01*
X11809196Y-14430690D01*
X11809196Y-14506881D01*
X11818720Y-14525928D01*
X11828244Y-14535452D01*
X11847292Y-14544976D01*
X11885387Y-14544976D01*
X11904434Y-14535452D01*
X11913958Y-14525928D01*
X11923482Y-14506881D01*
X11923482Y-14459262D01*
X11913958Y-14440214D01*
X11904434Y-14430690D01*
X11885387Y-14421167D01*
X11847292Y-14421167D01*
X11828244Y-14430690D01*
X11818720Y-14440214D01*
X11809196Y-14459262D01*
X12161577Y-14544976D02*
X12161577Y-14344976D01*
X12247292Y-14544976D02*
X12247292Y-14440214D01*
X12237768Y-14421167D01*
X12218720Y-14411643D01*
X12190149Y-14411643D01*
X12171101Y-14421167D01*
X12161577Y-14430690D01*
X12371101Y-14544976D02*
X12352053Y-14535452D01*
X12342530Y-14525928D01*
X12333006Y-14506881D01*
X12333006Y-14449738D01*
X12342530Y-14430690D01*
X12352053Y-14421167D01*
X12371101Y-14411643D01*
X12399673Y-14411643D01*
X12418720Y-14421167D01*
X12428244Y-14430690D01*
X12437768Y-14449738D01*
X12437768Y-14506881D01*
X12428244Y-14525928D01*
X12418720Y-14535452D01*
X12399673Y-14544976D01*
X12371101Y-14544976D01*
X12552053Y-14544976D02*
X12533006Y-14535452D01*
X12523482Y-14516405D01*
X12523482Y-14344976D01*
X12704434Y-14535452D02*
X12685387Y-14544976D01*
X12647292Y-14544976D01*
X12628244Y-14535452D01*
X12618720Y-14516405D01*
X12618720Y-14440214D01*
X12628244Y-14421167D01*
X12647292Y-14411643D01*
X12685387Y-14411643D01*
X12704434Y-14421167D01*
X12713958Y-14440214D01*
X12713958Y-14459262D01*
X12618720Y-14478309D01*
X12790149Y-14535452D02*
X12809196Y-14544976D01*
X12847292Y-14544976D01*
X12866339Y-14535452D01*
X12875863Y-14516405D01*
X12875863Y-14506881D01*
X12866339Y-14487833D01*
X12847292Y-14478309D01*
X12818720Y-14478309D01*
X12799673Y-14468786D01*
X12790149Y-14449738D01*
X12790149Y-14440214D01*
X12799673Y-14421167D01*
X12818720Y-14411643D01*
X12847292Y-14411643D01*
X12866339Y-14421167D01*
X12942530Y-14621167D02*
X12952053Y-14611643D01*
X12971101Y-14583071D01*
X12980625Y-14564024D01*
X12990149Y-14535452D01*
X12999673Y-14487833D01*
X12999673Y-14449738D01*
X12990149Y-14402119D01*
X12980625Y-14373548D01*
X12971101Y-14354500D01*
X12952053Y-14325928D01*
X12942530Y-14316405D01*
D15*
X8119625Y-14769500D02*
X8170625Y-14718500D01*
X8119625Y-14667500D01*
X8068625Y-14718500D01*
X8119625Y-14769500D01*
D11*
X8533006Y-14808976D02*
X8418720Y-14808976D01*
X8475863Y-14808976D02*
X8475863Y-14608976D01*
X8456815Y-14637548D01*
X8437768Y-14656595D01*
X8418720Y-14666119D01*
X8618720Y-14789928D02*
X8628244Y-14799452D01*
X8618720Y-14808976D01*
X8609196Y-14799452D01*
X8618720Y-14789928D01*
X8618720Y-14808976D01*
X8752054Y-14608976D02*
X8771101Y-14608976D01*
X8790149Y-14618500D01*
X8799673Y-14628024D01*
X8809196Y-14647071D01*
X8818720Y-14685167D01*
X8818720Y-14732786D01*
X8809196Y-14770881D01*
X8799673Y-14789928D01*
X8790149Y-14799452D01*
X8771101Y-14808976D01*
X8752054Y-14808976D01*
X8733006Y-14799452D01*
X8723482Y-14789928D01*
X8713958Y-14770881D01*
X8704435Y-14732786D01*
X8704435Y-14685167D01*
X8713958Y-14647071D01*
X8723482Y-14628024D01*
X8733006Y-14618500D01*
X8752054Y-14608976D01*
X8894911Y-14628024D02*
X8904435Y-14618500D01*
X8923482Y-14608976D01*
X8971101Y-14608976D01*
X8990149Y-14618500D01*
X8999673Y-14628024D01*
X9009196Y-14647071D01*
X9009196Y-14666119D01*
X8999673Y-14694690D01*
X8885387Y-14808976D01*
X9009196Y-14808976D01*
X9133006Y-14608976D02*
X9152054Y-14608976D01*
X9171101Y-14618500D01*
X9180625Y-14628024D01*
X9190149Y-14647071D01*
X9199673Y-14685167D01*
X9199673Y-14732786D01*
X9190149Y-14770881D01*
X9180625Y-14789928D01*
X9171101Y-14799452D01*
X9152054Y-14808976D01*
X9133006Y-14808976D01*
X9113958Y-14799452D01*
X9104435Y-14789928D01*
X9094911Y-14770881D01*
X9085387Y-14732786D01*
X9085387Y-14685167D01*
X9094911Y-14647071D01*
X9104435Y-14628024D01*
X9113958Y-14618500D01*
X9133006Y-14608976D01*
X9285387Y-14808976D02*
X9285387Y-14675643D01*
X9285387Y-14694690D02*
X9294911Y-14685167D01*
X9313958Y-14675643D01*
X9342530Y-14675643D01*
X9361577Y-14685167D01*
X9371101Y-14704214D01*
X9371101Y-14808976D01*
X9371101Y-14704214D02*
X9380625Y-14685167D01*
X9399673Y-14675643D01*
X9428244Y-14675643D01*
X9447292Y-14685167D01*
X9456815Y-14704214D01*
X9456815Y-14808976D01*
X9552054Y-14808976D02*
X9552054Y-14675643D01*
X9552054Y-14694690D02*
X9561577Y-14685167D01*
X9580625Y-14675643D01*
X9609196Y-14675643D01*
X9628244Y-14685167D01*
X9637768Y-14704214D01*
X9637768Y-14808976D01*
X9637768Y-14704214D02*
X9647292Y-14685167D01*
X9666339Y-14675643D01*
X9694911Y-14675643D01*
X9713958Y-14685167D01*
X9723482Y-14704214D01*
X9723482Y-14808976D01*
X10113958Y-14599452D02*
X9942530Y-14856595D01*
X10371101Y-14608976D02*
X10390149Y-14608976D01*
X10409196Y-14618500D01*
X10418720Y-14628024D01*
X10428244Y-14647071D01*
X10437768Y-14685167D01*
X10437768Y-14732786D01*
X10428244Y-14770881D01*
X10418720Y-14789928D01*
X10409196Y-14799452D01*
X10390149Y-14808976D01*
X10371101Y-14808976D01*
X10352054Y-14799452D01*
X10342530Y-14789928D01*
X10333006Y-14770881D01*
X10323482Y-14732786D01*
X10323482Y-14685167D01*
X10333006Y-14647071D01*
X10342530Y-14628024D01*
X10352054Y-14618500D01*
X10371101Y-14608976D01*
X10523482Y-14789928D02*
X10533006Y-14799452D01*
X10523482Y-14808976D01*
X10513958Y-14799452D01*
X10523482Y-14789928D01*
X10523482Y-14808976D01*
X10656815Y-14608976D02*
X10675863Y-14608976D01*
X10694911Y-14618500D01*
X10704435Y-14628024D01*
X10713958Y-14647071D01*
X10723482Y-14685167D01*
X10723482Y-14732786D01*
X10713958Y-14770881D01*
X10704435Y-14789928D01*
X10694911Y-14799452D01*
X10675863Y-14808976D01*
X10656815Y-14808976D01*
X10637768Y-14799452D01*
X10628244Y-14789928D01*
X10618720Y-14770881D01*
X10609196Y-14732786D01*
X10609196Y-14685167D01*
X10618720Y-14647071D01*
X10628244Y-14628024D01*
X10637768Y-14618500D01*
X10656815Y-14608976D01*
X10894911Y-14675643D02*
X10894911Y-14808976D01*
X10847292Y-14599452D02*
X10799673Y-14742309D01*
X10923482Y-14742309D01*
X11037768Y-14608976D02*
X11056815Y-14608976D01*
X11075863Y-14618500D01*
X11085387Y-14628024D01*
X11094911Y-14647071D01*
X11104435Y-14685167D01*
X11104435Y-14732786D01*
X11094911Y-14770881D01*
X11085387Y-14789928D01*
X11075863Y-14799452D01*
X11056815Y-14808976D01*
X11037768Y-14808976D01*
X11018720Y-14799452D01*
X11009196Y-14789928D01*
X10999673Y-14770881D01*
X10990149Y-14732786D01*
X10990149Y-14685167D01*
X10999673Y-14647071D01*
X11009196Y-14628024D01*
X11018720Y-14618500D01*
X11037768Y-14608976D01*
X11180625Y-14628024D02*
X11190149Y-14618500D01*
X11209196Y-14608976D01*
X11256815Y-14608976D01*
X11275863Y-14618500D01*
X11285387Y-14628024D01*
X11294911Y-14647071D01*
X11294911Y-14666119D01*
X11285387Y-14694690D01*
X11171101Y-14808976D01*
X11294911Y-14808976D01*
X11371101Y-14608976D02*
X11371101Y-14647071D01*
X11447292Y-14608976D02*
X11447292Y-14647071D01*
X11742530Y-14885167D02*
X11733006Y-14875643D01*
X11713958Y-14847071D01*
X11704434Y-14828024D01*
X11694911Y-14799452D01*
X11685387Y-14751833D01*
X11685387Y-14713738D01*
X11694911Y-14666119D01*
X11704434Y-14637548D01*
X11713958Y-14618500D01*
X11733006Y-14589928D01*
X11742530Y-14580405D01*
X11904434Y-14675643D02*
X11904434Y-14808976D01*
X11856815Y-14599452D02*
X11809196Y-14742309D01*
X11933006Y-14742309D01*
X12047292Y-14608976D02*
X12066339Y-14608976D01*
X12085387Y-14618500D01*
X12094911Y-14628024D01*
X12104434Y-14647071D01*
X12113958Y-14685167D01*
X12113958Y-14732786D01*
X12104434Y-14770881D01*
X12094911Y-14789928D01*
X12085387Y-14799452D01*
X12066339Y-14808976D01*
X12047292Y-14808976D01*
X12028244Y-14799452D01*
X12018720Y-14789928D01*
X12009196Y-14770881D01*
X11999673Y-14732786D01*
X11999673Y-14685167D01*
X12009196Y-14647071D01*
X12018720Y-14628024D01*
X12028244Y-14618500D01*
X12047292Y-14608976D01*
X12352053Y-14808976D02*
X12352053Y-14608976D01*
X12437768Y-14808976D02*
X12437768Y-14704214D01*
X12428244Y-14685167D01*
X12409196Y-14675643D01*
X12380625Y-14675643D01*
X12361577Y-14685167D01*
X12352053Y-14694690D01*
X12561577Y-14808976D02*
X12542530Y-14799452D01*
X12533006Y-14789928D01*
X12523482Y-14770881D01*
X12523482Y-14713738D01*
X12533006Y-14694690D01*
X12542530Y-14685167D01*
X12561577Y-14675643D01*
X12590149Y-14675643D01*
X12609196Y-14685167D01*
X12618720Y-14694690D01*
X12628244Y-14713738D01*
X12628244Y-14770881D01*
X12618720Y-14789928D01*
X12609196Y-14799452D01*
X12590149Y-14808976D01*
X12561577Y-14808976D01*
X12742530Y-14808976D02*
X12723482Y-14799452D01*
X12713958Y-14780405D01*
X12713958Y-14608976D01*
X12894911Y-14799452D02*
X12875863Y-14808976D01*
X12837768Y-14808976D01*
X12818720Y-14799452D01*
X12809196Y-14780405D01*
X12809196Y-14704214D01*
X12818720Y-14685167D01*
X12837768Y-14675643D01*
X12875863Y-14675643D01*
X12894911Y-14685167D01*
X12904434Y-14704214D01*
X12904434Y-14723262D01*
X12809196Y-14742309D01*
X12980625Y-14799452D02*
X12999673Y-14808976D01*
X13037768Y-14808976D01*
X13056815Y-14799452D01*
X13066339Y-14780405D01*
X13066339Y-14770881D01*
X13056815Y-14751833D01*
X13037768Y-14742309D01*
X13009196Y-14742309D01*
X12990149Y-14732786D01*
X12980625Y-14713738D01*
X12980625Y-14704214D01*
X12990149Y-14685167D01*
X13009196Y-14675643D01*
X13037768Y-14675643D01*
X13056815Y-14685167D01*
X13133006Y-14885167D02*
X13142530Y-14875643D01*
X13161577Y-14847071D01*
X13171101Y-14828024D01*
X13180625Y-14799452D01*
X13190149Y-14751833D01*
X13190149Y-14713738D01*
X13180625Y-14666119D01*
X13171101Y-14637548D01*
X13161577Y-14618500D01*
X13142530Y-14589928D01*
X13133006Y-14580405D01*
D16*
X8050625Y-14922500D02*
X8170625Y-15042500D01*
X8170625Y-14922500D02*
X8050625Y-15042500D01*
X8170625Y-14982500D02*
G75*
G03*
X8170625Y-14982500I-60000J0D01*
G01*
D11*
X8533006Y-15072976D02*
X8418720Y-15072976D01*
X8475863Y-15072976D02*
X8475863Y-14872976D01*
X8456815Y-14901548D01*
X8437768Y-14920595D01*
X8418720Y-14930119D01*
X8618720Y-15053928D02*
X8628244Y-15063452D01*
X8618720Y-15072976D01*
X8609196Y-15063452D01*
X8618720Y-15053928D01*
X8618720Y-15072976D01*
X8704435Y-14892024D02*
X8713958Y-14882500D01*
X8733006Y-14872976D01*
X8780625Y-14872976D01*
X8799673Y-14882500D01*
X8809196Y-14892024D01*
X8818720Y-14911071D01*
X8818720Y-14930119D01*
X8809196Y-14958690D01*
X8694911Y-15072976D01*
X8818720Y-15072976D01*
X8942530Y-14872976D02*
X8961577Y-14872976D01*
X8980625Y-14882500D01*
X8990149Y-14892024D01*
X8999673Y-14911071D01*
X9009196Y-14949167D01*
X9009196Y-14996786D01*
X8999673Y-15034881D01*
X8990149Y-15053928D01*
X8980625Y-15063452D01*
X8961577Y-15072976D01*
X8942530Y-15072976D01*
X8923482Y-15063452D01*
X8913958Y-15053928D01*
X8904435Y-15034881D01*
X8894911Y-14996786D01*
X8894911Y-14949167D01*
X8904435Y-14911071D01*
X8913958Y-14892024D01*
X8923482Y-14882500D01*
X8942530Y-14872976D01*
X9133006Y-14872976D02*
X9152054Y-14872976D01*
X9171101Y-14882500D01*
X9180625Y-14892024D01*
X9190149Y-14911071D01*
X9199673Y-14949167D01*
X9199673Y-14996786D01*
X9190149Y-15034881D01*
X9180625Y-15053928D01*
X9171101Y-15063452D01*
X9152054Y-15072976D01*
X9133006Y-15072976D01*
X9113958Y-15063452D01*
X9104435Y-15053928D01*
X9094911Y-15034881D01*
X9085387Y-14996786D01*
X9085387Y-14949167D01*
X9094911Y-14911071D01*
X9104435Y-14892024D01*
X9113958Y-14882500D01*
X9133006Y-14872976D01*
X9285387Y-15072976D02*
X9285387Y-14939643D01*
X9285387Y-14958690D02*
X9294911Y-14949167D01*
X9313958Y-14939643D01*
X9342530Y-14939643D01*
X9361577Y-14949167D01*
X9371101Y-14968214D01*
X9371101Y-15072976D01*
X9371101Y-14968214D02*
X9380625Y-14949167D01*
X9399673Y-14939643D01*
X9428244Y-14939643D01*
X9447292Y-14949167D01*
X9456815Y-14968214D01*
X9456815Y-15072976D01*
X9552054Y-15072976D02*
X9552054Y-14939643D01*
X9552054Y-14958690D02*
X9561577Y-14949167D01*
X9580625Y-14939643D01*
X9609196Y-14939643D01*
X9628244Y-14949167D01*
X9637768Y-14968214D01*
X9637768Y-15072976D01*
X9637768Y-14968214D02*
X9647292Y-14949167D01*
X9666339Y-14939643D01*
X9694911Y-14939643D01*
X9713958Y-14949167D01*
X9723482Y-14968214D01*
X9723482Y-15072976D01*
X10113958Y-14863452D02*
X9942530Y-15120595D01*
X10371101Y-14872976D02*
X10390149Y-14872976D01*
X10409196Y-14882500D01*
X10418720Y-14892024D01*
X10428244Y-14911071D01*
X10437768Y-14949167D01*
X10437768Y-14996786D01*
X10428244Y-15034881D01*
X10418720Y-15053928D01*
X10409196Y-15063452D01*
X10390149Y-15072976D01*
X10371101Y-15072976D01*
X10352054Y-15063452D01*
X10342530Y-15053928D01*
X10333006Y-15034881D01*
X10323482Y-14996786D01*
X10323482Y-14949167D01*
X10333006Y-14911071D01*
X10342530Y-14892024D01*
X10352054Y-14882500D01*
X10371101Y-14872976D01*
X10523482Y-15053928D02*
X10533006Y-15063452D01*
X10523482Y-15072976D01*
X10513958Y-15063452D01*
X10523482Y-15053928D01*
X10523482Y-15072976D01*
X10656815Y-14872976D02*
X10675863Y-14872976D01*
X10694911Y-14882500D01*
X10704435Y-14892024D01*
X10713958Y-14911071D01*
X10723482Y-14949167D01*
X10723482Y-14996786D01*
X10713958Y-15034881D01*
X10704435Y-15053928D01*
X10694911Y-15063452D01*
X10675863Y-15072976D01*
X10656815Y-15072976D01*
X10637768Y-15063452D01*
X10628244Y-15053928D01*
X10618720Y-15034881D01*
X10609196Y-14996786D01*
X10609196Y-14949167D01*
X10618720Y-14911071D01*
X10628244Y-14892024D01*
X10637768Y-14882500D01*
X10656815Y-14872976D01*
X10894911Y-14939643D02*
X10894911Y-15072976D01*
X10847292Y-14863452D02*
X10799673Y-15006309D01*
X10923482Y-15006309D01*
X10980625Y-14872976D02*
X11113958Y-14872976D01*
X11028244Y-15072976D01*
X11180625Y-14892024D02*
X11190149Y-14882500D01*
X11209196Y-14872976D01*
X11256815Y-14872976D01*
X11275863Y-14882500D01*
X11285387Y-14892024D01*
X11294911Y-14911071D01*
X11294911Y-14930119D01*
X11285387Y-14958690D01*
X11171101Y-15072976D01*
X11294911Y-15072976D01*
X11371101Y-14872976D02*
X11371101Y-14911071D01*
X11447292Y-14872976D02*
X11447292Y-14911071D01*
X11742530Y-15149167D02*
X11733006Y-15139643D01*
X11713958Y-15111071D01*
X11704434Y-15092024D01*
X11694911Y-15063452D01*
X11685387Y-15015833D01*
X11685387Y-14977738D01*
X11694911Y-14930119D01*
X11704434Y-14901548D01*
X11713958Y-14882500D01*
X11733006Y-14853928D01*
X11742530Y-14844405D01*
X11809196Y-14892024D02*
X11818720Y-14882500D01*
X11837768Y-14872976D01*
X11885387Y-14872976D01*
X11904434Y-14882500D01*
X11913958Y-14892024D01*
X11923482Y-14911071D01*
X11923482Y-14930119D01*
X11913958Y-14958690D01*
X11799673Y-15072976D01*
X11923482Y-15072976D01*
X12047292Y-14872976D02*
X12066339Y-14872976D01*
X12085387Y-14882500D01*
X12094911Y-14892024D01*
X12104434Y-14911071D01*
X12113958Y-14949167D01*
X12113958Y-14996786D01*
X12104434Y-15034881D01*
X12094911Y-15053928D01*
X12085387Y-15063452D01*
X12066339Y-15072976D01*
X12047292Y-15072976D01*
X12028244Y-15063452D01*
X12018720Y-15053928D01*
X12009196Y-15034881D01*
X11999673Y-14996786D01*
X11999673Y-14949167D01*
X12009196Y-14911071D01*
X12018720Y-14892024D01*
X12028244Y-14882500D01*
X12047292Y-14872976D01*
X12352053Y-15072976D02*
X12352053Y-14872976D01*
X12437768Y-15072976D02*
X12437768Y-14968214D01*
X12428244Y-14949167D01*
X12409196Y-14939643D01*
X12380625Y-14939643D01*
X12361577Y-14949167D01*
X12352053Y-14958690D01*
X12561577Y-15072976D02*
X12542530Y-15063452D01*
X12533006Y-15053928D01*
X12523482Y-15034881D01*
X12523482Y-14977738D01*
X12533006Y-14958690D01*
X12542530Y-14949167D01*
X12561577Y-14939643D01*
X12590149Y-14939643D01*
X12609196Y-14949167D01*
X12618720Y-14958690D01*
X12628244Y-14977738D01*
X12628244Y-15034881D01*
X12618720Y-15053928D01*
X12609196Y-15063452D01*
X12590149Y-15072976D01*
X12561577Y-15072976D01*
X12742530Y-15072976D02*
X12723482Y-15063452D01*
X12713958Y-15044405D01*
X12713958Y-14872976D01*
X12894911Y-15063452D02*
X12875863Y-15072976D01*
X12837768Y-15072976D01*
X12818720Y-15063452D01*
X12809196Y-15044405D01*
X12809196Y-14968214D01*
X12818720Y-14949167D01*
X12837768Y-14939643D01*
X12875863Y-14939643D01*
X12894911Y-14949167D01*
X12904434Y-14968214D01*
X12904434Y-14987262D01*
X12809196Y-15006309D01*
X12980625Y-15063452D02*
X12999673Y-15072976D01*
X13037768Y-15072976D01*
X13056815Y-15063452D01*
X13066339Y-15044405D01*
X13066339Y-15034881D01*
X13056815Y-15015833D01*
X13037768Y-15006309D01*
X13009196Y-15006309D01*
X12990149Y-14996786D01*
X12980625Y-14977738D01*
X12980625Y-14968214D01*
X12990149Y-14949167D01*
X13009196Y-14939643D01*
X13037768Y-14939643D01*
X13056815Y-14949167D01*
X13133006Y-15149167D02*
X13142530Y-15139643D01*
X13161577Y-15111071D01*
X13171101Y-15092024D01*
X13180625Y-15063452D01*
X13190149Y-15015833D01*
X13190149Y-14977738D01*
X13180625Y-14930119D01*
X13171101Y-14901548D01*
X13161577Y-14882500D01*
X13142530Y-14853928D01*
X13133006Y-14844405D01*
D17*
X8040625Y-15181500D02*
X8170625Y-15311500D01*
X8170625Y-15181500D02*
X8040625Y-15311500D01*
X8105625Y-15181500D02*
X8105625Y-15311500D01*
X8040625Y-15246500D02*
X8170625Y-15246500D01*
D11*
X8533006Y-15336976D02*
X8418720Y-15336976D01*
X8475863Y-15336976D02*
X8475863Y-15136976D01*
X8456815Y-15165548D01*
X8437768Y-15184595D01*
X8418720Y-15194119D01*
X8618720Y-15317928D02*
X8628244Y-15327452D01*
X8618720Y-15336976D01*
X8609196Y-15327452D01*
X8618720Y-15317928D01*
X8618720Y-15336976D01*
X8694911Y-15136976D02*
X8818720Y-15136976D01*
X8752054Y-15213167D01*
X8780625Y-15213167D01*
X8799673Y-15222690D01*
X8809196Y-15232214D01*
X8818720Y-15251262D01*
X8818720Y-15298881D01*
X8809196Y-15317928D01*
X8799673Y-15327452D01*
X8780625Y-15336976D01*
X8723482Y-15336976D01*
X8704435Y-15327452D01*
X8694911Y-15317928D01*
X8942530Y-15136976D02*
X8961577Y-15136976D01*
X8980625Y-15146500D01*
X8990149Y-15156024D01*
X8999673Y-15175071D01*
X9009196Y-15213167D01*
X9009196Y-15260786D01*
X8999673Y-15298881D01*
X8990149Y-15317928D01*
X8980625Y-15327452D01*
X8961577Y-15336976D01*
X8942530Y-15336976D01*
X8923482Y-15327452D01*
X8913958Y-15317928D01*
X8904435Y-15298881D01*
X8894911Y-15260786D01*
X8894911Y-15213167D01*
X8904435Y-15175071D01*
X8913958Y-15156024D01*
X8923482Y-15146500D01*
X8942530Y-15136976D01*
X9133006Y-15136976D02*
X9152054Y-15136976D01*
X9171101Y-15146500D01*
X9180625Y-15156024D01*
X9190149Y-15175071D01*
X9199673Y-15213167D01*
X9199673Y-15260786D01*
X9190149Y-15298881D01*
X9180625Y-15317928D01*
X9171101Y-15327452D01*
X9152054Y-15336976D01*
X9133006Y-15336976D01*
X9113958Y-15327452D01*
X9104435Y-15317928D01*
X9094911Y-15298881D01*
X9085387Y-15260786D01*
X9085387Y-15213167D01*
X9094911Y-15175071D01*
X9104435Y-15156024D01*
X9113958Y-15146500D01*
X9133006Y-15136976D01*
X9285387Y-15336976D02*
X9285387Y-15203643D01*
X9285387Y-15222690D02*
X9294911Y-15213167D01*
X9313958Y-15203643D01*
X9342530Y-15203643D01*
X9361577Y-15213167D01*
X9371101Y-15232214D01*
X9371101Y-15336976D01*
X9371101Y-15232214D02*
X9380625Y-15213167D01*
X9399673Y-15203643D01*
X9428244Y-15203643D01*
X9447292Y-15213167D01*
X9456815Y-15232214D01*
X9456815Y-15336976D01*
X9552054Y-15336976D02*
X9552054Y-15203643D01*
X9552054Y-15222690D02*
X9561577Y-15213167D01*
X9580625Y-15203643D01*
X9609196Y-15203643D01*
X9628244Y-15213167D01*
X9637768Y-15232214D01*
X9637768Y-15336976D01*
X9637768Y-15232214D02*
X9647292Y-15213167D01*
X9666339Y-15203643D01*
X9694911Y-15203643D01*
X9713958Y-15213167D01*
X9723482Y-15232214D01*
X9723482Y-15336976D01*
X10113958Y-15127452D02*
X9942530Y-15384595D01*
X10371101Y-15136976D02*
X10390149Y-15136976D01*
X10409196Y-15146500D01*
X10418720Y-15156024D01*
X10428244Y-15175071D01*
X10437768Y-15213167D01*
X10437768Y-15260786D01*
X10428244Y-15298881D01*
X10418720Y-15317928D01*
X10409196Y-15327452D01*
X10390149Y-15336976D01*
X10371101Y-15336976D01*
X10352054Y-15327452D01*
X10342530Y-15317928D01*
X10333006Y-15298881D01*
X10323482Y-15260786D01*
X10323482Y-15213167D01*
X10333006Y-15175071D01*
X10342530Y-15156024D01*
X10352054Y-15146500D01*
X10371101Y-15136976D01*
X10523482Y-15317928D02*
X10533006Y-15327452D01*
X10523482Y-15336976D01*
X10513958Y-15327452D01*
X10523482Y-15317928D01*
X10523482Y-15336976D01*
X10656815Y-15136976D02*
X10675863Y-15136976D01*
X10694911Y-15146500D01*
X10704435Y-15156024D01*
X10713958Y-15175071D01*
X10723482Y-15213167D01*
X10723482Y-15260786D01*
X10713958Y-15298881D01*
X10704435Y-15317928D01*
X10694911Y-15327452D01*
X10675863Y-15336976D01*
X10656815Y-15336976D01*
X10637768Y-15327452D01*
X10628244Y-15317928D01*
X10618720Y-15298881D01*
X10609196Y-15260786D01*
X10609196Y-15213167D01*
X10618720Y-15175071D01*
X10628244Y-15156024D01*
X10637768Y-15146500D01*
X10656815Y-15136976D01*
X10904435Y-15136976D02*
X10809196Y-15136976D01*
X10799673Y-15232214D01*
X10809196Y-15222690D01*
X10828244Y-15213167D01*
X10875863Y-15213167D01*
X10894911Y-15222690D01*
X10904435Y-15232214D01*
X10913958Y-15251262D01*
X10913958Y-15298881D01*
X10904435Y-15317928D01*
X10894911Y-15327452D01*
X10875863Y-15336976D01*
X10828244Y-15336976D01*
X10809196Y-15327452D01*
X10799673Y-15317928D01*
X11104435Y-15336976D02*
X10990149Y-15336976D01*
X11047292Y-15336976D02*
X11047292Y-15136976D01*
X11028244Y-15165548D01*
X11009196Y-15184595D01*
X10990149Y-15194119D01*
X11180625Y-15156024D02*
X11190149Y-15146500D01*
X11209196Y-15136976D01*
X11256815Y-15136976D01*
X11275863Y-15146500D01*
X11285387Y-15156024D01*
X11294911Y-15175071D01*
X11294911Y-15194119D01*
X11285387Y-15222690D01*
X11171101Y-15336976D01*
X11294911Y-15336976D01*
X11371101Y-15136976D02*
X11371101Y-15175071D01*
X11447292Y-15136976D02*
X11447292Y-15175071D01*
X11742530Y-15413167D02*
X11733006Y-15403643D01*
X11713958Y-15375071D01*
X11704434Y-15356024D01*
X11694911Y-15327452D01*
X11685387Y-15279833D01*
X11685387Y-15241738D01*
X11694911Y-15194119D01*
X11704434Y-15165548D01*
X11713958Y-15146500D01*
X11733006Y-15117928D01*
X11742530Y-15108405D01*
X11904434Y-15203643D02*
X11904434Y-15336976D01*
X11856815Y-15127452D02*
X11809196Y-15270309D01*
X11933006Y-15270309D01*
X12161577Y-15336976D02*
X12161577Y-15136976D01*
X12247292Y-15336976D02*
X12247292Y-15232214D01*
X12237768Y-15213167D01*
X12218720Y-15203643D01*
X12190149Y-15203643D01*
X12171101Y-15213167D01*
X12161577Y-15222690D01*
X12371101Y-15336976D02*
X12352053Y-15327452D01*
X12342530Y-15317928D01*
X12333006Y-15298881D01*
X12333006Y-15241738D01*
X12342530Y-15222690D01*
X12352053Y-15213167D01*
X12371101Y-15203643D01*
X12399673Y-15203643D01*
X12418720Y-15213167D01*
X12428244Y-15222690D01*
X12437768Y-15241738D01*
X12437768Y-15298881D01*
X12428244Y-15317928D01*
X12418720Y-15327452D01*
X12399673Y-15336976D01*
X12371101Y-15336976D01*
X12552053Y-15336976D02*
X12533006Y-15327452D01*
X12523482Y-15308405D01*
X12523482Y-15136976D01*
X12704434Y-15327452D02*
X12685387Y-15336976D01*
X12647292Y-15336976D01*
X12628244Y-15327452D01*
X12618720Y-15308405D01*
X12618720Y-15232214D01*
X12628244Y-15213167D01*
X12647292Y-15203643D01*
X12685387Y-15203643D01*
X12704434Y-15213167D01*
X12713958Y-15232214D01*
X12713958Y-15251262D01*
X12618720Y-15270309D01*
X12790149Y-15327452D02*
X12809196Y-15336976D01*
X12847292Y-15336976D01*
X12866339Y-15327452D01*
X12875863Y-15308405D01*
X12875863Y-15298881D01*
X12866339Y-15279833D01*
X12847292Y-15270309D01*
X12818720Y-15270309D01*
X12799673Y-15260786D01*
X12790149Y-15241738D01*
X12790149Y-15232214D01*
X12799673Y-15213167D01*
X12818720Y-15203643D01*
X12847292Y-15203643D01*
X12866339Y-15213167D01*
X12942530Y-15413167D02*
X12952053Y-15403643D01*
X12971101Y-15375071D01*
X12980625Y-15356024D01*
X12990149Y-15327452D01*
X12999673Y-15279833D01*
X12999673Y-15241738D01*
X12990149Y-15194119D01*
X12980625Y-15165548D01*
X12971101Y-15146500D01*
X12952053Y-15117928D01*
X12942530Y-15108405D01*
D18*
X8023625Y-15437000D02*
X8170625Y-15584000D01*
X8170625Y-15437000D02*
X8023625Y-15584000D01*
X8149098Y-15562473D02*
X8149098Y-15458527D01*
X8045152Y-15458527D01*
X8045152Y-15562473D01*
X8149098Y-15562473D01*
D11*
X8533006Y-15600976D02*
X8418720Y-15600976D01*
X8475863Y-15600976D02*
X8475863Y-15400976D01*
X8456815Y-15429548D01*
X8437768Y-15448595D01*
X8418720Y-15458119D01*
X8618720Y-15581928D02*
X8628244Y-15591452D01*
X8618720Y-15600976D01*
X8609196Y-15591452D01*
X8618720Y-15581928D01*
X8618720Y-15600976D01*
X8799673Y-15467643D02*
X8799673Y-15600976D01*
X8752054Y-15391452D02*
X8704435Y-15534309D01*
X8828244Y-15534309D01*
X8885387Y-15400976D02*
X9018720Y-15400976D01*
X8933006Y-15600976D01*
X9133006Y-15400976D02*
X9152054Y-15400976D01*
X9171101Y-15410500D01*
X9180625Y-15420024D01*
X9190149Y-15439071D01*
X9199673Y-15477167D01*
X9199673Y-15524786D01*
X9190149Y-15562881D01*
X9180625Y-15581928D01*
X9171101Y-15591452D01*
X9152054Y-15600976D01*
X9133006Y-15600976D01*
X9113958Y-15591452D01*
X9104435Y-15581928D01*
X9094911Y-15562881D01*
X9085387Y-15524786D01*
X9085387Y-15477167D01*
X9094911Y-15439071D01*
X9104435Y-15420024D01*
X9113958Y-15410500D01*
X9133006Y-15400976D01*
X9285387Y-15600976D02*
X9285387Y-15467643D01*
X9285387Y-15486690D02*
X9294911Y-15477167D01*
X9313958Y-15467643D01*
X9342530Y-15467643D01*
X9361577Y-15477167D01*
X9371101Y-15496214D01*
X9371101Y-15600976D01*
X9371101Y-15496214D02*
X9380625Y-15477167D01*
X9399673Y-15467643D01*
X9428244Y-15467643D01*
X9447292Y-15477167D01*
X9456815Y-15496214D01*
X9456815Y-15600976D01*
X9552054Y-15600976D02*
X9552054Y-15467643D01*
X9552054Y-15486690D02*
X9561577Y-15477167D01*
X9580625Y-15467643D01*
X9609196Y-15467643D01*
X9628244Y-15477167D01*
X9637768Y-15496214D01*
X9637768Y-15600976D01*
X9637768Y-15496214D02*
X9647292Y-15477167D01*
X9666339Y-15467643D01*
X9694911Y-15467643D01*
X9713958Y-15477167D01*
X9723482Y-15496214D01*
X9723482Y-15600976D01*
X10113958Y-15391452D02*
X9942530Y-15648595D01*
X10371101Y-15400976D02*
X10390149Y-15400976D01*
X10409196Y-15410500D01*
X10418720Y-15420024D01*
X10428244Y-15439071D01*
X10437768Y-15477167D01*
X10437768Y-15524786D01*
X10428244Y-15562881D01*
X10418720Y-15581928D01*
X10409196Y-15591452D01*
X10390149Y-15600976D01*
X10371101Y-15600976D01*
X10352054Y-15591452D01*
X10342530Y-15581928D01*
X10333006Y-15562881D01*
X10323482Y-15524786D01*
X10323482Y-15477167D01*
X10333006Y-15439071D01*
X10342530Y-15420024D01*
X10352054Y-15410500D01*
X10371101Y-15400976D01*
X10523482Y-15581928D02*
X10533006Y-15591452D01*
X10523482Y-15600976D01*
X10513958Y-15591452D01*
X10523482Y-15581928D01*
X10523482Y-15600976D01*
X10656815Y-15400976D02*
X10675863Y-15400976D01*
X10694911Y-15410500D01*
X10704435Y-15420024D01*
X10713958Y-15439071D01*
X10723482Y-15477167D01*
X10723482Y-15524786D01*
X10713958Y-15562881D01*
X10704435Y-15581928D01*
X10694911Y-15591452D01*
X10675863Y-15600976D01*
X10656815Y-15600976D01*
X10637768Y-15591452D01*
X10628244Y-15581928D01*
X10618720Y-15562881D01*
X10609196Y-15524786D01*
X10609196Y-15477167D01*
X10618720Y-15439071D01*
X10628244Y-15420024D01*
X10637768Y-15410500D01*
X10656815Y-15400976D01*
X10904435Y-15400976D02*
X10809196Y-15400976D01*
X10799673Y-15496214D01*
X10809196Y-15486690D01*
X10828244Y-15477167D01*
X10875863Y-15477167D01*
X10894911Y-15486690D01*
X10904435Y-15496214D01*
X10913958Y-15515262D01*
X10913958Y-15562881D01*
X10904435Y-15581928D01*
X10894911Y-15591452D01*
X10875863Y-15600976D01*
X10828244Y-15600976D01*
X10809196Y-15591452D01*
X10799673Y-15581928D01*
X10980625Y-15400976D02*
X11113958Y-15400976D01*
X11028244Y-15600976D01*
X11199673Y-15600976D02*
X11237768Y-15600976D01*
X11256815Y-15591452D01*
X11266339Y-15581928D01*
X11285387Y-15553357D01*
X11294911Y-15515262D01*
X11294911Y-15439071D01*
X11285387Y-15420024D01*
X11275863Y-15410500D01*
X11256815Y-15400976D01*
X11218720Y-15400976D01*
X11199673Y-15410500D01*
X11190149Y-15420024D01*
X11180625Y-15439071D01*
X11180625Y-15486690D01*
X11190149Y-15505738D01*
X11199673Y-15515262D01*
X11218720Y-15524786D01*
X11256815Y-15524786D01*
X11275863Y-15515262D01*
X11285387Y-15505738D01*
X11294911Y-15486690D01*
X11371101Y-15400976D02*
X11371101Y-15439071D01*
X11447292Y-15400976D02*
X11447292Y-15439071D01*
X11742530Y-15677167D02*
X11733006Y-15667643D01*
X11713958Y-15639071D01*
X11704434Y-15620024D01*
X11694911Y-15591452D01*
X11685387Y-15543833D01*
X11685387Y-15505738D01*
X11694911Y-15458119D01*
X11704434Y-15429548D01*
X11713958Y-15410500D01*
X11733006Y-15381928D01*
X11742530Y-15372405D01*
X11904434Y-15467643D02*
X11904434Y-15600976D01*
X11856815Y-15391452D02*
X11809196Y-15534309D01*
X11933006Y-15534309D01*
X12047292Y-15400976D02*
X12066339Y-15400976D01*
X12085387Y-15410500D01*
X12094911Y-15420024D01*
X12104434Y-15439071D01*
X12113958Y-15477167D01*
X12113958Y-15524786D01*
X12104434Y-15562881D01*
X12094911Y-15581928D01*
X12085387Y-15591452D01*
X12066339Y-15600976D01*
X12047292Y-15600976D01*
X12028244Y-15591452D01*
X12018720Y-15581928D01*
X12009196Y-15562881D01*
X11999673Y-15524786D01*
X11999673Y-15477167D01*
X12009196Y-15439071D01*
X12018720Y-15420024D01*
X12028244Y-15410500D01*
X12047292Y-15400976D01*
X12352053Y-15600976D02*
X12352053Y-15400976D01*
X12437768Y-15600976D02*
X12437768Y-15496214D01*
X12428244Y-15477167D01*
X12409196Y-15467643D01*
X12380625Y-15467643D01*
X12361577Y-15477167D01*
X12352053Y-15486690D01*
X12561577Y-15600976D02*
X12542530Y-15591452D01*
X12533006Y-15581928D01*
X12523482Y-15562881D01*
X12523482Y-15505738D01*
X12533006Y-15486690D01*
X12542530Y-15477167D01*
X12561577Y-15467643D01*
X12590149Y-15467643D01*
X12609196Y-15477167D01*
X12618720Y-15486690D01*
X12628244Y-15505738D01*
X12628244Y-15562881D01*
X12618720Y-15581928D01*
X12609196Y-15591452D01*
X12590149Y-15600976D01*
X12561577Y-15600976D01*
X12742530Y-15600976D02*
X12723482Y-15591452D01*
X12713958Y-15572405D01*
X12713958Y-15400976D01*
X12894911Y-15591452D02*
X12875863Y-15600976D01*
X12837768Y-15600976D01*
X12818720Y-15591452D01*
X12809196Y-15572405D01*
X12809196Y-15496214D01*
X12818720Y-15477167D01*
X12837768Y-15467643D01*
X12875863Y-15467643D01*
X12894911Y-15477167D01*
X12904434Y-15496214D01*
X12904434Y-15515262D01*
X12809196Y-15534309D01*
X12980625Y-15591452D02*
X12999673Y-15600976D01*
X13037768Y-15600976D01*
X13056815Y-15591452D01*
X13066339Y-15572405D01*
X13066339Y-15562881D01*
X13056815Y-15543833D01*
X13037768Y-15534309D01*
X13009196Y-15534309D01*
X12990149Y-15524786D01*
X12980625Y-15505738D01*
X12980625Y-15496214D01*
X12990149Y-15477167D01*
X13009196Y-15467643D01*
X13037768Y-15467643D01*
X13056815Y-15477167D01*
X13133006Y-15677167D02*
X13142530Y-15667643D01*
X13161577Y-15639071D01*
X13171101Y-15620024D01*
X13180625Y-15591452D01*
X13190149Y-15543833D01*
X13190149Y-15505738D01*
X13180625Y-15458119D01*
X13171101Y-15429548D01*
X13161577Y-15410500D01*
X13142530Y-15381928D01*
X13133006Y-15372405D01*
M02*
