%TF.GenerationSoftware,KiCad,Pcbnew,(6.0.8)*%
%TF.CreationDate,2022-10-16T15:49:15-06:00*%
%TF.ProjectId,pcb,7063622e-6b69-4636-9164-5f7063625858,rev?*%
%TF.SameCoordinates,Original*%
%TF.FileFunction,Soldermask,Top*%
%TF.FilePolarity,Negative*%
%FSLAX46Y46*%
G04 Gerber Fmt 4.6, Leading zero omitted, Abs format (unit mm)*
G04 Created by KiCad (PCBNEW (6.0.8)) date 2022-10-16 15:49:15*
%MOMM*%
%LPD*%
G01*
G04 APERTURE LIST*
%ADD10C,1.750000*%
%ADD11C,3.987800*%
%ADD12R,1.700000X1.700000*%
%ADD13O,1.700000X1.700000*%
%ADD14O,1.500000X1.500000*%
%ADD15O,1.800000X1.800000*%
G04 APERTURE END LIST*
D10*
%TO.C,MX10*%
X187007500Y-114300000D03*
D11*
X192087500Y-114300000D03*
D10*
X197167500Y-114300000D03*
%TD*%
%TO.C,MX1*%
X86925250Y-114300000D03*
D11*
X92005250Y-114300000D03*
D10*
X97085250Y-114300000D03*
%TD*%
%TO.C,MX3*%
X105975250Y-95250000D03*
D11*
X111055250Y-95250000D03*
D10*
X116135250Y-95250000D03*
%TD*%
%TO.C,MX6*%
X148907500Y-76200000D03*
D11*
X153987500Y-76200000D03*
D10*
X159067500Y-76200000D03*
%TD*%
D12*
%TO.C,REF\u002A\u002A*%
X94456250Y-95250000D03*
D13*
X91916250Y-95250000D03*
X89376250Y-95250000D03*
%TD*%
D10*
%TO.C,MX8*%
X167957500Y-95250000D03*
D11*
X173037500Y-95250000D03*
D10*
X178117500Y-95250000D03*
%TD*%
%TO.C,MX5*%
X125095000Y-114300000D03*
D11*
X130175000Y-114300000D03*
D10*
X135255000Y-114300000D03*
%TD*%
%TO.C,MX2*%
X86925250Y-76200000D03*
D11*
X92005250Y-76200000D03*
D10*
X97085250Y-76200000D03*
%TD*%
%TO.C,MX7*%
X148907500Y-114300000D03*
D11*
X153987500Y-114300000D03*
D10*
X159067500Y-114300000D03*
%TD*%
%TO.C,MX4*%
X125025250Y-76200000D03*
D11*
X130105250Y-76200000D03*
D10*
X135185250Y-76200000D03*
%TD*%
%TO.C,MX9*%
X187007500Y-76200000D03*
D11*
X192087500Y-76200000D03*
D10*
X197167500Y-76200000D03*
%TD*%
D13*
%TO.C,U1*%
X170427750Y-109432998D03*
D12*
X172967750Y-109432998D03*
D13*
X175507750Y-109432998D03*
X164077750Y-61402998D03*
X164077750Y-63942998D03*
D12*
X164077750Y-66482998D03*
D13*
X164077750Y-69022998D03*
X164077750Y-71562998D03*
X164077750Y-74102998D03*
X164077750Y-76642998D03*
D12*
X164077750Y-79182998D03*
D13*
X164077750Y-81722998D03*
X164077750Y-84262998D03*
X164077750Y-86802998D03*
X164077750Y-89342998D03*
D12*
X164077750Y-91882998D03*
D13*
X164077750Y-94422998D03*
X164077750Y-96962998D03*
X164077750Y-99502998D03*
X164077750Y-102042998D03*
D12*
X164077750Y-104582998D03*
D13*
X164077750Y-107122998D03*
X164077750Y-109662998D03*
X181857750Y-109662998D03*
X181857750Y-107122998D03*
D12*
X181857750Y-104582998D03*
D13*
X181857750Y-102042998D03*
X181857750Y-99502998D03*
X181857750Y-96962998D03*
X181857750Y-94422998D03*
D12*
X181857750Y-91882998D03*
D13*
X181857750Y-89342998D03*
X181857750Y-86802998D03*
X181857750Y-84262998D03*
X181857750Y-81722998D03*
D12*
X181857750Y-79182998D03*
D13*
X181857750Y-76642998D03*
X181857750Y-74102998D03*
X181857750Y-71562998D03*
X181857750Y-69022998D03*
D12*
X181857750Y-66482998D03*
D13*
X181857750Y-63942998D03*
X181857750Y-61402998D03*
D14*
X170542750Y-64562998D03*
X175392750Y-64562998D03*
D15*
X175692750Y-61532998D03*
X170242750Y-61532998D03*
%TD*%
M02*
