%TF.GenerationSoftware,KiCad,Pcbnew,(6.0.8)*%
%TF.CreationDate,2022-10-13T20:46:09-06:00*%
%TF.ProjectId,pcb,7063622e-6b69-4636-9164-5f7063625858,rev?*%
%TF.SameCoordinates,Original*%
%TF.FileFunction,Soldermask,Bot*%
%TF.FilePolarity,Negative*%
%FSLAX46Y46*%
G04 Gerber Fmt 4.6, Leading zero omitted, Abs format (unit mm)*
G04 Created by KiCad (PCBNEW (6.0.8)) date 2022-10-13 20:46:09*
%MOMM*%
%LPD*%
G01*
G04 APERTURE LIST*
%ADD10C,0.150000*%
%ADD11R,1.700000X1.700000*%
%ADD12O,1.700000X1.700000*%
%ADD13C,1.750000*%
%ADD14R,1.905000X1.905000*%
%ADD15C,1.905000*%
%ADD16C,2.250000*%
%ADD17C,3.987800*%
%ADD18O,1.800000X1.800000*%
%ADD19O,1.500000X1.500000*%
%ADD20R,3.500000X1.700000*%
%ADD21R,1.700000X3.500000*%
G04 APERTURE END LIST*
D10*
X147363690Y-62404761D02*
X147363690Y-62785714D01*
X146601785Y-62404761D02*
X146601785Y-62785714D01*
X145935119Y-62404761D02*
X145458928Y-64404761D01*
X145077976Y-62976190D01*
X144697023Y-64404761D01*
X144220833Y-62404761D01*
X143458928Y-64404761D02*
X143458928Y-62404761D01*
X142601785Y-64404761D02*
X142601785Y-63357142D01*
X142697023Y-63166666D01*
X142887500Y-63071428D01*
X143173214Y-63071428D01*
X143363690Y-63166666D01*
X143458928Y-63261904D01*
X141839880Y-63071428D02*
X141363690Y-64404761D01*
X140887500Y-63071428D02*
X141363690Y-64404761D01*
X141554166Y-64880952D01*
X141649404Y-64976190D01*
X141839880Y-65071428D01*
X138697023Y-64309523D02*
X138506547Y-64404761D01*
X138125595Y-64404761D01*
X137935119Y-64309523D01*
X137839880Y-64119047D01*
X137839880Y-64023809D01*
X137935119Y-63833333D01*
X138125595Y-63738095D01*
X138411309Y-63738095D01*
X138601785Y-63642857D01*
X138697023Y-63452380D01*
X138697023Y-63357142D01*
X138601785Y-63166666D01*
X138411309Y-63071428D01*
X138125595Y-63071428D01*
X137935119Y-63166666D01*
X136220833Y-64309523D02*
X136411309Y-64404761D01*
X136792261Y-64404761D01*
X136982738Y-64309523D01*
X137077976Y-64119047D01*
X137077976Y-63357142D01*
X136982738Y-63166666D01*
X136792261Y-63071428D01*
X136411309Y-63071428D01*
X136220833Y-63166666D01*
X136125595Y-63357142D01*
X136125595Y-63547619D01*
X137077976Y-63738095D01*
X135554166Y-63071428D02*
X134792261Y-63071428D01*
X135268452Y-62404761D02*
X135268452Y-64119047D01*
X135173214Y-64309523D01*
X134982738Y-64404761D01*
X134792261Y-64404761D01*
X134411309Y-63071428D02*
X133649404Y-63071428D01*
X134125595Y-62404761D02*
X134125595Y-64119047D01*
X134030357Y-64309523D01*
X133839880Y-64404761D01*
X133649404Y-64404761D01*
X132697023Y-64404761D02*
X132887500Y-64309523D01*
X132982738Y-64119047D01*
X132982738Y-62404761D01*
X131173214Y-64309523D02*
X131363690Y-64404761D01*
X131744642Y-64404761D01*
X131935119Y-64309523D01*
X132030357Y-64119047D01*
X132030357Y-63357142D01*
X131935119Y-63166666D01*
X131744642Y-63071428D01*
X131363690Y-63071428D01*
X131173214Y-63166666D01*
X131077976Y-63357142D01*
X131077976Y-63547619D01*
X132030357Y-63738095D01*
X128982738Y-63071428D02*
X128220833Y-63071428D01*
X128697023Y-64404761D02*
X128697023Y-62690476D01*
X128601785Y-62500000D01*
X128411309Y-62404761D01*
X128220833Y-62404761D01*
X127268452Y-64404761D02*
X127458928Y-64309523D01*
X127554166Y-64214285D01*
X127649404Y-64023809D01*
X127649404Y-63452380D01*
X127554166Y-63261904D01*
X127458928Y-63166666D01*
X127268452Y-63071428D01*
X126982738Y-63071428D01*
X126792261Y-63166666D01*
X126697023Y-63261904D01*
X126601785Y-63452380D01*
X126601785Y-64023809D01*
X126697023Y-64214285D01*
X126792261Y-64309523D01*
X126982738Y-64404761D01*
X127268452Y-64404761D01*
X125744642Y-64404761D02*
X125744642Y-63071428D01*
X125744642Y-63452380D02*
X125649404Y-63261904D01*
X125554166Y-63166666D01*
X125363690Y-63071428D01*
X125173214Y-63071428D01*
X122125595Y-63071428D02*
X122125595Y-64404761D01*
X122601785Y-62309523D02*
X123077976Y-63738095D01*
X121839880Y-63738095D01*
X119744642Y-63071428D02*
X119363690Y-64404761D01*
X118982738Y-63452380D01*
X118601785Y-64404761D01*
X118220833Y-63071428D01*
X117458928Y-64404761D02*
X117458928Y-62404761D01*
X116601785Y-64404761D02*
X116601785Y-63357142D01*
X116697023Y-63166666D01*
X116887500Y-63071428D01*
X117173214Y-63071428D01*
X117363690Y-63166666D01*
X117458928Y-63261904D01*
X114887500Y-64309523D02*
X115077976Y-64404761D01*
X115458928Y-64404761D01*
X115649404Y-64309523D01*
X115744642Y-64119047D01*
X115744642Y-63357142D01*
X115649404Y-63166666D01*
X115458928Y-63071428D01*
X115077976Y-63071428D01*
X114887500Y-63166666D01*
X114792261Y-63357142D01*
X114792261Y-63547619D01*
X115744642Y-63738095D01*
X113935119Y-63071428D02*
X113935119Y-64404761D01*
X113935119Y-63261904D02*
X113839880Y-63166666D01*
X113649404Y-63071428D01*
X113363690Y-63071428D01*
X113173214Y-63166666D01*
X113077976Y-63357142D01*
X113077976Y-64404761D01*
X110792261Y-63071428D02*
X110316071Y-64404761D01*
X109839880Y-63071428D02*
X110316071Y-64404761D01*
X110506547Y-64880952D01*
X110601785Y-64976190D01*
X110792261Y-65071428D01*
X108792261Y-64404761D02*
X108982738Y-64309523D01*
X109077976Y-64214285D01*
X109173214Y-64023809D01*
X109173214Y-63452380D01*
X109077976Y-63261904D01*
X108982738Y-63166666D01*
X108792261Y-63071428D01*
X108506547Y-63071428D01*
X108316071Y-63166666D01*
X108220833Y-63261904D01*
X108125595Y-63452380D01*
X108125595Y-64023809D01*
X108220833Y-64214285D01*
X108316071Y-64309523D01*
X108506547Y-64404761D01*
X108792261Y-64404761D01*
X106411309Y-63071428D02*
X106411309Y-64404761D01*
X107268452Y-63071428D02*
X107268452Y-64119047D01*
X107173214Y-64309523D01*
X106982738Y-64404761D01*
X106697023Y-64404761D01*
X106506547Y-64309523D01*
X106411309Y-64214285D01*
X103077976Y-64309523D02*
X103268452Y-64404761D01*
X103649404Y-64404761D01*
X103839880Y-64309523D01*
X103935119Y-64214285D01*
X104030357Y-64023809D01*
X104030357Y-63452380D01*
X103935119Y-63261904D01*
X103839880Y-63166666D01*
X103649404Y-63071428D01*
X103268452Y-63071428D01*
X103077976Y-63166666D01*
X101363690Y-64404761D02*
X101363690Y-63357142D01*
X101458928Y-63166666D01*
X101649404Y-63071428D01*
X102030357Y-63071428D01*
X102220833Y-63166666D01*
X101363690Y-64309523D02*
X101554166Y-64404761D01*
X102030357Y-64404761D01*
X102220833Y-64309523D01*
X102316071Y-64119047D01*
X102316071Y-63928571D01*
X102220833Y-63738095D01*
X102030357Y-63642857D01*
X101554166Y-63642857D01*
X101363690Y-63547619D01*
X100411309Y-63071428D02*
X100411309Y-64404761D01*
X100411309Y-63261904D02*
X100316071Y-63166666D01*
X100125595Y-63071428D01*
X99839880Y-63071428D01*
X99649404Y-63166666D01*
X99554166Y-63357142D01*
X99554166Y-64404761D01*
X97077976Y-64404761D02*
X97077976Y-62404761D01*
X96220833Y-64404761D02*
X96220833Y-63357142D01*
X96316071Y-63166666D01*
X96506547Y-63071428D01*
X96792261Y-63071428D01*
X96982738Y-63166666D01*
X97077976Y-63261904D01*
X94411309Y-64404761D02*
X94411309Y-63357142D01*
X94506547Y-63166666D01*
X94697023Y-63071428D01*
X95077976Y-63071428D01*
X95268452Y-63166666D01*
X94411309Y-64309523D02*
X94601785Y-64404761D01*
X95077976Y-64404761D01*
X95268452Y-64309523D01*
X95363690Y-64119047D01*
X95363690Y-63928571D01*
X95268452Y-63738095D01*
X95077976Y-63642857D01*
X94601785Y-63642857D01*
X94411309Y-63547619D01*
X93649404Y-63071428D02*
X93173214Y-64404761D01*
X92697023Y-63071428D01*
X91173214Y-64309523D02*
X91363690Y-64404761D01*
X91744642Y-64404761D01*
X91935119Y-64309523D01*
X92030357Y-64119047D01*
X92030357Y-63357142D01*
X91935119Y-63166666D01*
X91744642Y-63071428D01*
X91363690Y-63071428D01*
X91173214Y-63166666D01*
X91077976Y-63357142D01*
X91077976Y-63547619D01*
X92030357Y-63738095D01*
X87744642Y-62404761D02*
X88697023Y-62404761D01*
X88792261Y-63357142D01*
X88697023Y-63261904D01*
X88506547Y-63166666D01*
X88030357Y-63166666D01*
X87839880Y-63261904D01*
X87744642Y-63357142D01*
X87649404Y-63547619D01*
X87649404Y-64023809D01*
X87744642Y-64214285D01*
X87839880Y-64309523D01*
X88030357Y-64404761D01*
X88506547Y-64404761D01*
X88697023Y-64309523D01*
X88792261Y-64214285D01*
X86506547Y-64214285D02*
X86411309Y-64309523D01*
X86506547Y-64404761D01*
X86601785Y-64309523D01*
X86506547Y-64214285D01*
X86506547Y-64404761D01*
X86887500Y-62500000D02*
X86697023Y-62404761D01*
X86220833Y-62404761D01*
X86030357Y-62500000D01*
X85935119Y-62690476D01*
X85935119Y-62880952D01*
X86030357Y-63071428D01*
X86125595Y-63166666D01*
X86316071Y-63261904D01*
X86411309Y-63357142D01*
X86506547Y-63547619D01*
X86506547Y-63642857D01*
X85173214Y-62404761D02*
X85173214Y-62785714D01*
X84411309Y-62404761D02*
X84411309Y-62785714D01*
X139057440Y-56579464D02*
X139057440Y-57246130D01*
X138819345Y-56198511D02*
X138581250Y-56912797D01*
X139200297Y-56912797D01*
X139581250Y-57150892D02*
X139628869Y-57198511D01*
X139581250Y-57246130D01*
X139533630Y-57198511D01*
X139581250Y-57150892D01*
X139581250Y-57246130D01*
X139962202Y-56246130D02*
X140628869Y-56246130D01*
X140200297Y-57246130D01*
X141486011Y-56246130D02*
X141009821Y-56246130D01*
X140962202Y-56722321D01*
X141009821Y-56674702D01*
X141105059Y-56627083D01*
X141343154Y-56627083D01*
X141438392Y-56674702D01*
X141486011Y-56722321D01*
X141533630Y-56817559D01*
X141533630Y-57055654D01*
X141486011Y-57150892D01*
X141438392Y-57198511D01*
X141343154Y-57246130D01*
X141105059Y-57246130D01*
X141009821Y-57198511D01*
X140962202Y-57150892D01*
X142152678Y-56246130D02*
X142247916Y-56246130D01*
X142343154Y-56293750D01*
X142390773Y-56341369D01*
X142438392Y-56436607D01*
X142486011Y-56627083D01*
X142486011Y-56865178D01*
X142438392Y-57055654D01*
X142390773Y-57150892D01*
X142343154Y-57198511D01*
X142247916Y-57246130D01*
X142152678Y-57246130D01*
X142057440Y-57198511D01*
X142009821Y-57150892D01*
X141962202Y-57055654D01*
X141914583Y-56865178D01*
X141914583Y-56627083D01*
X141962202Y-56436607D01*
X142009821Y-56341369D01*
X142057440Y-56293750D01*
X142152678Y-56246130D01*
X143105059Y-56246130D02*
X143200297Y-56246130D01*
X143295535Y-56293750D01*
X143343154Y-56341369D01*
X143390773Y-56436607D01*
X143438392Y-56627083D01*
X143438392Y-56865178D01*
X143390773Y-57055654D01*
X143343154Y-57150892D01*
X143295535Y-57198511D01*
X143200297Y-57246130D01*
X143105059Y-57246130D01*
X143009821Y-57198511D01*
X142962202Y-57150892D01*
X142914583Y-57055654D01*
X142866964Y-56865178D01*
X142866964Y-56627083D01*
X142914583Y-56436607D01*
X142962202Y-56341369D01*
X143009821Y-56293750D01*
X143105059Y-56246130D01*
X144628869Y-57246130D02*
X144628869Y-56579464D01*
X144628869Y-56246130D02*
X144581250Y-56293750D01*
X144628869Y-56341369D01*
X144676488Y-56293750D01*
X144628869Y-56246130D01*
X144628869Y-56341369D01*
X145105059Y-56579464D02*
X145105059Y-57246130D01*
X145105059Y-56674702D02*
X145152678Y-56627083D01*
X145247916Y-56579464D01*
X145390773Y-56579464D01*
X145486011Y-56627083D01*
X145533630Y-56722321D01*
X145533630Y-57246130D01*
X202406250Y-59031250D02*
X202406250Y-57357330D01*
X81756250Y-59031250D02*
X81756250Y-57357330D01*
X202406250Y-57943750D02*
X81756250Y-57943750D01*
X202406250Y-57943750D02*
X81756250Y-57943750D01*
X202406250Y-57943750D02*
X201279746Y-57357329D01*
X202406250Y-57943750D02*
X201279746Y-58530171D01*
X81756250Y-57943750D02*
X82882754Y-58530171D01*
X81756250Y-57943750D02*
X82882754Y-57357329D01*
X78566369Y-98353125D02*
X78518750Y-98305505D01*
X78471130Y-98210267D01*
X78471130Y-97972172D01*
X78518750Y-97876934D01*
X78566369Y-97829315D01*
X78661607Y-97781696D01*
X78756845Y-97781696D01*
X78899702Y-97829315D01*
X79471130Y-98400744D01*
X79471130Y-97781696D01*
X79375892Y-97353125D02*
X79423511Y-97305505D01*
X79471130Y-97353125D01*
X79423511Y-97400744D01*
X79375892Y-97353125D01*
X79471130Y-97353125D01*
X78471130Y-96972172D02*
X78471130Y-96305505D01*
X79471130Y-96734077D01*
X78899702Y-95781696D02*
X78852083Y-95876934D01*
X78804464Y-95924553D01*
X78709226Y-95972172D01*
X78661607Y-95972172D01*
X78566369Y-95924553D01*
X78518750Y-95876934D01*
X78471130Y-95781696D01*
X78471130Y-95591220D01*
X78518750Y-95495982D01*
X78566369Y-95448363D01*
X78661607Y-95400744D01*
X78709226Y-95400744D01*
X78804464Y-95448363D01*
X78852083Y-95495982D01*
X78899702Y-95591220D01*
X78899702Y-95781696D01*
X78947321Y-95876934D01*
X78994940Y-95924553D01*
X79090178Y-95972172D01*
X79280654Y-95972172D01*
X79375892Y-95924553D01*
X79423511Y-95876934D01*
X79471130Y-95781696D01*
X79471130Y-95591220D01*
X79423511Y-95495982D01*
X79375892Y-95448363D01*
X79280654Y-95400744D01*
X79090178Y-95400744D01*
X78994940Y-95448363D01*
X78947321Y-95495982D01*
X78899702Y-95591220D01*
X79471130Y-94448363D02*
X79471130Y-95019791D01*
X79471130Y-94734077D02*
X78471130Y-94734077D01*
X78613988Y-94829315D01*
X78709226Y-94924553D01*
X78756845Y-95019791D01*
X78566369Y-94067410D02*
X78518750Y-94019791D01*
X78471130Y-93924553D01*
X78471130Y-93686458D01*
X78518750Y-93591220D01*
X78566369Y-93543601D01*
X78661607Y-93495982D01*
X78756845Y-93495982D01*
X78899702Y-93543601D01*
X79471130Y-94115029D01*
X79471130Y-93495982D01*
X79471130Y-92305505D02*
X78804464Y-92305505D01*
X78471130Y-92305505D02*
X78518750Y-92353125D01*
X78566369Y-92305505D01*
X78518750Y-92257886D01*
X78471130Y-92305505D01*
X78566369Y-92305505D01*
X78804464Y-91829315D02*
X79471130Y-91829315D01*
X78899702Y-91829315D02*
X78852083Y-91781696D01*
X78804464Y-91686458D01*
X78804464Y-91543601D01*
X78852083Y-91448363D01*
X78947321Y-91400744D01*
X79471130Y-91400744D01*
X81256250Y-59531250D02*
X79582330Y-59531250D01*
X81256250Y-130175000D02*
X79582330Y-130175000D01*
X80168750Y-59531250D02*
X80168750Y-130175000D01*
X80168750Y-59531250D02*
X80168750Y-130175000D01*
X80168750Y-59531250D02*
X79582329Y-60657754D01*
X80168750Y-59531250D02*
X80755171Y-60657754D01*
X80168750Y-130175000D02*
X80755171Y-129048496D01*
X80168750Y-130175000D02*
X79582329Y-129048496D01*
X200237440Y-124695978D02*
X200237440Y-122663978D01*
X200237440Y-123631597D02*
X199076297Y-123631597D01*
X199076297Y-124695978D02*
X199076297Y-122663978D01*
X197237821Y-124695978D02*
X197237821Y-123631597D01*
X197334583Y-123438073D01*
X197528107Y-123341311D01*
X197915154Y-123341311D01*
X198108678Y-123438073D01*
X197237821Y-124599216D02*
X197431345Y-124695978D01*
X197915154Y-124695978D01*
X198108678Y-124599216D01*
X198205440Y-124405692D01*
X198205440Y-124212168D01*
X198108678Y-124018644D01*
X197915154Y-123921882D01*
X197431345Y-123921882D01*
X197237821Y-123825120D01*
X196270202Y-123341311D02*
X196270202Y-124695978D01*
X196270202Y-123534835D02*
X196173440Y-123438073D01*
X195979916Y-123341311D01*
X195689630Y-123341311D01*
X195496107Y-123438073D01*
X195399345Y-123631597D01*
X195399345Y-124695978D01*
X193560869Y-124695978D02*
X193560869Y-122663978D01*
X193560869Y-124599216D02*
X193754392Y-124695978D01*
X194141440Y-124695978D01*
X194334964Y-124599216D01*
X194431726Y-124502454D01*
X194528488Y-124308930D01*
X194528488Y-123728359D01*
X194431726Y-123534835D01*
X194334964Y-123438073D01*
X194141440Y-123341311D01*
X193754392Y-123341311D01*
X193560869Y-123438073D01*
X192593250Y-124695978D02*
X192593250Y-122663978D01*
X191819154Y-122663978D01*
X191625630Y-122760740D01*
X191528869Y-122857501D01*
X191432107Y-123051025D01*
X191432107Y-123341311D01*
X191528869Y-123534835D01*
X191625630Y-123631597D01*
X191819154Y-123728359D01*
X192593250Y-123728359D01*
X189690392Y-123341311D02*
X189690392Y-124695978D01*
X190561250Y-123341311D02*
X190561250Y-124405692D01*
X190464488Y-124599216D01*
X190270964Y-124695978D01*
X189980678Y-124695978D01*
X189787154Y-124599216D01*
X189690392Y-124502454D01*
X188722773Y-124695978D02*
X188722773Y-123341311D01*
X188722773Y-123534835D02*
X188626011Y-123438073D01*
X188432488Y-123341311D01*
X188142202Y-123341311D01*
X187948678Y-123438073D01*
X187851916Y-123631597D01*
X187851916Y-124695978D01*
X187851916Y-123631597D02*
X187755154Y-123438073D01*
X187561630Y-123341311D01*
X187271345Y-123341311D01*
X187077821Y-123438073D01*
X186981059Y-123631597D01*
X186981059Y-124695978D01*
X186013440Y-123341311D02*
X186013440Y-125373311D01*
X186013440Y-123438073D02*
X185819916Y-123341311D01*
X185432869Y-123341311D01*
X185239345Y-123438073D01*
X185142583Y-123534835D01*
X185045821Y-123728359D01*
X185045821Y-124308930D01*
X185142583Y-124502454D01*
X185239345Y-124599216D01*
X185432869Y-124695978D01*
X185819916Y-124695978D01*
X186013440Y-124599216D01*
X182626773Y-124695978D02*
X182626773Y-122663978D01*
X181852678Y-122663978D01*
X181659154Y-122760740D01*
X181562392Y-122857501D01*
X181465630Y-123051025D01*
X181465630Y-123341311D01*
X181562392Y-123534835D01*
X181659154Y-123631597D01*
X181852678Y-123728359D01*
X182626773Y-123728359D01*
X179433630Y-124502454D02*
X179530392Y-124599216D01*
X179820678Y-124695978D01*
X180014202Y-124695978D01*
X180304488Y-124599216D01*
X180498011Y-124405692D01*
X180594773Y-124212168D01*
X180691535Y-123825120D01*
X180691535Y-123534835D01*
X180594773Y-123147787D01*
X180498011Y-122954263D01*
X180304488Y-122760740D01*
X180014202Y-122663978D01*
X179820678Y-122663978D01*
X179530392Y-122760740D01*
X179433630Y-122857501D01*
X177885440Y-123631597D02*
X177595154Y-123728359D01*
X177498392Y-123825120D01*
X177401630Y-124018644D01*
X177401630Y-124308930D01*
X177498392Y-124502454D01*
X177595154Y-124599216D01*
X177788678Y-124695978D01*
X178562773Y-124695978D01*
X178562773Y-122663978D01*
X177885440Y-122663978D01*
X177691916Y-122760740D01*
X177595154Y-122857501D01*
X177498392Y-123051025D01*
X177498392Y-123244549D01*
X177595154Y-123438073D01*
X177691916Y-123534835D01*
X177885440Y-123631597D01*
X178562773Y-123631597D01*
X173821440Y-124695978D02*
X174498773Y-123728359D01*
X174982583Y-124695978D02*
X174982583Y-122663978D01*
X174208488Y-122663978D01*
X174014964Y-122760740D01*
X173918202Y-122857501D01*
X173821440Y-123051025D01*
X173821440Y-123341311D01*
X173918202Y-123534835D01*
X174014964Y-123631597D01*
X174208488Y-123728359D01*
X174982583Y-123728359D01*
X172176488Y-124599216D02*
X172370011Y-124695978D01*
X172757059Y-124695978D01*
X172950583Y-124599216D01*
X173047345Y-124405692D01*
X173047345Y-123631597D01*
X172950583Y-123438073D01*
X172757059Y-123341311D01*
X172370011Y-123341311D01*
X172176488Y-123438073D01*
X172079726Y-123631597D01*
X172079726Y-123825120D01*
X173047345Y-124018644D01*
X171402392Y-123341311D02*
X170918583Y-124695978D01*
X170434773Y-123341311D01*
X169660678Y-124502454D02*
X169563916Y-124599216D01*
X169660678Y-124695978D01*
X169757440Y-124599216D01*
X169660678Y-124502454D01*
X169660678Y-124695978D01*
X166080488Y-124695978D02*
X167241630Y-124695978D01*
X166661059Y-124695978D02*
X166661059Y-122663978D01*
X166854583Y-122954263D01*
X167048107Y-123147787D01*
X167241630Y-123244549D01*
X200237440Y-127967498D02*
X200237440Y-125935498D01*
X199366583Y-127967498D02*
X199366583Y-126903117D01*
X199463345Y-126709593D01*
X199656869Y-126612831D01*
X199947154Y-126612831D01*
X200140678Y-126709593D01*
X200237440Y-126806355D01*
X198689250Y-126612831D02*
X197915154Y-126612831D01*
X198398964Y-125935498D02*
X198398964Y-127677212D01*
X198302202Y-127870736D01*
X198108678Y-127967498D01*
X197915154Y-127967498D01*
X197528107Y-126612831D02*
X196754011Y-126612831D01*
X197237821Y-125935498D02*
X197237821Y-127677212D01*
X197141059Y-127870736D01*
X196947535Y-127967498D01*
X196754011Y-127967498D01*
X196076678Y-126612831D02*
X196076678Y-128644831D01*
X196076678Y-126709593D02*
X195883154Y-126612831D01*
X195496107Y-126612831D01*
X195302583Y-126709593D01*
X195205821Y-126806355D01*
X195109059Y-126999879D01*
X195109059Y-127580450D01*
X195205821Y-127773974D01*
X195302583Y-127870736D01*
X195496107Y-127967498D01*
X195883154Y-127967498D01*
X196076678Y-127870736D01*
X194334964Y-127870736D02*
X194141440Y-127967498D01*
X193754392Y-127967498D01*
X193560869Y-127870736D01*
X193464107Y-127677212D01*
X193464107Y-127580450D01*
X193560869Y-127386926D01*
X193754392Y-127290164D01*
X194044678Y-127290164D01*
X194238202Y-127193402D01*
X194334964Y-126999879D01*
X194334964Y-126903117D01*
X194238202Y-126709593D01*
X194044678Y-126612831D01*
X193754392Y-126612831D01*
X193560869Y-126709593D01*
X192593250Y-127773974D02*
X192496488Y-127870736D01*
X192593250Y-127967498D01*
X192690011Y-127870736D01*
X192593250Y-127773974D01*
X192593250Y-127967498D01*
X192593250Y-126709593D02*
X192496488Y-126806355D01*
X192593250Y-126903117D01*
X192690011Y-126806355D01*
X192593250Y-126709593D01*
X192593250Y-126903117D01*
X190174202Y-125838736D02*
X191915916Y-128451307D01*
X188045440Y-125838736D02*
X189787154Y-128451307D01*
X186497250Y-126612831D02*
X186497250Y-128257783D01*
X186594011Y-128451307D01*
X186690773Y-128548069D01*
X186884297Y-128644831D01*
X187174583Y-128644831D01*
X187368107Y-128548069D01*
X186497250Y-127870736D02*
X186690773Y-127967498D01*
X187077821Y-127967498D01*
X187271345Y-127870736D01*
X187368107Y-127773974D01*
X187464869Y-127580450D01*
X187464869Y-126999879D01*
X187368107Y-126806355D01*
X187271345Y-126709593D01*
X187077821Y-126612831D01*
X186690773Y-126612831D01*
X186497250Y-126709593D01*
X185529630Y-127967498D02*
X185529630Y-126612831D01*
X185529630Y-125935498D02*
X185626392Y-126032260D01*
X185529630Y-126129021D01*
X185432869Y-126032260D01*
X185529630Y-125935498D01*
X185529630Y-126129021D01*
X184852297Y-126612831D02*
X184078202Y-126612831D01*
X184562011Y-125935498D02*
X184562011Y-127677212D01*
X184465250Y-127870736D01*
X184271726Y-127967498D01*
X184078202Y-127967498D01*
X183400869Y-127967498D02*
X183400869Y-125935498D01*
X182530011Y-127967498D02*
X182530011Y-126903117D01*
X182626773Y-126709593D01*
X182820297Y-126612831D01*
X183110583Y-126612831D01*
X183304107Y-126709593D01*
X183400869Y-126806355D01*
X180691535Y-126612831D02*
X180691535Y-127967498D01*
X181562392Y-126612831D02*
X181562392Y-127677212D01*
X181465630Y-127870736D01*
X181272107Y-127967498D01*
X180981821Y-127967498D01*
X180788297Y-127870736D01*
X180691535Y-127773974D01*
X179723916Y-127967498D02*
X179723916Y-125935498D01*
X179723916Y-126709593D02*
X179530392Y-126612831D01*
X179143345Y-126612831D01*
X178949821Y-126709593D01*
X178853059Y-126806355D01*
X178756297Y-126999879D01*
X178756297Y-127580450D01*
X178853059Y-127773974D01*
X178949821Y-127870736D01*
X179143345Y-127967498D01*
X179530392Y-127967498D01*
X179723916Y-127870736D01*
X177885440Y-127773974D02*
X177788678Y-127870736D01*
X177885440Y-127967498D01*
X177982202Y-127870736D01*
X177885440Y-127773974D01*
X177885440Y-127967498D01*
X176046964Y-127870736D02*
X176240488Y-127967498D01*
X176627535Y-127967498D01*
X176821059Y-127870736D01*
X176917821Y-127773974D01*
X177014583Y-127580450D01*
X177014583Y-126999879D01*
X176917821Y-126806355D01*
X176821059Y-126709593D01*
X176627535Y-126612831D01*
X176240488Y-126612831D01*
X176046964Y-126709593D01*
X174885821Y-127967498D02*
X175079345Y-127870736D01*
X175176107Y-127773974D01*
X175272869Y-127580450D01*
X175272869Y-126999879D01*
X175176107Y-126806355D01*
X175079345Y-126709593D01*
X174885821Y-126612831D01*
X174595535Y-126612831D01*
X174402011Y-126709593D01*
X174305250Y-126806355D01*
X174208488Y-126999879D01*
X174208488Y-127580450D01*
X174305250Y-127773974D01*
X174402011Y-127870736D01*
X174595535Y-127967498D01*
X174885821Y-127967498D01*
X173337630Y-127967498D02*
X173337630Y-126612831D01*
X173337630Y-126806355D02*
X173240869Y-126709593D01*
X173047345Y-126612831D01*
X172757059Y-126612831D01*
X172563535Y-126709593D01*
X172466773Y-126903117D01*
X172466773Y-127967498D01*
X172466773Y-126903117D02*
X172370011Y-126709593D01*
X172176488Y-126612831D01*
X171886202Y-126612831D01*
X171692678Y-126709593D01*
X171595916Y-126903117D01*
X171595916Y-127967498D01*
X169176869Y-125838736D02*
X170918583Y-128451307D01*
X167628678Y-127967498D02*
X167628678Y-125935498D01*
X167628678Y-127870736D02*
X167822202Y-127967498D01*
X168209250Y-127967498D01*
X168402773Y-127870736D01*
X168499535Y-127773974D01*
X168596297Y-127580450D01*
X168596297Y-126999879D01*
X168499535Y-126806355D01*
X168402773Y-126709593D01*
X168209250Y-126612831D01*
X167822202Y-126612831D01*
X167628678Y-126709593D01*
X166661059Y-126612831D02*
X166661059Y-128354545D01*
X166757821Y-128548069D01*
X166951345Y-128644831D01*
X167048107Y-128644831D01*
X166661059Y-125935498D02*
X166757821Y-126032260D01*
X166661059Y-126129021D01*
X166564297Y-126032260D01*
X166661059Y-125935498D01*
X166661059Y-126129021D01*
X164725821Y-125935498D02*
X165693440Y-125935498D01*
X165790202Y-126903117D01*
X165693440Y-126806355D01*
X165499916Y-126709593D01*
X165016107Y-126709593D01*
X164822583Y-126806355D01*
X164725821Y-126903117D01*
X164629059Y-127096640D01*
X164629059Y-127580450D01*
X164725821Y-127773974D01*
X164822583Y-127870736D01*
X165016107Y-127967498D01*
X165499916Y-127967498D01*
X165693440Y-127870736D01*
X165790202Y-127773974D01*
X163371154Y-125935498D02*
X163177630Y-125935498D01*
X162984107Y-126032260D01*
X162887345Y-126129021D01*
X162790583Y-126322545D01*
X162693821Y-126709593D01*
X162693821Y-127193402D01*
X162790583Y-127580450D01*
X162887345Y-127773974D01*
X162984107Y-127870736D01*
X163177630Y-127967498D01*
X163371154Y-127967498D01*
X163564678Y-127870736D01*
X163661440Y-127773974D01*
X163758202Y-127580450D01*
X163854964Y-127193402D01*
X163854964Y-126709593D01*
X163758202Y-126322545D01*
X163661440Y-126129021D01*
X163564678Y-126032260D01*
X163371154Y-125935498D01*
X160855345Y-125935498D02*
X161822964Y-125935498D01*
X161919726Y-126903117D01*
X161822964Y-126806355D01*
X161629440Y-126709593D01*
X161145630Y-126709593D01*
X160952107Y-126806355D01*
X160855345Y-126903117D01*
X160758583Y-127096640D01*
X160758583Y-127580450D01*
X160855345Y-127773974D01*
X160952107Y-127870736D01*
X161145630Y-127967498D01*
X161629440Y-127967498D01*
X161822964Y-127870736D01*
X161919726Y-127773974D01*
X158436297Y-125838736D02*
X160178011Y-128451307D01*
X157758964Y-127967498D02*
X157758964Y-125935498D01*
X156888107Y-127967498D02*
X156888107Y-126903117D01*
X156984869Y-126709593D01*
X157178392Y-126612831D01*
X157468678Y-126612831D01*
X157662202Y-126709593D01*
X157758964Y-126806355D01*
X155049630Y-127967498D02*
X155049630Y-126903117D01*
X155146392Y-126709593D01*
X155339916Y-126612831D01*
X155726964Y-126612831D01*
X155920488Y-126709593D01*
X155049630Y-127870736D02*
X155243154Y-127967498D01*
X155726964Y-127967498D01*
X155920488Y-127870736D01*
X156017250Y-127677212D01*
X156017250Y-127483688D01*
X155920488Y-127290164D01*
X155726964Y-127193402D01*
X155243154Y-127193402D01*
X155049630Y-127096640D01*
X154082011Y-126612831D02*
X154082011Y-127967498D01*
X154082011Y-126806355D02*
X153985250Y-126709593D01*
X153791726Y-126612831D01*
X153501440Y-126612831D01*
X153307916Y-126709593D01*
X153211154Y-126903117D01*
X153211154Y-127967498D01*
X151372678Y-127967498D02*
X151372678Y-125935498D01*
X151372678Y-127870736D02*
X151566202Y-127967498D01*
X151953250Y-127967498D01*
X152146773Y-127870736D01*
X152243535Y-127773974D01*
X152340297Y-127580450D01*
X152340297Y-126999879D01*
X152243535Y-126806355D01*
X152146773Y-126709593D01*
X151953250Y-126612831D01*
X151566202Y-126612831D01*
X151372678Y-126709593D01*
X150405059Y-126612831D02*
X150405059Y-128644831D01*
X150405059Y-126709593D02*
X150211535Y-126612831D01*
X149824488Y-126612831D01*
X149630964Y-126709593D01*
X149534202Y-126806355D01*
X149437440Y-126999879D01*
X149437440Y-127580450D01*
X149534202Y-127773974D01*
X149630964Y-127870736D01*
X149824488Y-127967498D01*
X150211535Y-127967498D01*
X150405059Y-127870736D01*
X147695726Y-126612831D02*
X147695726Y-127967498D01*
X148566583Y-126612831D02*
X148566583Y-127677212D01*
X148469821Y-127870736D01*
X148276297Y-127967498D01*
X147986011Y-127967498D01*
X147792488Y-127870736D01*
X147695726Y-127773974D01*
X146728107Y-127967498D02*
X146728107Y-126612831D01*
X146728107Y-126806355D02*
X146631345Y-126709593D01*
X146437821Y-126612831D01*
X146147535Y-126612831D01*
X145954011Y-126709593D01*
X145857250Y-126903117D01*
X145857250Y-127967498D01*
X145857250Y-126903117D02*
X145760488Y-126709593D01*
X145566964Y-126612831D01*
X145276678Y-126612831D01*
X145083154Y-126709593D01*
X144986392Y-126903117D01*
X144986392Y-127967498D01*
X144018773Y-126612831D02*
X144018773Y-128644831D01*
X144018773Y-126709593D02*
X143825250Y-126612831D01*
X143438202Y-126612831D01*
X143244678Y-126709593D01*
X143147916Y-126806355D01*
X143051154Y-126999879D01*
X143051154Y-127580450D01*
X143147916Y-127773974D01*
X143244678Y-127870736D01*
X143438202Y-127967498D01*
X143825250Y-127967498D01*
X144018773Y-127870736D01*
D11*
%TO.C,REF\u002A\u002A*%
X94456250Y-95250000D03*
D12*
X91916250Y-95250000D03*
X89376250Y-95250000D03*
%TD*%
D13*
%TO.C,MX7*%
X159067500Y-114300000D03*
X148907500Y-114300000D03*
D14*
X155257500Y-119380000D03*
D15*
X152717500Y-119380000D03*
D16*
X150177500Y-111760000D03*
D17*
X153987500Y-114300000D03*
D16*
X156527500Y-109220000D03*
%TD*%
D18*
%TO.C,U1*%
X170242750Y-61532998D03*
X175692750Y-61532998D03*
D19*
X175392750Y-64562998D03*
X170542750Y-64562998D03*
D12*
X181857750Y-61402998D03*
D20*
X182757750Y-61402998D03*
D12*
X181857750Y-63942998D03*
D20*
X182757750Y-63942998D03*
X182757750Y-66482998D03*
D11*
X181857750Y-66482998D03*
D12*
X181857750Y-69022998D03*
D20*
X182757750Y-69022998D03*
D12*
X181857750Y-71562998D03*
D20*
X182757750Y-71562998D03*
D12*
X181857750Y-74102998D03*
D20*
X182757750Y-74102998D03*
X182757750Y-76642998D03*
D12*
X181857750Y-76642998D03*
D11*
X181857750Y-79182998D03*
D20*
X182757750Y-79182998D03*
X182757750Y-81722998D03*
D12*
X181857750Y-81722998D03*
X181857750Y-84262998D03*
D20*
X182757750Y-84262998D03*
X182757750Y-86802998D03*
D12*
X181857750Y-86802998D03*
X181857750Y-89342998D03*
D20*
X182757750Y-89342998D03*
D11*
X181857750Y-91882998D03*
D20*
X182757750Y-91882998D03*
X182757750Y-94422998D03*
D12*
X181857750Y-94422998D03*
X181857750Y-96962998D03*
D20*
X182757750Y-96962998D03*
X182757750Y-99502998D03*
D12*
X181857750Y-99502998D03*
D20*
X182757750Y-102042998D03*
D12*
X181857750Y-102042998D03*
D20*
X182757750Y-104582998D03*
D11*
X181857750Y-104582998D03*
D12*
X181857750Y-107122998D03*
D20*
X182757750Y-107122998D03*
X182757750Y-109662998D03*
D12*
X181857750Y-109662998D03*
D20*
X163177750Y-109662998D03*
D12*
X164077750Y-109662998D03*
D20*
X163177750Y-107122998D03*
D12*
X164077750Y-107122998D03*
D20*
X163177750Y-104582998D03*
D11*
X164077750Y-104582998D03*
D12*
X164077750Y-102042998D03*
D20*
X163177750Y-102042998D03*
X163177750Y-99502998D03*
D12*
X164077750Y-99502998D03*
D20*
X163177750Y-96962998D03*
D12*
X164077750Y-96962998D03*
X164077750Y-94422998D03*
D20*
X163177750Y-94422998D03*
D11*
X164077750Y-91882998D03*
D20*
X163177750Y-91882998D03*
D12*
X164077750Y-89342998D03*
D20*
X163177750Y-89342998D03*
X163177750Y-86802998D03*
D12*
X164077750Y-86802998D03*
X164077750Y-84262998D03*
D20*
X163177750Y-84262998D03*
D12*
X164077750Y-81722998D03*
D20*
X163177750Y-81722998D03*
X163177750Y-79182998D03*
D11*
X164077750Y-79182998D03*
D20*
X163177750Y-76642998D03*
D12*
X164077750Y-76642998D03*
D20*
X163177750Y-74102998D03*
D12*
X164077750Y-74102998D03*
X164077750Y-71562998D03*
D20*
X163177750Y-71562998D03*
X163177750Y-69022998D03*
D12*
X164077750Y-69022998D03*
D20*
X163177750Y-66482998D03*
D11*
X164077750Y-66482998D03*
D20*
X163177750Y-63942998D03*
D12*
X164077750Y-63942998D03*
X164077750Y-61402998D03*
D20*
X163177750Y-61402998D03*
D21*
X175507750Y-110332998D03*
D12*
X175507750Y-109432998D03*
D11*
X172967750Y-109432998D03*
D21*
X172967750Y-110332998D03*
D12*
X170427750Y-109432998D03*
D21*
X170427750Y-110332998D03*
%TD*%
D16*
%TO.C,MX10*%
X194627500Y-109220000D03*
D17*
X192087500Y-114300000D03*
D16*
X188277500Y-111760000D03*
D15*
X190817500Y-119380000D03*
D14*
X193357500Y-119380000D03*
D13*
X187007500Y-114300000D03*
X197167500Y-114300000D03*
%TD*%
D16*
%TO.C,MX9*%
X194627500Y-71120000D03*
D17*
X192087500Y-76200000D03*
D16*
X188277500Y-73660000D03*
D15*
X190817500Y-81280000D03*
D14*
X193357500Y-81280000D03*
D13*
X187007500Y-76200000D03*
X197167500Y-76200000D03*
%TD*%
%TO.C,MX8*%
X178117500Y-95250000D03*
X167957500Y-95250000D03*
D14*
X174307500Y-100330000D03*
D15*
X171767500Y-100330000D03*
D16*
X169227500Y-92710000D03*
D17*
X173037500Y-95250000D03*
D16*
X175577500Y-90170000D03*
%TD*%
D13*
%TO.C,MX6*%
X159067500Y-76200000D03*
X148907500Y-76200000D03*
D14*
X155257500Y-81280000D03*
D15*
X152717500Y-81280000D03*
D16*
X150177500Y-73660000D03*
D17*
X153987500Y-76200000D03*
D16*
X156527500Y-71120000D03*
%TD*%
D13*
%TO.C,MX5*%
X135255000Y-114300000D03*
X125095000Y-114300000D03*
D14*
X131445000Y-119380000D03*
D15*
X128905000Y-119380000D03*
D16*
X126365000Y-111760000D03*
D17*
X130175000Y-114300000D03*
D16*
X132715000Y-109220000D03*
%TD*%
%TO.C,MX4*%
X132645250Y-71120000D03*
D17*
X130105250Y-76200000D03*
D16*
X126295250Y-73660000D03*
D15*
X128835250Y-81280000D03*
D14*
X131375250Y-81280000D03*
D13*
X125025250Y-76200000D03*
X135185250Y-76200000D03*
%TD*%
D16*
%TO.C,MX3*%
X113595250Y-90170000D03*
D17*
X111055250Y-95250000D03*
D16*
X107245250Y-92710000D03*
D15*
X109785250Y-100330000D03*
D14*
X112325250Y-100330000D03*
D13*
X105975250Y-95250000D03*
X116135250Y-95250000D03*
%TD*%
D16*
%TO.C,MX2*%
X94545250Y-71120000D03*
D17*
X92005250Y-76200000D03*
D16*
X88195250Y-73660000D03*
D15*
X90735250Y-81280000D03*
D14*
X93275250Y-81280000D03*
D13*
X86925250Y-76200000D03*
X97085250Y-76200000D03*
%TD*%
D16*
%TO.C,MX1*%
X94545250Y-109220000D03*
D17*
X92005250Y-114300000D03*
D16*
X88195250Y-111760000D03*
D15*
X90735250Y-119380000D03*
D14*
X93275250Y-119380000D03*
D13*
X86925250Y-114300000D03*
X97085250Y-114300000D03*
%TD*%
M02*
