%TF.GenerationSoftware,KiCad,Pcbnew,(6.0.8)*%
%TF.CreationDate,2022-10-16T15:49:15-06:00*%
%TF.ProjectId,pcb,7063622e-6b69-4636-9164-5f7063625858,rev?*%
%TF.SameCoordinates,Original*%
%TF.FileFunction,Soldermask,Bot*%
%TF.FilePolarity,Negative*%
%FSLAX46Y46*%
G04 Gerber Fmt 4.6, Leading zero omitted, Abs format (unit mm)*
G04 Created by KiCad (PCBNEW (6.0.8)) date 2022-10-16 15:49:15*
%MOMM*%
%LPD*%
G01*
G04 APERTURE LIST*
%ADD10C,0.150000*%
%ADD11C,1.750000*%
%ADD12C,3.987800*%
%ADD13C,2.250000*%
%ADD14C,1.905000*%
%ADD15R,1.905000X1.905000*%
%ADD16R,1.700000X1.700000*%
%ADD17O,1.700000X1.700000*%
%ADD18R,1.700000X3.500000*%
%ADD19R,3.500000X1.700000*%
%ADD20O,1.500000X1.500000*%
%ADD21O,1.800000X1.800000*%
G04 APERTURE END LIST*
D10*
X193728690Y-125013478D02*
X193728690Y-122981478D01*
X193728690Y-123949097D02*
X192567547Y-123949097D01*
X192567547Y-125013478D02*
X192567547Y-122981478D01*
X190729071Y-125013478D02*
X190729071Y-123949097D01*
X190825833Y-123755573D01*
X191019357Y-123658811D01*
X191406404Y-123658811D01*
X191599928Y-123755573D01*
X190729071Y-124916716D02*
X190922595Y-125013478D01*
X191406404Y-125013478D01*
X191599928Y-124916716D01*
X191696690Y-124723192D01*
X191696690Y-124529668D01*
X191599928Y-124336144D01*
X191406404Y-124239382D01*
X190922595Y-124239382D01*
X190729071Y-124142620D01*
X189761452Y-123658811D02*
X189761452Y-125013478D01*
X189761452Y-123852335D02*
X189664690Y-123755573D01*
X189471166Y-123658811D01*
X189180880Y-123658811D01*
X188987357Y-123755573D01*
X188890595Y-123949097D01*
X188890595Y-125013478D01*
X187052119Y-125013478D02*
X187052119Y-122981478D01*
X187052119Y-124916716D02*
X187245642Y-125013478D01*
X187632690Y-125013478D01*
X187826214Y-124916716D01*
X187922976Y-124819954D01*
X188019738Y-124626430D01*
X188019738Y-124045859D01*
X187922976Y-123852335D01*
X187826214Y-123755573D01*
X187632690Y-123658811D01*
X187245642Y-123658811D01*
X187052119Y-123755573D01*
X186084500Y-125013478D02*
X186084500Y-122981478D01*
X185310404Y-122981478D01*
X185116880Y-123078240D01*
X185020119Y-123175001D01*
X184923357Y-123368525D01*
X184923357Y-123658811D01*
X185020119Y-123852335D01*
X185116880Y-123949097D01*
X185310404Y-124045859D01*
X186084500Y-124045859D01*
X183181642Y-123658811D02*
X183181642Y-125013478D01*
X184052500Y-123658811D02*
X184052500Y-124723192D01*
X183955738Y-124916716D01*
X183762214Y-125013478D01*
X183471928Y-125013478D01*
X183278404Y-124916716D01*
X183181642Y-124819954D01*
X182214023Y-125013478D02*
X182214023Y-123658811D01*
X182214023Y-123852335D02*
X182117261Y-123755573D01*
X181923738Y-123658811D01*
X181633452Y-123658811D01*
X181439928Y-123755573D01*
X181343166Y-123949097D01*
X181343166Y-125013478D01*
X181343166Y-123949097D02*
X181246404Y-123755573D01*
X181052880Y-123658811D01*
X180762595Y-123658811D01*
X180569071Y-123755573D01*
X180472309Y-123949097D01*
X180472309Y-125013478D01*
X179504690Y-123658811D02*
X179504690Y-125690811D01*
X179504690Y-123755573D02*
X179311166Y-123658811D01*
X178924119Y-123658811D01*
X178730595Y-123755573D01*
X178633833Y-123852335D01*
X178537071Y-124045859D01*
X178537071Y-124626430D01*
X178633833Y-124819954D01*
X178730595Y-124916716D01*
X178924119Y-125013478D01*
X179311166Y-125013478D01*
X179504690Y-124916716D01*
X176118023Y-125013478D02*
X176118023Y-122981478D01*
X175343928Y-122981478D01*
X175150404Y-123078240D01*
X175053642Y-123175001D01*
X174956880Y-123368525D01*
X174956880Y-123658811D01*
X175053642Y-123852335D01*
X175150404Y-123949097D01*
X175343928Y-124045859D01*
X176118023Y-124045859D01*
X172924880Y-124819954D02*
X173021642Y-124916716D01*
X173311928Y-125013478D01*
X173505452Y-125013478D01*
X173795738Y-124916716D01*
X173989261Y-124723192D01*
X174086023Y-124529668D01*
X174182785Y-124142620D01*
X174182785Y-123852335D01*
X174086023Y-123465287D01*
X173989261Y-123271763D01*
X173795738Y-123078240D01*
X173505452Y-122981478D01*
X173311928Y-122981478D01*
X173021642Y-123078240D01*
X172924880Y-123175001D01*
X171376690Y-123949097D02*
X171086404Y-124045859D01*
X170989642Y-124142620D01*
X170892880Y-124336144D01*
X170892880Y-124626430D01*
X170989642Y-124819954D01*
X171086404Y-124916716D01*
X171279928Y-125013478D01*
X172054023Y-125013478D01*
X172054023Y-122981478D01*
X171376690Y-122981478D01*
X171183166Y-123078240D01*
X171086404Y-123175001D01*
X170989642Y-123368525D01*
X170989642Y-123562049D01*
X171086404Y-123755573D01*
X171183166Y-123852335D01*
X171376690Y-123949097D01*
X172054023Y-123949097D01*
X167312690Y-125013478D02*
X167990023Y-124045859D01*
X168473833Y-125013478D02*
X168473833Y-122981478D01*
X167699738Y-122981478D01*
X167506214Y-123078240D01*
X167409452Y-123175001D01*
X167312690Y-123368525D01*
X167312690Y-123658811D01*
X167409452Y-123852335D01*
X167506214Y-123949097D01*
X167699738Y-124045859D01*
X168473833Y-124045859D01*
X165667738Y-124916716D02*
X165861261Y-125013478D01*
X166248309Y-125013478D01*
X166441833Y-124916716D01*
X166538595Y-124723192D01*
X166538595Y-123949097D01*
X166441833Y-123755573D01*
X166248309Y-123658811D01*
X165861261Y-123658811D01*
X165667738Y-123755573D01*
X165570976Y-123949097D01*
X165570976Y-124142620D01*
X166538595Y-124336144D01*
X164893642Y-123658811D02*
X164409833Y-125013478D01*
X163926023Y-123658811D01*
X163151928Y-124819954D02*
X163055166Y-124916716D01*
X163151928Y-125013478D01*
X163248690Y-124916716D01*
X163151928Y-124819954D01*
X163151928Y-125013478D01*
X160732880Y-123175001D02*
X160636119Y-123078240D01*
X160442595Y-122981478D01*
X159958785Y-122981478D01*
X159765261Y-123078240D01*
X159668500Y-123175001D01*
X159571738Y-123368525D01*
X159571738Y-123562049D01*
X159668500Y-123852335D01*
X160829642Y-125013478D01*
X159571738Y-125013478D01*
X193728690Y-128284998D02*
X193728690Y-126252998D01*
X192857833Y-128284998D02*
X192857833Y-127220617D01*
X192954595Y-127027093D01*
X193148119Y-126930331D01*
X193438404Y-126930331D01*
X193631928Y-127027093D01*
X193728690Y-127123855D01*
X192180500Y-126930331D02*
X191406404Y-126930331D01*
X191890214Y-126252998D02*
X191890214Y-127994712D01*
X191793452Y-128188236D01*
X191599928Y-128284998D01*
X191406404Y-128284998D01*
X191019357Y-126930331D02*
X190245261Y-126930331D01*
X190729071Y-126252998D02*
X190729071Y-127994712D01*
X190632309Y-128188236D01*
X190438785Y-128284998D01*
X190245261Y-128284998D01*
X189567928Y-126930331D02*
X189567928Y-128962331D01*
X189567928Y-127027093D02*
X189374404Y-126930331D01*
X188987357Y-126930331D01*
X188793833Y-127027093D01*
X188697071Y-127123855D01*
X188600309Y-127317379D01*
X188600309Y-127897950D01*
X188697071Y-128091474D01*
X188793833Y-128188236D01*
X188987357Y-128284998D01*
X189374404Y-128284998D01*
X189567928Y-128188236D01*
X187826214Y-128188236D02*
X187632690Y-128284998D01*
X187245642Y-128284998D01*
X187052119Y-128188236D01*
X186955357Y-127994712D01*
X186955357Y-127897950D01*
X187052119Y-127704426D01*
X187245642Y-127607664D01*
X187535928Y-127607664D01*
X187729452Y-127510902D01*
X187826214Y-127317379D01*
X187826214Y-127220617D01*
X187729452Y-127027093D01*
X187535928Y-126930331D01*
X187245642Y-126930331D01*
X187052119Y-127027093D01*
X186084500Y-128091474D02*
X185987738Y-128188236D01*
X186084500Y-128284998D01*
X186181261Y-128188236D01*
X186084500Y-128091474D01*
X186084500Y-128284998D01*
X186084500Y-127027093D02*
X185987738Y-127123855D01*
X186084500Y-127220617D01*
X186181261Y-127123855D01*
X186084500Y-127027093D01*
X186084500Y-127220617D01*
X183665452Y-126156236D02*
X185407166Y-128768807D01*
X181536690Y-126156236D02*
X183278404Y-128768807D01*
X179988500Y-126930331D02*
X179988500Y-128575283D01*
X180085261Y-128768807D01*
X180182023Y-128865569D01*
X180375547Y-128962331D01*
X180665833Y-128962331D01*
X180859357Y-128865569D01*
X179988500Y-128188236D02*
X180182023Y-128284998D01*
X180569071Y-128284998D01*
X180762595Y-128188236D01*
X180859357Y-128091474D01*
X180956119Y-127897950D01*
X180956119Y-127317379D01*
X180859357Y-127123855D01*
X180762595Y-127027093D01*
X180569071Y-126930331D01*
X180182023Y-126930331D01*
X179988500Y-127027093D01*
X179020880Y-128284998D02*
X179020880Y-126930331D01*
X179020880Y-126252998D02*
X179117642Y-126349760D01*
X179020880Y-126446521D01*
X178924119Y-126349760D01*
X179020880Y-126252998D01*
X179020880Y-126446521D01*
X178343547Y-126930331D02*
X177569452Y-126930331D01*
X178053261Y-126252998D02*
X178053261Y-127994712D01*
X177956500Y-128188236D01*
X177762976Y-128284998D01*
X177569452Y-128284998D01*
X176892119Y-128284998D02*
X176892119Y-126252998D01*
X176021261Y-128284998D02*
X176021261Y-127220617D01*
X176118023Y-127027093D01*
X176311547Y-126930331D01*
X176601833Y-126930331D01*
X176795357Y-127027093D01*
X176892119Y-127123855D01*
X174182785Y-126930331D02*
X174182785Y-128284998D01*
X175053642Y-126930331D02*
X175053642Y-127994712D01*
X174956880Y-128188236D01*
X174763357Y-128284998D01*
X174473071Y-128284998D01*
X174279547Y-128188236D01*
X174182785Y-128091474D01*
X173215166Y-128284998D02*
X173215166Y-126252998D01*
X173215166Y-127027093D02*
X173021642Y-126930331D01*
X172634595Y-126930331D01*
X172441071Y-127027093D01*
X172344309Y-127123855D01*
X172247547Y-127317379D01*
X172247547Y-127897950D01*
X172344309Y-128091474D01*
X172441071Y-128188236D01*
X172634595Y-128284998D01*
X173021642Y-128284998D01*
X173215166Y-128188236D01*
X171376690Y-128091474D02*
X171279928Y-128188236D01*
X171376690Y-128284998D01*
X171473452Y-128188236D01*
X171376690Y-128091474D01*
X171376690Y-128284998D01*
X169538214Y-128188236D02*
X169731738Y-128284998D01*
X170118785Y-128284998D01*
X170312309Y-128188236D01*
X170409071Y-128091474D01*
X170505833Y-127897950D01*
X170505833Y-127317379D01*
X170409071Y-127123855D01*
X170312309Y-127027093D01*
X170118785Y-126930331D01*
X169731738Y-126930331D01*
X169538214Y-127027093D01*
X168377071Y-128284998D02*
X168570595Y-128188236D01*
X168667357Y-128091474D01*
X168764119Y-127897950D01*
X168764119Y-127317379D01*
X168667357Y-127123855D01*
X168570595Y-127027093D01*
X168377071Y-126930331D01*
X168086785Y-126930331D01*
X167893261Y-127027093D01*
X167796500Y-127123855D01*
X167699738Y-127317379D01*
X167699738Y-127897950D01*
X167796500Y-128091474D01*
X167893261Y-128188236D01*
X168086785Y-128284998D01*
X168377071Y-128284998D01*
X166828880Y-128284998D02*
X166828880Y-126930331D01*
X166828880Y-127123855D02*
X166732119Y-127027093D01*
X166538595Y-126930331D01*
X166248309Y-126930331D01*
X166054785Y-127027093D01*
X165958023Y-127220617D01*
X165958023Y-128284998D01*
X165958023Y-127220617D02*
X165861261Y-127027093D01*
X165667738Y-126930331D01*
X165377452Y-126930331D01*
X165183928Y-127027093D01*
X165087166Y-127220617D01*
X165087166Y-128284998D01*
X162668119Y-126156236D02*
X164409833Y-128768807D01*
X161119928Y-128284998D02*
X161119928Y-126252998D01*
X161119928Y-128188236D02*
X161313452Y-128284998D01*
X161700500Y-128284998D01*
X161894023Y-128188236D01*
X161990785Y-128091474D01*
X162087547Y-127897950D01*
X162087547Y-127317379D01*
X161990785Y-127123855D01*
X161894023Y-127027093D01*
X161700500Y-126930331D01*
X161313452Y-126930331D01*
X161119928Y-127027093D01*
X160152309Y-126930331D02*
X160152309Y-128672045D01*
X160249071Y-128865569D01*
X160442595Y-128962331D01*
X160539357Y-128962331D01*
X160152309Y-126252998D02*
X160249071Y-126349760D01*
X160152309Y-126446521D01*
X160055547Y-126349760D01*
X160152309Y-126252998D01*
X160152309Y-126446521D01*
X158217071Y-126252998D02*
X159184690Y-126252998D01*
X159281452Y-127220617D01*
X159184690Y-127123855D01*
X158991166Y-127027093D01*
X158507357Y-127027093D01*
X158313833Y-127123855D01*
X158217071Y-127220617D01*
X158120309Y-127414140D01*
X158120309Y-127897950D01*
X158217071Y-128091474D01*
X158313833Y-128188236D01*
X158507357Y-128284998D01*
X158991166Y-128284998D01*
X159184690Y-128188236D01*
X159281452Y-128091474D01*
X156862404Y-126252998D02*
X156668880Y-126252998D01*
X156475357Y-126349760D01*
X156378595Y-126446521D01*
X156281833Y-126640045D01*
X156185071Y-127027093D01*
X156185071Y-127510902D01*
X156281833Y-127897950D01*
X156378595Y-128091474D01*
X156475357Y-128188236D01*
X156668880Y-128284998D01*
X156862404Y-128284998D01*
X157055928Y-128188236D01*
X157152690Y-128091474D01*
X157249452Y-127897950D01*
X157346214Y-127510902D01*
X157346214Y-127027093D01*
X157249452Y-126640045D01*
X157152690Y-126446521D01*
X157055928Y-126349760D01*
X156862404Y-126252998D01*
X154346595Y-126252998D02*
X155314214Y-126252998D01*
X155410976Y-127220617D01*
X155314214Y-127123855D01*
X155120690Y-127027093D01*
X154636880Y-127027093D01*
X154443357Y-127123855D01*
X154346595Y-127220617D01*
X154249833Y-127414140D01*
X154249833Y-127897950D01*
X154346595Y-128091474D01*
X154443357Y-128188236D01*
X154636880Y-128284998D01*
X155120690Y-128284998D01*
X155314214Y-128188236D01*
X155410976Y-128091474D01*
X151927547Y-126156236D02*
X153669261Y-128768807D01*
X151250214Y-128284998D02*
X151250214Y-126252998D01*
X150379357Y-128284998D02*
X150379357Y-127220617D01*
X150476119Y-127027093D01*
X150669642Y-126930331D01*
X150959928Y-126930331D01*
X151153452Y-127027093D01*
X151250214Y-127123855D01*
X148540880Y-128284998D02*
X148540880Y-127220617D01*
X148637642Y-127027093D01*
X148831166Y-126930331D01*
X149218214Y-126930331D01*
X149411738Y-127027093D01*
X148540880Y-128188236D02*
X148734404Y-128284998D01*
X149218214Y-128284998D01*
X149411738Y-128188236D01*
X149508500Y-127994712D01*
X149508500Y-127801188D01*
X149411738Y-127607664D01*
X149218214Y-127510902D01*
X148734404Y-127510902D01*
X148540880Y-127414140D01*
X147573261Y-126930331D02*
X147573261Y-128284998D01*
X147573261Y-127123855D02*
X147476500Y-127027093D01*
X147282976Y-126930331D01*
X146992690Y-126930331D01*
X146799166Y-127027093D01*
X146702404Y-127220617D01*
X146702404Y-128284998D01*
X144863928Y-128284998D02*
X144863928Y-126252998D01*
X144863928Y-128188236D02*
X145057452Y-128284998D01*
X145444500Y-128284998D01*
X145638023Y-128188236D01*
X145734785Y-128091474D01*
X145831547Y-127897950D01*
X145831547Y-127317379D01*
X145734785Y-127123855D01*
X145638023Y-127027093D01*
X145444500Y-126930331D01*
X145057452Y-126930331D01*
X144863928Y-127027093D01*
X143896309Y-126930331D02*
X143896309Y-128962331D01*
X143896309Y-127027093D02*
X143702785Y-126930331D01*
X143315738Y-126930331D01*
X143122214Y-127027093D01*
X143025452Y-127123855D01*
X142928690Y-127317379D01*
X142928690Y-127897950D01*
X143025452Y-128091474D01*
X143122214Y-128188236D01*
X143315738Y-128284998D01*
X143702785Y-128284998D01*
X143896309Y-128188236D01*
X141186976Y-126930331D02*
X141186976Y-128284998D01*
X142057833Y-126930331D02*
X142057833Y-127994712D01*
X141961071Y-128188236D01*
X141767547Y-128284998D01*
X141477261Y-128284998D01*
X141283738Y-128188236D01*
X141186976Y-128091474D01*
X140219357Y-128284998D02*
X140219357Y-126930331D01*
X140219357Y-127123855D02*
X140122595Y-127027093D01*
X139929071Y-126930331D01*
X139638785Y-126930331D01*
X139445261Y-127027093D01*
X139348500Y-127220617D01*
X139348500Y-128284998D01*
X139348500Y-127220617D02*
X139251738Y-127027093D01*
X139058214Y-126930331D01*
X138767928Y-126930331D01*
X138574404Y-127027093D01*
X138477642Y-127220617D01*
X138477642Y-128284998D01*
X137510023Y-126930331D02*
X137510023Y-128962331D01*
X137510023Y-127027093D02*
X137316500Y-126930331D01*
X136929452Y-126930331D01*
X136735928Y-127027093D01*
X136639166Y-127123855D01*
X136542404Y-127317379D01*
X136542404Y-127897950D01*
X136639166Y-128091474D01*
X136735928Y-128188236D01*
X136929452Y-128284998D01*
X137316500Y-128284998D01*
X137510023Y-128188236D01*
X147363690Y-62404761D02*
X147363690Y-62785714D01*
X146601785Y-62404761D02*
X146601785Y-62785714D01*
X145935119Y-62404761D02*
X145458928Y-64404761D01*
X145077976Y-62976190D01*
X144697023Y-64404761D01*
X144220833Y-62404761D01*
X143458928Y-64404761D02*
X143458928Y-62404761D01*
X142601785Y-64404761D02*
X142601785Y-63357142D01*
X142697023Y-63166666D01*
X142887500Y-63071428D01*
X143173214Y-63071428D01*
X143363690Y-63166666D01*
X143458928Y-63261904D01*
X141839880Y-63071428D02*
X141363690Y-64404761D01*
X140887500Y-63071428D02*
X141363690Y-64404761D01*
X141554166Y-64880952D01*
X141649404Y-64976190D01*
X141839880Y-65071428D01*
X138697023Y-64309523D02*
X138506547Y-64404761D01*
X138125595Y-64404761D01*
X137935119Y-64309523D01*
X137839880Y-64119047D01*
X137839880Y-64023809D01*
X137935119Y-63833333D01*
X138125595Y-63738095D01*
X138411309Y-63738095D01*
X138601785Y-63642857D01*
X138697023Y-63452380D01*
X138697023Y-63357142D01*
X138601785Y-63166666D01*
X138411309Y-63071428D01*
X138125595Y-63071428D01*
X137935119Y-63166666D01*
X136220833Y-64309523D02*
X136411309Y-64404761D01*
X136792261Y-64404761D01*
X136982738Y-64309523D01*
X137077976Y-64119047D01*
X137077976Y-63357142D01*
X136982738Y-63166666D01*
X136792261Y-63071428D01*
X136411309Y-63071428D01*
X136220833Y-63166666D01*
X136125595Y-63357142D01*
X136125595Y-63547619D01*
X137077976Y-63738095D01*
X135554166Y-63071428D02*
X134792261Y-63071428D01*
X135268452Y-62404761D02*
X135268452Y-64119047D01*
X135173214Y-64309523D01*
X134982738Y-64404761D01*
X134792261Y-64404761D01*
X134411309Y-63071428D02*
X133649404Y-63071428D01*
X134125595Y-62404761D02*
X134125595Y-64119047D01*
X134030357Y-64309523D01*
X133839880Y-64404761D01*
X133649404Y-64404761D01*
X132697023Y-64404761D02*
X132887500Y-64309523D01*
X132982738Y-64119047D01*
X132982738Y-62404761D01*
X131173214Y-64309523D02*
X131363690Y-64404761D01*
X131744642Y-64404761D01*
X131935119Y-64309523D01*
X132030357Y-64119047D01*
X132030357Y-63357142D01*
X131935119Y-63166666D01*
X131744642Y-63071428D01*
X131363690Y-63071428D01*
X131173214Y-63166666D01*
X131077976Y-63357142D01*
X131077976Y-63547619D01*
X132030357Y-63738095D01*
X128982738Y-63071428D02*
X128220833Y-63071428D01*
X128697023Y-64404761D02*
X128697023Y-62690476D01*
X128601785Y-62500000D01*
X128411309Y-62404761D01*
X128220833Y-62404761D01*
X127268452Y-64404761D02*
X127458928Y-64309523D01*
X127554166Y-64214285D01*
X127649404Y-64023809D01*
X127649404Y-63452380D01*
X127554166Y-63261904D01*
X127458928Y-63166666D01*
X127268452Y-63071428D01*
X126982738Y-63071428D01*
X126792261Y-63166666D01*
X126697023Y-63261904D01*
X126601785Y-63452380D01*
X126601785Y-64023809D01*
X126697023Y-64214285D01*
X126792261Y-64309523D01*
X126982738Y-64404761D01*
X127268452Y-64404761D01*
X125744642Y-64404761D02*
X125744642Y-63071428D01*
X125744642Y-63452380D02*
X125649404Y-63261904D01*
X125554166Y-63166666D01*
X125363690Y-63071428D01*
X125173214Y-63071428D01*
X122125595Y-63071428D02*
X122125595Y-64404761D01*
X122601785Y-62309523D02*
X123077976Y-63738095D01*
X121839880Y-63738095D01*
X119744642Y-63071428D02*
X119363690Y-64404761D01*
X118982738Y-63452380D01*
X118601785Y-64404761D01*
X118220833Y-63071428D01*
X117458928Y-64404761D02*
X117458928Y-62404761D01*
X116601785Y-64404761D02*
X116601785Y-63357142D01*
X116697023Y-63166666D01*
X116887500Y-63071428D01*
X117173214Y-63071428D01*
X117363690Y-63166666D01*
X117458928Y-63261904D01*
X114887500Y-64309523D02*
X115077976Y-64404761D01*
X115458928Y-64404761D01*
X115649404Y-64309523D01*
X115744642Y-64119047D01*
X115744642Y-63357142D01*
X115649404Y-63166666D01*
X115458928Y-63071428D01*
X115077976Y-63071428D01*
X114887500Y-63166666D01*
X114792261Y-63357142D01*
X114792261Y-63547619D01*
X115744642Y-63738095D01*
X113935119Y-63071428D02*
X113935119Y-64404761D01*
X113935119Y-63261904D02*
X113839880Y-63166666D01*
X113649404Y-63071428D01*
X113363690Y-63071428D01*
X113173214Y-63166666D01*
X113077976Y-63357142D01*
X113077976Y-64404761D01*
X110792261Y-63071428D02*
X110316071Y-64404761D01*
X109839880Y-63071428D02*
X110316071Y-64404761D01*
X110506547Y-64880952D01*
X110601785Y-64976190D01*
X110792261Y-65071428D01*
X108792261Y-64404761D02*
X108982738Y-64309523D01*
X109077976Y-64214285D01*
X109173214Y-64023809D01*
X109173214Y-63452380D01*
X109077976Y-63261904D01*
X108982738Y-63166666D01*
X108792261Y-63071428D01*
X108506547Y-63071428D01*
X108316071Y-63166666D01*
X108220833Y-63261904D01*
X108125595Y-63452380D01*
X108125595Y-64023809D01*
X108220833Y-64214285D01*
X108316071Y-64309523D01*
X108506547Y-64404761D01*
X108792261Y-64404761D01*
X106411309Y-63071428D02*
X106411309Y-64404761D01*
X107268452Y-63071428D02*
X107268452Y-64119047D01*
X107173214Y-64309523D01*
X106982738Y-64404761D01*
X106697023Y-64404761D01*
X106506547Y-64309523D01*
X106411309Y-64214285D01*
X103077976Y-64309523D02*
X103268452Y-64404761D01*
X103649404Y-64404761D01*
X103839880Y-64309523D01*
X103935119Y-64214285D01*
X104030357Y-64023809D01*
X104030357Y-63452380D01*
X103935119Y-63261904D01*
X103839880Y-63166666D01*
X103649404Y-63071428D01*
X103268452Y-63071428D01*
X103077976Y-63166666D01*
X101363690Y-64404761D02*
X101363690Y-63357142D01*
X101458928Y-63166666D01*
X101649404Y-63071428D01*
X102030357Y-63071428D01*
X102220833Y-63166666D01*
X101363690Y-64309523D02*
X101554166Y-64404761D01*
X102030357Y-64404761D01*
X102220833Y-64309523D01*
X102316071Y-64119047D01*
X102316071Y-63928571D01*
X102220833Y-63738095D01*
X102030357Y-63642857D01*
X101554166Y-63642857D01*
X101363690Y-63547619D01*
X100411309Y-63071428D02*
X100411309Y-64404761D01*
X100411309Y-63261904D02*
X100316071Y-63166666D01*
X100125595Y-63071428D01*
X99839880Y-63071428D01*
X99649404Y-63166666D01*
X99554166Y-63357142D01*
X99554166Y-64404761D01*
X97077976Y-64404761D02*
X97077976Y-62404761D01*
X96220833Y-64404761D02*
X96220833Y-63357142D01*
X96316071Y-63166666D01*
X96506547Y-63071428D01*
X96792261Y-63071428D01*
X96982738Y-63166666D01*
X97077976Y-63261904D01*
X94411309Y-64404761D02*
X94411309Y-63357142D01*
X94506547Y-63166666D01*
X94697023Y-63071428D01*
X95077976Y-63071428D01*
X95268452Y-63166666D01*
X94411309Y-64309523D02*
X94601785Y-64404761D01*
X95077976Y-64404761D01*
X95268452Y-64309523D01*
X95363690Y-64119047D01*
X95363690Y-63928571D01*
X95268452Y-63738095D01*
X95077976Y-63642857D01*
X94601785Y-63642857D01*
X94411309Y-63547619D01*
X93649404Y-63071428D02*
X93173214Y-64404761D01*
X92697023Y-63071428D01*
X91173214Y-64309523D02*
X91363690Y-64404761D01*
X91744642Y-64404761D01*
X91935119Y-64309523D01*
X92030357Y-64119047D01*
X92030357Y-63357142D01*
X91935119Y-63166666D01*
X91744642Y-63071428D01*
X91363690Y-63071428D01*
X91173214Y-63166666D01*
X91077976Y-63357142D01*
X91077976Y-63547619D01*
X92030357Y-63738095D01*
X87744642Y-62404761D02*
X88697023Y-62404761D01*
X88792261Y-63357142D01*
X88697023Y-63261904D01*
X88506547Y-63166666D01*
X88030357Y-63166666D01*
X87839880Y-63261904D01*
X87744642Y-63357142D01*
X87649404Y-63547619D01*
X87649404Y-64023809D01*
X87744642Y-64214285D01*
X87839880Y-64309523D01*
X88030357Y-64404761D01*
X88506547Y-64404761D01*
X88697023Y-64309523D01*
X88792261Y-64214285D01*
X86506547Y-64214285D02*
X86411309Y-64309523D01*
X86506547Y-64404761D01*
X86601785Y-64309523D01*
X86506547Y-64214285D01*
X86506547Y-64404761D01*
X86887500Y-62500000D02*
X86697023Y-62404761D01*
X86220833Y-62404761D01*
X86030357Y-62500000D01*
X85935119Y-62690476D01*
X85935119Y-62880952D01*
X86030357Y-63071428D01*
X86125595Y-63166666D01*
X86316071Y-63261904D01*
X86411309Y-63357142D01*
X86506547Y-63547619D01*
X86506547Y-63642857D01*
X85173214Y-62404761D02*
X85173214Y-62785714D01*
X84411309Y-62404761D02*
X84411309Y-62785714D01*
X137557440Y-57246130D02*
X136986011Y-57246130D01*
X137271726Y-57246130D02*
X137271726Y-56246130D01*
X137176488Y-56388988D01*
X137081250Y-56484226D01*
X136986011Y-56531845D01*
X137938392Y-56341369D02*
X137986011Y-56293750D01*
X138081250Y-56246130D01*
X138319345Y-56246130D01*
X138414583Y-56293750D01*
X138462202Y-56341369D01*
X138509821Y-56436607D01*
X138509821Y-56531845D01*
X138462202Y-56674702D01*
X137890773Y-57246130D01*
X138509821Y-57246130D01*
X139128869Y-56246130D02*
X139224107Y-56246130D01*
X139319345Y-56293750D01*
X139366964Y-56341369D01*
X139414583Y-56436607D01*
X139462202Y-56627083D01*
X139462202Y-56865178D01*
X139414583Y-57055654D01*
X139366964Y-57150892D01*
X139319345Y-57198511D01*
X139224107Y-57246130D01*
X139128869Y-57246130D01*
X139033630Y-57198511D01*
X138986011Y-57150892D01*
X138938392Y-57055654D01*
X138890773Y-56865178D01*
X138890773Y-56627083D01*
X138938392Y-56436607D01*
X138986011Y-56341369D01*
X139033630Y-56293750D01*
X139128869Y-56246130D01*
X139890773Y-57150892D02*
X139938392Y-57198511D01*
X139890773Y-57246130D01*
X139843154Y-57198511D01*
X139890773Y-57150892D01*
X139890773Y-57246130D01*
X140795535Y-56246130D02*
X140605059Y-56246130D01*
X140509821Y-56293750D01*
X140462202Y-56341369D01*
X140366964Y-56484226D01*
X140319345Y-56674702D01*
X140319345Y-57055654D01*
X140366964Y-57150892D01*
X140414583Y-57198511D01*
X140509821Y-57246130D01*
X140700297Y-57246130D01*
X140795535Y-57198511D01*
X140843154Y-57150892D01*
X140890773Y-57055654D01*
X140890773Y-56817559D01*
X140843154Y-56722321D01*
X140795535Y-56674702D01*
X140700297Y-56627083D01*
X140509821Y-56627083D01*
X140414583Y-56674702D01*
X140366964Y-56722321D01*
X140319345Y-56817559D01*
X141795535Y-56246130D02*
X141319345Y-56246130D01*
X141271726Y-56722321D01*
X141319345Y-56674702D01*
X141414583Y-56627083D01*
X141652678Y-56627083D01*
X141747916Y-56674702D01*
X141795535Y-56722321D01*
X141843154Y-56817559D01*
X141843154Y-57055654D01*
X141795535Y-57150892D01*
X141747916Y-57198511D01*
X141652678Y-57246130D01*
X141414583Y-57246130D01*
X141319345Y-57198511D01*
X141271726Y-57150892D01*
X142462202Y-56246130D02*
X142557440Y-56246130D01*
X142652678Y-56293750D01*
X142700297Y-56341369D01*
X142747916Y-56436607D01*
X142795535Y-56627083D01*
X142795535Y-56865178D01*
X142747916Y-57055654D01*
X142700297Y-57150892D01*
X142652678Y-57198511D01*
X142557440Y-57246130D01*
X142462202Y-57246130D01*
X142366964Y-57198511D01*
X142319345Y-57150892D01*
X142271726Y-57055654D01*
X142224107Y-56865178D01*
X142224107Y-56627083D01*
X142271726Y-56436607D01*
X142319345Y-56341369D01*
X142366964Y-56293750D01*
X142462202Y-56246130D01*
X143414583Y-56246130D02*
X143509821Y-56246130D01*
X143605059Y-56293750D01*
X143652678Y-56341369D01*
X143700297Y-56436607D01*
X143747916Y-56627083D01*
X143747916Y-56865178D01*
X143700297Y-57055654D01*
X143652678Y-57150892D01*
X143605059Y-57198511D01*
X143509821Y-57246130D01*
X143414583Y-57246130D01*
X143319345Y-57198511D01*
X143271726Y-57150892D01*
X143224107Y-57055654D01*
X143176488Y-56865178D01*
X143176488Y-56627083D01*
X143224107Y-56436607D01*
X143271726Y-56341369D01*
X143319345Y-56293750D01*
X143414583Y-56246130D01*
X144938392Y-57246130D02*
X144938392Y-56579464D01*
X144938392Y-56674702D02*
X144986011Y-56627083D01*
X145081250Y-56579464D01*
X145224107Y-56579464D01*
X145319345Y-56627083D01*
X145366964Y-56722321D01*
X145366964Y-57246130D01*
X145366964Y-56722321D02*
X145414583Y-56627083D01*
X145509821Y-56579464D01*
X145652678Y-56579464D01*
X145747916Y-56627083D01*
X145795535Y-56722321D01*
X145795535Y-57246130D01*
X146271726Y-57246130D02*
X146271726Y-56579464D01*
X146271726Y-56674702D02*
X146319345Y-56627083D01*
X146414583Y-56579464D01*
X146557440Y-56579464D01*
X146652678Y-56627083D01*
X146700297Y-56722321D01*
X146700297Y-57246130D01*
X146700297Y-56722321D02*
X146747916Y-56627083D01*
X146843154Y-56579464D01*
X146986011Y-56579464D01*
X147081250Y-56627083D01*
X147128869Y-56722321D01*
X147128869Y-57246130D01*
X202406250Y-59031250D02*
X202406250Y-57357330D01*
X81756250Y-59031250D02*
X81756250Y-57357330D01*
X202406250Y-57943750D02*
X81756250Y-57943750D01*
X202406250Y-57943750D02*
X81756250Y-57943750D01*
X202406250Y-57943750D02*
X201279746Y-57357329D01*
X202406250Y-57943750D02*
X201279746Y-58530171D01*
X81756250Y-57943750D02*
X82882754Y-58530171D01*
X81756250Y-57943750D02*
X82882754Y-57357329D01*
X78471130Y-99519791D02*
X78471130Y-98853125D01*
X79471130Y-99281696D01*
X78471130Y-98281696D02*
X78471130Y-98186458D01*
X78518750Y-98091220D01*
X78566369Y-98043601D01*
X78661607Y-97995982D01*
X78852083Y-97948363D01*
X79090178Y-97948363D01*
X79280654Y-97995982D01*
X79375892Y-98043601D01*
X79423511Y-98091220D01*
X79471130Y-98186458D01*
X79471130Y-98281696D01*
X79423511Y-98376934D01*
X79375892Y-98424553D01*
X79280654Y-98472172D01*
X79090178Y-98519791D01*
X78852083Y-98519791D01*
X78661607Y-98472172D01*
X78566369Y-98424553D01*
X78518750Y-98376934D01*
X78471130Y-98281696D01*
X79375892Y-97519791D02*
X79423511Y-97472172D01*
X79471130Y-97519791D01*
X79423511Y-97567410D01*
X79375892Y-97519791D01*
X79471130Y-97519791D01*
X78471130Y-96615029D02*
X78471130Y-96805505D01*
X78518750Y-96900744D01*
X78566369Y-96948363D01*
X78709226Y-97043601D01*
X78899702Y-97091220D01*
X79280654Y-97091220D01*
X79375892Y-97043601D01*
X79423511Y-96995982D01*
X79471130Y-96900744D01*
X79471130Y-96710267D01*
X79423511Y-96615029D01*
X79375892Y-96567410D01*
X79280654Y-96519791D01*
X79042559Y-96519791D01*
X78947321Y-96567410D01*
X78899702Y-96615029D01*
X78852083Y-96710267D01*
X78852083Y-96900744D01*
X78899702Y-96995982D01*
X78947321Y-97043601D01*
X79042559Y-97091220D01*
X78804464Y-95662648D02*
X79471130Y-95662648D01*
X78423511Y-95900744D02*
X79137797Y-96138839D01*
X79137797Y-95519791D01*
X78471130Y-95234077D02*
X78471130Y-94615029D01*
X78852083Y-94948363D01*
X78852083Y-94805505D01*
X78899702Y-94710267D01*
X78947321Y-94662648D01*
X79042559Y-94615029D01*
X79280654Y-94615029D01*
X79375892Y-94662648D01*
X79423511Y-94710267D01*
X79471130Y-94805505D01*
X79471130Y-95091220D01*
X79423511Y-95186458D01*
X79375892Y-95234077D01*
X78471130Y-94281696D02*
X78471130Y-93615029D01*
X79471130Y-94043601D01*
X79471130Y-92472172D02*
X78804464Y-92472172D01*
X78899702Y-92472172D02*
X78852083Y-92424553D01*
X78804464Y-92329315D01*
X78804464Y-92186458D01*
X78852083Y-92091220D01*
X78947321Y-92043601D01*
X79471130Y-92043601D01*
X78947321Y-92043601D02*
X78852083Y-91995982D01*
X78804464Y-91900744D01*
X78804464Y-91757886D01*
X78852083Y-91662648D01*
X78947321Y-91615029D01*
X79471130Y-91615029D01*
X79471130Y-91138839D02*
X78804464Y-91138839D01*
X78899702Y-91138839D02*
X78852083Y-91091220D01*
X78804464Y-90995982D01*
X78804464Y-90853125D01*
X78852083Y-90757886D01*
X78947321Y-90710267D01*
X79471130Y-90710267D01*
X78947321Y-90710267D02*
X78852083Y-90662648D01*
X78804464Y-90567410D01*
X78804464Y-90424553D01*
X78852083Y-90329315D01*
X78947321Y-90281696D01*
X79471130Y-90281696D01*
X81256250Y-59531250D02*
X79582330Y-59531250D01*
X81256250Y-130175000D02*
X79582330Y-130175000D01*
X80168750Y-59531250D02*
X80168750Y-130175000D01*
X80168750Y-59531250D02*
X80168750Y-130175000D01*
X80168750Y-59531250D02*
X79582329Y-60657754D01*
X80168750Y-59531250D02*
X80755171Y-60657754D01*
X80168750Y-130175000D02*
X80755171Y-129048496D01*
X80168750Y-130175000D02*
X79582329Y-129048496D01*
D11*
%TO.C,MX10*%
X187007500Y-114300000D03*
D12*
X192087500Y-114300000D03*
D11*
X197167500Y-114300000D03*
D13*
X188277500Y-111760000D03*
X194627500Y-109220000D03*
D14*
X190817500Y-119380000D03*
D15*
X193357500Y-119380000D03*
%TD*%
D11*
%TO.C,MX1*%
X86925250Y-114300000D03*
D12*
X92005250Y-114300000D03*
D11*
X97085250Y-114300000D03*
D13*
X88195250Y-111760000D03*
X94545250Y-109220000D03*
D14*
X90735250Y-119380000D03*
D15*
X93275250Y-119380000D03*
%TD*%
D11*
%TO.C,MX3*%
X105975250Y-95250000D03*
D12*
X111055250Y-95250000D03*
D11*
X116135250Y-95250000D03*
D13*
X107245250Y-92710000D03*
X113595250Y-90170000D03*
D14*
X109785250Y-100330000D03*
D15*
X112325250Y-100330000D03*
%TD*%
D11*
%TO.C,MX6*%
X148907500Y-76200000D03*
D12*
X153987500Y-76200000D03*
D11*
X159067500Y-76200000D03*
D13*
X150177500Y-73660000D03*
X156527500Y-71120000D03*
D14*
X152717500Y-81280000D03*
D15*
X155257500Y-81280000D03*
%TD*%
D16*
%TO.C,REF\u002A\u002A*%
X94456250Y-95250000D03*
D17*
X91916250Y-95250000D03*
X89376250Y-95250000D03*
%TD*%
D11*
%TO.C,MX8*%
X167957500Y-95250000D03*
D12*
X173037500Y-95250000D03*
D11*
X178117500Y-95250000D03*
D13*
X169227500Y-92710000D03*
X175577500Y-90170000D03*
D14*
X171767500Y-100330000D03*
D15*
X174307500Y-100330000D03*
%TD*%
D11*
%TO.C,MX5*%
X125095000Y-114300000D03*
D12*
X130175000Y-114300000D03*
D11*
X135255000Y-114300000D03*
D13*
X126365000Y-111760000D03*
X132715000Y-109220000D03*
D14*
X128905000Y-119380000D03*
D15*
X131445000Y-119380000D03*
%TD*%
D11*
%TO.C,MX2*%
X86925250Y-76200000D03*
D12*
X92005250Y-76200000D03*
D11*
X97085250Y-76200000D03*
D13*
X88195250Y-73660000D03*
X94545250Y-71120000D03*
D14*
X90735250Y-81280000D03*
D15*
X93275250Y-81280000D03*
%TD*%
D11*
%TO.C,MX7*%
X148907500Y-114300000D03*
D12*
X153987500Y-114300000D03*
D11*
X159067500Y-114300000D03*
D13*
X150177500Y-111760000D03*
X156527500Y-109220000D03*
D14*
X152717500Y-119380000D03*
D15*
X155257500Y-119380000D03*
%TD*%
D11*
%TO.C,MX4*%
X125025250Y-76200000D03*
D12*
X130105250Y-76200000D03*
D11*
X135185250Y-76200000D03*
D13*
X126295250Y-73660000D03*
X132645250Y-71120000D03*
D14*
X128835250Y-81280000D03*
D15*
X131375250Y-81280000D03*
%TD*%
D11*
%TO.C,MX9*%
X187007500Y-76200000D03*
D12*
X192087500Y-76200000D03*
D11*
X197167500Y-76200000D03*
D13*
X188277500Y-73660000D03*
X194627500Y-71120000D03*
D14*
X190817500Y-81280000D03*
D15*
X193357500Y-81280000D03*
%TD*%
D18*
%TO.C,U1*%
X170427750Y-110332998D03*
D17*
X170427750Y-109432998D03*
D18*
X172967750Y-110332998D03*
D16*
X172967750Y-109432998D03*
D17*
X175507750Y-109432998D03*
D18*
X175507750Y-110332998D03*
D19*
X163177750Y-61402998D03*
D17*
X164077750Y-61402998D03*
X164077750Y-63942998D03*
D19*
X163177750Y-63942998D03*
D16*
X164077750Y-66482998D03*
D19*
X163177750Y-66482998D03*
D17*
X164077750Y-69022998D03*
D19*
X163177750Y-69022998D03*
X163177750Y-71562998D03*
D17*
X164077750Y-71562998D03*
X164077750Y-74102998D03*
D19*
X163177750Y-74102998D03*
D17*
X164077750Y-76642998D03*
D19*
X163177750Y-76642998D03*
D16*
X164077750Y-79182998D03*
D19*
X163177750Y-79182998D03*
X163177750Y-81722998D03*
D17*
X164077750Y-81722998D03*
D19*
X163177750Y-84262998D03*
D17*
X164077750Y-84262998D03*
X164077750Y-86802998D03*
D19*
X163177750Y-86802998D03*
X163177750Y-89342998D03*
D17*
X164077750Y-89342998D03*
D19*
X163177750Y-91882998D03*
D16*
X164077750Y-91882998D03*
D19*
X163177750Y-94422998D03*
D17*
X164077750Y-94422998D03*
X164077750Y-96962998D03*
D19*
X163177750Y-96962998D03*
D17*
X164077750Y-99502998D03*
D19*
X163177750Y-99502998D03*
X163177750Y-102042998D03*
D17*
X164077750Y-102042998D03*
D16*
X164077750Y-104582998D03*
D19*
X163177750Y-104582998D03*
D17*
X164077750Y-107122998D03*
D19*
X163177750Y-107122998D03*
D17*
X164077750Y-109662998D03*
D19*
X163177750Y-109662998D03*
D17*
X181857750Y-109662998D03*
D19*
X182757750Y-109662998D03*
X182757750Y-107122998D03*
D17*
X181857750Y-107122998D03*
D16*
X181857750Y-104582998D03*
D19*
X182757750Y-104582998D03*
D17*
X181857750Y-102042998D03*
D19*
X182757750Y-102042998D03*
D17*
X181857750Y-99502998D03*
D19*
X182757750Y-99502998D03*
X182757750Y-96962998D03*
D17*
X181857750Y-96962998D03*
X181857750Y-94422998D03*
D19*
X182757750Y-94422998D03*
X182757750Y-91882998D03*
D16*
X181857750Y-91882998D03*
D19*
X182757750Y-89342998D03*
D17*
X181857750Y-89342998D03*
X181857750Y-86802998D03*
D19*
X182757750Y-86802998D03*
X182757750Y-84262998D03*
D17*
X181857750Y-84262998D03*
X181857750Y-81722998D03*
D19*
X182757750Y-81722998D03*
X182757750Y-79182998D03*
D16*
X181857750Y-79182998D03*
D17*
X181857750Y-76642998D03*
D19*
X182757750Y-76642998D03*
X182757750Y-74102998D03*
D17*
X181857750Y-74102998D03*
D19*
X182757750Y-71562998D03*
D17*
X181857750Y-71562998D03*
D19*
X182757750Y-69022998D03*
D17*
X181857750Y-69022998D03*
D16*
X181857750Y-66482998D03*
D19*
X182757750Y-66482998D03*
X182757750Y-63942998D03*
D17*
X181857750Y-63942998D03*
D19*
X182757750Y-61402998D03*
D17*
X181857750Y-61402998D03*
D20*
X170542750Y-64562998D03*
X175392750Y-64562998D03*
D21*
X175692750Y-61532998D03*
X170242750Y-61532998D03*
%TD*%
M02*
