M48
; DRILL file {KiCad (6.0.8)} date Thu Oct 27 15:24:43 2022
; FORMAT={-:-/ absolute / inch / decimal}
; #@! TF.CreationDate,2022-10-27T15:24:43-06:00
; #@! TF.GenerationSoftware,Kicad,Pcbnew,(6.0.8)
; #@! TF.FileFunction,Plated,1,2,PTH
FMAT,2
INCH
; #@! TA.AperFunction,Plated,PTH,ViaDrill
T1C0.0157
; #@! TA.AperFunction,Plated,PTH,ComponentDrill
T2C0.0390
; #@! TA.AperFunction,Plated,PTH,ComponentDrill
T3C0.0394
; #@! TA.AperFunction,Plated,PTH,ComponentDrill
T4C0.0402
; #@! TA.AperFunction,Plated,PTH,ComponentDrill
T5C0.0409
; #@! TA.AperFunction,Plated,PTH,ComponentDrill
T6C0.0512
; #@! TA.AperFunction,Plated,PTH,ComponentDrill
T7C0.0579
%
G90
G05
T1
X3.33Y-4.78
X3.4Y-3.74
X3.59Y-4.93
X3.65Y-2.47
X3.73Y-3.35
X3.94Y-4.7
X4.24Y-3.87
X4.29Y-3.47
X4.4Y-3.36
X4.6875Y-3.9375
X4.75Y-4.0
X4.875Y-3.75
X4.9326Y-3.8174
X4.99Y-3.11
X5.26Y-4.74
X5.61Y-3.75
X5.61Y-3.8174
X5.61Y-3.9062
X5.61Y-3.9688
X5.7Y-3.52
X5.71Y-4.94
X5.77Y-2.42
X5.88Y-3.52
X6.8125Y-3.2188
X6.8125Y-3.2812
X6.9218Y-3.67
X7.28Y-4.61
X7.31Y-3.04
X7.9Y-4.83
X7.91Y-2.74
T2
X7.83Y-3.4428
X7.83Y-3.62
X7.8313Y-3.8824
X7.8313Y-4.0596
T3
X3.5187Y-3.75
X3.6187Y-3.75
X3.7188Y-3.75
X6.7206Y-4.8
X6.8206Y-4.8
X6.9206Y-4.8
T4
X6.4598Y-2.4174
X6.4598Y-2.5174
X6.4598Y-2.6174
X6.4598Y-2.7174
X6.4598Y-2.8174
X6.4598Y-2.9174
X6.4598Y-3.0174
X6.4598Y-3.1174
X6.4598Y-3.2174
X6.4598Y-3.3174
X6.4598Y-3.4174
X6.4598Y-3.5174
X6.4598Y-3.6174
X6.4598Y-3.7174
X6.4598Y-3.8174
X6.4598Y-3.9174
X6.4598Y-4.0174
X6.4598Y-4.1174
X6.4598Y-4.2174
X6.4598Y-4.3174
X7.1598Y-2.4174
X7.1598Y-2.5174
X7.1598Y-2.6174
X7.1598Y-2.7174
X7.1598Y-2.8174
X7.1598Y-2.9174
X7.1598Y-3.0174
X7.1598Y-3.1174
X7.1598Y-3.2174
X7.1598Y-3.3174
X7.1598Y-3.4174
X7.1598Y-3.5174
X7.1598Y-3.6174
X7.1598Y-3.7174
X7.1598Y-3.8174
X7.1598Y-3.9174
X7.1598Y-4.0174
X7.1598Y-4.1174
X7.1598Y-4.2174
X7.1598Y-4.3174
T5
X3.5723Y-3.2
X3.5723Y-4.7
X3.6723Y-3.2
X3.6723Y-4.7
X4.3223Y-3.95
X4.4223Y-3.95
X5.0723Y-3.2
X5.075Y-4.7
X5.1723Y-3.2
X5.175Y-4.7
X6.0125Y-3.2
X6.0125Y-4.7
X6.1125Y-3.2
X6.1125Y-4.7
X6.7625Y-3.95
X6.8625Y-3.95
X7.5125Y-3.2
X7.5125Y-4.7
X7.6125Y-3.2
X7.6125Y-4.7
T6
X7.732Y-3.3932
X7.732Y-3.6692
X7.7333Y-3.8328
X7.7333Y-4.1088
T7
X3.4723Y-2.9
X3.4723Y-4.4
X3.7223Y-2.8
X3.7223Y-4.3
X4.2223Y-3.65
X4.4723Y-3.55
X4.9723Y-2.9
X4.975Y-4.4
X5.2223Y-2.8
X5.225Y-4.3
X5.9125Y-2.9
X5.9125Y-4.4
X6.1625Y-2.8
X6.1625Y-4.3
X6.6625Y-3.65
X6.9125Y-3.55
X7.4125Y-2.9
X7.4125Y-4.4
X7.6625Y-2.8
X7.6625Y-4.3
T0
M30
