%TF.GenerationSoftware,KiCad,Pcbnew,(6.0.8)*%
%TF.CreationDate,2022-10-25T19:03:14-06:00*%
%TF.ProjectId,pcb,7063622e-6b69-4636-9164-5f7063625858,rev?*%
%TF.SameCoordinates,Original*%
%TF.FileFunction,Drillmap*%
%TF.FilePolarity,Positive*%
%FSLAX45Y45*%
G04 Gerber Fmt 4.5, Leading zero omitted, Abs format (unit mm)*
G04 Created by KiCad (PCBNEW (6.0.8)) date 2022-10-25 19:03:14*
%MOMM*%
%LPD*%
G01*
G04 APERTURE LIST*
%ADD10C,0.100000*%
%ADD11C,0.200000*%
%ADD12C,0.040000*%
%ADD13C,0.102000*%
%ADD14C,0.104000*%
%ADD15C,0.110000*%
%ADD16C,0.147000*%
G04 APERTURE END LIST*
D10*
X8413750Y-5953125D02*
X20002500Y-5953125D01*
X8175625Y-12779375D02*
X8175625Y-6191250D01*
X8413750Y-5953125D02*
G75*
G03*
X8175625Y-6191250I0J-238125D01*
G01*
X20240625Y-6191250D02*
G75*
G03*
X20002500Y-5953125I-238125J0D01*
G01*
X20002500Y-13017500D02*
X8413750Y-13017500D01*
X8175620Y-12779375D02*
G75*
G03*
X8413750Y-13017500I238130J5D01*
G01*
X20240625Y-6191250D02*
X20240625Y-12779375D01*
X20002500Y-13017495D02*
G75*
G03*
X20240625Y-12779375I0J238125D01*
G01*
D11*
D12*
X8438200Y-12121200D02*
X8478200Y-12161200D01*
X8478200Y-12121200D02*
X8438200Y-12161200D01*
X8616000Y-9479600D02*
X8656000Y-9519600D01*
X8656000Y-9479600D02*
X8616000Y-9519600D01*
X9098600Y-12502200D02*
X9138600Y-12542200D01*
X9138600Y-12502200D02*
X9098600Y-12542200D01*
X9251000Y-6253800D02*
X9291000Y-6293800D01*
X9291000Y-6253800D02*
X9251000Y-6293800D01*
X9454200Y-8489000D02*
X9494200Y-8529000D01*
X9494200Y-8489000D02*
X9454200Y-8529000D01*
X9987600Y-11918000D02*
X10027600Y-11958000D01*
X10027600Y-11918000D02*
X9987600Y-11958000D01*
X10749600Y-9809800D02*
X10789600Y-9849800D01*
X10789600Y-9809800D02*
X10749600Y-9849800D01*
X10876600Y-8793800D02*
X10916600Y-8833800D01*
X10916600Y-8793800D02*
X10876600Y-8833800D01*
X11156000Y-8514400D02*
X11196000Y-8554400D01*
X11196000Y-8514400D02*
X11156000Y-8554400D01*
X11886250Y-9981250D02*
X11926250Y-10021250D01*
X11926250Y-9981250D02*
X11886250Y-10021250D01*
X12045000Y-10140000D02*
X12085000Y-10180000D01*
X12085000Y-10140000D02*
X12045000Y-10180000D01*
X12362500Y-9505000D02*
X12402500Y-9545000D01*
X12402500Y-9505000D02*
X12362500Y-9545000D01*
X12508700Y-9676300D02*
X12548700Y-9716300D01*
X12548700Y-9676300D02*
X12508700Y-9716300D01*
X12654600Y-7879400D02*
X12694600Y-7919400D01*
X12694600Y-7879400D02*
X12654600Y-7919400D01*
X13340400Y-12019600D02*
X13380400Y-12059600D01*
X13380400Y-12019600D02*
X13340400Y-12059600D01*
X14229400Y-9505000D02*
X14269400Y-9545000D01*
X14269400Y-9505000D02*
X14229400Y-9545000D01*
X14229400Y-9676300D02*
X14269400Y-9716300D01*
X14269400Y-9676300D02*
X14229400Y-9716300D01*
X14229400Y-9901875D02*
X14269400Y-9941875D01*
X14269400Y-9901875D02*
X14229400Y-9941875D01*
X14229400Y-10060625D02*
X14269400Y-10100625D01*
X14269400Y-10060625D02*
X14229400Y-10100625D01*
X14458000Y-8920800D02*
X14498000Y-8960800D01*
X14498000Y-8920800D02*
X14458000Y-8960800D01*
X14483400Y-12527600D02*
X14523400Y-12567600D01*
X14523400Y-12527600D02*
X14483400Y-12567600D01*
X14635800Y-6126800D02*
X14675800Y-6166800D01*
X14675800Y-6126800D02*
X14635800Y-6166800D01*
X14915200Y-8920800D02*
X14955200Y-8960800D01*
X14955200Y-8920800D02*
X14915200Y-8960800D01*
X17283750Y-8155625D02*
X17323750Y-8195625D01*
X17323750Y-8155625D02*
X17283750Y-8195625D01*
X17283750Y-8314375D02*
X17323750Y-8354375D01*
X17323750Y-8314375D02*
X17283750Y-8354375D01*
X17561300Y-9301800D02*
X17601300Y-9341800D01*
X17601300Y-9301800D02*
X17561300Y-9341800D01*
X18471200Y-11689400D02*
X18511200Y-11729400D01*
X18511200Y-11689400D02*
X18471200Y-11729400D01*
X18547400Y-7701600D02*
X18587400Y-7741600D01*
X18587400Y-7701600D02*
X18547400Y-7741600D01*
X20046000Y-12248200D02*
X20086000Y-12288200D01*
X20086000Y-12248200D02*
X20046000Y-12288200D01*
X20071400Y-6939600D02*
X20111400Y-6979600D01*
X20111400Y-6939600D02*
X20071400Y-6979600D01*
D10*
X8987625Y-9525000D02*
G75*
G03*
X8987625Y-9525000I-50000J0D01*
G01*
X9241625Y-9525000D02*
G75*
G03*
X9241625Y-9525000I-50000J0D01*
G01*
X9495625Y-9525000D02*
G75*
G03*
X9495625Y-9525000I-50000J0D01*
G01*
D13*
X16407775Y-6089300D02*
X16407775Y-6191300D01*
X16356775Y-6140300D02*
X16458775Y-6140300D01*
X16407775Y-6343300D02*
X16407775Y-6445300D01*
X16356775Y-6394300D02*
X16458775Y-6394300D01*
X16407775Y-6597300D02*
X16407775Y-6699300D01*
X16356775Y-6648300D02*
X16458775Y-6648300D01*
X16407775Y-6851300D02*
X16407775Y-6953300D01*
X16356775Y-6902300D02*
X16458775Y-6902300D01*
X16407775Y-7105300D02*
X16407775Y-7207300D01*
X16356775Y-7156300D02*
X16458775Y-7156300D01*
X16407775Y-7359300D02*
X16407775Y-7461300D01*
X16356775Y-7410300D02*
X16458775Y-7410300D01*
X16407775Y-7613300D02*
X16407775Y-7715300D01*
X16356775Y-7664300D02*
X16458775Y-7664300D01*
X16407775Y-7867300D02*
X16407775Y-7969300D01*
X16356775Y-7918300D02*
X16458775Y-7918300D01*
X16407775Y-8121300D02*
X16407775Y-8223300D01*
X16356775Y-8172300D02*
X16458775Y-8172300D01*
X16407775Y-8375300D02*
X16407775Y-8477300D01*
X16356775Y-8426300D02*
X16458775Y-8426300D01*
X16407775Y-8629300D02*
X16407775Y-8731300D01*
X16356775Y-8680300D02*
X16458775Y-8680300D01*
X16407775Y-8883300D02*
X16407775Y-8985300D01*
X16356775Y-8934300D02*
X16458775Y-8934300D01*
X16407775Y-9137300D02*
X16407775Y-9239300D01*
X16356775Y-9188300D02*
X16458775Y-9188300D01*
X16407775Y-9391300D02*
X16407775Y-9493300D01*
X16356775Y-9442300D02*
X16458775Y-9442300D01*
X16407775Y-9645300D02*
X16407775Y-9747300D01*
X16356775Y-9696300D02*
X16458775Y-9696300D01*
X16407775Y-9899300D02*
X16407775Y-10001300D01*
X16356775Y-9950300D02*
X16458775Y-9950300D01*
X16407775Y-10153300D02*
X16407775Y-10255300D01*
X16356775Y-10204300D02*
X16458775Y-10204300D01*
X16407775Y-10407300D02*
X16407775Y-10509300D01*
X16356775Y-10458300D02*
X16458775Y-10458300D01*
X16407775Y-10661300D02*
X16407775Y-10763300D01*
X16356775Y-10712300D02*
X16458775Y-10712300D01*
X16407775Y-10915300D02*
X16407775Y-11017300D01*
X16356775Y-10966300D02*
X16458775Y-10966300D01*
X18185775Y-6089300D02*
X18185775Y-6191300D01*
X18134775Y-6140300D02*
X18236775Y-6140300D01*
X18185775Y-6343300D02*
X18185775Y-6445300D01*
X18134775Y-6394300D02*
X18236775Y-6394300D01*
X18185775Y-6597300D02*
X18185775Y-6699300D01*
X18134775Y-6648300D02*
X18236775Y-6648300D01*
X18185775Y-6851300D02*
X18185775Y-6953300D01*
X18134775Y-6902300D02*
X18236775Y-6902300D01*
X18185775Y-7105300D02*
X18185775Y-7207300D01*
X18134775Y-7156300D02*
X18236775Y-7156300D01*
X18185775Y-7359300D02*
X18185775Y-7461300D01*
X18134775Y-7410300D02*
X18236775Y-7410300D01*
X18185775Y-7613300D02*
X18185775Y-7715300D01*
X18134775Y-7664300D02*
X18236775Y-7664300D01*
X18185775Y-7867300D02*
X18185775Y-7969300D01*
X18134775Y-7918300D02*
X18236775Y-7918300D01*
X18185775Y-8121300D02*
X18185775Y-8223300D01*
X18134775Y-8172300D02*
X18236775Y-8172300D01*
X18185775Y-8375300D02*
X18185775Y-8477300D01*
X18134775Y-8426300D02*
X18236775Y-8426300D01*
X18185775Y-8629300D02*
X18185775Y-8731300D01*
X18134775Y-8680300D02*
X18236775Y-8680300D01*
X18185775Y-8883300D02*
X18185775Y-8985300D01*
X18134775Y-8934300D02*
X18236775Y-8934300D01*
X18185775Y-9137300D02*
X18185775Y-9239300D01*
X18134775Y-9188300D02*
X18236775Y-9188300D01*
X18185775Y-9391300D02*
X18185775Y-9493300D01*
X18134775Y-9442300D02*
X18236775Y-9442300D01*
X18185775Y-9645300D02*
X18185775Y-9747300D01*
X18134775Y-9696300D02*
X18236775Y-9696300D01*
X18185775Y-9899300D02*
X18185775Y-10001300D01*
X18134775Y-9950300D02*
X18236775Y-9950300D01*
X18185775Y-10153300D02*
X18185775Y-10255300D01*
X18134775Y-10204300D02*
X18236775Y-10204300D01*
X18185775Y-10407300D02*
X18185775Y-10509300D01*
X18134775Y-10458300D02*
X18236775Y-10458300D01*
X18185775Y-10661300D02*
X18185775Y-10763300D01*
X18134775Y-10712300D02*
X18236775Y-10712300D01*
X18185775Y-10915300D02*
X18185775Y-11017300D01*
X18134775Y-10966300D02*
X18236775Y-10966300D01*
D14*
X9110295Y-8164770D02*
X9110295Y-8091230D01*
X9036755Y-8091230D01*
X9036755Y-8164770D01*
X9110295Y-8164770D01*
X9110295Y-11974770D02*
X9110295Y-11901230D01*
X9036755Y-11901230D01*
X9036755Y-11974770D01*
X9110295Y-11974770D01*
X9364295Y-8164770D02*
X9364295Y-8091230D01*
X9290755Y-8091230D01*
X9290755Y-8164770D01*
X9364295Y-8164770D01*
X9364295Y-11974770D02*
X9364295Y-11901230D01*
X9290755Y-11901230D01*
X9290755Y-11974770D01*
X9364295Y-11974770D01*
X11015295Y-10069770D02*
X11015295Y-9996230D01*
X10941755Y-9996230D01*
X10941755Y-10069770D01*
X11015295Y-10069770D01*
X11269295Y-10069770D02*
X11269295Y-9996230D01*
X11195755Y-9996230D01*
X11195755Y-10069770D01*
X11269295Y-10069770D01*
X12920295Y-8164770D02*
X12920295Y-8091230D01*
X12846755Y-8091230D01*
X12846755Y-8164770D01*
X12920295Y-8164770D01*
X12927270Y-11974770D02*
X12927270Y-11901230D01*
X12853730Y-11901230D01*
X12853730Y-11974770D01*
X12927270Y-11974770D01*
X13174295Y-8164770D02*
X13174295Y-8091230D01*
X13100755Y-8091230D01*
X13100755Y-8164770D01*
X13174295Y-8164770D01*
X13181270Y-11974770D02*
X13181270Y-11901230D01*
X13107730Y-11901230D01*
X13107730Y-11974770D01*
X13181270Y-11974770D01*
X15308520Y-8164770D02*
X15308520Y-8091230D01*
X15234980Y-8091230D01*
X15234980Y-8164770D01*
X15308520Y-8164770D01*
X15308520Y-11974770D02*
X15308520Y-11901230D01*
X15234980Y-11901230D01*
X15234980Y-11974770D01*
X15308520Y-11974770D01*
X15562520Y-8164770D02*
X15562520Y-8091230D01*
X15488980Y-8091230D01*
X15488980Y-8164770D01*
X15562520Y-8164770D01*
X15562520Y-11974770D02*
X15562520Y-11901230D01*
X15488980Y-11901230D01*
X15488980Y-11974770D01*
X15562520Y-11974770D01*
X17213520Y-10069770D02*
X17213520Y-9996230D01*
X17139980Y-9996230D01*
X17139980Y-10069770D01*
X17213520Y-10069770D01*
X17467520Y-10069770D02*
X17467520Y-9996230D01*
X17393980Y-9996230D01*
X17393980Y-10069770D01*
X17467520Y-10069770D01*
X19118520Y-8164770D02*
X19118520Y-8091230D01*
X19044980Y-8091230D01*
X19044980Y-8164770D01*
X19118520Y-8164770D01*
X19118520Y-11974770D02*
X19118520Y-11901230D01*
X19044980Y-11901230D01*
X19044980Y-11974770D01*
X19118520Y-11974770D01*
X19372520Y-8164770D02*
X19372520Y-8091230D01*
X19298980Y-8091230D01*
X19298980Y-8164770D01*
X19372520Y-8164770D01*
X19372520Y-11974770D02*
X19372520Y-11901230D01*
X19298980Y-11901230D01*
X19298980Y-11974770D01*
X19372520Y-11974770D01*
D15*
X19202400Y-8928200D02*
X19257400Y-8873200D01*
X19202400Y-8818200D01*
X19147400Y-8873200D01*
X19202400Y-8928200D01*
X19202400Y-9378200D02*
X19257400Y-9323200D01*
X19202400Y-9268200D01*
X19147400Y-9323200D01*
X19202400Y-9378200D01*
X19202400Y-9783200D02*
X19257400Y-9728200D01*
X19202400Y-9673200D01*
X19147400Y-9728200D01*
X19202400Y-9783200D01*
X19202400Y-10233200D02*
X19257400Y-10178200D01*
X19202400Y-10123200D01*
X19147400Y-10178200D01*
X19202400Y-10233200D01*
X19852400Y-8928200D02*
X19907400Y-8873200D01*
X19852400Y-8818200D01*
X19797400Y-8873200D01*
X19852400Y-8928200D01*
X19852400Y-9378200D02*
X19907400Y-9323200D01*
X19852400Y-9268200D01*
X19797400Y-9323200D01*
X19852400Y-9378200D01*
X19852400Y-9783200D02*
X19907400Y-9728200D01*
X19852400Y-9673200D01*
X19797400Y-9728200D01*
X19852400Y-9783200D01*
X19852400Y-10233200D02*
X19907400Y-10178200D01*
X19852400Y-10123200D01*
X19797400Y-10178200D01*
X19852400Y-10233200D01*
D16*
X8746025Y-7292500D02*
X8893025Y-7439500D01*
X8893025Y-7292500D02*
X8746025Y-7439500D01*
X8893025Y-7366000D02*
G75*
G03*
X8893025Y-7366000I-73500J0D01*
G01*
X8746025Y-11102500D02*
X8893025Y-11249500D01*
X8893025Y-11102500D02*
X8746025Y-11249500D01*
X8893025Y-11176000D02*
G75*
G03*
X8893025Y-11176000I-73500J0D01*
G01*
X9381025Y-7038500D02*
X9528025Y-7185500D01*
X9528025Y-7038500D02*
X9381025Y-7185500D01*
X9528025Y-7112000D02*
G75*
G03*
X9528025Y-7112000I-73500J0D01*
G01*
X9381025Y-10848500D02*
X9528025Y-10995500D01*
X9528025Y-10848500D02*
X9381025Y-10995500D01*
X9528025Y-10922000D02*
G75*
G03*
X9528025Y-10922000I-73500J0D01*
G01*
X10651025Y-9197500D02*
X10798025Y-9344500D01*
X10798025Y-9197500D02*
X10651025Y-9344500D01*
X10798025Y-9271000D02*
G75*
G03*
X10798025Y-9271000I-73500J0D01*
G01*
X11286025Y-8943500D02*
X11433025Y-9090500D01*
X11433025Y-8943500D02*
X11286025Y-9090500D01*
X11433025Y-9017000D02*
G75*
G03*
X11433025Y-9017000I-73500J0D01*
G01*
X12556025Y-7292500D02*
X12703025Y-7439500D01*
X12703025Y-7292500D02*
X12556025Y-7439500D01*
X12703025Y-7366000D02*
G75*
G03*
X12703025Y-7366000I-73500J0D01*
G01*
X12563000Y-11102500D02*
X12710000Y-11249500D01*
X12710000Y-11102500D02*
X12563000Y-11249500D01*
X12710000Y-11176000D02*
G75*
G03*
X12710000Y-11176000I-73500J0D01*
G01*
X13191025Y-7038500D02*
X13338025Y-7185500D01*
X13338025Y-7038500D02*
X13191025Y-7185500D01*
X13338025Y-7112000D02*
G75*
G03*
X13338025Y-7112000I-73500J0D01*
G01*
X13198000Y-10848500D02*
X13345000Y-10995500D01*
X13345000Y-10848500D02*
X13198000Y-10995500D01*
X13345000Y-10922000D02*
G75*
G03*
X13345000Y-10922000I-73500J0D01*
G01*
X14944250Y-7292500D02*
X15091250Y-7439500D01*
X15091250Y-7292500D02*
X14944250Y-7439500D01*
X15091250Y-7366000D02*
G75*
G03*
X15091250Y-7366000I-73500J0D01*
G01*
X14944250Y-11102500D02*
X15091250Y-11249500D01*
X15091250Y-11102500D02*
X14944250Y-11249500D01*
X15091250Y-11176000D02*
G75*
G03*
X15091250Y-11176000I-73500J0D01*
G01*
X15579250Y-7038500D02*
X15726250Y-7185500D01*
X15726250Y-7038500D02*
X15579250Y-7185500D01*
X15726250Y-7112000D02*
G75*
G03*
X15726250Y-7112000I-73500J0D01*
G01*
X15579250Y-10848500D02*
X15726250Y-10995500D01*
X15726250Y-10848500D02*
X15579250Y-10995500D01*
X15726250Y-10922000D02*
G75*
G03*
X15726250Y-10922000I-73500J0D01*
G01*
X16849250Y-9197500D02*
X16996250Y-9344500D01*
X16996250Y-9197500D02*
X16849250Y-9344500D01*
X16996250Y-9271000D02*
G75*
G03*
X16996250Y-9271000I-73500J0D01*
G01*
X17484250Y-8943500D02*
X17631250Y-9090500D01*
X17631250Y-8943500D02*
X17484250Y-9090500D01*
X17631250Y-9017000D02*
G75*
G03*
X17631250Y-9017000I-73500J0D01*
G01*
X18754250Y-7292500D02*
X18901250Y-7439500D01*
X18901250Y-7292500D02*
X18754250Y-7439500D01*
X18901250Y-7366000D02*
G75*
G03*
X18901250Y-7366000I-73500J0D01*
G01*
X18754250Y-11102500D02*
X18901250Y-11249500D01*
X18901250Y-11102500D02*
X18754250Y-11249500D01*
X18901250Y-11176000D02*
G75*
G03*
X18901250Y-11176000I-73500J0D01*
G01*
X19389250Y-7038500D02*
X19536250Y-7185500D01*
X19536250Y-7038500D02*
X19389250Y-7185500D01*
X19536250Y-7112000D02*
G75*
G03*
X19536250Y-7112000I-73500J0D01*
G01*
X19389250Y-10848500D02*
X19536250Y-10995500D01*
X19536250Y-10848500D02*
X19389250Y-10995500D01*
X19536250Y-10922000D02*
G75*
G03*
X19536250Y-10922000I-73500J0D01*
G01*
D11*
X8428244Y-13332976D02*
X8428244Y-13132976D01*
X8475863Y-13132976D01*
X8504435Y-13142500D01*
X8523482Y-13161548D01*
X8533006Y-13180595D01*
X8542530Y-13218690D01*
X8542530Y-13247262D01*
X8533006Y-13285357D01*
X8523482Y-13304405D01*
X8504435Y-13323452D01*
X8475863Y-13332976D01*
X8428244Y-13332976D01*
X8628244Y-13332976D02*
X8628244Y-13199643D01*
X8628244Y-13237738D02*
X8637768Y-13218690D01*
X8647292Y-13209167D01*
X8666339Y-13199643D01*
X8685387Y-13199643D01*
X8752054Y-13332976D02*
X8752054Y-13199643D01*
X8752054Y-13132976D02*
X8742530Y-13142500D01*
X8752054Y-13152024D01*
X8761577Y-13142500D01*
X8752054Y-13132976D01*
X8752054Y-13152024D01*
X8875863Y-13332976D02*
X8856815Y-13323452D01*
X8847292Y-13304405D01*
X8847292Y-13132976D01*
X8980625Y-13332976D02*
X8961577Y-13323452D01*
X8952054Y-13304405D01*
X8952054Y-13132976D01*
X9209196Y-13332976D02*
X9209196Y-13132976D01*
X9275863Y-13275833D01*
X9342530Y-13132976D01*
X9342530Y-13332976D01*
X9523482Y-13332976D02*
X9523482Y-13228214D01*
X9513958Y-13209167D01*
X9494911Y-13199643D01*
X9456815Y-13199643D01*
X9437768Y-13209167D01*
X9523482Y-13323452D02*
X9504435Y-13332976D01*
X9456815Y-13332976D01*
X9437768Y-13323452D01*
X9428244Y-13304405D01*
X9428244Y-13285357D01*
X9437768Y-13266309D01*
X9456815Y-13256786D01*
X9504435Y-13256786D01*
X9523482Y-13247262D01*
X9618720Y-13199643D02*
X9618720Y-13399643D01*
X9618720Y-13209167D02*
X9637768Y-13199643D01*
X9675863Y-13199643D01*
X9694911Y-13209167D01*
X9704435Y-13218690D01*
X9713958Y-13237738D01*
X9713958Y-13294881D01*
X9704435Y-13313928D01*
X9694911Y-13323452D01*
X9675863Y-13332976D01*
X9637768Y-13332976D01*
X9618720Y-13323452D01*
X9799673Y-13313928D02*
X9809196Y-13323452D01*
X9799673Y-13332976D01*
X9790149Y-13323452D01*
X9799673Y-13313928D01*
X9799673Y-13332976D01*
X9799673Y-13209167D02*
X9809196Y-13218690D01*
X9799673Y-13228214D01*
X9790149Y-13218690D01*
X9799673Y-13209167D01*
X9799673Y-13228214D01*
D12*
X8130625Y-13642500D02*
X8170625Y-13682500D01*
X8170625Y-13642500D02*
X8130625Y-13682500D01*
D11*
X8466339Y-13552976D02*
X8485387Y-13552976D01*
X8504435Y-13562500D01*
X8513958Y-13572024D01*
X8523482Y-13591071D01*
X8533006Y-13629167D01*
X8533006Y-13676786D01*
X8523482Y-13714881D01*
X8513958Y-13733928D01*
X8504435Y-13743452D01*
X8485387Y-13752976D01*
X8466339Y-13752976D01*
X8447292Y-13743452D01*
X8437768Y-13733928D01*
X8428244Y-13714881D01*
X8418720Y-13676786D01*
X8418720Y-13629167D01*
X8428244Y-13591071D01*
X8437768Y-13572024D01*
X8447292Y-13562500D01*
X8466339Y-13552976D01*
X8618720Y-13733928D02*
X8628244Y-13743452D01*
X8618720Y-13752976D01*
X8609196Y-13743452D01*
X8618720Y-13733928D01*
X8618720Y-13752976D01*
X8799673Y-13619643D02*
X8799673Y-13752976D01*
X8752054Y-13543452D02*
X8704435Y-13686309D01*
X8828244Y-13686309D01*
X8942530Y-13552976D02*
X8961577Y-13552976D01*
X8980625Y-13562500D01*
X8990149Y-13572024D01*
X8999673Y-13591071D01*
X9009196Y-13629167D01*
X9009196Y-13676786D01*
X8999673Y-13714881D01*
X8990149Y-13733928D01*
X8980625Y-13743452D01*
X8961577Y-13752976D01*
X8942530Y-13752976D01*
X8923482Y-13743452D01*
X8913958Y-13733928D01*
X8904435Y-13714881D01*
X8894911Y-13676786D01*
X8894911Y-13629167D01*
X8904435Y-13591071D01*
X8913958Y-13572024D01*
X8923482Y-13562500D01*
X8942530Y-13552976D01*
X9133006Y-13552976D02*
X9152054Y-13552976D01*
X9171101Y-13562500D01*
X9180625Y-13572024D01*
X9190149Y-13591071D01*
X9199673Y-13629167D01*
X9199673Y-13676786D01*
X9190149Y-13714881D01*
X9180625Y-13733928D01*
X9171101Y-13743452D01*
X9152054Y-13752976D01*
X9133006Y-13752976D01*
X9113958Y-13743452D01*
X9104435Y-13733928D01*
X9094911Y-13714881D01*
X9085387Y-13676786D01*
X9085387Y-13629167D01*
X9094911Y-13591071D01*
X9104435Y-13572024D01*
X9113958Y-13562500D01*
X9133006Y-13552976D01*
X9285387Y-13752976D02*
X9285387Y-13619643D01*
X9285387Y-13638690D02*
X9294911Y-13629167D01*
X9313958Y-13619643D01*
X9342530Y-13619643D01*
X9361577Y-13629167D01*
X9371101Y-13648214D01*
X9371101Y-13752976D01*
X9371101Y-13648214D02*
X9380625Y-13629167D01*
X9399673Y-13619643D01*
X9428244Y-13619643D01*
X9447292Y-13629167D01*
X9456815Y-13648214D01*
X9456815Y-13752976D01*
X9552054Y-13752976D02*
X9552054Y-13619643D01*
X9552054Y-13638690D02*
X9561577Y-13629167D01*
X9580625Y-13619643D01*
X9609196Y-13619643D01*
X9628244Y-13629167D01*
X9637768Y-13648214D01*
X9637768Y-13752976D01*
X9637768Y-13648214D02*
X9647292Y-13629167D01*
X9666339Y-13619643D01*
X9694911Y-13619643D01*
X9713958Y-13629167D01*
X9723482Y-13648214D01*
X9723482Y-13752976D01*
X10113958Y-13543452D02*
X9942530Y-13800595D01*
X10371101Y-13552976D02*
X10390149Y-13552976D01*
X10409196Y-13562500D01*
X10418720Y-13572024D01*
X10428244Y-13591071D01*
X10437768Y-13629167D01*
X10437768Y-13676786D01*
X10428244Y-13714881D01*
X10418720Y-13733928D01*
X10409196Y-13743452D01*
X10390149Y-13752976D01*
X10371101Y-13752976D01*
X10352054Y-13743452D01*
X10342530Y-13733928D01*
X10333006Y-13714881D01*
X10323482Y-13676786D01*
X10323482Y-13629167D01*
X10333006Y-13591071D01*
X10342530Y-13572024D01*
X10352054Y-13562500D01*
X10371101Y-13552976D01*
X10523482Y-13733928D02*
X10533006Y-13743452D01*
X10523482Y-13752976D01*
X10513958Y-13743452D01*
X10523482Y-13733928D01*
X10523482Y-13752976D01*
X10656815Y-13552976D02*
X10675863Y-13552976D01*
X10694911Y-13562500D01*
X10704435Y-13572024D01*
X10713958Y-13591071D01*
X10723482Y-13629167D01*
X10723482Y-13676786D01*
X10713958Y-13714881D01*
X10704435Y-13733928D01*
X10694911Y-13743452D01*
X10675863Y-13752976D01*
X10656815Y-13752976D01*
X10637768Y-13743452D01*
X10628244Y-13733928D01*
X10618720Y-13714881D01*
X10609196Y-13676786D01*
X10609196Y-13629167D01*
X10618720Y-13591071D01*
X10628244Y-13572024D01*
X10637768Y-13562500D01*
X10656815Y-13552976D01*
X10913958Y-13752976D02*
X10799673Y-13752976D01*
X10856815Y-13752976D02*
X10856815Y-13552976D01*
X10837768Y-13581548D01*
X10818720Y-13600595D01*
X10799673Y-13610119D01*
X11094911Y-13552976D02*
X10999673Y-13552976D01*
X10990149Y-13648214D01*
X10999673Y-13638690D01*
X11018720Y-13629167D01*
X11066339Y-13629167D01*
X11085387Y-13638690D01*
X11094911Y-13648214D01*
X11104435Y-13667262D01*
X11104435Y-13714881D01*
X11094911Y-13733928D01*
X11085387Y-13743452D01*
X11066339Y-13752976D01*
X11018720Y-13752976D01*
X10999673Y-13743452D01*
X10990149Y-13733928D01*
X11171101Y-13552976D02*
X11304434Y-13552976D01*
X11218720Y-13752976D01*
X11371101Y-13552976D02*
X11371101Y-13591071D01*
X11447292Y-13552976D02*
X11447292Y-13591071D01*
X11742530Y-13829167D02*
X11733006Y-13819643D01*
X11713958Y-13791071D01*
X11704434Y-13772024D01*
X11694911Y-13743452D01*
X11685387Y-13695833D01*
X11685387Y-13657738D01*
X11694911Y-13610119D01*
X11704434Y-13581548D01*
X11713958Y-13562500D01*
X11733006Y-13533928D01*
X11742530Y-13524405D01*
X11799673Y-13552976D02*
X11923482Y-13552976D01*
X11856815Y-13629167D01*
X11885387Y-13629167D01*
X11904434Y-13638690D01*
X11913958Y-13648214D01*
X11923482Y-13667262D01*
X11923482Y-13714881D01*
X11913958Y-13733928D01*
X11904434Y-13743452D01*
X11885387Y-13752976D01*
X11828244Y-13752976D01*
X11809196Y-13743452D01*
X11799673Y-13733928D01*
X12047292Y-13552976D02*
X12066339Y-13552976D01*
X12085387Y-13562500D01*
X12094911Y-13572024D01*
X12104434Y-13591071D01*
X12113958Y-13629167D01*
X12113958Y-13676786D01*
X12104434Y-13714881D01*
X12094911Y-13733928D01*
X12085387Y-13743452D01*
X12066339Y-13752976D01*
X12047292Y-13752976D01*
X12028244Y-13743452D01*
X12018720Y-13733928D01*
X12009196Y-13714881D01*
X11999673Y-13676786D01*
X11999673Y-13629167D01*
X12009196Y-13591071D01*
X12018720Y-13572024D01*
X12028244Y-13562500D01*
X12047292Y-13552976D01*
X12352053Y-13752976D02*
X12352053Y-13552976D01*
X12437768Y-13752976D02*
X12437768Y-13648214D01*
X12428244Y-13629167D01*
X12409196Y-13619643D01*
X12380625Y-13619643D01*
X12361577Y-13629167D01*
X12352053Y-13638690D01*
X12561577Y-13752976D02*
X12542530Y-13743452D01*
X12533006Y-13733928D01*
X12523482Y-13714881D01*
X12523482Y-13657738D01*
X12533006Y-13638690D01*
X12542530Y-13629167D01*
X12561577Y-13619643D01*
X12590149Y-13619643D01*
X12609196Y-13629167D01*
X12618720Y-13638690D01*
X12628244Y-13657738D01*
X12628244Y-13714881D01*
X12618720Y-13733928D01*
X12609196Y-13743452D01*
X12590149Y-13752976D01*
X12561577Y-13752976D01*
X12742530Y-13752976D02*
X12723482Y-13743452D01*
X12713958Y-13724405D01*
X12713958Y-13552976D01*
X12894911Y-13743452D02*
X12875863Y-13752976D01*
X12837768Y-13752976D01*
X12818720Y-13743452D01*
X12809196Y-13724405D01*
X12809196Y-13648214D01*
X12818720Y-13629167D01*
X12837768Y-13619643D01*
X12875863Y-13619643D01*
X12894911Y-13629167D01*
X12904434Y-13648214D01*
X12904434Y-13667262D01*
X12809196Y-13686309D01*
X12980625Y-13743452D02*
X12999673Y-13752976D01*
X13037768Y-13752976D01*
X13056815Y-13743452D01*
X13066339Y-13724405D01*
X13066339Y-13714881D01*
X13056815Y-13695833D01*
X13037768Y-13686309D01*
X13009196Y-13686309D01*
X12990149Y-13676786D01*
X12980625Y-13657738D01*
X12980625Y-13648214D01*
X12990149Y-13629167D01*
X13009196Y-13619643D01*
X13037768Y-13619643D01*
X13056815Y-13629167D01*
X13133006Y-13829167D02*
X13142530Y-13819643D01*
X13161577Y-13791071D01*
X13171101Y-13772024D01*
X13180625Y-13743452D01*
X13190149Y-13695833D01*
X13190149Y-13657738D01*
X13180625Y-13610119D01*
X13171101Y-13581548D01*
X13161577Y-13562500D01*
X13142530Y-13533928D01*
X13133006Y-13524405D01*
D10*
X8170625Y-13926500D02*
G75*
G03*
X8170625Y-13926500I-50000J0D01*
G01*
D11*
X8533006Y-14016976D02*
X8418720Y-14016976D01*
X8475863Y-14016976D02*
X8475863Y-13816976D01*
X8456815Y-13845548D01*
X8437768Y-13864595D01*
X8418720Y-13874119D01*
X8618720Y-13997928D02*
X8628244Y-14007452D01*
X8618720Y-14016976D01*
X8609196Y-14007452D01*
X8618720Y-13997928D01*
X8618720Y-14016976D01*
X8752054Y-13816976D02*
X8771101Y-13816976D01*
X8790149Y-13826500D01*
X8799673Y-13836024D01*
X8809196Y-13855071D01*
X8818720Y-13893167D01*
X8818720Y-13940786D01*
X8809196Y-13978881D01*
X8799673Y-13997928D01*
X8790149Y-14007452D01*
X8771101Y-14016976D01*
X8752054Y-14016976D01*
X8733006Y-14007452D01*
X8723482Y-13997928D01*
X8713958Y-13978881D01*
X8704435Y-13940786D01*
X8704435Y-13893167D01*
X8713958Y-13855071D01*
X8723482Y-13836024D01*
X8733006Y-13826500D01*
X8752054Y-13816976D01*
X8942530Y-13816976D02*
X8961577Y-13816976D01*
X8980625Y-13826500D01*
X8990149Y-13836024D01*
X8999673Y-13855071D01*
X9009196Y-13893167D01*
X9009196Y-13940786D01*
X8999673Y-13978881D01*
X8990149Y-13997928D01*
X8980625Y-14007452D01*
X8961577Y-14016976D01*
X8942530Y-14016976D01*
X8923482Y-14007452D01*
X8913958Y-13997928D01*
X8904435Y-13978881D01*
X8894911Y-13940786D01*
X8894911Y-13893167D01*
X8904435Y-13855071D01*
X8913958Y-13836024D01*
X8923482Y-13826500D01*
X8942530Y-13816976D01*
X9133006Y-13816976D02*
X9152054Y-13816976D01*
X9171101Y-13826500D01*
X9180625Y-13836024D01*
X9190149Y-13855071D01*
X9199673Y-13893167D01*
X9199673Y-13940786D01*
X9190149Y-13978881D01*
X9180625Y-13997928D01*
X9171101Y-14007452D01*
X9152054Y-14016976D01*
X9133006Y-14016976D01*
X9113958Y-14007452D01*
X9104435Y-13997928D01*
X9094911Y-13978881D01*
X9085387Y-13940786D01*
X9085387Y-13893167D01*
X9094911Y-13855071D01*
X9104435Y-13836024D01*
X9113958Y-13826500D01*
X9133006Y-13816976D01*
X9285387Y-14016976D02*
X9285387Y-13883643D01*
X9285387Y-13902690D02*
X9294911Y-13893167D01*
X9313958Y-13883643D01*
X9342530Y-13883643D01*
X9361577Y-13893167D01*
X9371101Y-13912214D01*
X9371101Y-14016976D01*
X9371101Y-13912214D02*
X9380625Y-13893167D01*
X9399673Y-13883643D01*
X9428244Y-13883643D01*
X9447292Y-13893167D01*
X9456815Y-13912214D01*
X9456815Y-14016976D01*
X9552054Y-14016976D02*
X9552054Y-13883643D01*
X9552054Y-13902690D02*
X9561577Y-13893167D01*
X9580625Y-13883643D01*
X9609196Y-13883643D01*
X9628244Y-13893167D01*
X9637768Y-13912214D01*
X9637768Y-14016976D01*
X9637768Y-13912214D02*
X9647292Y-13893167D01*
X9666339Y-13883643D01*
X9694911Y-13883643D01*
X9713958Y-13893167D01*
X9723482Y-13912214D01*
X9723482Y-14016976D01*
X10113958Y-13807452D02*
X9942530Y-14064595D01*
X10371101Y-13816976D02*
X10390149Y-13816976D01*
X10409196Y-13826500D01*
X10418720Y-13836024D01*
X10428244Y-13855071D01*
X10437768Y-13893167D01*
X10437768Y-13940786D01*
X10428244Y-13978881D01*
X10418720Y-13997928D01*
X10409196Y-14007452D01*
X10390149Y-14016976D01*
X10371101Y-14016976D01*
X10352054Y-14007452D01*
X10342530Y-13997928D01*
X10333006Y-13978881D01*
X10323482Y-13940786D01*
X10323482Y-13893167D01*
X10333006Y-13855071D01*
X10342530Y-13836024D01*
X10352054Y-13826500D01*
X10371101Y-13816976D01*
X10523482Y-13997928D02*
X10533006Y-14007452D01*
X10523482Y-14016976D01*
X10513958Y-14007452D01*
X10523482Y-13997928D01*
X10523482Y-14016976D01*
X10656815Y-13816976D02*
X10675863Y-13816976D01*
X10694911Y-13826500D01*
X10704435Y-13836024D01*
X10713958Y-13855071D01*
X10723482Y-13893167D01*
X10723482Y-13940786D01*
X10713958Y-13978881D01*
X10704435Y-13997928D01*
X10694911Y-14007452D01*
X10675863Y-14016976D01*
X10656815Y-14016976D01*
X10637768Y-14007452D01*
X10628244Y-13997928D01*
X10618720Y-13978881D01*
X10609196Y-13940786D01*
X10609196Y-13893167D01*
X10618720Y-13855071D01*
X10628244Y-13836024D01*
X10637768Y-13826500D01*
X10656815Y-13816976D01*
X10790149Y-13816976D02*
X10913958Y-13816976D01*
X10847292Y-13893167D01*
X10875863Y-13893167D01*
X10894911Y-13902690D01*
X10904435Y-13912214D01*
X10913958Y-13931262D01*
X10913958Y-13978881D01*
X10904435Y-13997928D01*
X10894911Y-14007452D01*
X10875863Y-14016976D01*
X10818720Y-14016976D01*
X10799673Y-14007452D01*
X10790149Y-13997928D01*
X11009196Y-14016976D02*
X11047292Y-14016976D01*
X11066339Y-14007452D01*
X11075863Y-13997928D01*
X11094911Y-13969357D01*
X11104435Y-13931262D01*
X11104435Y-13855071D01*
X11094911Y-13836024D01*
X11085387Y-13826500D01*
X11066339Y-13816976D01*
X11028244Y-13816976D01*
X11009196Y-13826500D01*
X10999673Y-13836024D01*
X10990149Y-13855071D01*
X10990149Y-13902690D01*
X10999673Y-13921738D01*
X11009196Y-13931262D01*
X11028244Y-13940786D01*
X11066339Y-13940786D01*
X11085387Y-13931262D01*
X11094911Y-13921738D01*
X11104435Y-13902690D01*
X11275863Y-13883643D02*
X11275863Y-14016976D01*
X11228244Y-13807452D02*
X11180625Y-13950309D01*
X11304434Y-13950309D01*
X11371101Y-13816976D02*
X11371101Y-13855071D01*
X11447292Y-13816976D02*
X11447292Y-13855071D01*
X11742530Y-14093167D02*
X11733006Y-14083643D01*
X11713958Y-14055071D01*
X11704434Y-14036024D01*
X11694911Y-14007452D01*
X11685387Y-13959833D01*
X11685387Y-13921738D01*
X11694911Y-13874119D01*
X11704434Y-13845548D01*
X11713958Y-13826500D01*
X11733006Y-13797928D01*
X11742530Y-13788405D01*
X11799673Y-13816976D02*
X11923482Y-13816976D01*
X11856815Y-13893167D01*
X11885387Y-13893167D01*
X11904434Y-13902690D01*
X11913958Y-13912214D01*
X11923482Y-13931262D01*
X11923482Y-13978881D01*
X11913958Y-13997928D01*
X11904434Y-14007452D01*
X11885387Y-14016976D01*
X11828244Y-14016976D01*
X11809196Y-14007452D01*
X11799673Y-13997928D01*
X12161577Y-14016976D02*
X12161577Y-13816976D01*
X12247292Y-14016976D02*
X12247292Y-13912214D01*
X12237768Y-13893167D01*
X12218720Y-13883643D01*
X12190149Y-13883643D01*
X12171101Y-13893167D01*
X12161577Y-13902690D01*
X12371101Y-14016976D02*
X12352053Y-14007452D01*
X12342530Y-13997928D01*
X12333006Y-13978881D01*
X12333006Y-13921738D01*
X12342530Y-13902690D01*
X12352053Y-13893167D01*
X12371101Y-13883643D01*
X12399673Y-13883643D01*
X12418720Y-13893167D01*
X12428244Y-13902690D01*
X12437768Y-13921738D01*
X12437768Y-13978881D01*
X12428244Y-13997928D01*
X12418720Y-14007452D01*
X12399673Y-14016976D01*
X12371101Y-14016976D01*
X12552053Y-14016976D02*
X12533006Y-14007452D01*
X12523482Y-13988405D01*
X12523482Y-13816976D01*
X12704434Y-14007452D02*
X12685387Y-14016976D01*
X12647292Y-14016976D01*
X12628244Y-14007452D01*
X12618720Y-13988405D01*
X12618720Y-13912214D01*
X12628244Y-13893167D01*
X12647292Y-13883643D01*
X12685387Y-13883643D01*
X12704434Y-13893167D01*
X12713958Y-13912214D01*
X12713958Y-13931262D01*
X12618720Y-13950309D01*
X12790149Y-14007452D02*
X12809196Y-14016976D01*
X12847292Y-14016976D01*
X12866339Y-14007452D01*
X12875863Y-13988405D01*
X12875863Y-13978881D01*
X12866339Y-13959833D01*
X12847292Y-13950309D01*
X12818720Y-13950309D01*
X12799673Y-13940786D01*
X12790149Y-13921738D01*
X12790149Y-13912214D01*
X12799673Y-13893167D01*
X12818720Y-13883643D01*
X12847292Y-13883643D01*
X12866339Y-13893167D01*
X12942530Y-14093167D02*
X12952053Y-14083643D01*
X12971101Y-14055071D01*
X12980625Y-14036024D01*
X12990149Y-14007452D01*
X12999673Y-13959833D01*
X12999673Y-13921738D01*
X12990149Y-13874119D01*
X12980625Y-13845548D01*
X12971101Y-13826500D01*
X12952053Y-13797928D01*
X12942530Y-13788405D01*
D13*
X8119625Y-14139500D02*
X8119625Y-14241500D01*
X8068625Y-14190500D02*
X8170625Y-14190500D01*
D11*
X8533006Y-14280976D02*
X8418720Y-14280976D01*
X8475863Y-14280976D02*
X8475863Y-14080976D01*
X8456815Y-14109548D01*
X8437768Y-14128595D01*
X8418720Y-14138119D01*
X8618720Y-14261928D02*
X8628244Y-14271452D01*
X8618720Y-14280976D01*
X8609196Y-14271452D01*
X8618720Y-14261928D01*
X8618720Y-14280976D01*
X8752054Y-14080976D02*
X8771101Y-14080976D01*
X8790149Y-14090500D01*
X8799673Y-14100024D01*
X8809196Y-14119071D01*
X8818720Y-14157167D01*
X8818720Y-14204786D01*
X8809196Y-14242881D01*
X8799673Y-14261928D01*
X8790149Y-14271452D01*
X8771101Y-14280976D01*
X8752054Y-14280976D01*
X8733006Y-14271452D01*
X8723482Y-14261928D01*
X8713958Y-14242881D01*
X8704435Y-14204786D01*
X8704435Y-14157167D01*
X8713958Y-14119071D01*
X8723482Y-14100024D01*
X8733006Y-14090500D01*
X8752054Y-14080976D01*
X8894911Y-14100024D02*
X8904435Y-14090500D01*
X8923482Y-14080976D01*
X8971101Y-14080976D01*
X8990149Y-14090500D01*
X8999673Y-14100024D01*
X9009196Y-14119071D01*
X9009196Y-14138119D01*
X8999673Y-14166690D01*
X8885387Y-14280976D01*
X9009196Y-14280976D01*
X9133006Y-14080976D02*
X9152054Y-14080976D01*
X9171101Y-14090500D01*
X9180625Y-14100024D01*
X9190149Y-14119071D01*
X9199673Y-14157167D01*
X9199673Y-14204786D01*
X9190149Y-14242881D01*
X9180625Y-14261928D01*
X9171101Y-14271452D01*
X9152054Y-14280976D01*
X9133006Y-14280976D01*
X9113958Y-14271452D01*
X9104435Y-14261928D01*
X9094911Y-14242881D01*
X9085387Y-14204786D01*
X9085387Y-14157167D01*
X9094911Y-14119071D01*
X9104435Y-14100024D01*
X9113958Y-14090500D01*
X9133006Y-14080976D01*
X9285387Y-14280976D02*
X9285387Y-14147643D01*
X9285387Y-14166690D02*
X9294911Y-14157167D01*
X9313958Y-14147643D01*
X9342530Y-14147643D01*
X9361577Y-14157167D01*
X9371101Y-14176214D01*
X9371101Y-14280976D01*
X9371101Y-14176214D02*
X9380625Y-14157167D01*
X9399673Y-14147643D01*
X9428244Y-14147643D01*
X9447292Y-14157167D01*
X9456815Y-14176214D01*
X9456815Y-14280976D01*
X9552054Y-14280976D02*
X9552054Y-14147643D01*
X9552054Y-14166690D02*
X9561577Y-14157167D01*
X9580625Y-14147643D01*
X9609196Y-14147643D01*
X9628244Y-14157167D01*
X9637768Y-14176214D01*
X9637768Y-14280976D01*
X9637768Y-14176214D02*
X9647292Y-14157167D01*
X9666339Y-14147643D01*
X9694911Y-14147643D01*
X9713958Y-14157167D01*
X9723482Y-14176214D01*
X9723482Y-14280976D01*
X10113958Y-14071452D02*
X9942530Y-14328595D01*
X10371101Y-14080976D02*
X10390149Y-14080976D01*
X10409196Y-14090500D01*
X10418720Y-14100024D01*
X10428244Y-14119071D01*
X10437768Y-14157167D01*
X10437768Y-14204786D01*
X10428244Y-14242881D01*
X10418720Y-14261928D01*
X10409196Y-14271452D01*
X10390149Y-14280976D01*
X10371101Y-14280976D01*
X10352054Y-14271452D01*
X10342530Y-14261928D01*
X10333006Y-14242881D01*
X10323482Y-14204786D01*
X10323482Y-14157167D01*
X10333006Y-14119071D01*
X10342530Y-14100024D01*
X10352054Y-14090500D01*
X10371101Y-14080976D01*
X10523482Y-14261928D02*
X10533006Y-14271452D01*
X10523482Y-14280976D01*
X10513958Y-14271452D01*
X10523482Y-14261928D01*
X10523482Y-14280976D01*
X10656815Y-14080976D02*
X10675863Y-14080976D01*
X10694911Y-14090500D01*
X10704435Y-14100024D01*
X10713958Y-14119071D01*
X10723482Y-14157167D01*
X10723482Y-14204786D01*
X10713958Y-14242881D01*
X10704435Y-14261928D01*
X10694911Y-14271452D01*
X10675863Y-14280976D01*
X10656815Y-14280976D01*
X10637768Y-14271452D01*
X10628244Y-14261928D01*
X10618720Y-14242881D01*
X10609196Y-14204786D01*
X10609196Y-14157167D01*
X10618720Y-14119071D01*
X10628244Y-14100024D01*
X10637768Y-14090500D01*
X10656815Y-14080976D01*
X10894911Y-14147643D02*
X10894911Y-14280976D01*
X10847292Y-14071452D02*
X10799673Y-14214309D01*
X10923482Y-14214309D01*
X11037768Y-14080976D02*
X11056815Y-14080976D01*
X11075863Y-14090500D01*
X11085387Y-14100024D01*
X11094911Y-14119071D01*
X11104435Y-14157167D01*
X11104435Y-14204786D01*
X11094911Y-14242881D01*
X11085387Y-14261928D01*
X11075863Y-14271452D01*
X11056815Y-14280976D01*
X11037768Y-14280976D01*
X11018720Y-14271452D01*
X11009196Y-14261928D01*
X10999673Y-14242881D01*
X10990149Y-14204786D01*
X10990149Y-14157167D01*
X10999673Y-14119071D01*
X11009196Y-14100024D01*
X11018720Y-14090500D01*
X11037768Y-14080976D01*
X11180625Y-14100024D02*
X11190149Y-14090500D01*
X11209196Y-14080976D01*
X11256815Y-14080976D01*
X11275863Y-14090500D01*
X11285387Y-14100024D01*
X11294911Y-14119071D01*
X11294911Y-14138119D01*
X11285387Y-14166690D01*
X11171101Y-14280976D01*
X11294911Y-14280976D01*
X11371101Y-14080976D02*
X11371101Y-14119071D01*
X11447292Y-14080976D02*
X11447292Y-14119071D01*
X11742530Y-14357167D02*
X11733006Y-14347643D01*
X11713958Y-14319071D01*
X11704434Y-14300024D01*
X11694911Y-14271452D01*
X11685387Y-14223833D01*
X11685387Y-14185738D01*
X11694911Y-14138119D01*
X11704434Y-14109548D01*
X11713958Y-14090500D01*
X11733006Y-14061928D01*
X11742530Y-14052405D01*
X11904434Y-14147643D02*
X11904434Y-14280976D01*
X11856815Y-14071452D02*
X11809196Y-14214309D01*
X11933006Y-14214309D01*
X12047292Y-14080976D02*
X12066339Y-14080976D01*
X12085387Y-14090500D01*
X12094911Y-14100024D01*
X12104434Y-14119071D01*
X12113958Y-14157167D01*
X12113958Y-14204786D01*
X12104434Y-14242881D01*
X12094911Y-14261928D01*
X12085387Y-14271452D01*
X12066339Y-14280976D01*
X12047292Y-14280976D01*
X12028244Y-14271452D01*
X12018720Y-14261928D01*
X12009196Y-14242881D01*
X11999673Y-14204786D01*
X11999673Y-14157167D01*
X12009196Y-14119071D01*
X12018720Y-14100024D01*
X12028244Y-14090500D01*
X12047292Y-14080976D01*
X12352053Y-14280976D02*
X12352053Y-14080976D01*
X12437768Y-14280976D02*
X12437768Y-14176214D01*
X12428244Y-14157167D01*
X12409196Y-14147643D01*
X12380625Y-14147643D01*
X12361577Y-14157167D01*
X12352053Y-14166690D01*
X12561577Y-14280976D02*
X12542530Y-14271452D01*
X12533006Y-14261928D01*
X12523482Y-14242881D01*
X12523482Y-14185738D01*
X12533006Y-14166690D01*
X12542530Y-14157167D01*
X12561577Y-14147643D01*
X12590149Y-14147643D01*
X12609196Y-14157167D01*
X12618720Y-14166690D01*
X12628244Y-14185738D01*
X12628244Y-14242881D01*
X12618720Y-14261928D01*
X12609196Y-14271452D01*
X12590149Y-14280976D01*
X12561577Y-14280976D01*
X12742530Y-14280976D02*
X12723482Y-14271452D01*
X12713958Y-14252405D01*
X12713958Y-14080976D01*
X12894911Y-14271452D02*
X12875863Y-14280976D01*
X12837768Y-14280976D01*
X12818720Y-14271452D01*
X12809196Y-14252405D01*
X12809196Y-14176214D01*
X12818720Y-14157167D01*
X12837768Y-14147643D01*
X12875863Y-14147643D01*
X12894911Y-14157167D01*
X12904434Y-14176214D01*
X12904434Y-14195262D01*
X12809196Y-14214309D01*
X12980625Y-14271452D02*
X12999673Y-14280976D01*
X13037768Y-14280976D01*
X13056815Y-14271452D01*
X13066339Y-14252405D01*
X13066339Y-14242881D01*
X13056815Y-14223833D01*
X13037768Y-14214309D01*
X13009196Y-14214309D01*
X12990149Y-14204786D01*
X12980625Y-14185738D01*
X12980625Y-14176214D01*
X12990149Y-14157167D01*
X13009196Y-14147643D01*
X13037768Y-14147643D01*
X13056815Y-14157167D01*
X13133006Y-14357167D02*
X13142530Y-14347643D01*
X13161577Y-14319071D01*
X13171101Y-14300024D01*
X13180625Y-14271452D01*
X13190149Y-14223833D01*
X13190149Y-14185738D01*
X13180625Y-14138119D01*
X13171101Y-14109548D01*
X13161577Y-14090500D01*
X13142530Y-14061928D01*
X13133006Y-14052405D01*
D14*
X8155395Y-14491270D02*
X8155395Y-14417730D01*
X8081855Y-14417730D01*
X8081855Y-14491270D01*
X8155395Y-14491270D01*
D11*
X8533006Y-14544976D02*
X8418720Y-14544976D01*
X8475863Y-14544976D02*
X8475863Y-14344976D01*
X8456815Y-14373548D01*
X8437768Y-14392595D01*
X8418720Y-14402119D01*
X8618720Y-14525928D02*
X8628244Y-14535452D01*
X8618720Y-14544976D01*
X8609196Y-14535452D01*
X8618720Y-14525928D01*
X8618720Y-14544976D01*
X8752054Y-14344976D02*
X8771101Y-14344976D01*
X8790149Y-14354500D01*
X8799673Y-14364024D01*
X8809196Y-14383071D01*
X8818720Y-14421167D01*
X8818720Y-14468786D01*
X8809196Y-14506881D01*
X8799673Y-14525928D01*
X8790149Y-14535452D01*
X8771101Y-14544976D01*
X8752054Y-14544976D01*
X8733006Y-14535452D01*
X8723482Y-14525928D01*
X8713958Y-14506881D01*
X8704435Y-14468786D01*
X8704435Y-14421167D01*
X8713958Y-14383071D01*
X8723482Y-14364024D01*
X8733006Y-14354500D01*
X8752054Y-14344976D01*
X8990149Y-14411643D02*
X8990149Y-14544976D01*
X8942530Y-14335452D02*
X8894911Y-14478309D01*
X9018720Y-14478309D01*
X9133006Y-14344976D02*
X9152054Y-14344976D01*
X9171101Y-14354500D01*
X9180625Y-14364024D01*
X9190149Y-14383071D01*
X9199673Y-14421167D01*
X9199673Y-14468786D01*
X9190149Y-14506881D01*
X9180625Y-14525928D01*
X9171101Y-14535452D01*
X9152054Y-14544976D01*
X9133006Y-14544976D01*
X9113958Y-14535452D01*
X9104435Y-14525928D01*
X9094911Y-14506881D01*
X9085387Y-14468786D01*
X9085387Y-14421167D01*
X9094911Y-14383071D01*
X9104435Y-14364024D01*
X9113958Y-14354500D01*
X9133006Y-14344976D01*
X9285387Y-14544976D02*
X9285387Y-14411643D01*
X9285387Y-14430690D02*
X9294911Y-14421167D01*
X9313958Y-14411643D01*
X9342530Y-14411643D01*
X9361577Y-14421167D01*
X9371101Y-14440214D01*
X9371101Y-14544976D01*
X9371101Y-14440214D02*
X9380625Y-14421167D01*
X9399673Y-14411643D01*
X9428244Y-14411643D01*
X9447292Y-14421167D01*
X9456815Y-14440214D01*
X9456815Y-14544976D01*
X9552054Y-14544976D02*
X9552054Y-14411643D01*
X9552054Y-14430690D02*
X9561577Y-14421167D01*
X9580625Y-14411643D01*
X9609196Y-14411643D01*
X9628244Y-14421167D01*
X9637768Y-14440214D01*
X9637768Y-14544976D01*
X9637768Y-14440214D02*
X9647292Y-14421167D01*
X9666339Y-14411643D01*
X9694911Y-14411643D01*
X9713958Y-14421167D01*
X9723482Y-14440214D01*
X9723482Y-14544976D01*
X10113958Y-14335452D02*
X9942530Y-14592595D01*
X10371101Y-14344976D02*
X10390149Y-14344976D01*
X10409196Y-14354500D01*
X10418720Y-14364024D01*
X10428244Y-14383071D01*
X10437768Y-14421167D01*
X10437768Y-14468786D01*
X10428244Y-14506881D01*
X10418720Y-14525928D01*
X10409196Y-14535452D01*
X10390149Y-14544976D01*
X10371101Y-14544976D01*
X10352054Y-14535452D01*
X10342530Y-14525928D01*
X10333006Y-14506881D01*
X10323482Y-14468786D01*
X10323482Y-14421167D01*
X10333006Y-14383071D01*
X10342530Y-14364024D01*
X10352054Y-14354500D01*
X10371101Y-14344976D01*
X10523482Y-14525928D02*
X10533006Y-14535452D01*
X10523482Y-14544976D01*
X10513958Y-14535452D01*
X10523482Y-14525928D01*
X10523482Y-14544976D01*
X10656815Y-14344976D02*
X10675863Y-14344976D01*
X10694911Y-14354500D01*
X10704435Y-14364024D01*
X10713958Y-14383071D01*
X10723482Y-14421167D01*
X10723482Y-14468786D01*
X10713958Y-14506881D01*
X10704435Y-14525928D01*
X10694911Y-14535452D01*
X10675863Y-14544976D01*
X10656815Y-14544976D01*
X10637768Y-14535452D01*
X10628244Y-14525928D01*
X10618720Y-14506881D01*
X10609196Y-14468786D01*
X10609196Y-14421167D01*
X10618720Y-14383071D01*
X10628244Y-14364024D01*
X10637768Y-14354500D01*
X10656815Y-14344976D01*
X10894911Y-14411643D02*
X10894911Y-14544976D01*
X10847292Y-14335452D02*
X10799673Y-14478309D01*
X10923482Y-14478309D01*
X11037768Y-14344976D02*
X11056815Y-14344976D01*
X11075863Y-14354500D01*
X11085387Y-14364024D01*
X11094911Y-14383071D01*
X11104435Y-14421167D01*
X11104435Y-14468786D01*
X11094911Y-14506881D01*
X11085387Y-14525928D01*
X11075863Y-14535452D01*
X11056815Y-14544976D01*
X11037768Y-14544976D01*
X11018720Y-14535452D01*
X11009196Y-14525928D01*
X10999673Y-14506881D01*
X10990149Y-14468786D01*
X10990149Y-14421167D01*
X10999673Y-14383071D01*
X11009196Y-14364024D01*
X11018720Y-14354500D01*
X11037768Y-14344976D01*
X11199673Y-14544976D02*
X11237768Y-14544976D01*
X11256815Y-14535452D01*
X11266339Y-14525928D01*
X11285387Y-14497357D01*
X11294911Y-14459262D01*
X11294911Y-14383071D01*
X11285387Y-14364024D01*
X11275863Y-14354500D01*
X11256815Y-14344976D01*
X11218720Y-14344976D01*
X11199673Y-14354500D01*
X11190149Y-14364024D01*
X11180625Y-14383071D01*
X11180625Y-14430690D01*
X11190149Y-14449738D01*
X11199673Y-14459262D01*
X11218720Y-14468786D01*
X11256815Y-14468786D01*
X11275863Y-14459262D01*
X11285387Y-14449738D01*
X11294911Y-14430690D01*
X11371101Y-14344976D02*
X11371101Y-14383071D01*
X11447292Y-14344976D02*
X11447292Y-14383071D01*
X11742530Y-14621167D02*
X11733006Y-14611643D01*
X11713958Y-14583071D01*
X11704434Y-14564024D01*
X11694911Y-14535452D01*
X11685387Y-14487833D01*
X11685387Y-14449738D01*
X11694911Y-14402119D01*
X11704434Y-14373548D01*
X11713958Y-14354500D01*
X11733006Y-14325928D01*
X11742530Y-14316405D01*
X11809196Y-14364024D02*
X11818720Y-14354500D01*
X11837768Y-14344976D01*
X11885387Y-14344976D01*
X11904434Y-14354500D01*
X11913958Y-14364024D01*
X11923482Y-14383071D01*
X11923482Y-14402119D01*
X11913958Y-14430690D01*
X11799673Y-14544976D01*
X11923482Y-14544976D01*
X12047292Y-14344976D02*
X12066339Y-14344976D01*
X12085387Y-14354500D01*
X12094911Y-14364024D01*
X12104434Y-14383071D01*
X12113958Y-14421167D01*
X12113958Y-14468786D01*
X12104434Y-14506881D01*
X12094911Y-14525928D01*
X12085387Y-14535452D01*
X12066339Y-14544976D01*
X12047292Y-14544976D01*
X12028244Y-14535452D01*
X12018720Y-14525928D01*
X12009196Y-14506881D01*
X11999673Y-14468786D01*
X11999673Y-14421167D01*
X12009196Y-14383071D01*
X12018720Y-14364024D01*
X12028244Y-14354500D01*
X12047292Y-14344976D01*
X12352053Y-14544976D02*
X12352053Y-14344976D01*
X12437768Y-14544976D02*
X12437768Y-14440214D01*
X12428244Y-14421167D01*
X12409196Y-14411643D01*
X12380625Y-14411643D01*
X12361577Y-14421167D01*
X12352053Y-14430690D01*
X12561577Y-14544976D02*
X12542530Y-14535452D01*
X12533006Y-14525928D01*
X12523482Y-14506881D01*
X12523482Y-14449738D01*
X12533006Y-14430690D01*
X12542530Y-14421167D01*
X12561577Y-14411643D01*
X12590149Y-14411643D01*
X12609196Y-14421167D01*
X12618720Y-14430690D01*
X12628244Y-14449738D01*
X12628244Y-14506881D01*
X12618720Y-14525928D01*
X12609196Y-14535452D01*
X12590149Y-14544976D01*
X12561577Y-14544976D01*
X12742530Y-14544976D02*
X12723482Y-14535452D01*
X12713958Y-14516405D01*
X12713958Y-14344976D01*
X12894911Y-14535452D02*
X12875863Y-14544976D01*
X12837768Y-14544976D01*
X12818720Y-14535452D01*
X12809196Y-14516405D01*
X12809196Y-14440214D01*
X12818720Y-14421167D01*
X12837768Y-14411643D01*
X12875863Y-14411643D01*
X12894911Y-14421167D01*
X12904434Y-14440214D01*
X12904434Y-14459262D01*
X12809196Y-14478309D01*
X12980625Y-14535452D02*
X12999673Y-14544976D01*
X13037768Y-14544976D01*
X13056815Y-14535452D01*
X13066339Y-14516405D01*
X13066339Y-14506881D01*
X13056815Y-14487833D01*
X13037768Y-14478309D01*
X13009196Y-14478309D01*
X12990149Y-14468786D01*
X12980625Y-14449738D01*
X12980625Y-14440214D01*
X12990149Y-14421167D01*
X13009196Y-14411643D01*
X13037768Y-14411643D01*
X13056815Y-14421167D01*
X13133006Y-14621167D02*
X13142530Y-14611643D01*
X13161577Y-14583071D01*
X13171101Y-14564024D01*
X13180625Y-14535452D01*
X13190149Y-14487833D01*
X13190149Y-14449738D01*
X13180625Y-14402119D01*
X13171101Y-14373548D01*
X13161577Y-14354500D01*
X13142530Y-14325928D01*
X13133006Y-14316405D01*
D15*
X8115625Y-14773500D02*
X8170625Y-14718500D01*
X8115625Y-14663500D01*
X8060625Y-14718500D01*
X8115625Y-14773500D01*
D11*
X8533006Y-14808976D02*
X8418720Y-14808976D01*
X8475863Y-14808976D02*
X8475863Y-14608976D01*
X8456815Y-14637548D01*
X8437768Y-14656595D01*
X8418720Y-14666119D01*
X8618720Y-14789928D02*
X8628244Y-14799452D01*
X8618720Y-14808976D01*
X8609196Y-14799452D01*
X8618720Y-14789928D01*
X8618720Y-14808976D01*
X8818720Y-14808976D02*
X8704435Y-14808976D01*
X8761577Y-14808976D02*
X8761577Y-14608976D01*
X8742530Y-14637548D01*
X8723482Y-14656595D01*
X8704435Y-14666119D01*
X8942530Y-14608976D02*
X8961577Y-14608976D01*
X8980625Y-14618500D01*
X8990149Y-14628024D01*
X8999673Y-14647071D01*
X9009196Y-14685167D01*
X9009196Y-14732786D01*
X8999673Y-14770881D01*
X8990149Y-14789928D01*
X8980625Y-14799452D01*
X8961577Y-14808976D01*
X8942530Y-14808976D01*
X8923482Y-14799452D01*
X8913958Y-14789928D01*
X8904435Y-14770881D01*
X8894911Y-14732786D01*
X8894911Y-14685167D01*
X8904435Y-14647071D01*
X8913958Y-14628024D01*
X8923482Y-14618500D01*
X8942530Y-14608976D01*
X9133006Y-14608976D02*
X9152054Y-14608976D01*
X9171101Y-14618500D01*
X9180625Y-14628024D01*
X9190149Y-14647071D01*
X9199673Y-14685167D01*
X9199673Y-14732786D01*
X9190149Y-14770881D01*
X9180625Y-14789928D01*
X9171101Y-14799452D01*
X9152054Y-14808976D01*
X9133006Y-14808976D01*
X9113958Y-14799452D01*
X9104435Y-14789928D01*
X9094911Y-14770881D01*
X9085387Y-14732786D01*
X9085387Y-14685167D01*
X9094911Y-14647071D01*
X9104435Y-14628024D01*
X9113958Y-14618500D01*
X9133006Y-14608976D01*
X9285387Y-14808976D02*
X9285387Y-14675643D01*
X9285387Y-14694690D02*
X9294911Y-14685167D01*
X9313958Y-14675643D01*
X9342530Y-14675643D01*
X9361577Y-14685167D01*
X9371101Y-14704214D01*
X9371101Y-14808976D01*
X9371101Y-14704214D02*
X9380625Y-14685167D01*
X9399673Y-14675643D01*
X9428244Y-14675643D01*
X9447292Y-14685167D01*
X9456815Y-14704214D01*
X9456815Y-14808976D01*
X9552054Y-14808976D02*
X9552054Y-14675643D01*
X9552054Y-14694690D02*
X9561577Y-14685167D01*
X9580625Y-14675643D01*
X9609196Y-14675643D01*
X9628244Y-14685167D01*
X9637768Y-14704214D01*
X9637768Y-14808976D01*
X9637768Y-14704214D02*
X9647292Y-14685167D01*
X9666339Y-14675643D01*
X9694911Y-14675643D01*
X9713958Y-14685167D01*
X9723482Y-14704214D01*
X9723482Y-14808976D01*
X10113958Y-14599452D02*
X9942530Y-14856595D01*
X10371101Y-14608976D02*
X10390149Y-14608976D01*
X10409196Y-14618500D01*
X10418720Y-14628024D01*
X10428244Y-14647071D01*
X10437768Y-14685167D01*
X10437768Y-14732786D01*
X10428244Y-14770881D01*
X10418720Y-14789928D01*
X10409196Y-14799452D01*
X10390149Y-14808976D01*
X10371101Y-14808976D01*
X10352054Y-14799452D01*
X10342530Y-14789928D01*
X10333006Y-14770881D01*
X10323482Y-14732786D01*
X10323482Y-14685167D01*
X10333006Y-14647071D01*
X10342530Y-14628024D01*
X10352054Y-14618500D01*
X10371101Y-14608976D01*
X10523482Y-14789928D02*
X10533006Y-14799452D01*
X10523482Y-14808976D01*
X10513958Y-14799452D01*
X10523482Y-14789928D01*
X10523482Y-14808976D01*
X10656815Y-14608976D02*
X10675863Y-14608976D01*
X10694911Y-14618500D01*
X10704435Y-14628024D01*
X10713958Y-14647071D01*
X10723482Y-14685167D01*
X10723482Y-14732786D01*
X10713958Y-14770881D01*
X10704435Y-14789928D01*
X10694911Y-14799452D01*
X10675863Y-14808976D01*
X10656815Y-14808976D01*
X10637768Y-14799452D01*
X10628244Y-14789928D01*
X10618720Y-14770881D01*
X10609196Y-14732786D01*
X10609196Y-14685167D01*
X10618720Y-14647071D01*
X10628244Y-14628024D01*
X10637768Y-14618500D01*
X10656815Y-14608976D01*
X10894911Y-14675643D02*
X10894911Y-14808976D01*
X10847292Y-14599452D02*
X10799673Y-14742309D01*
X10923482Y-14742309D01*
X10980625Y-14608976D02*
X11104435Y-14608976D01*
X11037768Y-14685167D01*
X11066339Y-14685167D01*
X11085387Y-14694690D01*
X11094911Y-14704214D01*
X11104435Y-14723262D01*
X11104435Y-14770881D01*
X11094911Y-14789928D01*
X11085387Y-14799452D01*
X11066339Y-14808976D01*
X11009196Y-14808976D01*
X10990149Y-14799452D01*
X10980625Y-14789928D01*
X11171101Y-14608976D02*
X11294911Y-14608976D01*
X11228244Y-14685167D01*
X11256815Y-14685167D01*
X11275863Y-14694690D01*
X11285387Y-14704214D01*
X11294911Y-14723262D01*
X11294911Y-14770881D01*
X11285387Y-14789928D01*
X11275863Y-14799452D01*
X11256815Y-14808976D01*
X11199673Y-14808976D01*
X11180625Y-14799452D01*
X11171101Y-14789928D01*
X11371101Y-14608976D02*
X11371101Y-14647071D01*
X11447292Y-14608976D02*
X11447292Y-14647071D01*
X11742530Y-14885167D02*
X11733006Y-14875643D01*
X11713958Y-14847071D01*
X11704434Y-14828024D01*
X11694911Y-14799452D01*
X11685387Y-14751833D01*
X11685387Y-14713738D01*
X11694911Y-14666119D01*
X11704434Y-14637548D01*
X11713958Y-14618500D01*
X11733006Y-14589928D01*
X11742530Y-14580405D01*
X11847292Y-14694690D02*
X11828244Y-14685167D01*
X11818720Y-14675643D01*
X11809196Y-14656595D01*
X11809196Y-14647071D01*
X11818720Y-14628024D01*
X11828244Y-14618500D01*
X11847292Y-14608976D01*
X11885387Y-14608976D01*
X11904434Y-14618500D01*
X11913958Y-14628024D01*
X11923482Y-14647071D01*
X11923482Y-14656595D01*
X11913958Y-14675643D01*
X11904434Y-14685167D01*
X11885387Y-14694690D01*
X11847292Y-14694690D01*
X11828244Y-14704214D01*
X11818720Y-14713738D01*
X11809196Y-14732786D01*
X11809196Y-14770881D01*
X11818720Y-14789928D01*
X11828244Y-14799452D01*
X11847292Y-14808976D01*
X11885387Y-14808976D01*
X11904434Y-14799452D01*
X11913958Y-14789928D01*
X11923482Y-14770881D01*
X11923482Y-14732786D01*
X11913958Y-14713738D01*
X11904434Y-14704214D01*
X11885387Y-14694690D01*
X12161577Y-14808976D02*
X12161577Y-14608976D01*
X12247292Y-14808976D02*
X12247292Y-14704214D01*
X12237768Y-14685167D01*
X12218720Y-14675643D01*
X12190149Y-14675643D01*
X12171101Y-14685167D01*
X12161577Y-14694690D01*
X12371101Y-14808976D02*
X12352053Y-14799452D01*
X12342530Y-14789928D01*
X12333006Y-14770881D01*
X12333006Y-14713738D01*
X12342530Y-14694690D01*
X12352053Y-14685167D01*
X12371101Y-14675643D01*
X12399673Y-14675643D01*
X12418720Y-14685167D01*
X12428244Y-14694690D01*
X12437768Y-14713738D01*
X12437768Y-14770881D01*
X12428244Y-14789928D01*
X12418720Y-14799452D01*
X12399673Y-14808976D01*
X12371101Y-14808976D01*
X12552053Y-14808976D02*
X12533006Y-14799452D01*
X12523482Y-14780405D01*
X12523482Y-14608976D01*
X12704434Y-14799452D02*
X12685387Y-14808976D01*
X12647292Y-14808976D01*
X12628244Y-14799452D01*
X12618720Y-14780405D01*
X12618720Y-14704214D01*
X12628244Y-14685167D01*
X12647292Y-14675643D01*
X12685387Y-14675643D01*
X12704434Y-14685167D01*
X12713958Y-14704214D01*
X12713958Y-14723262D01*
X12618720Y-14742309D01*
X12790149Y-14799452D02*
X12809196Y-14808976D01*
X12847292Y-14808976D01*
X12866339Y-14799452D01*
X12875863Y-14780405D01*
X12875863Y-14770881D01*
X12866339Y-14751833D01*
X12847292Y-14742309D01*
X12818720Y-14742309D01*
X12799673Y-14732786D01*
X12790149Y-14713738D01*
X12790149Y-14704214D01*
X12799673Y-14685167D01*
X12818720Y-14675643D01*
X12847292Y-14675643D01*
X12866339Y-14685167D01*
X12942530Y-14885167D02*
X12952053Y-14875643D01*
X12971101Y-14847071D01*
X12980625Y-14828024D01*
X12990149Y-14799452D01*
X12999673Y-14751833D01*
X12999673Y-14713738D01*
X12990149Y-14666119D01*
X12980625Y-14637548D01*
X12971101Y-14618500D01*
X12952053Y-14589928D01*
X12942530Y-14580405D01*
D16*
X8023625Y-14909000D02*
X8170625Y-15056000D01*
X8170625Y-14909000D02*
X8023625Y-15056000D01*
X8170625Y-14982500D02*
G75*
G03*
X8170625Y-14982500I-73500J0D01*
G01*
D11*
X8533006Y-15072976D02*
X8418720Y-15072976D01*
X8475863Y-15072976D02*
X8475863Y-14872976D01*
X8456815Y-14901548D01*
X8437768Y-14920595D01*
X8418720Y-14930119D01*
X8618720Y-15053928D02*
X8628244Y-15063452D01*
X8618720Y-15072976D01*
X8609196Y-15063452D01*
X8618720Y-15053928D01*
X8618720Y-15072976D01*
X8799673Y-14939643D02*
X8799673Y-15072976D01*
X8752054Y-14863452D02*
X8704435Y-15006309D01*
X8828244Y-15006309D01*
X8885387Y-14872976D02*
X9018720Y-14872976D01*
X8933006Y-15072976D01*
X9133006Y-14872976D02*
X9152054Y-14872976D01*
X9171101Y-14882500D01*
X9180625Y-14892024D01*
X9190149Y-14911071D01*
X9199673Y-14949167D01*
X9199673Y-14996786D01*
X9190149Y-15034881D01*
X9180625Y-15053928D01*
X9171101Y-15063452D01*
X9152054Y-15072976D01*
X9133006Y-15072976D01*
X9113958Y-15063452D01*
X9104435Y-15053928D01*
X9094911Y-15034881D01*
X9085387Y-14996786D01*
X9085387Y-14949167D01*
X9094911Y-14911071D01*
X9104435Y-14892024D01*
X9113958Y-14882500D01*
X9133006Y-14872976D01*
X9285387Y-15072976D02*
X9285387Y-14939643D01*
X9285387Y-14958690D02*
X9294911Y-14949167D01*
X9313958Y-14939643D01*
X9342530Y-14939643D01*
X9361577Y-14949167D01*
X9371101Y-14968214D01*
X9371101Y-15072976D01*
X9371101Y-14968214D02*
X9380625Y-14949167D01*
X9399673Y-14939643D01*
X9428244Y-14939643D01*
X9447292Y-14949167D01*
X9456815Y-14968214D01*
X9456815Y-15072976D01*
X9552054Y-15072976D02*
X9552054Y-14939643D01*
X9552054Y-14958690D02*
X9561577Y-14949167D01*
X9580625Y-14939643D01*
X9609196Y-14939643D01*
X9628244Y-14949167D01*
X9637768Y-14968214D01*
X9637768Y-15072976D01*
X9637768Y-14968214D02*
X9647292Y-14949167D01*
X9666339Y-14939643D01*
X9694911Y-14939643D01*
X9713958Y-14949167D01*
X9723482Y-14968214D01*
X9723482Y-15072976D01*
X10113958Y-14863452D02*
X9942530Y-15120595D01*
X10371101Y-14872976D02*
X10390149Y-14872976D01*
X10409196Y-14882500D01*
X10418720Y-14892024D01*
X10428244Y-14911071D01*
X10437768Y-14949167D01*
X10437768Y-14996786D01*
X10428244Y-15034881D01*
X10418720Y-15053928D01*
X10409196Y-15063452D01*
X10390149Y-15072976D01*
X10371101Y-15072976D01*
X10352054Y-15063452D01*
X10342530Y-15053928D01*
X10333006Y-15034881D01*
X10323482Y-14996786D01*
X10323482Y-14949167D01*
X10333006Y-14911071D01*
X10342530Y-14892024D01*
X10352054Y-14882500D01*
X10371101Y-14872976D01*
X10523482Y-15053928D02*
X10533006Y-15063452D01*
X10523482Y-15072976D01*
X10513958Y-15063452D01*
X10523482Y-15053928D01*
X10523482Y-15072976D01*
X10656815Y-14872976D02*
X10675863Y-14872976D01*
X10694911Y-14882500D01*
X10704435Y-14892024D01*
X10713958Y-14911071D01*
X10723482Y-14949167D01*
X10723482Y-14996786D01*
X10713958Y-15034881D01*
X10704435Y-15053928D01*
X10694911Y-15063452D01*
X10675863Y-15072976D01*
X10656815Y-15072976D01*
X10637768Y-15063452D01*
X10628244Y-15053928D01*
X10618720Y-15034881D01*
X10609196Y-14996786D01*
X10609196Y-14949167D01*
X10618720Y-14911071D01*
X10628244Y-14892024D01*
X10637768Y-14882500D01*
X10656815Y-14872976D01*
X10904435Y-14872976D02*
X10809196Y-14872976D01*
X10799673Y-14968214D01*
X10809196Y-14958690D01*
X10828244Y-14949167D01*
X10875863Y-14949167D01*
X10894911Y-14958690D01*
X10904435Y-14968214D01*
X10913958Y-14987262D01*
X10913958Y-15034881D01*
X10904435Y-15053928D01*
X10894911Y-15063452D01*
X10875863Y-15072976D01*
X10828244Y-15072976D01*
X10809196Y-15063452D01*
X10799673Y-15053928D01*
X10980625Y-14872976D02*
X11113958Y-14872976D01*
X11028244Y-15072976D01*
X11199673Y-15072976D02*
X11237768Y-15072976D01*
X11256815Y-15063452D01*
X11266339Y-15053928D01*
X11285387Y-15025357D01*
X11294911Y-14987262D01*
X11294911Y-14911071D01*
X11285387Y-14892024D01*
X11275863Y-14882500D01*
X11256815Y-14872976D01*
X11218720Y-14872976D01*
X11199673Y-14882500D01*
X11190149Y-14892024D01*
X11180625Y-14911071D01*
X11180625Y-14958690D01*
X11190149Y-14977738D01*
X11199673Y-14987262D01*
X11218720Y-14996786D01*
X11256815Y-14996786D01*
X11275863Y-14987262D01*
X11285387Y-14977738D01*
X11294911Y-14958690D01*
X11371101Y-14872976D02*
X11371101Y-14911071D01*
X11447292Y-14872976D02*
X11447292Y-14911071D01*
X11742530Y-15149167D02*
X11733006Y-15139643D01*
X11713958Y-15111071D01*
X11704434Y-15092024D01*
X11694911Y-15063452D01*
X11685387Y-15015833D01*
X11685387Y-14977738D01*
X11694911Y-14930119D01*
X11704434Y-14901548D01*
X11713958Y-14882500D01*
X11733006Y-14853928D01*
X11742530Y-14844405D01*
X11809196Y-14892024D02*
X11818720Y-14882500D01*
X11837768Y-14872976D01*
X11885387Y-14872976D01*
X11904434Y-14882500D01*
X11913958Y-14892024D01*
X11923482Y-14911071D01*
X11923482Y-14930119D01*
X11913958Y-14958690D01*
X11799673Y-15072976D01*
X11923482Y-15072976D01*
X12047292Y-14872976D02*
X12066339Y-14872976D01*
X12085387Y-14882500D01*
X12094911Y-14892024D01*
X12104434Y-14911071D01*
X12113958Y-14949167D01*
X12113958Y-14996786D01*
X12104434Y-15034881D01*
X12094911Y-15053928D01*
X12085387Y-15063452D01*
X12066339Y-15072976D01*
X12047292Y-15072976D01*
X12028244Y-15063452D01*
X12018720Y-15053928D01*
X12009196Y-15034881D01*
X11999673Y-14996786D01*
X11999673Y-14949167D01*
X12009196Y-14911071D01*
X12018720Y-14892024D01*
X12028244Y-14882500D01*
X12047292Y-14872976D01*
X12352053Y-15072976D02*
X12352053Y-14872976D01*
X12437768Y-15072976D02*
X12437768Y-14968214D01*
X12428244Y-14949167D01*
X12409196Y-14939643D01*
X12380625Y-14939643D01*
X12361577Y-14949167D01*
X12352053Y-14958690D01*
X12561577Y-15072976D02*
X12542530Y-15063452D01*
X12533006Y-15053928D01*
X12523482Y-15034881D01*
X12523482Y-14977738D01*
X12533006Y-14958690D01*
X12542530Y-14949167D01*
X12561577Y-14939643D01*
X12590149Y-14939643D01*
X12609196Y-14949167D01*
X12618720Y-14958690D01*
X12628244Y-14977738D01*
X12628244Y-15034881D01*
X12618720Y-15053928D01*
X12609196Y-15063452D01*
X12590149Y-15072976D01*
X12561577Y-15072976D01*
X12742530Y-15072976D02*
X12723482Y-15063452D01*
X12713958Y-15044405D01*
X12713958Y-14872976D01*
X12894911Y-15063452D02*
X12875863Y-15072976D01*
X12837768Y-15072976D01*
X12818720Y-15063452D01*
X12809196Y-15044405D01*
X12809196Y-14968214D01*
X12818720Y-14949167D01*
X12837768Y-14939643D01*
X12875863Y-14939643D01*
X12894911Y-14949167D01*
X12904434Y-14968214D01*
X12904434Y-14987262D01*
X12809196Y-15006309D01*
X12980625Y-15063452D02*
X12999673Y-15072976D01*
X13037768Y-15072976D01*
X13056815Y-15063452D01*
X13066339Y-15044405D01*
X13066339Y-15034881D01*
X13056815Y-15015833D01*
X13037768Y-15006309D01*
X13009196Y-15006309D01*
X12990149Y-14996786D01*
X12980625Y-14977738D01*
X12980625Y-14968214D01*
X12990149Y-14949167D01*
X13009196Y-14939643D01*
X13037768Y-14939643D01*
X13056815Y-14949167D01*
X13133006Y-15149167D02*
X13142530Y-15139643D01*
X13161577Y-15111071D01*
X13171101Y-15092024D01*
X13180625Y-15063452D01*
X13190149Y-15015833D01*
X13190149Y-14977738D01*
X13180625Y-14930119D01*
X13171101Y-14901548D01*
X13161577Y-14882500D01*
X13142530Y-14853928D01*
X13133006Y-14844405D01*
M02*
