%TF.GenerationSoftware,KiCad,Pcbnew,(6.0.8)*%
%TF.CreationDate,2022-10-17T13:18:43-06:00*%
%TF.ProjectId,pcb,7063622e-6b69-4636-9164-5f7063625858,rev?*%
%TF.SameCoordinates,Original*%
%TF.FileFunction,Drillmap*%
%TF.FilePolarity,Positive*%
%FSLAX45Y45*%
G04 Gerber Fmt 4.5, Leading zero omitted, Abs format (unit mm)*
G04 Created by KiCad (PCBNEW (6.0.8)) date 2022-10-17 13:18:43*
%MOMM*%
%LPD*%
G01*
G04 APERTURE LIST*
%ADD10C,0.100000*%
%ADD11C,0.200000*%
%ADD12C,0.150000*%
%ADD13C,0.175000*%
%ADD14C,0.180000*%
%ADD15C,0.398780*%
G04 APERTURE END LIST*
D10*
X8413750Y-5953125D02*
X20002500Y-5953125D01*
X8175625Y-12779375D02*
X8175625Y-6191250D01*
X8413750Y-5953125D02*
G75*
G03*
X8175625Y-6191250I0J-238125D01*
G01*
X20240625Y-6191250D02*
G75*
G03*
X20002500Y-5953125I-238125J0D01*
G01*
X20002500Y-13017500D02*
X8413750Y-13017500D01*
X8175620Y-12779375D02*
G75*
G03*
X8413750Y-13017500I238130J5D01*
G01*
X20240625Y-6191250D02*
X20240625Y-12779375D01*
X20002500Y-13017495D02*
G75*
G03*
X20240625Y-12779375I0J238125D01*
G01*
D11*
D12*
X16979275Y-6381300D02*
X17129275Y-6531300D01*
X17129275Y-6381300D02*
X16979275Y-6531300D01*
X17464275Y-6381300D02*
X17614275Y-6531300D01*
X17614275Y-6381300D02*
X17464275Y-6531300D01*
D13*
X8780025Y-7620000D02*
G75*
G03*
X8780025Y-7620000I-87500J0D01*
G01*
X8780025Y-11430000D02*
G75*
G03*
X8780025Y-11430000I-87500J0D01*
G01*
X9796025Y-7620000D02*
G75*
G03*
X9796025Y-7620000I-87500J0D01*
G01*
X9796025Y-11430000D02*
G75*
G03*
X9796025Y-11430000I-87500J0D01*
G01*
X10685025Y-9525000D02*
G75*
G03*
X10685025Y-9525000I-87500J0D01*
G01*
X11701025Y-9525000D02*
G75*
G03*
X11701025Y-9525000I-87500J0D01*
G01*
X12590025Y-7620000D02*
G75*
G03*
X12590025Y-7620000I-87500J0D01*
G01*
X12597000Y-11430000D02*
G75*
G03*
X12597000Y-11430000I-87500J0D01*
G01*
X13606025Y-7620000D02*
G75*
G03*
X13606025Y-7620000I-87500J0D01*
G01*
X13613000Y-11430000D02*
G75*
G03*
X13613000Y-11430000I-87500J0D01*
G01*
X14978250Y-7620000D02*
G75*
G03*
X14978250Y-7620000I-87500J0D01*
G01*
X14978250Y-11430000D02*
G75*
G03*
X14978250Y-11430000I-87500J0D01*
G01*
X15994250Y-7620000D02*
G75*
G03*
X15994250Y-7620000I-87500J0D01*
G01*
X15994250Y-11430000D02*
G75*
G03*
X15994250Y-11430000I-87500J0D01*
G01*
X16883250Y-9525000D02*
G75*
G03*
X16883250Y-9525000I-87500J0D01*
G01*
X17899250Y-9525000D02*
G75*
G03*
X17899250Y-9525000I-87500J0D01*
G01*
X18788250Y-7620000D02*
G75*
G03*
X18788250Y-7620000I-87500J0D01*
G01*
X18788250Y-11430000D02*
G75*
G03*
X18788250Y-11430000I-87500J0D01*
G01*
X19804250Y-7620000D02*
G75*
G03*
X19804250Y-7620000I-87500J0D01*
G01*
X19804250Y-11430000D02*
G75*
G03*
X19804250Y-11430000I-87500J0D01*
G01*
D14*
X17024275Y-6063300D02*
X17024275Y-6243300D01*
X16934275Y-6153300D02*
X17114275Y-6153300D01*
X17569275Y-6063300D02*
X17569275Y-6243300D01*
X17479275Y-6153300D02*
X17659275Y-6153300D01*
D15*
X9341516Y-7760991D02*
X9341516Y-7479009D01*
X9059534Y-7479009D01*
X9059534Y-7760991D01*
X9341516Y-7760991D01*
X9341516Y-11570991D02*
X9341516Y-11289009D01*
X9059534Y-11289009D01*
X9059534Y-11570991D01*
X9341516Y-11570991D01*
X11246516Y-9665991D02*
X11246516Y-9384009D01*
X10964534Y-9384009D01*
X10964534Y-9665991D01*
X11246516Y-9665991D01*
X13151516Y-7760991D02*
X13151516Y-7479009D01*
X12869534Y-7479009D01*
X12869534Y-7760991D01*
X13151516Y-7760991D01*
X13158491Y-11570991D02*
X13158491Y-11289009D01*
X12876509Y-11289009D01*
X12876509Y-11570991D01*
X13158491Y-11570991D01*
X15539741Y-7760991D02*
X15539741Y-7479009D01*
X15257759Y-7479009D01*
X15257759Y-7760991D01*
X15539741Y-7760991D01*
X15539741Y-11570991D02*
X15539741Y-11289009D01*
X15257759Y-11289009D01*
X15257759Y-11570991D01*
X15539741Y-11570991D01*
X17444741Y-9665991D02*
X17444741Y-9384009D01*
X17162759Y-9384009D01*
X17162759Y-9665991D01*
X17444741Y-9665991D01*
X19349741Y-7760991D02*
X19349741Y-7479009D01*
X19067759Y-7479009D01*
X19067759Y-7760991D01*
X19349741Y-7760991D01*
X19349741Y-11570991D02*
X19349741Y-11289009D01*
X19067759Y-11289009D01*
X19067759Y-11570991D01*
X19349741Y-11570991D01*
D11*
X8428244Y-13332976D02*
X8428244Y-13132976D01*
X8475863Y-13132976D01*
X8504435Y-13142500D01*
X8523482Y-13161548D01*
X8533006Y-13180595D01*
X8542530Y-13218690D01*
X8542530Y-13247262D01*
X8533006Y-13285357D01*
X8523482Y-13304405D01*
X8504435Y-13323452D01*
X8475863Y-13332976D01*
X8428244Y-13332976D01*
X8628244Y-13332976D02*
X8628244Y-13199643D01*
X8628244Y-13237738D02*
X8637768Y-13218690D01*
X8647292Y-13209167D01*
X8666339Y-13199643D01*
X8685387Y-13199643D01*
X8752054Y-13332976D02*
X8752054Y-13199643D01*
X8752054Y-13132976D02*
X8742530Y-13142500D01*
X8752054Y-13152024D01*
X8761577Y-13142500D01*
X8752054Y-13132976D01*
X8752054Y-13152024D01*
X8875863Y-13332976D02*
X8856815Y-13323452D01*
X8847292Y-13304405D01*
X8847292Y-13132976D01*
X8980625Y-13332976D02*
X8961577Y-13323452D01*
X8952054Y-13304405D01*
X8952054Y-13132976D01*
X9209196Y-13332976D02*
X9209196Y-13132976D01*
X9275863Y-13275833D01*
X9342530Y-13132976D01*
X9342530Y-13332976D01*
X9523482Y-13332976D02*
X9523482Y-13228214D01*
X9513958Y-13209167D01*
X9494911Y-13199643D01*
X9456815Y-13199643D01*
X9437768Y-13209167D01*
X9523482Y-13323452D02*
X9504435Y-13332976D01*
X9456815Y-13332976D01*
X9437768Y-13323452D01*
X9428244Y-13304405D01*
X9428244Y-13285357D01*
X9437768Y-13266309D01*
X9456815Y-13256786D01*
X9504435Y-13256786D01*
X9523482Y-13247262D01*
X9618720Y-13199643D02*
X9618720Y-13399643D01*
X9618720Y-13209167D02*
X9637768Y-13199643D01*
X9675863Y-13199643D01*
X9694911Y-13209167D01*
X9704435Y-13218690D01*
X9713958Y-13237738D01*
X9713958Y-13294881D01*
X9704435Y-13313928D01*
X9694911Y-13323452D01*
X9675863Y-13332976D01*
X9637768Y-13332976D01*
X9618720Y-13323452D01*
X9799673Y-13313928D02*
X9809196Y-13323452D01*
X9799673Y-13332976D01*
X9790149Y-13323452D01*
X9799673Y-13313928D01*
X9799673Y-13332976D01*
X9799673Y-13209167D02*
X9809196Y-13218690D01*
X9799673Y-13228214D01*
X9790149Y-13218690D01*
X9799673Y-13209167D01*
X9799673Y-13228214D01*
D12*
X8020625Y-13587500D02*
X8170625Y-13737500D01*
X8170625Y-13587500D02*
X8020625Y-13737500D01*
D11*
X8533006Y-13752976D02*
X8418720Y-13752976D01*
X8475863Y-13752976D02*
X8475863Y-13552976D01*
X8456815Y-13581548D01*
X8437768Y-13600595D01*
X8418720Y-13610119D01*
X8618720Y-13733928D02*
X8628244Y-13743452D01*
X8618720Y-13752976D01*
X8609196Y-13743452D01*
X8618720Y-13733928D01*
X8618720Y-13752976D01*
X8809196Y-13552976D02*
X8713958Y-13552976D01*
X8704435Y-13648214D01*
X8713958Y-13638690D01*
X8733006Y-13629167D01*
X8780625Y-13629167D01*
X8799673Y-13638690D01*
X8809196Y-13648214D01*
X8818720Y-13667262D01*
X8818720Y-13714881D01*
X8809196Y-13733928D01*
X8799673Y-13743452D01*
X8780625Y-13752976D01*
X8733006Y-13752976D01*
X8713958Y-13743452D01*
X8704435Y-13733928D01*
X8942530Y-13552976D02*
X8961577Y-13552976D01*
X8980625Y-13562500D01*
X8990149Y-13572024D01*
X8999673Y-13591071D01*
X9009196Y-13629167D01*
X9009196Y-13676786D01*
X8999673Y-13714881D01*
X8990149Y-13733928D01*
X8980625Y-13743452D01*
X8961577Y-13752976D01*
X8942530Y-13752976D01*
X8923482Y-13743452D01*
X8913958Y-13733928D01*
X8904435Y-13714881D01*
X8894911Y-13676786D01*
X8894911Y-13629167D01*
X8904435Y-13591071D01*
X8913958Y-13572024D01*
X8923482Y-13562500D01*
X8942530Y-13552976D01*
X9133006Y-13552976D02*
X9152054Y-13552976D01*
X9171101Y-13562500D01*
X9180625Y-13572024D01*
X9190149Y-13591071D01*
X9199673Y-13629167D01*
X9199673Y-13676786D01*
X9190149Y-13714881D01*
X9180625Y-13733928D01*
X9171101Y-13743452D01*
X9152054Y-13752976D01*
X9133006Y-13752976D01*
X9113958Y-13743452D01*
X9104435Y-13733928D01*
X9094911Y-13714881D01*
X9085387Y-13676786D01*
X9085387Y-13629167D01*
X9094911Y-13591071D01*
X9104435Y-13572024D01*
X9113958Y-13562500D01*
X9133006Y-13552976D01*
X9285387Y-13752976D02*
X9285387Y-13619643D01*
X9285387Y-13638690D02*
X9294911Y-13629167D01*
X9313958Y-13619643D01*
X9342530Y-13619643D01*
X9361577Y-13629167D01*
X9371101Y-13648214D01*
X9371101Y-13752976D01*
X9371101Y-13648214D02*
X9380625Y-13629167D01*
X9399673Y-13619643D01*
X9428244Y-13619643D01*
X9447292Y-13629167D01*
X9456815Y-13648214D01*
X9456815Y-13752976D01*
X9552054Y-13752976D02*
X9552054Y-13619643D01*
X9552054Y-13638690D02*
X9561577Y-13629167D01*
X9580625Y-13619643D01*
X9609196Y-13619643D01*
X9628244Y-13629167D01*
X9637768Y-13648214D01*
X9637768Y-13752976D01*
X9637768Y-13648214D02*
X9647292Y-13629167D01*
X9666339Y-13619643D01*
X9694911Y-13619643D01*
X9713958Y-13629167D01*
X9723482Y-13648214D01*
X9723482Y-13752976D01*
X10113958Y-13543452D02*
X9942530Y-13800595D01*
X10371101Y-13552976D02*
X10390149Y-13552976D01*
X10409196Y-13562500D01*
X10418720Y-13572024D01*
X10428244Y-13591071D01*
X10437768Y-13629167D01*
X10437768Y-13676786D01*
X10428244Y-13714881D01*
X10418720Y-13733928D01*
X10409196Y-13743452D01*
X10390149Y-13752976D01*
X10371101Y-13752976D01*
X10352054Y-13743452D01*
X10342530Y-13733928D01*
X10333006Y-13714881D01*
X10323482Y-13676786D01*
X10323482Y-13629167D01*
X10333006Y-13591071D01*
X10342530Y-13572024D01*
X10352054Y-13562500D01*
X10371101Y-13552976D01*
X10523482Y-13733928D02*
X10533006Y-13743452D01*
X10523482Y-13752976D01*
X10513958Y-13743452D01*
X10523482Y-13733928D01*
X10523482Y-13752976D01*
X10656815Y-13552976D02*
X10675863Y-13552976D01*
X10694911Y-13562500D01*
X10704435Y-13572024D01*
X10713958Y-13591071D01*
X10723482Y-13629167D01*
X10723482Y-13676786D01*
X10713958Y-13714881D01*
X10704435Y-13733928D01*
X10694911Y-13743452D01*
X10675863Y-13752976D01*
X10656815Y-13752976D01*
X10637768Y-13743452D01*
X10628244Y-13733928D01*
X10618720Y-13714881D01*
X10609196Y-13676786D01*
X10609196Y-13629167D01*
X10618720Y-13591071D01*
X10628244Y-13572024D01*
X10637768Y-13562500D01*
X10656815Y-13552976D01*
X10904435Y-13552976D02*
X10809196Y-13552976D01*
X10799673Y-13648214D01*
X10809196Y-13638690D01*
X10828244Y-13629167D01*
X10875863Y-13629167D01*
X10894911Y-13638690D01*
X10904435Y-13648214D01*
X10913958Y-13667262D01*
X10913958Y-13714881D01*
X10904435Y-13733928D01*
X10894911Y-13743452D01*
X10875863Y-13752976D01*
X10828244Y-13752976D01*
X10809196Y-13743452D01*
X10799673Y-13733928D01*
X11009196Y-13752976D02*
X11047292Y-13752976D01*
X11066339Y-13743452D01*
X11075863Y-13733928D01*
X11094911Y-13705357D01*
X11104435Y-13667262D01*
X11104435Y-13591071D01*
X11094911Y-13572024D01*
X11085387Y-13562500D01*
X11066339Y-13552976D01*
X11028244Y-13552976D01*
X11009196Y-13562500D01*
X10999673Y-13572024D01*
X10990149Y-13591071D01*
X10990149Y-13638690D01*
X10999673Y-13657738D01*
X11009196Y-13667262D01*
X11028244Y-13676786D01*
X11066339Y-13676786D01*
X11085387Y-13667262D01*
X11094911Y-13657738D01*
X11104435Y-13638690D01*
X11294911Y-13752976D02*
X11180625Y-13752976D01*
X11237768Y-13752976D02*
X11237768Y-13552976D01*
X11218720Y-13581548D01*
X11199673Y-13600595D01*
X11180625Y-13610119D01*
X11371101Y-13552976D02*
X11371101Y-13591071D01*
X11447292Y-13552976D02*
X11447292Y-13591071D01*
X11742530Y-13829167D02*
X11733006Y-13819643D01*
X11713958Y-13791071D01*
X11704434Y-13772024D01*
X11694911Y-13743452D01*
X11685387Y-13695833D01*
X11685387Y-13657738D01*
X11694911Y-13610119D01*
X11704434Y-13581548D01*
X11713958Y-13562500D01*
X11733006Y-13533928D01*
X11742530Y-13524405D01*
X11809196Y-13572024D02*
X11818720Y-13562500D01*
X11837768Y-13552976D01*
X11885387Y-13552976D01*
X11904434Y-13562500D01*
X11913958Y-13572024D01*
X11923482Y-13591071D01*
X11923482Y-13610119D01*
X11913958Y-13638690D01*
X11799673Y-13752976D01*
X11923482Y-13752976D01*
X12161577Y-13752976D02*
X12161577Y-13552976D01*
X12247292Y-13752976D02*
X12247292Y-13648214D01*
X12237768Y-13629167D01*
X12218720Y-13619643D01*
X12190149Y-13619643D01*
X12171101Y-13629167D01*
X12161577Y-13638690D01*
X12371101Y-13752976D02*
X12352053Y-13743452D01*
X12342530Y-13733928D01*
X12333006Y-13714881D01*
X12333006Y-13657738D01*
X12342530Y-13638690D01*
X12352053Y-13629167D01*
X12371101Y-13619643D01*
X12399673Y-13619643D01*
X12418720Y-13629167D01*
X12428244Y-13638690D01*
X12437768Y-13657738D01*
X12437768Y-13714881D01*
X12428244Y-13733928D01*
X12418720Y-13743452D01*
X12399673Y-13752976D01*
X12371101Y-13752976D01*
X12552053Y-13752976D02*
X12533006Y-13743452D01*
X12523482Y-13724405D01*
X12523482Y-13552976D01*
X12704434Y-13743452D02*
X12685387Y-13752976D01*
X12647292Y-13752976D01*
X12628244Y-13743452D01*
X12618720Y-13724405D01*
X12618720Y-13648214D01*
X12628244Y-13629167D01*
X12647292Y-13619643D01*
X12685387Y-13619643D01*
X12704434Y-13629167D01*
X12713958Y-13648214D01*
X12713958Y-13667262D01*
X12618720Y-13686309D01*
X12790149Y-13743452D02*
X12809196Y-13752976D01*
X12847292Y-13752976D01*
X12866339Y-13743452D01*
X12875863Y-13724405D01*
X12875863Y-13714881D01*
X12866339Y-13695833D01*
X12847292Y-13686309D01*
X12818720Y-13686309D01*
X12799673Y-13676786D01*
X12790149Y-13657738D01*
X12790149Y-13648214D01*
X12799673Y-13629167D01*
X12818720Y-13619643D01*
X12847292Y-13619643D01*
X12866339Y-13629167D01*
X12942530Y-13829167D02*
X12952053Y-13819643D01*
X12971101Y-13791071D01*
X12980625Y-13772024D01*
X12990149Y-13743452D01*
X12999673Y-13695833D01*
X12999673Y-13657738D01*
X12990149Y-13610119D01*
X12980625Y-13581548D01*
X12971101Y-13562500D01*
X12952053Y-13533928D01*
X12942530Y-13524405D01*
X13304434Y-13829167D02*
X13294911Y-13819643D01*
X13275863Y-13791071D01*
X13266339Y-13772024D01*
X13256815Y-13743452D01*
X13247292Y-13695833D01*
X13247292Y-13657738D01*
X13256815Y-13610119D01*
X13266339Y-13581548D01*
X13275863Y-13562500D01*
X13294911Y-13533928D01*
X13304434Y-13524405D01*
X13380625Y-13619643D02*
X13380625Y-13752976D01*
X13380625Y-13638690D02*
X13390149Y-13629167D01*
X13409196Y-13619643D01*
X13437768Y-13619643D01*
X13456815Y-13629167D01*
X13466339Y-13648214D01*
X13466339Y-13752976D01*
X13590149Y-13752976D02*
X13571101Y-13743452D01*
X13561577Y-13733928D01*
X13552053Y-13714881D01*
X13552053Y-13657738D01*
X13561577Y-13638690D01*
X13571101Y-13629167D01*
X13590149Y-13619643D01*
X13618720Y-13619643D01*
X13637768Y-13629167D01*
X13647292Y-13638690D01*
X13656815Y-13657738D01*
X13656815Y-13714881D01*
X13647292Y-13733928D01*
X13637768Y-13743452D01*
X13618720Y-13752976D01*
X13590149Y-13752976D01*
X13713958Y-13619643D02*
X13790149Y-13619643D01*
X13742530Y-13552976D02*
X13742530Y-13724405D01*
X13752053Y-13743452D01*
X13771101Y-13752976D01*
X13790149Y-13752976D01*
X14009196Y-13619643D02*
X14009196Y-13819643D01*
X14009196Y-13629167D02*
X14028244Y-13619643D01*
X14066339Y-13619643D01*
X14085387Y-13629167D01*
X14094911Y-13638690D01*
X14104434Y-13657738D01*
X14104434Y-13714881D01*
X14094911Y-13733928D01*
X14085387Y-13743452D01*
X14066339Y-13752976D01*
X14028244Y-13752976D01*
X14009196Y-13743452D01*
X14218720Y-13752976D02*
X14199673Y-13743452D01*
X14190149Y-13724405D01*
X14190149Y-13552976D01*
X14380625Y-13752976D02*
X14380625Y-13648214D01*
X14371101Y-13629167D01*
X14352053Y-13619643D01*
X14313958Y-13619643D01*
X14294911Y-13629167D01*
X14380625Y-13743452D02*
X14361577Y-13752976D01*
X14313958Y-13752976D01*
X14294911Y-13743452D01*
X14285387Y-13724405D01*
X14285387Y-13705357D01*
X14294911Y-13686309D01*
X14313958Y-13676786D01*
X14361577Y-13676786D01*
X14380625Y-13667262D01*
X14447292Y-13619643D02*
X14523482Y-13619643D01*
X14475863Y-13552976D02*
X14475863Y-13724405D01*
X14485387Y-13743452D01*
X14504434Y-13752976D01*
X14523482Y-13752976D01*
X14666339Y-13743452D02*
X14647292Y-13752976D01*
X14609196Y-13752976D01*
X14590149Y-13743452D01*
X14580625Y-13724405D01*
X14580625Y-13648214D01*
X14590149Y-13629167D01*
X14609196Y-13619643D01*
X14647292Y-13619643D01*
X14666339Y-13629167D01*
X14675863Y-13648214D01*
X14675863Y-13667262D01*
X14580625Y-13686309D01*
X14847292Y-13752976D02*
X14847292Y-13552976D01*
X14847292Y-13743452D02*
X14828244Y-13752976D01*
X14790149Y-13752976D01*
X14771101Y-13743452D01*
X14761577Y-13733928D01*
X14752053Y-13714881D01*
X14752053Y-13657738D01*
X14761577Y-13638690D01*
X14771101Y-13629167D01*
X14790149Y-13619643D01*
X14828244Y-13619643D01*
X14847292Y-13629167D01*
X14923482Y-13829167D02*
X14933006Y-13819643D01*
X14952053Y-13791071D01*
X14961577Y-13772024D01*
X14971101Y-13743452D01*
X14980625Y-13695833D01*
X14980625Y-13657738D01*
X14971101Y-13610119D01*
X14961577Y-13581548D01*
X14952053Y-13562500D01*
X14933006Y-13533928D01*
X14923482Y-13524405D01*
D13*
X8170625Y-13932500D02*
G75*
G03*
X8170625Y-13932500I-87500J0D01*
G01*
D11*
X8533006Y-14022976D02*
X8418720Y-14022976D01*
X8475863Y-14022976D02*
X8475863Y-13822976D01*
X8456815Y-13851548D01*
X8437768Y-13870595D01*
X8418720Y-13880119D01*
X8618720Y-14003928D02*
X8628244Y-14013452D01*
X8618720Y-14022976D01*
X8609196Y-14013452D01*
X8618720Y-14003928D01*
X8618720Y-14022976D01*
X8694911Y-13822976D02*
X8828244Y-13822976D01*
X8742530Y-14022976D01*
X8999673Y-13822976D02*
X8904435Y-13822976D01*
X8894911Y-13918214D01*
X8904435Y-13908690D01*
X8923482Y-13899167D01*
X8971101Y-13899167D01*
X8990149Y-13908690D01*
X8999673Y-13918214D01*
X9009196Y-13937262D01*
X9009196Y-13984881D01*
X8999673Y-14003928D01*
X8990149Y-14013452D01*
X8971101Y-14022976D01*
X8923482Y-14022976D01*
X8904435Y-14013452D01*
X8894911Y-14003928D01*
X9133006Y-13822976D02*
X9152054Y-13822976D01*
X9171101Y-13832500D01*
X9180625Y-13842024D01*
X9190149Y-13861071D01*
X9199673Y-13899167D01*
X9199673Y-13946786D01*
X9190149Y-13984881D01*
X9180625Y-14003928D01*
X9171101Y-14013452D01*
X9152054Y-14022976D01*
X9133006Y-14022976D01*
X9113958Y-14013452D01*
X9104435Y-14003928D01*
X9094911Y-13984881D01*
X9085387Y-13946786D01*
X9085387Y-13899167D01*
X9094911Y-13861071D01*
X9104435Y-13842024D01*
X9113958Y-13832500D01*
X9133006Y-13822976D01*
X9285387Y-14022976D02*
X9285387Y-13889643D01*
X9285387Y-13908690D02*
X9294911Y-13899167D01*
X9313958Y-13889643D01*
X9342530Y-13889643D01*
X9361577Y-13899167D01*
X9371101Y-13918214D01*
X9371101Y-14022976D01*
X9371101Y-13918214D02*
X9380625Y-13899167D01*
X9399673Y-13889643D01*
X9428244Y-13889643D01*
X9447292Y-13899167D01*
X9456815Y-13918214D01*
X9456815Y-14022976D01*
X9552054Y-14022976D02*
X9552054Y-13889643D01*
X9552054Y-13908690D02*
X9561577Y-13899167D01*
X9580625Y-13889643D01*
X9609196Y-13889643D01*
X9628244Y-13899167D01*
X9637768Y-13918214D01*
X9637768Y-14022976D01*
X9637768Y-13918214D02*
X9647292Y-13899167D01*
X9666339Y-13889643D01*
X9694911Y-13889643D01*
X9713958Y-13899167D01*
X9723482Y-13918214D01*
X9723482Y-14022976D01*
X10113958Y-13813452D02*
X9942530Y-14070595D01*
X10371101Y-13822976D02*
X10390149Y-13822976D01*
X10409196Y-13832500D01*
X10418720Y-13842024D01*
X10428244Y-13861071D01*
X10437768Y-13899167D01*
X10437768Y-13946786D01*
X10428244Y-13984881D01*
X10418720Y-14003928D01*
X10409196Y-14013452D01*
X10390149Y-14022976D01*
X10371101Y-14022976D01*
X10352054Y-14013452D01*
X10342530Y-14003928D01*
X10333006Y-13984881D01*
X10323482Y-13946786D01*
X10323482Y-13899167D01*
X10333006Y-13861071D01*
X10342530Y-13842024D01*
X10352054Y-13832500D01*
X10371101Y-13822976D01*
X10523482Y-14003928D02*
X10533006Y-14013452D01*
X10523482Y-14022976D01*
X10513958Y-14013452D01*
X10523482Y-14003928D01*
X10523482Y-14022976D01*
X10656815Y-13822976D02*
X10675863Y-13822976D01*
X10694911Y-13832500D01*
X10704435Y-13842024D01*
X10713958Y-13861071D01*
X10723482Y-13899167D01*
X10723482Y-13946786D01*
X10713958Y-13984881D01*
X10704435Y-14003928D01*
X10694911Y-14013452D01*
X10675863Y-14022976D01*
X10656815Y-14022976D01*
X10637768Y-14013452D01*
X10628244Y-14003928D01*
X10618720Y-13984881D01*
X10609196Y-13946786D01*
X10609196Y-13899167D01*
X10618720Y-13861071D01*
X10628244Y-13842024D01*
X10637768Y-13832500D01*
X10656815Y-13822976D01*
X10894911Y-13822976D02*
X10856815Y-13822976D01*
X10837768Y-13832500D01*
X10828244Y-13842024D01*
X10809196Y-13870595D01*
X10799673Y-13908690D01*
X10799673Y-13984881D01*
X10809196Y-14003928D01*
X10818720Y-14013452D01*
X10837768Y-14022976D01*
X10875863Y-14022976D01*
X10894911Y-14013452D01*
X10904435Y-14003928D01*
X10913958Y-13984881D01*
X10913958Y-13937262D01*
X10904435Y-13918214D01*
X10894911Y-13908690D01*
X10875863Y-13899167D01*
X10837768Y-13899167D01*
X10818720Y-13908690D01*
X10809196Y-13918214D01*
X10799673Y-13937262D01*
X11028244Y-13908690D02*
X11009196Y-13899167D01*
X10999673Y-13889643D01*
X10990149Y-13870595D01*
X10990149Y-13861071D01*
X10999673Y-13842024D01*
X11009196Y-13832500D01*
X11028244Y-13822976D01*
X11066339Y-13822976D01*
X11085387Y-13832500D01*
X11094911Y-13842024D01*
X11104435Y-13861071D01*
X11104435Y-13870595D01*
X11094911Y-13889643D01*
X11085387Y-13899167D01*
X11066339Y-13908690D01*
X11028244Y-13908690D01*
X11009196Y-13918214D01*
X10999673Y-13927738D01*
X10990149Y-13946786D01*
X10990149Y-13984881D01*
X10999673Y-14003928D01*
X11009196Y-14013452D01*
X11028244Y-14022976D01*
X11066339Y-14022976D01*
X11085387Y-14013452D01*
X11094911Y-14003928D01*
X11104435Y-13984881D01*
X11104435Y-13946786D01*
X11094911Y-13927738D01*
X11085387Y-13918214D01*
X11066339Y-13908690D01*
X11199673Y-14022976D02*
X11237768Y-14022976D01*
X11256815Y-14013452D01*
X11266339Y-14003928D01*
X11285387Y-13975357D01*
X11294911Y-13937262D01*
X11294911Y-13861071D01*
X11285387Y-13842024D01*
X11275863Y-13832500D01*
X11256815Y-13822976D01*
X11218720Y-13822976D01*
X11199673Y-13832500D01*
X11190149Y-13842024D01*
X11180625Y-13861071D01*
X11180625Y-13908690D01*
X11190149Y-13927738D01*
X11199673Y-13937262D01*
X11218720Y-13946786D01*
X11256815Y-13946786D01*
X11275863Y-13937262D01*
X11285387Y-13927738D01*
X11294911Y-13908690D01*
X11371101Y-13822976D02*
X11371101Y-13861071D01*
X11447292Y-13822976D02*
X11447292Y-13861071D01*
X11742530Y-14099167D02*
X11733006Y-14089643D01*
X11713958Y-14061071D01*
X11704434Y-14042024D01*
X11694911Y-14013452D01*
X11685387Y-13965833D01*
X11685387Y-13927738D01*
X11694911Y-13880119D01*
X11704434Y-13851548D01*
X11713958Y-13832500D01*
X11733006Y-13803928D01*
X11742530Y-13794405D01*
X11809196Y-13842024D02*
X11818720Y-13832500D01*
X11837768Y-13822976D01*
X11885387Y-13822976D01*
X11904434Y-13832500D01*
X11913958Y-13842024D01*
X11923482Y-13861071D01*
X11923482Y-13880119D01*
X11913958Y-13908690D01*
X11799673Y-14022976D01*
X11923482Y-14022976D01*
X12047292Y-13822976D02*
X12066339Y-13822976D01*
X12085387Y-13832500D01*
X12094911Y-13842024D01*
X12104434Y-13861071D01*
X12113958Y-13899167D01*
X12113958Y-13946786D01*
X12104434Y-13984881D01*
X12094911Y-14003928D01*
X12085387Y-14013452D01*
X12066339Y-14022976D01*
X12047292Y-14022976D01*
X12028244Y-14013452D01*
X12018720Y-14003928D01*
X12009196Y-13984881D01*
X11999673Y-13946786D01*
X11999673Y-13899167D01*
X12009196Y-13861071D01*
X12018720Y-13842024D01*
X12028244Y-13832500D01*
X12047292Y-13822976D01*
X12352053Y-14022976D02*
X12352053Y-13822976D01*
X12437768Y-14022976D02*
X12437768Y-13918214D01*
X12428244Y-13899167D01*
X12409196Y-13889643D01*
X12380625Y-13889643D01*
X12361577Y-13899167D01*
X12352053Y-13908690D01*
X12561577Y-14022976D02*
X12542530Y-14013452D01*
X12533006Y-14003928D01*
X12523482Y-13984881D01*
X12523482Y-13927738D01*
X12533006Y-13908690D01*
X12542530Y-13899167D01*
X12561577Y-13889643D01*
X12590149Y-13889643D01*
X12609196Y-13899167D01*
X12618720Y-13908690D01*
X12628244Y-13927738D01*
X12628244Y-13984881D01*
X12618720Y-14003928D01*
X12609196Y-14013452D01*
X12590149Y-14022976D01*
X12561577Y-14022976D01*
X12742530Y-14022976D02*
X12723482Y-14013452D01*
X12713958Y-13994405D01*
X12713958Y-13822976D01*
X12894911Y-14013452D02*
X12875863Y-14022976D01*
X12837768Y-14022976D01*
X12818720Y-14013452D01*
X12809196Y-13994405D01*
X12809196Y-13918214D01*
X12818720Y-13899167D01*
X12837768Y-13889643D01*
X12875863Y-13889643D01*
X12894911Y-13899167D01*
X12904434Y-13918214D01*
X12904434Y-13937262D01*
X12809196Y-13956309D01*
X12980625Y-14013452D02*
X12999673Y-14022976D01*
X13037768Y-14022976D01*
X13056815Y-14013452D01*
X13066339Y-13994405D01*
X13066339Y-13984881D01*
X13056815Y-13965833D01*
X13037768Y-13956309D01*
X13009196Y-13956309D01*
X12990149Y-13946786D01*
X12980625Y-13927738D01*
X12980625Y-13918214D01*
X12990149Y-13899167D01*
X13009196Y-13889643D01*
X13037768Y-13889643D01*
X13056815Y-13899167D01*
X13133006Y-14099167D02*
X13142530Y-14089643D01*
X13161577Y-14061071D01*
X13171101Y-14042024D01*
X13180625Y-14013452D01*
X13190149Y-13965833D01*
X13190149Y-13927738D01*
X13180625Y-13880119D01*
X13171101Y-13851548D01*
X13161577Y-13832500D01*
X13142530Y-13803928D01*
X13133006Y-13794405D01*
X13494911Y-14099167D02*
X13485387Y-14089643D01*
X13466339Y-14061071D01*
X13456815Y-14042024D01*
X13447292Y-14013452D01*
X13437768Y-13965833D01*
X13437768Y-13927738D01*
X13447292Y-13880119D01*
X13456815Y-13851548D01*
X13466339Y-13832500D01*
X13485387Y-13803928D01*
X13494911Y-13794405D01*
X13571101Y-13889643D02*
X13571101Y-14022976D01*
X13571101Y-13908690D02*
X13580625Y-13899167D01*
X13599673Y-13889643D01*
X13628244Y-13889643D01*
X13647292Y-13899167D01*
X13656815Y-13918214D01*
X13656815Y-14022976D01*
X13780625Y-14022976D02*
X13761577Y-14013452D01*
X13752053Y-14003928D01*
X13742530Y-13984881D01*
X13742530Y-13927738D01*
X13752053Y-13908690D01*
X13761577Y-13899167D01*
X13780625Y-13889643D01*
X13809196Y-13889643D01*
X13828244Y-13899167D01*
X13837768Y-13908690D01*
X13847292Y-13927738D01*
X13847292Y-13984881D01*
X13837768Y-14003928D01*
X13828244Y-14013452D01*
X13809196Y-14022976D01*
X13780625Y-14022976D01*
X13904434Y-13889643D02*
X13980625Y-13889643D01*
X13933006Y-13822976D02*
X13933006Y-13994405D01*
X13942530Y-14013452D01*
X13961577Y-14022976D01*
X13980625Y-14022976D01*
X14199673Y-13889643D02*
X14199673Y-14089643D01*
X14199673Y-13899167D02*
X14218720Y-13889643D01*
X14256815Y-13889643D01*
X14275863Y-13899167D01*
X14285387Y-13908690D01*
X14294911Y-13927738D01*
X14294911Y-13984881D01*
X14285387Y-14003928D01*
X14275863Y-14013452D01*
X14256815Y-14022976D01*
X14218720Y-14022976D01*
X14199673Y-14013452D01*
X14409196Y-14022976D02*
X14390149Y-14013452D01*
X14380625Y-13994405D01*
X14380625Y-13822976D01*
X14571101Y-14022976D02*
X14571101Y-13918214D01*
X14561577Y-13899167D01*
X14542530Y-13889643D01*
X14504434Y-13889643D01*
X14485387Y-13899167D01*
X14571101Y-14013452D02*
X14552053Y-14022976D01*
X14504434Y-14022976D01*
X14485387Y-14013452D01*
X14475863Y-13994405D01*
X14475863Y-13975357D01*
X14485387Y-13956309D01*
X14504434Y-13946786D01*
X14552053Y-13946786D01*
X14571101Y-13937262D01*
X14637768Y-13889643D02*
X14713958Y-13889643D01*
X14666339Y-13822976D02*
X14666339Y-13994405D01*
X14675863Y-14013452D01*
X14694911Y-14022976D01*
X14713958Y-14022976D01*
X14856815Y-14013452D02*
X14837768Y-14022976D01*
X14799673Y-14022976D01*
X14780625Y-14013452D01*
X14771101Y-13994405D01*
X14771101Y-13918214D01*
X14780625Y-13899167D01*
X14799673Y-13889643D01*
X14837768Y-13889643D01*
X14856815Y-13899167D01*
X14866339Y-13918214D01*
X14866339Y-13937262D01*
X14771101Y-13956309D01*
X15037768Y-14022976D02*
X15037768Y-13822976D01*
X15037768Y-14013452D02*
X15018720Y-14022976D01*
X14980625Y-14022976D01*
X14961577Y-14013452D01*
X14952053Y-14003928D01*
X14942530Y-13984881D01*
X14942530Y-13927738D01*
X14952053Y-13908690D01*
X14961577Y-13899167D01*
X14980625Y-13889643D01*
X15018720Y-13889643D01*
X15037768Y-13899167D01*
X15113958Y-14099167D02*
X15123482Y-14089643D01*
X15142530Y-14061071D01*
X15152053Y-14042024D01*
X15161577Y-14013452D01*
X15171101Y-13965833D01*
X15171101Y-13927738D01*
X15161577Y-13880119D01*
X15152053Y-13851548D01*
X15142530Y-13832500D01*
X15123482Y-13803928D01*
X15113958Y-13794405D01*
D14*
X8080625Y-14137500D02*
X8080625Y-14317500D01*
X7990625Y-14227500D02*
X8170625Y-14227500D01*
D11*
X8533006Y-14317976D02*
X8418720Y-14317976D01*
X8475863Y-14317976D02*
X8475863Y-14117976D01*
X8456815Y-14146548D01*
X8437768Y-14165595D01*
X8418720Y-14175119D01*
X8618720Y-14298928D02*
X8628244Y-14308452D01*
X8618720Y-14317976D01*
X8609196Y-14308452D01*
X8618720Y-14298928D01*
X8618720Y-14317976D01*
X8742530Y-14203690D02*
X8723482Y-14194167D01*
X8713958Y-14184643D01*
X8704435Y-14165595D01*
X8704435Y-14156071D01*
X8713958Y-14137024D01*
X8723482Y-14127500D01*
X8742530Y-14117976D01*
X8780625Y-14117976D01*
X8799673Y-14127500D01*
X8809196Y-14137024D01*
X8818720Y-14156071D01*
X8818720Y-14165595D01*
X8809196Y-14184643D01*
X8799673Y-14194167D01*
X8780625Y-14203690D01*
X8742530Y-14203690D01*
X8723482Y-14213214D01*
X8713958Y-14222738D01*
X8704435Y-14241786D01*
X8704435Y-14279881D01*
X8713958Y-14298928D01*
X8723482Y-14308452D01*
X8742530Y-14317976D01*
X8780625Y-14317976D01*
X8799673Y-14308452D01*
X8809196Y-14298928D01*
X8818720Y-14279881D01*
X8818720Y-14241786D01*
X8809196Y-14222738D01*
X8799673Y-14213214D01*
X8780625Y-14203690D01*
X8942530Y-14117976D02*
X8961577Y-14117976D01*
X8980625Y-14127500D01*
X8990149Y-14137024D01*
X8999673Y-14156071D01*
X9009196Y-14194167D01*
X9009196Y-14241786D01*
X8999673Y-14279881D01*
X8990149Y-14298928D01*
X8980625Y-14308452D01*
X8961577Y-14317976D01*
X8942530Y-14317976D01*
X8923482Y-14308452D01*
X8913958Y-14298928D01*
X8904435Y-14279881D01*
X8894911Y-14241786D01*
X8894911Y-14194167D01*
X8904435Y-14156071D01*
X8913958Y-14137024D01*
X8923482Y-14127500D01*
X8942530Y-14117976D01*
X9133006Y-14117976D02*
X9152054Y-14117976D01*
X9171101Y-14127500D01*
X9180625Y-14137024D01*
X9190149Y-14156071D01*
X9199673Y-14194167D01*
X9199673Y-14241786D01*
X9190149Y-14279881D01*
X9180625Y-14298928D01*
X9171101Y-14308452D01*
X9152054Y-14317976D01*
X9133006Y-14317976D01*
X9113958Y-14308452D01*
X9104435Y-14298928D01*
X9094911Y-14279881D01*
X9085387Y-14241786D01*
X9085387Y-14194167D01*
X9094911Y-14156071D01*
X9104435Y-14137024D01*
X9113958Y-14127500D01*
X9133006Y-14117976D01*
X9285387Y-14317976D02*
X9285387Y-14184643D01*
X9285387Y-14203690D02*
X9294911Y-14194167D01*
X9313958Y-14184643D01*
X9342530Y-14184643D01*
X9361577Y-14194167D01*
X9371101Y-14213214D01*
X9371101Y-14317976D01*
X9371101Y-14213214D02*
X9380625Y-14194167D01*
X9399673Y-14184643D01*
X9428244Y-14184643D01*
X9447292Y-14194167D01*
X9456815Y-14213214D01*
X9456815Y-14317976D01*
X9552054Y-14317976D02*
X9552054Y-14184643D01*
X9552054Y-14203690D02*
X9561577Y-14194167D01*
X9580625Y-14184643D01*
X9609196Y-14184643D01*
X9628244Y-14194167D01*
X9637768Y-14213214D01*
X9637768Y-14317976D01*
X9637768Y-14213214D02*
X9647292Y-14194167D01*
X9666339Y-14184643D01*
X9694911Y-14184643D01*
X9713958Y-14194167D01*
X9723482Y-14213214D01*
X9723482Y-14317976D01*
X10113958Y-14108452D02*
X9942530Y-14365595D01*
X10371101Y-14117976D02*
X10390149Y-14117976D01*
X10409196Y-14127500D01*
X10418720Y-14137024D01*
X10428244Y-14156071D01*
X10437768Y-14194167D01*
X10437768Y-14241786D01*
X10428244Y-14279881D01*
X10418720Y-14298928D01*
X10409196Y-14308452D01*
X10390149Y-14317976D01*
X10371101Y-14317976D01*
X10352054Y-14308452D01*
X10342530Y-14298928D01*
X10333006Y-14279881D01*
X10323482Y-14241786D01*
X10323482Y-14194167D01*
X10333006Y-14156071D01*
X10342530Y-14137024D01*
X10352054Y-14127500D01*
X10371101Y-14117976D01*
X10523482Y-14298928D02*
X10533006Y-14308452D01*
X10523482Y-14317976D01*
X10513958Y-14308452D01*
X10523482Y-14298928D01*
X10523482Y-14317976D01*
X10656815Y-14117976D02*
X10675863Y-14117976D01*
X10694911Y-14127500D01*
X10704435Y-14137024D01*
X10713958Y-14156071D01*
X10723482Y-14194167D01*
X10723482Y-14241786D01*
X10713958Y-14279881D01*
X10704435Y-14298928D01*
X10694911Y-14308452D01*
X10675863Y-14317976D01*
X10656815Y-14317976D01*
X10637768Y-14308452D01*
X10628244Y-14298928D01*
X10618720Y-14279881D01*
X10609196Y-14241786D01*
X10609196Y-14194167D01*
X10618720Y-14156071D01*
X10628244Y-14137024D01*
X10637768Y-14127500D01*
X10656815Y-14117976D01*
X10790149Y-14117976D02*
X10923482Y-14117976D01*
X10837768Y-14317976D01*
X11037768Y-14117976D02*
X11056815Y-14117976D01*
X11075863Y-14127500D01*
X11085387Y-14137024D01*
X11094911Y-14156071D01*
X11104435Y-14194167D01*
X11104435Y-14241786D01*
X11094911Y-14279881D01*
X11085387Y-14298928D01*
X11075863Y-14308452D01*
X11056815Y-14317976D01*
X11037768Y-14317976D01*
X11018720Y-14308452D01*
X11009196Y-14298928D01*
X10999673Y-14279881D01*
X10990149Y-14241786D01*
X10990149Y-14194167D01*
X10999673Y-14156071D01*
X11009196Y-14137024D01*
X11018720Y-14127500D01*
X11037768Y-14117976D01*
X11199673Y-14317976D02*
X11237768Y-14317976D01*
X11256815Y-14308452D01*
X11266339Y-14298928D01*
X11285387Y-14270357D01*
X11294911Y-14232262D01*
X11294911Y-14156071D01*
X11285387Y-14137024D01*
X11275863Y-14127500D01*
X11256815Y-14117976D01*
X11218720Y-14117976D01*
X11199673Y-14127500D01*
X11190149Y-14137024D01*
X11180625Y-14156071D01*
X11180625Y-14203690D01*
X11190149Y-14222738D01*
X11199673Y-14232262D01*
X11218720Y-14241786D01*
X11256815Y-14241786D01*
X11275863Y-14232262D01*
X11285387Y-14222738D01*
X11294911Y-14203690D01*
X11371101Y-14117976D02*
X11371101Y-14156071D01*
X11447292Y-14117976D02*
X11447292Y-14156071D01*
X11742530Y-14394167D02*
X11733006Y-14384643D01*
X11713958Y-14356071D01*
X11704434Y-14337024D01*
X11694911Y-14308452D01*
X11685387Y-14260833D01*
X11685387Y-14222738D01*
X11694911Y-14175119D01*
X11704434Y-14146548D01*
X11713958Y-14127500D01*
X11733006Y-14098928D01*
X11742530Y-14089405D01*
X11809196Y-14137024D02*
X11818720Y-14127500D01*
X11837768Y-14117976D01*
X11885387Y-14117976D01*
X11904434Y-14127500D01*
X11913958Y-14137024D01*
X11923482Y-14156071D01*
X11923482Y-14175119D01*
X11913958Y-14203690D01*
X11799673Y-14317976D01*
X11923482Y-14317976D01*
X12161577Y-14317976D02*
X12161577Y-14117976D01*
X12247292Y-14317976D02*
X12247292Y-14213214D01*
X12237768Y-14194167D01*
X12218720Y-14184643D01*
X12190149Y-14184643D01*
X12171101Y-14194167D01*
X12161577Y-14203690D01*
X12371101Y-14317976D02*
X12352053Y-14308452D01*
X12342530Y-14298928D01*
X12333006Y-14279881D01*
X12333006Y-14222738D01*
X12342530Y-14203690D01*
X12352053Y-14194167D01*
X12371101Y-14184643D01*
X12399673Y-14184643D01*
X12418720Y-14194167D01*
X12428244Y-14203690D01*
X12437768Y-14222738D01*
X12437768Y-14279881D01*
X12428244Y-14298928D01*
X12418720Y-14308452D01*
X12399673Y-14317976D01*
X12371101Y-14317976D01*
X12552053Y-14317976D02*
X12533006Y-14308452D01*
X12523482Y-14289405D01*
X12523482Y-14117976D01*
X12704434Y-14308452D02*
X12685387Y-14317976D01*
X12647292Y-14317976D01*
X12628244Y-14308452D01*
X12618720Y-14289405D01*
X12618720Y-14213214D01*
X12628244Y-14194167D01*
X12647292Y-14184643D01*
X12685387Y-14184643D01*
X12704434Y-14194167D01*
X12713958Y-14213214D01*
X12713958Y-14232262D01*
X12618720Y-14251309D01*
X12790149Y-14308452D02*
X12809196Y-14317976D01*
X12847292Y-14317976D01*
X12866339Y-14308452D01*
X12875863Y-14289405D01*
X12875863Y-14279881D01*
X12866339Y-14260833D01*
X12847292Y-14251309D01*
X12818720Y-14251309D01*
X12799673Y-14241786D01*
X12790149Y-14222738D01*
X12790149Y-14213214D01*
X12799673Y-14194167D01*
X12818720Y-14184643D01*
X12847292Y-14184643D01*
X12866339Y-14194167D01*
X12942530Y-14394167D02*
X12952053Y-14384643D01*
X12971101Y-14356071D01*
X12980625Y-14337024D01*
X12990149Y-14308452D01*
X12999673Y-14260833D01*
X12999673Y-14222738D01*
X12990149Y-14175119D01*
X12980625Y-14146548D01*
X12971101Y-14127500D01*
X12952053Y-14098928D01*
X12942530Y-14089405D01*
X13304434Y-14394167D02*
X13294911Y-14384643D01*
X13275863Y-14356071D01*
X13266339Y-14337024D01*
X13256815Y-14308452D01*
X13247292Y-14260833D01*
X13247292Y-14222738D01*
X13256815Y-14175119D01*
X13266339Y-14146548D01*
X13275863Y-14127500D01*
X13294911Y-14098928D01*
X13304434Y-14089405D01*
X13380625Y-14184643D02*
X13380625Y-14317976D01*
X13380625Y-14203690D02*
X13390149Y-14194167D01*
X13409196Y-14184643D01*
X13437768Y-14184643D01*
X13456815Y-14194167D01*
X13466339Y-14213214D01*
X13466339Y-14317976D01*
X13590149Y-14317976D02*
X13571101Y-14308452D01*
X13561577Y-14298928D01*
X13552053Y-14279881D01*
X13552053Y-14222738D01*
X13561577Y-14203690D01*
X13571101Y-14194167D01*
X13590149Y-14184643D01*
X13618720Y-14184643D01*
X13637768Y-14194167D01*
X13647292Y-14203690D01*
X13656815Y-14222738D01*
X13656815Y-14279881D01*
X13647292Y-14298928D01*
X13637768Y-14308452D01*
X13618720Y-14317976D01*
X13590149Y-14317976D01*
X13713958Y-14184643D02*
X13790149Y-14184643D01*
X13742530Y-14117976D02*
X13742530Y-14289405D01*
X13752053Y-14308452D01*
X13771101Y-14317976D01*
X13790149Y-14317976D01*
X14009196Y-14184643D02*
X14009196Y-14384643D01*
X14009196Y-14194167D02*
X14028244Y-14184643D01*
X14066339Y-14184643D01*
X14085387Y-14194167D01*
X14094911Y-14203690D01*
X14104434Y-14222738D01*
X14104434Y-14279881D01*
X14094911Y-14298928D01*
X14085387Y-14308452D01*
X14066339Y-14317976D01*
X14028244Y-14317976D01*
X14009196Y-14308452D01*
X14218720Y-14317976D02*
X14199673Y-14308452D01*
X14190149Y-14289405D01*
X14190149Y-14117976D01*
X14380625Y-14317976D02*
X14380625Y-14213214D01*
X14371101Y-14194167D01*
X14352053Y-14184643D01*
X14313958Y-14184643D01*
X14294911Y-14194167D01*
X14380625Y-14308452D02*
X14361577Y-14317976D01*
X14313958Y-14317976D01*
X14294911Y-14308452D01*
X14285387Y-14289405D01*
X14285387Y-14270357D01*
X14294911Y-14251309D01*
X14313958Y-14241786D01*
X14361577Y-14241786D01*
X14380625Y-14232262D01*
X14447292Y-14184643D02*
X14523482Y-14184643D01*
X14475863Y-14117976D02*
X14475863Y-14289405D01*
X14485387Y-14308452D01*
X14504434Y-14317976D01*
X14523482Y-14317976D01*
X14666339Y-14308452D02*
X14647292Y-14317976D01*
X14609196Y-14317976D01*
X14590149Y-14308452D01*
X14580625Y-14289405D01*
X14580625Y-14213214D01*
X14590149Y-14194167D01*
X14609196Y-14184643D01*
X14647292Y-14184643D01*
X14666339Y-14194167D01*
X14675863Y-14213214D01*
X14675863Y-14232262D01*
X14580625Y-14251309D01*
X14847292Y-14317976D02*
X14847292Y-14117976D01*
X14847292Y-14308452D02*
X14828244Y-14317976D01*
X14790149Y-14317976D01*
X14771101Y-14308452D01*
X14761577Y-14298928D01*
X14752053Y-14279881D01*
X14752053Y-14222738D01*
X14761577Y-14203690D01*
X14771101Y-14194167D01*
X14790149Y-14184643D01*
X14828244Y-14184643D01*
X14847292Y-14194167D01*
X14923482Y-14394167D02*
X14933006Y-14384643D01*
X14952053Y-14356071D01*
X14961577Y-14337024D01*
X14971101Y-14308452D01*
X14980625Y-14260833D01*
X14980625Y-14222738D01*
X14971101Y-14175119D01*
X14961577Y-14146548D01*
X14952053Y-14127500D01*
X14933006Y-14098928D01*
X14923482Y-14089405D01*
X8141336Y-14598211D02*
X8141336Y-14456789D01*
X7999914Y-14456789D01*
X7999914Y-14598211D01*
X8141336Y-14598211D01*
X8409196Y-14417976D02*
X8533006Y-14417976D01*
X8466339Y-14494167D01*
X8494911Y-14494167D01*
X8513958Y-14503690D01*
X8523482Y-14513214D01*
X8533006Y-14532262D01*
X8533006Y-14579881D01*
X8523482Y-14598928D01*
X8513958Y-14608452D01*
X8494911Y-14617976D01*
X8437768Y-14617976D01*
X8418720Y-14608452D01*
X8409196Y-14598928D01*
X8618720Y-14598928D02*
X8628244Y-14608452D01*
X8618720Y-14617976D01*
X8609196Y-14608452D01*
X8618720Y-14598928D01*
X8618720Y-14617976D01*
X8723482Y-14617976D02*
X8761577Y-14617976D01*
X8780625Y-14608452D01*
X8790149Y-14598928D01*
X8809196Y-14570357D01*
X8818720Y-14532262D01*
X8818720Y-14456071D01*
X8809196Y-14437024D01*
X8799673Y-14427500D01*
X8780625Y-14417976D01*
X8742530Y-14417976D01*
X8723482Y-14427500D01*
X8713958Y-14437024D01*
X8704435Y-14456071D01*
X8704435Y-14503690D01*
X8713958Y-14522738D01*
X8723482Y-14532262D01*
X8742530Y-14541786D01*
X8780625Y-14541786D01*
X8799673Y-14532262D01*
X8809196Y-14522738D01*
X8818720Y-14503690D01*
X8933006Y-14503690D02*
X8913958Y-14494167D01*
X8904435Y-14484643D01*
X8894911Y-14465595D01*
X8894911Y-14456071D01*
X8904435Y-14437024D01*
X8913958Y-14427500D01*
X8933006Y-14417976D01*
X8971101Y-14417976D01*
X8990149Y-14427500D01*
X8999673Y-14437024D01*
X9009196Y-14456071D01*
X9009196Y-14465595D01*
X8999673Y-14484643D01*
X8990149Y-14494167D01*
X8971101Y-14503690D01*
X8933006Y-14503690D01*
X8913958Y-14513214D01*
X8904435Y-14522738D01*
X8894911Y-14541786D01*
X8894911Y-14579881D01*
X8904435Y-14598928D01*
X8913958Y-14608452D01*
X8933006Y-14617976D01*
X8971101Y-14617976D01*
X8990149Y-14608452D01*
X8999673Y-14598928D01*
X9009196Y-14579881D01*
X9009196Y-14541786D01*
X8999673Y-14522738D01*
X8990149Y-14513214D01*
X8971101Y-14503690D01*
X9123482Y-14503690D02*
X9104435Y-14494167D01*
X9094911Y-14484643D01*
X9085387Y-14465595D01*
X9085387Y-14456071D01*
X9094911Y-14437024D01*
X9104435Y-14427500D01*
X9123482Y-14417976D01*
X9161577Y-14417976D01*
X9180625Y-14427500D01*
X9190149Y-14437024D01*
X9199673Y-14456071D01*
X9199673Y-14465595D01*
X9190149Y-14484643D01*
X9180625Y-14494167D01*
X9161577Y-14503690D01*
X9123482Y-14503690D01*
X9104435Y-14513214D01*
X9094911Y-14522738D01*
X9085387Y-14541786D01*
X9085387Y-14579881D01*
X9094911Y-14598928D01*
X9104435Y-14608452D01*
X9123482Y-14617976D01*
X9161577Y-14617976D01*
X9180625Y-14608452D01*
X9190149Y-14598928D01*
X9199673Y-14579881D01*
X9199673Y-14541786D01*
X9190149Y-14522738D01*
X9180625Y-14513214D01*
X9161577Y-14503690D01*
X9285387Y-14617976D02*
X9285387Y-14484643D01*
X9285387Y-14503690D02*
X9294911Y-14494167D01*
X9313958Y-14484643D01*
X9342530Y-14484643D01*
X9361577Y-14494167D01*
X9371101Y-14513214D01*
X9371101Y-14617976D01*
X9371101Y-14513214D02*
X9380625Y-14494167D01*
X9399673Y-14484643D01*
X9428244Y-14484643D01*
X9447292Y-14494167D01*
X9456815Y-14513214D01*
X9456815Y-14617976D01*
X9552054Y-14617976D02*
X9552054Y-14484643D01*
X9552054Y-14503690D02*
X9561577Y-14494167D01*
X9580625Y-14484643D01*
X9609196Y-14484643D01*
X9628244Y-14494167D01*
X9637768Y-14513214D01*
X9637768Y-14617976D01*
X9637768Y-14513214D02*
X9647292Y-14494167D01*
X9666339Y-14484643D01*
X9694911Y-14484643D01*
X9713958Y-14494167D01*
X9723482Y-14513214D01*
X9723482Y-14617976D01*
X10113958Y-14408452D02*
X9942530Y-14665595D01*
X10371101Y-14417976D02*
X10390149Y-14417976D01*
X10409196Y-14427500D01*
X10418720Y-14437024D01*
X10428244Y-14456071D01*
X10437768Y-14494167D01*
X10437768Y-14541786D01*
X10428244Y-14579881D01*
X10418720Y-14598928D01*
X10409196Y-14608452D01*
X10390149Y-14617976D01*
X10371101Y-14617976D01*
X10352054Y-14608452D01*
X10342530Y-14598928D01*
X10333006Y-14579881D01*
X10323482Y-14541786D01*
X10323482Y-14494167D01*
X10333006Y-14456071D01*
X10342530Y-14437024D01*
X10352054Y-14427500D01*
X10371101Y-14417976D01*
X10523482Y-14598928D02*
X10533006Y-14608452D01*
X10523482Y-14617976D01*
X10513958Y-14608452D01*
X10523482Y-14598928D01*
X10523482Y-14617976D01*
X10723482Y-14617976D02*
X10609196Y-14617976D01*
X10666339Y-14617976D02*
X10666339Y-14417976D01*
X10647292Y-14446548D01*
X10628244Y-14465595D01*
X10609196Y-14475119D01*
X10904435Y-14417976D02*
X10809196Y-14417976D01*
X10799673Y-14513214D01*
X10809196Y-14503690D01*
X10828244Y-14494167D01*
X10875863Y-14494167D01*
X10894911Y-14503690D01*
X10904435Y-14513214D01*
X10913958Y-14532262D01*
X10913958Y-14579881D01*
X10904435Y-14598928D01*
X10894911Y-14608452D01*
X10875863Y-14617976D01*
X10828244Y-14617976D01*
X10809196Y-14608452D01*
X10799673Y-14598928D01*
X10980625Y-14417976D02*
X11113958Y-14417976D01*
X11028244Y-14617976D01*
X11228244Y-14417976D02*
X11247292Y-14417976D01*
X11266339Y-14427500D01*
X11275863Y-14437024D01*
X11285387Y-14456071D01*
X11294911Y-14494167D01*
X11294911Y-14541786D01*
X11285387Y-14579881D01*
X11275863Y-14598928D01*
X11266339Y-14608452D01*
X11247292Y-14617976D01*
X11228244Y-14617976D01*
X11209196Y-14608452D01*
X11199673Y-14598928D01*
X11190149Y-14579881D01*
X11180625Y-14541786D01*
X11180625Y-14494167D01*
X11190149Y-14456071D01*
X11199673Y-14437024D01*
X11209196Y-14427500D01*
X11228244Y-14417976D01*
X11371101Y-14417976D02*
X11371101Y-14456071D01*
X11447292Y-14417976D02*
X11447292Y-14456071D01*
X11742530Y-14694167D02*
X11733006Y-14684643D01*
X11713958Y-14656071D01*
X11704434Y-14637024D01*
X11694911Y-14608452D01*
X11685387Y-14560833D01*
X11685387Y-14522738D01*
X11694911Y-14475119D01*
X11704434Y-14446548D01*
X11713958Y-14427500D01*
X11733006Y-14398928D01*
X11742530Y-14389405D01*
X11923482Y-14617976D02*
X11809196Y-14617976D01*
X11866339Y-14617976D02*
X11866339Y-14417976D01*
X11847292Y-14446548D01*
X11828244Y-14465595D01*
X11809196Y-14475119D01*
X12047292Y-14417976D02*
X12066339Y-14417976D01*
X12085387Y-14427500D01*
X12094911Y-14437024D01*
X12104434Y-14456071D01*
X12113958Y-14494167D01*
X12113958Y-14541786D01*
X12104434Y-14579881D01*
X12094911Y-14598928D01*
X12085387Y-14608452D01*
X12066339Y-14617976D01*
X12047292Y-14617976D01*
X12028244Y-14608452D01*
X12018720Y-14598928D01*
X12009196Y-14579881D01*
X11999673Y-14541786D01*
X11999673Y-14494167D01*
X12009196Y-14456071D01*
X12018720Y-14437024D01*
X12028244Y-14427500D01*
X12047292Y-14417976D01*
X12352053Y-14617976D02*
X12352053Y-14417976D01*
X12437768Y-14617976D02*
X12437768Y-14513214D01*
X12428244Y-14494167D01*
X12409196Y-14484643D01*
X12380625Y-14484643D01*
X12361577Y-14494167D01*
X12352053Y-14503690D01*
X12561577Y-14617976D02*
X12542530Y-14608452D01*
X12533006Y-14598928D01*
X12523482Y-14579881D01*
X12523482Y-14522738D01*
X12533006Y-14503690D01*
X12542530Y-14494167D01*
X12561577Y-14484643D01*
X12590149Y-14484643D01*
X12609196Y-14494167D01*
X12618720Y-14503690D01*
X12628244Y-14522738D01*
X12628244Y-14579881D01*
X12618720Y-14598928D01*
X12609196Y-14608452D01*
X12590149Y-14617976D01*
X12561577Y-14617976D01*
X12742530Y-14617976D02*
X12723482Y-14608452D01*
X12713958Y-14589405D01*
X12713958Y-14417976D01*
X12894911Y-14608452D02*
X12875863Y-14617976D01*
X12837768Y-14617976D01*
X12818720Y-14608452D01*
X12809196Y-14589405D01*
X12809196Y-14513214D01*
X12818720Y-14494167D01*
X12837768Y-14484643D01*
X12875863Y-14484643D01*
X12894911Y-14494167D01*
X12904434Y-14513214D01*
X12904434Y-14532262D01*
X12809196Y-14551309D01*
X12980625Y-14608452D02*
X12999673Y-14617976D01*
X13037768Y-14617976D01*
X13056815Y-14608452D01*
X13066339Y-14589405D01*
X13066339Y-14579881D01*
X13056815Y-14560833D01*
X13037768Y-14551309D01*
X13009196Y-14551309D01*
X12990149Y-14541786D01*
X12980625Y-14522738D01*
X12980625Y-14513214D01*
X12990149Y-14494167D01*
X13009196Y-14484643D01*
X13037768Y-14484643D01*
X13056815Y-14494167D01*
X13133006Y-14694167D02*
X13142530Y-14684643D01*
X13161577Y-14656071D01*
X13171101Y-14637024D01*
X13180625Y-14608452D01*
X13190149Y-14560833D01*
X13190149Y-14522738D01*
X13180625Y-14475119D01*
X13171101Y-14446548D01*
X13161577Y-14427500D01*
X13142530Y-14398928D01*
X13133006Y-14389405D01*
X13494911Y-14694167D02*
X13485387Y-14684643D01*
X13466339Y-14656071D01*
X13456815Y-14637024D01*
X13447292Y-14608452D01*
X13437768Y-14560833D01*
X13437768Y-14522738D01*
X13447292Y-14475119D01*
X13456815Y-14446548D01*
X13466339Y-14427500D01*
X13485387Y-14398928D01*
X13494911Y-14389405D01*
X13571101Y-14484643D02*
X13571101Y-14617976D01*
X13571101Y-14503690D02*
X13580625Y-14494167D01*
X13599673Y-14484643D01*
X13628244Y-14484643D01*
X13647292Y-14494167D01*
X13656815Y-14513214D01*
X13656815Y-14617976D01*
X13780625Y-14617976D02*
X13761577Y-14608452D01*
X13752053Y-14598928D01*
X13742530Y-14579881D01*
X13742530Y-14522738D01*
X13752053Y-14503690D01*
X13761577Y-14494167D01*
X13780625Y-14484643D01*
X13809196Y-14484643D01*
X13828244Y-14494167D01*
X13837768Y-14503690D01*
X13847292Y-14522738D01*
X13847292Y-14579881D01*
X13837768Y-14598928D01*
X13828244Y-14608452D01*
X13809196Y-14617976D01*
X13780625Y-14617976D01*
X13904434Y-14484643D02*
X13980625Y-14484643D01*
X13933006Y-14417976D02*
X13933006Y-14589405D01*
X13942530Y-14608452D01*
X13961577Y-14617976D01*
X13980625Y-14617976D01*
X14199673Y-14484643D02*
X14199673Y-14684643D01*
X14199673Y-14494167D02*
X14218720Y-14484643D01*
X14256815Y-14484643D01*
X14275863Y-14494167D01*
X14285387Y-14503690D01*
X14294911Y-14522738D01*
X14294911Y-14579881D01*
X14285387Y-14598928D01*
X14275863Y-14608452D01*
X14256815Y-14617976D01*
X14218720Y-14617976D01*
X14199673Y-14608452D01*
X14409196Y-14617976D02*
X14390149Y-14608452D01*
X14380625Y-14589405D01*
X14380625Y-14417976D01*
X14571101Y-14617976D02*
X14571101Y-14513214D01*
X14561577Y-14494167D01*
X14542530Y-14484643D01*
X14504434Y-14484643D01*
X14485387Y-14494167D01*
X14571101Y-14608452D02*
X14552053Y-14617976D01*
X14504434Y-14617976D01*
X14485387Y-14608452D01*
X14475863Y-14589405D01*
X14475863Y-14570357D01*
X14485387Y-14551309D01*
X14504434Y-14541786D01*
X14552053Y-14541786D01*
X14571101Y-14532262D01*
X14637768Y-14484643D02*
X14713958Y-14484643D01*
X14666339Y-14417976D02*
X14666339Y-14589405D01*
X14675863Y-14608452D01*
X14694911Y-14617976D01*
X14713958Y-14617976D01*
X14856815Y-14608452D02*
X14837768Y-14617976D01*
X14799673Y-14617976D01*
X14780625Y-14608452D01*
X14771101Y-14589405D01*
X14771101Y-14513214D01*
X14780625Y-14494167D01*
X14799673Y-14484643D01*
X14837768Y-14484643D01*
X14856815Y-14494167D01*
X14866339Y-14513214D01*
X14866339Y-14532262D01*
X14771101Y-14551309D01*
X15037768Y-14617976D02*
X15037768Y-14417976D01*
X15037768Y-14608452D02*
X15018720Y-14617976D01*
X14980625Y-14617976D01*
X14961577Y-14608452D01*
X14952053Y-14598928D01*
X14942530Y-14579881D01*
X14942530Y-14522738D01*
X14952053Y-14503690D01*
X14961577Y-14494167D01*
X14980625Y-14484643D01*
X15018720Y-14484643D01*
X15037768Y-14494167D01*
X15113958Y-14694167D02*
X15123482Y-14684643D01*
X15142530Y-14656071D01*
X15152053Y-14637024D01*
X15161577Y-14608452D01*
X15171101Y-14560833D01*
X15171101Y-14522738D01*
X15161577Y-14475119D01*
X15152053Y-14446548D01*
X15142530Y-14427500D01*
X15123482Y-14398928D01*
X15113958Y-14389405D01*
M02*
