%TF.GenerationSoftware,KiCad,Pcbnew,(6.0.8)*%
%TF.CreationDate,2022-10-26T23:54:38-06:00*%
%TF.ProjectId,pcb,7063622e-6b69-4636-9164-5f7063625858,rev?*%
%TF.SameCoordinates,Original*%
%TF.FileFunction,Legend,Bot*%
%TF.FilePolarity,Positive*%
%FSLAX46Y46*%
G04 Gerber Fmt 4.6, Leading zero omitted, Abs format (unit mm)*
G04 Created by KiCad (PCBNEW (6.0.8)) date 2022-10-26 23:54:38*
%MOMM*%
%LPD*%
G01*
G04 APERTURE LIST*
G04 Aperture macros list*
%AMRoundRect*
0 Rectangle with rounded corners*
0 $1 Rounding radius*
0 $2 $3 $4 $5 $6 $7 $8 $9 X,Y pos of 4 corners*
0 Add a 4 corners polygon primitive as box body*
4,1,4,$2,$3,$4,$5,$6,$7,$8,$9,$2,$3,0*
0 Add four circle primitives for the rounded corners*
1,1,$1+$1,$2,$3*
1,1,$1+$1,$4,$5*
1,1,$1+$1,$6,$7*
1,1,$1+$1,$8,$9*
0 Add four rect primitives between the rounded corners*
20,1,$1+$1,$2,$3,$4,$5,0*
20,1,$1+$1,$4,$5,$6,$7,0*
20,1,$1+$1,$6,$7,$8,$9,0*
20,1,$1+$1,$8,$9,$2,$3,0*%
%AMFreePoly0*
4,1,22,0.500000,-0.750000,0.000000,-0.750000,0.000000,-0.745033,-0.079941,-0.743568,-0.215256,-0.701293,-0.333266,-0.622738,-0.424486,-0.514219,-0.481581,-0.384460,-0.499164,-0.250000,-0.500000,-0.250000,-0.500000,0.250000,-0.499164,0.250000,-0.499963,0.256109,-0.478152,0.396186,-0.417904,0.524511,-0.324060,0.630769,-0.204165,0.706417,-0.067858,0.745374,0.000000,0.744959,0.000000,0.750000,
0.500000,0.750000,0.500000,-0.750000,0.500000,-0.750000,$1*%
%AMFreePoly1*
4,1,20,0.000000,0.744959,0.073905,0.744508,0.209726,0.703889,0.328688,0.626782,0.421226,0.519385,0.479903,0.390333,0.500000,0.250000,0.500000,-0.250000,0.499851,-0.262216,0.476331,-0.402017,0.414519,-0.529596,0.319384,-0.634700,0.198574,-0.708877,0.061801,-0.746166,0.000000,-0.745033,0.000000,-0.750000,-0.500000,-0.750000,-0.500000,0.750000,0.000000,0.750000,0.000000,0.744959,
0.000000,0.744959,$1*%
G04 Aperture macros list end*
%ADD10C,0.150000*%
%ADD11C,0.300000*%
%ADD12C,0.120000*%
%ADD13C,1.750000*%
%ADD14C,3.987800*%
%ADD15C,2.250000*%
%ADD16C,1.905000*%
%ADD17R,1.905000X1.905000*%
%ADD18R,1.700000X1.700000*%
%ADD19O,1.700000X1.700000*%
%ADD20C,2.000000*%
%ADD21R,1.500000X0.900000*%
%ADD22FreePoly0,180.000000*%
%ADD23FreePoly1,180.000000*%
%ADD24RoundRect,0.250000X-0.475000X0.337500X-0.475000X-0.337500X0.475000X-0.337500X0.475000X0.337500X0*%
%ADD25RoundRect,0.250000X0.350000X0.450000X-0.350000X0.450000X-0.350000X-0.450000X0.350000X-0.450000X0*%
%ADD26RoundRect,0.250000X-0.350000X-0.450000X0.350000X-0.450000X0.350000X0.450000X-0.350000X0.450000X0*%
%ADD27R,3.500000X1.700000*%
%ADD28RoundRect,0.250000X0.475000X-0.337500X0.475000X0.337500X-0.475000X0.337500X-0.475000X-0.337500X0*%
G04 APERTURE END LIST*
D10*
X155368452Y-117546428D02*
X154606547Y-117546428D01*
X153368452Y-117546428D02*
X152606547Y-117546428D01*
X152987500Y-117927380D02*
X152987500Y-117165476D01*
X157058928Y-69004571D02*
X157058928Y-67504571D01*
X156487500Y-67504571D01*
X156344642Y-67576000D01*
X156273214Y-67647428D01*
X156201785Y-67790285D01*
X156201785Y-68004571D01*
X156273214Y-68147428D01*
X156344642Y-68218857D01*
X156487500Y-68290285D01*
X157058928Y-68290285D01*
X155630357Y-67647428D02*
X155558928Y-67576000D01*
X155416071Y-67504571D01*
X155058928Y-67504571D01*
X154916071Y-67576000D01*
X154844642Y-67647428D01*
X154773214Y-67790285D01*
X154773214Y-67933142D01*
X154844642Y-68147428D01*
X155701785Y-69004571D01*
X154773214Y-69004571D01*
X152987500Y-67504571D02*
X152987500Y-68718857D01*
X152916071Y-68861714D01*
X152844642Y-68933142D01*
X152701785Y-69004571D01*
X152416071Y-69004571D01*
X152273214Y-68933142D01*
X152201785Y-68861714D01*
X152130357Y-68718857D01*
X152130357Y-67504571D01*
X150701785Y-69004571D02*
X151416071Y-69004571D01*
X151416071Y-67504571D01*
X133353571Y-107358571D02*
X133353571Y-105858571D01*
X132782142Y-105858571D01*
X132639285Y-105930000D01*
X132567857Y-106001428D01*
X132496428Y-106144285D01*
X132496428Y-106358571D01*
X132567857Y-106501428D01*
X132639285Y-106572857D01*
X132782142Y-106644285D01*
X133353571Y-106644285D01*
X131067857Y-107358571D02*
X131925000Y-107358571D01*
X131496428Y-107358571D02*
X131496428Y-105858571D01*
X131639285Y-106072857D01*
X131782142Y-106215714D01*
X131925000Y-106287142D01*
X129282142Y-107358571D02*
X129282142Y-105858571D01*
X128925000Y-105858571D01*
X128710714Y-105930000D01*
X128567857Y-106072857D01*
X128496428Y-106215714D01*
X128425000Y-106501428D01*
X128425000Y-106715714D01*
X128496428Y-107001428D01*
X128567857Y-107144285D01*
X128710714Y-107287142D01*
X128925000Y-107358571D01*
X129282142Y-107358571D01*
X126925000Y-107358571D02*
X127425000Y-106644285D01*
X127782142Y-107358571D02*
X127782142Y-105858571D01*
X127210714Y-105858571D01*
X127067857Y-105930000D01*
X126996428Y-106001428D01*
X126925000Y-106144285D01*
X126925000Y-106358571D01*
X126996428Y-106501428D01*
X127067857Y-106572857D01*
X127210714Y-106644285D01*
X127782142Y-106644285D01*
X131555952Y-117546428D02*
X130794047Y-117546428D01*
X129555952Y-117546428D02*
X128794047Y-117546428D01*
X129175000Y-117927380D02*
X129175000Y-117165476D01*
X178005722Y-109083407D02*
X177924910Y-109056470D01*
X177844097Y-108975658D01*
X177790223Y-108867908D01*
X177790223Y-108760158D01*
X177817160Y-108679346D01*
X177897972Y-108544659D01*
X177978784Y-108463847D01*
X178113471Y-108383035D01*
X178194284Y-108356097D01*
X178302033Y-108356097D01*
X178409783Y-108409972D01*
X178463658Y-108463847D01*
X178517532Y-108571597D01*
X178517532Y-108625471D01*
X178328971Y-108814033D01*
X178221221Y-108706284D01*
X178813844Y-108814033D02*
X178248158Y-109379719D01*
X178463658Y-109595218D01*
X178544470Y-109622155D01*
X178598345Y-109622155D01*
X178679157Y-109595218D01*
X178759969Y-109514406D01*
X178786906Y-109433593D01*
X178786906Y-109379719D01*
X178759969Y-109298906D01*
X178544470Y-109083407D01*
X179675841Y-109676030D02*
X179352592Y-109352781D01*
X179514216Y-109514406D02*
X178948531Y-110080091D01*
X178975468Y-109945404D01*
X178975468Y-109837654D01*
X178948531Y-109756842D01*
X179621966Y-110753526D02*
X179352592Y-110484152D01*
X179595028Y-110187841D01*
X179595028Y-110241715D01*
X179621966Y-110322528D01*
X179756653Y-110457215D01*
X179837465Y-110484152D01*
X179891340Y-110484152D01*
X179972152Y-110457215D01*
X180106839Y-110322528D01*
X180133776Y-110241715D01*
X180133776Y-110187841D01*
X180106839Y-110107028D01*
X179972152Y-109972341D01*
X179891340Y-109945404D01*
X179837465Y-109945404D01*
X131555952Y-79446428D02*
X130794047Y-79446428D01*
X129555952Y-79446428D02*
X128794047Y-79446428D01*
X129175000Y-79827380D02*
X129175000Y-79065476D01*
X112505952Y-98496428D02*
X111744047Y-98496428D01*
X110505952Y-98496428D02*
X109744047Y-98496428D01*
X110125000Y-98877380D02*
X110125000Y-98115476D01*
X198183142Y-91336761D02*
X198040285Y-91384380D01*
X197802190Y-91384380D01*
X197706952Y-91336761D01*
X197659333Y-91289142D01*
X197611714Y-91193904D01*
X197611714Y-91098666D01*
X197659333Y-91003428D01*
X197706952Y-90955809D01*
X197802190Y-90908190D01*
X197992666Y-90860571D01*
X198087904Y-90812952D01*
X198135523Y-90765333D01*
X198183142Y-90670095D01*
X198183142Y-90574857D01*
X198135523Y-90479619D01*
X198087904Y-90432000D01*
X197992666Y-90384380D01*
X197754571Y-90384380D01*
X197611714Y-90432000D01*
X197183142Y-90860571D02*
X196849809Y-90860571D01*
X196706952Y-91384380D02*
X197183142Y-91384380D01*
X197183142Y-90384380D01*
X196706952Y-90384380D01*
X195706952Y-91384380D02*
X196040285Y-90908190D01*
X196278380Y-91384380D02*
X196278380Y-90384380D01*
X195897428Y-90384380D01*
X195802190Y-90432000D01*
X195754571Y-90479619D01*
X195706952Y-90574857D01*
X195706952Y-90717714D01*
X195754571Y-90812952D01*
X195802190Y-90860571D01*
X195897428Y-90908190D01*
X196278380Y-90908190D01*
X195421238Y-90384380D02*
X195087904Y-91384380D01*
X194754571Y-90384380D01*
X194421238Y-91384380D02*
X194421238Y-90384380D01*
X193373619Y-91289142D02*
X193421238Y-91336761D01*
X193564095Y-91384380D01*
X193659333Y-91384380D01*
X193802190Y-91336761D01*
X193897428Y-91241523D01*
X193945047Y-91146285D01*
X193992666Y-90955809D01*
X193992666Y-90812952D01*
X193945047Y-90622476D01*
X193897428Y-90527238D01*
X193802190Y-90432000D01*
X193659333Y-90384380D01*
X193564095Y-90384380D01*
X193421238Y-90432000D01*
X193373619Y-90479619D01*
X192945047Y-90860571D02*
X192611714Y-90860571D01*
X192468857Y-91384380D02*
X192945047Y-91384380D01*
X192945047Y-90384380D01*
X192468857Y-90384380D01*
X193468452Y-117546428D02*
X192706547Y-117546428D01*
X191468452Y-117546428D02*
X190706547Y-117546428D01*
X191087500Y-117927380D02*
X191087500Y-117165476D01*
X125855142Y-124404380D02*
X125855142Y-123404380D01*
X125426571Y-124404380D02*
X125426571Y-123880571D01*
X125474190Y-123785333D01*
X125569428Y-123737714D01*
X125712285Y-123737714D01*
X125807523Y-123785333D01*
X125855142Y-123832952D01*
X125093238Y-123737714D02*
X124712285Y-123737714D01*
X124950380Y-123404380D02*
X124950380Y-124261523D01*
X124902761Y-124356761D01*
X124807523Y-124404380D01*
X124712285Y-124404380D01*
X124521809Y-123737714D02*
X124140857Y-123737714D01*
X124378952Y-123404380D02*
X124378952Y-124261523D01*
X124331333Y-124356761D01*
X124236095Y-124404380D01*
X124140857Y-124404380D01*
X123807523Y-123737714D02*
X123807523Y-124737714D01*
X123807523Y-123785333D02*
X123712285Y-123737714D01*
X123521809Y-123737714D01*
X123426571Y-123785333D01*
X123378952Y-123832952D01*
X123331333Y-123928190D01*
X123331333Y-124213904D01*
X123378952Y-124309142D01*
X123426571Y-124356761D01*
X123521809Y-124404380D01*
X123712285Y-124404380D01*
X123807523Y-124356761D01*
X122950380Y-124356761D02*
X122855142Y-124404380D01*
X122664666Y-124404380D01*
X122569428Y-124356761D01*
X122521809Y-124261523D01*
X122521809Y-124213904D01*
X122569428Y-124118666D01*
X122664666Y-124071047D01*
X122807523Y-124071047D01*
X122902761Y-124023428D01*
X122950380Y-123928190D01*
X122950380Y-123880571D01*
X122902761Y-123785333D01*
X122807523Y-123737714D01*
X122664666Y-123737714D01*
X122569428Y-123785333D01*
X122093238Y-124309142D02*
X122045619Y-124356761D01*
X122093238Y-124404380D01*
X122140857Y-124356761D01*
X122093238Y-124309142D01*
X122093238Y-124404380D01*
X122093238Y-123785333D02*
X122045619Y-123832952D01*
X122093238Y-123880571D01*
X122140857Y-123832952D01*
X122093238Y-123785333D01*
X122093238Y-123880571D01*
X120902761Y-123356761D02*
X121759904Y-124642476D01*
X119855142Y-123356761D02*
X120712285Y-124642476D01*
X119093238Y-123737714D02*
X119093238Y-124547238D01*
X119140857Y-124642476D01*
X119188476Y-124690095D01*
X119283714Y-124737714D01*
X119426571Y-124737714D01*
X119521809Y-124690095D01*
X119093238Y-124356761D02*
X119188476Y-124404380D01*
X119378952Y-124404380D01*
X119474190Y-124356761D01*
X119521809Y-124309142D01*
X119569428Y-124213904D01*
X119569428Y-123928190D01*
X119521809Y-123832952D01*
X119474190Y-123785333D01*
X119378952Y-123737714D01*
X119188476Y-123737714D01*
X119093238Y-123785333D01*
X118617047Y-124404380D02*
X118617047Y-123737714D01*
X118617047Y-123404380D02*
X118664666Y-123452000D01*
X118617047Y-123499619D01*
X118569428Y-123452000D01*
X118617047Y-123404380D01*
X118617047Y-123499619D01*
X118283714Y-123737714D02*
X117902761Y-123737714D01*
X118140857Y-123404380D02*
X118140857Y-124261523D01*
X118093238Y-124356761D01*
X117998000Y-124404380D01*
X117902761Y-124404380D01*
X117569428Y-124404380D02*
X117569428Y-123404380D01*
X117140857Y-124404380D02*
X117140857Y-123880571D01*
X117188476Y-123785333D01*
X117283714Y-123737714D01*
X117426571Y-123737714D01*
X117521809Y-123785333D01*
X117569428Y-123832952D01*
X116236095Y-123737714D02*
X116236095Y-124404380D01*
X116664666Y-123737714D02*
X116664666Y-124261523D01*
X116617047Y-124356761D01*
X116521809Y-124404380D01*
X116378952Y-124404380D01*
X116283714Y-124356761D01*
X116236095Y-124309142D01*
X115759904Y-124404380D02*
X115759904Y-123404380D01*
X115759904Y-123785333D02*
X115664666Y-123737714D01*
X115474190Y-123737714D01*
X115378952Y-123785333D01*
X115331333Y-123832952D01*
X115283714Y-123928190D01*
X115283714Y-124213904D01*
X115331333Y-124309142D01*
X115378952Y-124356761D01*
X115474190Y-124404380D01*
X115664666Y-124404380D01*
X115759904Y-124356761D01*
X114855142Y-124309142D02*
X114807523Y-124356761D01*
X114855142Y-124404380D01*
X114902761Y-124356761D01*
X114855142Y-124309142D01*
X114855142Y-124404380D01*
X113950380Y-124356761D02*
X114045619Y-124404380D01*
X114236095Y-124404380D01*
X114331333Y-124356761D01*
X114378952Y-124309142D01*
X114426571Y-124213904D01*
X114426571Y-123928190D01*
X114378952Y-123832952D01*
X114331333Y-123785333D01*
X114236095Y-123737714D01*
X114045619Y-123737714D01*
X113950380Y-123785333D01*
X113378952Y-124404380D02*
X113474190Y-124356761D01*
X113521809Y-124309142D01*
X113569428Y-124213904D01*
X113569428Y-123928190D01*
X113521809Y-123832952D01*
X113474190Y-123785333D01*
X113378952Y-123737714D01*
X113236095Y-123737714D01*
X113140857Y-123785333D01*
X113093238Y-123832952D01*
X113045619Y-123928190D01*
X113045619Y-124213904D01*
X113093238Y-124309142D01*
X113140857Y-124356761D01*
X113236095Y-124404380D01*
X113378952Y-124404380D01*
X112617047Y-124404380D02*
X112617047Y-123737714D01*
X112617047Y-123832952D02*
X112569428Y-123785333D01*
X112474190Y-123737714D01*
X112331333Y-123737714D01*
X112236095Y-123785333D01*
X112188476Y-123880571D01*
X112188476Y-124404380D01*
X112188476Y-123880571D02*
X112140857Y-123785333D01*
X112045619Y-123737714D01*
X111902761Y-123737714D01*
X111807523Y-123785333D01*
X111759904Y-123880571D01*
X111759904Y-124404380D01*
X110569428Y-123356761D02*
X111426571Y-124642476D01*
X109807523Y-124404380D02*
X109807523Y-123404380D01*
X109807523Y-124356761D02*
X109902761Y-124404380D01*
X110093238Y-124404380D01*
X110188476Y-124356761D01*
X110236095Y-124309142D01*
X110283714Y-124213904D01*
X110283714Y-123928190D01*
X110236095Y-123832952D01*
X110188476Y-123785333D01*
X110093238Y-123737714D01*
X109902761Y-123737714D01*
X109807523Y-123785333D01*
X109331333Y-123737714D02*
X109331333Y-124594857D01*
X109378952Y-124690095D01*
X109474190Y-124737714D01*
X109521809Y-124737714D01*
X109331333Y-123404380D02*
X109378952Y-123452000D01*
X109331333Y-123499619D01*
X109283714Y-123452000D01*
X109331333Y-123404380D01*
X109331333Y-123499619D01*
X108378952Y-123404380D02*
X108855142Y-123404380D01*
X108902761Y-123880571D01*
X108855142Y-123832952D01*
X108759904Y-123785333D01*
X108521809Y-123785333D01*
X108426571Y-123832952D01*
X108378952Y-123880571D01*
X108331333Y-123975809D01*
X108331333Y-124213904D01*
X108378952Y-124309142D01*
X108426571Y-124356761D01*
X108521809Y-124404380D01*
X108759904Y-124404380D01*
X108855142Y-124356761D01*
X108902761Y-124309142D01*
X107712285Y-123404380D02*
X107617047Y-123404380D01*
X107521809Y-123452000D01*
X107474190Y-123499619D01*
X107426571Y-123594857D01*
X107378952Y-123785333D01*
X107378952Y-124023428D01*
X107426571Y-124213904D01*
X107474190Y-124309142D01*
X107521809Y-124356761D01*
X107617047Y-124404380D01*
X107712285Y-124404380D01*
X107807523Y-124356761D01*
X107855142Y-124309142D01*
X107902761Y-124213904D01*
X107950380Y-124023428D01*
X107950380Y-123785333D01*
X107902761Y-123594857D01*
X107855142Y-123499619D01*
X107807523Y-123452000D01*
X107712285Y-123404380D01*
X106474190Y-123404380D02*
X106950380Y-123404380D01*
X106998000Y-123880571D01*
X106950380Y-123832952D01*
X106855142Y-123785333D01*
X106617047Y-123785333D01*
X106521809Y-123832952D01*
X106474190Y-123880571D01*
X106426571Y-123975809D01*
X106426571Y-124213904D01*
X106474190Y-124309142D01*
X106521809Y-124356761D01*
X106617047Y-124404380D01*
X106855142Y-124404380D01*
X106950380Y-124356761D01*
X106998000Y-124309142D01*
X105283714Y-123356761D02*
X106140857Y-124642476D01*
X104950380Y-124404380D02*
X104950380Y-123404380D01*
X104474190Y-123737714D02*
X104474190Y-124404380D01*
X104474190Y-123832952D02*
X104426571Y-123785333D01*
X104331333Y-123737714D01*
X104188476Y-123737714D01*
X104093238Y-123785333D01*
X104045619Y-123880571D01*
X104045619Y-124404380D01*
X103712285Y-123737714D02*
X103331333Y-123737714D01*
X103569428Y-124404380D02*
X103569428Y-123547238D01*
X103521809Y-123452000D01*
X103426571Y-123404380D01*
X103331333Y-123404380D01*
X102998000Y-124404380D02*
X102998000Y-123737714D01*
X102998000Y-123404380D02*
X103045619Y-123452000D01*
X102998000Y-123499619D01*
X102950380Y-123452000D01*
X102998000Y-123404380D01*
X102998000Y-123499619D01*
X102521809Y-123737714D02*
X102521809Y-124404380D01*
X102521809Y-123832952D02*
X102474190Y-123785333D01*
X102378952Y-123737714D01*
X102236095Y-123737714D01*
X102140857Y-123785333D01*
X102093238Y-123880571D01*
X102093238Y-124404380D01*
X101617047Y-124404380D02*
X101617047Y-123737714D01*
X101617047Y-123404380D02*
X101664666Y-123452000D01*
X101617047Y-123499619D01*
X101569428Y-123452000D01*
X101617047Y-123404380D01*
X101617047Y-123499619D01*
X101283714Y-123737714D02*
X100902761Y-123737714D01*
X101140857Y-123404380D02*
X101140857Y-124261523D01*
X101093238Y-124356761D01*
X100998000Y-124404380D01*
X100902761Y-124404380D01*
X100188476Y-124356761D02*
X100283714Y-124404380D01*
X100474190Y-124404380D01*
X100569428Y-124356761D01*
X100617047Y-124261523D01*
X100617047Y-123880571D01*
X100569428Y-123785333D01*
X100474190Y-123737714D01*
X100283714Y-123737714D01*
X100188476Y-123785333D01*
X100140857Y-123880571D01*
X100140857Y-123975809D01*
X100617047Y-124071047D01*
X99759904Y-124356761D02*
X99664666Y-124404380D01*
X99474190Y-124404380D01*
X99378952Y-124356761D01*
X99331333Y-124261523D01*
X99331333Y-124213904D01*
X99378952Y-124118666D01*
X99474190Y-124071047D01*
X99617047Y-124071047D01*
X99712285Y-124023428D01*
X99759904Y-123928190D01*
X99759904Y-123880571D01*
X99712285Y-123785333D01*
X99617047Y-123737714D01*
X99474190Y-123737714D01*
X99378952Y-123785333D01*
X98902761Y-124404380D02*
X98902761Y-123737714D01*
X98902761Y-123404380D02*
X98950380Y-123452000D01*
X98902761Y-123499619D01*
X98855142Y-123452000D01*
X98902761Y-123404380D01*
X98902761Y-123499619D01*
X98426571Y-124404380D02*
X98426571Y-123737714D01*
X98426571Y-123832952D02*
X98378952Y-123785333D01*
X98283714Y-123737714D01*
X98140857Y-123737714D01*
X98045619Y-123785333D01*
X97998000Y-123880571D01*
X97998000Y-124404380D01*
X97998000Y-123880571D02*
X97950380Y-123785333D01*
X97855142Y-123737714D01*
X97712285Y-123737714D01*
X97617047Y-123785333D01*
X97569428Y-123880571D01*
X97569428Y-124404380D01*
X96664666Y-124404380D02*
X96664666Y-123880571D01*
X96712285Y-123785333D01*
X96807523Y-123737714D01*
X96998000Y-123737714D01*
X97093238Y-123785333D01*
X96664666Y-124356761D02*
X96759904Y-124404380D01*
X96998000Y-124404380D01*
X97093238Y-124356761D01*
X97140857Y-124261523D01*
X97140857Y-124166285D01*
X97093238Y-124071047D01*
X96998000Y-124023428D01*
X96759904Y-124023428D01*
X96664666Y-123975809D01*
X96045619Y-124404380D02*
X96140857Y-124356761D01*
X96188476Y-124261523D01*
X96188476Y-123404380D01*
X177859722Y-106543407D02*
X177778910Y-106516470D01*
X177698097Y-106435658D01*
X177644223Y-106327908D01*
X177644223Y-106220158D01*
X177671160Y-106139346D01*
X177751972Y-106004659D01*
X177832784Y-105923847D01*
X177967471Y-105843035D01*
X178048284Y-105816097D01*
X178156033Y-105816097D01*
X178263783Y-105869972D01*
X178317658Y-105923847D01*
X178371532Y-106031597D01*
X178371532Y-106085471D01*
X178182971Y-106274033D01*
X178075221Y-106166284D01*
X178667844Y-106274033D02*
X178102158Y-106839719D01*
X178317658Y-107055218D01*
X178398470Y-107082155D01*
X178452345Y-107082155D01*
X178533157Y-107055218D01*
X178613969Y-106974406D01*
X178640906Y-106893593D01*
X178640906Y-106839719D01*
X178613969Y-106758906D01*
X178398470Y-106543407D01*
X179529841Y-107136030D02*
X179206592Y-106812781D01*
X179368216Y-106974406D02*
X178802531Y-107540091D01*
X178829468Y-107405404D01*
X178829468Y-107297654D01*
X178802531Y-107216842D01*
X179637590Y-107998027D02*
X180014714Y-107620903D01*
X179287404Y-108078839D02*
X179556778Y-107540091D01*
X179906964Y-107890277D01*
X95384523Y-88309380D02*
X95146428Y-89309380D01*
X94955952Y-88595095D01*
X94765476Y-89309380D01*
X94527380Y-88309380D01*
X94194047Y-89261761D02*
X94051190Y-89309380D01*
X93813095Y-89309380D01*
X93717857Y-89261761D01*
X93670238Y-89214142D01*
X93622619Y-89118904D01*
X93622619Y-89023666D01*
X93670238Y-88928428D01*
X93717857Y-88880809D01*
X93813095Y-88833190D01*
X94003571Y-88785571D01*
X94098809Y-88737952D01*
X94146428Y-88690333D01*
X94194047Y-88595095D01*
X94194047Y-88499857D01*
X94146428Y-88404619D01*
X94098809Y-88357000D01*
X94003571Y-88309380D01*
X93765476Y-88309380D01*
X93622619Y-88357000D01*
X93241666Y-88404619D02*
X93194047Y-88357000D01*
X93098809Y-88309380D01*
X92860714Y-88309380D01*
X92765476Y-88357000D01*
X92717857Y-88404619D01*
X92670238Y-88499857D01*
X92670238Y-88595095D01*
X92717857Y-88737952D01*
X93289285Y-89309380D01*
X92670238Y-89309380D01*
X92098809Y-88737952D02*
X92194047Y-88690333D01*
X92241666Y-88642714D01*
X92289285Y-88547476D01*
X92289285Y-88499857D01*
X92241666Y-88404619D01*
X92194047Y-88357000D01*
X92098809Y-88309380D01*
X91908333Y-88309380D01*
X91813095Y-88357000D01*
X91765476Y-88404619D01*
X91717857Y-88499857D01*
X91717857Y-88547476D01*
X91765476Y-88642714D01*
X91813095Y-88690333D01*
X91908333Y-88737952D01*
X92098809Y-88737952D01*
X92194047Y-88785571D01*
X92241666Y-88833190D01*
X92289285Y-88928428D01*
X92289285Y-89118904D01*
X92241666Y-89214142D01*
X92194047Y-89261761D01*
X92098809Y-89309380D01*
X91908333Y-89309380D01*
X91813095Y-89261761D01*
X91765476Y-89214142D01*
X91717857Y-89118904D01*
X91717857Y-88928428D01*
X91765476Y-88833190D01*
X91813095Y-88785571D01*
X91908333Y-88737952D01*
X90765476Y-89309380D02*
X91336904Y-89309380D01*
X91051190Y-89309380D02*
X91051190Y-88309380D01*
X91146428Y-88452238D01*
X91241666Y-88547476D01*
X91336904Y-88595095D01*
X90384523Y-88404619D02*
X90336904Y-88357000D01*
X90241666Y-88309380D01*
X90003571Y-88309380D01*
X89908333Y-88357000D01*
X89860714Y-88404619D01*
X89813095Y-88499857D01*
X89813095Y-88595095D01*
X89860714Y-88737952D01*
X90432142Y-89309380D01*
X89813095Y-89309380D01*
X89051190Y-88785571D02*
X88908333Y-88833190D01*
X88860714Y-88880809D01*
X88813095Y-88976047D01*
X88813095Y-89118904D01*
X88860714Y-89214142D01*
X88908333Y-89261761D01*
X89003571Y-89309380D01*
X89384523Y-89309380D01*
X89384523Y-88309380D01*
X89051190Y-88309380D01*
X88955952Y-88357000D01*
X88908333Y-88404619D01*
X88860714Y-88499857D01*
X88860714Y-88595095D01*
X88908333Y-88690333D01*
X88955952Y-88737952D01*
X89051190Y-88785571D01*
X89384523Y-88785571D01*
X94836904Y-91300333D02*
X94884523Y-91252714D01*
X94979761Y-91109857D01*
X95027380Y-91014619D01*
X95075000Y-90871761D01*
X95122619Y-90633666D01*
X95122619Y-90443190D01*
X95075000Y-90205095D01*
X95027380Y-90062238D01*
X94979761Y-89967000D01*
X94884523Y-89824142D01*
X94836904Y-89776523D01*
X94027380Y-89919380D02*
X94217857Y-89919380D01*
X94313095Y-89967000D01*
X94360714Y-90014619D01*
X94455952Y-90157476D01*
X94503571Y-90347952D01*
X94503571Y-90728904D01*
X94455952Y-90824142D01*
X94408333Y-90871761D01*
X94313095Y-90919380D01*
X94122619Y-90919380D01*
X94027380Y-90871761D01*
X93979761Y-90824142D01*
X93932142Y-90728904D01*
X93932142Y-90490809D01*
X93979761Y-90395571D01*
X94027380Y-90347952D01*
X94122619Y-90300333D01*
X94313095Y-90300333D01*
X94408333Y-90347952D01*
X94455952Y-90395571D01*
X94503571Y-90490809D01*
X92265476Y-90919380D02*
X92741666Y-90919380D01*
X92741666Y-89919380D01*
X91932142Y-90395571D02*
X91598809Y-90395571D01*
X91455952Y-90919380D02*
X91932142Y-90919380D01*
X91932142Y-89919380D01*
X91455952Y-89919380D01*
X91027380Y-90919380D02*
X91027380Y-89919380D01*
X90789285Y-89919380D01*
X90646428Y-89967000D01*
X90551190Y-90062238D01*
X90503571Y-90157476D01*
X90455952Y-90347952D01*
X90455952Y-90490809D01*
X90503571Y-90681285D01*
X90551190Y-90776523D01*
X90646428Y-90871761D01*
X90789285Y-90919380D01*
X91027380Y-90919380D01*
X90075000Y-90871761D02*
X89979761Y-90919380D01*
X89789285Y-90919380D01*
X89694047Y-90871761D01*
X89646428Y-90776523D01*
X89646428Y-90728904D01*
X89694047Y-90633666D01*
X89789285Y-90586047D01*
X89932142Y-90586047D01*
X90027380Y-90538428D01*
X90075000Y-90443190D01*
X90075000Y-90395571D01*
X90027380Y-90300333D01*
X89932142Y-90252714D01*
X89789285Y-90252714D01*
X89694047Y-90300333D01*
X89313095Y-91300333D02*
X89265476Y-91252714D01*
X89170238Y-91109857D01*
X89122619Y-91014619D01*
X89075000Y-90871761D01*
X89027380Y-90633666D01*
X89027380Y-90443190D01*
X89075000Y-90205095D01*
X89122619Y-90062238D01*
X89170238Y-89967000D01*
X89265476Y-89824142D01*
X89313095Y-89776523D01*
X176251785Y-88308571D02*
X176251785Y-86808571D01*
X175680357Y-86808571D01*
X175537500Y-86880000D01*
X175466071Y-86951428D01*
X175394642Y-87094285D01*
X175394642Y-87308571D01*
X175466071Y-87451428D01*
X175537500Y-87522857D01*
X175680357Y-87594285D01*
X176251785Y-87594285D01*
X174823214Y-86951428D02*
X174751785Y-86880000D01*
X174608928Y-86808571D01*
X174251785Y-86808571D01*
X174108928Y-86880000D01*
X174037500Y-86951428D01*
X173966071Y-87094285D01*
X173966071Y-87237142D01*
X174037500Y-87451428D01*
X174894642Y-88308571D01*
X173966071Y-88308571D01*
X171323214Y-88165714D02*
X171394642Y-88237142D01*
X171608928Y-88308571D01*
X171751785Y-88308571D01*
X171966071Y-88237142D01*
X172108928Y-88094285D01*
X172180357Y-87951428D01*
X172251785Y-87665714D01*
X172251785Y-87451428D01*
X172180357Y-87165714D01*
X172108928Y-87022857D01*
X171966071Y-86880000D01*
X171751785Y-86808571D01*
X171608928Y-86808571D01*
X171394642Y-86880000D01*
X171323214Y-86951428D01*
X170680357Y-88308571D02*
X170680357Y-86808571D01*
X169823214Y-88308571D01*
X169823214Y-86808571D01*
X195301785Y-69004571D02*
X195301785Y-67504571D01*
X194730357Y-67504571D01*
X194587500Y-67576000D01*
X194516071Y-67647428D01*
X194444642Y-67790285D01*
X194444642Y-68004571D01*
X194516071Y-68147428D01*
X194587500Y-68218857D01*
X194730357Y-68290285D01*
X195301785Y-68290285D01*
X193873214Y-67647428D02*
X193801785Y-67576000D01*
X193658928Y-67504571D01*
X193301785Y-67504571D01*
X193158928Y-67576000D01*
X193087500Y-67647428D01*
X193016071Y-67790285D01*
X193016071Y-67933142D01*
X193087500Y-68147428D01*
X193944642Y-69004571D01*
X193016071Y-69004571D01*
X191230357Y-67504571D02*
X191230357Y-68718857D01*
X191158928Y-68861714D01*
X191087500Y-68933142D01*
X190944642Y-69004571D01*
X190658928Y-69004571D01*
X190516071Y-68933142D01*
X190444642Y-68861714D01*
X190373214Y-68718857D01*
X190373214Y-67504571D01*
X188801785Y-69004571D02*
X189301785Y-68290285D01*
X189658928Y-69004571D02*
X189658928Y-67504571D01*
X189087500Y-67504571D01*
X188944642Y-67576000D01*
X188873214Y-67647428D01*
X188801785Y-67790285D01*
X188801785Y-68004571D01*
X188873214Y-68147428D01*
X188944642Y-68218857D01*
X189087500Y-68290285D01*
X189658928Y-68290285D01*
X95146428Y-69004571D02*
X95146428Y-67504571D01*
X94575000Y-67504571D01*
X94432142Y-67576000D01*
X94360714Y-67647428D01*
X94289285Y-67790285D01*
X94289285Y-68004571D01*
X94360714Y-68147428D01*
X94432142Y-68218857D01*
X94575000Y-68290285D01*
X95146428Y-68290285D01*
X92860714Y-69004571D02*
X93717857Y-69004571D01*
X93289285Y-69004571D02*
X93289285Y-67504571D01*
X93432142Y-67718857D01*
X93575000Y-67861714D01*
X93717857Y-67933142D01*
X91075000Y-67504571D02*
X91075000Y-68718857D01*
X91003571Y-68861714D01*
X90932142Y-68933142D01*
X90789285Y-69004571D01*
X90503571Y-69004571D01*
X90360714Y-68933142D01*
X90289285Y-68861714D01*
X90217857Y-68718857D01*
X90217857Y-67504571D01*
X88789285Y-69004571D02*
X89503571Y-69004571D01*
X89503571Y-67504571D01*
X92615428Y-93371142D02*
X92615428Y-92471142D01*
X92401142Y-92471142D01*
X92272571Y-92514000D01*
X92186857Y-92599714D01*
X92144000Y-92685428D01*
X92101142Y-92856857D01*
X92101142Y-92985428D01*
X92144000Y-93156857D01*
X92186857Y-93242571D01*
X92272571Y-93328285D01*
X92401142Y-93371142D01*
X92615428Y-93371142D01*
X91715428Y-93371142D02*
X91715428Y-92471142D01*
X91286857Y-93371142D02*
X91286857Y-92471142D01*
X90772571Y-93371142D01*
X90772571Y-92471142D01*
X133389285Y-69004571D02*
X133389285Y-67504571D01*
X132817857Y-67504571D01*
X132675000Y-67576000D01*
X132603571Y-67647428D01*
X132532142Y-67790285D01*
X132532142Y-68004571D01*
X132603571Y-68147428D01*
X132675000Y-68218857D01*
X132817857Y-68290285D01*
X133389285Y-68290285D01*
X131103571Y-69004571D02*
X131960714Y-69004571D01*
X131532142Y-69004571D02*
X131532142Y-67504571D01*
X131675000Y-67718857D01*
X131817857Y-67861714D01*
X131960714Y-67933142D01*
X129317857Y-67504571D02*
X129317857Y-68718857D01*
X129246428Y-68861714D01*
X129175000Y-68933142D01*
X129032142Y-69004571D01*
X128746428Y-69004571D01*
X128603571Y-68933142D01*
X128532142Y-68861714D01*
X128460714Y-68718857D01*
X128460714Y-67504571D01*
X126889285Y-69004571D02*
X127389285Y-68290285D01*
X127746428Y-69004571D02*
X127746428Y-67504571D01*
X127175000Y-67504571D01*
X127032142Y-67576000D01*
X126960714Y-67647428D01*
X126889285Y-67790285D01*
X126889285Y-68004571D01*
X126960714Y-68147428D01*
X127032142Y-68218857D01*
X127175000Y-68290285D01*
X127746428Y-68290285D01*
X93455952Y-79446428D02*
X92694047Y-79446428D01*
X91455952Y-79446428D02*
X90694047Y-79446428D01*
X91075000Y-79827380D02*
X91075000Y-79065476D01*
D11*
X177045428Y-62777714D02*
X176616857Y-62920571D01*
X176474000Y-63063428D01*
X176331142Y-63349142D01*
X176331142Y-63777714D01*
X176474000Y-64063428D01*
X176616857Y-64206285D01*
X176902571Y-64349142D01*
X178045428Y-64349142D01*
X178045428Y-61349142D01*
X177045428Y-61349142D01*
X176759714Y-61492000D01*
X176616857Y-61634857D01*
X176474000Y-61920571D01*
X176474000Y-62206285D01*
X176616857Y-62492000D01*
X176759714Y-62634857D01*
X177045428Y-62777714D01*
X178045428Y-62777714D01*
X175188285Y-63492000D02*
X173759714Y-63492000D01*
X175474000Y-64349142D02*
X174474000Y-61349142D01*
X173474000Y-64349142D01*
X170759714Y-64063428D02*
X170902571Y-64206285D01*
X171331142Y-64349142D01*
X171616857Y-64349142D01*
X172045428Y-64206285D01*
X172331142Y-63920571D01*
X172474000Y-63634857D01*
X172616857Y-63063428D01*
X172616857Y-62634857D01*
X172474000Y-62063428D01*
X172331142Y-61777714D01*
X172045428Y-61492000D01*
X171616857Y-61349142D01*
X171331142Y-61349142D01*
X170902571Y-61492000D01*
X170759714Y-61634857D01*
X169474000Y-64349142D02*
X169474000Y-61349142D01*
X167759714Y-64349142D02*
X169045428Y-62634857D01*
X167759714Y-61349142D02*
X169474000Y-63063428D01*
D10*
X93519428Y-101453761D02*
X93376571Y-101501380D01*
X93138476Y-101501380D01*
X93043238Y-101453761D01*
X92995619Y-101406142D01*
X92948000Y-101310904D01*
X92948000Y-101215666D01*
X92995619Y-101120428D01*
X93043238Y-101072809D01*
X93138476Y-101025190D01*
X93328952Y-100977571D01*
X93424190Y-100929952D01*
X93471809Y-100882333D01*
X93519428Y-100787095D01*
X93519428Y-100691857D01*
X93471809Y-100596619D01*
X93424190Y-100549000D01*
X93328952Y-100501380D01*
X93090857Y-100501380D01*
X92948000Y-100549000D01*
X92662285Y-100834714D02*
X92281333Y-100834714D01*
X92519428Y-100501380D02*
X92519428Y-101358523D01*
X92471809Y-101453761D01*
X92376571Y-101501380D01*
X92281333Y-101501380D01*
X91948000Y-101501380D02*
X91948000Y-100834714D01*
X91948000Y-101025190D02*
X91900380Y-100929952D01*
X91852761Y-100882333D01*
X91757523Y-100834714D01*
X91662285Y-100834714D01*
X91328952Y-101501380D02*
X91328952Y-100834714D01*
X91328952Y-100501380D02*
X91376571Y-100549000D01*
X91328952Y-100596619D01*
X91281333Y-100549000D01*
X91328952Y-100501380D01*
X91328952Y-100596619D01*
X90852761Y-100834714D02*
X90852761Y-101834714D01*
X90852761Y-100882333D02*
X90757523Y-100834714D01*
X90567047Y-100834714D01*
X90471809Y-100882333D01*
X90424190Y-100929952D01*
X90376571Y-101025190D01*
X90376571Y-101310904D01*
X90424190Y-101406142D01*
X90471809Y-101453761D01*
X90567047Y-101501380D01*
X90757523Y-101501380D01*
X90852761Y-101453761D01*
X94209904Y-102587571D02*
X93876571Y-102587571D01*
X93733714Y-103111380D02*
X94209904Y-103111380D01*
X94209904Y-102111380D01*
X93733714Y-102111380D01*
X93305142Y-102444714D02*
X93305142Y-103111380D01*
X93305142Y-102539952D02*
X93257523Y-102492333D01*
X93162285Y-102444714D01*
X93019428Y-102444714D01*
X92924190Y-102492333D01*
X92876571Y-102587571D01*
X92876571Y-103111380D01*
X91971809Y-103111380D02*
X91971809Y-102587571D01*
X92019428Y-102492333D01*
X92114666Y-102444714D01*
X92305142Y-102444714D01*
X92400380Y-102492333D01*
X91971809Y-103063761D02*
X92067047Y-103111380D01*
X92305142Y-103111380D01*
X92400380Y-103063761D01*
X92448000Y-102968523D01*
X92448000Y-102873285D01*
X92400380Y-102778047D01*
X92305142Y-102730428D01*
X92067047Y-102730428D01*
X91971809Y-102682809D01*
X91495619Y-103111380D02*
X91495619Y-102111380D01*
X91495619Y-102492333D02*
X91400380Y-102444714D01*
X91209904Y-102444714D01*
X91114666Y-102492333D01*
X91067047Y-102539952D01*
X91019428Y-102635190D01*
X91019428Y-102920904D01*
X91067047Y-103016142D01*
X91114666Y-103063761D01*
X91209904Y-103111380D01*
X91400380Y-103111380D01*
X91495619Y-103063761D01*
X90448000Y-103111380D02*
X90543238Y-103063761D01*
X90590857Y-102968523D01*
X90590857Y-102111380D01*
X89686095Y-103063761D02*
X89781333Y-103111380D01*
X89971809Y-103111380D01*
X90067047Y-103063761D01*
X90114666Y-102968523D01*
X90114666Y-102587571D01*
X90067047Y-102492333D01*
X89971809Y-102444714D01*
X89781333Y-102444714D01*
X89686095Y-102492333D01*
X89638476Y-102587571D01*
X89638476Y-102682809D01*
X90114666Y-102778047D01*
X93455952Y-117546428D02*
X92694047Y-117546428D01*
X91455952Y-117546428D02*
X90694047Y-117546428D01*
X91075000Y-117927380D02*
X91075000Y-117165476D01*
X196921238Y-99020380D02*
X196349809Y-99020380D01*
X196635523Y-100020380D02*
X196635523Y-99020380D01*
X196016476Y-99496571D02*
X195683142Y-99496571D01*
X195540285Y-100020380D02*
X196016476Y-100020380D01*
X196016476Y-99020380D01*
X195540285Y-99020380D01*
X195159333Y-99972761D02*
X195016476Y-100020380D01*
X194778380Y-100020380D01*
X194683142Y-99972761D01*
X194635523Y-99925142D01*
X194587904Y-99829904D01*
X194587904Y-99734666D01*
X194635523Y-99639428D01*
X194683142Y-99591809D01*
X194778380Y-99544190D01*
X194968857Y-99496571D01*
X195064095Y-99448952D01*
X195111714Y-99401333D01*
X195159333Y-99306095D01*
X195159333Y-99210857D01*
X195111714Y-99115619D01*
X195064095Y-99068000D01*
X194968857Y-99020380D01*
X194730761Y-99020380D01*
X194587904Y-99068000D01*
X194302190Y-99020380D02*
X193730761Y-99020380D01*
X194016476Y-100020380D02*
X194016476Y-99020380D01*
D11*
X112950380Y-107108761D02*
X111807523Y-107108761D01*
X112378952Y-109108761D02*
X112378952Y-107108761D01*
X111140857Y-109108761D02*
X111140857Y-107775428D01*
X111140857Y-108156380D02*
X111045619Y-107965904D01*
X110950380Y-107870666D01*
X110759904Y-107775428D01*
X110569428Y-107775428D01*
X110093238Y-107775428D02*
X109617047Y-109108761D01*
X109140857Y-107775428D02*
X109617047Y-109108761D01*
X109807523Y-109584952D01*
X109902761Y-109680190D01*
X110093238Y-109775428D01*
D10*
X174418452Y-98496428D02*
X173656547Y-98496428D01*
X172418452Y-98496428D02*
X171656547Y-98496428D01*
X172037500Y-98877380D02*
X172037500Y-98115476D01*
X114339285Y-88308571D02*
X114339285Y-86808571D01*
X113767857Y-86808571D01*
X113625000Y-86880000D01*
X113553571Y-86951428D01*
X113482142Y-87094285D01*
X113482142Y-87308571D01*
X113553571Y-87451428D01*
X113625000Y-87522857D01*
X113767857Y-87594285D01*
X114339285Y-87594285D01*
X112053571Y-88308571D02*
X112910714Y-88308571D01*
X112482142Y-88308571D02*
X112482142Y-86808571D01*
X112625000Y-87022857D01*
X112767857Y-87165714D01*
X112910714Y-87237142D01*
X109410714Y-88165714D02*
X109482142Y-88237142D01*
X109696428Y-88308571D01*
X109839285Y-88308571D01*
X110053571Y-88237142D01*
X110196428Y-88094285D01*
X110267857Y-87951428D01*
X110339285Y-87665714D01*
X110339285Y-87451428D01*
X110267857Y-87165714D01*
X110196428Y-87022857D01*
X110053571Y-86880000D01*
X109839285Y-86808571D01*
X109696428Y-86808571D01*
X109482142Y-86880000D01*
X109410714Y-86951428D01*
X108767857Y-88308571D02*
X108767857Y-86808571D01*
X107910714Y-88308571D01*
X107910714Y-86808571D01*
X89579428Y-92471142D02*
X90008000Y-92471142D01*
X90050857Y-92899714D01*
X90008000Y-92856857D01*
X89922285Y-92814000D01*
X89708000Y-92814000D01*
X89622285Y-92856857D01*
X89579428Y-92899714D01*
X89536571Y-92985428D01*
X89536571Y-93199714D01*
X89579428Y-93285428D01*
X89622285Y-93328285D01*
X89708000Y-93371142D01*
X89922285Y-93371142D01*
X90008000Y-93328285D01*
X90050857Y-93285428D01*
X89279428Y-92471142D02*
X88979428Y-93371142D01*
X88679428Y-92471142D01*
X155368452Y-79446428D02*
X154606547Y-79446428D01*
X153368452Y-79446428D02*
X152606547Y-79446428D01*
X152987500Y-79827380D02*
X152987500Y-79065476D01*
X157023214Y-107358571D02*
X157023214Y-105858571D01*
X156451785Y-105858571D01*
X156308928Y-105930000D01*
X156237500Y-106001428D01*
X156166071Y-106144285D01*
X156166071Y-106358571D01*
X156237500Y-106501428D01*
X156308928Y-106572857D01*
X156451785Y-106644285D01*
X157023214Y-106644285D01*
X155594642Y-106001428D02*
X155523214Y-105930000D01*
X155380357Y-105858571D01*
X155023214Y-105858571D01*
X154880357Y-105930000D01*
X154808928Y-106001428D01*
X154737500Y-106144285D01*
X154737500Y-106287142D01*
X154808928Y-106501428D01*
X155666071Y-107358571D01*
X154737500Y-107358571D01*
X152951785Y-107358571D02*
X152951785Y-105858571D01*
X152594642Y-105858571D01*
X152380357Y-105930000D01*
X152237500Y-106072857D01*
X152166071Y-106215714D01*
X152094642Y-106501428D01*
X152094642Y-106715714D01*
X152166071Y-107001428D01*
X152237500Y-107144285D01*
X152380357Y-107287142D01*
X152594642Y-107358571D01*
X152951785Y-107358571D01*
X150737500Y-107358571D02*
X151451785Y-107358571D01*
X151451785Y-105858571D01*
X195266071Y-107358571D02*
X195266071Y-105858571D01*
X194694642Y-105858571D01*
X194551785Y-105930000D01*
X194480357Y-106001428D01*
X194408928Y-106144285D01*
X194408928Y-106358571D01*
X194480357Y-106501428D01*
X194551785Y-106572857D01*
X194694642Y-106644285D01*
X195266071Y-106644285D01*
X192980357Y-107358571D02*
X193837500Y-107358571D01*
X193408928Y-107358571D02*
X193408928Y-105858571D01*
X193551785Y-106072857D01*
X193694642Y-106215714D01*
X193837500Y-106287142D01*
X191194642Y-107358571D02*
X191194642Y-105858571D01*
X190837500Y-105858571D01*
X190623214Y-105930000D01*
X190480357Y-106072857D01*
X190408928Y-106215714D01*
X190337500Y-106501428D01*
X190337500Y-106715714D01*
X190408928Y-107001428D01*
X190480357Y-107144285D01*
X190623214Y-107287142D01*
X190837500Y-107358571D01*
X191194642Y-107358571D01*
X188837500Y-107358571D02*
X189337500Y-106644285D01*
X189694642Y-107358571D02*
X189694642Y-105858571D01*
X189123214Y-105858571D01*
X188980357Y-105930000D01*
X188908928Y-106001428D01*
X188837500Y-106144285D01*
X188837500Y-106358571D01*
X188908928Y-106501428D01*
X188980357Y-106572857D01*
X189123214Y-106644285D01*
X189694642Y-106644285D01*
X193468452Y-79446428D02*
X192706547Y-79446428D01*
X191468452Y-79446428D02*
X190706547Y-79446428D01*
X191087500Y-79827380D02*
X191087500Y-79065476D01*
X95110714Y-107358571D02*
X95110714Y-105858571D01*
X94539285Y-105858571D01*
X94396428Y-105930000D01*
X94325000Y-106001428D01*
X94253571Y-106144285D01*
X94253571Y-106358571D01*
X94325000Y-106501428D01*
X94396428Y-106572857D01*
X94539285Y-106644285D01*
X95110714Y-106644285D01*
X92825000Y-107358571D02*
X93682142Y-107358571D01*
X93253571Y-107358571D02*
X93253571Y-105858571D01*
X93396428Y-106072857D01*
X93539285Y-106215714D01*
X93682142Y-106287142D01*
X91039285Y-107358571D02*
X91039285Y-105858571D01*
X90682142Y-105858571D01*
X90467857Y-105930000D01*
X90325000Y-106072857D01*
X90253571Y-106215714D01*
X90182142Y-106501428D01*
X90182142Y-106715714D01*
X90253571Y-107001428D01*
X90325000Y-107144285D01*
X90467857Y-107287142D01*
X90682142Y-107358571D01*
X91039285Y-107358571D01*
X88825000Y-107358571D02*
X89539285Y-107358571D01*
X89539285Y-105858571D01*
X173894642Y-76288511D02*
X174561309Y-75336130D01*
X175037500Y-76288511D02*
X175037500Y-74288511D01*
X174275595Y-74288511D01*
X174085119Y-74383750D01*
X173989880Y-74478988D01*
X173894642Y-74669464D01*
X173894642Y-74955178D01*
X173989880Y-75145654D01*
X174085119Y-75240892D01*
X174275595Y-75336130D01*
X175037500Y-75336130D01*
X173037500Y-76288511D02*
X173037500Y-74288511D01*
X172275595Y-74288511D01*
X172085119Y-74383750D01*
X171989880Y-74478988D01*
X171894642Y-74669464D01*
X171894642Y-74955178D01*
X171989880Y-75145654D01*
X172085119Y-75240892D01*
X172275595Y-75336130D01*
X173037500Y-75336130D01*
X171037500Y-76288511D02*
X171037500Y-74955178D01*
X171037500Y-74288511D02*
X171132738Y-74383750D01*
X171037500Y-74478988D01*
X170942261Y-74383750D01*
X171037500Y-74288511D01*
X171037500Y-74478988D01*
X175799404Y-79508511D02*
X175799404Y-77508511D01*
X175037500Y-77508511D01*
X174847023Y-77603750D01*
X174751785Y-77698988D01*
X174656547Y-77889464D01*
X174656547Y-78175178D01*
X174751785Y-78365654D01*
X174847023Y-78460892D01*
X175037500Y-78556130D01*
X175799404Y-78556130D01*
X173799404Y-79508511D02*
X173799404Y-78175178D01*
X173799404Y-77508511D02*
X173894642Y-77603750D01*
X173799404Y-77698988D01*
X173704166Y-77603750D01*
X173799404Y-77508511D01*
X173799404Y-77698988D01*
X171989880Y-79413273D02*
X172180357Y-79508511D01*
X172561309Y-79508511D01*
X172751785Y-79413273D01*
X172847023Y-79318035D01*
X172942261Y-79127559D01*
X172942261Y-78556130D01*
X172847023Y-78365654D01*
X172751785Y-78270416D01*
X172561309Y-78175178D01*
X172180357Y-78175178D01*
X171989880Y-78270416D01*
X170847023Y-79508511D02*
X171037500Y-79413273D01*
X171132738Y-79318035D01*
X171227976Y-79127559D01*
X171227976Y-78556130D01*
X171132738Y-78365654D01*
X171037500Y-78270416D01*
X170847023Y-78175178D01*
X170561309Y-78175178D01*
X170370833Y-78270416D01*
X170275595Y-78365654D01*
X170180357Y-78556130D01*
X170180357Y-79127559D01*
X170275595Y-79318035D01*
X170370833Y-79413273D01*
X170561309Y-79508511D01*
X170847023Y-79508511D01*
X95173714Y-92514000D02*
X95259428Y-92471142D01*
X95388000Y-92471142D01*
X95516571Y-92514000D01*
X95602285Y-92599714D01*
X95645142Y-92685428D01*
X95688000Y-92856857D01*
X95688000Y-92985428D01*
X95645142Y-93156857D01*
X95602285Y-93242571D01*
X95516571Y-93328285D01*
X95388000Y-93371142D01*
X95302285Y-93371142D01*
X95173714Y-93328285D01*
X95130857Y-93285428D01*
X95130857Y-92985428D01*
X95302285Y-92985428D01*
X94745142Y-93371142D02*
X94745142Y-92471142D01*
X94230857Y-93371142D01*
X94230857Y-92471142D01*
X93802285Y-93371142D02*
X93802285Y-92471142D01*
X93588000Y-92471142D01*
X93459428Y-92514000D01*
X93373714Y-92599714D01*
X93330857Y-92685428D01*
X93288000Y-92856857D01*
X93288000Y-92985428D01*
X93330857Y-93156857D01*
X93373714Y-93242571D01*
X93459428Y-93328285D01*
X93588000Y-93371142D01*
X93802285Y-93371142D01*
%TO.C,LED3*%
X142089047Y-64714380D02*
X142565238Y-64714380D01*
X142565238Y-63714380D01*
X141755714Y-64190571D02*
X141422380Y-64190571D01*
X141279523Y-64714380D02*
X141755714Y-64714380D01*
X141755714Y-63714380D01*
X141279523Y-63714380D01*
X140850952Y-64714380D02*
X140850952Y-63714380D01*
X140612857Y-63714380D01*
X140470000Y-63762000D01*
X140374761Y-63857238D01*
X140327142Y-63952476D01*
X140279523Y-64142952D01*
X140279523Y-64285809D01*
X140327142Y-64476285D01*
X140374761Y-64571523D01*
X140470000Y-64666761D01*
X140612857Y-64714380D01*
X140850952Y-64714380D01*
X139946190Y-63714380D02*
X139327142Y-63714380D01*
X139660476Y-64095333D01*
X139517619Y-64095333D01*
X139422380Y-64142952D01*
X139374761Y-64190571D01*
X139327142Y-64285809D01*
X139327142Y-64523904D01*
X139374761Y-64619142D01*
X139422380Y-64666761D01*
X139517619Y-64714380D01*
X139803333Y-64714380D01*
X139898571Y-64666761D01*
X139946190Y-64619142D01*
X144834285Y-63114380D02*
X145405714Y-63114380D01*
X145120000Y-63114380D02*
X145120000Y-62114380D01*
X145215238Y-62257238D01*
X145310476Y-62352476D01*
X145405714Y-62400095D01*
%TO.C,C1*%
X95162666Y-125833142D02*
X95210285Y-125880761D01*
X95353142Y-125928380D01*
X95448380Y-125928380D01*
X95591238Y-125880761D01*
X95686476Y-125785523D01*
X95734095Y-125690285D01*
X95781714Y-125499809D01*
X95781714Y-125356952D01*
X95734095Y-125166476D01*
X95686476Y-125071238D01*
X95591238Y-124976000D01*
X95448380Y-124928380D01*
X95353142Y-124928380D01*
X95210285Y-124976000D01*
X95162666Y-125023619D01*
X94210285Y-125928380D02*
X94781714Y-125928380D01*
X94496000Y-125928380D02*
X94496000Y-124928380D01*
X94591238Y-125071238D01*
X94686476Y-125166476D01*
X94781714Y-125214095D01*
%TO.C,R6*%
X154344666Y-122118380D02*
X154678000Y-121642190D01*
X154916095Y-122118380D02*
X154916095Y-121118380D01*
X154535142Y-121118380D01*
X154439904Y-121166000D01*
X154392285Y-121213619D01*
X154344666Y-121308857D01*
X154344666Y-121451714D01*
X154392285Y-121546952D01*
X154439904Y-121594571D01*
X154535142Y-121642190D01*
X154916095Y-121642190D01*
X153487523Y-121118380D02*
X153678000Y-121118380D01*
X153773238Y-121166000D01*
X153820857Y-121213619D01*
X153916095Y-121356476D01*
X153963714Y-121546952D01*
X153963714Y-121927904D01*
X153916095Y-122023142D01*
X153868476Y-122070761D01*
X153773238Y-122118380D01*
X153582761Y-122118380D01*
X153487523Y-122070761D01*
X153439904Y-122023142D01*
X153392285Y-121927904D01*
X153392285Y-121689809D01*
X153439904Y-121594571D01*
X153487523Y-121546952D01*
X153582761Y-121499333D01*
X153773238Y-121499333D01*
X153868476Y-121546952D01*
X153916095Y-121594571D01*
X153963714Y-121689809D01*
%TO.C,C2*%
X94908666Y-65889142D02*
X94956285Y-65936761D01*
X95099142Y-65984380D01*
X95194380Y-65984380D01*
X95337238Y-65936761D01*
X95432476Y-65841523D01*
X95480095Y-65746285D01*
X95527714Y-65555809D01*
X95527714Y-65412952D01*
X95480095Y-65222476D01*
X95432476Y-65127238D01*
X95337238Y-65032000D01*
X95194380Y-64984380D01*
X95099142Y-64984380D01*
X94956285Y-65032000D01*
X94908666Y-65079619D01*
X94527714Y-65079619D02*
X94480095Y-65032000D01*
X94384857Y-64984380D01*
X94146761Y-64984380D01*
X94051523Y-65032000D01*
X94003904Y-65079619D01*
X93956285Y-65174857D01*
X93956285Y-65270095D01*
X94003904Y-65412952D01*
X94575333Y-65984380D01*
X93956285Y-65984380D01*
%TO.C,R8*%
X173140666Y-112466380D02*
X173474000Y-111990190D01*
X173712095Y-112466380D02*
X173712095Y-111466380D01*
X173331142Y-111466380D01*
X173235904Y-111514000D01*
X173188285Y-111561619D01*
X173140666Y-111656857D01*
X173140666Y-111799714D01*
X173188285Y-111894952D01*
X173235904Y-111942571D01*
X173331142Y-111990190D01*
X173712095Y-111990190D01*
X172569238Y-111894952D02*
X172664476Y-111847333D01*
X172712095Y-111799714D01*
X172759714Y-111704476D01*
X172759714Y-111656857D01*
X172712095Y-111561619D01*
X172664476Y-111514000D01*
X172569238Y-111466380D01*
X172378761Y-111466380D01*
X172283523Y-111514000D01*
X172235904Y-111561619D01*
X172188285Y-111656857D01*
X172188285Y-111704476D01*
X172235904Y-111799714D01*
X172283523Y-111847333D01*
X172378761Y-111894952D01*
X172569238Y-111894952D01*
X172664476Y-111942571D01*
X172712095Y-111990190D01*
X172759714Y-112085428D01*
X172759714Y-112275904D01*
X172712095Y-112371142D01*
X172664476Y-112418761D01*
X172569238Y-112466380D01*
X172378761Y-112466380D01*
X172283523Y-112418761D01*
X172235904Y-112371142D01*
X172188285Y-112275904D01*
X172188285Y-112085428D01*
X172235904Y-111990190D01*
X172283523Y-111942571D01*
X172378761Y-111894952D01*
%TO.C,R9*%
X192444666Y-84018380D02*
X192778000Y-83542190D01*
X193016095Y-84018380D02*
X193016095Y-83018380D01*
X192635142Y-83018380D01*
X192539904Y-83066000D01*
X192492285Y-83113619D01*
X192444666Y-83208857D01*
X192444666Y-83351714D01*
X192492285Y-83446952D01*
X192539904Y-83494571D01*
X192635142Y-83542190D01*
X193016095Y-83542190D01*
X191968476Y-84018380D02*
X191778000Y-84018380D01*
X191682761Y-83970761D01*
X191635142Y-83923142D01*
X191539904Y-83780285D01*
X191492285Y-83589809D01*
X191492285Y-83208857D01*
X191539904Y-83113619D01*
X191587523Y-83066000D01*
X191682761Y-83018380D01*
X191873238Y-83018380D01*
X191968476Y-83066000D01*
X192016095Y-83113619D01*
X192063714Y-83208857D01*
X192063714Y-83446952D01*
X192016095Y-83542190D01*
X191968476Y-83589809D01*
X191873238Y-83637428D01*
X191682761Y-83637428D01*
X191587523Y-83589809D01*
X191539904Y-83542190D01*
X191492285Y-83446952D01*
%TO.C,LED4*%
X142089047Y-125928380D02*
X142565238Y-125928380D01*
X142565238Y-124928380D01*
X141755714Y-125404571D02*
X141422380Y-125404571D01*
X141279523Y-125928380D02*
X141755714Y-125928380D01*
X141755714Y-124928380D01*
X141279523Y-124928380D01*
X140850952Y-125928380D02*
X140850952Y-124928380D01*
X140612857Y-124928380D01*
X140470000Y-124976000D01*
X140374761Y-125071238D01*
X140327142Y-125166476D01*
X140279523Y-125356952D01*
X140279523Y-125499809D01*
X140327142Y-125690285D01*
X140374761Y-125785523D01*
X140470000Y-125880761D01*
X140612857Y-125928380D01*
X140850952Y-125928380D01*
X139422380Y-125261714D02*
X139422380Y-125928380D01*
X139660476Y-124880761D02*
X139898571Y-125595047D01*
X139279523Y-125595047D01*
X144834285Y-124328380D02*
X145405714Y-124328380D01*
X145120000Y-124328380D02*
X145120000Y-123328380D01*
X145215238Y-123471238D01*
X145310476Y-123566476D01*
X145405714Y-123614095D01*
%TO.C,R10*%
X187586857Y-118308380D02*
X187920190Y-117832190D01*
X188158285Y-118308380D02*
X188158285Y-117308380D01*
X187777333Y-117308380D01*
X187682095Y-117356000D01*
X187634476Y-117403619D01*
X187586857Y-117498857D01*
X187586857Y-117641714D01*
X187634476Y-117736952D01*
X187682095Y-117784571D01*
X187777333Y-117832190D01*
X188158285Y-117832190D01*
X186634476Y-118308380D02*
X187205904Y-118308380D01*
X186920190Y-118308380D02*
X186920190Y-117308380D01*
X187015428Y-117451238D01*
X187110666Y-117546476D01*
X187205904Y-117594095D01*
X186015428Y-117308380D02*
X185920190Y-117308380D01*
X185824952Y-117356000D01*
X185777333Y-117403619D01*
X185729714Y-117498857D01*
X185682095Y-117689333D01*
X185682095Y-117927428D01*
X185729714Y-118117904D01*
X185777333Y-118213142D01*
X185824952Y-118260761D01*
X185920190Y-118308380D01*
X186015428Y-118308380D01*
X186110666Y-118260761D01*
X186158285Y-118213142D01*
X186205904Y-118117904D01*
X186253523Y-117927428D01*
X186253523Y-117689333D01*
X186205904Y-117498857D01*
X186158285Y-117403619D01*
X186110666Y-117356000D01*
X186015428Y-117308380D01*
%TO.C,U1*%
X173729654Y-72096380D02*
X173729654Y-72905904D01*
X173682035Y-73001142D01*
X173634416Y-73048761D01*
X173539178Y-73096380D01*
X173348702Y-73096380D01*
X173253464Y-73048761D01*
X173205845Y-73001142D01*
X173158226Y-72905904D01*
X173158226Y-72096380D01*
X172158226Y-73096380D02*
X172729654Y-73096380D01*
X172443940Y-73096380D02*
X172443940Y-72096380D01*
X172539178Y-72239238D01*
X172634416Y-72334476D01*
X172729654Y-72382095D01*
X158957472Y-88952405D02*
X158876660Y-88925468D01*
X158795847Y-88844656D01*
X158741973Y-88736906D01*
X158741973Y-88629156D01*
X158768910Y-88548344D01*
X158849722Y-88413657D01*
X158930534Y-88332845D01*
X159065221Y-88252033D01*
X159146034Y-88225095D01*
X159253783Y-88225095D01*
X159361533Y-88278970D01*
X159415408Y-88332845D01*
X159469282Y-88440595D01*
X159469282Y-88494469D01*
X159280721Y-88683031D01*
X159172971Y-88575282D01*
X159765594Y-88683031D02*
X159199908Y-89248717D01*
X159415408Y-89464216D01*
X159496220Y-89491153D01*
X159550095Y-89491153D01*
X159630907Y-89464216D01*
X159711719Y-89383404D01*
X159738656Y-89302591D01*
X159738656Y-89248717D01*
X159711719Y-89167904D01*
X159496220Y-88952405D01*
X159792531Y-89733590D02*
X159792531Y-89787465D01*
X159819469Y-89868277D01*
X159954156Y-90002964D01*
X160034968Y-90029901D01*
X160088843Y-90029901D01*
X160169655Y-90002964D01*
X160223530Y-89949089D01*
X160277404Y-89841339D01*
X160277404Y-89194842D01*
X160627591Y-89545028D01*
X160331279Y-90272338D02*
X160331279Y-90326213D01*
X160358217Y-90407025D01*
X160492904Y-90541712D01*
X160573716Y-90568649D01*
X160627591Y-90568649D01*
X160708403Y-90541712D01*
X160762278Y-90487837D01*
X160816152Y-90380087D01*
X160816152Y-89733590D01*
X161166339Y-90083776D01*
X158957472Y-81342405D02*
X158876660Y-81315468D01*
X158795847Y-81234656D01*
X158741973Y-81126906D01*
X158741973Y-81019156D01*
X158768910Y-80938344D01*
X158849722Y-80803657D01*
X158930534Y-80722845D01*
X159065221Y-80642033D01*
X159146034Y-80615095D01*
X159253783Y-80615095D01*
X159361533Y-80668970D01*
X159415408Y-80722845D01*
X159469282Y-80830595D01*
X159469282Y-80884469D01*
X159280721Y-81073031D01*
X159172971Y-80965282D01*
X159765594Y-81073031D02*
X159199908Y-81638717D01*
X159415408Y-81854216D01*
X159496220Y-81881153D01*
X159550095Y-81881153D01*
X159630907Y-81854216D01*
X159711719Y-81773404D01*
X159738656Y-81692591D01*
X159738656Y-81638717D01*
X159711719Y-81557904D01*
X159496220Y-81342405D01*
X159792531Y-82123590D02*
X159792531Y-82177465D01*
X159819469Y-82258277D01*
X159954156Y-82392964D01*
X160034968Y-82419901D01*
X160088843Y-82419901D01*
X160169655Y-82392964D01*
X160223530Y-82339089D01*
X160277404Y-82231339D01*
X160277404Y-81584842D01*
X160627591Y-81935028D01*
X160250467Y-82689275D02*
X160627591Y-83066399D01*
X160950839Y-82258277D01*
X185080846Y-86681779D02*
X185000034Y-86654842D01*
X184919221Y-86574030D01*
X184865347Y-86466280D01*
X184865347Y-86358530D01*
X184892284Y-86277718D01*
X184973096Y-86143031D01*
X185053908Y-86062219D01*
X185188595Y-85981407D01*
X185269408Y-85954469D01*
X185377157Y-85954469D01*
X185484907Y-86008344D01*
X185538782Y-86062219D01*
X185592656Y-86169969D01*
X185592656Y-86223843D01*
X185404095Y-86412405D01*
X185296345Y-86304656D01*
X185888968Y-86412405D02*
X185323282Y-86978091D01*
X185538782Y-87193590D01*
X185619594Y-87220527D01*
X185673469Y-87220527D01*
X185754281Y-87193590D01*
X185835093Y-87112778D01*
X185862030Y-87031965D01*
X185862030Y-86978091D01*
X185835093Y-86897278D01*
X185619594Y-86681779D01*
X186212217Y-87382152D02*
X186131404Y-87355214D01*
X186077530Y-87355214D01*
X185996717Y-87382152D01*
X185969780Y-87409089D01*
X185942843Y-87489901D01*
X185942843Y-87543776D01*
X185969780Y-87624588D01*
X186077530Y-87732338D01*
X186158342Y-87759275D01*
X186212217Y-87759275D01*
X186293029Y-87732338D01*
X186319966Y-87705400D01*
X186346904Y-87624588D01*
X186346904Y-87570713D01*
X186319966Y-87489901D01*
X186212217Y-87382152D01*
X186185279Y-87301339D01*
X186185279Y-87247465D01*
X186212217Y-87166652D01*
X186319966Y-87058903D01*
X186400778Y-87031965D01*
X186454653Y-87031965D01*
X186535465Y-87058903D01*
X186643215Y-87166652D01*
X186670152Y-87247465D01*
X186670152Y-87301339D01*
X186643215Y-87382152D01*
X186535465Y-87489901D01*
X186454653Y-87516839D01*
X186400778Y-87516839D01*
X186319966Y-87489901D01*
X158957472Y-83872405D02*
X158876660Y-83845468D01*
X158795847Y-83764656D01*
X158741973Y-83656906D01*
X158741973Y-83549156D01*
X158768910Y-83468344D01*
X158849722Y-83333657D01*
X158930534Y-83252845D01*
X159065221Y-83172033D01*
X159146034Y-83145095D01*
X159253783Y-83145095D01*
X159361533Y-83198970D01*
X159415408Y-83252845D01*
X159469282Y-83360595D01*
X159469282Y-83414469D01*
X159280721Y-83603031D01*
X159172971Y-83495282D01*
X159765594Y-83603031D02*
X159199908Y-84168717D01*
X159415408Y-84384216D01*
X159496220Y-84411153D01*
X159550095Y-84411153D01*
X159630907Y-84384216D01*
X159711719Y-84303404D01*
X159738656Y-84222591D01*
X159738656Y-84168717D01*
X159711719Y-84087904D01*
X159496220Y-83872405D01*
X159792531Y-84653590D02*
X159792531Y-84707465D01*
X159819469Y-84788277D01*
X159954156Y-84922964D01*
X160034968Y-84949901D01*
X160088843Y-84949901D01*
X160169655Y-84922964D01*
X160223530Y-84869089D01*
X160277404Y-84761339D01*
X160277404Y-84114842D01*
X160627591Y-84465028D01*
X160546778Y-85515587D02*
X160439029Y-85407837D01*
X160412091Y-85327025D01*
X160412091Y-85273150D01*
X160439029Y-85138463D01*
X160519841Y-85003776D01*
X160735340Y-84788277D01*
X160816152Y-84761339D01*
X160870027Y-84761339D01*
X160950839Y-84788277D01*
X161058589Y-84896026D01*
X161085526Y-84976839D01*
X161085526Y-85030713D01*
X161058589Y-85111526D01*
X160923902Y-85246213D01*
X160843090Y-85273150D01*
X160789215Y-85273150D01*
X160708403Y-85246213D01*
X160600653Y-85138463D01*
X160573716Y-85057651D01*
X160573716Y-85003776D01*
X160600653Y-84922964D01*
X185211472Y-96572405D02*
X185130660Y-96545468D01*
X185049847Y-96464656D01*
X184995973Y-96356906D01*
X184995973Y-96249156D01*
X185022910Y-96168344D01*
X185103722Y-96033657D01*
X185184534Y-95952845D01*
X185319221Y-95872033D01*
X185400034Y-95845095D01*
X185507783Y-95845095D01*
X185615533Y-95898970D01*
X185669408Y-95952845D01*
X185723282Y-96060595D01*
X185723282Y-96114469D01*
X185534721Y-96303031D01*
X185426971Y-96195282D01*
X186019594Y-96303031D02*
X185453908Y-96868717D01*
X185669408Y-97084216D01*
X185750220Y-97111153D01*
X185804095Y-97111153D01*
X185884907Y-97084216D01*
X185965719Y-97003404D01*
X185992656Y-96922591D01*
X185992656Y-96868717D01*
X185965719Y-96787904D01*
X185750220Y-96572405D01*
X186881591Y-97165028D02*
X186558342Y-96841779D01*
X186719966Y-97003404D02*
X186154281Y-97569089D01*
X186181218Y-97434402D01*
X186181218Y-97326652D01*
X186154281Y-97245840D01*
X187420339Y-97703776D02*
X187097090Y-97380527D01*
X187258714Y-97542152D02*
X186693029Y-98107837D01*
X186719966Y-97973150D01*
X186719966Y-97865400D01*
X186693029Y-97784588D01*
X185053908Y-79034842D02*
X184973096Y-79007904D01*
X184892284Y-78927092D01*
X184838409Y-78819343D01*
X184838409Y-78711593D01*
X184865347Y-78630781D01*
X184946159Y-78496094D01*
X185026971Y-78415282D01*
X185161658Y-78334469D01*
X185242470Y-78307532D01*
X185350220Y-78307532D01*
X185457969Y-78361407D01*
X185511844Y-78415282D01*
X185565719Y-78523031D01*
X185565719Y-78576906D01*
X185377157Y-78765468D01*
X185269408Y-78657718D01*
X185862030Y-78765468D02*
X185296345Y-79331153D01*
X186185279Y-79088717D01*
X185619594Y-79654402D01*
X186454653Y-79358091D02*
X185888968Y-79923776D01*
X186023655Y-80058463D01*
X186131404Y-80112338D01*
X186239154Y-80112338D01*
X186319966Y-80085400D01*
X186454653Y-80004588D01*
X186535465Y-79923776D01*
X186616278Y-79789089D01*
X186643215Y-79708277D01*
X186643215Y-79600527D01*
X186589340Y-79492778D01*
X186454653Y-79358091D01*
X158957472Y-106732405D02*
X158876660Y-106705468D01*
X158795847Y-106624656D01*
X158741973Y-106516906D01*
X158741973Y-106409156D01*
X158768910Y-106328344D01*
X158849722Y-106193657D01*
X158930534Y-106112845D01*
X159065221Y-106032033D01*
X159146034Y-106005095D01*
X159253783Y-106005095D01*
X159361533Y-106058970D01*
X159415408Y-106112845D01*
X159469282Y-106220595D01*
X159469282Y-106274469D01*
X159280721Y-106463031D01*
X159172971Y-106355282D01*
X159765594Y-106463031D02*
X159199908Y-107028717D01*
X159415408Y-107244216D01*
X159496220Y-107271153D01*
X159550095Y-107271153D01*
X159630907Y-107244216D01*
X159711719Y-107163404D01*
X159738656Y-107082591D01*
X159738656Y-107028717D01*
X159711719Y-106947904D01*
X159496220Y-106732405D01*
X160627591Y-107325028D02*
X160304342Y-107001779D01*
X160465966Y-107163404D02*
X159900281Y-107729089D01*
X159927218Y-107594402D01*
X159927218Y-107486652D01*
X159900281Y-107405840D01*
X160250467Y-108079275D02*
X160627591Y-108456399D01*
X160950839Y-107648277D01*
X158957472Y-96572405D02*
X158876660Y-96545468D01*
X158795847Y-96464656D01*
X158741973Y-96356906D01*
X158741973Y-96249156D01*
X158768910Y-96168344D01*
X158849722Y-96033657D01*
X158930534Y-95952845D01*
X159065221Y-95872033D01*
X159146034Y-95845095D01*
X159253783Y-95845095D01*
X159361533Y-95898970D01*
X159415408Y-95952845D01*
X159469282Y-96060595D01*
X159469282Y-96114469D01*
X159280721Y-96303031D01*
X159172971Y-96195282D01*
X159765594Y-96303031D02*
X159199908Y-96868717D01*
X159415408Y-97084216D01*
X159496220Y-97111153D01*
X159550095Y-97111153D01*
X159630907Y-97084216D01*
X159711719Y-97003404D01*
X159738656Y-96922591D01*
X159738656Y-96868717D01*
X159711719Y-96787904D01*
X159496220Y-96572405D01*
X159792531Y-97353590D02*
X159792531Y-97407465D01*
X159819469Y-97488277D01*
X159954156Y-97622964D01*
X160034968Y-97649901D01*
X160088843Y-97649901D01*
X160169655Y-97622964D01*
X160223530Y-97569089D01*
X160277404Y-97461339D01*
X160277404Y-96814842D01*
X160627591Y-97165028D01*
X160412091Y-98080900D02*
X160465966Y-98134774D01*
X160546778Y-98161712D01*
X160600653Y-98161712D01*
X160681465Y-98134774D01*
X160816152Y-98053962D01*
X160950839Y-97919275D01*
X161031652Y-97784588D01*
X161058589Y-97703776D01*
X161058589Y-97649901D01*
X161031652Y-97569089D01*
X160977777Y-97515214D01*
X160896965Y-97488277D01*
X160843090Y-97488277D01*
X160762278Y-97515214D01*
X160627591Y-97596026D01*
X160492904Y-97730713D01*
X160412091Y-97865400D01*
X160385154Y-97946213D01*
X160385154Y-98000087D01*
X160412091Y-98080900D01*
X185080846Y-73981779D02*
X185000034Y-73954842D01*
X184919221Y-73874030D01*
X184865347Y-73766280D01*
X184865347Y-73658530D01*
X184892284Y-73577718D01*
X184973096Y-73443031D01*
X185053908Y-73362219D01*
X185188595Y-73281407D01*
X185269408Y-73254469D01*
X185377157Y-73254469D01*
X185484907Y-73308344D01*
X185538782Y-73362219D01*
X185592656Y-73469969D01*
X185592656Y-73523843D01*
X185404095Y-73712405D01*
X185296345Y-73604656D01*
X185888968Y-73712405D02*
X185323282Y-74278091D01*
X185538782Y-74493590D01*
X185619594Y-74520527D01*
X185673469Y-74520527D01*
X185754281Y-74493590D01*
X185835093Y-74412778D01*
X185862030Y-74331965D01*
X185862030Y-74278091D01*
X185835093Y-74197278D01*
X185619594Y-73981779D01*
X186319966Y-74897651D02*
X186697090Y-74520527D01*
X185969780Y-74978463D02*
X186239154Y-74439715D01*
X186589340Y-74789901D01*
X185180846Y-68901779D02*
X185100034Y-68874842D01*
X185019221Y-68794030D01*
X184965347Y-68686280D01*
X184965347Y-68578530D01*
X184992284Y-68497718D01*
X185073096Y-68363031D01*
X185153908Y-68282219D01*
X185288595Y-68201407D01*
X185369408Y-68174469D01*
X185477157Y-68174469D01*
X185584907Y-68228344D01*
X185638782Y-68282219D01*
X185692656Y-68389969D01*
X185692656Y-68443843D01*
X185504095Y-68632405D01*
X185396345Y-68524656D01*
X185988968Y-68632405D02*
X185423282Y-69198091D01*
X185638782Y-69413590D01*
X185719594Y-69440527D01*
X185773469Y-69440527D01*
X185854281Y-69413590D01*
X185935093Y-69332778D01*
X185962030Y-69251965D01*
X185962030Y-69198091D01*
X185935093Y-69117278D01*
X185719594Y-68901779D01*
X186015905Y-69682964D02*
X186015905Y-69736839D01*
X186042843Y-69817651D01*
X186177530Y-69952338D01*
X186258342Y-69979275D01*
X186312217Y-69979275D01*
X186393029Y-69952338D01*
X186446904Y-69898463D01*
X186500778Y-69790713D01*
X186500778Y-69144216D01*
X186850965Y-69494402D01*
X185065472Y-94032405D02*
X184984660Y-94005468D01*
X184903847Y-93924656D01*
X184849973Y-93816906D01*
X184849973Y-93709156D01*
X184876910Y-93628344D01*
X184957722Y-93493657D01*
X185038534Y-93412845D01*
X185173221Y-93332033D01*
X185254034Y-93305095D01*
X185361783Y-93305095D01*
X185469533Y-93358970D01*
X185523408Y-93412845D01*
X185577282Y-93520595D01*
X185577282Y-93574469D01*
X185388721Y-93763031D01*
X185280971Y-93655282D01*
X185873594Y-93763031D02*
X185307908Y-94328717D01*
X185523408Y-94544216D01*
X185604220Y-94571153D01*
X185658095Y-94571153D01*
X185738907Y-94544216D01*
X185819719Y-94463404D01*
X185846656Y-94382591D01*
X185846656Y-94328717D01*
X185819719Y-94247904D01*
X185604220Y-94032405D01*
X186735591Y-94625028D02*
X186412342Y-94301779D01*
X186573966Y-94463404D02*
X186008281Y-95029089D01*
X186035218Y-94894402D01*
X186035218Y-94786652D01*
X186008281Y-94705840D01*
X186520091Y-95540900D02*
X186573966Y-95594774D01*
X186654778Y-95621712D01*
X186708653Y-95621712D01*
X186789465Y-95594774D01*
X186924152Y-95513962D01*
X187058839Y-95379275D01*
X187139652Y-95244588D01*
X187166589Y-95163776D01*
X187166589Y-95109901D01*
X187139652Y-95029089D01*
X187085777Y-94975214D01*
X187004965Y-94948277D01*
X186951090Y-94948277D01*
X186870278Y-94975214D01*
X186735591Y-95056026D01*
X186600904Y-95190713D01*
X186520091Y-95325400D01*
X186493154Y-95406213D01*
X186493154Y-95460087D01*
X186520091Y-95540900D01*
X158957472Y-94042405D02*
X158876660Y-94015468D01*
X158795847Y-93934656D01*
X158741973Y-93826906D01*
X158741973Y-93719156D01*
X158768910Y-93638344D01*
X158849722Y-93503657D01*
X158930534Y-93422845D01*
X159065221Y-93342033D01*
X159146034Y-93315095D01*
X159253783Y-93315095D01*
X159361533Y-93368970D01*
X159415408Y-93422845D01*
X159469282Y-93530595D01*
X159469282Y-93584469D01*
X159280721Y-93773031D01*
X159172971Y-93665282D01*
X159765594Y-93773031D02*
X159199908Y-94338717D01*
X159415408Y-94554216D01*
X159496220Y-94581153D01*
X159550095Y-94581153D01*
X159630907Y-94554216D01*
X159711719Y-94473404D01*
X159738656Y-94392591D01*
X159738656Y-94338717D01*
X159711719Y-94257904D01*
X159496220Y-94042405D01*
X159792531Y-94823590D02*
X159792531Y-94877465D01*
X159819469Y-94958277D01*
X159954156Y-95092964D01*
X160034968Y-95119901D01*
X160088843Y-95119901D01*
X160169655Y-95092964D01*
X160223530Y-95039089D01*
X160277404Y-94931339D01*
X160277404Y-94284842D01*
X160627591Y-94635028D01*
X161166339Y-95173776D02*
X160843090Y-94850527D01*
X161004714Y-95012152D02*
X160439029Y-95577837D01*
X160465966Y-95443150D01*
X160465966Y-95335400D01*
X160439029Y-95254588D01*
X159453908Y-91734842D02*
X159373096Y-91707904D01*
X159292284Y-91627092D01*
X159238409Y-91519343D01*
X159238409Y-91411593D01*
X159265347Y-91330781D01*
X159346159Y-91196094D01*
X159426971Y-91115282D01*
X159561658Y-91034469D01*
X159642470Y-91007532D01*
X159750220Y-91007532D01*
X159857969Y-91061407D01*
X159911844Y-91115282D01*
X159965719Y-91223031D01*
X159965719Y-91276906D01*
X159777157Y-91465468D01*
X159669408Y-91357718D01*
X160262030Y-91465468D02*
X159696345Y-92031153D01*
X160585279Y-91788717D01*
X160019594Y-92354402D01*
X160854653Y-92058091D02*
X160288968Y-92623776D01*
X160423655Y-92758463D01*
X160531404Y-92812338D01*
X160639154Y-92812338D01*
X160719966Y-92785400D01*
X160854653Y-92704588D01*
X160935465Y-92623776D01*
X161016278Y-92489089D01*
X161043215Y-92408277D01*
X161043215Y-92300527D01*
X160989340Y-92192778D01*
X160854653Y-92058091D01*
X159057597Y-71242405D02*
X159407783Y-71592591D01*
X159434721Y-71188530D01*
X159515533Y-71269343D01*
X159596345Y-71296280D01*
X159650220Y-71296280D01*
X159731032Y-71269343D01*
X159865719Y-71134656D01*
X159892656Y-71053843D01*
X159892656Y-70999969D01*
X159865719Y-70919156D01*
X159704095Y-70757532D01*
X159623282Y-70730595D01*
X159569408Y-70730595D01*
X159569408Y-71754216D02*
X160323655Y-71377092D01*
X159946531Y-72131339D01*
X160081218Y-72266026D02*
X160431404Y-72616213D01*
X160458342Y-72212152D01*
X160539154Y-72292964D01*
X160619966Y-72319901D01*
X160673841Y-72319901D01*
X160754653Y-72292964D01*
X160889340Y-72158277D01*
X160916278Y-72077465D01*
X160916278Y-72023590D01*
X160889340Y-71942778D01*
X160727716Y-71781153D01*
X160646904Y-71754216D01*
X160593029Y-71754216D01*
X185080846Y-81601779D02*
X185000034Y-81574842D01*
X184919221Y-81494030D01*
X184865347Y-81386280D01*
X184865347Y-81278530D01*
X184892284Y-81197718D01*
X184973096Y-81063031D01*
X185053908Y-80982219D01*
X185188595Y-80901407D01*
X185269408Y-80874469D01*
X185377157Y-80874469D01*
X185484907Y-80928344D01*
X185538782Y-80982219D01*
X185592656Y-81089969D01*
X185592656Y-81143843D01*
X185404095Y-81332405D01*
X185296345Y-81224656D01*
X185888968Y-81332405D02*
X185323282Y-81898091D01*
X185538782Y-82113590D01*
X185619594Y-82140527D01*
X185673469Y-82140527D01*
X185754281Y-82113590D01*
X185835093Y-82032778D01*
X185862030Y-81951965D01*
X185862030Y-81898091D01*
X185835093Y-81817278D01*
X185619594Y-81601779D01*
X186131404Y-82706213D02*
X186023655Y-82598463D01*
X185996717Y-82517651D01*
X185996717Y-82463776D01*
X186023655Y-82329089D01*
X186104467Y-82194402D01*
X186319966Y-81978903D01*
X186400778Y-81951965D01*
X186454653Y-81951965D01*
X186535465Y-81978903D01*
X186643215Y-82086652D01*
X186670152Y-82167465D01*
X186670152Y-82221339D01*
X186643215Y-82302152D01*
X186508528Y-82436839D01*
X186427716Y-82463776D01*
X186373841Y-82463776D01*
X186293029Y-82436839D01*
X186185279Y-82329089D01*
X186158342Y-82248277D01*
X186158342Y-82194402D01*
X186185279Y-82113590D01*
X159453908Y-104434842D02*
X159373096Y-104407904D01*
X159292284Y-104327092D01*
X159238409Y-104219343D01*
X159238409Y-104111593D01*
X159265347Y-104030781D01*
X159346159Y-103896094D01*
X159426971Y-103815282D01*
X159561658Y-103734469D01*
X159642470Y-103707532D01*
X159750220Y-103707532D01*
X159857969Y-103761407D01*
X159911844Y-103815282D01*
X159965719Y-103923031D01*
X159965719Y-103976906D01*
X159777157Y-104165468D01*
X159669408Y-104057718D01*
X160262030Y-104165468D02*
X159696345Y-104731153D01*
X160585279Y-104488717D01*
X160019594Y-105054402D01*
X160854653Y-104758091D02*
X160288968Y-105323776D01*
X160423655Y-105458463D01*
X160531404Y-105512338D01*
X160639154Y-105512338D01*
X160719966Y-105485400D01*
X160854653Y-105404588D01*
X160935465Y-105323776D01*
X161016278Y-105189089D01*
X161043215Y-105108277D01*
X161043215Y-105000527D01*
X160989340Y-104892778D01*
X160854653Y-104758091D01*
X185080846Y-71441779D02*
X185000034Y-71414842D01*
X184919221Y-71334030D01*
X184865347Y-71226280D01*
X184865347Y-71118530D01*
X184892284Y-71037718D01*
X184973096Y-70903031D01*
X185053908Y-70822219D01*
X185188595Y-70741407D01*
X185269408Y-70714469D01*
X185377157Y-70714469D01*
X185484907Y-70768344D01*
X185538782Y-70822219D01*
X185592656Y-70929969D01*
X185592656Y-70983843D01*
X185404095Y-71172405D01*
X185296345Y-71064656D01*
X185888968Y-71172405D02*
X185323282Y-71738091D01*
X185538782Y-71953590D01*
X185619594Y-71980527D01*
X185673469Y-71980527D01*
X185754281Y-71953590D01*
X185835093Y-71872778D01*
X185862030Y-71791965D01*
X185862030Y-71738091D01*
X185835093Y-71657278D01*
X185619594Y-71441779D01*
X185835093Y-72249901D02*
X186185279Y-72600087D01*
X186212217Y-72196026D01*
X186293029Y-72276839D01*
X186373841Y-72303776D01*
X186427716Y-72303776D01*
X186508528Y-72276839D01*
X186643215Y-72142152D01*
X186670152Y-72061339D01*
X186670152Y-72007465D01*
X186643215Y-71926652D01*
X186481591Y-71765028D01*
X186400778Y-71738091D01*
X186346904Y-71738091D01*
X185053908Y-66334842D02*
X184973096Y-66307904D01*
X184892284Y-66227092D01*
X184838409Y-66119343D01*
X184838409Y-66011593D01*
X184865347Y-65930781D01*
X184946159Y-65796094D01*
X185026971Y-65715282D01*
X185161658Y-65634469D01*
X185242470Y-65607532D01*
X185350220Y-65607532D01*
X185457969Y-65661407D01*
X185511844Y-65715282D01*
X185565719Y-65823031D01*
X185565719Y-65876906D01*
X185377157Y-66065468D01*
X185269408Y-65957718D01*
X185862030Y-66065468D02*
X185296345Y-66631153D01*
X186185279Y-66388717D01*
X185619594Y-66954402D01*
X186454653Y-66658091D02*
X185888968Y-67223776D01*
X186023655Y-67358463D01*
X186131404Y-67412338D01*
X186239154Y-67412338D01*
X186319966Y-67385400D01*
X186454653Y-67304588D01*
X186535465Y-67223776D01*
X186616278Y-67089089D01*
X186643215Y-67008277D01*
X186643215Y-66900527D01*
X186589340Y-66792778D01*
X186454653Y-66658091D01*
X159453908Y-66334842D02*
X159373096Y-66307904D01*
X159292284Y-66227092D01*
X159238409Y-66119343D01*
X159238409Y-66011593D01*
X159265347Y-65930781D01*
X159346159Y-65796094D01*
X159426971Y-65715282D01*
X159561658Y-65634469D01*
X159642470Y-65607532D01*
X159750220Y-65607532D01*
X159857969Y-65661407D01*
X159911844Y-65715282D01*
X159965719Y-65823031D01*
X159965719Y-65876906D01*
X159777157Y-66065468D01*
X159669408Y-65957718D01*
X160262030Y-66065468D02*
X159696345Y-66631153D01*
X160585279Y-66388717D01*
X160019594Y-66954402D01*
X160854653Y-66658091D02*
X160288968Y-67223776D01*
X160423655Y-67358463D01*
X160531404Y-67412338D01*
X160639154Y-67412338D01*
X160719966Y-67385400D01*
X160854653Y-67304588D01*
X160935465Y-67223776D01*
X161016278Y-67089089D01*
X161043215Y-67008277D01*
X161043215Y-66900527D01*
X160989340Y-66792778D01*
X160854653Y-66658091D01*
X158957472Y-99112405D02*
X158876660Y-99085468D01*
X158795847Y-99004656D01*
X158741973Y-98896906D01*
X158741973Y-98789156D01*
X158768910Y-98708344D01*
X158849722Y-98573657D01*
X158930534Y-98492845D01*
X159065221Y-98412033D01*
X159146034Y-98385095D01*
X159253783Y-98385095D01*
X159361533Y-98438970D01*
X159415408Y-98492845D01*
X159469282Y-98600595D01*
X159469282Y-98654469D01*
X159280721Y-98843031D01*
X159172971Y-98735282D01*
X159765594Y-98843031D02*
X159199908Y-99408717D01*
X159415408Y-99624216D01*
X159496220Y-99651153D01*
X159550095Y-99651153D01*
X159630907Y-99624216D01*
X159711719Y-99543404D01*
X159738656Y-99462591D01*
X159738656Y-99408717D01*
X159711719Y-99327904D01*
X159496220Y-99112405D01*
X160627591Y-99705028D02*
X160304342Y-99381779D01*
X160465966Y-99543404D02*
X159900281Y-100109089D01*
X159927218Y-99974402D01*
X159927218Y-99866652D01*
X159900281Y-99785840D01*
X160896965Y-99974402D02*
X161004714Y-100082152D01*
X161031652Y-100162964D01*
X161031652Y-100216839D01*
X161004714Y-100351526D01*
X160923902Y-100486213D01*
X160708403Y-100701712D01*
X160627591Y-100728649D01*
X160573716Y-100728649D01*
X160492904Y-100701712D01*
X160385154Y-100593962D01*
X160358217Y-100513150D01*
X160358217Y-100459275D01*
X160385154Y-100378463D01*
X160519841Y-100243776D01*
X160600653Y-100216839D01*
X160654528Y-100216839D01*
X160735340Y-100243776D01*
X160843090Y-100351526D01*
X160870027Y-100432338D01*
X160870027Y-100486213D01*
X160843090Y-100567025D01*
X184980846Y-84111779D02*
X184900034Y-84084842D01*
X184819221Y-84004030D01*
X184765347Y-83896280D01*
X184765347Y-83788530D01*
X184792284Y-83707718D01*
X184873096Y-83573031D01*
X184953908Y-83492219D01*
X185088595Y-83411407D01*
X185169408Y-83384469D01*
X185277157Y-83384469D01*
X185384907Y-83438344D01*
X185438782Y-83492219D01*
X185492656Y-83599969D01*
X185492656Y-83653843D01*
X185304095Y-83842405D01*
X185196345Y-83734656D01*
X185788968Y-83842405D02*
X185223282Y-84408091D01*
X185438782Y-84623590D01*
X185519594Y-84650527D01*
X185573469Y-84650527D01*
X185654281Y-84623590D01*
X185735093Y-84542778D01*
X185762030Y-84461965D01*
X185762030Y-84408091D01*
X185735093Y-84327278D01*
X185519594Y-84111779D01*
X185735093Y-84919901D02*
X186112217Y-85297025D01*
X186435465Y-84488903D01*
X158957472Y-101652405D02*
X158876660Y-101625468D01*
X158795847Y-101544656D01*
X158741973Y-101436906D01*
X158741973Y-101329156D01*
X158768910Y-101248344D01*
X158849722Y-101113657D01*
X158930534Y-101032845D01*
X159065221Y-100952033D01*
X159146034Y-100925095D01*
X159253783Y-100925095D01*
X159361533Y-100978970D01*
X159415408Y-101032845D01*
X159469282Y-101140595D01*
X159469282Y-101194469D01*
X159280721Y-101383031D01*
X159172971Y-101275282D01*
X159765594Y-101383031D02*
X159199908Y-101948717D01*
X159415408Y-102164216D01*
X159496220Y-102191153D01*
X159550095Y-102191153D01*
X159630907Y-102164216D01*
X159711719Y-102083404D01*
X159738656Y-102002591D01*
X159738656Y-101948717D01*
X159711719Y-101867904D01*
X159496220Y-101652405D01*
X160627591Y-102245028D02*
X160304342Y-101921779D01*
X160465966Y-102083404D02*
X159900281Y-102649089D01*
X159927218Y-102514402D01*
X159927218Y-102406652D01*
X159900281Y-102325840D01*
X160627591Y-102891526D02*
X160546778Y-102864588D01*
X160492904Y-102864588D01*
X160412091Y-102891526D01*
X160385154Y-102918463D01*
X160358217Y-102999275D01*
X160358217Y-103053150D01*
X160385154Y-103133962D01*
X160492904Y-103241712D01*
X160573716Y-103268649D01*
X160627591Y-103268649D01*
X160708403Y-103241712D01*
X160735340Y-103214774D01*
X160762278Y-103133962D01*
X160762278Y-103080087D01*
X160735340Y-102999275D01*
X160627591Y-102891526D01*
X160600653Y-102810713D01*
X160600653Y-102756839D01*
X160627591Y-102676026D01*
X160735340Y-102568277D01*
X160816152Y-102541339D01*
X160870027Y-102541339D01*
X160950839Y-102568277D01*
X161058589Y-102676026D01*
X161085526Y-102756839D01*
X161085526Y-102810713D01*
X161058589Y-102891526D01*
X160950839Y-102999275D01*
X160870027Y-103026213D01*
X160816152Y-103026213D01*
X160735340Y-102999275D01*
X185180846Y-63811779D02*
X185100034Y-63784842D01*
X185019221Y-63704030D01*
X184965347Y-63596280D01*
X184965347Y-63488530D01*
X184992284Y-63407718D01*
X185073096Y-63273031D01*
X185153908Y-63192219D01*
X185288595Y-63111407D01*
X185369408Y-63084469D01*
X185477157Y-63084469D01*
X185584907Y-63138344D01*
X185638782Y-63192219D01*
X185692656Y-63299969D01*
X185692656Y-63353843D01*
X185504095Y-63542405D01*
X185396345Y-63434656D01*
X185988968Y-63542405D02*
X185423282Y-64108091D01*
X185638782Y-64323590D01*
X185719594Y-64350527D01*
X185773469Y-64350527D01*
X185854281Y-64323590D01*
X185935093Y-64242778D01*
X185962030Y-64161965D01*
X185962030Y-64108091D01*
X185935093Y-64027278D01*
X185719594Y-63811779D01*
X186850965Y-64404402D02*
X186527716Y-64081153D01*
X186689340Y-64242778D02*
X186123655Y-64808463D01*
X186150592Y-64673776D01*
X186150592Y-64566026D01*
X186123655Y-64485214D01*
X185053908Y-91734842D02*
X184973096Y-91707904D01*
X184892284Y-91627092D01*
X184838409Y-91519343D01*
X184838409Y-91411593D01*
X184865347Y-91330781D01*
X184946159Y-91196094D01*
X185026971Y-91115282D01*
X185161658Y-91034469D01*
X185242470Y-91007532D01*
X185350220Y-91007532D01*
X185457969Y-91061407D01*
X185511844Y-91115282D01*
X185565719Y-91223031D01*
X185565719Y-91276906D01*
X185377157Y-91465468D01*
X185269408Y-91357718D01*
X185862030Y-91465468D02*
X185296345Y-92031153D01*
X186185279Y-91788717D01*
X185619594Y-92354402D01*
X186454653Y-92058091D02*
X185888968Y-92623776D01*
X186023655Y-92758463D01*
X186131404Y-92812338D01*
X186239154Y-92812338D01*
X186319966Y-92785400D01*
X186454653Y-92704588D01*
X186535465Y-92623776D01*
X186616278Y-92489089D01*
X186643215Y-92408277D01*
X186643215Y-92300527D01*
X186589340Y-92192778D01*
X186454653Y-92058091D01*
X178700596Y-76078781D02*
X178619784Y-76051844D01*
X178538971Y-75971032D01*
X178485097Y-75863282D01*
X178485097Y-75755532D01*
X178512034Y-75674720D01*
X178592846Y-75540033D01*
X178673658Y-75459221D01*
X178808345Y-75378409D01*
X178889158Y-75351471D01*
X178996907Y-75351471D01*
X179104657Y-75405346D01*
X179158532Y-75459221D01*
X179212406Y-75566971D01*
X179212406Y-75620845D01*
X179023845Y-75809407D01*
X178916095Y-75701658D01*
X179508718Y-75809407D02*
X178943032Y-76375093D01*
X179158532Y-76590592D01*
X179239344Y-76617529D01*
X179293219Y-76617529D01*
X179374031Y-76590592D01*
X179454843Y-76509780D01*
X179481780Y-76428967D01*
X179481780Y-76375093D01*
X179454843Y-76294280D01*
X179239344Y-76078781D01*
X179778092Y-77210152D02*
X179508718Y-76940778D01*
X179751154Y-76644467D01*
X179751154Y-76698341D01*
X179778092Y-76779154D01*
X179912779Y-76913841D01*
X179993591Y-76940778D01*
X180047466Y-76940778D01*
X180128278Y-76913841D01*
X180262965Y-76779154D01*
X180289902Y-76698341D01*
X180289902Y-76644467D01*
X180262965Y-76563654D01*
X180128278Y-76428967D01*
X180047466Y-76402030D01*
X179993591Y-76402030D01*
X185080846Y-61281779D02*
X185000034Y-61254842D01*
X184919221Y-61174030D01*
X184865347Y-61066280D01*
X184865347Y-60958530D01*
X184892284Y-60877718D01*
X184973096Y-60743031D01*
X185053908Y-60662219D01*
X185188595Y-60581407D01*
X185269408Y-60554469D01*
X185377157Y-60554469D01*
X185484907Y-60608344D01*
X185538782Y-60662219D01*
X185592656Y-60769969D01*
X185592656Y-60823843D01*
X185404095Y-61012405D01*
X185296345Y-60904656D01*
X185888968Y-61012405D02*
X185323282Y-61578091D01*
X185538782Y-61793590D01*
X185619594Y-61820527D01*
X185673469Y-61820527D01*
X185754281Y-61793590D01*
X185835093Y-61712778D01*
X185862030Y-61631965D01*
X185862030Y-61578091D01*
X185835093Y-61497278D01*
X185619594Y-61281779D01*
X185996717Y-62251526D02*
X186050592Y-62305400D01*
X186131404Y-62332338D01*
X186185279Y-62332338D01*
X186266091Y-62305400D01*
X186400778Y-62224588D01*
X186535465Y-62089901D01*
X186616278Y-61955214D01*
X186643215Y-61874402D01*
X186643215Y-61820527D01*
X186616278Y-61739715D01*
X186562403Y-61685840D01*
X186481591Y-61658903D01*
X186427716Y-61658903D01*
X186346904Y-61685840D01*
X186212217Y-61766652D01*
X186077530Y-61901339D01*
X185996717Y-62036026D01*
X185969780Y-62116839D01*
X185969780Y-62170713D01*
X185996717Y-62251526D01*
X158957472Y-109272405D02*
X158876660Y-109245468D01*
X158795847Y-109164656D01*
X158741973Y-109056906D01*
X158741973Y-108949156D01*
X158768910Y-108868344D01*
X158849722Y-108733657D01*
X158930534Y-108652845D01*
X159065221Y-108572033D01*
X159146034Y-108545095D01*
X159253783Y-108545095D01*
X159361533Y-108598970D01*
X159415408Y-108652845D01*
X159469282Y-108760595D01*
X159469282Y-108814469D01*
X159280721Y-109003031D01*
X159172971Y-108895282D01*
X159765594Y-109003031D02*
X159199908Y-109568717D01*
X159415408Y-109784216D01*
X159496220Y-109811153D01*
X159550095Y-109811153D01*
X159630907Y-109784216D01*
X159711719Y-109703404D01*
X159738656Y-109622591D01*
X159738656Y-109568717D01*
X159711719Y-109487904D01*
X159496220Y-109272405D01*
X160627591Y-109865028D02*
X160304342Y-109541779D01*
X160465966Y-109703404D02*
X159900281Y-110269089D01*
X159927218Y-110134402D01*
X159927218Y-110026652D01*
X159900281Y-109945840D01*
X160546778Y-110915587D02*
X160439029Y-110807837D01*
X160412091Y-110727025D01*
X160412091Y-110673150D01*
X160439029Y-110538463D01*
X160519841Y-110403776D01*
X160735340Y-110188277D01*
X160816152Y-110161339D01*
X160870027Y-110161339D01*
X160950839Y-110188277D01*
X161058589Y-110296026D01*
X161085526Y-110376839D01*
X161085526Y-110430713D01*
X161058589Y-110511526D01*
X160923902Y-110646213D01*
X160843090Y-110673150D01*
X160789215Y-110673150D01*
X160708403Y-110646213D01*
X160600653Y-110538463D01*
X160573716Y-110457651D01*
X160573716Y-110403776D01*
X160600653Y-110322964D01*
X158320879Y-60605688D02*
X159075127Y-60228564D01*
X158698003Y-60982811D01*
X159344501Y-61090561D02*
X159452250Y-61144436D01*
X159506125Y-61144436D01*
X159586937Y-61117498D01*
X159667750Y-61036686D01*
X159694687Y-60955874D01*
X159694687Y-60901999D01*
X159667750Y-60821187D01*
X159452250Y-60605688D01*
X158886565Y-61171373D01*
X159075127Y-61359935D01*
X159155939Y-61386872D01*
X159209814Y-61386872D01*
X159290626Y-61359935D01*
X159344501Y-61306060D01*
X159371438Y-61225248D01*
X159371438Y-61171373D01*
X159344501Y-61090561D01*
X159155939Y-60901999D01*
X159452250Y-61737059D02*
X159910186Y-61279123D01*
X159990998Y-61252185D01*
X160044873Y-61252185D01*
X160125685Y-61279123D01*
X160233435Y-61386872D01*
X160260372Y-61467685D01*
X160260372Y-61521559D01*
X160233435Y-61602372D01*
X159775499Y-62060307D01*
X160556684Y-61763996D02*
X160664433Y-61817871D01*
X160799120Y-61952558D01*
X160826058Y-62033370D01*
X160826058Y-62087245D01*
X160799120Y-62168057D01*
X160745246Y-62221932D01*
X160664433Y-62248869D01*
X160610559Y-62248869D01*
X160529746Y-62221932D01*
X160395059Y-62141120D01*
X160314247Y-62114182D01*
X160260372Y-62114182D01*
X160179560Y-62141120D01*
X160125685Y-62194994D01*
X160098748Y-62275807D01*
X160098748Y-62329681D01*
X160125685Y-62410494D01*
X160260372Y-62545181D01*
X160368122Y-62599055D01*
X185080846Y-89221779D02*
X185000034Y-89194842D01*
X184919221Y-89114030D01*
X184865347Y-89006280D01*
X184865347Y-88898530D01*
X184892284Y-88817718D01*
X184973096Y-88683031D01*
X185053908Y-88602219D01*
X185188595Y-88521407D01*
X185269408Y-88494469D01*
X185377157Y-88494469D01*
X185484907Y-88548344D01*
X185538782Y-88602219D01*
X185592656Y-88709969D01*
X185592656Y-88763843D01*
X185404095Y-88952405D01*
X185296345Y-88844656D01*
X185888968Y-88952405D02*
X185323282Y-89518091D01*
X185538782Y-89733590D01*
X185619594Y-89760527D01*
X185673469Y-89760527D01*
X185754281Y-89733590D01*
X185835093Y-89652778D01*
X185862030Y-89571965D01*
X185862030Y-89518091D01*
X185835093Y-89437278D01*
X185619594Y-89221779D01*
X186481591Y-89545028D02*
X186589340Y-89652778D01*
X186616278Y-89733590D01*
X186616278Y-89787465D01*
X186589340Y-89922152D01*
X186508528Y-90056839D01*
X186293029Y-90272338D01*
X186212217Y-90299275D01*
X186158342Y-90299275D01*
X186077530Y-90272338D01*
X185969780Y-90164588D01*
X185942843Y-90083776D01*
X185942843Y-90029901D01*
X185969780Y-89949089D01*
X186104467Y-89814402D01*
X186185279Y-89787465D01*
X186239154Y-89787465D01*
X186319966Y-89814402D01*
X186427716Y-89922152D01*
X186454653Y-90002964D01*
X186454653Y-90056839D01*
X186427716Y-90137651D01*
%TO.C,LED6*%
X198223047Y-64714380D02*
X198699238Y-64714380D01*
X198699238Y-63714380D01*
X197889714Y-64190571D02*
X197556380Y-64190571D01*
X197413523Y-64714380D02*
X197889714Y-64714380D01*
X197889714Y-63714380D01*
X197413523Y-63714380D01*
X196984952Y-64714380D02*
X196984952Y-63714380D01*
X196746857Y-63714380D01*
X196604000Y-63762000D01*
X196508761Y-63857238D01*
X196461142Y-63952476D01*
X196413523Y-64142952D01*
X196413523Y-64285809D01*
X196461142Y-64476285D01*
X196508761Y-64571523D01*
X196604000Y-64666761D01*
X196746857Y-64714380D01*
X196984952Y-64714380D01*
X195556380Y-63714380D02*
X195746857Y-63714380D01*
X195842095Y-63762000D01*
X195889714Y-63809619D01*
X195984952Y-63952476D01*
X196032571Y-64142952D01*
X196032571Y-64523904D01*
X195984952Y-64619142D01*
X195937333Y-64666761D01*
X195842095Y-64714380D01*
X195651619Y-64714380D01*
X195556380Y-64666761D01*
X195508761Y-64619142D01*
X195461142Y-64523904D01*
X195461142Y-64285809D01*
X195508761Y-64190571D01*
X195556380Y-64142952D01*
X195651619Y-64095333D01*
X195842095Y-64095333D01*
X195937333Y-64142952D01*
X195984952Y-64190571D01*
X196032571Y-64285809D01*
X200968285Y-63114380D02*
X201539714Y-63114380D01*
X201254000Y-63114380D02*
X201254000Y-62114380D01*
X201349238Y-62257238D01*
X201444476Y-62352476D01*
X201539714Y-62400095D01*
%TO.C,C4*%
X148756666Y-125833142D02*
X148804285Y-125880761D01*
X148947142Y-125928380D01*
X149042380Y-125928380D01*
X149185238Y-125880761D01*
X149280476Y-125785523D01*
X149328095Y-125690285D01*
X149375714Y-125499809D01*
X149375714Y-125356952D01*
X149328095Y-125166476D01*
X149280476Y-125071238D01*
X149185238Y-124976000D01*
X149042380Y-124928380D01*
X148947142Y-124928380D01*
X148804285Y-124976000D01*
X148756666Y-125023619D01*
X147899523Y-125261714D02*
X147899523Y-125928380D01*
X148137619Y-124880761D02*
X148375714Y-125595047D01*
X147756666Y-125595047D01*
%TO.C,LED2*%
X88241047Y-64714380D02*
X88717238Y-64714380D01*
X88717238Y-63714380D01*
X87907714Y-64190571D02*
X87574380Y-64190571D01*
X87431523Y-64714380D02*
X87907714Y-64714380D01*
X87907714Y-63714380D01*
X87431523Y-63714380D01*
X87002952Y-64714380D02*
X87002952Y-63714380D01*
X86764857Y-63714380D01*
X86622000Y-63762000D01*
X86526761Y-63857238D01*
X86479142Y-63952476D01*
X86431523Y-64142952D01*
X86431523Y-64285809D01*
X86479142Y-64476285D01*
X86526761Y-64571523D01*
X86622000Y-64666761D01*
X86764857Y-64714380D01*
X87002952Y-64714380D01*
X86050571Y-63809619D02*
X86002952Y-63762000D01*
X85907714Y-63714380D01*
X85669619Y-63714380D01*
X85574380Y-63762000D01*
X85526761Y-63809619D01*
X85479142Y-63904857D01*
X85479142Y-64000095D01*
X85526761Y-64142952D01*
X86098190Y-64714380D01*
X85479142Y-64714380D01*
X90986285Y-63114380D02*
X91557714Y-63114380D01*
X91272000Y-63114380D02*
X91272000Y-62114380D01*
X91367238Y-62257238D01*
X91462476Y-62352476D01*
X91557714Y-62400095D01*
%TO.C,R2*%
X97448666Y-118308380D02*
X97782000Y-117832190D01*
X98020095Y-118308380D02*
X98020095Y-117308380D01*
X97639142Y-117308380D01*
X97543904Y-117356000D01*
X97496285Y-117403619D01*
X97448666Y-117498857D01*
X97448666Y-117641714D01*
X97496285Y-117736952D01*
X97543904Y-117784571D01*
X97639142Y-117832190D01*
X98020095Y-117832190D01*
X97067714Y-117403619D02*
X97020095Y-117356000D01*
X96924857Y-117308380D01*
X96686761Y-117308380D01*
X96591523Y-117356000D01*
X96543904Y-117403619D01*
X96496285Y-117498857D01*
X96496285Y-117594095D01*
X96543904Y-117736952D01*
X97115333Y-118308380D01*
X96496285Y-118308380D01*
%TO.C,R4*%
X130214666Y-84018380D02*
X130548000Y-83542190D01*
X130786095Y-84018380D02*
X130786095Y-83018380D01*
X130405142Y-83018380D01*
X130309904Y-83066000D01*
X130262285Y-83113619D01*
X130214666Y-83208857D01*
X130214666Y-83351714D01*
X130262285Y-83446952D01*
X130309904Y-83494571D01*
X130405142Y-83542190D01*
X130786095Y-83542190D01*
X129357523Y-83351714D02*
X129357523Y-84018380D01*
X129595619Y-82970761D02*
X129833714Y-83685047D01*
X129214666Y-83685047D01*
%TO.C,R7*%
X154090666Y-84018380D02*
X154424000Y-83542190D01*
X154662095Y-84018380D02*
X154662095Y-83018380D01*
X154281142Y-83018380D01*
X154185904Y-83066000D01*
X154138285Y-83113619D01*
X154090666Y-83208857D01*
X154090666Y-83351714D01*
X154138285Y-83446952D01*
X154185904Y-83494571D01*
X154281142Y-83542190D01*
X154662095Y-83542190D01*
X153757333Y-83018380D02*
X153090666Y-83018380D01*
X153519238Y-84018380D01*
%TO.C,C5*%
X199810666Y-72747142D02*
X199858285Y-72794761D01*
X200001142Y-72842380D01*
X200096380Y-72842380D01*
X200239238Y-72794761D01*
X200334476Y-72699523D01*
X200382095Y-72604285D01*
X200429714Y-72413809D01*
X200429714Y-72270952D01*
X200382095Y-72080476D01*
X200334476Y-71985238D01*
X200239238Y-71890000D01*
X200096380Y-71842380D01*
X200001142Y-71842380D01*
X199858285Y-71890000D01*
X199810666Y-71937619D01*
X198905904Y-71842380D02*
X199382095Y-71842380D01*
X199429714Y-72318571D01*
X199382095Y-72270952D01*
X199286857Y-72223333D01*
X199048761Y-72223333D01*
X198953523Y-72270952D01*
X198905904Y-72318571D01*
X198858285Y-72413809D01*
X198858285Y-72651904D01*
X198905904Y-72747142D01*
X198953523Y-72794761D01*
X199048761Y-72842380D01*
X199286857Y-72842380D01*
X199382095Y-72794761D01*
X199429714Y-72747142D01*
%TO.C,C6*%
X199810666Y-117959142D02*
X199858285Y-118006761D01*
X200001142Y-118054380D01*
X200096380Y-118054380D01*
X200239238Y-118006761D01*
X200334476Y-117911523D01*
X200382095Y-117816285D01*
X200429714Y-117625809D01*
X200429714Y-117482952D01*
X200382095Y-117292476D01*
X200334476Y-117197238D01*
X200239238Y-117102000D01*
X200096380Y-117054380D01*
X200001142Y-117054380D01*
X199858285Y-117102000D01*
X199810666Y-117149619D01*
X198953523Y-117054380D02*
X199144000Y-117054380D01*
X199239238Y-117102000D01*
X199286857Y-117149619D01*
X199382095Y-117292476D01*
X199429714Y-117482952D01*
X199429714Y-117863904D01*
X199382095Y-117959142D01*
X199334476Y-118006761D01*
X199239238Y-118054380D01*
X199048761Y-118054380D01*
X198953523Y-118006761D01*
X198905904Y-117959142D01*
X198858285Y-117863904D01*
X198858285Y-117625809D01*
X198905904Y-117530571D01*
X198953523Y-117482952D01*
X199048761Y-117435333D01*
X199239238Y-117435333D01*
X199334476Y-117482952D01*
X199382095Y-117530571D01*
X199429714Y-117625809D01*
%TO.C,R3*%
X111391730Y-102814380D02*
X111725064Y-102338190D01*
X111963159Y-102814380D02*
X111963159Y-101814380D01*
X111582206Y-101814380D01*
X111486968Y-101862000D01*
X111439349Y-101909619D01*
X111391730Y-102004857D01*
X111391730Y-102147714D01*
X111439349Y-102242952D01*
X111486968Y-102290571D01*
X111582206Y-102338190D01*
X111963159Y-102338190D01*
X111058397Y-101814380D02*
X110439349Y-101814380D01*
X110772683Y-102195333D01*
X110629825Y-102195333D01*
X110534587Y-102242952D01*
X110486968Y-102290571D01*
X110439349Y-102385809D01*
X110439349Y-102623904D01*
X110486968Y-102719142D01*
X110534587Y-102766761D01*
X110629825Y-102814380D01*
X110915540Y-102814380D01*
X111010778Y-102766761D01*
X111058397Y-102719142D01*
%TO.C,LED1*%
X88495047Y-125928380D02*
X88971238Y-125928380D01*
X88971238Y-124928380D01*
X88161714Y-125404571D02*
X87828380Y-125404571D01*
X87685523Y-125928380D02*
X88161714Y-125928380D01*
X88161714Y-124928380D01*
X87685523Y-124928380D01*
X87256952Y-125928380D02*
X87256952Y-124928380D01*
X87018857Y-124928380D01*
X86876000Y-124976000D01*
X86780761Y-125071238D01*
X86733142Y-125166476D01*
X86685523Y-125356952D01*
X86685523Y-125499809D01*
X86733142Y-125690285D01*
X86780761Y-125785523D01*
X86876000Y-125880761D01*
X87018857Y-125928380D01*
X87256952Y-125928380D01*
X85733142Y-125928380D02*
X86304571Y-125928380D01*
X86018857Y-125928380D02*
X86018857Y-124928380D01*
X86114095Y-125071238D01*
X86209333Y-125166476D01*
X86304571Y-125214095D01*
X91240285Y-124328380D02*
X91811714Y-124328380D01*
X91526000Y-124328380D02*
X91526000Y-123328380D01*
X91621238Y-123471238D01*
X91716476Y-123566476D01*
X91811714Y-123614095D01*
%TO.C,C3*%
X148756666Y-64619142D02*
X148804285Y-64666761D01*
X148947142Y-64714380D01*
X149042380Y-64714380D01*
X149185238Y-64666761D01*
X149280476Y-64571523D01*
X149328095Y-64476285D01*
X149375714Y-64285809D01*
X149375714Y-64142952D01*
X149328095Y-63952476D01*
X149280476Y-63857238D01*
X149185238Y-63762000D01*
X149042380Y-63714380D01*
X148947142Y-63714380D01*
X148804285Y-63762000D01*
X148756666Y-63809619D01*
X148423333Y-63714380D02*
X147804285Y-63714380D01*
X148137619Y-64095333D01*
X147994761Y-64095333D01*
X147899523Y-64142952D01*
X147851904Y-64190571D01*
X147804285Y-64285809D01*
X147804285Y-64523904D01*
X147851904Y-64619142D01*
X147899523Y-64666761D01*
X147994761Y-64714380D01*
X148280476Y-64714380D01*
X148375714Y-64666761D01*
X148423333Y-64619142D01*
%TO.C,LED5*%
X198223047Y-125928380D02*
X198699238Y-125928380D01*
X198699238Y-124928380D01*
X197889714Y-125404571D02*
X197556380Y-125404571D01*
X197413523Y-125928380D02*
X197889714Y-125928380D01*
X197889714Y-124928380D01*
X197413523Y-124928380D01*
X196984952Y-125928380D02*
X196984952Y-124928380D01*
X196746857Y-124928380D01*
X196604000Y-124976000D01*
X196508761Y-125071238D01*
X196461142Y-125166476D01*
X196413523Y-125356952D01*
X196413523Y-125499809D01*
X196461142Y-125690285D01*
X196508761Y-125785523D01*
X196604000Y-125880761D01*
X196746857Y-125928380D01*
X196984952Y-125928380D01*
X195508761Y-124928380D02*
X195984952Y-124928380D01*
X196032571Y-125404571D01*
X195984952Y-125356952D01*
X195889714Y-125309333D01*
X195651619Y-125309333D01*
X195556380Y-125356952D01*
X195508761Y-125404571D01*
X195461142Y-125499809D01*
X195461142Y-125737904D01*
X195508761Y-125833142D01*
X195556380Y-125880761D01*
X195651619Y-125928380D01*
X195889714Y-125928380D01*
X195984952Y-125880761D01*
X196032571Y-125833142D01*
X200968285Y-124328380D02*
X201539714Y-124328380D01*
X201254000Y-124328380D02*
X201254000Y-123328380D01*
X201349238Y-123471238D01*
X201444476Y-123566476D01*
X201539714Y-123614095D01*
%TO.C,R1*%
X92114666Y-84018380D02*
X92448000Y-83542190D01*
X92686095Y-84018380D02*
X92686095Y-83018380D01*
X92305142Y-83018380D01*
X92209904Y-83066000D01*
X92162285Y-83113619D01*
X92114666Y-83208857D01*
X92114666Y-83351714D01*
X92162285Y-83446952D01*
X92209904Y-83494571D01*
X92305142Y-83542190D01*
X92686095Y-83542190D01*
X91162285Y-84018380D02*
X91733714Y-84018380D01*
X91448000Y-84018380D02*
X91448000Y-83018380D01*
X91543238Y-83161238D01*
X91638476Y-83256476D01*
X91733714Y-83304095D01*
%TO.C,R5*%
X130468666Y-122118380D02*
X130802000Y-121642190D01*
X131040095Y-122118380D02*
X131040095Y-121118380D01*
X130659142Y-121118380D01*
X130563904Y-121166000D01*
X130516285Y-121213619D01*
X130468666Y-121308857D01*
X130468666Y-121451714D01*
X130516285Y-121546952D01*
X130563904Y-121594571D01*
X130659142Y-121642190D01*
X131040095Y-121642190D01*
X129563904Y-121118380D02*
X130040095Y-121118380D01*
X130087714Y-121594571D01*
X130040095Y-121546952D01*
X129944857Y-121499333D01*
X129706761Y-121499333D01*
X129611523Y-121546952D01*
X129563904Y-121594571D01*
X129516285Y-121689809D01*
X129516285Y-121927904D01*
X129563904Y-122023142D01*
X129611523Y-122070761D01*
X129706761Y-122118380D01*
X129944857Y-122118380D01*
X130040095Y-122070761D01*
X130087714Y-122023142D01*
D12*
%TO.C,LED3*%
X144620000Y-67012000D02*
X137320000Y-67012000D01*
X144620000Y-61512000D02*
X137320000Y-61512000D01*
X137320000Y-67012000D02*
X137320000Y-65862000D01*
%TO.C,G\u002A\u002A\u002A*%
G36*
X192759200Y-126125127D02*
G01*
X192758704Y-126169470D01*
X192757357Y-126289783D01*
X192755512Y-126454439D01*
X192425910Y-126458069D01*
X192204458Y-126679383D01*
X191983006Y-126900696D01*
X191983006Y-127062676D01*
X191982932Y-127091788D01*
X191982529Y-127134955D01*
X191981823Y-127172248D01*
X191980868Y-127201702D01*
X191979719Y-127221352D01*
X191978428Y-127229234D01*
X191974992Y-127230053D01*
X191959530Y-127231262D01*
X191933528Y-127232296D01*
X191898950Y-127233102D01*
X191857762Y-127233625D01*
X191811928Y-127233811D01*
X191650005Y-127233811D01*
X191145257Y-126729099D01*
X190640510Y-126224386D01*
X190386502Y-126478463D01*
X190132494Y-126732541D01*
X189991430Y-126732541D01*
X189974692Y-126732535D01*
X189930740Y-126732377D01*
X189897673Y-126731861D01*
X189873334Y-126730792D01*
X189855567Y-126728975D01*
X189842214Y-126726215D01*
X189831119Y-126722319D01*
X189820125Y-126717091D01*
X189796761Y-126701417D01*
X189775753Y-126674174D01*
X189774775Y-126672252D01*
X189773065Y-126668548D01*
X189771510Y-126664182D01*
X189770103Y-126658533D01*
X189768836Y-126650977D01*
X189767702Y-126640893D01*
X189766694Y-126627657D01*
X189765804Y-126610647D01*
X189765024Y-126589241D01*
X189764348Y-126562817D01*
X189763768Y-126530751D01*
X189763277Y-126492421D01*
X189762867Y-126447206D01*
X189762531Y-126394481D01*
X189762262Y-126333626D01*
X189762052Y-126264017D01*
X189761893Y-126185032D01*
X189761865Y-126162603D01*
X190101347Y-126162603D01*
X190215129Y-126162603D01*
X190328053Y-126049089D01*
X190328682Y-125826134D01*
X190671462Y-125826134D01*
X190839499Y-125826134D01*
X190923715Y-125910148D01*
X191007932Y-125994162D01*
X191007932Y-125833000D01*
X191358134Y-125833000D01*
X191359191Y-126088786D01*
X191360247Y-126344571D01*
X191527425Y-126509215D01*
X191694604Y-126673860D01*
X191694604Y-126169470D01*
X192199203Y-126169470D01*
X192031073Y-126001235D01*
X191862944Y-125833000D01*
X191358134Y-125833000D01*
X191007932Y-125833000D01*
X191007932Y-125746720D01*
X191007935Y-125735281D01*
X191008105Y-125667080D01*
X191008561Y-125611536D01*
X191009333Y-125567718D01*
X191010449Y-125534692D01*
X191011941Y-125511525D01*
X191013839Y-125497285D01*
X191016172Y-125491038D01*
X191016639Y-125490657D01*
X191024031Y-125488391D01*
X191039558Y-125486557D01*
X191064151Y-125485123D01*
X191098745Y-125484061D01*
X191144272Y-125483339D01*
X191201664Y-125482928D01*
X191271854Y-125482798D01*
X191519296Y-125482798D01*
X191435282Y-125398581D01*
X191351268Y-125314365D01*
X191351268Y-125146328D01*
X190671462Y-125146328D01*
X190671462Y-125826134D01*
X190328682Y-125826134D01*
X190329806Y-125427757D01*
X190331560Y-124806426D01*
X190952892Y-124804672D01*
X191574223Y-124802919D01*
X191687737Y-124689995D01*
X191687737Y-124576213D01*
X190929466Y-124578018D01*
X190918210Y-124578045D01*
X190801159Y-124578328D01*
X190696998Y-124578597D01*
X190604953Y-124578868D01*
X190524251Y-124579156D01*
X190454118Y-124579479D01*
X190393781Y-124579852D01*
X190342466Y-124580290D01*
X190299400Y-124580809D01*
X190263809Y-124581426D01*
X190234919Y-124582156D01*
X190211958Y-124583015D01*
X190194151Y-124584020D01*
X190180725Y-124585185D01*
X190170906Y-124586527D01*
X190163921Y-124588062D01*
X190158997Y-124589805D01*
X190155359Y-124591773D01*
X190152235Y-124593982D01*
X190135471Y-124608767D01*
X190119116Y-124627101D01*
X190118905Y-124627382D01*
X190116720Y-124630521D01*
X190114773Y-124634244D01*
X190113049Y-124639323D01*
X190111532Y-124646532D01*
X190110207Y-124656646D01*
X190109056Y-124670436D01*
X190108066Y-124688678D01*
X190107219Y-124712144D01*
X190106500Y-124741609D01*
X190105892Y-124777844D01*
X190105381Y-124821625D01*
X190104949Y-124873725D01*
X190104582Y-124934917D01*
X190104263Y-125005974D01*
X190103977Y-125087671D01*
X190103707Y-125180781D01*
X190103437Y-125286077D01*
X190103152Y-125404332D01*
X190101347Y-126162603D01*
X189761865Y-126162603D01*
X189761780Y-126096048D01*
X189761703Y-125996443D01*
X189761657Y-125885595D01*
X189761632Y-125762881D01*
X189761623Y-125627678D01*
X189761622Y-125479364D01*
X189761622Y-125407482D01*
X189761627Y-125265448D01*
X189761643Y-125136233D01*
X189761678Y-125019216D01*
X189761739Y-124913778D01*
X189761833Y-124819296D01*
X189761968Y-124735152D01*
X189762151Y-124660723D01*
X189762389Y-124595391D01*
X189762689Y-124538533D01*
X189763060Y-124489529D01*
X189763507Y-124447759D01*
X189764039Y-124412603D01*
X189764663Y-124383439D01*
X189765385Y-124359647D01*
X189766214Y-124340606D01*
X189767156Y-124325696D01*
X189768218Y-124314297D01*
X189769409Y-124305787D01*
X189770735Y-124299546D01*
X189772204Y-124294953D01*
X189773823Y-124291389D01*
X189775598Y-124288231D01*
X189776761Y-124286333D01*
X189793442Y-124266349D01*
X189813365Y-124250464D01*
X189814848Y-124249604D01*
X189818121Y-124247903D01*
X189822095Y-124246356D01*
X189827391Y-124244956D01*
X189834628Y-124243695D01*
X189844429Y-124242566D01*
X189857412Y-124241561D01*
X189874200Y-124240674D01*
X189895413Y-124239896D01*
X189921670Y-124239222D01*
X189953594Y-124238642D01*
X189991803Y-124238151D01*
X190036920Y-124237741D01*
X190089564Y-124237405D01*
X190150357Y-124237135D01*
X190219918Y-124236924D01*
X190298868Y-124236764D01*
X190387828Y-124236650D01*
X190487419Y-124236572D01*
X190598261Y-124236524D01*
X190720974Y-124236499D01*
X190856180Y-124236489D01*
X191004498Y-124236488D01*
X191085338Y-124236488D01*
X191226576Y-124236493D01*
X191355035Y-124236509D01*
X191471337Y-124236544D01*
X191576106Y-124236606D01*
X191669964Y-124236701D01*
X191753533Y-124236838D01*
X191827436Y-124237023D01*
X191892295Y-124237264D01*
X191948732Y-124237568D01*
X191997371Y-124237942D01*
X192038833Y-124238395D01*
X192073742Y-124238932D01*
X192102719Y-124239563D01*
X192126387Y-124240293D01*
X192145369Y-124241131D01*
X192160286Y-124242083D01*
X192171762Y-124243158D01*
X192180420Y-124244362D01*
X192186880Y-124245702D01*
X192191767Y-124247187D01*
X192195702Y-124248824D01*
X192199308Y-124250619D01*
X192221012Y-124265899D01*
X192242225Y-124294991D01*
X192244057Y-124298634D01*
X192248837Y-124309426D01*
X192252348Y-124321009D01*
X192254784Y-124335542D01*
X192256341Y-124355180D01*
X192257212Y-124382080D01*
X192257591Y-124418400D01*
X192257675Y-124466296D01*
X192257675Y-124607360D01*
X192003597Y-124861368D01*
X191749520Y-125115376D01*
X192116917Y-125482798D01*
X192254361Y-125620251D01*
X192759200Y-126125127D01*
G37*
%TO.C,REF\u002A\u002A*%
X90548000Y-98506000D02*
X90548000Y-99106000D01*
X91248000Y-99806000D02*
X92648000Y-99806000D01*
X92648000Y-97806000D02*
X91248000Y-97806000D01*
X93348000Y-99106000D02*
X93348000Y-98506000D01*
X92648000Y-99806000D02*
G75*
G03*
X93348000Y-99106000I1J699999D01*
G01*
X91248000Y-97806000D02*
G75*
G03*
X90548000Y-98506000I0J-700000D01*
G01*
X93348000Y-98506000D02*
G75*
G03*
X92648000Y-97806000I-699999J1D01*
G01*
X90548000Y-99106000D02*
G75*
G03*
X91248000Y-99806000I700000J0D01*
G01*
%TO.C,C1*%
X92229000Y-125214748D02*
X92229000Y-125737252D01*
X93699000Y-125214748D02*
X93699000Y-125737252D01*
%TO.C,R6*%
X154405064Y-123925000D02*
X153950936Y-123925000D01*
X154405064Y-122455000D02*
X153950936Y-122455000D01*
%TO.C,C2*%
X93445000Y-65270748D02*
X93445000Y-65793252D01*
X91975000Y-65270748D02*
X91975000Y-65793252D01*
%TO.C,R8*%
X173201064Y-114273000D02*
X172746936Y-114273000D01*
X173201064Y-112803000D02*
X172746936Y-112803000D01*
%TO.C,R9*%
X192050936Y-85825000D02*
X192505064Y-85825000D01*
X192050936Y-84355000D02*
X192505064Y-84355000D01*
%TO.C,LED4*%
X144620000Y-122726000D02*
X137320000Y-122726000D01*
X144620000Y-128226000D02*
X137320000Y-128226000D01*
X137320000Y-128226000D02*
X137320000Y-127076000D01*
%TO.C,R10*%
X186716936Y-118645000D02*
X187171064Y-118645000D01*
X186716936Y-120115000D02*
X187171064Y-120115000D01*
%TO.C,U1*%
X183467750Y-60032998D02*
X162467750Y-60032998D01*
X162467750Y-90432998D02*
X162467750Y-90832998D01*
X162467750Y-72632998D02*
X162467750Y-73032998D01*
X183467750Y-72632998D02*
X183467750Y-73032998D01*
X183467750Y-92932998D02*
X183467750Y-93332998D01*
X183467750Y-90432998D02*
X183467750Y-90832998D01*
X183467750Y-75132998D02*
X183467750Y-75532998D01*
X183467750Y-105632998D02*
X183467750Y-106032998D01*
X183467750Y-77732998D02*
X183467750Y-78132998D01*
X162467750Y-98032998D02*
X162467750Y-98432998D01*
X162467750Y-62432998D02*
X162467750Y-62832998D01*
X183467750Y-82832998D02*
X183467750Y-83232998D01*
X183467750Y-108232998D02*
X183467750Y-108632998D01*
X162467750Y-105632998D02*
X162467750Y-106032998D01*
X183467750Y-87832998D02*
X183467750Y-88232998D01*
X183467750Y-80232998D02*
X183467750Y-80632998D01*
X183467750Y-67532998D02*
X183467750Y-67932998D01*
X183467750Y-65032998D02*
X183467750Y-65432998D01*
X162467750Y-92932998D02*
X162467750Y-93332998D01*
X176667750Y-111032998D02*
X183467750Y-111032998D01*
X162467750Y-108232998D02*
X162467750Y-108632998D01*
X162467750Y-75132998D02*
X162467750Y-75532998D01*
X180460750Y-62699998D02*
X180460750Y-60032998D01*
X183467750Y-62699998D02*
X180460750Y-62699998D01*
X183467750Y-95532998D02*
X183467750Y-95932998D01*
X162467750Y-60032998D02*
X162467750Y-60332998D01*
X162467750Y-85332998D02*
X162467750Y-85732998D01*
X162467750Y-80232998D02*
X162467750Y-80632998D01*
X162467750Y-111032998D02*
X169267750Y-111032998D01*
X162467750Y-82832998D02*
X162467750Y-83232998D01*
X162467750Y-87832998D02*
X162467750Y-88232998D01*
X162467750Y-95532998D02*
X162467750Y-95932998D01*
X162467750Y-100632998D02*
X162467750Y-101032998D01*
X183467750Y-70132998D02*
X183467750Y-70532998D01*
X162467750Y-103132998D02*
X162467750Y-103532998D01*
X183467750Y-100632998D02*
X183467750Y-101032998D01*
X183467750Y-60032998D02*
X183467750Y-60332998D01*
X183467750Y-62432998D02*
X183467750Y-62832998D01*
X162467750Y-70132998D02*
X162467750Y-70532998D01*
X183467750Y-103132998D02*
X183467750Y-103532998D01*
X162467750Y-77732998D02*
X162467750Y-78132998D01*
X183467750Y-98032998D02*
X183467750Y-98432998D01*
X183467750Y-85332998D02*
X183467750Y-85732998D01*
X162467750Y-65032998D02*
X162467750Y-65432998D01*
X162467750Y-67532998D02*
X162467750Y-67932998D01*
%TO.C,LED6*%
X193454000Y-67012000D02*
X193454000Y-65862000D01*
X200754000Y-61512000D02*
X193454000Y-61512000D01*
X200754000Y-67012000D02*
X193454000Y-67012000D01*
%TO.C,C4*%
X145823000Y-125214748D02*
X145823000Y-125737252D01*
X147293000Y-125214748D02*
X147293000Y-125737252D01*
%TO.C,LED2*%
X83472000Y-67012000D02*
X83472000Y-65862000D01*
X90772000Y-67012000D02*
X83472000Y-67012000D01*
X90772000Y-61512000D02*
X83472000Y-61512000D01*
%TO.C,R2*%
X97509064Y-120115000D02*
X97054936Y-120115000D01*
X97509064Y-118645000D02*
X97054936Y-118645000D01*
%TO.C,R4*%
X129820936Y-85825000D02*
X130275064Y-85825000D01*
X129820936Y-84355000D02*
X130275064Y-84355000D01*
%TO.C,R7*%
X154151064Y-85825000D02*
X153696936Y-85825000D01*
X154151064Y-84355000D02*
X153696936Y-84355000D01*
%TO.C,C5*%
X200379000Y-69334748D02*
X200379000Y-69857252D01*
X198909000Y-69334748D02*
X198909000Y-69857252D01*
%TO.C,C6*%
X200379000Y-120403252D02*
X200379000Y-119880748D01*
X198909000Y-120403252D02*
X198909000Y-119880748D01*
%TO.C,R3*%
X110770936Y-104621000D02*
X111225064Y-104621000D01*
X110770936Y-103151000D02*
X111225064Y-103151000D01*
%TO.C,LED1*%
X91026000Y-128226000D02*
X83726000Y-128226000D01*
X91026000Y-122726000D02*
X83726000Y-122726000D01*
X83726000Y-128226000D02*
X83726000Y-127076000D01*
%TO.C,C3*%
X145823000Y-64000748D02*
X145823000Y-64523252D01*
X147293000Y-64000748D02*
X147293000Y-64523252D01*
%TO.C,LED5*%
X200754000Y-122726000D02*
X193454000Y-122726000D01*
X200754000Y-128226000D02*
X193454000Y-128226000D01*
X193454000Y-128226000D02*
X193454000Y-127076000D01*
%TO.C,R1*%
X92175064Y-85825000D02*
X91720936Y-85825000D01*
X92175064Y-84355000D02*
X91720936Y-84355000D01*
%TO.C,R5*%
X130529064Y-122455000D02*
X130074936Y-122455000D01*
X130529064Y-123925000D02*
X130074936Y-123925000D01*
%TD*%
%LPC*%
D10*
X188890595Y-125371739D02*
X188890595Y-124355739D01*
X188503547Y-124355739D01*
X188406785Y-124404120D01*
X188358404Y-124452500D01*
X188310023Y-124549262D01*
X188310023Y-124694405D01*
X188358404Y-124791167D01*
X188406785Y-124839548D01*
X188503547Y-124887929D01*
X188890595Y-124887929D01*
X187874595Y-125371739D02*
X187874595Y-124694405D01*
X187874595Y-124355739D02*
X187922976Y-124404120D01*
X187874595Y-124452500D01*
X187826214Y-124404120D01*
X187874595Y-124355739D01*
X187874595Y-124452500D01*
X186955357Y-125323358D02*
X187052119Y-125371739D01*
X187245642Y-125371739D01*
X187342404Y-125323358D01*
X187390785Y-125274977D01*
X187439166Y-125178215D01*
X187439166Y-124887929D01*
X187390785Y-124791167D01*
X187342404Y-124742786D01*
X187245642Y-124694405D01*
X187052119Y-124694405D01*
X186955357Y-124742786D01*
X186374785Y-125371739D02*
X186471547Y-125323358D01*
X186519928Y-125274977D01*
X186568309Y-125178215D01*
X186568309Y-124887929D01*
X186519928Y-124791167D01*
X186471547Y-124742786D01*
X186374785Y-124694405D01*
X186229642Y-124694405D01*
X186132880Y-124742786D01*
X186084500Y-124791167D01*
X186036119Y-124887929D01*
X186036119Y-125178215D01*
X186084500Y-125274977D01*
X186132880Y-125323358D01*
X186229642Y-125371739D01*
X186374785Y-125371739D01*
X185262023Y-124839548D02*
X185600690Y-124839548D01*
X185600690Y-125371739D02*
X185600690Y-124355739D01*
X185116880Y-124355739D01*
X184826595Y-124355739D02*
X184149261Y-125371739D01*
X184149261Y-124355739D02*
X184826595Y-125371739D01*
X182988119Y-125371739D02*
X182988119Y-124355739D01*
X182601071Y-124355739D01*
X182504309Y-124404120D01*
X182455928Y-124452500D01*
X182407547Y-124549262D01*
X182407547Y-124694405D01*
X182455928Y-124791167D01*
X182504309Y-124839548D01*
X182601071Y-124887929D01*
X182988119Y-124887929D01*
X181391547Y-125274977D02*
X181439928Y-125323358D01*
X181585071Y-125371739D01*
X181681833Y-125371739D01*
X181826976Y-125323358D01*
X181923738Y-125226596D01*
X181972119Y-125129834D01*
X182020500Y-124936310D01*
X182020500Y-124791167D01*
X181972119Y-124597643D01*
X181923738Y-124500881D01*
X181826976Y-124404120D01*
X181681833Y-124355739D01*
X181585071Y-124355739D01*
X181439928Y-124404120D01*
X181391547Y-124452500D01*
X180617452Y-124839548D02*
X180472309Y-124887929D01*
X180423928Y-124936310D01*
X180375547Y-125033072D01*
X180375547Y-125178215D01*
X180423928Y-125274977D01*
X180472309Y-125323358D01*
X180569071Y-125371739D01*
X180956119Y-125371739D01*
X180956119Y-124355739D01*
X180617452Y-124355739D01*
X180520690Y-124404120D01*
X180472309Y-124452500D01*
X180423928Y-124549262D01*
X180423928Y-124646024D01*
X180472309Y-124742786D01*
X180520690Y-124791167D01*
X180617452Y-124839548D01*
X180956119Y-124839548D01*
X178585452Y-125371739D02*
X178924119Y-124887929D01*
X179166023Y-125371739D02*
X179166023Y-124355739D01*
X178778976Y-124355739D01*
X178682214Y-124404120D01*
X178633833Y-124452500D01*
X178585452Y-124549262D01*
X178585452Y-124694405D01*
X178633833Y-124791167D01*
X178682214Y-124839548D01*
X178778976Y-124887929D01*
X179166023Y-124887929D01*
X177762976Y-125323358D02*
X177859738Y-125371739D01*
X178053261Y-125371739D01*
X178150023Y-125323358D01*
X178198404Y-125226596D01*
X178198404Y-124839548D01*
X178150023Y-124742786D01*
X178053261Y-124694405D01*
X177859738Y-124694405D01*
X177762976Y-124742786D01*
X177714595Y-124839548D01*
X177714595Y-124936310D01*
X178198404Y-125033072D01*
X177375928Y-124694405D02*
X177134023Y-125371739D01*
X176892119Y-124694405D01*
X176505071Y-125274977D02*
X176456690Y-125323358D01*
X176505071Y-125371739D01*
X176553452Y-125323358D01*
X176505071Y-125274977D01*
X176505071Y-125371739D01*
X175295547Y-124452500D02*
X175247166Y-124404120D01*
X175150404Y-124355739D01*
X174908500Y-124355739D01*
X174811738Y-124404120D01*
X174763357Y-124452500D01*
X174714976Y-124549262D01*
X174714976Y-124646024D01*
X174763357Y-124791167D01*
X175343928Y-125371739D01*
X174714976Y-125371739D01*
X188890595Y-127007499D02*
X188890595Y-125991499D01*
X188455166Y-127007499D02*
X188455166Y-126475308D01*
X188503547Y-126378546D01*
X188600309Y-126330165D01*
X188745452Y-126330165D01*
X188842214Y-126378546D01*
X188890595Y-126426927D01*
X188116500Y-126330165D02*
X187729452Y-126330165D01*
X187971357Y-125991499D02*
X187971357Y-126862356D01*
X187922976Y-126959118D01*
X187826214Y-127007499D01*
X187729452Y-127007499D01*
X187535928Y-126330165D02*
X187148880Y-126330165D01*
X187390785Y-125991499D02*
X187390785Y-126862356D01*
X187342404Y-126959118D01*
X187245642Y-127007499D01*
X187148880Y-127007499D01*
X186810214Y-126330165D02*
X186810214Y-127346165D01*
X186810214Y-126378546D02*
X186713452Y-126330165D01*
X186519928Y-126330165D01*
X186423166Y-126378546D01*
X186374785Y-126426927D01*
X186326404Y-126523689D01*
X186326404Y-126813975D01*
X186374785Y-126910737D01*
X186423166Y-126959118D01*
X186519928Y-127007499D01*
X186713452Y-127007499D01*
X186810214Y-126959118D01*
X185939357Y-126959118D02*
X185842595Y-127007499D01*
X185649071Y-127007499D01*
X185552309Y-126959118D01*
X185503928Y-126862356D01*
X185503928Y-126813975D01*
X185552309Y-126717213D01*
X185649071Y-126668832D01*
X185794214Y-126668832D01*
X185890976Y-126620451D01*
X185939357Y-126523689D01*
X185939357Y-126475308D01*
X185890976Y-126378546D01*
X185794214Y-126330165D01*
X185649071Y-126330165D01*
X185552309Y-126378546D01*
X185068500Y-126910737D02*
X185020119Y-126959118D01*
X185068500Y-127007499D01*
X185116880Y-126959118D01*
X185068500Y-126910737D01*
X185068500Y-127007499D01*
X185068500Y-126378546D02*
X185020119Y-126426927D01*
X185068500Y-126475308D01*
X185116880Y-126426927D01*
X185068500Y-126378546D01*
X185068500Y-126475308D01*
X183858976Y-125943118D02*
X184729833Y-127249403D01*
X182794595Y-125943118D02*
X183665452Y-127249403D01*
X182020500Y-126330165D02*
X182020500Y-127152641D01*
X182068880Y-127249403D01*
X182117261Y-127297784D01*
X182214023Y-127346165D01*
X182359166Y-127346165D01*
X182455928Y-127297784D01*
X182020500Y-126959118D02*
X182117261Y-127007499D01*
X182310785Y-127007499D01*
X182407547Y-126959118D01*
X182455928Y-126910737D01*
X182504309Y-126813975D01*
X182504309Y-126523689D01*
X182455928Y-126426927D01*
X182407547Y-126378546D01*
X182310785Y-126330165D01*
X182117261Y-126330165D01*
X182020500Y-126378546D01*
X181536690Y-127007499D02*
X181536690Y-126330165D01*
X181536690Y-125991499D02*
X181585071Y-126039880D01*
X181536690Y-126088260D01*
X181488309Y-126039880D01*
X181536690Y-125991499D01*
X181536690Y-126088260D01*
X181198023Y-126330165D02*
X180810976Y-126330165D01*
X181052880Y-125991499D02*
X181052880Y-126862356D01*
X181004500Y-126959118D01*
X180907738Y-127007499D01*
X180810976Y-127007499D01*
X180472309Y-127007499D02*
X180472309Y-125991499D01*
X180036880Y-127007499D02*
X180036880Y-126475308D01*
X180085261Y-126378546D01*
X180182023Y-126330165D01*
X180327166Y-126330165D01*
X180423928Y-126378546D01*
X180472309Y-126426927D01*
X179117642Y-126330165D02*
X179117642Y-127007499D01*
X179553071Y-126330165D02*
X179553071Y-126862356D01*
X179504690Y-126959118D01*
X179407928Y-127007499D01*
X179262785Y-127007499D01*
X179166023Y-126959118D01*
X179117642Y-126910737D01*
X178633833Y-127007499D02*
X178633833Y-125991499D01*
X178633833Y-126378546D02*
X178537071Y-126330165D01*
X178343547Y-126330165D01*
X178246785Y-126378546D01*
X178198404Y-126426927D01*
X178150023Y-126523689D01*
X178150023Y-126813975D01*
X178198404Y-126910737D01*
X178246785Y-126959118D01*
X178343547Y-127007499D01*
X178537071Y-127007499D01*
X178633833Y-126959118D01*
X177714595Y-126910737D02*
X177666214Y-126959118D01*
X177714595Y-127007499D01*
X177762976Y-126959118D01*
X177714595Y-126910737D01*
X177714595Y-127007499D01*
X176795357Y-126959118D02*
X176892119Y-127007499D01*
X177085642Y-127007499D01*
X177182404Y-126959118D01*
X177230785Y-126910737D01*
X177279166Y-126813975D01*
X177279166Y-126523689D01*
X177230785Y-126426927D01*
X177182404Y-126378546D01*
X177085642Y-126330165D01*
X176892119Y-126330165D01*
X176795357Y-126378546D01*
X176214785Y-127007499D02*
X176311547Y-126959118D01*
X176359928Y-126910737D01*
X176408309Y-126813975D01*
X176408309Y-126523689D01*
X176359928Y-126426927D01*
X176311547Y-126378546D01*
X176214785Y-126330165D01*
X176069642Y-126330165D01*
X175972880Y-126378546D01*
X175924500Y-126426927D01*
X175876119Y-126523689D01*
X175876119Y-126813975D01*
X175924500Y-126910737D01*
X175972880Y-126959118D01*
X176069642Y-127007499D01*
X176214785Y-127007499D01*
X175440690Y-127007499D02*
X175440690Y-126330165D01*
X175440690Y-126426927D02*
X175392309Y-126378546D01*
X175295547Y-126330165D01*
X175150404Y-126330165D01*
X175053642Y-126378546D01*
X175005261Y-126475308D01*
X175005261Y-127007499D01*
X175005261Y-126475308D02*
X174956880Y-126378546D01*
X174860119Y-126330165D01*
X174714976Y-126330165D01*
X174618214Y-126378546D01*
X174569833Y-126475308D01*
X174569833Y-127007499D01*
X173360309Y-125943118D02*
X174231166Y-127249403D01*
X172586214Y-127007499D02*
X172586214Y-125991499D01*
X172586214Y-126959118D02*
X172682976Y-127007499D01*
X172876500Y-127007499D01*
X172973261Y-126959118D01*
X173021642Y-126910737D01*
X173070023Y-126813975D01*
X173070023Y-126523689D01*
X173021642Y-126426927D01*
X172973261Y-126378546D01*
X172876500Y-126330165D01*
X172682976Y-126330165D01*
X172586214Y-126378546D01*
X172102404Y-126330165D02*
X172102404Y-127201022D01*
X172150785Y-127297784D01*
X172247547Y-127346165D01*
X172295928Y-127346165D01*
X172102404Y-125991499D02*
X172150785Y-126039880D01*
X172102404Y-126088260D01*
X172054023Y-126039880D01*
X172102404Y-125991499D01*
X172102404Y-126088260D01*
X171134785Y-125991499D02*
X171618595Y-125991499D01*
X171666976Y-126475308D01*
X171618595Y-126426927D01*
X171521833Y-126378546D01*
X171279928Y-126378546D01*
X171183166Y-126426927D01*
X171134785Y-126475308D01*
X171086404Y-126572070D01*
X171086404Y-126813975D01*
X171134785Y-126910737D01*
X171183166Y-126959118D01*
X171279928Y-127007499D01*
X171521833Y-127007499D01*
X171618595Y-126959118D01*
X171666976Y-126910737D01*
X170457452Y-125991499D02*
X170360690Y-125991499D01*
X170263928Y-126039880D01*
X170215547Y-126088260D01*
X170167166Y-126185022D01*
X170118785Y-126378546D01*
X170118785Y-126620451D01*
X170167166Y-126813975D01*
X170215547Y-126910737D01*
X170263928Y-126959118D01*
X170360690Y-127007499D01*
X170457452Y-127007499D01*
X170554214Y-126959118D01*
X170602595Y-126910737D01*
X170650976Y-126813975D01*
X170699357Y-126620451D01*
X170699357Y-126378546D01*
X170650976Y-126185022D01*
X170602595Y-126088260D01*
X170554214Y-126039880D01*
X170457452Y-125991499D01*
X169199547Y-125991499D02*
X169683357Y-125991499D01*
X169731738Y-126475308D01*
X169683357Y-126426927D01*
X169586595Y-126378546D01*
X169344690Y-126378546D01*
X169247928Y-126426927D01*
X169199547Y-126475308D01*
X169151166Y-126572070D01*
X169151166Y-126813975D01*
X169199547Y-126910737D01*
X169247928Y-126959118D01*
X169344690Y-127007499D01*
X169586595Y-127007499D01*
X169683357Y-126959118D01*
X169731738Y-126910737D01*
X167990023Y-125943118D02*
X168860880Y-127249403D01*
X167651357Y-127007499D02*
X167651357Y-125991499D01*
X167264309Y-125991499D01*
X167167547Y-126039880D01*
X167119166Y-126088260D01*
X167070785Y-126185022D01*
X167070785Y-126330165D01*
X167119166Y-126426927D01*
X167167547Y-126475308D01*
X167264309Y-126523689D01*
X167651357Y-126523689D01*
X166635357Y-127007499D02*
X166635357Y-126330165D01*
X166635357Y-125991499D02*
X166683738Y-126039880D01*
X166635357Y-126088260D01*
X166586976Y-126039880D01*
X166635357Y-125991499D01*
X166635357Y-126088260D01*
X165716119Y-126959118D02*
X165812880Y-127007499D01*
X166006404Y-127007499D01*
X166103166Y-126959118D01*
X166151547Y-126910737D01*
X166199928Y-126813975D01*
X166199928Y-126523689D01*
X166151547Y-126426927D01*
X166103166Y-126378546D01*
X166006404Y-126330165D01*
X165812880Y-126330165D01*
X165716119Y-126378546D01*
X165135547Y-127007499D02*
X165232309Y-126959118D01*
X165280690Y-126910737D01*
X165329071Y-126813975D01*
X165329071Y-126523689D01*
X165280690Y-126426927D01*
X165232309Y-126378546D01*
X165135547Y-126330165D01*
X164990404Y-126330165D01*
X164893642Y-126378546D01*
X164845261Y-126426927D01*
X164796880Y-126523689D01*
X164796880Y-126813975D01*
X164845261Y-126910737D01*
X164893642Y-126959118D01*
X164990404Y-127007499D01*
X165135547Y-127007499D01*
X164022785Y-126475308D02*
X164361452Y-126475308D01*
X164361452Y-127007499D02*
X164361452Y-125991499D01*
X163877642Y-125991499D01*
X163587357Y-125991499D02*
X162910023Y-127007499D01*
X162910023Y-125991499D02*
X163587357Y-127007499D01*
X134480619Y-63069476D02*
X134480619Y-63307571D01*
X134004428Y-63069476D02*
X134004428Y-63307571D01*
X133587761Y-63069476D02*
X133290142Y-64319476D01*
X133052047Y-63426619D01*
X132813952Y-64319476D01*
X132516333Y-63069476D01*
X132040142Y-64319476D02*
X132040142Y-63069476D01*
X131504428Y-64319476D02*
X131504428Y-63664714D01*
X131563952Y-63545666D01*
X131683000Y-63486142D01*
X131861571Y-63486142D01*
X131980619Y-63545666D01*
X132040142Y-63605190D01*
X131028238Y-63486142D02*
X130730619Y-64319476D01*
X130433000Y-63486142D02*
X130730619Y-64319476D01*
X130849666Y-64617095D01*
X130909190Y-64676619D01*
X131028238Y-64736142D01*
X129063952Y-64259952D02*
X128944904Y-64319476D01*
X128706809Y-64319476D01*
X128587761Y-64259952D01*
X128528238Y-64140904D01*
X128528238Y-64081380D01*
X128587761Y-63962333D01*
X128706809Y-63902809D01*
X128885380Y-63902809D01*
X129004428Y-63843285D01*
X129063952Y-63724238D01*
X129063952Y-63664714D01*
X129004428Y-63545666D01*
X128885380Y-63486142D01*
X128706809Y-63486142D01*
X128587761Y-63545666D01*
X127516333Y-64259952D02*
X127635380Y-64319476D01*
X127873476Y-64319476D01*
X127992523Y-64259952D01*
X128052047Y-64140904D01*
X128052047Y-63664714D01*
X127992523Y-63545666D01*
X127873476Y-63486142D01*
X127635380Y-63486142D01*
X127516333Y-63545666D01*
X127456809Y-63664714D01*
X127456809Y-63783761D01*
X128052047Y-63902809D01*
X127099666Y-63486142D02*
X126623476Y-63486142D01*
X126921095Y-63069476D02*
X126921095Y-64140904D01*
X126861571Y-64259952D01*
X126742523Y-64319476D01*
X126623476Y-64319476D01*
X126385380Y-63486142D02*
X125909190Y-63486142D01*
X126206809Y-63069476D02*
X126206809Y-64140904D01*
X126147285Y-64259952D01*
X126028238Y-64319476D01*
X125909190Y-64319476D01*
X125313952Y-64319476D02*
X125433000Y-64259952D01*
X125492523Y-64140904D01*
X125492523Y-63069476D01*
X124361571Y-64259952D02*
X124480619Y-64319476D01*
X124718714Y-64319476D01*
X124837761Y-64259952D01*
X124897285Y-64140904D01*
X124897285Y-63664714D01*
X124837761Y-63545666D01*
X124718714Y-63486142D01*
X124480619Y-63486142D01*
X124361571Y-63545666D01*
X124302047Y-63664714D01*
X124302047Y-63783761D01*
X124897285Y-63902809D01*
X122992523Y-63486142D02*
X122516333Y-63486142D01*
X122813952Y-64319476D02*
X122813952Y-63248047D01*
X122754428Y-63129000D01*
X122635380Y-63069476D01*
X122516333Y-63069476D01*
X121921095Y-64319476D02*
X122040142Y-64259952D01*
X122099666Y-64200428D01*
X122159190Y-64081380D01*
X122159190Y-63724238D01*
X122099666Y-63605190D01*
X122040142Y-63545666D01*
X121921095Y-63486142D01*
X121742523Y-63486142D01*
X121623476Y-63545666D01*
X121563952Y-63605190D01*
X121504428Y-63724238D01*
X121504428Y-64081380D01*
X121563952Y-64200428D01*
X121623476Y-64259952D01*
X121742523Y-64319476D01*
X121921095Y-64319476D01*
X120968714Y-64319476D02*
X120968714Y-63486142D01*
X120968714Y-63724238D02*
X120909190Y-63605190D01*
X120849666Y-63545666D01*
X120730619Y-63486142D01*
X120611571Y-63486142D01*
X118706809Y-63486142D02*
X118706809Y-64319476D01*
X119004428Y-63009952D02*
X119302047Y-63902809D01*
X118528238Y-63902809D01*
X117218714Y-63486142D02*
X116980619Y-64319476D01*
X116742523Y-63724238D01*
X116504428Y-64319476D01*
X116266333Y-63486142D01*
X115790142Y-64319476D02*
X115790142Y-63069476D01*
X115254428Y-64319476D02*
X115254428Y-63664714D01*
X115313952Y-63545666D01*
X115433000Y-63486142D01*
X115611571Y-63486142D01*
X115730619Y-63545666D01*
X115790142Y-63605190D01*
X114183000Y-64259952D02*
X114302047Y-64319476D01*
X114540142Y-64319476D01*
X114659190Y-64259952D01*
X114718714Y-64140904D01*
X114718714Y-63664714D01*
X114659190Y-63545666D01*
X114540142Y-63486142D01*
X114302047Y-63486142D01*
X114183000Y-63545666D01*
X114123476Y-63664714D01*
X114123476Y-63783761D01*
X114718714Y-63902809D01*
X113587761Y-63486142D02*
X113587761Y-64319476D01*
X113587761Y-63605190D02*
X113528238Y-63545666D01*
X113409190Y-63486142D01*
X113230619Y-63486142D01*
X113111571Y-63545666D01*
X113052047Y-63664714D01*
X113052047Y-64319476D01*
X111623476Y-63486142D02*
X111325857Y-64319476D01*
X111028238Y-63486142D02*
X111325857Y-64319476D01*
X111444904Y-64617095D01*
X111504428Y-64676619D01*
X111623476Y-64736142D01*
X110373476Y-64319476D02*
X110492523Y-64259952D01*
X110552047Y-64200428D01*
X110611571Y-64081380D01*
X110611571Y-63724238D01*
X110552047Y-63605190D01*
X110492523Y-63545666D01*
X110373476Y-63486142D01*
X110194904Y-63486142D01*
X110075857Y-63545666D01*
X110016333Y-63605190D01*
X109956809Y-63724238D01*
X109956809Y-64081380D01*
X110016333Y-64200428D01*
X110075857Y-64259952D01*
X110194904Y-64319476D01*
X110373476Y-64319476D01*
X108885380Y-63486142D02*
X108885380Y-64319476D01*
X109421095Y-63486142D02*
X109421095Y-64140904D01*
X109361571Y-64259952D01*
X109242523Y-64319476D01*
X109063952Y-64319476D01*
X108944904Y-64259952D01*
X108885380Y-64200428D01*
X106802047Y-64259952D02*
X106921095Y-64319476D01*
X107159190Y-64319476D01*
X107278238Y-64259952D01*
X107337761Y-64200428D01*
X107397285Y-64081380D01*
X107397285Y-63724238D01*
X107337761Y-63605190D01*
X107278238Y-63545666D01*
X107159190Y-63486142D01*
X106921095Y-63486142D01*
X106802047Y-63545666D01*
X105730619Y-64319476D02*
X105730619Y-63664714D01*
X105790142Y-63545666D01*
X105909190Y-63486142D01*
X106147285Y-63486142D01*
X106266333Y-63545666D01*
X105730619Y-64259952D02*
X105849666Y-64319476D01*
X106147285Y-64319476D01*
X106266333Y-64259952D01*
X106325857Y-64140904D01*
X106325857Y-64021857D01*
X106266333Y-63902809D01*
X106147285Y-63843285D01*
X105849666Y-63843285D01*
X105730619Y-63783761D01*
X105135380Y-63486142D02*
X105135380Y-64319476D01*
X105135380Y-63605190D02*
X105075857Y-63545666D01*
X104956809Y-63486142D01*
X104778238Y-63486142D01*
X104659190Y-63545666D01*
X104599666Y-63664714D01*
X104599666Y-64319476D01*
X103052047Y-64319476D02*
X103052047Y-63069476D01*
X102516333Y-64319476D02*
X102516333Y-63664714D01*
X102575857Y-63545666D01*
X102694904Y-63486142D01*
X102873476Y-63486142D01*
X102992523Y-63545666D01*
X103052047Y-63605190D01*
X101385380Y-64319476D02*
X101385380Y-63664714D01*
X101444904Y-63545666D01*
X101563952Y-63486142D01*
X101802047Y-63486142D01*
X101921095Y-63545666D01*
X101385380Y-64259952D02*
X101504428Y-64319476D01*
X101802047Y-64319476D01*
X101921095Y-64259952D01*
X101980619Y-64140904D01*
X101980619Y-64021857D01*
X101921095Y-63902809D01*
X101802047Y-63843285D01*
X101504428Y-63843285D01*
X101385380Y-63783761D01*
X100909190Y-63486142D02*
X100611571Y-64319476D01*
X100313952Y-63486142D01*
X99361571Y-64259952D02*
X99480619Y-64319476D01*
X99718714Y-64319476D01*
X99837761Y-64259952D01*
X99897285Y-64140904D01*
X99897285Y-63664714D01*
X99837761Y-63545666D01*
X99718714Y-63486142D01*
X99480619Y-63486142D01*
X99361571Y-63545666D01*
X99302047Y-63664714D01*
X99302047Y-63783761D01*
X99897285Y-63902809D01*
X97218714Y-63069476D02*
X97813952Y-63069476D01*
X97873476Y-63664714D01*
X97813952Y-63605190D01*
X97694904Y-63545666D01*
X97397285Y-63545666D01*
X97278238Y-63605190D01*
X97218714Y-63664714D01*
X97159190Y-63783761D01*
X97159190Y-64081380D01*
X97218714Y-64200428D01*
X97278238Y-64259952D01*
X97397285Y-64319476D01*
X97694904Y-64319476D01*
X97813952Y-64259952D01*
X97873476Y-64200428D01*
X96444904Y-64200428D02*
X96385380Y-64259952D01*
X96444904Y-64319476D01*
X96504428Y-64259952D01*
X96444904Y-64200428D01*
X96444904Y-64319476D01*
X96683000Y-63129000D02*
X96563952Y-63069476D01*
X96266333Y-63069476D01*
X96147285Y-63129000D01*
X96087761Y-63248047D01*
X96087761Y-63367095D01*
X96147285Y-63486142D01*
X96206809Y-63545666D01*
X96325857Y-63605190D01*
X96385380Y-63664714D01*
X96444904Y-63783761D01*
X96444904Y-63843285D01*
X95611571Y-63069476D02*
X95611571Y-63307571D01*
X95135380Y-63069476D02*
X95135380Y-63307571D01*
X137557440Y-57246130D02*
X136986011Y-57246130D01*
X137271726Y-57246130D02*
X137271726Y-56246130D01*
X137176488Y-56388988D01*
X137081250Y-56484226D01*
X136986011Y-56531845D01*
X137938392Y-56341369D02*
X137986011Y-56293750D01*
X138081250Y-56246130D01*
X138319345Y-56246130D01*
X138414583Y-56293750D01*
X138462202Y-56341369D01*
X138509821Y-56436607D01*
X138509821Y-56531845D01*
X138462202Y-56674702D01*
X137890773Y-57246130D01*
X138509821Y-57246130D01*
X139128869Y-56246130D02*
X139224107Y-56246130D01*
X139319345Y-56293750D01*
X139366964Y-56341369D01*
X139414583Y-56436607D01*
X139462202Y-56627083D01*
X139462202Y-56865178D01*
X139414583Y-57055654D01*
X139366964Y-57150892D01*
X139319345Y-57198511D01*
X139224107Y-57246130D01*
X139128869Y-57246130D01*
X139033630Y-57198511D01*
X138986011Y-57150892D01*
X138938392Y-57055654D01*
X138890773Y-56865178D01*
X138890773Y-56627083D01*
X138938392Y-56436607D01*
X138986011Y-56341369D01*
X139033630Y-56293750D01*
X139128869Y-56246130D01*
X139890773Y-57150892D02*
X139938392Y-57198511D01*
X139890773Y-57246130D01*
X139843154Y-57198511D01*
X139890773Y-57150892D01*
X139890773Y-57246130D01*
X140795535Y-56246130D02*
X140605059Y-56246130D01*
X140509821Y-56293750D01*
X140462202Y-56341369D01*
X140366964Y-56484226D01*
X140319345Y-56674702D01*
X140319345Y-57055654D01*
X140366964Y-57150892D01*
X140414583Y-57198511D01*
X140509821Y-57246130D01*
X140700297Y-57246130D01*
X140795535Y-57198511D01*
X140843154Y-57150892D01*
X140890773Y-57055654D01*
X140890773Y-56817559D01*
X140843154Y-56722321D01*
X140795535Y-56674702D01*
X140700297Y-56627083D01*
X140509821Y-56627083D01*
X140414583Y-56674702D01*
X140366964Y-56722321D01*
X140319345Y-56817559D01*
X141795535Y-56246130D02*
X141319345Y-56246130D01*
X141271726Y-56722321D01*
X141319345Y-56674702D01*
X141414583Y-56627083D01*
X141652678Y-56627083D01*
X141747916Y-56674702D01*
X141795535Y-56722321D01*
X141843154Y-56817559D01*
X141843154Y-57055654D01*
X141795535Y-57150892D01*
X141747916Y-57198511D01*
X141652678Y-57246130D01*
X141414583Y-57246130D01*
X141319345Y-57198511D01*
X141271726Y-57150892D01*
X142462202Y-56246130D02*
X142557440Y-56246130D01*
X142652678Y-56293750D01*
X142700297Y-56341369D01*
X142747916Y-56436607D01*
X142795535Y-56627083D01*
X142795535Y-56865178D01*
X142747916Y-57055654D01*
X142700297Y-57150892D01*
X142652678Y-57198511D01*
X142557440Y-57246130D01*
X142462202Y-57246130D01*
X142366964Y-57198511D01*
X142319345Y-57150892D01*
X142271726Y-57055654D01*
X142224107Y-56865178D01*
X142224107Y-56627083D01*
X142271726Y-56436607D01*
X142319345Y-56341369D01*
X142366964Y-56293750D01*
X142462202Y-56246130D01*
X143414583Y-56246130D02*
X143509821Y-56246130D01*
X143605059Y-56293750D01*
X143652678Y-56341369D01*
X143700297Y-56436607D01*
X143747916Y-56627083D01*
X143747916Y-56865178D01*
X143700297Y-57055654D01*
X143652678Y-57150892D01*
X143605059Y-57198511D01*
X143509821Y-57246130D01*
X143414583Y-57246130D01*
X143319345Y-57198511D01*
X143271726Y-57150892D01*
X143224107Y-57055654D01*
X143176488Y-56865178D01*
X143176488Y-56627083D01*
X143224107Y-56436607D01*
X143271726Y-56341369D01*
X143319345Y-56293750D01*
X143414583Y-56246130D01*
X144938392Y-57246130D02*
X144938392Y-56579464D01*
X144938392Y-56674702D02*
X144986011Y-56627083D01*
X145081250Y-56579464D01*
X145224107Y-56579464D01*
X145319345Y-56627083D01*
X145366964Y-56722321D01*
X145366964Y-57246130D01*
X145366964Y-56722321D02*
X145414583Y-56627083D01*
X145509821Y-56579464D01*
X145652678Y-56579464D01*
X145747916Y-56627083D01*
X145795535Y-56722321D01*
X145795535Y-57246130D01*
X146271726Y-57246130D02*
X146271726Y-56579464D01*
X146271726Y-56674702D02*
X146319345Y-56627083D01*
X146414583Y-56579464D01*
X146557440Y-56579464D01*
X146652678Y-56627083D01*
X146700297Y-56722321D01*
X146700297Y-57246130D01*
X146700297Y-56722321D02*
X146747916Y-56627083D01*
X146843154Y-56579464D01*
X146986011Y-56579464D01*
X147081250Y-56627083D01*
X147128869Y-56722321D01*
X147128869Y-57246130D01*
X202406250Y-59031250D02*
X202406250Y-57357330D01*
X81756250Y-59031250D02*
X81756250Y-57357330D01*
X202406250Y-57943750D02*
X81756250Y-57943750D01*
X202406250Y-57943750D02*
X81756250Y-57943750D01*
X202406250Y-57943750D02*
X201279746Y-57357329D01*
X202406250Y-57943750D02*
X201279746Y-58530171D01*
X81756250Y-57943750D02*
X82882754Y-58530171D01*
X81756250Y-57943750D02*
X82882754Y-57357329D01*
X78471130Y-99519791D02*
X78471130Y-98853125D01*
X79471130Y-99281696D01*
X78471130Y-98281696D02*
X78471130Y-98186458D01*
X78518750Y-98091220D01*
X78566369Y-98043601D01*
X78661607Y-97995982D01*
X78852083Y-97948363D01*
X79090178Y-97948363D01*
X79280654Y-97995982D01*
X79375892Y-98043601D01*
X79423511Y-98091220D01*
X79471130Y-98186458D01*
X79471130Y-98281696D01*
X79423511Y-98376934D01*
X79375892Y-98424553D01*
X79280654Y-98472172D01*
X79090178Y-98519791D01*
X78852083Y-98519791D01*
X78661607Y-98472172D01*
X78566369Y-98424553D01*
X78518750Y-98376934D01*
X78471130Y-98281696D01*
X79375892Y-97519791D02*
X79423511Y-97472172D01*
X79471130Y-97519791D01*
X79423511Y-97567410D01*
X79375892Y-97519791D01*
X79471130Y-97519791D01*
X78471130Y-96615029D02*
X78471130Y-96805505D01*
X78518750Y-96900744D01*
X78566369Y-96948363D01*
X78709226Y-97043601D01*
X78899702Y-97091220D01*
X79280654Y-97091220D01*
X79375892Y-97043601D01*
X79423511Y-96995982D01*
X79471130Y-96900744D01*
X79471130Y-96710267D01*
X79423511Y-96615029D01*
X79375892Y-96567410D01*
X79280654Y-96519791D01*
X79042559Y-96519791D01*
X78947321Y-96567410D01*
X78899702Y-96615029D01*
X78852083Y-96710267D01*
X78852083Y-96900744D01*
X78899702Y-96995982D01*
X78947321Y-97043601D01*
X79042559Y-97091220D01*
X78804464Y-95662648D02*
X79471130Y-95662648D01*
X78423511Y-95900744D02*
X79137797Y-96138839D01*
X79137797Y-95519791D01*
X78471130Y-95234077D02*
X78471130Y-94615029D01*
X78852083Y-94948363D01*
X78852083Y-94805505D01*
X78899702Y-94710267D01*
X78947321Y-94662648D01*
X79042559Y-94615029D01*
X79280654Y-94615029D01*
X79375892Y-94662648D01*
X79423511Y-94710267D01*
X79471130Y-94805505D01*
X79471130Y-95091220D01*
X79423511Y-95186458D01*
X79375892Y-95234077D01*
X78471130Y-94281696D02*
X78471130Y-93615029D01*
X79471130Y-94043601D01*
X79471130Y-92472172D02*
X78804464Y-92472172D01*
X78899702Y-92472172D02*
X78852083Y-92424553D01*
X78804464Y-92329315D01*
X78804464Y-92186458D01*
X78852083Y-92091220D01*
X78947321Y-92043601D01*
X79471130Y-92043601D01*
X78947321Y-92043601D02*
X78852083Y-91995982D01*
X78804464Y-91900744D01*
X78804464Y-91757886D01*
X78852083Y-91662648D01*
X78947321Y-91615029D01*
X79471130Y-91615029D01*
X79471130Y-91138839D02*
X78804464Y-91138839D01*
X78899702Y-91138839D02*
X78852083Y-91091220D01*
X78804464Y-90995982D01*
X78804464Y-90853125D01*
X78852083Y-90757886D01*
X78947321Y-90710267D01*
X79471130Y-90710267D01*
X78947321Y-90710267D02*
X78852083Y-90662648D01*
X78804464Y-90567410D01*
X78804464Y-90424553D01*
X78852083Y-90329315D01*
X78947321Y-90281696D01*
X79471130Y-90281696D01*
X81256250Y-59531250D02*
X79582330Y-59531250D01*
X81256250Y-130175000D02*
X79582330Y-130175000D01*
X80168750Y-59531250D02*
X80168750Y-130175000D01*
X80168750Y-59531250D02*
X80168750Y-130175000D01*
X80168750Y-59531250D02*
X79582329Y-60657754D01*
X80168750Y-59531250D02*
X80755171Y-60657754D01*
X80168750Y-130175000D02*
X80755171Y-129048496D01*
X80168750Y-130175000D02*
X79582329Y-129048496D01*
%TO.C,G\u002A\u002A\u002A*%
G36*
X119525379Y-115075147D02*
G01*
X119378676Y-115542350D01*
X119171616Y-115988731D01*
X118903492Y-116416713D01*
X118793755Y-116564373D01*
X118451582Y-116954886D01*
X118071448Y-117292963D01*
X117653871Y-117578282D01*
X117199371Y-117810518D01*
X116708465Y-117989349D01*
X116181673Y-118114450D01*
X116107370Y-118125916D01*
X115879873Y-118145556D01*
X115615299Y-118151508D01*
X115332402Y-118144486D01*
X115049938Y-118125204D01*
X114786659Y-118094377D01*
X114561320Y-118052720D01*
X114183537Y-117947559D01*
X113661224Y-117746627D01*
X113146725Y-117484149D01*
X112642857Y-117161977D01*
X112152434Y-116781966D01*
X111678272Y-116345967D01*
X111223186Y-115855833D01*
X111167704Y-115792209D01*
X111086223Y-115702167D01*
X111026290Y-115640300D01*
X110998000Y-115617301D01*
X110985233Y-115625971D01*
X110936599Y-115673755D01*
X110862427Y-115753941D01*
X110772813Y-115855833D01*
X110515920Y-116141383D01*
X110058075Y-116592149D01*
X109581016Y-116992407D01*
X109089551Y-117338585D01*
X108588490Y-117627111D01*
X108082639Y-117854413D01*
X108027530Y-117875284D01*
X107521712Y-118031113D01*
X107013889Y-118125385D01*
X106508541Y-118159389D01*
X106010149Y-118134418D01*
X105523192Y-118051760D01*
X105052151Y-117912709D01*
X104601507Y-117718553D01*
X104175740Y-117470585D01*
X103779331Y-117170095D01*
X103416760Y-116818374D01*
X103092507Y-116416713D01*
X103001378Y-116283677D01*
X102752574Y-115850158D01*
X102564612Y-115397477D01*
X102436783Y-114923209D01*
X102368381Y-114424928D01*
X102360649Y-114005959D01*
X104074214Y-114005959D01*
X104091641Y-114368576D01*
X104165167Y-114714529D01*
X104176665Y-114751124D01*
X104328577Y-115121530D01*
X104532113Y-115454395D01*
X104784054Y-115746504D01*
X105081183Y-115994640D01*
X105420280Y-116195588D01*
X105798127Y-116346133D01*
X105915979Y-116377429D01*
X106177761Y-116418756D01*
X106463574Y-116433908D01*
X106749858Y-116422175D01*
X107013051Y-116382844D01*
X107402522Y-116267940D01*
X107804314Y-116090066D01*
X108206935Y-115853773D01*
X108606393Y-115561983D01*
X108998697Y-115217616D01*
X109379856Y-114823594D01*
X109745878Y-114382836D01*
X109989159Y-114067327D01*
X112006841Y-114067327D01*
X112252879Y-114388743D01*
X112305497Y-114455683D01*
X112465527Y-114644869D01*
X112652948Y-114850673D01*
X112856479Y-115061865D01*
X113064844Y-115267218D01*
X113266762Y-115455503D01*
X113450956Y-115615492D01*
X113606145Y-115735956D01*
X113858007Y-115903695D01*
X114263674Y-116127459D01*
X114667454Y-116291370D01*
X115074893Y-116397930D01*
X115110732Y-116404512D01*
X115498811Y-116440913D01*
X115885156Y-116414803D01*
X116260232Y-116326753D01*
X116283657Y-116319017D01*
X116631470Y-116170086D01*
X116946637Y-115971396D01*
X117225143Y-115729322D01*
X117462968Y-115450237D01*
X117656096Y-115140518D01*
X117800510Y-114806538D01*
X117892191Y-114454672D01*
X117927123Y-114091294D01*
X117901289Y-113722780D01*
X117853250Y-113477513D01*
X117758432Y-113176061D01*
X117623310Y-112901726D01*
X117440400Y-112640095D01*
X117202217Y-112376755D01*
X117169082Y-112343738D01*
X117025942Y-112208141D01*
X116901505Y-112106089D01*
X116777398Y-112023652D01*
X116635245Y-111946898D01*
X116599840Y-111929433D01*
X116309283Y-111805680D01*
X116031440Y-111727909D01*
X115743168Y-111691239D01*
X115421324Y-111690785D01*
X115280914Y-111699808D01*
X115106269Y-111717150D01*
X114952130Y-111738751D01*
X114840637Y-111761898D01*
X114662842Y-111818552D01*
X114358464Y-111942713D01*
X114048013Y-112099210D01*
X113753556Y-112277572D01*
X113743182Y-112284516D01*
X113514635Y-112453225D01*
X113264086Y-112663934D01*
X113003665Y-112904524D01*
X112745504Y-113162881D01*
X112501733Y-113426886D01*
X112284481Y-113684424D01*
X112105880Y-113923379D01*
X112006841Y-114067327D01*
X109989159Y-114067327D01*
X109890120Y-113923379D01*
X109882487Y-113912336D01*
X109701719Y-113672194D01*
X109482892Y-113414059D01*
X109238137Y-113150048D01*
X108979585Y-112892278D01*
X108719365Y-112652864D01*
X108469607Y-112443923D01*
X108242443Y-112277572D01*
X108060973Y-112163803D01*
X107753912Y-111997918D01*
X107444686Y-111860461D01*
X107155363Y-111761898D01*
X107069678Y-111743233D01*
X106922126Y-111721117D01*
X106749745Y-111702731D01*
X106574676Y-111690785D01*
X106535073Y-111689145D01*
X106218285Y-111693529D01*
X105932398Y-111734695D01*
X105654269Y-111817523D01*
X105360755Y-111946898D01*
X105329416Y-111962762D01*
X105192433Y-112039544D01*
X105069750Y-112124849D01*
X104942991Y-112232609D01*
X104793782Y-112376755D01*
X104680220Y-112495827D01*
X104561129Y-112631321D01*
X104461261Y-112755819D01*
X104394614Y-112852634D01*
X104342697Y-112946633D01*
X104201326Y-113282137D01*
X104111304Y-113639529D01*
X104074214Y-114005959D01*
X102360649Y-114005959D01*
X102358698Y-113900209D01*
X102368506Y-113700319D01*
X102394548Y-113424961D01*
X102437568Y-113174530D01*
X102502042Y-112925136D01*
X102592448Y-112652888D01*
X102782682Y-112211331D01*
X103034724Y-111781676D01*
X103338028Y-111385824D01*
X103688308Y-111028131D01*
X104081279Y-110712954D01*
X104512656Y-110444648D01*
X104978154Y-110227571D01*
X105205760Y-110143516D01*
X105423930Y-110078087D01*
X105640604Y-110031885D01*
X105872226Y-110002149D01*
X106135239Y-109986118D01*
X106446087Y-109981029D01*
X106550689Y-109981189D01*
X106823353Y-109986278D01*
X107054353Y-110000226D01*
X107260804Y-110025542D01*
X107459819Y-110064734D01*
X107668511Y-110120313D01*
X107903995Y-110194786D01*
X108294486Y-110347375D01*
X108728699Y-110564964D01*
X109165304Y-110830172D01*
X109594459Y-111135949D01*
X110006323Y-111475242D01*
X110391056Y-111841001D01*
X110738816Y-112226172D01*
X110832331Y-112337303D01*
X110914076Y-112431554D01*
X110972201Y-112495312D01*
X110998000Y-112518749D01*
X111022465Y-112496699D01*
X111079716Y-112434047D01*
X111160857Y-112340596D01*
X111257184Y-112226172D01*
X111577030Y-111869745D01*
X111959293Y-111502260D01*
X112369437Y-111160703D01*
X112797621Y-110852125D01*
X113234004Y-110583578D01*
X113668746Y-110362115D01*
X114092005Y-110194786D01*
X114175661Y-110167343D01*
X114400174Y-110099537D01*
X114603680Y-110049778D01*
X114803294Y-110015557D01*
X115016128Y-109994365D01*
X115259296Y-109983692D01*
X115549913Y-109981029D01*
X115851068Y-109985781D01*
X116115438Y-110001395D01*
X116347857Y-110030619D01*
X116564770Y-110076215D01*
X116782618Y-110140946D01*
X117017846Y-110227571D01*
X117466622Y-110435634D01*
X117899344Y-110702113D01*
X118293820Y-111015626D01*
X118645764Y-111371816D01*
X118950891Y-111766327D01*
X119204915Y-112194803D01*
X119403552Y-112652888D01*
X119464515Y-112830642D01*
X119537843Y-113085538D01*
X119588099Y-113332838D01*
X119619759Y-113596431D01*
X119637301Y-113900209D01*
X119640544Y-114068569D01*
X119639306Y-114091294D01*
X119612433Y-114584695D01*
X119525379Y-115075147D01*
G37*
G36*
X117751707Y-114181363D02*
G01*
X117748627Y-114349840D01*
X117741247Y-114476897D01*
X117727963Y-114577455D01*
X117707171Y-114666434D01*
X117677267Y-114758755D01*
X117558219Y-115036616D01*
X117363324Y-115354886D01*
X117123247Y-115635354D01*
X116844145Y-115872944D01*
X116532176Y-116062583D01*
X116193498Y-116199194D01*
X115834267Y-116277704D01*
X115786393Y-116283416D01*
X115400240Y-116292969D01*
X115008743Y-116238804D01*
X114613321Y-116121547D01*
X114215392Y-115941825D01*
X113816373Y-115700265D01*
X113417684Y-115397494D01*
X113020740Y-115034138D01*
X112923943Y-114936248D01*
X112759764Y-114762946D01*
X112606464Y-114592496D01*
X112469866Y-114432057D01*
X112355794Y-114288790D01*
X112270072Y-114169855D01*
X112218524Y-114082413D01*
X112217040Y-114076144D01*
X112449938Y-114076144D01*
X112462608Y-114106716D01*
X112542520Y-114209251D01*
X112880108Y-114606629D01*
X113230714Y-114965195D01*
X113589199Y-115281034D01*
X113950423Y-115550231D01*
X114309249Y-115768873D01*
X114660537Y-115933044D01*
X114999148Y-116038832D01*
X115145996Y-116066149D01*
X115313547Y-116087814D01*
X115480365Y-116101940D01*
X115625525Y-116106759D01*
X115728102Y-116100498D01*
X116007581Y-116043794D01*
X116289469Y-115956507D01*
X116535539Y-115840059D01*
X116760348Y-115687358D01*
X116978455Y-115491310D01*
X117139277Y-115314788D01*
X117334342Y-115034272D01*
X117469935Y-114735157D01*
X117549076Y-114410153D01*
X117574786Y-114051969D01*
X117570133Y-113885952D01*
X117535575Y-113616806D01*
X117461740Y-113363552D01*
X117342041Y-113099223D01*
X117272429Y-112976652D01*
X117063425Y-112698768D01*
X116805706Y-112459480D01*
X116504532Y-112263190D01*
X116165163Y-112114301D01*
X116070023Y-112082795D01*
X115956834Y-112052678D01*
X115844231Y-112035035D01*
X115710447Y-112026780D01*
X115533714Y-112024830D01*
X115412088Y-112026503D01*
X115153524Y-112044171D01*
X114950551Y-112081464D01*
X114846038Y-112113722D01*
X114635460Y-112196022D01*
X114402709Y-112303990D01*
X114165929Y-112428409D01*
X113943265Y-112560063D01*
X113752865Y-112689739D01*
X113741733Y-112698093D01*
X113529073Y-112871066D01*
X113296888Y-113081478D01*
X113060912Y-113313867D01*
X112836879Y-113552774D01*
X112640524Y-113782737D01*
X112565385Y-113877445D01*
X112495775Y-113971618D01*
X112459143Y-114034481D01*
X112449938Y-114076144D01*
X112217040Y-114076144D01*
X112206973Y-114033624D01*
X112207403Y-114032527D01*
X112246245Y-113967010D01*
X112322323Y-113864561D01*
X112427724Y-113734296D01*
X112554533Y-113585333D01*
X112694834Y-113426787D01*
X112840713Y-113267774D01*
X112984254Y-113117413D01*
X113117544Y-112984818D01*
X113294292Y-112821336D01*
X113689295Y-112501208D01*
X114087163Y-112239962D01*
X114484854Y-112039467D01*
X114879325Y-111901595D01*
X115114043Y-111854660D01*
X115385972Y-111829820D01*
X115663786Y-111829621D01*
X115925536Y-111854037D01*
X116149275Y-111903043D01*
X116351073Y-111973049D01*
X116625729Y-112101591D01*
X116870338Y-112264641D01*
X117105015Y-112474221D01*
X117274209Y-112655510D01*
X117433739Y-112864511D01*
X117559744Y-113085147D01*
X117665973Y-113338603D01*
X117699820Y-113436402D01*
X117723661Y-113523555D01*
X117738998Y-113614451D01*
X117747647Y-113724350D01*
X117751426Y-113868512D01*
X117752115Y-114051969D01*
X117752153Y-114062199D01*
X117751707Y-114181363D01*
G37*
G36*
X119985328Y-114383173D02*
G01*
X119964999Y-114660481D01*
X119930599Y-114894251D01*
X119842881Y-115254062D01*
X119667039Y-115755802D01*
X119437668Y-116226828D01*
X119158389Y-116663739D01*
X118832824Y-117063134D01*
X118464595Y-117421612D01*
X118057326Y-117735772D01*
X117614637Y-118002214D01*
X117140151Y-118217536D01*
X116637491Y-118378338D01*
X116110277Y-118481218D01*
X116089592Y-118483878D01*
X115877116Y-118500382D01*
X115623669Y-118505121D01*
X115349522Y-118498889D01*
X115074945Y-118482478D01*
X114820209Y-118456684D01*
X114605585Y-118422299D01*
X114123081Y-118297446D01*
X113591020Y-118099644D01*
X113063495Y-117840813D01*
X112544419Y-117522895D01*
X112037706Y-117147832D01*
X111984822Y-117103804D01*
X111857140Y-116991423D01*
X111706537Y-116853126D01*
X111547590Y-116702406D01*
X111394875Y-116552758D01*
X110998000Y-116156225D01*
X110601125Y-116553224D01*
X110508950Y-116644244D01*
X110011567Y-117094766D01*
X109508155Y-117482097D01*
X108996525Y-117807515D01*
X108474484Y-118072297D01*
X107939844Y-118277719D01*
X107390415Y-118425058D01*
X107273930Y-118446379D01*
X107018438Y-118477005D01*
X106730722Y-118495287D01*
X106429911Y-118501046D01*
X106135136Y-118494104D01*
X105865529Y-118474281D01*
X105640220Y-118441399D01*
X105577622Y-118428417D01*
X105051551Y-118284146D01*
X104555752Y-118084882D01*
X104093443Y-117833817D01*
X103667844Y-117534146D01*
X103282173Y-117189063D01*
X102939650Y-116801762D01*
X102643492Y-116375436D01*
X102396918Y-115913279D01*
X102203148Y-115418486D01*
X102065401Y-114894251D01*
X102049471Y-114804217D01*
X102020909Y-114550077D01*
X102006332Y-114260524D01*
X102006132Y-114183937D01*
X102200854Y-114183937D01*
X102210723Y-114449497D01*
X102230938Y-114687938D01*
X102261495Y-114880836D01*
X102318956Y-115115232D01*
X102487727Y-115617322D01*
X102710468Y-116089201D01*
X102984165Y-116526913D01*
X103305806Y-116926501D01*
X103672377Y-117284011D01*
X104080865Y-117595484D01*
X104528257Y-117856966D01*
X104938787Y-118037874D01*
X105431691Y-118191270D01*
X105937489Y-118283765D01*
X106451975Y-118315622D01*
X106970943Y-118287109D01*
X107490188Y-118198489D01*
X108005504Y-118050028D01*
X108512685Y-117841991D01*
X109007526Y-117574643D01*
X109105175Y-117514293D01*
X109385880Y-117329281D01*
X109649163Y-117135640D01*
X109908728Y-116922299D01*
X110178282Y-116678188D01*
X110471533Y-116392236D01*
X110998000Y-115864250D01*
X111524467Y-116392236D01*
X111566336Y-116433986D01*
X111741912Y-116604598D01*
X111921047Y-116772428D01*
X112091632Y-116926487D01*
X112241557Y-117055786D01*
X112358714Y-117149334D01*
X112400592Y-117180311D01*
X112898945Y-117517851D01*
X113392801Y-117793668D01*
X113887026Y-118009915D01*
X114386482Y-118168745D01*
X114896037Y-118272311D01*
X115170045Y-118304121D01*
X115684681Y-118316407D01*
X116190282Y-118268081D01*
X116682061Y-118161601D01*
X117155234Y-117999422D01*
X117605011Y-117784002D01*
X118026608Y-117517796D01*
X118415236Y-117203260D01*
X118766110Y-116842852D01*
X119074443Y-116439026D01*
X119335449Y-115994240D01*
X119337928Y-115989348D01*
X119550399Y-115500869D01*
X119700155Y-115000769D01*
X119786827Y-114492466D01*
X119810044Y-113979379D01*
X119769438Y-113464928D01*
X119664636Y-112952530D01*
X119630144Y-112830959D01*
X119454530Y-112351121D01*
X119223475Y-111902406D01*
X118935017Y-111481413D01*
X118587195Y-111084745D01*
X118340802Y-110851037D01*
X117935653Y-110535351D01*
X117498876Y-110274409D01*
X117026494Y-110065953D01*
X116514528Y-109907725D01*
X116432071Y-109887462D01*
X116313449Y-109861329D01*
X116202894Y-109842874D01*
X116085833Y-109830761D01*
X115947697Y-109823648D01*
X115773914Y-109820197D01*
X115549913Y-109819068D01*
X115539198Y-109819052D01*
X115308966Y-109819855D01*
X115127973Y-109823738D01*
X114981302Y-109831866D01*
X114854035Y-109845404D01*
X114731255Y-109865516D01*
X114598045Y-109893365D01*
X114306332Y-109967585D01*
X113762037Y-110155574D01*
X113230294Y-110405469D01*
X112710384Y-110717722D01*
X112201591Y-111092788D01*
X111703198Y-111531120D01*
X111214489Y-112033171D01*
X110998000Y-112272000D01*
X110781159Y-112033171D01*
X110513526Y-111749469D01*
X110020645Y-111283545D01*
X109518443Y-110881030D01*
X109005997Y-110541338D01*
X108482382Y-110263886D01*
X107946676Y-110048090D01*
X107397955Y-109893365D01*
X107392092Y-109892055D01*
X107259603Y-109864546D01*
X107136933Y-109844727D01*
X107009164Y-109831434D01*
X106861378Y-109823503D01*
X106678658Y-109819769D01*
X106446087Y-109819068D01*
X106312899Y-109819503D01*
X106118435Y-109821813D01*
X105966118Y-109827213D01*
X105841451Y-109837021D01*
X105729938Y-109852554D01*
X105617084Y-109875127D01*
X105488391Y-109906057D01*
X105097063Y-110020626D01*
X104625276Y-110210161D01*
X104190673Y-110448715D01*
X103786481Y-110740132D01*
X103405931Y-111088254D01*
X103164080Y-111355179D01*
X102854815Y-111775776D01*
X102601303Y-112229329D01*
X102403444Y-112716025D01*
X102261139Y-113236051D01*
X102233361Y-113408777D01*
X102212169Y-113645153D01*
X102201334Y-113909681D01*
X102200854Y-114183937D01*
X102006132Y-114183937D01*
X102005534Y-113955223D01*
X102018309Y-113653839D01*
X102044452Y-113376039D01*
X102083756Y-113141488D01*
X102217927Y-112651673D01*
X102407156Y-112174021D01*
X102648714Y-111730240D01*
X102945990Y-111314155D01*
X103302371Y-110919590D01*
X103562653Y-110675317D01*
X103869254Y-110430407D01*
X104192835Y-110220428D01*
X104553686Y-110030971D01*
X104979342Y-109854212D01*
X105457499Y-109716147D01*
X105955937Y-109634603D01*
X106483365Y-109607670D01*
X106499273Y-109607690D01*
X107042439Y-109641568D01*
X107582455Y-109739421D01*
X108117705Y-109900471D01*
X108646574Y-110123937D01*
X109167446Y-110409040D01*
X109678705Y-110755000D01*
X110178735Y-111161037D01*
X110665921Y-111626371D01*
X110998000Y-111968476D01*
X111330079Y-111626371D01*
X111344123Y-111611935D01*
X111831707Y-111148323D01*
X112332088Y-110744031D01*
X112843651Y-110399839D01*
X113364779Y-110116527D01*
X113893858Y-109894874D01*
X114429270Y-109735660D01*
X114969401Y-109639666D01*
X115512635Y-109607670D01*
X115854016Y-109619218D01*
X116389707Y-109686532D01*
X116900933Y-109813820D01*
X117387316Y-110000926D01*
X117848478Y-110247693D01*
X118284041Y-110553966D01*
X118693628Y-110919590D01*
X119033038Y-111293252D01*
X119333291Y-111708071D01*
X119577651Y-112150266D01*
X119769506Y-112626013D01*
X119912244Y-113141488D01*
X119930063Y-113231879D01*
X119963955Y-113486680D01*
X119984600Y-113776607D01*
X119989377Y-113979379D01*
X119991794Y-114081993D01*
X119985328Y-114383173D01*
G37*
G36*
X109680579Y-114234662D02*
G01*
X109577888Y-114368426D01*
X109450187Y-114522415D01*
X109303299Y-114689471D01*
X109143049Y-114862432D01*
X108975260Y-115034138D01*
X108740813Y-115256589D01*
X108341892Y-115586177D01*
X107943509Y-115854076D01*
X107546932Y-116059571D01*
X107153432Y-116201946D01*
X106764279Y-116280485D01*
X106543262Y-116296649D01*
X106167270Y-116276285D01*
X105806241Y-116197294D01*
X105466315Y-116062959D01*
X105153629Y-115876564D01*
X104874325Y-115641390D01*
X104634539Y-115360721D01*
X104440412Y-115037839D01*
X104397134Y-114946159D01*
X104311800Y-114723158D01*
X104258783Y-114498583D01*
X104234258Y-114252508D01*
X104234310Y-114145430D01*
X104424129Y-114145430D01*
X104438852Y-114365799D01*
X104470298Y-114549461D01*
X104487448Y-114612291D01*
X104611725Y-114931256D01*
X104788494Y-115227632D01*
X105009893Y-115491746D01*
X105268063Y-115713924D01*
X105555143Y-115884494D01*
X105606005Y-115908027D01*
X105748693Y-115969142D01*
X105879845Y-116019076D01*
X105976316Y-116048800D01*
X106100565Y-116073914D01*
X106471037Y-116104955D01*
X106846643Y-116071916D01*
X107226584Y-115975107D01*
X107610064Y-115814841D01*
X107996282Y-115591430D01*
X108384441Y-115305184D01*
X108773742Y-114956417D01*
X108801709Y-114928993D01*
X109062190Y-114659973D01*
X109313493Y-114377593D01*
X109533391Y-114106716D01*
X109544587Y-114084986D01*
X109541775Y-114047279D01*
X109513020Y-113991074D01*
X109452771Y-113906263D01*
X109355476Y-113782737D01*
X109345372Y-113770226D01*
X109147030Y-113539344D01*
X108921901Y-113300394D01*
X108685720Y-113068835D01*
X108454219Y-112860130D01*
X108243135Y-112689739D01*
X108138042Y-112615543D01*
X107926776Y-112483600D01*
X107693739Y-112355005D01*
X107457075Y-112238973D01*
X107234930Y-112144721D01*
X107045449Y-112081464D01*
X106969616Y-112063960D01*
X106744662Y-112034672D01*
X106462286Y-112024830D01*
X106328552Y-112025753D01*
X106185219Y-112031984D01*
X106069001Y-112046762D01*
X105958129Y-112073173D01*
X105830836Y-112114301D01*
X105797217Y-112126185D01*
X105496679Y-112257495D01*
X105234587Y-112424637D01*
X104990414Y-112640460D01*
X104899371Y-112740299D01*
X104718469Y-112990893D01*
X104571681Y-113268247D01*
X104472609Y-113548508D01*
X104444615Y-113698079D01*
X104426070Y-113914231D01*
X104424129Y-114145430D01*
X104234310Y-114145430D01*
X104234397Y-113965005D01*
X104237122Y-113903289D01*
X104274734Y-113568014D01*
X104353323Y-113270190D01*
X104478493Y-112997098D01*
X104655846Y-112736015D01*
X104890985Y-112474221D01*
X105041759Y-112333519D01*
X105280513Y-112155233D01*
X105542129Y-112015748D01*
X105846724Y-111903043D01*
X106060175Y-111855597D01*
X106320774Y-111830150D01*
X106598355Y-111829318D01*
X106870971Y-111853124D01*
X107116675Y-111901595D01*
X107294344Y-111956025D01*
X107690647Y-112122428D01*
X108088795Y-112350609D01*
X108485745Y-112638695D01*
X108878456Y-112984818D01*
X108881632Y-112987874D01*
X109015278Y-113121030D01*
X109158976Y-113271723D01*
X109304811Y-113430835D01*
X109444869Y-113589251D01*
X109571234Y-113737855D01*
X109675992Y-113867529D01*
X109751228Y-113969158D01*
X109789026Y-114033624D01*
X109787634Y-114056457D01*
X109773654Y-114084986D01*
X109752436Y-114128286D01*
X109680579Y-114234662D01*
G37*
G36*
X104554589Y-120339662D02*
G01*
X104576830Y-120406921D01*
X104606666Y-120495842D01*
X104624600Y-120547564D01*
X104624000Y-120559253D01*
X104597051Y-120572529D01*
X104531023Y-120579851D01*
X104417763Y-120581908D01*
X104249117Y-120579394D01*
X103858562Y-120570426D01*
X103820572Y-120459023D01*
X103819448Y-120455715D01*
X103786859Y-120352703D01*
X103761113Y-120260088D01*
X103739644Y-120172557D01*
X104499651Y-120172557D01*
X104554589Y-120339662D01*
G37*
G36*
X119924354Y-122847468D02*
G01*
X119953944Y-122942236D01*
X119965977Y-122981516D01*
X119971153Y-123012136D01*
X119961562Y-123037218D01*
X119959677Y-123036750D01*
X119918752Y-123016477D01*
X119832975Y-122969752D01*
X119710980Y-122901405D01*
X119561402Y-122816264D01*
X119392875Y-122719158D01*
X118843990Y-122401098D01*
X118731258Y-122042780D01*
X118618526Y-121684461D01*
X118042680Y-121666295D01*
X117627828Y-120347619D01*
X117419827Y-120338288D01*
X117211827Y-120328957D01*
X117415189Y-120972099D01*
X117435501Y-121036468D01*
X117493862Y-121222993D01*
X117544174Y-121386107D01*
X117583611Y-121516501D01*
X117609345Y-121604866D01*
X117618551Y-121641894D01*
X117589467Y-121650175D01*
X117506492Y-121657534D01*
X117379554Y-121663350D01*
X117218591Y-121667172D01*
X117033543Y-121668546D01*
X116448535Y-121668546D01*
X116343876Y-121334336D01*
X116239217Y-121000125D01*
X115751190Y-121000125D01*
X115656285Y-121000582D01*
X115500660Y-121003535D01*
X115376076Y-121008777D01*
X115293405Y-121015775D01*
X115263518Y-121023998D01*
X115267360Y-121042569D01*
X115286639Y-121112541D01*
X115318455Y-121219850D01*
X115358652Y-121350251D01*
X115385598Y-121436531D01*
X115408130Y-121509399D01*
X115409164Y-121512744D01*
X115420646Y-121549876D01*
X115444738Y-121629254D01*
X115453785Y-121661291D01*
X115453777Y-121661342D01*
X115422663Y-121663602D01*
X115337935Y-121664727D01*
X115209451Y-121664717D01*
X115047070Y-121663571D01*
X114860650Y-121661291D01*
X114267160Y-121652632D01*
X113850270Y-120331704D01*
X113647429Y-120331704D01*
X113618598Y-120331734D01*
X113521460Y-120333896D01*
X113472230Y-120343150D01*
X113457979Y-120364593D01*
X113465784Y-120403321D01*
X113466278Y-120404985D01*
X113485739Y-120468405D01*
X113519377Y-120576032D01*
X113563492Y-120716208D01*
X113614384Y-120877273D01*
X113668354Y-121047570D01*
X113721701Y-121215440D01*
X113770727Y-121369224D01*
X113811731Y-121497263D01*
X113841015Y-121587900D01*
X113854878Y-121629475D01*
X113851985Y-121641016D01*
X113821763Y-121652170D01*
X113755334Y-121659403D01*
X113645847Y-121663088D01*
X113486451Y-121663598D01*
X113270293Y-121661305D01*
X112670564Y-121652632D01*
X112463440Y-120992168D01*
X112256315Y-120331704D01*
X111770047Y-120331704D01*
X111972871Y-120968872D01*
X111991551Y-121027689D01*
X112050209Y-121214205D01*
X112100815Y-121377857D01*
X112140506Y-121509212D01*
X112166420Y-121598835D01*
X112175694Y-121637293D01*
X112170594Y-121643560D01*
X112118113Y-121656627D01*
X112017906Y-121665329D01*
X111881271Y-121668468D01*
X111586847Y-121668390D01*
X111380811Y-121012238D01*
X111356888Y-120936715D01*
X111295916Y-120750201D01*
X111240372Y-120588472D01*
X111193519Y-120460562D01*
X111158618Y-120375504D01*
X111138931Y-120342332D01*
X111096588Y-120336934D01*
X111008052Y-120335170D01*
X110895553Y-120338098D01*
X110688019Y-120347619D01*
X110890034Y-120984211D01*
X110908809Y-121043469D01*
X110967238Y-121229143D01*
X111017705Y-121391407D01*
X111046511Y-121485526D01*
X111057354Y-121520954D01*
X111083327Y-121608479D01*
X111092769Y-121644674D01*
X111082963Y-121646565D01*
X111018158Y-121649839D01*
X110896375Y-121652956D01*
X110721895Y-121655882D01*
X110499000Y-121658585D01*
X110231972Y-121661033D01*
X109925093Y-121663194D01*
X109582645Y-121665034D01*
X109208909Y-121666522D01*
X108808168Y-121667625D01*
X108384702Y-121668311D01*
X107942794Y-121668546D01*
X104792100Y-121668546D01*
X104689806Y-121334336D01*
X104587511Y-121000125D01*
X104386991Y-121000125D01*
X104291113Y-121003342D01*
X104215459Y-121012825D01*
X104186471Y-121026380D01*
X104186583Y-121028154D01*
X104198027Y-121074551D01*
X104224581Y-121161960D01*
X104261010Y-121273059D01*
X104261165Y-121273517D01*
X104301607Y-121396387D01*
X104336069Y-121506840D01*
X104357105Y-121581015D01*
X104378662Y-121668546D01*
X102183978Y-121668546D01*
X102103019Y-121412267D01*
X102089844Y-121370157D01*
X102063268Y-121281842D01*
X102244867Y-121281842D01*
X102244913Y-121283361D01*
X102255733Y-121332590D01*
X102279811Y-121409160D01*
X102314754Y-121509399D01*
X103577535Y-121509399D01*
X103517654Y-121326379D01*
X103516756Y-121323630D01*
X103487486Y-121233177D01*
X103443337Y-121095637D01*
X103388472Y-120924024D01*
X103327050Y-120731353D01*
X103263234Y-120530639D01*
X103076060Y-119941119D01*
X103422191Y-119941119D01*
X103428704Y-119967592D01*
X103452154Y-120047978D01*
X103490230Y-120173555D01*
X103540358Y-120335933D01*
X103599965Y-120526722D01*
X103666476Y-120737531D01*
X103911130Y-121509399D01*
X104032886Y-121509399D01*
X104056388Y-121509211D01*
X104126448Y-121505800D01*
X104154642Y-121499455D01*
X104151727Y-121488396D01*
X104132940Y-121428959D01*
X104100580Y-121330567D01*
X104059153Y-121207018D01*
X104037198Y-121140944D01*
X103999454Y-121021175D01*
X103973389Y-120929832D01*
X103963664Y-120882751D01*
X103965627Y-120875027D01*
X103992943Y-120858749D01*
X104058947Y-120848262D01*
X104171940Y-120842645D01*
X104340220Y-120840978D01*
X104716776Y-120840978D01*
X104818613Y-121175188D01*
X104920451Y-121509399D01*
X105168031Y-121509399D01*
X105091713Y-121262719D01*
X105070127Y-121193376D01*
X105024354Y-121047579D01*
X104967756Y-120868295D01*
X104905519Y-120671943D01*
X104842830Y-120474937D01*
X104677476Y-119956441D01*
X105020809Y-119956441D01*
X105021834Y-119973622D01*
X105029274Y-119998672D01*
X105054368Y-120080214D01*
X105093853Y-120207129D01*
X105144893Y-120370342D01*
X105204655Y-120560778D01*
X105270306Y-120769361D01*
X105503560Y-121509399D01*
X105624840Y-121509399D01*
X105647943Y-121509253D01*
X105717877Y-121506527D01*
X105745943Y-121501441D01*
X105736918Y-121471041D01*
X105712093Y-121390693D01*
X105674856Y-121271186D01*
X105628592Y-121123307D01*
X105576690Y-120957839D01*
X105522535Y-120785570D01*
X105469515Y-120617283D01*
X105421016Y-120463765D01*
X105380426Y-120335800D01*
X105351131Y-120244173D01*
X105345866Y-120226912D01*
X105343926Y-120196228D01*
X105368142Y-120180087D01*
X105431014Y-120173910D01*
X105545041Y-120173116D01*
X105762035Y-120173676D01*
X106177671Y-121493484D01*
X106296106Y-121503363D01*
X106317358Y-121504744D01*
X106386609Y-121502321D01*
X106414541Y-121489162D01*
X106409322Y-121466749D01*
X106387607Y-121391442D01*
X106351960Y-121273892D01*
X106305578Y-121124608D01*
X106251661Y-120954095D01*
X106215271Y-120839764D01*
X106159453Y-120663760D01*
X106110070Y-120507307D01*
X106071441Y-120384100D01*
X106047884Y-120307832D01*
X106006987Y-120172557D01*
X106434259Y-120172557D01*
X106643773Y-120833020D01*
X106853287Y-121493484D01*
X106968125Y-121503363D01*
X106971691Y-121503658D01*
X107053982Y-121500522D01*
X107082962Y-121475232D01*
X107077227Y-121446913D01*
X107053417Y-121361169D01*
X107010888Y-121218923D01*
X106949396Y-121019385D01*
X106868697Y-120761765D01*
X106768546Y-120445270D01*
X106648700Y-120069110D01*
X106611522Y-119952727D01*
X106955644Y-119952727D01*
X106956957Y-119961182D01*
X106972778Y-120021797D01*
X107004274Y-120130096D01*
X107048614Y-120276663D01*
X107102965Y-120452084D01*
X107164494Y-120646941D01*
X107184325Y-120709198D01*
X107246931Y-120905854D01*
X107303760Y-121084524D01*
X107351421Y-121234541D01*
X107386526Y-121345240D01*
X107405684Y-121405953D01*
X107434167Y-121474055D01*
X107435921Y-121475232D01*
X107477679Y-121503259D01*
X107560296Y-121509399D01*
X107682568Y-121509399D01*
X107606249Y-121262719D01*
X107584676Y-121193402D01*
X107538926Y-121047605D01*
X107482364Y-120868315D01*
X107420175Y-120671953D01*
X107357541Y-120474937D01*
X107188495Y-119944327D01*
X107528577Y-119944327D01*
X107528620Y-119945844D01*
X107539429Y-119995514D01*
X107563520Y-120072318D01*
X107598463Y-120172557D01*
X108605666Y-120172557D01*
X108660605Y-120339662D01*
X108682863Y-120406987D01*
X108712529Y-120495451D01*
X108730227Y-120546554D01*
X108730911Y-120549255D01*
X108717558Y-120564099D01*
X108668372Y-120574669D01*
X108576404Y-120581527D01*
X108434707Y-120585231D01*
X108236332Y-120586341D01*
X107727753Y-120586341D01*
X107872980Y-121047870D01*
X108018208Y-121509399D01*
X108652111Y-121509399D01*
X108845421Y-121509065D01*
X109012657Y-121507495D01*
X109130761Y-121504047D01*
X109207467Y-121498081D01*
X109250512Y-121488960D01*
X109267630Y-121476045D01*
X109266558Y-121458697D01*
X109251075Y-121413051D01*
X109227872Y-121331379D01*
X109208643Y-121254762D01*
X108178371Y-121254762D01*
X108136404Y-121103572D01*
X108123002Y-121055393D01*
X108096227Y-120959747D01*
X108078346Y-120896679D01*
X108076631Y-120889702D01*
X108079067Y-120870543D01*
X108100909Y-120857166D01*
X108151005Y-120848546D01*
X108238206Y-120843658D01*
X108371363Y-120841477D01*
X108559325Y-120840978D01*
X108662247Y-120840459D01*
X108818434Y-120837451D01*
X108943258Y-120832211D01*
X109025955Y-120825257D01*
X109055760Y-120817105D01*
X109054519Y-120810357D01*
X109039157Y-120754541D01*
X109009037Y-120653742D01*
X108967664Y-120519544D01*
X108918542Y-120363534D01*
X108789955Y-119958989D01*
X109129327Y-119958989D01*
X109133609Y-119980898D01*
X109145089Y-120021335D01*
X109169697Y-120108118D01*
X109173793Y-120120147D01*
X109188846Y-120140515D01*
X109220348Y-120155007D01*
X109277740Y-120164899D01*
X109370463Y-120171467D01*
X109507960Y-120175987D01*
X109699673Y-120179735D01*
X110211837Y-120188471D01*
X110249845Y-120299875D01*
X110250972Y-120303188D01*
X110283572Y-120406198D01*
X110309323Y-120498810D01*
X110330792Y-120586341D01*
X109337804Y-120586341D01*
X109359991Y-120689787D01*
X109361053Y-120694694D01*
X109380353Y-120771835D01*
X109396228Y-120817105D01*
X109411117Y-120822239D01*
X109479997Y-120829675D01*
X109594582Y-120835615D01*
X109743788Y-120839552D01*
X109916534Y-120840978D01*
X110422790Y-120840978D01*
X110481408Y-121039912D01*
X110540027Y-121238847D01*
X110040513Y-121247576D01*
X109541000Y-121256305D01*
X109596776Y-121476045D01*
X109605242Y-121509399D01*
X110237962Y-121509399D01*
X110274493Y-121509359D01*
X110463512Y-121507820D01*
X110626911Y-121504307D01*
X110755181Y-121499180D01*
X110838814Y-121492800D01*
X110868299Y-121485526D01*
X110861504Y-121460673D01*
X110837533Y-121381884D01*
X110798817Y-121257781D01*
X110748003Y-121096780D01*
X110687735Y-120907296D01*
X110620659Y-120697744D01*
X110375730Y-119934857D01*
X110711534Y-119934857D01*
X110712054Y-119938656D01*
X110727298Y-119985375D01*
X110757078Y-120060797D01*
X110802622Y-120169800D01*
X111050952Y-120179135D01*
X111299282Y-120188471D01*
X111506724Y-120848297D01*
X111714165Y-121508123D01*
X111833526Y-121508761D01*
X111855114Y-121508482D01*
X111924531Y-121500718D01*
X111952153Y-121485526D01*
X111951196Y-121480517D01*
X111936323Y-121427775D01*
X111905675Y-121326563D01*
X111862128Y-121186177D01*
X111808559Y-121015911D01*
X111747842Y-120825063D01*
X111544266Y-120188471D01*
X111780803Y-120172557D01*
X111801061Y-120171105D01*
X111911111Y-120159770D01*
X111989138Y-120145926D01*
X112019356Y-120132240D01*
X112014778Y-120087906D01*
X112000515Y-120012879D01*
X111981407Y-119925877D01*
X112303797Y-119925877D01*
X112311297Y-119950708D01*
X112335794Y-120028848D01*
X112368472Y-120132240D01*
X112374820Y-120152326D01*
X112425804Y-120313029D01*
X112486176Y-120502845D01*
X112553366Y-120713659D01*
X112802150Y-121493484D01*
X112918621Y-121503363D01*
X112938146Y-121504653D01*
X113007351Y-121501786D01*
X113035561Y-121487448D01*
X113029098Y-121460750D01*
X113005716Y-121380085D01*
X112967716Y-121254247D01*
X112917669Y-121091645D01*
X112858147Y-120900689D01*
X112791719Y-120689787D01*
X112547407Y-119917920D01*
X112883536Y-119917920D01*
X113131281Y-120699953D01*
X113191115Y-120887829D01*
X113253658Y-121081924D01*
X113308021Y-121248199D01*
X113351486Y-121378424D01*
X113381333Y-121464369D01*
X113390659Y-121487448D01*
X113394844Y-121497805D01*
X113396754Y-121499215D01*
X113441762Y-121506177D01*
X113519195Y-121503553D01*
X113627729Y-121493484D01*
X113427079Y-120856892D01*
X113408520Y-120797911D01*
X113350500Y-120612160D01*
X113300431Y-120449822D01*
X113261144Y-120320212D01*
X113235473Y-120232642D01*
X113226250Y-120196429D01*
X113255708Y-120187185D01*
X113336486Y-120179582D01*
X113456202Y-120174444D01*
X113602474Y-120172557D01*
X113978878Y-120172557D01*
X114188160Y-120833020D01*
X114397442Y-121493484D01*
X114651966Y-121512744D01*
X114515480Y-121089330D01*
X114458617Y-120912127D01*
X114388496Y-120692054D01*
X114320056Y-120475876D01*
X114262292Y-120291917D01*
X114156451Y-119952727D01*
X114499253Y-119952727D01*
X114500567Y-119961182D01*
X114516387Y-120021797D01*
X114547883Y-120130096D01*
X114592223Y-120276663D01*
X114646574Y-120452084D01*
X114708103Y-120646941D01*
X114727934Y-120709198D01*
X114790540Y-120905854D01*
X114847369Y-121084524D01*
X114895030Y-121234541D01*
X114930135Y-121345240D01*
X114949293Y-121405953D01*
X114949691Y-121407223D01*
X114978178Y-121474660D01*
X115021850Y-121503382D01*
X115104768Y-121509399D01*
X115227902Y-121509399D01*
X115181690Y-121358208D01*
X115178718Y-121348528D01*
X115151881Y-121262336D01*
X115110161Y-121129532D01*
X115057314Y-120962014D01*
X114997089Y-120771680D01*
X114933240Y-120570426D01*
X114734336Y-119944327D01*
X115072186Y-119944327D01*
X115072218Y-119945632D01*
X115082877Y-119994994D01*
X115106859Y-120071543D01*
X115141532Y-120171007D01*
X116161632Y-120188471D01*
X116221202Y-120379449D01*
X116249424Y-120470700D01*
X116272292Y-120546345D01*
X116281241Y-120578384D01*
X116268758Y-120580143D01*
X116203699Y-120582604D01*
X116092465Y-120584568D01*
X115945714Y-120585870D01*
X115774102Y-120586341D01*
X115266495Y-120586341D01*
X115307785Y-120705702D01*
X115349076Y-120825063D01*
X116365160Y-120842497D01*
X116580704Y-121509399D01*
X116701758Y-121509399D01*
X116724719Y-121509254D01*
X116794438Y-121506529D01*
X116822207Y-121501441D01*
X116814775Y-121476636D01*
X116790382Y-121398510D01*
X116751482Y-121275034D01*
X116700640Y-121114323D01*
X116640419Y-120924493D01*
X116573381Y-120713659D01*
X116332540Y-119957022D01*
X116670098Y-119957022D01*
X116678388Y-119982758D01*
X116703982Y-120063614D01*
X116743735Y-120189830D01*
X116794897Y-120352658D01*
X116854717Y-120543351D01*
X116920445Y-120753161D01*
X117154710Y-121501441D01*
X117157023Y-121508829D01*
X117276384Y-121509114D01*
X117297833Y-121508836D01*
X117367603Y-121502133D01*
X117395744Y-121489226D01*
X117391723Y-121473252D01*
X117371632Y-121405738D01*
X117337777Y-121295862D01*
X117293652Y-121154639D01*
X117242754Y-120993082D01*
X117188578Y-120822206D01*
X117134619Y-120653025D01*
X117084374Y-120496554D01*
X117041338Y-120363806D01*
X117009007Y-120265796D01*
X116990876Y-120213539D01*
X116992306Y-120197821D01*
X117020851Y-120185232D01*
X117086811Y-120178509D01*
X117198902Y-120176864D01*
X117365839Y-120179504D01*
X117757304Y-120188471D01*
X118172988Y-121509399D01*
X118293639Y-121509399D01*
X118316549Y-121508962D01*
X118385409Y-121500785D01*
X118411969Y-121485526D01*
X118405206Y-121460696D01*
X118381299Y-121381920D01*
X118342669Y-121257819D01*
X118291958Y-121096810D01*
X118231806Y-120907313D01*
X118164854Y-120697744D01*
X117920062Y-119933835D01*
X117288195Y-119925192D01*
X117081475Y-119923027D01*
X116911081Y-119923193D01*
X116791451Y-119926330D01*
X116715880Y-119932784D01*
X116677663Y-119942900D01*
X116670098Y-119957022D01*
X116332540Y-119957022D01*
X116325159Y-119933835D01*
X115698673Y-119925204D01*
X115667677Y-119924811D01*
X115478904Y-119923950D01*
X115315366Y-119925763D01*
X115186667Y-119929960D01*
X115102406Y-119936245D01*
X115072186Y-119944327D01*
X114734336Y-119944327D01*
X114731003Y-119933835D01*
X114615128Y-119923956D01*
X114612554Y-119923742D01*
X114528363Y-119926718D01*
X114499253Y-119952727D01*
X114156451Y-119952727D01*
X114145590Y-119917920D01*
X112883536Y-119917920D01*
X112547407Y-119917920D01*
X112425210Y-119917920D01*
X112401220Y-119918075D01*
X112331462Y-119920810D01*
X112303797Y-119925877D01*
X111981407Y-119925877D01*
X111979659Y-119917920D01*
X111345596Y-119917920D01*
X111308354Y-119917949D01*
X111118959Y-119919045D01*
X110955032Y-119921538D01*
X110826120Y-119925175D01*
X110741772Y-119929700D01*
X110711534Y-119934857D01*
X110375730Y-119934857D01*
X110375402Y-119933835D01*
X109745368Y-119925197D01*
X109615066Y-119923456D01*
X109433176Y-119921605D01*
X109302340Y-119921891D01*
X109214546Y-119925043D01*
X109161786Y-119931791D01*
X109136050Y-119942863D01*
X109129327Y-119958989D01*
X108789955Y-119958989D01*
X108781960Y-119933835D01*
X108155268Y-119925204D01*
X108124101Y-119924809D01*
X107935311Y-119923950D01*
X107771764Y-119925765D01*
X107643060Y-119929961D01*
X107558797Y-119936246D01*
X107528577Y-119944327D01*
X107188495Y-119944327D01*
X107185152Y-119933835D01*
X107070398Y-119923956D01*
X107068505Y-119923796D01*
X106984699Y-119926699D01*
X106955644Y-119952727D01*
X106611522Y-119952727D01*
X106600403Y-119917920D01*
X105803509Y-119917920D01*
X105783974Y-119917921D01*
X105542521Y-119918221D01*
X105357090Y-119919409D01*
X105220554Y-119921993D01*
X105125786Y-119926480D01*
X105065657Y-119933378D01*
X105033041Y-119943196D01*
X105020809Y-119956441D01*
X104677476Y-119956441D01*
X104670267Y-119933835D01*
X104046414Y-119925204D01*
X104017708Y-119924833D01*
X103829096Y-119923743D01*
X103665608Y-119925072D01*
X103536875Y-119928575D01*
X103452526Y-119934006D01*
X103422191Y-119941119D01*
X103076060Y-119941119D01*
X103068694Y-119917920D01*
X102825728Y-119917920D01*
X103028656Y-120559688D01*
X103048594Y-120622870D01*
X103106925Y-120809291D01*
X103157219Y-120972346D01*
X103196647Y-121102713D01*
X103222378Y-121191074D01*
X103231584Y-121228109D01*
X103221420Y-121233488D01*
X103159719Y-121241918D01*
X103051405Y-121248664D01*
X102907299Y-121253140D01*
X102738226Y-121254762D01*
X102638661Y-121255320D01*
X102482610Y-121258707D01*
X102357746Y-121264652D01*
X102274891Y-121272562D01*
X102244867Y-121281842D01*
X102063268Y-121281842D01*
X102055239Y-121255161D01*
X102031118Y-121168307D01*
X102022060Y-121125801D01*
X102026604Y-121121298D01*
X102079074Y-121110830D01*
X102183616Y-121102718D01*
X102331856Y-121097476D01*
X102515419Y-121095614D01*
X102614972Y-121095210D01*
X102771027Y-121092756D01*
X102895895Y-121088448D01*
X102978753Y-121082716D01*
X103008777Y-121075991D01*
X103007667Y-121070504D01*
X102992345Y-121017205D01*
X102961251Y-120915599D01*
X102917240Y-120774838D01*
X102863167Y-120604077D01*
X102801885Y-120412468D01*
X102780511Y-120345837D01*
X102721340Y-120160146D01*
X102670346Y-119998325D01*
X102630387Y-119869547D01*
X102604317Y-119782988D01*
X102594993Y-119747821D01*
X102595143Y-119747690D01*
X102630791Y-119745782D01*
X102727170Y-119743856D01*
X102881538Y-119741923D01*
X103091157Y-119739993D01*
X103353286Y-119738077D01*
X103665185Y-119736184D01*
X104024112Y-119734325D01*
X104427329Y-119732511D01*
X104872095Y-119730751D01*
X105355669Y-119729055D01*
X105875312Y-119727435D01*
X106428283Y-119725900D01*
X107011842Y-119724460D01*
X107623248Y-119723126D01*
X108259762Y-119721907D01*
X108918643Y-119720815D01*
X109597151Y-119719859D01*
X110292546Y-119719050D01*
X117990100Y-119711028D01*
X117761781Y-118994862D01*
X117720262Y-118863888D01*
X117661097Y-118674393D01*
X117651801Y-118643962D01*
X117841358Y-118643962D01*
X117847891Y-118668794D01*
X117871732Y-118748652D01*
X117911108Y-118877064D01*
X117963986Y-119047602D01*
X118028333Y-119253835D01*
X118102113Y-119489335D01*
X118183293Y-119747672D01*
X118269840Y-120022417D01*
X118359719Y-120307140D01*
X118450897Y-120595412D01*
X118541339Y-120880804D01*
X118629012Y-121156885D01*
X118711882Y-121417228D01*
X118733685Y-121485526D01*
X118787916Y-121655402D01*
X118855078Y-121864977D01*
X118911335Y-122039526D01*
X118954654Y-122172617D01*
X118983001Y-122257823D01*
X118994341Y-122288712D01*
X119020444Y-122304349D01*
X119091226Y-122345813D01*
X119195307Y-122406428D01*
X119321434Y-122479624D01*
X119439188Y-122547836D01*
X119550007Y-122611986D01*
X119629988Y-122658232D01*
X119667012Y-122679564D01*
X119679680Y-122676786D01*
X119675776Y-122635377D01*
X119633053Y-122497939D01*
X119533132Y-122178330D01*
X119428950Y-121847357D01*
X119322304Y-121510567D01*
X119214991Y-121173504D01*
X119108807Y-120841713D01*
X119005549Y-120520741D01*
X118907014Y-120216132D01*
X118814999Y-119933432D01*
X118731300Y-119678187D01*
X118657714Y-119455942D01*
X118596038Y-119272242D01*
X118548069Y-119132634D01*
X118515604Y-119042661D01*
X118500438Y-119007870D01*
X118450340Y-118971182D01*
X118365219Y-118917622D01*
X118258238Y-118854608D01*
X118142137Y-118789176D01*
X118029658Y-118728361D01*
X117933541Y-118679197D01*
X117866528Y-118648719D01*
X117841358Y-118643962D01*
X117651801Y-118643962D01*
X117611285Y-118511330D01*
X117573381Y-118383235D01*
X117549941Y-118298642D01*
X117543523Y-118266089D01*
X117545975Y-118265794D01*
X117586983Y-118283036D01*
X117669925Y-118325824D01*
X117784591Y-118388290D01*
X117920767Y-118464563D01*
X118068241Y-118548774D01*
X118216801Y-118635053D01*
X118356234Y-118717531D01*
X118476329Y-118790337D01*
X118566873Y-118847603D01*
X118617654Y-118883459D01*
X118633006Y-118901714D01*
X118656379Y-118943620D01*
X118686262Y-119010923D01*
X118724006Y-119107563D01*
X118770963Y-119237481D01*
X118828484Y-119404617D01*
X118897921Y-119612910D01*
X118980625Y-119866302D01*
X119077947Y-120168731D01*
X119191240Y-120524139D01*
X119321855Y-120936466D01*
X119363369Y-121067834D01*
X119469941Y-121405215D01*
X119570436Y-121723559D01*
X119663215Y-122017659D01*
X119746635Y-122282307D01*
X119819059Y-122512296D01*
X119870784Y-122676786D01*
X119878845Y-122702419D01*
X119924354Y-122847468D01*
G37*
%TD*%
D13*
%TO.C,MX10*%
X197167500Y-114300000D03*
D14*
X192087500Y-114300000D03*
D13*
X187007500Y-114300000D03*
D15*
X188277500Y-111760000D03*
X194627500Y-109220000D03*
D16*
X190817500Y-119380000D03*
D17*
X193357500Y-119380000D03*
%TD*%
D13*
%TO.C,MX1*%
X97085250Y-114300000D03*
D14*
X92005250Y-114300000D03*
D13*
X86925250Y-114300000D03*
D15*
X88195250Y-111760000D03*
X94545250Y-109220000D03*
D16*
X90735250Y-119380000D03*
D17*
X93275250Y-119380000D03*
%TD*%
D13*
%TO.C,MX3*%
X105975250Y-95250000D03*
X116135250Y-95250000D03*
D14*
X111055250Y-95250000D03*
D15*
X107245250Y-92710000D03*
X113595250Y-90170000D03*
D16*
X109785250Y-100330000D03*
D17*
X112325250Y-100330000D03*
%TD*%
D18*
%TO.C,REF\u002A\u002A*%
X170703000Y-121920000D03*
D19*
X173243000Y-121920000D03*
X175783000Y-121920000D03*
%TD*%
D20*
%TO.C,SW1*%
X192024000Y-88732000D03*
X198524000Y-88732000D03*
X192024000Y-93232000D03*
X198524000Y-93232000D03*
%TD*%
D13*
%TO.C,MX7*%
X159067500Y-76200000D03*
D14*
X153987500Y-76200000D03*
D13*
X148907500Y-76200000D03*
D15*
X150177500Y-73660000D03*
X156527500Y-71120000D03*
D16*
X152717500Y-81280000D03*
D17*
X155257500Y-81280000D03*
%TD*%
D20*
%TO.C,SW2*%
X198524000Y-97282000D03*
X192024000Y-97282000D03*
X198524000Y-101782000D03*
X192024000Y-101782000D03*
%TD*%
D18*
%TO.C,REF\u002A\u002A*%
X94456250Y-95250000D03*
D19*
X91916250Y-95250000D03*
X89376250Y-95250000D03*
%TD*%
D13*
%TO.C,MX8*%
X167957500Y-95250000D03*
D14*
X173037500Y-95250000D03*
D13*
X178117500Y-95250000D03*
D15*
X169227500Y-92710000D03*
X175577500Y-90170000D03*
D16*
X171767500Y-100330000D03*
D17*
X174307500Y-100330000D03*
%TD*%
D13*
%TO.C,MX5*%
X135255000Y-114300000D03*
D14*
X130175000Y-114300000D03*
D13*
X125095000Y-114300000D03*
D15*
X126365000Y-111760000D03*
X132715000Y-109220000D03*
D16*
X128905000Y-119380000D03*
D17*
X131445000Y-119380000D03*
%TD*%
D14*
%TO.C,MX2*%
X92005250Y-76200000D03*
D13*
X97085250Y-76200000D03*
X86925250Y-76200000D03*
D15*
X88195250Y-73660000D03*
X94545250Y-71120000D03*
D16*
X90735250Y-81280000D03*
D17*
X93275250Y-81280000D03*
%TD*%
D13*
%TO.C,MX6*%
X159067500Y-114300000D03*
D14*
X153987500Y-114300000D03*
D13*
X148907500Y-114300000D03*
D15*
X150177500Y-111760000D03*
X156527500Y-109220000D03*
D16*
X152717500Y-119380000D03*
D17*
X155257500Y-119380000D03*
%TD*%
D14*
%TO.C,MX4*%
X130105250Y-76200000D03*
D13*
X125025250Y-76200000D03*
X135185250Y-76200000D03*
D15*
X126295250Y-73660000D03*
X132645250Y-71120000D03*
D16*
X128835250Y-81280000D03*
D17*
X131375250Y-81280000D03*
%TD*%
D14*
%TO.C,MX9*%
X192087500Y-76200000D03*
D13*
X197167500Y-76200000D03*
X187007500Y-76200000D03*
D15*
X188277500Y-73660000D03*
X194627500Y-71120000D03*
D16*
X190817500Y-81280000D03*
D17*
X193357500Y-81280000D03*
%TD*%
D21*
%TO.C,LED3*%
X143420000Y-62612000D03*
X143420000Y-65912000D03*
X138520000Y-65912000D03*
X138520000Y-62612000D03*
%TD*%
D22*
%TO.C,REF\u002A\u002A*%
X92598000Y-98806000D03*
D23*
X91298000Y-98806000D03*
%TD*%
D24*
%TO.C,C1*%
X92964000Y-124438500D03*
X92964000Y-126513500D03*
%TD*%
D25*
%TO.C,R6*%
X155178000Y-123190000D03*
X153178000Y-123190000D03*
%TD*%
D24*
%TO.C,C2*%
X92710000Y-64494500D03*
X92710000Y-66569500D03*
%TD*%
D25*
%TO.C,R8*%
X173974000Y-113538000D03*
X171974000Y-113538000D03*
%TD*%
D26*
%TO.C,R9*%
X191278000Y-85090000D03*
X193278000Y-85090000D03*
%TD*%
D21*
%TO.C,LED4*%
X143420000Y-123826000D03*
X143420000Y-127126000D03*
X138520000Y-127126000D03*
X138520000Y-123826000D03*
%TD*%
D26*
%TO.C,R10*%
X185944000Y-119380000D03*
X187944000Y-119380000D03*
%TD*%
D27*
%TO.C,U1*%
X182757750Y-61402998D03*
D19*
X181857750Y-61402998D03*
X181857750Y-63942998D03*
D27*
X182757750Y-63942998D03*
X182757750Y-66482998D03*
D18*
X181857750Y-66482998D03*
D19*
X181857750Y-69022998D03*
D27*
X182757750Y-69022998D03*
X182757750Y-71562998D03*
D19*
X181857750Y-71562998D03*
X181857750Y-74102998D03*
D27*
X182757750Y-74102998D03*
X182757750Y-76642998D03*
D19*
X181857750Y-76642998D03*
D18*
X181857750Y-79182998D03*
D27*
X182757750Y-79182998D03*
X182757750Y-81722998D03*
D19*
X181857750Y-81722998D03*
X181857750Y-84262998D03*
D27*
X182757750Y-84262998D03*
D19*
X181857750Y-86802998D03*
D27*
X182757750Y-86802998D03*
X182757750Y-89342998D03*
D19*
X181857750Y-89342998D03*
D18*
X181857750Y-91882998D03*
D27*
X182757750Y-91882998D03*
D19*
X181857750Y-94422998D03*
D27*
X182757750Y-94422998D03*
X182757750Y-96962998D03*
D19*
X181857750Y-96962998D03*
X181857750Y-99502998D03*
D27*
X182757750Y-99502998D03*
D19*
X181857750Y-102042998D03*
D27*
X182757750Y-102042998D03*
X182757750Y-104582998D03*
D18*
X181857750Y-104582998D03*
D19*
X181857750Y-107122998D03*
D27*
X182757750Y-107122998D03*
D19*
X181857750Y-109662998D03*
D27*
X182757750Y-109662998D03*
D19*
X164077750Y-109662998D03*
D27*
X163177750Y-109662998D03*
X163177750Y-107122998D03*
D19*
X164077750Y-107122998D03*
D27*
X163177750Y-104582998D03*
D18*
X164077750Y-104582998D03*
D27*
X163177750Y-102042998D03*
D19*
X164077750Y-102042998D03*
D27*
X163177750Y-99502998D03*
D19*
X164077750Y-99502998D03*
D27*
X163177750Y-96962998D03*
D19*
X164077750Y-96962998D03*
X164077750Y-94422998D03*
D27*
X163177750Y-94422998D03*
D18*
X164077750Y-91882998D03*
D27*
X163177750Y-91882998D03*
X163177750Y-89342998D03*
D19*
X164077750Y-89342998D03*
D27*
X163177750Y-86802998D03*
D19*
X164077750Y-86802998D03*
D27*
X163177750Y-84262998D03*
D19*
X164077750Y-84262998D03*
X164077750Y-81722998D03*
D27*
X163177750Y-81722998D03*
D18*
X164077750Y-79182998D03*
D27*
X163177750Y-79182998D03*
D19*
X164077750Y-76642998D03*
D27*
X163177750Y-76642998D03*
D19*
X164077750Y-74102998D03*
D27*
X163177750Y-74102998D03*
X163177750Y-71562998D03*
D19*
X164077750Y-71562998D03*
D27*
X163177750Y-69022998D03*
D19*
X164077750Y-69022998D03*
D27*
X163177750Y-66482998D03*
D18*
X164077750Y-66482998D03*
D19*
X164077750Y-63942998D03*
D27*
X163177750Y-63942998D03*
X163177750Y-61402998D03*
D19*
X164077750Y-61402998D03*
%TD*%
D21*
%TO.C,LED6*%
X199554000Y-62612000D03*
X199554000Y-65912000D03*
X194654000Y-65912000D03*
X194654000Y-62612000D03*
%TD*%
D24*
%TO.C,C4*%
X146558000Y-124438500D03*
X146558000Y-126513500D03*
%TD*%
D21*
%TO.C,LED2*%
X89572000Y-62612000D03*
X89572000Y-65912000D03*
X84672000Y-65912000D03*
X84672000Y-62612000D03*
%TD*%
D25*
%TO.C,R2*%
X98282000Y-119380000D03*
X96282000Y-119380000D03*
%TD*%
D26*
%TO.C,R4*%
X129048000Y-85090000D03*
X131048000Y-85090000D03*
%TD*%
D25*
%TO.C,R7*%
X154924000Y-85090000D03*
X152924000Y-85090000D03*
%TD*%
D24*
%TO.C,C5*%
X199644000Y-68558500D03*
X199644000Y-70633500D03*
%TD*%
D28*
%TO.C,C6*%
X199644000Y-121179500D03*
X199644000Y-119104500D03*
%TD*%
D26*
%TO.C,R3*%
X109998000Y-103886000D03*
X111998000Y-103886000D03*
%TD*%
D21*
%TO.C,LED1*%
X89826000Y-123826000D03*
X89826000Y-127126000D03*
X84926000Y-127126000D03*
X84926000Y-123826000D03*
%TD*%
D24*
%TO.C,C3*%
X146558000Y-63224500D03*
X146558000Y-65299500D03*
%TD*%
D21*
%TO.C,LED5*%
X199554000Y-123826000D03*
X199554000Y-127126000D03*
X194654000Y-127126000D03*
X194654000Y-123826000D03*
%TD*%
D25*
%TO.C,R1*%
X92948000Y-85090000D03*
X90948000Y-85090000D03*
%TD*%
%TO.C,R5*%
X131302000Y-123190000D03*
X129302000Y-123190000D03*
%TD*%
M02*
